G75*
G70*
%OFA0B0*%
%FSLAX24Y24*%
%IPPOS*%
%LPD*%
%AMOC8*
5,1,8,0,0,1.08239X$1,22.5*
%
%ADD10C,0.0600*%
%ADD11R,0.0740X0.0740*%
%ADD12OC8,0.0740*%
%ADD13C,0.0780*%
%ADD14C,0.0740*%
%ADD15OC8,0.0500*%
%ADD16C,0.0540*%
%ADD17C,0.1000*%
%ADD18OC8,0.1000*%
%ADD19C,0.1095*%
%ADD20C,0.0436*%
%ADD21C,0.0120*%
%ADD22C,0.0160*%
D10*
X007687Y020381D02*
X007687Y020981D01*
X008687Y020981D02*
X008687Y020381D01*
X009687Y020381D02*
X009687Y020981D01*
X010687Y020981D02*
X010687Y020381D01*
X041337Y020681D02*
X041937Y020681D01*
X041937Y021681D02*
X041337Y021681D01*
X041337Y022681D02*
X041937Y022681D01*
X041937Y023681D02*
X041337Y023681D01*
X041337Y024681D02*
X041937Y024681D01*
X041937Y025681D02*
X041337Y025681D01*
X041337Y026681D02*
X041937Y026681D01*
X041937Y027681D02*
X041337Y027681D01*
X041337Y028681D02*
X041937Y028681D01*
X041937Y029681D02*
X041337Y029681D01*
X041337Y030681D02*
X041937Y030681D01*
X041937Y031681D02*
X041337Y031681D01*
X041337Y019681D02*
X041937Y019681D01*
X041937Y018681D02*
X041337Y018681D01*
X041337Y017681D02*
X041937Y017681D01*
X041937Y016681D02*
X041337Y016681D01*
X041337Y015681D02*
X041937Y015681D01*
X041937Y014681D02*
X041337Y014681D01*
X041337Y013681D02*
X041937Y013681D01*
X041937Y012681D02*
X041337Y012681D01*
D11*
X015687Y002681D03*
X015187Y026681D03*
D12*
X014187Y026681D03*
X013187Y026681D03*
X013187Y025681D03*
X014187Y025681D03*
X015187Y025681D03*
D13*
X013827Y021181D02*
X013047Y021181D01*
X013047Y019681D02*
X013827Y019681D01*
X012187Y034291D02*
X012187Y035071D01*
X010187Y035071D02*
X010187Y034291D01*
X008187Y034291D02*
X008187Y035071D01*
X008687Y003071D02*
X008687Y002291D01*
X006687Y002291D02*
X006687Y003071D01*
X010687Y003071D02*
X010687Y002291D01*
X012687Y002291D02*
X012687Y003071D01*
X020687Y003071D02*
X020687Y002291D01*
X024687Y002291D02*
X024687Y003071D01*
X028687Y003071D02*
X028687Y002291D01*
X033187Y002291D02*
X033187Y003071D01*
X035687Y003071D02*
X035687Y002291D01*
X038187Y002291D02*
X038187Y003071D01*
D14*
X017687Y002681D03*
X016687Y002681D03*
D15*
X016187Y012681D03*
X017187Y012681D03*
X018187Y012681D03*
X019187Y012681D03*
X020187Y012681D03*
X021187Y012681D03*
X014187Y012681D03*
X013187Y012681D03*
X012187Y012681D03*
X011187Y012681D03*
X010187Y012681D03*
X009187Y012681D03*
X009437Y031681D03*
X008437Y031681D03*
X007437Y031681D03*
X006437Y031681D03*
X005437Y031681D03*
X010437Y031681D03*
X011437Y031681D03*
X012437Y031681D03*
X014187Y031681D03*
X015187Y031681D03*
X016187Y031681D03*
X017187Y031681D03*
X018187Y031681D03*
X019187Y031681D03*
X020187Y031681D03*
X021187Y031681D03*
D16*
X008187Y017951D02*
X008187Y017411D01*
X007187Y017411D02*
X007187Y017951D01*
D17*
X038687Y009181D03*
D18*
X040687Y009181D03*
X029187Y014701D03*
X029187Y017661D03*
D19*
X023087Y009181D03*
X020087Y009181D03*
X006287Y009181D03*
X003287Y009181D03*
D20*
X005887Y011881D03*
X006487Y012381D03*
X007687Y013431D03*
X007687Y013431D03*
X008187Y014481D03*
X005937Y015431D03*
X006187Y017181D03*
X003937Y014781D03*
X009687Y016931D03*
X011687Y019181D03*
X012687Y020381D03*
X011187Y021681D03*
X010187Y021531D03*
X008837Y021681D03*
X008187Y024181D03*
X007687Y024681D03*
X007337Y026431D03*
X007687Y028231D03*
X010937Y028931D03*
X012437Y027431D03*
X009987Y024681D03*
X010537Y024181D03*
X012187Y022431D03*
X012987Y024181D03*
X015237Y022731D03*
X015237Y022731D03*
X014337Y021781D03*
X014887Y021181D03*
X016687Y021681D03*
X017437Y022431D03*
X017187Y023681D03*
X017937Y023631D03*
X019687Y024681D03*
X016687Y025781D03*
X016687Y025781D03*
X015937Y024431D03*
X018687Y022031D03*
X019437Y020931D03*
X020187Y021181D03*
X020687Y020381D03*
X020937Y019231D03*
X021687Y019181D03*
X022687Y020181D03*
X022887Y021181D03*
X023687Y021181D03*
X024937Y019881D03*
X020187Y022181D03*
X018887Y017181D03*
X020187Y015681D03*
X021187Y015381D03*
X021387Y014681D03*
X023387Y014181D03*
X024387Y014181D03*
X024887Y014681D03*
X025387Y014181D03*
X022687Y011531D03*
X022187Y011931D03*
X027687Y006881D03*
X025387Y006681D03*
X023687Y005181D03*
X030187Y010681D03*
X031687Y012181D03*
X035187Y015181D03*
X037387Y015931D03*
X038687Y015681D03*
X038187Y013681D03*
X039187Y012431D03*
X038187Y018681D03*
X038687Y022181D03*
X037387Y022931D03*
X037687Y024931D03*
X037687Y026181D03*
X040187Y024931D03*
X038887Y029181D03*
X037187Y029181D03*
X035687Y030681D03*
X033937Y032431D03*
X032437Y032681D03*
X031687Y029181D03*
X030687Y029181D03*
X031187Y028181D03*
X034187Y027681D03*
X038187Y032181D03*
X029687Y023181D03*
X027187Y024681D03*
X021187Y029681D03*
X023687Y030681D03*
X033187Y020181D03*
X014687Y013681D03*
X013687Y017181D03*
X004687Y021931D03*
D21*
X002041Y001706D02*
X002203Y001426D01*
X002432Y001197D01*
X002713Y001035D01*
X003025Y000951D01*
X003187Y000941D01*
X003239Y000941D01*
X041635Y000941D01*
X041687Y000941D01*
X041849Y000951D01*
X042162Y001035D01*
X042442Y001197D01*
X042671Y001426D01*
X042833Y001706D01*
X042833Y001706D01*
X042916Y002019D01*
X042927Y002181D01*
X042927Y002233D01*
X042927Y034629D01*
X042927Y034681D01*
X042916Y034843D01*
X042833Y035155D01*
X042671Y035436D01*
X042442Y035665D01*
X042162Y035827D01*
X041849Y035910D01*
X041687Y035921D01*
X041635Y035921D01*
X003239Y035921D01*
X003187Y035921D01*
X003025Y035910D01*
X002713Y035827D01*
X002432Y035665D01*
X002203Y035436D01*
X002041Y035155D01*
X001958Y034843D01*
X001947Y034681D01*
X001947Y034629D01*
X001947Y002233D01*
X001947Y002181D01*
X001958Y002019D01*
X002041Y001706D01*
X002034Y001733D02*
X003398Y001733D01*
X003512Y001691D02*
X003184Y001810D01*
X003184Y001810D01*
X002917Y002035D01*
X002917Y002035D01*
X002742Y002337D01*
X002742Y002337D01*
X002682Y002681D01*
X001947Y002681D01*
X001947Y002799D02*
X002703Y002799D01*
X002682Y002681D02*
X002682Y002681D01*
X002742Y003025D01*
X002742Y003025D01*
X002917Y003327D01*
X002917Y003327D01*
X002917Y003327D01*
X003184Y003551D01*
X003184Y003551D01*
X003512Y003671D01*
X003513Y003671D01*
X003635Y003671D01*
X003635Y003671D01*
X003686Y003671D01*
X003687Y003671D01*
X003739Y003671D01*
X003739Y003671D01*
X003862Y003671D01*
X003862Y003671D01*
X004190Y003551D01*
X004190Y003551D01*
X004457Y003327D01*
X004457Y003327D01*
X004632Y003025D01*
X004632Y003025D01*
X004692Y002681D01*
X006077Y002681D01*
X006077Y002799D02*
X004671Y002799D01*
X004692Y002681D02*
X004692Y002681D01*
X004632Y002337D01*
X004632Y002337D01*
X004457Y002035D01*
X004457Y002035D01*
X004457Y002035D01*
X004190Y001810D01*
X004190Y001810D01*
X003862Y001691D01*
X003862Y001691D01*
X003739Y001691D01*
X003739Y001691D01*
X003706Y001691D01*
X003687Y001691D01*
X003662Y001691D01*
X003635Y001691D01*
X003635Y001691D01*
X003513Y001691D01*
X003512Y001691D01*
X003136Y001851D02*
X002003Y001851D01*
X001971Y001970D02*
X002995Y001970D01*
X002886Y002088D02*
X001953Y002088D01*
X001947Y002207D02*
X002818Y002207D01*
X002749Y002325D02*
X001947Y002325D01*
X001947Y002444D02*
X002724Y002444D01*
X002703Y002562D02*
X001947Y002562D01*
X001947Y002918D02*
X002724Y002918D01*
X002749Y003037D02*
X001947Y003037D01*
X001947Y003155D02*
X002818Y003155D01*
X002886Y003274D02*
X001947Y003274D01*
X001947Y003392D02*
X002995Y003392D01*
X003136Y003511D02*
X001947Y003511D01*
X001947Y003629D02*
X003398Y003629D01*
X003976Y003629D02*
X006387Y003629D01*
X006387Y003607D02*
X006342Y003588D01*
X006170Y003416D01*
X006077Y003192D01*
X006077Y002170D01*
X006170Y001945D01*
X006342Y001774D01*
X006566Y001681D01*
X006808Y001681D01*
X007033Y001774D01*
X007204Y001945D01*
X007297Y002170D01*
X007297Y003192D01*
X007204Y003416D01*
X007033Y003588D01*
X007023Y003592D01*
X007311Y003881D01*
X015063Y003881D01*
X015387Y003557D01*
X015387Y003271D01*
X015226Y003271D01*
X015097Y003142D01*
X015097Y002220D01*
X015226Y002091D01*
X016148Y002091D01*
X016277Y002220D01*
X016277Y002257D01*
X016353Y002181D01*
X016570Y002091D01*
X016804Y002091D01*
X017021Y002181D01*
X017187Y002347D01*
X017231Y002453D01*
X017251Y002414D01*
X017298Y002349D01*
X017355Y002292D01*
X017420Y002245D01*
X017491Y002208D01*
X017568Y002184D01*
X017647Y002171D01*
X017647Y002641D01*
X017727Y002641D01*
X017727Y002721D01*
X017647Y002721D01*
X017647Y003191D01*
X017616Y003186D01*
X020811Y006381D01*
X023747Y006381D01*
X023857Y006427D01*
X023941Y006511D01*
X024587Y007157D01*
X024587Y006505D01*
X023701Y005619D01*
X023600Y005619D01*
X023439Y005552D01*
X023316Y005429D01*
X023249Y005268D01*
X023249Y005094D01*
X023316Y004933D01*
X023439Y004810D01*
X023600Y004743D01*
X023774Y004743D01*
X023935Y004810D01*
X024058Y004933D01*
X024125Y005094D01*
X024125Y005195D01*
X025141Y006211D01*
X025176Y006294D01*
X025300Y006243D01*
X025474Y006243D01*
X025635Y006310D01*
X025758Y006433D01*
X025825Y006594D01*
X025825Y006768D01*
X025758Y006929D01*
X025687Y007001D01*
X025687Y009757D01*
X027387Y008057D01*
X027387Y007201D01*
X027316Y007129D01*
X027249Y006968D01*
X027249Y006794D01*
X027316Y006633D01*
X027439Y006510D01*
X027600Y006443D01*
X027774Y006443D01*
X027935Y006510D01*
X028058Y006633D01*
X028125Y006794D01*
X028125Y006968D01*
X028058Y007129D01*
X027987Y007201D01*
X027987Y008241D01*
X027941Y008351D01*
X027857Y008435D01*
X026187Y010105D01*
X026187Y012741D01*
X026141Y012851D01*
X026057Y012935D01*
X025687Y013305D01*
X025687Y013861D01*
X025758Y013933D01*
X025825Y014094D01*
X025825Y014268D01*
X025758Y014429D01*
X025635Y014552D01*
X025474Y014619D01*
X025325Y014619D01*
X025325Y014768D01*
X025278Y014881D01*
X026063Y014881D01*
X026387Y014557D01*
X026387Y011241D01*
X026387Y011121D01*
X026433Y011011D01*
X026933Y010511D01*
X027017Y010427D01*
X027127Y010381D01*
X029868Y010381D01*
X029939Y010310D01*
X030100Y010243D01*
X030274Y010243D01*
X030435Y010310D01*
X030507Y010381D01*
X032563Y010381D01*
X032887Y010057D01*
X032887Y003607D01*
X032842Y003588D01*
X032670Y003416D01*
X032577Y003192D01*
X032577Y002170D01*
X032670Y001945D01*
X032842Y001774D01*
X033066Y001681D01*
X033308Y001681D01*
X033533Y001774D01*
X033704Y001945D01*
X033797Y002170D01*
X033797Y003192D01*
X033704Y003416D01*
X033533Y003588D01*
X033487Y003607D01*
X033487Y010121D01*
X033487Y010241D01*
X033441Y010351D01*
X032941Y010851D01*
X032857Y010935D01*
X032747Y010981D01*
X030507Y010981D01*
X030435Y011052D01*
X030274Y011119D01*
X030100Y011119D01*
X029939Y011052D01*
X029868Y010981D01*
X027311Y010981D01*
X026987Y011305D01*
X026987Y014741D01*
X026941Y014851D01*
X026857Y014935D01*
X026357Y015435D01*
X026247Y015481D01*
X026127Y015481D01*
X022627Y015481D01*
X022517Y015435D01*
X022433Y015351D01*
X021825Y014743D01*
X021825Y014768D01*
X021758Y014929D01*
X021635Y015052D01*
X021524Y015098D01*
X021558Y015133D01*
X021625Y015294D01*
X021625Y015395D01*
X023611Y017381D01*
X028467Y017381D01*
X028467Y017363D01*
X028889Y016941D01*
X029485Y016941D01*
X029907Y017363D01*
X029907Y017959D01*
X029485Y018381D01*
X028889Y018381D01*
X028489Y017981D01*
X023547Y017981D01*
X023427Y017981D01*
X023317Y017935D01*
X021201Y015819D01*
X021100Y015819D01*
X020939Y015752D01*
X020816Y015629D01*
X020749Y015468D01*
X020749Y015339D01*
X020371Y014961D01*
X013131Y014961D01*
X013028Y014918D01*
X012950Y014840D01*
X011261Y013151D01*
X011081Y013151D01*
X013811Y015881D01*
X020127Y015881D01*
X020247Y015881D01*
X020357Y015927D01*
X022811Y018381D01*
X026627Y018381D01*
X026747Y018381D01*
X026857Y018427D01*
X027357Y018927D01*
X027441Y019011D01*
X027487Y019121D01*
X027487Y024361D01*
X027558Y024433D01*
X027625Y024594D01*
X027625Y024768D01*
X027558Y024929D01*
X027435Y025052D01*
X027274Y025119D01*
X027100Y025119D01*
X026939Y025052D01*
X026816Y024929D01*
X026749Y024768D01*
X026749Y024594D01*
X026816Y024433D01*
X026887Y024361D01*
X026887Y019305D01*
X026563Y018981D01*
X022627Y018981D01*
X022517Y018935D01*
X022433Y018851D01*
X020063Y016481D01*
X013627Y016481D01*
X013517Y016435D01*
X013433Y016351D01*
X010233Y013151D01*
X010081Y013151D01*
X013673Y016743D01*
X013774Y016743D01*
X013935Y016810D01*
X014007Y016881D01*
X018568Y016881D01*
X018639Y016810D01*
X018800Y016743D01*
X018974Y016743D01*
X019135Y016810D01*
X019258Y016933D01*
X019325Y017094D01*
X019325Y017268D01*
X019258Y017429D01*
X019135Y017552D01*
X018974Y017619D01*
X018800Y017619D01*
X018639Y017552D01*
X018568Y017481D01*
X014007Y017481D01*
X013935Y017552D01*
X013774Y017619D01*
X013600Y017619D01*
X013439Y017552D01*
X013316Y017429D01*
X013249Y017268D01*
X013249Y017167D01*
X009233Y013151D01*
X008992Y013151D01*
X008717Y012876D01*
X007987Y012876D01*
X007987Y012994D02*
X008836Y012994D01*
X008954Y013113D02*
X007988Y013113D01*
X007987Y013111D02*
X008058Y013183D01*
X008125Y013344D01*
X008125Y013518D01*
X008058Y013679D01*
X007987Y013751D01*
X007987Y013857D01*
X008173Y014043D01*
X008274Y014043D01*
X008435Y014110D01*
X008558Y014233D01*
X008625Y014394D01*
X008625Y014568D01*
X008558Y014729D01*
X008487Y014801D01*
X008487Y017018D01*
X008602Y017133D01*
X008677Y017313D01*
X008677Y018048D01*
X008602Y018229D01*
X008465Y018366D01*
X008381Y018401D01*
X021243Y018401D01*
X021346Y018444D01*
X021424Y018522D01*
X021645Y018743D01*
X021774Y018743D01*
X021935Y018810D01*
X022058Y018933D01*
X022125Y019094D01*
X022125Y019195D01*
X022673Y019743D01*
X022774Y019743D01*
X022935Y019810D01*
X023058Y019933D01*
X023125Y020094D01*
X023125Y020268D01*
X023058Y020429D01*
X022935Y020552D01*
X022774Y020619D01*
X022600Y020619D01*
X022439Y020552D01*
X022316Y020429D01*
X022249Y020268D01*
X022249Y020167D01*
X021701Y019619D01*
X021600Y019619D01*
X021439Y019552D01*
X021316Y019429D01*
X021249Y019268D01*
X021249Y019139D01*
X021071Y018961D01*
X012070Y018961D01*
X012125Y019094D01*
X012125Y019268D01*
X012058Y019429D01*
X011935Y019552D01*
X011774Y019619D01*
X011645Y019619D01*
X011583Y019681D01*
X011809Y019907D01*
X011857Y019927D01*
X011941Y020011D01*
X011987Y020121D01*
X011987Y021771D01*
X011987Y021891D01*
X011941Y022001D01*
X011637Y022305D01*
X011637Y022707D01*
X011857Y022927D01*
X011941Y023011D01*
X011987Y023121D01*
X011987Y026057D01*
X012311Y026381D01*
X012653Y026381D01*
X012909Y026124D01*
X012677Y025892D01*
X012677Y025721D01*
X013147Y025721D01*
X013147Y025641D01*
X012677Y025641D01*
X012677Y025470D01*
X012976Y025171D01*
X013147Y025171D01*
X013147Y025641D01*
X013227Y025641D01*
X013227Y025171D01*
X013398Y025171D01*
X013631Y025403D01*
X013907Y025127D01*
X013907Y024237D01*
X013907Y024125D01*
X013950Y024022D01*
X014450Y023522D01*
X014528Y023444D01*
X014631Y023401D01*
X016131Y023401D01*
X016243Y023401D01*
X016346Y023444D01*
X016805Y023903D01*
X016749Y023768D01*
X016749Y023639D01*
X015619Y022509D01*
X015675Y022644D01*
X015675Y022818D01*
X015608Y022979D01*
X015485Y023102D01*
X015324Y023169D01*
X015150Y023169D01*
X014989Y023102D01*
X014897Y023011D01*
X014553Y023011D01*
X013425Y024139D01*
X013425Y024268D01*
X013358Y024429D01*
X013235Y024552D01*
X013074Y024619D01*
X012900Y024619D01*
X012739Y024552D01*
X012616Y024429D01*
X012549Y024268D01*
X012549Y024094D01*
X012616Y023933D01*
X012739Y023810D01*
X012900Y023743D01*
X013029Y023743D01*
X014200Y022572D01*
X014278Y022494D01*
X014357Y022461D01*
X012625Y022461D01*
X012625Y022518D01*
X012558Y022679D01*
X012435Y022802D01*
X012274Y022869D01*
X012100Y022869D01*
X011939Y022802D01*
X011816Y022679D01*
X011749Y022518D01*
X011749Y022344D01*
X011816Y022183D01*
X011939Y022060D01*
X012100Y021993D01*
X012229Y021993D01*
X012278Y021944D01*
X012381Y021901D01*
X015631Y021901D01*
X015743Y021901D01*
X015846Y021944D01*
X017145Y023243D01*
X017153Y023243D01*
X015371Y021461D01*
X015227Y021461D01*
X015135Y021552D01*
X014974Y021619D01*
X014800Y021619D01*
X014639Y021552D01*
X014516Y021429D01*
X014449Y021268D01*
X014449Y021094D01*
X014516Y020933D01*
X014639Y020810D01*
X014800Y020743D01*
X014974Y020743D01*
X015135Y020810D01*
X015227Y020901D01*
X015543Y020901D01*
X015646Y020944D01*
X015724Y021022D01*
X017013Y022311D01*
X017066Y022183D01*
X017189Y022060D01*
X017350Y021993D01*
X017524Y021993D01*
X017685Y022060D01*
X017808Y022183D01*
X017875Y022344D01*
X017875Y022445D01*
X019673Y024243D01*
X019774Y024243D01*
X019887Y024290D01*
X019887Y022501D01*
X019816Y022429D01*
X019749Y022268D01*
X019749Y022094D01*
X019816Y021933D01*
X019939Y021810D01*
X020100Y021743D01*
X020274Y021743D01*
X020361Y021779D01*
X020201Y021619D01*
X020100Y021619D01*
X019939Y021552D01*
X019816Y021429D01*
X019749Y021268D01*
X019749Y021094D01*
X019816Y020933D01*
X019939Y020810D01*
X020100Y020743D01*
X020274Y020743D01*
X020435Y020810D01*
X020558Y020933D01*
X020625Y021094D01*
X020625Y021195D01*
X020687Y021257D01*
X020933Y021011D01*
X021017Y020927D01*
X021127Y020881D01*
X022568Y020881D01*
X022639Y020810D01*
X022800Y020743D01*
X022974Y020743D01*
X023135Y020810D01*
X023258Y020933D01*
X023287Y021002D01*
X023316Y020933D01*
X023439Y020810D01*
X023600Y020743D01*
X023774Y020743D01*
X023935Y020810D01*
X024058Y020933D01*
X024125Y021094D01*
X024125Y021268D01*
X024058Y021429D01*
X023935Y021552D01*
X023774Y021619D01*
X023673Y021619D01*
X021487Y023805D01*
X021487Y024457D01*
X021517Y024427D01*
X024637Y021307D01*
X024637Y020201D01*
X024566Y020129D01*
X024499Y019968D01*
X024499Y019794D01*
X024566Y019633D01*
X022563Y019633D01*
X022444Y019514D02*
X024684Y019514D01*
X024689Y019510D02*
X024850Y019443D01*
X025024Y019443D01*
X025185Y019510D01*
X025308Y019633D01*
X026887Y019633D01*
X026887Y019751D02*
X025357Y019751D01*
X025375Y019794D02*
X025375Y019968D01*
X025308Y020129D01*
X025237Y020201D01*
X025237Y021371D01*
X025237Y021491D01*
X025191Y021601D01*
X021987Y024805D01*
X021987Y028057D01*
X022811Y028881D01*
X030367Y028881D01*
X030439Y028810D01*
X030600Y028743D01*
X030774Y028743D01*
X030935Y028810D01*
X031058Y028933D01*
X031125Y029094D01*
X031125Y029268D01*
X031058Y029429D01*
X030935Y029552D01*
X030774Y029619D01*
X030600Y029619D01*
X030439Y029552D01*
X030367Y029481D01*
X022811Y029481D01*
X021487Y030805D01*
X021487Y031316D01*
X021657Y031486D01*
X021657Y031876D01*
X021382Y032151D01*
X020992Y032151D01*
X020717Y031876D01*
X020717Y031486D01*
X020887Y031316D01*
X020887Y030621D01*
X020933Y030511D01*
X021017Y030427D01*
X021361Y030083D01*
X021274Y030119D01*
X021173Y030119D01*
X020487Y030805D01*
X020487Y031316D01*
X020657Y031486D01*
X020657Y031876D01*
X020382Y032151D01*
X019992Y032151D01*
X019717Y031876D01*
X019717Y031486D01*
X019887Y031316D01*
X019887Y030741D01*
X019887Y030621D01*
X019933Y030511D01*
X020749Y029695D01*
X020749Y029594D01*
X020785Y029507D01*
X019081Y031211D01*
X019382Y031211D01*
X019657Y031486D01*
X019657Y031876D01*
X019382Y032151D01*
X018992Y032151D01*
X018717Y031876D01*
X018717Y031575D01*
X018657Y031635D01*
X018657Y031876D01*
X018382Y032151D01*
X018081Y032151D01*
X018311Y032381D01*
X030363Y032381D01*
X035387Y027357D01*
X035387Y015805D01*
X035201Y015619D01*
X035100Y015619D01*
X034987Y015572D01*
X034987Y027121D01*
X034987Y027241D01*
X034941Y027351D01*
X034625Y027667D01*
X034625Y027768D01*
X034558Y027929D01*
X034435Y028052D01*
X034274Y028119D01*
X034100Y028119D01*
X033939Y028052D01*
X033816Y027929D01*
X033749Y027768D01*
X033749Y027594D01*
X033816Y027433D01*
X033939Y027310D01*
X034100Y027243D01*
X034201Y027243D01*
X034387Y027057D01*
X034387Y013121D01*
X034433Y013011D01*
X034517Y012927D01*
X035267Y012177D01*
X035377Y012131D01*
X035497Y012131D01*
X038867Y012131D01*
X038939Y012060D01*
X039100Y011993D01*
X039274Y011993D01*
X039435Y012060D01*
X039558Y012183D01*
X039625Y012344D01*
X039625Y012518D01*
X039558Y012679D01*
X039435Y012802D01*
X039274Y012869D01*
X039100Y012869D01*
X038939Y012802D01*
X038867Y012731D01*
X035561Y012731D01*
X034987Y013305D01*
X034987Y014790D01*
X035100Y014743D01*
X035274Y014743D01*
X035435Y014810D01*
X035558Y014933D01*
X035625Y015094D01*
X035625Y015195D01*
X035941Y015511D01*
X035987Y015621D01*
X035987Y015741D01*
X035987Y023907D01*
X036949Y022945D01*
X036949Y022844D01*
X037016Y022683D01*
X037087Y022611D01*
X037087Y016251D01*
X037016Y016179D01*
X036949Y016018D01*
X036949Y015844D01*
X037016Y015683D01*
X037139Y015560D01*
X037300Y015493D01*
X037474Y015493D01*
X037635Y015560D01*
X037758Y015683D01*
X037825Y015844D01*
X037825Y016018D01*
X037758Y016179D01*
X037687Y016251D01*
X037687Y022611D01*
X037758Y022683D01*
X037825Y022844D01*
X037825Y023018D01*
X037758Y023179D01*
X037635Y023302D01*
X037474Y023369D01*
X037373Y023369D01*
X036487Y024255D01*
X036487Y024485D01*
X038407Y022565D01*
X038407Y022521D01*
X038316Y022429D01*
X038249Y022268D01*
X038249Y022094D01*
X038316Y021933D01*
X038387Y021861D01*
X038387Y016001D01*
X038316Y015929D01*
X038249Y015768D01*
X038249Y015594D01*
X038316Y015433D01*
X038439Y015310D01*
X038600Y015243D01*
X038774Y015243D01*
X038907Y015298D01*
X038907Y014797D01*
X038229Y014119D01*
X038100Y014119D01*
X037939Y014052D01*
X037816Y013929D01*
X037749Y013768D01*
X037749Y013594D01*
X037816Y013433D01*
X037939Y013310D01*
X038100Y013243D01*
X038274Y013243D01*
X038435Y013310D01*
X038558Y013433D01*
X038625Y013594D01*
X038625Y013723D01*
X039346Y014444D01*
X039424Y014522D01*
X039467Y014625D01*
X039467Y022625D01*
X039467Y022737D01*
X039424Y022840D01*
X037771Y024493D01*
X037774Y024493D01*
X037935Y024560D01*
X038058Y024683D01*
X038125Y024844D01*
X038125Y024945D01*
X039561Y026381D01*
X040902Y026381D01*
X041043Y026240D01*
X041185Y026181D01*
X041043Y026122D01*
X040896Y025975D01*
X040817Y025784D01*
X040817Y025577D01*
X040896Y025386D01*
X041043Y025240D01*
X041185Y025181D01*
X041043Y025122D01*
X040896Y024975D01*
X040817Y024784D01*
X040817Y024577D01*
X040896Y024386D01*
X041043Y024240D01*
X041185Y024181D01*
X041043Y024122D01*
X040896Y023975D01*
X040817Y023784D01*
X040817Y023577D01*
X040896Y023386D01*
X041043Y023240D01*
X041185Y023181D01*
X041043Y023122D01*
X040896Y022975D01*
X040817Y022784D01*
X040817Y022577D01*
X040896Y022386D01*
X041043Y022240D01*
X041185Y022181D01*
X041043Y022122D01*
X039467Y022122D01*
X039467Y022004D02*
X040924Y022004D01*
X040896Y021975D02*
X040817Y021784D01*
X040817Y021577D01*
X040896Y021386D01*
X041043Y021240D01*
X041185Y021181D01*
X041043Y021122D01*
X040896Y020975D01*
X040817Y020784D01*
X040817Y020577D01*
X040896Y020386D01*
X041043Y020240D01*
X041185Y020181D01*
X041043Y020122D01*
X040896Y019975D01*
X040817Y019784D01*
X040817Y019577D01*
X040896Y019386D01*
X041043Y019240D01*
X041185Y019181D01*
X041043Y019122D01*
X040896Y018975D01*
X040817Y018784D01*
X040817Y018577D01*
X040896Y018386D01*
X041043Y018240D01*
X041185Y018181D01*
X041043Y018122D01*
X040896Y017975D01*
X040817Y017784D01*
X040817Y017577D01*
X040896Y017386D01*
X041043Y017240D01*
X041185Y017181D01*
X041043Y017122D01*
X040896Y016975D01*
X040817Y016784D01*
X040817Y016577D01*
X040896Y016386D01*
X041043Y016240D01*
X041185Y016181D01*
X041043Y016122D01*
X040896Y015975D01*
X040817Y015784D01*
X040817Y015577D01*
X040896Y015386D01*
X041043Y015240D01*
X041185Y015181D01*
X041043Y015122D01*
X040902Y014981D01*
X040627Y014981D01*
X040517Y014935D01*
X040433Y014851D01*
X040017Y014435D01*
X039933Y014351D01*
X039887Y014241D01*
X039887Y010305D01*
X039517Y009935D01*
X039433Y009851D01*
X039387Y009741D01*
X039387Y009372D01*
X039297Y009589D01*
X039095Y009791D01*
X038830Y009901D01*
X038544Y009901D01*
X038279Y009791D01*
X038077Y009589D01*
X037967Y009324D01*
X037967Y009038D01*
X038077Y008773D01*
X038279Y008571D01*
X038544Y008461D01*
X038830Y008461D01*
X039095Y008571D01*
X039297Y008773D01*
X039387Y008990D01*
X039387Y006805D01*
X037933Y005351D01*
X037887Y005241D01*
X037887Y005121D01*
X037887Y003607D01*
X037842Y003588D01*
X037670Y003416D01*
X037577Y003192D01*
X037577Y002170D01*
X037670Y001945D01*
X037842Y001774D01*
X038066Y001681D01*
X038308Y001681D01*
X038533Y001774D01*
X038704Y001945D01*
X038797Y002170D01*
X038797Y003192D01*
X038704Y003416D01*
X038533Y003588D01*
X038487Y003607D01*
X038487Y005057D01*
X039857Y006427D01*
X039941Y006511D01*
X039987Y006621D01*
X039987Y009557D01*
X040441Y010011D01*
X040487Y010121D01*
X040487Y010241D01*
X040487Y014057D01*
X040811Y014381D01*
X040902Y014381D01*
X041043Y014240D01*
X041234Y014161D01*
X042041Y014161D01*
X042232Y014240D01*
X042378Y014386D01*
X042457Y014577D01*
X042457Y014784D01*
X042378Y014975D01*
X042232Y015122D01*
X042089Y015181D01*
X042232Y015240D01*
X042378Y015386D01*
X042457Y015577D01*
X042457Y015784D01*
X042378Y015975D01*
X042232Y016122D01*
X042089Y016181D01*
X042232Y016240D01*
X042378Y016386D01*
X042457Y016577D01*
X042457Y016784D01*
X042378Y016975D01*
X042232Y017122D01*
X042089Y017181D01*
X042232Y017240D01*
X042378Y017386D01*
X042457Y017577D01*
X042457Y017784D01*
X042378Y017975D01*
X042232Y018122D01*
X042089Y018181D01*
X042232Y018240D01*
X042378Y018386D01*
X042457Y018577D01*
X042457Y018784D01*
X042378Y018975D01*
X042232Y019122D01*
X042089Y019181D01*
X042232Y019240D01*
X042378Y019386D01*
X042457Y019577D01*
X042457Y019784D01*
X042378Y019975D01*
X042232Y020122D01*
X042089Y020181D01*
X042232Y020240D01*
X042378Y020386D01*
X042457Y020577D01*
X042457Y020784D01*
X042378Y020975D01*
X042232Y021122D01*
X042089Y021181D01*
X042232Y021240D01*
X042378Y021386D01*
X042457Y021577D01*
X042457Y021784D01*
X042378Y021975D01*
X042232Y022122D01*
X042089Y022181D01*
X042232Y022240D01*
X042378Y022386D01*
X042457Y022577D01*
X042457Y022784D01*
X042378Y022975D01*
X042232Y023122D01*
X042089Y023181D01*
X042232Y023240D01*
X042378Y023386D01*
X042457Y023577D01*
X042457Y023784D01*
X042378Y023975D01*
X042232Y024122D01*
X042089Y024181D01*
X042232Y024240D01*
X042378Y024386D01*
X042457Y024577D01*
X042457Y024784D01*
X042378Y024975D01*
X042232Y025122D01*
X042089Y025181D01*
X042232Y025240D01*
X042378Y025386D01*
X042457Y025577D01*
X042457Y025784D01*
X042378Y025975D01*
X042232Y026122D01*
X042089Y026181D01*
X042232Y026240D01*
X042378Y026386D01*
X042457Y026577D01*
X042457Y026784D01*
X042378Y026975D01*
X042232Y027122D01*
X042089Y027181D01*
X042232Y027240D01*
X042378Y027386D01*
X042457Y027577D01*
X042457Y027784D01*
X042378Y027975D01*
X042232Y028122D01*
X042089Y028181D01*
X042232Y028240D01*
X042378Y028386D01*
X042457Y028577D01*
X042457Y028784D01*
X042378Y028975D01*
X042232Y029122D01*
X042089Y029181D01*
X042232Y029240D01*
X042378Y029386D01*
X042457Y029577D01*
X042457Y029784D01*
X042378Y029975D01*
X042232Y030122D01*
X042089Y030181D01*
X042232Y030240D01*
X042378Y030386D01*
X042457Y030577D01*
X042457Y030784D01*
X042378Y030975D01*
X042232Y031122D01*
X042089Y031181D01*
X042232Y031240D01*
X042378Y031386D01*
X042457Y031577D01*
X042457Y031784D01*
X042378Y031975D01*
X042232Y032122D01*
X042041Y032201D01*
X041234Y032201D01*
X041043Y032122D01*
X040896Y031975D01*
X040817Y031784D01*
X040817Y031577D01*
X040896Y031386D01*
X041043Y031240D01*
X041185Y031181D01*
X041043Y031122D01*
X040896Y030975D01*
X040817Y030784D01*
X040817Y030577D01*
X040896Y030386D01*
X041043Y030240D01*
X041185Y030181D01*
X041043Y030122D01*
X040896Y029975D01*
X040890Y029961D01*
X038631Y029961D01*
X038528Y029918D01*
X038450Y029840D01*
X037569Y028959D01*
X037625Y029094D01*
X037625Y029195D01*
X038441Y030011D01*
X038487Y030121D01*
X038487Y030241D01*
X038487Y031861D01*
X038558Y031933D01*
X038625Y032094D01*
X038625Y032268D01*
X038558Y032429D01*
X038435Y032552D01*
X038274Y032619D01*
X038100Y032619D01*
X037939Y032552D01*
X037816Y032429D01*
X037749Y032268D01*
X037749Y032094D01*
X037816Y031933D01*
X037887Y031861D01*
X037887Y030305D01*
X037201Y029619D01*
X037100Y029619D01*
X036939Y029552D01*
X036816Y029429D01*
X036749Y029268D01*
X036749Y029094D01*
X036816Y028933D01*
X036939Y028810D01*
X037100Y028743D01*
X037274Y028743D01*
X037409Y028799D01*
X036967Y028357D01*
X036967Y028375D01*
X036967Y028487D01*
X036924Y028590D01*
X032875Y032639D01*
X032875Y032768D01*
X032808Y032929D01*
X032685Y033052D01*
X032524Y033119D01*
X032350Y033119D01*
X032189Y033052D01*
X032066Y032929D01*
X031999Y032768D01*
X031999Y032594D01*
X032066Y032433D01*
X032189Y032310D01*
X032350Y032243D01*
X032479Y032243D01*
X036407Y028315D01*
X036407Y027885D01*
X036357Y027935D01*
X030911Y033381D01*
X032563Y033381D01*
X033499Y032445D01*
X033499Y032344D01*
X033566Y032183D01*
X033689Y032060D01*
X033850Y031993D01*
X034024Y031993D01*
X034185Y032060D01*
X034308Y032183D01*
X034375Y032344D01*
X034375Y032518D01*
X034308Y032679D01*
X034185Y032802D01*
X034024Y032869D01*
X033923Y032869D01*
X032941Y033851D01*
X032857Y033935D01*
X032747Y033981D01*
X015197Y033981D01*
X015077Y033981D01*
X014967Y033935D01*
X014263Y033231D01*
X008677Y033231D01*
X008567Y033185D01*
X008483Y033101D01*
X007533Y032151D01*
X007242Y032151D01*
X006967Y031876D01*
X006967Y031486D01*
X007242Y031211D01*
X007632Y031211D01*
X007907Y031486D01*
X007907Y031677D01*
X007967Y031737D01*
X007967Y031486D01*
X008242Y031211D01*
X008632Y031211D01*
X008907Y031486D01*
X008907Y031876D01*
X008632Y032151D01*
X008381Y032151D01*
X008861Y032631D01*
X014327Y032631D01*
X014447Y032631D01*
X014557Y032677D01*
X015261Y033381D01*
X015463Y033381D01*
X014233Y032151D01*
X013992Y032151D01*
X013717Y031876D01*
X013717Y031486D01*
X013992Y031211D01*
X014382Y031211D01*
X014657Y031486D01*
X014657Y031727D01*
X014717Y031787D01*
X014717Y031486D01*
X014992Y031211D01*
X015382Y031211D01*
X015657Y031486D01*
X015657Y031876D01*
X015382Y032151D01*
X015081Y032151D01*
X015811Y032881D01*
X016427Y032881D01*
X017963Y032881D01*
X017233Y032151D01*
X016992Y032151D01*
X016717Y031876D01*
X016717Y031486D01*
X016992Y031211D01*
X017233Y031211D01*
X019887Y028557D01*
X019887Y025072D01*
X019774Y025119D01*
X019600Y025119D01*
X019439Y025052D01*
X019316Y024929D01*
X019249Y024768D01*
X019249Y024667D01*
X018353Y023771D01*
X018308Y023879D01*
X018185Y024002D01*
X018024Y024069D01*
X017850Y024069D01*
X017689Y024002D01*
X017575Y023889D01*
X017558Y023929D01*
X017435Y024052D01*
X017274Y024119D01*
X017100Y024119D01*
X016963Y024062D01*
X016987Y024121D01*
X016987Y025461D01*
X017058Y025533D01*
X017125Y025694D01*
X017125Y025868D01*
X017058Y026029D01*
X016987Y026101D01*
X016987Y027741D01*
X016941Y027851D01*
X016857Y027935D01*
X016441Y028351D01*
X016357Y028435D01*
X016247Y028481D01*
X013061Y028481D01*
X010331Y031211D01*
X010632Y031211D01*
X010907Y031486D01*
X010907Y031876D01*
X010632Y032151D01*
X010242Y032151D01*
X009967Y031876D01*
X009967Y031575D01*
X009907Y031635D01*
X009907Y031876D01*
X009632Y032151D01*
X009242Y032151D01*
X008967Y031876D01*
X008967Y031486D01*
X009242Y031211D01*
X009483Y031211D01*
X012767Y027927D01*
X012877Y027881D01*
X012997Y027881D01*
X016063Y027881D01*
X016387Y027557D01*
X016387Y026101D01*
X016316Y026029D01*
X016249Y025868D01*
X016249Y025694D01*
X016316Y025533D01*
X016387Y025461D01*
X016387Y024277D01*
X016319Y024209D01*
X016375Y024344D01*
X016375Y024518D01*
X016308Y024679D01*
X016217Y024771D01*
X016217Y027237D01*
X016174Y027340D01*
X016096Y027418D01*
X015846Y027668D01*
X015743Y027711D01*
X015631Y027711D01*
X014381Y027711D01*
X014278Y027668D01*
X014200Y027590D01*
X013950Y027340D01*
X013907Y027237D01*
X013907Y027235D01*
X013687Y027015D01*
X013431Y027271D01*
X012943Y027271D01*
X012653Y026981D01*
X012247Y026981D01*
X012127Y026981D01*
X012017Y026935D01*
X011517Y026435D01*
X011433Y026351D01*
X011387Y026241D01*
X011387Y023305D01*
X011083Y023001D01*
X011037Y022891D01*
X011037Y022771D01*
X011037Y022121D01*
X011047Y022097D01*
X010939Y022052D01*
X010847Y021961D01*
X010731Y021961D01*
X010628Y021918D01*
X010550Y021840D01*
X010524Y021814D01*
X010435Y021902D01*
X010274Y021969D01*
X010100Y021969D01*
X009939Y021902D01*
X009816Y021779D01*
X009749Y021618D01*
X009749Y021501D01*
X009584Y021501D01*
X009393Y021422D01*
X009246Y021275D01*
X009187Y021133D01*
X009128Y021275D01*
X008982Y021422D01*
X008791Y021501D01*
X008584Y021501D01*
X008393Y021422D01*
X008246Y021275D01*
X008187Y021133D01*
X008128Y021275D01*
X007982Y021422D01*
X007791Y021501D01*
X007584Y021501D01*
X007393Y021422D01*
X007246Y021275D01*
X007167Y021084D01*
X007167Y020277D01*
X007246Y020086D01*
X007372Y019961D01*
X005803Y019961D01*
X004967Y020797D01*
X004967Y021591D01*
X005058Y021683D01*
X005125Y021844D01*
X005125Y022018D01*
X005058Y022179D01*
X004935Y022302D01*
X004774Y022369D01*
X004600Y022369D01*
X004467Y022314D01*
X004467Y023565D01*
X004803Y023901D01*
X007847Y023901D01*
X007939Y023810D01*
X008100Y023743D01*
X008274Y023743D01*
X008435Y023810D01*
X008558Y023933D01*
X008625Y024094D01*
X008625Y024268D01*
X008589Y024354D01*
X008933Y024011D01*
X009017Y023927D01*
X009127Y023881D01*
X010217Y023881D01*
X010289Y023810D01*
X010450Y023743D01*
X010624Y023743D01*
X010785Y023810D01*
X010908Y023933D01*
X010975Y024094D01*
X010975Y024268D01*
X010908Y024429D01*
X010785Y024552D01*
X010624Y024619D01*
X010450Y024619D01*
X010425Y024609D01*
X010425Y024768D01*
X010358Y024929D01*
X010235Y025052D01*
X010074Y025119D01*
X009973Y025119D01*
X008407Y026685D01*
X008297Y026731D01*
X008177Y026731D01*
X007657Y026731D01*
X007585Y026802D01*
X007424Y026869D01*
X007250Y026869D01*
X007089Y026802D01*
X006966Y026679D01*
X006899Y026518D01*
X006899Y026344D01*
X006966Y026183D01*
X007089Y026060D01*
X007250Y025993D01*
X007424Y025993D01*
X007585Y026060D01*
X007657Y026131D01*
X008113Y026131D01*
X009549Y024695D01*
X009549Y024594D01*
X009596Y024481D01*
X009311Y024481D01*
X008857Y024935D01*
X008747Y024981D01*
X008627Y024981D01*
X008007Y024981D01*
X007935Y025052D01*
X007774Y025119D01*
X007600Y025119D01*
X007439Y025052D01*
X007316Y024929D01*
X007249Y024768D01*
X007249Y024594D01*
X007304Y024461D01*
X004743Y024461D01*
X004631Y024461D01*
X004528Y024418D01*
X004028Y023918D01*
X003950Y023840D01*
X003907Y023737D01*
X003907Y020237D01*
X003907Y020125D01*
X003950Y020022D01*
X005450Y018522D01*
X005528Y018444D01*
X005631Y018401D01*
X006993Y018401D01*
X006909Y018366D01*
X006772Y018229D01*
X006697Y018048D01*
X006697Y017313D01*
X006772Y017133D01*
X006909Y016996D01*
X007090Y016921D01*
X007285Y016921D01*
X007465Y016996D01*
X007602Y017133D01*
X007677Y017313D01*
X007677Y018048D01*
X007602Y018229D01*
X007465Y018366D01*
X007381Y018401D01*
X007993Y018401D01*
X007909Y018366D01*
X007772Y018229D01*
X007697Y018048D01*
X007697Y017313D01*
X007772Y017133D01*
X007887Y017018D01*
X007887Y014801D01*
X007816Y014729D01*
X007749Y014568D01*
X007749Y014467D01*
X007433Y014151D01*
X007387Y014041D01*
X007387Y013921D01*
X007387Y013751D01*
X007316Y013679D01*
X007249Y013518D01*
X007249Y013344D01*
X007316Y013183D01*
X007387Y013111D01*
X007387Y012805D01*
X006925Y012343D01*
X006925Y012468D01*
X006858Y012629D01*
X006735Y012752D01*
X006574Y012819D01*
X006473Y012819D01*
X006237Y013055D01*
X006237Y015111D01*
X006308Y015183D01*
X006375Y015344D01*
X006375Y015518D01*
X006308Y015679D01*
X006185Y015802D01*
X006024Y015869D01*
X005850Y015869D01*
X005689Y015802D01*
X005566Y015679D01*
X005499Y015518D01*
X005499Y015344D01*
X005566Y015183D01*
X005637Y015111D01*
X005637Y012991D01*
X005637Y012871D01*
X005683Y012761D01*
X006049Y012395D01*
X006049Y012294D01*
X006052Y012287D01*
X005974Y012319D01*
X005800Y012319D01*
X005639Y012252D01*
X005516Y012129D01*
X005449Y011968D01*
X005449Y011794D01*
X005516Y011633D01*
X005639Y011510D01*
X005800Y011443D01*
X005974Y011443D01*
X006061Y011479D01*
X004063Y009481D01*
X003994Y009481D01*
X003938Y009616D01*
X003722Y009832D01*
X003440Y009948D01*
X003134Y009948D01*
X002852Y009832D01*
X002636Y009616D01*
X002520Y009334D01*
X002520Y009028D01*
X002636Y008746D01*
X002852Y008530D01*
X003134Y008413D01*
X003440Y008413D01*
X003722Y008530D01*
X003938Y008746D01*
X003994Y008881D01*
X004127Y008881D01*
X004247Y008881D01*
X004357Y008927D01*
X006907Y011477D01*
X006991Y011561D01*
X007857Y012427D01*
X007941Y012511D01*
X007987Y012621D01*
X007987Y013111D01*
X008079Y013231D02*
X009313Y013231D01*
X009432Y013350D02*
X008125Y013350D01*
X008125Y013468D02*
X009550Y013468D01*
X009669Y013587D02*
X008097Y013587D01*
X008032Y013705D02*
X009787Y013705D01*
X009906Y013824D02*
X007987Y013824D01*
X008073Y013943D02*
X010024Y013943D01*
X010143Y014061D02*
X008318Y014061D01*
X008505Y014180D02*
X010262Y014180D01*
X010380Y014298D02*
X008586Y014298D01*
X008625Y014417D02*
X010499Y014417D01*
X010617Y014535D02*
X008625Y014535D01*
X008590Y014654D02*
X010736Y014654D01*
X010854Y014772D02*
X008515Y014772D01*
X008487Y014891D02*
X010973Y014891D01*
X011091Y015009D02*
X008487Y015009D01*
X008487Y015128D02*
X011210Y015128D01*
X011328Y015247D02*
X008487Y015247D01*
X008487Y015365D02*
X011447Y015365D01*
X011566Y015484D02*
X008487Y015484D01*
X008487Y015602D02*
X011684Y015602D01*
X011803Y015721D02*
X008487Y015721D01*
X008487Y015839D02*
X011921Y015839D01*
X012040Y015958D02*
X008487Y015958D01*
X008487Y016076D02*
X012158Y016076D01*
X012277Y016195D02*
X008487Y016195D01*
X008487Y016313D02*
X012395Y016313D01*
X012514Y016432D02*
X008487Y016432D01*
X008487Y016551D02*
X012632Y016551D01*
X012751Y016669D02*
X008487Y016669D01*
X008487Y016788D02*
X012869Y016788D01*
X012988Y016906D02*
X008487Y016906D01*
X008494Y017025D02*
X013107Y017025D01*
X013225Y017143D02*
X008606Y017143D01*
X008656Y017262D02*
X013249Y017262D01*
X013295Y017380D02*
X008677Y017380D01*
X008677Y017499D02*
X013385Y017499D01*
X013596Y017617D02*
X008677Y017617D01*
X008677Y017736D02*
X021318Y017736D01*
X021436Y017854D02*
X008677Y017854D01*
X008677Y017973D02*
X021555Y017973D01*
X021673Y018092D02*
X008659Y018092D01*
X008610Y018210D02*
X021792Y018210D01*
X021911Y018329D02*
X008502Y018329D01*
X007872Y018329D02*
X007502Y018329D01*
X007610Y018210D02*
X007764Y018210D01*
X007715Y018092D02*
X007659Y018092D01*
X007677Y017973D02*
X007697Y017973D01*
X007697Y017854D02*
X007677Y017854D01*
X007677Y017736D02*
X007697Y017736D01*
X007697Y017617D02*
X007677Y017617D01*
X007677Y017499D02*
X007697Y017499D01*
X007697Y017380D02*
X007677Y017380D01*
X007656Y017262D02*
X007718Y017262D01*
X007768Y017143D02*
X007606Y017143D01*
X007494Y017025D02*
X007880Y017025D01*
X007887Y016906D02*
X001947Y016906D01*
X001947Y016788D02*
X007887Y016788D01*
X007887Y016669D02*
X001947Y016669D01*
X001947Y016551D02*
X007887Y016551D01*
X007887Y016432D02*
X001947Y016432D01*
X001947Y016313D02*
X007887Y016313D01*
X007887Y016195D02*
X001947Y016195D01*
X001947Y016076D02*
X007887Y016076D01*
X007887Y015958D02*
X001947Y015958D01*
X001947Y015839D02*
X005778Y015839D01*
X005607Y015721D02*
X001947Y015721D01*
X001947Y015602D02*
X005534Y015602D01*
X005499Y015484D02*
X001947Y015484D01*
X001947Y015365D02*
X005499Y015365D01*
X005539Y015247D02*
X001947Y015247D01*
X001947Y015128D02*
X005620Y015128D01*
X005637Y015009D02*
X001947Y015009D01*
X001947Y014891D02*
X005637Y014891D01*
X005637Y014772D02*
X001947Y014772D01*
X001947Y014654D02*
X005637Y014654D01*
X005637Y014535D02*
X001947Y014535D01*
X001947Y014417D02*
X005637Y014417D01*
X005637Y014298D02*
X001947Y014298D01*
X001947Y014180D02*
X005637Y014180D01*
X005637Y014061D02*
X001947Y014061D01*
X001947Y013943D02*
X005637Y013943D01*
X005637Y013824D02*
X001947Y013824D01*
X001947Y013705D02*
X005637Y013705D01*
X005637Y013587D02*
X001947Y013587D01*
X001947Y013468D02*
X005637Y013468D01*
X005637Y013350D02*
X001947Y013350D01*
X001947Y013231D02*
X005637Y013231D01*
X005637Y013113D02*
X001947Y013113D01*
X001947Y012994D02*
X005637Y012994D01*
X005637Y012876D02*
X001947Y012876D01*
X001947Y012757D02*
X005687Y012757D01*
X005805Y012639D02*
X001947Y012639D01*
X001947Y012520D02*
X005924Y012520D01*
X006042Y012401D02*
X001947Y012401D01*
X001947Y012283D02*
X005713Y012283D01*
X005551Y012164D02*
X001947Y012164D01*
X001947Y012046D02*
X005481Y012046D01*
X005449Y011927D02*
X001947Y011927D01*
X001947Y011809D02*
X005449Y011809D01*
X005492Y011690D02*
X001947Y011690D01*
X001947Y011572D02*
X005577Y011572D01*
X005775Y011453D02*
X001947Y011453D01*
X001947Y011335D02*
X005917Y011335D01*
X005999Y011453D02*
X006035Y011453D01*
X005798Y011216D02*
X001947Y011216D01*
X001947Y011098D02*
X005679Y011098D01*
X005561Y010979D02*
X001947Y010979D01*
X001947Y010860D02*
X005442Y010860D01*
X005324Y010742D02*
X001947Y010742D01*
X001947Y010623D02*
X005205Y010623D01*
X005087Y010505D02*
X001947Y010505D01*
X001947Y010386D02*
X004968Y010386D01*
X004850Y010268D02*
X001947Y010268D01*
X001947Y010149D02*
X004731Y010149D01*
X004613Y010031D02*
X001947Y010031D01*
X001947Y009912D02*
X003047Y009912D01*
X002814Y009794D02*
X001947Y009794D01*
X001947Y009675D02*
X002696Y009675D01*
X002612Y009556D02*
X001947Y009556D01*
X001947Y009438D02*
X002563Y009438D01*
X002520Y009319D02*
X001947Y009319D01*
X001947Y009201D02*
X002520Y009201D01*
X002520Y009082D02*
X001947Y009082D01*
X001947Y008964D02*
X002546Y008964D01*
X002595Y008845D02*
X001947Y008845D01*
X001947Y008727D02*
X002656Y008727D01*
X002774Y008608D02*
X001947Y008608D01*
X001947Y008490D02*
X002951Y008490D01*
X003624Y008490D02*
X005951Y008490D01*
X005852Y008530D02*
X006134Y008413D01*
X006440Y008413D01*
X006722Y008530D01*
X006938Y008746D01*
X007055Y009028D01*
X007055Y009334D01*
X006938Y009616D01*
X006722Y009832D01*
X006440Y009948D01*
X006134Y009948D01*
X005852Y009832D01*
X005636Y009616D01*
X005520Y009334D01*
X005520Y009028D01*
X005636Y008746D01*
X005852Y008530D01*
X005774Y008608D02*
X003800Y008608D01*
X003918Y008727D02*
X005656Y008727D01*
X005595Y008845D02*
X003979Y008845D01*
X004394Y008964D02*
X005546Y008964D01*
X005520Y009082D02*
X004513Y009082D01*
X004631Y009201D02*
X005520Y009201D01*
X005520Y009319D02*
X004750Y009319D01*
X004868Y009438D02*
X005563Y009438D01*
X005612Y009556D02*
X004987Y009556D01*
X005105Y009675D02*
X005696Y009675D01*
X005814Y009794D02*
X005224Y009794D01*
X005342Y009912D02*
X006047Y009912D01*
X006527Y009912D02*
X019847Y009912D01*
X019934Y009948D02*
X019652Y009832D01*
X019436Y009616D01*
X019320Y009334D01*
X019320Y009028D01*
X019436Y008746D01*
X019652Y008530D01*
X019934Y008413D01*
X020240Y008413D01*
X020522Y008530D01*
X020738Y008746D01*
X020855Y009028D01*
X020855Y009334D01*
X020738Y009616D01*
X020522Y009832D01*
X020240Y009948D01*
X019934Y009948D01*
X019614Y009794D02*
X006760Y009794D01*
X006878Y009675D02*
X019496Y009675D01*
X019412Y009556D02*
X006962Y009556D01*
X007011Y009438D02*
X019363Y009438D01*
X019320Y009319D02*
X007055Y009319D01*
X007055Y009201D02*
X019320Y009201D01*
X019320Y009082D02*
X007055Y009082D01*
X007028Y008964D02*
X019346Y008964D01*
X019395Y008845D02*
X006979Y008845D01*
X006918Y008727D02*
X019456Y008727D01*
X019574Y008608D02*
X006800Y008608D01*
X006624Y008490D02*
X019751Y008490D01*
X020424Y008490D02*
X024087Y008490D01*
X024087Y008608D02*
X023470Y008608D01*
X023541Y008663D01*
X023605Y008727D01*
X024087Y008727D01*
X024087Y008845D02*
X023687Y008845D01*
X023705Y008876D02*
X023660Y008798D01*
X023605Y008727D01*
X023705Y008876D02*
X023739Y008959D01*
X023763Y009046D01*
X023773Y009121D01*
X023147Y009121D01*
X023147Y009241D01*
X023027Y009241D01*
X023027Y009866D01*
X022953Y009857D01*
X022866Y009833D01*
X022782Y009799D01*
X022704Y009754D01*
X022633Y009699D01*
X022569Y009635D01*
X022514Y009564D01*
X022469Y009486D01*
X022435Y009402D01*
X022411Y009315D01*
X022401Y009241D01*
X023027Y009241D01*
X023027Y009121D01*
X022401Y009121D01*
X022411Y009046D01*
X022435Y008959D01*
X022469Y008876D01*
X022514Y008798D01*
X022569Y008727D01*
X020718Y008727D01*
X020779Y008845D02*
X022487Y008845D01*
X022433Y008964D02*
X020828Y008964D01*
X020855Y009082D02*
X022407Y009082D01*
X022412Y009319D02*
X020855Y009319D01*
X020855Y009201D02*
X023027Y009201D01*
X023027Y009121D02*
X023147Y009121D01*
X023147Y008495D01*
X023221Y008505D01*
X023309Y008529D01*
X023392Y008563D01*
X023470Y008608D01*
X023147Y008608D02*
X023027Y008608D01*
X023027Y008495D02*
X023027Y009121D01*
X023027Y009082D02*
X023147Y009082D01*
X023147Y008964D02*
X023027Y008964D01*
X023027Y008845D02*
X023147Y008845D01*
X023147Y008727D02*
X023027Y008727D01*
X023027Y008495D02*
X022953Y008505D01*
X022866Y008529D01*
X022782Y008563D01*
X022704Y008608D01*
X020600Y008608D01*
X020811Y009438D02*
X022449Y009438D01*
X022510Y009556D02*
X020762Y009556D01*
X020678Y009675D02*
X022609Y009675D01*
X022773Y009794D02*
X020560Y009794D01*
X020327Y009912D02*
X024087Y009912D01*
X024087Y009794D02*
X023401Y009794D01*
X023392Y009799D02*
X023309Y009833D01*
X023221Y009857D01*
X023147Y009866D01*
X023147Y009241D01*
X023773Y009241D01*
X023763Y009315D01*
X023739Y009402D01*
X023705Y009486D01*
X023660Y009564D01*
X023605Y009635D01*
X023541Y009699D01*
X023470Y009754D01*
X023392Y009799D01*
X023565Y009675D02*
X024087Y009675D01*
X024087Y009556D02*
X023664Y009556D01*
X023725Y009438D02*
X024087Y009438D01*
X024087Y009319D02*
X023762Y009319D01*
X023767Y009082D02*
X024087Y009082D01*
X024087Y008964D02*
X023741Y008964D01*
X024087Y009201D02*
X023147Y009201D01*
X023147Y009319D02*
X023027Y009319D01*
X023027Y009438D02*
X023147Y009438D01*
X023147Y009556D02*
X023027Y009556D01*
X023027Y009675D02*
X023147Y009675D01*
X023147Y009794D02*
X023027Y009794D01*
X024087Y010031D02*
X005461Y010031D01*
X005580Y010149D02*
X024087Y010149D01*
X024087Y010268D02*
X005698Y010268D01*
X005817Y010386D02*
X024087Y010386D01*
X024087Y010505D02*
X005935Y010505D01*
X006054Y010623D02*
X024087Y010623D01*
X024087Y010742D02*
X006172Y010742D01*
X006291Y010860D02*
X024087Y010860D01*
X024087Y010979D02*
X006409Y010979D01*
X006528Y011098D02*
X022589Y011098D01*
X022600Y011093D02*
X022774Y011093D01*
X022935Y011160D01*
X023058Y011283D01*
X023125Y011444D01*
X023125Y011618D01*
X023058Y011779D01*
X022935Y011902D01*
X022774Y011969D01*
X022625Y011969D01*
X022625Y012018D01*
X022558Y012179D01*
X022435Y012302D01*
X022274Y012369D01*
X022100Y012369D01*
X021939Y012302D01*
X021867Y012231D01*
X021402Y012231D01*
X021657Y012486D01*
X021657Y012876D01*
X023087Y012876D01*
X023087Y012994D02*
X021538Y012994D01*
X021487Y013046D02*
X021657Y012876D01*
X021657Y012757D02*
X023087Y012757D01*
X023087Y012639D02*
X021657Y012639D01*
X021657Y012520D02*
X023087Y012520D01*
X023087Y012401D02*
X021572Y012401D01*
X021454Y012283D02*
X021920Y012283D01*
X022455Y012283D02*
X023087Y012283D01*
X023087Y012241D02*
X023087Y012121D01*
X023133Y012011D01*
X024087Y011057D01*
X024087Y007505D01*
X023563Y006981D01*
X020747Y006981D01*
X020627Y006981D01*
X020517Y006935D01*
X016839Y003257D01*
X016804Y003271D01*
X016570Y003271D01*
X016353Y003181D01*
X016277Y003105D01*
X016277Y003142D01*
X016148Y003271D01*
X015987Y003271D01*
X015987Y003621D01*
X015987Y003741D01*
X015941Y003851D01*
X015441Y004351D01*
X015357Y004435D01*
X015247Y004481D01*
X007247Y004481D01*
X007127Y004481D01*
X007017Y004435D01*
X006517Y003935D01*
X006433Y003851D01*
X006387Y003741D01*
X006387Y003607D01*
X006390Y003748D02*
X001947Y003748D01*
X001947Y003866D02*
X006448Y003866D01*
X006567Y003985D02*
X001947Y003985D01*
X001947Y004103D02*
X006685Y004103D01*
X006804Y004222D02*
X001947Y004222D01*
X001947Y004341D02*
X006922Y004341D01*
X007075Y004459D02*
X001947Y004459D01*
X001947Y004578D02*
X018160Y004578D01*
X018278Y004696D02*
X001947Y004696D01*
X001947Y004815D02*
X018397Y004815D01*
X018515Y004933D02*
X001947Y004933D01*
X001947Y005052D02*
X018634Y005052D01*
X018752Y005170D02*
X001947Y005170D01*
X001947Y005289D02*
X018871Y005289D01*
X018989Y005407D02*
X001947Y005407D01*
X001947Y005526D02*
X019108Y005526D01*
X019226Y005645D02*
X001947Y005645D01*
X001947Y005763D02*
X019345Y005763D01*
X019464Y005882D02*
X001947Y005882D01*
X001947Y006000D02*
X019582Y006000D01*
X019701Y006119D02*
X001947Y006119D01*
X001947Y006237D02*
X019819Y006237D01*
X019938Y006356D02*
X001947Y006356D01*
X001947Y006474D02*
X020056Y006474D01*
X020175Y006593D02*
X001947Y006593D01*
X001947Y006711D02*
X020293Y006711D01*
X020412Y006830D02*
X001947Y006830D01*
X001947Y006949D02*
X020549Y006949D01*
X020786Y006356D02*
X024438Y006356D01*
X024556Y006474D02*
X023905Y006474D01*
X024023Y006593D02*
X024587Y006593D01*
X024587Y006711D02*
X024142Y006711D01*
X024260Y006830D02*
X024587Y006830D01*
X024587Y006949D02*
X024379Y006949D01*
X024497Y007067D02*
X024587Y007067D01*
X024005Y007423D02*
X001947Y007423D01*
X001947Y007541D02*
X024087Y007541D01*
X024087Y007660D02*
X001947Y007660D01*
X001947Y007778D02*
X024087Y007778D01*
X024087Y007897D02*
X001947Y007897D01*
X001947Y008015D02*
X024087Y008015D01*
X024087Y008134D02*
X001947Y008134D01*
X001947Y008252D02*
X024087Y008252D01*
X024087Y008371D02*
X001947Y008371D01*
X001947Y007304D02*
X023886Y007304D01*
X023767Y007186D02*
X001947Y007186D01*
X001947Y007067D02*
X023649Y007067D01*
X024319Y006237D02*
X020668Y006237D01*
X020549Y006119D02*
X024201Y006119D01*
X024082Y006000D02*
X020431Y006000D01*
X020312Y005882D02*
X023964Y005882D01*
X023845Y005763D02*
X020193Y005763D01*
X020075Y005645D02*
X023726Y005645D01*
X023413Y005526D02*
X019956Y005526D01*
X019838Y005407D02*
X023307Y005407D01*
X023258Y005289D02*
X019719Y005289D01*
X019601Y005170D02*
X023249Y005170D01*
X023266Y005052D02*
X019482Y005052D01*
X019364Y004933D02*
X023315Y004933D01*
X023434Y004815D02*
X019245Y004815D01*
X019127Y004696D02*
X032887Y004696D01*
X032887Y004578D02*
X019008Y004578D01*
X018889Y004459D02*
X032887Y004459D01*
X032887Y004341D02*
X018771Y004341D01*
X018652Y004222D02*
X032887Y004222D01*
X032887Y004103D02*
X018534Y004103D01*
X018415Y003985D02*
X032887Y003985D01*
X032887Y003866D02*
X018297Y003866D01*
X018178Y003748D02*
X032887Y003748D01*
X032887Y003629D02*
X028933Y003629D01*
X029033Y003588D02*
X028808Y003681D01*
X028566Y003681D01*
X028342Y003588D01*
X028170Y003416D01*
X028077Y003192D01*
X028077Y002170D01*
X028170Y001945D01*
X028342Y001774D01*
X028566Y001681D01*
X028808Y001681D01*
X029033Y001774D01*
X029204Y001945D01*
X029297Y002170D01*
X029297Y003192D01*
X029204Y003416D01*
X029033Y003588D01*
X029110Y003511D02*
X032764Y003511D01*
X032660Y003392D02*
X029214Y003392D01*
X029263Y003274D02*
X032611Y003274D01*
X032577Y003155D02*
X029297Y003155D01*
X029297Y003037D02*
X032577Y003037D01*
X032577Y002918D02*
X029297Y002918D01*
X029297Y002799D02*
X032577Y002799D01*
X032577Y002681D02*
X029297Y002681D01*
X029297Y002562D02*
X032577Y002562D01*
X032577Y002444D02*
X029297Y002444D01*
X029297Y002325D02*
X032577Y002325D01*
X032577Y002207D02*
X029297Y002207D01*
X029263Y002088D02*
X032611Y002088D01*
X032660Y001970D02*
X029214Y001970D01*
X029110Y001851D02*
X032764Y001851D01*
X032941Y001733D02*
X028933Y001733D01*
X028441Y001733D02*
X024933Y001733D01*
X025033Y001774D02*
X024808Y001681D01*
X024566Y001681D01*
X024342Y001774D01*
X024170Y001945D01*
X024077Y002170D01*
X024077Y003192D01*
X024170Y003416D01*
X024342Y003588D01*
X024566Y003681D01*
X024808Y003681D01*
X025033Y003588D01*
X025204Y003416D01*
X025297Y003192D01*
X025297Y002170D01*
X025204Y001945D01*
X025033Y001774D01*
X025110Y001851D02*
X028264Y001851D01*
X028160Y001970D02*
X025214Y001970D01*
X025263Y002088D02*
X028111Y002088D01*
X028077Y002207D02*
X025297Y002207D01*
X025297Y002325D02*
X028077Y002325D01*
X028077Y002444D02*
X025297Y002444D01*
X025297Y002562D02*
X028077Y002562D01*
X028077Y002681D02*
X025297Y002681D01*
X025297Y002799D02*
X028077Y002799D01*
X028077Y002918D02*
X025297Y002918D01*
X025297Y003037D02*
X028077Y003037D01*
X028077Y003155D02*
X025297Y003155D01*
X025263Y003274D02*
X028111Y003274D01*
X028160Y003392D02*
X025214Y003392D01*
X025110Y003511D02*
X028264Y003511D01*
X028441Y003629D02*
X024933Y003629D01*
X024441Y003629D02*
X020933Y003629D01*
X021033Y003588D02*
X020808Y003681D01*
X020566Y003681D01*
X020342Y003588D01*
X020170Y003416D01*
X020077Y003192D01*
X020077Y002170D01*
X020170Y001945D01*
X020342Y001774D01*
X020566Y001681D01*
X020808Y001681D01*
X021033Y001774D01*
X021204Y001945D01*
X021297Y002170D01*
X021297Y003192D01*
X021204Y003416D01*
X021033Y003588D01*
X021110Y003511D02*
X024264Y003511D01*
X024160Y003392D02*
X021214Y003392D01*
X021263Y003274D02*
X024111Y003274D01*
X024077Y003155D02*
X021297Y003155D01*
X021297Y003037D02*
X024077Y003037D01*
X024077Y002918D02*
X021297Y002918D01*
X021297Y002799D02*
X024077Y002799D01*
X024077Y002681D02*
X021297Y002681D01*
X021297Y002562D02*
X024077Y002562D01*
X024077Y002444D02*
X021297Y002444D01*
X021297Y002325D02*
X024077Y002325D01*
X024077Y002207D02*
X021297Y002207D01*
X021263Y002088D02*
X024111Y002088D01*
X024160Y001970D02*
X021214Y001970D01*
X021110Y001851D02*
X024264Y001851D01*
X024441Y001733D02*
X020933Y001733D01*
X020441Y001733D02*
X008933Y001733D01*
X009033Y001774D02*
X009204Y001945D01*
X009297Y002170D01*
X009297Y003192D01*
X009204Y003416D01*
X009033Y003588D01*
X008808Y003681D01*
X008566Y003681D01*
X008342Y003588D01*
X008170Y003416D01*
X008077Y003192D01*
X008077Y002170D01*
X008170Y001945D01*
X008342Y001774D01*
X008566Y001681D01*
X008808Y001681D01*
X009033Y001774D01*
X009110Y001851D02*
X010391Y001851D01*
X010409Y001838D02*
X010484Y001800D01*
X010563Y001774D01*
X010627Y001764D01*
X010627Y002621D01*
X010157Y002621D01*
X010157Y002249D01*
X010170Y002167D01*
X010196Y002087D01*
X010234Y002013D01*
X010283Y001946D01*
X010342Y001887D01*
X010409Y001838D01*
X010265Y001970D02*
X009214Y001970D01*
X009263Y002088D02*
X010196Y002088D01*
X010164Y002207D02*
X009297Y002207D01*
X009297Y002325D02*
X010157Y002325D01*
X010157Y002444D02*
X009297Y002444D01*
X009297Y002562D02*
X010157Y002562D01*
X010157Y002741D02*
X010627Y002741D01*
X010627Y003598D01*
X010563Y003588D01*
X010484Y003562D01*
X010409Y003524D01*
X010342Y003475D01*
X010283Y003416D01*
X010234Y003349D01*
X010196Y003274D01*
X010170Y003195D01*
X010157Y003113D01*
X010157Y002741D01*
X010157Y002799D02*
X009297Y002799D01*
X009297Y002681D02*
X010627Y002681D01*
X010627Y002741D02*
X010627Y002621D01*
X010747Y002621D01*
X010747Y002741D01*
X010627Y002741D01*
X010627Y002799D02*
X010747Y002799D01*
X010747Y002741D02*
X010747Y003598D01*
X010811Y003588D01*
X010891Y003562D01*
X010965Y003524D01*
X011032Y003475D01*
X011091Y003416D01*
X011140Y003349D01*
X011178Y003274D01*
X011204Y003195D01*
X011217Y003113D01*
X011217Y002741D01*
X010747Y002741D01*
X010747Y002681D02*
X012627Y002681D01*
X012627Y002741D02*
X012627Y002621D01*
X012157Y002621D01*
X012157Y002249D01*
X012170Y002167D01*
X012196Y002087D01*
X012234Y002013D01*
X012283Y001946D01*
X012342Y001887D01*
X012409Y001838D01*
X012484Y001800D01*
X012563Y001774D01*
X012627Y001764D01*
X012627Y002621D01*
X012747Y002621D01*
X012747Y002741D01*
X012627Y002741D01*
X012627Y003598D01*
X012563Y003588D01*
X012484Y003562D01*
X012409Y003524D01*
X012342Y003475D01*
X012283Y003416D01*
X012234Y003349D01*
X012196Y003274D01*
X012170Y003195D01*
X012157Y003113D01*
X012157Y002741D01*
X012627Y002741D01*
X012627Y002799D02*
X012747Y002799D01*
X012747Y002741D02*
X012747Y003598D01*
X012811Y003588D01*
X012891Y003562D01*
X012965Y003524D01*
X013032Y003475D01*
X013091Y003416D01*
X013140Y003349D01*
X013178Y003274D01*
X013204Y003195D01*
X013217Y003113D01*
X013217Y002741D01*
X012747Y002741D01*
X012747Y002681D02*
X015097Y002681D01*
X015097Y002799D02*
X013217Y002799D01*
X013217Y002918D02*
X015097Y002918D01*
X015097Y003037D02*
X013217Y003037D01*
X013210Y003155D02*
X015110Y003155D01*
X015387Y003274D02*
X013178Y003274D01*
X013109Y003392D02*
X015387Y003392D01*
X015387Y003511D02*
X012983Y003511D01*
X012747Y003511D02*
X012627Y003511D01*
X012627Y003392D02*
X012747Y003392D01*
X012747Y003274D02*
X012627Y003274D01*
X012627Y003155D02*
X012747Y003155D01*
X012747Y003037D02*
X012627Y003037D01*
X012627Y002918D02*
X012747Y002918D01*
X012747Y002621D02*
X013217Y002621D01*
X013217Y002249D01*
X013204Y002167D01*
X013178Y002087D01*
X013140Y002013D01*
X013091Y001946D01*
X013032Y001887D01*
X012965Y001838D01*
X012891Y001800D01*
X012811Y001774D01*
X012747Y001764D01*
X012747Y002621D01*
X012747Y002562D02*
X012627Y002562D01*
X012627Y002444D02*
X012747Y002444D01*
X012747Y002325D02*
X012627Y002325D01*
X012627Y002207D02*
X012747Y002207D01*
X012747Y002088D02*
X012627Y002088D01*
X012627Y001970D02*
X012747Y001970D01*
X012747Y001851D02*
X012627Y001851D01*
X012391Y001851D02*
X010983Y001851D01*
X010965Y001838D02*
X011032Y001887D01*
X011091Y001946D01*
X011140Y002013D01*
X011178Y002087D01*
X011204Y002167D01*
X011217Y002249D01*
X011217Y002621D01*
X010747Y002621D01*
X010747Y001764D01*
X010811Y001774D01*
X010891Y001800D01*
X010965Y001838D01*
X011109Y001970D02*
X012265Y001970D01*
X012196Y002088D02*
X011178Y002088D01*
X011210Y002207D02*
X012164Y002207D01*
X012157Y002325D02*
X011217Y002325D01*
X011217Y002444D02*
X012157Y002444D01*
X012157Y002562D02*
X011217Y002562D01*
X011217Y002799D02*
X012157Y002799D01*
X012157Y002918D02*
X011217Y002918D01*
X011217Y003037D02*
X012157Y003037D01*
X012164Y003155D02*
X011210Y003155D01*
X011178Y003274D02*
X012196Y003274D01*
X012265Y003392D02*
X011109Y003392D01*
X010983Y003511D02*
X012391Y003511D01*
X013217Y002562D02*
X015097Y002562D01*
X015097Y002444D02*
X013217Y002444D01*
X013217Y002325D02*
X015097Y002325D01*
X015110Y002207D02*
X013210Y002207D01*
X013178Y002088D02*
X020111Y002088D01*
X020077Y002207D02*
X017878Y002207D01*
X017883Y002208D02*
X017954Y002245D01*
X018019Y002292D01*
X018076Y002349D01*
X018123Y002414D01*
X018160Y002485D01*
X018184Y002561D01*
X018197Y002641D01*
X017727Y002641D01*
X017727Y002171D01*
X017727Y002171D01*
X017806Y002184D01*
X017883Y002208D01*
X017727Y002207D02*
X017647Y002207D01*
X017647Y002171D02*
X017647Y002171D01*
X017647Y002325D02*
X017727Y002325D01*
X017727Y002444D02*
X017647Y002444D01*
X017647Y002562D02*
X017727Y002562D01*
X017727Y002681D02*
X020077Y002681D01*
X020077Y002799D02*
X018185Y002799D01*
X018184Y002800D02*
X018160Y002877D01*
X018123Y002948D01*
X018076Y003013D01*
X018019Y003070D01*
X017954Y003117D01*
X017883Y003154D01*
X017806Y003178D01*
X017727Y003191D01*
X017727Y002721D01*
X018197Y002721D01*
X018197Y002721D01*
X018184Y002800D01*
X018139Y002918D02*
X020077Y002918D01*
X020077Y003037D02*
X018053Y003037D01*
X017878Y003155D02*
X020077Y003155D01*
X020111Y003274D02*
X017704Y003274D01*
X017727Y003191D02*
X017727Y003191D01*
X017727Y003155D02*
X017647Y003155D01*
X017647Y003191D02*
X017647Y003191D01*
X017647Y003037D02*
X017727Y003037D01*
X017727Y002918D02*
X017647Y002918D01*
X017647Y002799D02*
X017727Y002799D01*
X018197Y002641D02*
X018197Y002641D01*
X018185Y002562D02*
X020077Y002562D01*
X020077Y002444D02*
X018139Y002444D01*
X018053Y002325D02*
X020077Y002325D01*
X020160Y001970D02*
X013109Y001970D01*
X012983Y001851D02*
X020264Y001851D01*
X020160Y003392D02*
X017823Y003392D01*
X017941Y003511D02*
X020264Y003511D01*
X020441Y003629D02*
X018060Y003629D01*
X017685Y004103D02*
X015689Y004103D01*
X015807Y003985D02*
X017567Y003985D01*
X017448Y003866D02*
X015926Y003866D01*
X015984Y003748D02*
X017330Y003748D01*
X017211Y003629D02*
X015987Y003629D01*
X015987Y003511D02*
X017093Y003511D01*
X016974Y003392D02*
X015987Y003392D01*
X015987Y003274D02*
X016856Y003274D01*
X016327Y003155D02*
X016264Y003155D01*
X017227Y002444D02*
X017235Y002444D01*
X017166Y002325D02*
X017321Y002325D01*
X017496Y002207D02*
X017047Y002207D01*
X016327Y002207D02*
X016264Y002207D01*
X015314Y003629D02*
X008933Y003629D01*
X009110Y003511D02*
X010391Y003511D01*
X010265Y003392D02*
X009214Y003392D01*
X009263Y003274D02*
X010196Y003274D01*
X010164Y003155D02*
X009297Y003155D01*
X009297Y003037D02*
X010157Y003037D01*
X010157Y002918D02*
X009297Y002918D01*
X008441Y003629D02*
X007060Y003629D01*
X007110Y003511D02*
X008264Y003511D01*
X008160Y003392D02*
X007214Y003392D01*
X007263Y003274D02*
X008111Y003274D01*
X008077Y003155D02*
X007297Y003155D01*
X007297Y003037D02*
X008077Y003037D01*
X008077Y002918D02*
X007297Y002918D01*
X007297Y002799D02*
X008077Y002799D01*
X008077Y002681D02*
X007297Y002681D01*
X007297Y002562D02*
X008077Y002562D01*
X008077Y002444D02*
X007297Y002444D01*
X007297Y002325D02*
X008077Y002325D01*
X008077Y002207D02*
X007297Y002207D01*
X007263Y002088D02*
X008111Y002088D01*
X008160Y001970D02*
X007214Y001970D01*
X007110Y001851D02*
X008264Y001851D01*
X008441Y001733D02*
X006933Y001733D01*
X006441Y001733D02*
X003976Y001733D01*
X004238Y001851D02*
X006264Y001851D01*
X006160Y001970D02*
X004379Y001970D01*
X004488Y002088D02*
X006111Y002088D01*
X006077Y002207D02*
X004556Y002207D01*
X004625Y002325D02*
X006077Y002325D01*
X006077Y002444D02*
X004650Y002444D01*
X004671Y002562D02*
X006077Y002562D01*
X006077Y002918D02*
X004650Y002918D01*
X004625Y003037D02*
X006077Y003037D01*
X006077Y003155D02*
X004556Y003155D01*
X004488Y003274D02*
X006111Y003274D01*
X006160Y003392D02*
X004380Y003392D01*
X004238Y003511D02*
X006264Y003511D01*
X007178Y003748D02*
X015196Y003748D01*
X015077Y003866D02*
X007297Y003866D01*
X010627Y003511D02*
X010747Y003511D01*
X010747Y003392D02*
X010627Y003392D01*
X010627Y003274D02*
X010747Y003274D01*
X010747Y003155D02*
X010627Y003155D01*
X010627Y003037D02*
X010747Y003037D01*
X010747Y002918D02*
X010627Y002918D01*
X010627Y002562D02*
X010747Y002562D01*
X010747Y002444D02*
X010627Y002444D01*
X010627Y002325D02*
X010747Y002325D01*
X010747Y002207D02*
X010627Y002207D01*
X010627Y002088D02*
X010747Y002088D01*
X010747Y001970D02*
X010627Y001970D01*
X010627Y001851D02*
X010747Y001851D01*
X015299Y004459D02*
X018041Y004459D01*
X017922Y004341D02*
X015452Y004341D01*
X015570Y004222D02*
X017804Y004222D01*
X022569Y008727D02*
X022633Y008663D01*
X022704Y008608D01*
X022600Y011093D02*
X022439Y011160D01*
X022368Y011231D01*
X018397Y011231D01*
X018277Y011231D01*
X018167Y011277D01*
X017233Y012211D01*
X016992Y012211D01*
X016717Y012486D01*
X016717Y012876D01*
X016657Y012876D01*
X016382Y013151D01*
X015992Y013151D01*
X015717Y012876D01*
X014657Y012876D01*
X014382Y013151D01*
X013992Y013151D01*
X013717Y012876D01*
X013544Y012876D01*
X013577Y012842D02*
X013349Y013071D01*
X013206Y013071D01*
X013206Y012700D01*
X013168Y012700D01*
X013168Y013071D01*
X013026Y013071D01*
X012797Y012842D01*
X012797Y012700D01*
X013168Y012700D01*
X013168Y012662D01*
X012797Y012662D01*
X012797Y012519D01*
X013026Y012291D01*
X013168Y012291D01*
X013168Y012662D01*
X013206Y012662D01*
X013206Y012700D01*
X013577Y012700D01*
X013577Y012842D01*
X013577Y012757D02*
X013717Y012757D01*
X013717Y012639D02*
X013577Y012639D01*
X013577Y012662D02*
X013206Y012662D01*
X013206Y012291D01*
X013349Y012291D01*
X013577Y012519D01*
X013577Y012662D01*
X013577Y012520D02*
X013717Y012520D01*
X013717Y012486D02*
X013992Y012211D01*
X014382Y012211D01*
X014657Y012486D01*
X014657Y012876D01*
X014657Y012757D02*
X015717Y012757D01*
X015717Y012639D02*
X014657Y012639D01*
X014657Y012520D02*
X015717Y012520D01*
X015717Y012486D02*
X015992Y012211D01*
X016382Y012211D01*
X016657Y012486D01*
X016657Y012876D01*
X016717Y012876D02*
X016992Y013151D01*
X017382Y013151D01*
X017657Y012876D01*
X017717Y012876D01*
X017717Y012575D01*
X017657Y012635D01*
X017657Y012876D01*
X017717Y012876D02*
X017992Y013151D01*
X018382Y013151D01*
X018657Y012876D01*
X018717Y012876D01*
X018717Y012575D01*
X018657Y012635D01*
X018657Y012876D01*
X018717Y012876D02*
X018992Y013151D01*
X019382Y013151D01*
X019657Y012876D01*
X019717Y012876D01*
X019717Y012486D01*
X019972Y012231D01*
X019402Y012231D01*
X019657Y012486D01*
X019657Y012876D01*
X019717Y012876D02*
X019992Y013151D01*
X020382Y013151D01*
X020657Y012876D01*
X020717Y012876D01*
X020717Y012486D01*
X020972Y012231D01*
X020402Y012231D01*
X020657Y012486D01*
X020657Y012876D01*
X020717Y012876D02*
X020887Y013046D01*
X020887Y013621D01*
X020887Y013741D01*
X020933Y013851D01*
X020974Y013892D01*
X020947Y013881D01*
X015311Y013881D01*
X015125Y013695D01*
X015125Y013594D01*
X015058Y013433D01*
X014935Y013310D01*
X014774Y013243D01*
X014600Y013243D01*
X014439Y013310D01*
X014316Y013433D01*
X014249Y013594D01*
X014249Y013768D01*
X014316Y013929D01*
X014439Y014052D01*
X014600Y014119D01*
X014701Y014119D01*
X014983Y014401D01*
X013303Y014401D01*
X011657Y012755D01*
X011657Y012486D01*
X011382Y012211D01*
X010992Y012211D01*
X010717Y012486D01*
X010717Y012787D01*
X010657Y012727D01*
X010657Y012486D01*
X010382Y012211D01*
X009992Y012211D01*
X009717Y012486D01*
X009717Y012787D01*
X009657Y012727D01*
X009657Y012486D01*
X009382Y012211D01*
X008992Y012211D01*
X008717Y012486D01*
X008717Y012876D01*
X008717Y012757D02*
X007987Y012757D01*
X007987Y012639D02*
X008717Y012639D01*
X008717Y012520D02*
X007945Y012520D01*
X007832Y012401D02*
X008802Y012401D01*
X008920Y012283D02*
X007713Y012283D01*
X007595Y012164D02*
X017279Y012164D01*
X017398Y012046D02*
X007476Y012046D01*
X007358Y011927D02*
X017516Y011927D01*
X017635Y011809D02*
X007239Y011809D01*
X007121Y011690D02*
X017754Y011690D01*
X017872Y011572D02*
X007002Y011572D01*
X006884Y011453D02*
X017991Y011453D01*
X018109Y011335D02*
X006765Y011335D01*
X006646Y011216D02*
X022382Y011216D01*
X022786Y011098D02*
X024046Y011098D01*
X023928Y011216D02*
X022992Y011216D01*
X023080Y011335D02*
X023809Y011335D01*
X023691Y011453D02*
X023125Y011453D01*
X023125Y011572D02*
X023572Y011572D01*
X023454Y011690D02*
X023095Y011690D01*
X023029Y011809D02*
X023335Y011809D01*
X023216Y011927D02*
X022875Y011927D01*
X023118Y012046D02*
X022614Y012046D01*
X022565Y012164D02*
X023087Y012164D01*
X023087Y012241D02*
X023087Y013861D01*
X023016Y013933D01*
X022949Y014094D01*
X022949Y014268D01*
X023016Y014429D01*
X023139Y014552D01*
X023300Y014619D01*
X023474Y014619D01*
X023635Y014552D01*
X023758Y014429D01*
X023825Y014268D01*
X023825Y014094D01*
X023758Y013933D01*
X023687Y013861D01*
X023687Y012305D01*
X024557Y011435D01*
X024587Y011405D01*
X024587Y011557D01*
X024133Y012011D01*
X024087Y012121D01*
X024087Y012241D01*
X024087Y013861D01*
X024016Y013933D01*
X023949Y014094D01*
X023949Y014268D01*
X024016Y014429D01*
X024139Y014552D01*
X024300Y014619D01*
X024449Y014619D01*
X024449Y014768D01*
X024496Y014881D01*
X022811Y014881D01*
X021487Y013557D01*
X021487Y013046D01*
X021487Y013113D02*
X023087Y013113D01*
X023087Y013231D02*
X021487Y013231D01*
X021487Y013350D02*
X023087Y013350D01*
X023087Y013468D02*
X021487Y013468D01*
X021517Y013587D02*
X023087Y013587D01*
X023087Y013705D02*
X021636Y013705D01*
X021754Y013824D02*
X023087Y013824D01*
X023012Y013943D02*
X021873Y013943D01*
X021991Y014061D02*
X022962Y014061D01*
X022949Y014180D02*
X022110Y014180D01*
X022229Y014298D02*
X022961Y014298D01*
X023011Y014417D02*
X022347Y014417D01*
X022466Y014535D02*
X023122Y014535D01*
X022703Y014772D02*
X024451Y014772D01*
X024449Y014654D02*
X022584Y014654D01*
X022210Y015128D02*
X021554Y015128D01*
X021606Y015247D02*
X022328Y015247D01*
X022447Y015365D02*
X021625Y015365D01*
X021714Y015484D02*
X034387Y015484D01*
X034387Y015602D02*
X021833Y015602D01*
X021951Y015721D02*
X034387Y015721D01*
X034387Y015839D02*
X022070Y015839D01*
X022188Y015958D02*
X034387Y015958D01*
X034387Y016076D02*
X022307Y016076D01*
X022425Y016195D02*
X034387Y016195D01*
X034387Y016313D02*
X022544Y016313D01*
X022662Y016432D02*
X034387Y016432D01*
X034387Y016551D02*
X022781Y016551D01*
X022899Y016669D02*
X034387Y016669D01*
X034387Y016788D02*
X023018Y016788D01*
X023137Y016906D02*
X034387Y016906D01*
X034387Y017025D02*
X029569Y017025D01*
X029688Y017143D02*
X034387Y017143D01*
X034387Y017262D02*
X029806Y017262D01*
X029907Y017380D02*
X034387Y017380D01*
X034387Y017499D02*
X029907Y017499D01*
X029907Y017617D02*
X034387Y017617D01*
X034387Y017736D02*
X029907Y017736D01*
X029907Y017854D02*
X034387Y017854D01*
X034387Y017973D02*
X029893Y017973D01*
X029775Y018092D02*
X034387Y018092D01*
X034387Y018210D02*
X029656Y018210D01*
X029538Y018329D02*
X034387Y018329D01*
X034387Y018447D02*
X026878Y018447D01*
X026996Y018566D02*
X034387Y018566D01*
X034387Y018684D02*
X027115Y018684D01*
X027233Y018803D02*
X034387Y018803D01*
X034387Y018921D02*
X027352Y018921D01*
X027453Y019040D02*
X034387Y019040D01*
X034387Y019158D02*
X027487Y019158D01*
X027487Y019277D02*
X034387Y019277D01*
X034387Y019396D02*
X027487Y019396D01*
X027487Y019514D02*
X034387Y019514D01*
X034387Y019633D02*
X027487Y019633D01*
X027487Y019751D02*
X034387Y019751D01*
X034387Y019870D02*
X027487Y019870D01*
X027487Y019988D02*
X034387Y019988D01*
X034387Y020107D02*
X027487Y020107D01*
X027487Y020225D02*
X034387Y020225D01*
X034387Y020344D02*
X027487Y020344D01*
X027487Y020462D02*
X034387Y020462D01*
X034387Y020581D02*
X027487Y020581D01*
X027487Y020700D02*
X034387Y020700D01*
X034387Y020818D02*
X027487Y020818D01*
X027487Y020937D02*
X034387Y020937D01*
X034387Y021055D02*
X027487Y021055D01*
X027487Y021174D02*
X034387Y021174D01*
X034387Y021292D02*
X027487Y021292D01*
X027487Y021411D02*
X034387Y021411D01*
X034387Y021529D02*
X027487Y021529D01*
X027487Y021648D02*
X034387Y021648D01*
X034387Y021766D02*
X027487Y021766D01*
X027487Y021885D02*
X034387Y021885D01*
X034387Y022004D02*
X027487Y022004D01*
X027487Y022122D02*
X034387Y022122D01*
X034387Y022241D02*
X027487Y022241D01*
X027487Y022359D02*
X034387Y022359D01*
X034387Y022478D02*
X027487Y022478D01*
X027487Y022596D02*
X034387Y022596D01*
X034387Y022715D02*
X027487Y022715D01*
X027487Y022833D02*
X034387Y022833D01*
X034387Y022952D02*
X027487Y022952D01*
X027487Y023070D02*
X034387Y023070D01*
X034387Y023189D02*
X027487Y023189D01*
X027487Y023307D02*
X034387Y023307D01*
X034387Y023426D02*
X027487Y023426D01*
X027487Y023545D02*
X034387Y023545D01*
X034387Y023663D02*
X027487Y023663D01*
X027487Y023782D02*
X034387Y023782D01*
X034387Y023900D02*
X027487Y023900D01*
X027487Y024019D02*
X034387Y024019D01*
X034387Y024137D02*
X027487Y024137D01*
X027487Y024256D02*
X034387Y024256D01*
X034387Y024374D02*
X027500Y024374D01*
X027583Y024493D02*
X034387Y024493D01*
X034387Y024611D02*
X027625Y024611D01*
X027625Y024730D02*
X034387Y024730D01*
X034387Y024849D02*
X027592Y024849D01*
X027520Y024967D02*
X034387Y024967D01*
X034387Y025086D02*
X027355Y025086D01*
X027019Y025086D02*
X021987Y025086D01*
X021987Y025204D02*
X034387Y025204D01*
X034387Y025323D02*
X021987Y025323D01*
X021987Y025441D02*
X034387Y025441D01*
X034387Y025560D02*
X021987Y025560D01*
X021987Y025678D02*
X034387Y025678D01*
X034387Y025797D02*
X021987Y025797D01*
X021987Y025915D02*
X034387Y025915D01*
X034387Y026034D02*
X021987Y026034D01*
X021987Y026153D02*
X034387Y026153D01*
X034387Y026271D02*
X021987Y026271D01*
X021987Y026390D02*
X034387Y026390D01*
X034387Y026508D02*
X021987Y026508D01*
X021987Y026627D02*
X034387Y026627D01*
X034387Y026745D02*
X021987Y026745D01*
X021987Y026864D02*
X034387Y026864D01*
X034387Y026982D02*
X021987Y026982D01*
X021987Y027101D02*
X034343Y027101D01*
X034224Y027219D02*
X021987Y027219D01*
X021987Y027338D02*
X033910Y027338D01*
X033806Y027456D02*
X021987Y027456D01*
X021987Y027575D02*
X033757Y027575D01*
X033749Y027694D02*
X021987Y027694D01*
X021987Y027812D02*
X030936Y027812D01*
X030939Y027810D02*
X031100Y027743D01*
X031274Y027743D01*
X031435Y027810D01*
X031558Y027933D01*
X031625Y028094D01*
X031625Y028195D01*
X031857Y028427D01*
X031941Y028511D01*
X031987Y028621D01*
X031987Y028861D01*
X032058Y028933D01*
X032125Y029094D01*
X032125Y029268D01*
X032058Y029429D01*
X031935Y029552D01*
X031774Y029619D01*
X031600Y029619D01*
X031439Y029552D01*
X031316Y029429D01*
X031249Y029268D01*
X031249Y029094D01*
X031316Y028933D01*
X031387Y028861D01*
X031387Y028805D01*
X031201Y028619D01*
X031100Y028619D01*
X030939Y028552D01*
X030816Y028429D01*
X030749Y028268D01*
X030749Y028094D01*
X030816Y027933D01*
X030939Y027810D01*
X030818Y027931D02*
X021987Y027931D01*
X021987Y028049D02*
X030767Y028049D01*
X030749Y028168D02*
X022098Y028168D01*
X022217Y028286D02*
X030757Y028286D01*
X030806Y028405D02*
X022335Y028405D01*
X022454Y028523D02*
X030910Y028523D01*
X030817Y028760D02*
X031342Y028760D01*
X031369Y028879D02*
X031005Y028879D01*
X031085Y028998D02*
X031289Y028998D01*
X031249Y029116D02*
X031125Y029116D01*
X031125Y029235D02*
X031249Y029235D01*
X031284Y029353D02*
X031090Y029353D01*
X031016Y029472D02*
X031358Y029472D01*
X031531Y029590D02*
X030844Y029590D01*
X030531Y029590D02*
X022702Y029590D01*
X022583Y029709D02*
X033035Y029709D01*
X032916Y029827D02*
X022465Y029827D01*
X022346Y029946D02*
X032798Y029946D01*
X032679Y030064D02*
X022228Y030064D01*
X022109Y030183D02*
X032561Y030183D01*
X032442Y030302D02*
X021991Y030302D01*
X021872Y030420D02*
X032324Y030420D01*
X032205Y030539D02*
X021754Y030539D01*
X021635Y030657D02*
X032087Y030657D01*
X031968Y030776D02*
X021517Y030776D01*
X021487Y030894D02*
X031849Y030894D01*
X031731Y031013D02*
X021487Y031013D01*
X021487Y031131D02*
X031612Y031131D01*
X031494Y031250D02*
X021487Y031250D01*
X021539Y031368D02*
X031375Y031368D01*
X031257Y031487D02*
X021657Y031487D01*
X021657Y031606D02*
X031138Y031606D01*
X031020Y031724D02*
X021657Y031724D01*
X021657Y031843D02*
X030901Y031843D01*
X030783Y031961D02*
X021571Y031961D01*
X021453Y032080D02*
X030664Y032080D01*
X030546Y032198D02*
X018129Y032198D01*
X018247Y032317D02*
X030427Y032317D01*
X031146Y033147D02*
X032797Y033147D01*
X032710Y033028D02*
X032916Y033028D01*
X032817Y032909D02*
X033034Y032909D01*
X033153Y032791D02*
X032866Y032791D01*
X032875Y032672D02*
X033271Y032672D01*
X033390Y032554D02*
X032960Y032554D01*
X033079Y032435D02*
X033499Y032435D01*
X033510Y032317D02*
X033197Y032317D01*
X033316Y032198D02*
X033559Y032198D01*
X033669Y032080D02*
X033434Y032080D01*
X033553Y031961D02*
X037804Y031961D01*
X037755Y032080D02*
X034205Y032080D01*
X034315Y032198D02*
X037749Y032198D01*
X037769Y032317D02*
X034364Y032317D01*
X034375Y032435D02*
X037822Y032435D01*
X037943Y032554D02*
X034360Y032554D01*
X034311Y032672D02*
X042927Y032672D01*
X042927Y032554D02*
X038432Y032554D01*
X038552Y032435D02*
X042927Y032435D01*
X042927Y032317D02*
X038605Y032317D01*
X038625Y032198D02*
X041227Y032198D01*
X041000Y032080D02*
X038619Y032080D01*
X038570Y031961D02*
X040890Y031961D01*
X040841Y031843D02*
X038487Y031843D01*
X038487Y031724D02*
X040817Y031724D01*
X040817Y031606D02*
X038487Y031606D01*
X038487Y031487D02*
X040855Y031487D01*
X040914Y031368D02*
X038487Y031368D01*
X038487Y031250D02*
X041033Y031250D01*
X041066Y031131D02*
X038487Y031131D01*
X038487Y031013D02*
X040934Y031013D01*
X040863Y030894D02*
X038487Y030894D01*
X038487Y030776D02*
X040817Y030776D01*
X040817Y030657D02*
X038487Y030657D01*
X038487Y030539D02*
X040833Y030539D01*
X040882Y030420D02*
X038487Y030420D01*
X038487Y030302D02*
X040981Y030302D01*
X041180Y030183D02*
X038487Y030183D01*
X038464Y030064D02*
X040985Y030064D01*
X041637Y029681D02*
X038687Y029681D01*
X037187Y028181D01*
X037187Y024681D01*
X039187Y022681D01*
X039187Y014681D01*
X038187Y013681D01*
X037749Y013705D02*
X034987Y013705D01*
X034987Y013587D02*
X037752Y013587D01*
X037801Y013468D02*
X034987Y013468D01*
X034987Y013350D02*
X037899Y013350D01*
X038476Y013350D02*
X039887Y013350D01*
X039887Y013468D02*
X038573Y013468D01*
X038622Y013587D02*
X039887Y013587D01*
X039887Y013705D02*
X038625Y013705D01*
X038726Y013824D02*
X039887Y013824D01*
X039887Y013943D02*
X038845Y013943D01*
X038963Y014061D02*
X039887Y014061D01*
X039887Y014180D02*
X039082Y014180D01*
X039200Y014298D02*
X039911Y014298D01*
X039999Y014417D02*
X039319Y014417D01*
X039430Y014535D02*
X040117Y014535D01*
X040236Y014654D02*
X039467Y014654D01*
X039467Y014772D02*
X040354Y014772D01*
X040473Y014891D02*
X039467Y014891D01*
X039467Y015009D02*
X040930Y015009D01*
X041058Y015128D02*
X039467Y015128D01*
X039467Y015247D02*
X041036Y015247D01*
X040918Y015365D02*
X039467Y015365D01*
X039467Y015484D02*
X040856Y015484D01*
X040817Y015602D02*
X039467Y015602D01*
X039467Y015721D02*
X040817Y015721D01*
X040840Y015839D02*
X039467Y015839D01*
X039467Y015958D02*
X040889Y015958D01*
X040997Y016076D02*
X039467Y016076D01*
X039467Y016195D02*
X041152Y016195D01*
X040969Y016313D02*
X039467Y016313D01*
X039467Y016432D02*
X040877Y016432D01*
X040828Y016551D02*
X039467Y016551D01*
X039467Y016669D02*
X040817Y016669D01*
X040818Y016788D02*
X039467Y016788D01*
X039467Y016906D02*
X040868Y016906D01*
X040945Y017025D02*
X039467Y017025D01*
X039467Y017143D02*
X041094Y017143D01*
X041021Y017262D02*
X039467Y017262D01*
X039467Y017380D02*
X040902Y017380D01*
X040850Y017499D02*
X039467Y017499D01*
X039467Y017617D02*
X040817Y017617D01*
X040817Y017736D02*
X039467Y017736D01*
X039467Y017854D02*
X040846Y017854D01*
X040895Y017973D02*
X039467Y017973D01*
X039467Y018092D02*
X041012Y018092D01*
X041115Y018210D02*
X039467Y018210D01*
X039467Y018329D02*
X040954Y018329D01*
X040871Y018447D02*
X039467Y018447D01*
X039467Y018566D02*
X040822Y018566D01*
X040817Y018684D02*
X039467Y018684D01*
X039467Y018803D02*
X040825Y018803D01*
X040874Y018921D02*
X039467Y018921D01*
X039467Y019040D02*
X040961Y019040D01*
X041131Y019158D02*
X039467Y019158D01*
X039467Y019277D02*
X041006Y019277D01*
X040892Y019396D02*
X039467Y019396D01*
X039467Y019514D02*
X040843Y019514D01*
X040817Y019633D02*
X039467Y019633D01*
X039467Y019751D02*
X040817Y019751D01*
X040852Y019870D02*
X039467Y019870D01*
X039467Y019988D02*
X040909Y019988D01*
X041028Y020107D02*
X039467Y020107D01*
X039467Y020225D02*
X041078Y020225D01*
X040939Y020344D02*
X039467Y020344D01*
X039467Y020462D02*
X040865Y020462D01*
X040817Y020581D02*
X039467Y020581D01*
X039467Y020700D02*
X040817Y020700D01*
X040831Y020818D02*
X039467Y020818D01*
X039467Y020937D02*
X040880Y020937D01*
X040976Y021055D02*
X039467Y021055D01*
X039467Y021174D02*
X041168Y021174D01*
X040990Y021292D02*
X039467Y021292D01*
X039467Y021411D02*
X040886Y021411D01*
X040837Y021529D02*
X039467Y021529D01*
X039467Y021648D02*
X040817Y021648D01*
X040817Y021766D02*
X039467Y021766D01*
X039467Y021885D02*
X040859Y021885D01*
X040896Y021975D02*
X041043Y022122D01*
X041042Y022241D02*
X039467Y022241D01*
X039467Y022359D02*
X040924Y022359D01*
X040858Y022478D02*
X039467Y022478D01*
X039467Y022596D02*
X040817Y022596D01*
X040817Y022715D02*
X039467Y022715D01*
X039427Y022833D02*
X040837Y022833D01*
X040886Y022952D02*
X039312Y022952D01*
X039194Y023070D02*
X040991Y023070D01*
X041166Y023189D02*
X039075Y023189D01*
X038956Y023307D02*
X040975Y023307D01*
X040880Y023426D02*
X038838Y023426D01*
X038719Y023545D02*
X040831Y023545D01*
X040817Y023663D02*
X038601Y023663D01*
X038482Y023782D02*
X040817Y023782D01*
X040865Y023900D02*
X038364Y023900D01*
X038245Y024019D02*
X040940Y024019D01*
X041080Y024137D02*
X038127Y024137D01*
X038008Y024256D02*
X041027Y024256D01*
X040908Y024374D02*
X037890Y024374D01*
X037774Y024493D02*
X040852Y024493D01*
X040817Y024611D02*
X037987Y024611D01*
X038078Y024730D02*
X040817Y024730D01*
X040844Y024849D02*
X038125Y024849D01*
X038147Y024967D02*
X040893Y024967D01*
X041006Y025086D02*
X038266Y025086D01*
X038385Y025204D02*
X041129Y025204D01*
X040960Y025323D02*
X038503Y025323D01*
X038622Y025441D02*
X040874Y025441D01*
X040824Y025560D02*
X038740Y025560D01*
X038859Y025678D02*
X040817Y025678D01*
X040822Y025797D02*
X038977Y025797D01*
X039096Y025915D02*
X040871Y025915D01*
X040955Y026034D02*
X039214Y026034D01*
X039333Y026153D02*
X041117Y026153D01*
X041012Y026271D02*
X039451Y026271D01*
X036687Y024681D02*
X036687Y028431D01*
X032437Y032681D01*
X031999Y032672D02*
X031620Y032672D01*
X031738Y032554D02*
X032015Y032554D01*
X032065Y032435D02*
X031857Y032435D01*
X031975Y032317D02*
X032182Y032317D01*
X032094Y032198D02*
X032524Y032198D01*
X032642Y032080D02*
X032213Y032080D01*
X032331Y031961D02*
X032761Y031961D01*
X032879Y031843D02*
X032450Y031843D01*
X032568Y031724D02*
X032998Y031724D01*
X033117Y031606D02*
X032687Y031606D01*
X032805Y031487D02*
X033235Y031487D01*
X033354Y031368D02*
X032924Y031368D01*
X033042Y031250D02*
X033472Y031250D01*
X033591Y031131D02*
X033161Y031131D01*
X033279Y031013D02*
X033709Y031013D01*
X033828Y030894D02*
X033398Y030894D01*
X033517Y030776D02*
X033946Y030776D01*
X034065Y030657D02*
X033635Y030657D01*
X033754Y030539D02*
X034183Y030539D01*
X034302Y030420D02*
X033872Y030420D01*
X033991Y030302D02*
X034421Y030302D01*
X034539Y030183D02*
X034109Y030183D01*
X034228Y030064D02*
X034658Y030064D01*
X034776Y029946D02*
X034346Y029946D01*
X034465Y029827D02*
X034895Y029827D01*
X035013Y029709D02*
X034583Y029709D01*
X034702Y029590D02*
X035132Y029590D01*
X035250Y029472D02*
X034821Y029472D01*
X034939Y029353D02*
X035369Y029353D01*
X035487Y029235D02*
X035058Y029235D01*
X035176Y029116D02*
X035606Y029116D01*
X035724Y028998D02*
X035295Y028998D01*
X035413Y028879D02*
X035843Y028879D01*
X035962Y028760D02*
X035532Y028760D01*
X035650Y028642D02*
X036080Y028642D01*
X036199Y028523D02*
X035769Y028523D01*
X035887Y028405D02*
X036317Y028405D01*
X036407Y028286D02*
X036006Y028286D01*
X036124Y028168D02*
X036407Y028168D01*
X036407Y028049D02*
X036243Y028049D01*
X036362Y027931D02*
X036407Y027931D01*
X036967Y028405D02*
X037015Y028405D01*
X036952Y028523D02*
X037134Y028523D01*
X037252Y028642D02*
X036872Y028642D01*
X036753Y028760D02*
X037057Y028760D01*
X036869Y028879D02*
X036635Y028879D01*
X036516Y028998D02*
X036789Y028998D01*
X036749Y029116D02*
X036398Y029116D01*
X036279Y029235D02*
X036749Y029235D01*
X036784Y029353D02*
X036161Y029353D01*
X036042Y029472D02*
X036858Y029472D01*
X037031Y029590D02*
X035924Y029590D01*
X035805Y029709D02*
X037291Y029709D01*
X037409Y029827D02*
X035687Y029827D01*
X035568Y029946D02*
X037528Y029946D01*
X037646Y030064D02*
X035449Y030064D01*
X035331Y030183D02*
X037765Y030183D01*
X037883Y030302D02*
X035212Y030302D01*
X035094Y030420D02*
X037887Y030420D01*
X037887Y030539D02*
X034975Y030539D01*
X034857Y030657D02*
X037887Y030657D01*
X037887Y030776D02*
X034738Y030776D01*
X034620Y030894D02*
X037887Y030894D01*
X037887Y031013D02*
X034501Y031013D01*
X034383Y031131D02*
X037887Y031131D01*
X037887Y031250D02*
X034264Y031250D01*
X034146Y031368D02*
X037887Y031368D01*
X037887Y031487D02*
X034027Y031487D01*
X033908Y031606D02*
X037887Y031606D01*
X037887Y031724D02*
X033790Y031724D01*
X033671Y031843D02*
X037887Y031843D01*
X038376Y029946D02*
X038595Y029946D01*
X038438Y029827D02*
X038258Y029827D01*
X038319Y029709D02*
X038139Y029709D01*
X038201Y029590D02*
X038021Y029590D01*
X038082Y029472D02*
X037902Y029472D01*
X037963Y029353D02*
X037784Y029353D01*
X037845Y029235D02*
X037665Y029235D01*
X037625Y029116D02*
X037726Y029116D01*
X037608Y028998D02*
X037585Y028998D01*
X037371Y028760D02*
X037317Y028760D01*
X035387Y027338D02*
X034947Y027338D01*
X034987Y027219D02*
X035387Y027219D01*
X035387Y027101D02*
X034987Y027101D01*
X034987Y026982D02*
X035387Y026982D01*
X035387Y026864D02*
X034987Y026864D01*
X034987Y026745D02*
X035387Y026745D01*
X035387Y026627D02*
X034987Y026627D01*
X034987Y026508D02*
X035387Y026508D01*
X035387Y026390D02*
X034987Y026390D01*
X034987Y026271D02*
X035387Y026271D01*
X035387Y026153D02*
X034987Y026153D01*
X034987Y026034D02*
X035387Y026034D01*
X035387Y025915D02*
X034987Y025915D01*
X034987Y025797D02*
X035387Y025797D01*
X035387Y025678D02*
X034987Y025678D01*
X034987Y025560D02*
X035387Y025560D01*
X035387Y025441D02*
X034987Y025441D01*
X034987Y025323D02*
X035387Y025323D01*
X035387Y025204D02*
X034987Y025204D01*
X034987Y025086D02*
X035387Y025086D01*
X035387Y024967D02*
X034987Y024967D01*
X034987Y024849D02*
X035387Y024849D01*
X035387Y024730D02*
X034987Y024730D01*
X034987Y024611D02*
X035387Y024611D01*
X035387Y024493D02*
X034987Y024493D01*
X034987Y024374D02*
X035387Y024374D01*
X035387Y024256D02*
X034987Y024256D01*
X034987Y024137D02*
X035387Y024137D01*
X035387Y024019D02*
X034987Y024019D01*
X034987Y023900D02*
X035387Y023900D01*
X035387Y023782D02*
X034987Y023782D01*
X034987Y023663D02*
X035387Y023663D01*
X035387Y023545D02*
X034987Y023545D01*
X034987Y023426D02*
X035387Y023426D01*
X035387Y023307D02*
X034987Y023307D01*
X034987Y023189D02*
X035387Y023189D01*
X035387Y023070D02*
X034987Y023070D01*
X034987Y022952D02*
X035387Y022952D01*
X035387Y022833D02*
X034987Y022833D01*
X034987Y022715D02*
X035387Y022715D01*
X035387Y022596D02*
X034987Y022596D01*
X034987Y022478D02*
X035387Y022478D01*
X035387Y022359D02*
X034987Y022359D01*
X034987Y022241D02*
X035387Y022241D01*
X035387Y022122D02*
X034987Y022122D01*
X034987Y022004D02*
X035387Y022004D01*
X035387Y021885D02*
X034987Y021885D01*
X034987Y021766D02*
X035387Y021766D01*
X035387Y021648D02*
X034987Y021648D01*
X034987Y021529D02*
X035387Y021529D01*
X035387Y021411D02*
X034987Y021411D01*
X034987Y021292D02*
X035387Y021292D01*
X035387Y021174D02*
X034987Y021174D01*
X034987Y021055D02*
X035387Y021055D01*
X035387Y020937D02*
X034987Y020937D01*
X034987Y020818D02*
X035387Y020818D01*
X035387Y020700D02*
X034987Y020700D01*
X034987Y020581D02*
X035387Y020581D01*
X035387Y020462D02*
X034987Y020462D01*
X034987Y020344D02*
X035387Y020344D01*
X035387Y020225D02*
X034987Y020225D01*
X034987Y020107D02*
X035387Y020107D01*
X035387Y019988D02*
X034987Y019988D01*
X034987Y019870D02*
X035387Y019870D01*
X035387Y019751D02*
X034987Y019751D01*
X034987Y019633D02*
X035387Y019633D01*
X035387Y019514D02*
X034987Y019514D01*
X034987Y019396D02*
X035387Y019396D01*
X035387Y019277D02*
X034987Y019277D01*
X034987Y019158D02*
X035387Y019158D01*
X035387Y019040D02*
X034987Y019040D01*
X034987Y018921D02*
X035387Y018921D01*
X035387Y018803D02*
X034987Y018803D01*
X034987Y018684D02*
X035387Y018684D01*
X035387Y018566D02*
X034987Y018566D01*
X034987Y018447D02*
X035387Y018447D01*
X035387Y018329D02*
X034987Y018329D01*
X034987Y018210D02*
X035387Y018210D01*
X035387Y018092D02*
X034987Y018092D01*
X034987Y017973D02*
X035387Y017973D01*
X035387Y017854D02*
X034987Y017854D01*
X034987Y017736D02*
X035387Y017736D01*
X035387Y017617D02*
X034987Y017617D01*
X034987Y017499D02*
X035387Y017499D01*
X035387Y017380D02*
X034987Y017380D01*
X034987Y017262D02*
X035387Y017262D01*
X035387Y017143D02*
X034987Y017143D01*
X034987Y017025D02*
X035387Y017025D01*
X035387Y016906D02*
X034987Y016906D01*
X034987Y016788D02*
X035387Y016788D01*
X035387Y016669D02*
X034987Y016669D01*
X034987Y016551D02*
X035387Y016551D01*
X035387Y016432D02*
X034987Y016432D01*
X034987Y016313D02*
X035387Y016313D01*
X035387Y016195D02*
X034987Y016195D01*
X034987Y016076D02*
X035387Y016076D01*
X035387Y015958D02*
X034987Y015958D01*
X034987Y015839D02*
X035387Y015839D01*
X035303Y015721D02*
X034987Y015721D01*
X034987Y015602D02*
X035059Y015602D01*
X034387Y015365D02*
X029541Y015365D01*
X029485Y015421D02*
X028889Y015421D01*
X028467Y014999D01*
X028467Y014403D01*
X028889Y013981D01*
X029485Y013981D01*
X029907Y014403D01*
X029907Y014999D01*
X029485Y015421D01*
X029660Y015247D02*
X034387Y015247D01*
X034387Y015128D02*
X029778Y015128D01*
X029897Y015009D02*
X034387Y015009D01*
X034387Y014891D02*
X029907Y014891D01*
X029907Y014772D02*
X034387Y014772D01*
X034387Y014654D02*
X029907Y014654D01*
X029907Y014535D02*
X034387Y014535D01*
X034387Y014417D02*
X029907Y014417D01*
X029803Y014298D02*
X034387Y014298D01*
X034387Y014180D02*
X029684Y014180D01*
X029565Y014061D02*
X034387Y014061D01*
X034387Y013943D02*
X026987Y013943D01*
X026987Y014061D02*
X028809Y014061D01*
X028690Y014180D02*
X026987Y014180D01*
X026987Y014298D02*
X028572Y014298D01*
X028467Y014417D02*
X026987Y014417D01*
X026987Y014535D02*
X028467Y014535D01*
X028467Y014654D02*
X026987Y014654D01*
X026974Y014772D02*
X028467Y014772D01*
X028467Y014891D02*
X026901Y014891D01*
X026783Y015009D02*
X028477Y015009D01*
X028596Y015128D02*
X026664Y015128D01*
X026546Y015247D02*
X028714Y015247D01*
X028833Y015365D02*
X026427Y015365D01*
X026171Y014772D02*
X025323Y014772D01*
X025325Y014654D02*
X026290Y014654D01*
X026387Y014535D02*
X025652Y014535D01*
X025764Y014417D02*
X026387Y014417D01*
X026387Y014298D02*
X025813Y014298D01*
X025825Y014180D02*
X026387Y014180D01*
X026387Y014061D02*
X025812Y014061D01*
X025763Y013943D02*
X026387Y013943D01*
X026387Y013824D02*
X025687Y013824D01*
X025687Y013705D02*
X026387Y013705D01*
X026387Y013587D02*
X025687Y013587D01*
X025687Y013468D02*
X026387Y013468D01*
X026387Y013350D02*
X025687Y013350D01*
X025761Y013231D02*
X026387Y013231D01*
X026387Y013113D02*
X025879Y013113D01*
X025998Y012994D02*
X026387Y012994D01*
X026387Y012876D02*
X026117Y012876D01*
X026180Y012757D02*
X026387Y012757D01*
X026387Y012639D02*
X026187Y012639D01*
X026187Y012520D02*
X026387Y012520D01*
X026387Y012401D02*
X026187Y012401D01*
X026187Y012283D02*
X026387Y012283D01*
X026387Y012164D02*
X026187Y012164D01*
X026187Y012046D02*
X026387Y012046D01*
X026387Y011927D02*
X026187Y011927D01*
X026187Y011809D02*
X026387Y011809D01*
X026387Y011690D02*
X026187Y011690D01*
X026187Y011572D02*
X026387Y011572D01*
X026387Y011453D02*
X026187Y011453D01*
X026187Y011335D02*
X026387Y011335D01*
X026387Y011216D02*
X026187Y011216D01*
X026187Y011098D02*
X026397Y011098D01*
X026465Y010979D02*
X026187Y010979D01*
X026187Y010860D02*
X026583Y010860D01*
X026702Y010742D02*
X026187Y010742D01*
X026187Y010623D02*
X026820Y010623D01*
X026939Y010505D02*
X026187Y010505D01*
X026187Y010386D02*
X027115Y010386D01*
X026499Y009794D02*
X032887Y009794D01*
X032887Y009912D02*
X026380Y009912D01*
X026262Y010031D02*
X032887Y010031D01*
X032795Y010149D02*
X026187Y010149D01*
X026187Y010268D02*
X030040Y010268D01*
X030334Y010268D02*
X032676Y010268D01*
X033050Y010742D02*
X039887Y010742D01*
X039887Y010860D02*
X032932Y010860D01*
X032751Y010979D02*
X039887Y010979D01*
X039887Y011098D02*
X030326Y011098D01*
X030048Y011098D02*
X027195Y011098D01*
X027076Y011216D02*
X039887Y011216D01*
X039887Y011335D02*
X026987Y011335D01*
X026987Y011453D02*
X039887Y011453D01*
X039887Y011572D02*
X026987Y011572D01*
X026987Y011690D02*
X039887Y011690D01*
X039887Y011809D02*
X026987Y011809D01*
X026987Y011927D02*
X039887Y011927D01*
X039887Y012046D02*
X039402Y012046D01*
X039540Y012164D02*
X039887Y012164D01*
X039887Y012283D02*
X039600Y012283D01*
X039625Y012401D02*
X039887Y012401D01*
X039887Y012520D02*
X039624Y012520D01*
X039575Y012639D02*
X039887Y012639D01*
X039887Y012757D02*
X039480Y012757D01*
X039887Y012876D02*
X035417Y012876D01*
X035535Y012757D02*
X038894Y012757D01*
X038972Y012046D02*
X026987Y012046D01*
X026987Y012164D02*
X035297Y012164D01*
X035161Y012283D02*
X026987Y012283D01*
X026987Y012401D02*
X035042Y012401D01*
X034924Y012520D02*
X026987Y012520D01*
X026987Y012639D02*
X034805Y012639D01*
X034687Y012757D02*
X026987Y012757D01*
X026987Y012876D02*
X034568Y012876D01*
X034450Y012994D02*
X026987Y012994D01*
X026987Y013113D02*
X034391Y013113D01*
X034387Y013231D02*
X026987Y013231D01*
X026987Y013350D02*
X034387Y013350D01*
X034387Y013468D02*
X026987Y013468D01*
X026987Y013587D02*
X034387Y013587D01*
X034387Y013705D02*
X026987Y013705D01*
X026987Y013824D02*
X034387Y013824D01*
X034987Y013824D02*
X037772Y013824D01*
X037829Y013943D02*
X034987Y013943D01*
X034987Y014061D02*
X037960Y014061D01*
X038290Y014180D02*
X034987Y014180D01*
X034987Y014298D02*
X038408Y014298D01*
X038527Y014417D02*
X034987Y014417D01*
X034987Y014535D02*
X038645Y014535D01*
X038764Y014654D02*
X034987Y014654D01*
X034987Y014772D02*
X035029Y014772D01*
X035345Y014772D02*
X038883Y014772D01*
X038907Y014891D02*
X035517Y014891D01*
X035590Y015009D02*
X038907Y015009D01*
X038907Y015128D02*
X035625Y015128D01*
X035677Y015247D02*
X038591Y015247D01*
X038783Y015247D02*
X038907Y015247D01*
X038383Y015365D02*
X035795Y015365D01*
X035914Y015484D02*
X038295Y015484D01*
X038249Y015602D02*
X037678Y015602D01*
X037774Y015721D02*
X038249Y015721D01*
X038278Y015839D02*
X037823Y015839D01*
X037825Y015958D02*
X038344Y015958D01*
X038387Y016076D02*
X037801Y016076D01*
X037743Y016195D02*
X038387Y016195D01*
X038387Y016313D02*
X037687Y016313D01*
X037687Y016432D02*
X038387Y016432D01*
X038387Y016551D02*
X037687Y016551D01*
X037687Y016669D02*
X038387Y016669D01*
X038387Y016788D02*
X037687Y016788D01*
X037687Y016906D02*
X038387Y016906D01*
X038387Y017025D02*
X037687Y017025D01*
X037687Y017143D02*
X038387Y017143D01*
X038387Y017262D02*
X037687Y017262D01*
X037687Y017380D02*
X038387Y017380D01*
X038387Y017499D02*
X037687Y017499D01*
X037687Y017617D02*
X038387Y017617D01*
X038387Y017736D02*
X037687Y017736D01*
X037687Y017854D02*
X038387Y017854D01*
X038387Y017973D02*
X037687Y017973D01*
X037687Y018092D02*
X038387Y018092D01*
X038387Y018210D02*
X037687Y018210D01*
X037687Y018329D02*
X038387Y018329D01*
X038387Y018447D02*
X037687Y018447D01*
X037687Y018566D02*
X038387Y018566D01*
X038387Y018684D02*
X037687Y018684D01*
X037687Y018803D02*
X038387Y018803D01*
X038387Y018921D02*
X037687Y018921D01*
X037687Y019040D02*
X038387Y019040D01*
X038387Y019158D02*
X037687Y019158D01*
X037687Y019277D02*
X038387Y019277D01*
X038387Y019396D02*
X037687Y019396D01*
X037687Y019514D02*
X038387Y019514D01*
X038387Y019633D02*
X037687Y019633D01*
X037687Y019751D02*
X038387Y019751D01*
X038387Y019870D02*
X037687Y019870D01*
X037687Y019988D02*
X038387Y019988D01*
X038387Y020107D02*
X037687Y020107D01*
X037687Y020225D02*
X038387Y020225D01*
X038387Y020344D02*
X037687Y020344D01*
X037687Y020462D02*
X038387Y020462D01*
X038387Y020581D02*
X037687Y020581D01*
X037687Y020700D02*
X038387Y020700D01*
X038387Y020818D02*
X037687Y020818D01*
X037687Y020937D02*
X038387Y020937D01*
X038387Y021055D02*
X037687Y021055D01*
X037687Y021174D02*
X038387Y021174D01*
X038387Y021292D02*
X037687Y021292D01*
X037687Y021411D02*
X038387Y021411D01*
X038387Y021529D02*
X037687Y021529D01*
X037687Y021648D02*
X038387Y021648D01*
X038387Y021766D02*
X037687Y021766D01*
X037687Y021885D02*
X038363Y021885D01*
X038286Y022004D02*
X037687Y022004D01*
X037687Y022122D02*
X038249Y022122D01*
X038249Y022241D02*
X037687Y022241D01*
X037687Y022359D02*
X038287Y022359D01*
X038364Y022478D02*
X037687Y022478D01*
X037687Y022596D02*
X038376Y022596D01*
X038257Y022715D02*
X037772Y022715D01*
X037821Y022833D02*
X038139Y022833D01*
X038020Y022952D02*
X037825Y022952D01*
X037804Y023070D02*
X037902Y023070D01*
X037783Y023189D02*
X037749Y023189D01*
X037665Y023307D02*
X037623Y023307D01*
X037546Y023426D02*
X037316Y023426D01*
X037427Y023545D02*
X037198Y023545D01*
X037309Y023663D02*
X037079Y023663D01*
X037190Y023782D02*
X036961Y023782D01*
X037072Y023900D02*
X036842Y023900D01*
X036953Y024019D02*
X036724Y024019D01*
X036835Y024137D02*
X036605Y024137D01*
X036716Y024256D02*
X036487Y024256D01*
X036487Y024374D02*
X036598Y024374D01*
X036687Y024681D02*
X038687Y022681D01*
X038687Y022181D01*
X037087Y022122D02*
X035987Y022122D01*
X035987Y022004D02*
X037087Y022004D01*
X037087Y021885D02*
X035987Y021885D01*
X035987Y021766D02*
X037087Y021766D01*
X037087Y021648D02*
X035987Y021648D01*
X035987Y021529D02*
X037087Y021529D01*
X037087Y021411D02*
X035987Y021411D01*
X035987Y021292D02*
X037087Y021292D01*
X037087Y021174D02*
X035987Y021174D01*
X035987Y021055D02*
X037087Y021055D01*
X037087Y020937D02*
X035987Y020937D01*
X035987Y020818D02*
X037087Y020818D01*
X037087Y020700D02*
X035987Y020700D01*
X035987Y020581D02*
X037087Y020581D01*
X037087Y020462D02*
X035987Y020462D01*
X035987Y020344D02*
X037087Y020344D01*
X037087Y020225D02*
X035987Y020225D01*
X035987Y020107D02*
X037087Y020107D01*
X037087Y019988D02*
X035987Y019988D01*
X035987Y019870D02*
X037087Y019870D01*
X037087Y019751D02*
X035987Y019751D01*
X035987Y019633D02*
X037087Y019633D01*
X037087Y019514D02*
X035987Y019514D01*
X035987Y019396D02*
X037087Y019396D01*
X037087Y019277D02*
X035987Y019277D01*
X035987Y019158D02*
X037087Y019158D01*
X037087Y019040D02*
X035987Y019040D01*
X035987Y018921D02*
X037087Y018921D01*
X037087Y018803D02*
X035987Y018803D01*
X035987Y018684D02*
X037087Y018684D01*
X037087Y018566D02*
X035987Y018566D01*
X035987Y018447D02*
X037087Y018447D01*
X037087Y018329D02*
X035987Y018329D01*
X035987Y018210D02*
X037087Y018210D01*
X037087Y018092D02*
X035987Y018092D01*
X035987Y017973D02*
X037087Y017973D01*
X037087Y017854D02*
X035987Y017854D01*
X035987Y017736D02*
X037087Y017736D01*
X037087Y017617D02*
X035987Y017617D01*
X035987Y017499D02*
X037087Y017499D01*
X037087Y017380D02*
X035987Y017380D01*
X035987Y017262D02*
X037087Y017262D01*
X037087Y017143D02*
X035987Y017143D01*
X035987Y017025D02*
X037087Y017025D01*
X037087Y016906D02*
X035987Y016906D01*
X035987Y016788D02*
X037087Y016788D01*
X037087Y016669D02*
X035987Y016669D01*
X035987Y016551D02*
X037087Y016551D01*
X037087Y016432D02*
X035987Y016432D01*
X035987Y016313D02*
X037087Y016313D01*
X037031Y016195D02*
X035987Y016195D01*
X035987Y016076D02*
X036973Y016076D01*
X036949Y015958D02*
X035987Y015958D01*
X035987Y015839D02*
X036951Y015839D01*
X037000Y015721D02*
X035987Y015721D01*
X035979Y015602D02*
X037096Y015602D01*
X035061Y013231D02*
X039887Y013231D01*
X039887Y013113D02*
X035179Y013113D01*
X035298Y012994D02*
X039887Y012994D01*
X040487Y012994D02*
X040915Y012994D01*
X040896Y012975D02*
X040817Y012784D01*
X040817Y012577D01*
X040896Y012386D01*
X041043Y012240D01*
X041234Y012161D01*
X042041Y012161D01*
X042232Y012240D01*
X042378Y012386D01*
X042457Y012577D01*
X042457Y012784D01*
X042378Y012975D01*
X042232Y013122D01*
X042041Y013201D01*
X041234Y013201D01*
X041043Y013122D01*
X040896Y012975D01*
X040855Y012876D02*
X040487Y012876D01*
X040487Y012757D02*
X040817Y012757D01*
X040817Y012639D02*
X040487Y012639D01*
X040487Y012520D02*
X040841Y012520D01*
X040890Y012401D02*
X040487Y012401D01*
X040487Y012283D02*
X041000Y012283D01*
X041225Y012164D02*
X040487Y012164D01*
X040487Y012046D02*
X042927Y012046D01*
X042927Y012164D02*
X042049Y012164D01*
X042274Y012283D02*
X042927Y012283D01*
X042927Y012401D02*
X042384Y012401D01*
X042433Y012520D02*
X042927Y012520D01*
X042927Y012639D02*
X042457Y012639D01*
X042457Y012757D02*
X042927Y012757D01*
X042927Y012876D02*
X042419Y012876D01*
X042359Y012994D02*
X042927Y012994D01*
X042927Y013113D02*
X042241Y013113D01*
X042168Y013305D02*
X042224Y013345D01*
X042273Y013394D01*
X042313Y013450D01*
X042345Y013512D01*
X042366Y013578D01*
X042376Y013641D01*
X041677Y013641D01*
X041677Y013721D01*
X041597Y013721D01*
X041597Y014121D01*
X041302Y014121D01*
X041234Y014110D01*
X041168Y014089D01*
X041106Y014057D01*
X041050Y014017D01*
X041001Y013968D01*
X040961Y013912D01*
X040929Y013850D01*
X040908Y013784D01*
X040898Y013721D01*
X041597Y013721D01*
X041597Y013641D01*
X040898Y013641D01*
X040908Y013578D01*
X040929Y013512D01*
X040961Y013450D01*
X041001Y013394D01*
X041050Y013345D01*
X041106Y013305D01*
X041168Y013273D01*
X041234Y013252D01*
X041302Y013241D01*
X041597Y013241D01*
X041597Y013641D01*
X041677Y013641D01*
X041677Y013241D01*
X041972Y013241D01*
X042040Y013252D01*
X042106Y013273D01*
X042168Y013305D01*
X042228Y013350D02*
X042927Y013350D01*
X042927Y013468D02*
X042323Y013468D01*
X042368Y013587D02*
X042927Y013587D01*
X042927Y013705D02*
X041677Y013705D01*
X041677Y013721D02*
X042376Y013721D01*
X042366Y013784D01*
X042345Y013850D01*
X042313Y013912D01*
X042273Y013968D01*
X042224Y014017D01*
X042168Y014057D01*
X042106Y014089D01*
X042040Y014110D01*
X041972Y014121D01*
X041677Y014121D01*
X041677Y013721D01*
X041597Y013705D02*
X040487Y013705D01*
X040487Y013587D02*
X040906Y013587D01*
X040952Y013468D02*
X040487Y013468D01*
X040487Y013350D02*
X041046Y013350D01*
X041034Y013113D02*
X040487Y013113D01*
X040487Y013231D02*
X042927Y013231D01*
X042927Y013824D02*
X042353Y013824D01*
X042291Y013943D02*
X042927Y013943D01*
X042927Y014061D02*
X042160Y014061D01*
X042086Y014180D02*
X042927Y014180D01*
X042927Y014298D02*
X042290Y014298D01*
X042390Y014417D02*
X042927Y014417D01*
X042927Y014535D02*
X042440Y014535D01*
X042457Y014654D02*
X042927Y014654D01*
X042927Y014772D02*
X042457Y014772D01*
X042413Y014891D02*
X042927Y014891D01*
X042927Y015009D02*
X042344Y015009D01*
X042216Y015128D02*
X042927Y015128D01*
X042927Y015247D02*
X042238Y015247D01*
X042357Y015365D02*
X042927Y015365D01*
X042927Y015484D02*
X042418Y015484D01*
X042457Y015602D02*
X042927Y015602D01*
X042927Y015721D02*
X042457Y015721D01*
X042434Y015839D02*
X042927Y015839D01*
X042927Y015958D02*
X042385Y015958D01*
X042277Y016076D02*
X042927Y016076D01*
X042927Y016195D02*
X042122Y016195D01*
X042305Y016313D02*
X042927Y016313D01*
X042927Y016432D02*
X042397Y016432D01*
X042446Y016551D02*
X042927Y016551D01*
X042927Y016669D02*
X042457Y016669D01*
X042456Y016788D02*
X042927Y016788D01*
X042927Y016906D02*
X042407Y016906D01*
X042329Y017025D02*
X042927Y017025D01*
X042927Y017143D02*
X042180Y017143D01*
X042253Y017262D02*
X042927Y017262D01*
X042927Y017380D02*
X042372Y017380D01*
X042424Y017499D02*
X042927Y017499D01*
X042927Y017617D02*
X042457Y017617D01*
X042457Y017736D02*
X042927Y017736D01*
X042927Y017854D02*
X042428Y017854D01*
X042379Y017973D02*
X042927Y017973D01*
X042927Y018092D02*
X042262Y018092D01*
X042159Y018210D02*
X042927Y018210D01*
X042927Y018329D02*
X042320Y018329D01*
X042403Y018447D02*
X042927Y018447D01*
X042927Y018566D02*
X042452Y018566D01*
X042457Y018684D02*
X042927Y018684D01*
X042927Y018803D02*
X042449Y018803D01*
X042400Y018921D02*
X042927Y018921D01*
X042927Y019040D02*
X042313Y019040D01*
X042143Y019158D02*
X042927Y019158D01*
X042927Y019277D02*
X042269Y019277D01*
X042382Y019396D02*
X042927Y019396D01*
X042927Y019514D02*
X042431Y019514D01*
X042457Y019633D02*
X042927Y019633D01*
X042927Y019751D02*
X042457Y019751D01*
X042422Y019870D02*
X042927Y019870D01*
X042927Y019988D02*
X042365Y019988D01*
X042247Y020107D02*
X042927Y020107D01*
X042927Y020225D02*
X042196Y020225D01*
X042335Y020344D02*
X042927Y020344D01*
X042927Y020462D02*
X042409Y020462D01*
X042457Y020581D02*
X042927Y020581D01*
X042927Y020700D02*
X042457Y020700D01*
X042443Y020818D02*
X042927Y020818D01*
X042927Y020937D02*
X042394Y020937D01*
X042298Y021055D02*
X042927Y021055D01*
X042927Y021174D02*
X042106Y021174D01*
X042284Y021292D02*
X042927Y021292D01*
X042927Y021411D02*
X042388Y021411D01*
X042437Y021529D02*
X042927Y021529D01*
X042927Y021648D02*
X042457Y021648D01*
X042457Y021766D02*
X042927Y021766D01*
X042927Y021885D02*
X042415Y021885D01*
X042350Y022004D02*
X042927Y022004D01*
X042927Y022122D02*
X042231Y022122D01*
X042232Y022241D02*
X042927Y022241D01*
X042927Y022359D02*
X042351Y022359D01*
X042416Y022478D02*
X042927Y022478D01*
X042927Y022596D02*
X042457Y022596D01*
X042457Y022715D02*
X042927Y022715D01*
X042927Y022833D02*
X042437Y022833D01*
X042388Y022952D02*
X042927Y022952D01*
X042927Y023070D02*
X042283Y023070D01*
X042108Y023189D02*
X042927Y023189D01*
X042927Y023307D02*
X042299Y023307D01*
X042394Y023426D02*
X042927Y023426D01*
X042927Y023545D02*
X042443Y023545D01*
X042457Y023663D02*
X042927Y023663D01*
X042927Y023782D02*
X042457Y023782D01*
X042409Y023900D02*
X042927Y023900D01*
X042927Y024019D02*
X042335Y024019D01*
X042194Y024137D02*
X042927Y024137D01*
X042927Y024256D02*
X042247Y024256D01*
X042366Y024374D02*
X042927Y024374D01*
X042927Y024493D02*
X042422Y024493D01*
X042457Y024611D02*
X042927Y024611D01*
X042927Y024730D02*
X042457Y024730D01*
X042430Y024849D02*
X042927Y024849D01*
X042927Y024967D02*
X042381Y024967D01*
X042268Y025086D02*
X042927Y025086D01*
X042927Y025204D02*
X042145Y025204D01*
X042314Y025323D02*
X042927Y025323D01*
X042927Y025441D02*
X042401Y025441D01*
X042450Y025560D02*
X042927Y025560D01*
X042927Y025678D02*
X042457Y025678D01*
X042452Y025797D02*
X042927Y025797D01*
X042927Y025915D02*
X042403Y025915D01*
X042319Y026034D02*
X042927Y026034D01*
X042927Y026153D02*
X042157Y026153D01*
X042263Y026271D02*
X042927Y026271D01*
X042927Y026390D02*
X042379Y026390D01*
X042428Y026508D02*
X042927Y026508D01*
X042927Y026627D02*
X042457Y026627D01*
X042457Y026745D02*
X042927Y026745D01*
X042927Y026864D02*
X042424Y026864D01*
X042371Y026982D02*
X042927Y026982D01*
X042927Y027101D02*
X042252Y027101D01*
X042182Y027219D02*
X042927Y027219D01*
X042927Y027338D02*
X042329Y027338D01*
X042407Y027456D02*
X042927Y027456D01*
X042927Y027575D02*
X042456Y027575D01*
X042457Y027694D02*
X042927Y027694D01*
X042927Y027812D02*
X042446Y027812D01*
X042396Y027931D02*
X042927Y027931D01*
X042927Y028049D02*
X042304Y028049D01*
X042120Y028168D02*
X042927Y028168D01*
X042927Y028286D02*
X042278Y028286D01*
X042386Y028405D02*
X042927Y028405D01*
X042927Y028523D02*
X042435Y028523D01*
X042457Y028642D02*
X042927Y028642D01*
X042927Y028760D02*
X042457Y028760D01*
X042418Y028879D02*
X042927Y028879D01*
X042927Y028998D02*
X042356Y028998D01*
X042237Y029116D02*
X042927Y029116D01*
X042927Y029235D02*
X042218Y029235D01*
X042345Y029353D02*
X042927Y029353D01*
X042927Y029472D02*
X042413Y029472D01*
X042457Y029590D02*
X042927Y029590D01*
X042927Y029709D02*
X042457Y029709D01*
X042439Y029827D02*
X042927Y029827D01*
X042927Y029946D02*
X042390Y029946D01*
X042289Y030064D02*
X042927Y030064D01*
X042927Y030183D02*
X042094Y030183D01*
X042293Y030302D02*
X042927Y030302D01*
X042927Y030420D02*
X042392Y030420D01*
X042441Y030539D02*
X042927Y030539D01*
X042927Y030657D02*
X042457Y030657D01*
X042457Y030776D02*
X042927Y030776D01*
X042927Y030894D02*
X042412Y030894D01*
X042341Y031013D02*
X042927Y031013D01*
X042927Y031131D02*
X042208Y031131D01*
X042241Y031250D02*
X042927Y031250D01*
X042927Y031368D02*
X042360Y031368D01*
X042420Y031487D02*
X042927Y031487D01*
X042927Y031606D02*
X042457Y031606D01*
X042457Y031724D02*
X042927Y031724D01*
X042927Y031843D02*
X042433Y031843D01*
X042384Y031961D02*
X042927Y031961D01*
X042927Y032080D02*
X042274Y032080D01*
X042047Y032198D02*
X042927Y032198D01*
X042927Y032791D02*
X034197Y032791D01*
X033883Y032909D02*
X042927Y032909D01*
X042927Y033028D02*
X033764Y033028D01*
X033646Y033147D02*
X042927Y033147D01*
X042927Y033265D02*
X041565Y033265D01*
X041690Y033310D02*
X041362Y033191D01*
X041362Y033191D01*
X041239Y033191D01*
X041239Y033191D01*
X041203Y033191D01*
X041187Y033191D01*
X041135Y033191D01*
X041135Y033191D01*
X041013Y033191D01*
X041012Y033191D01*
X040684Y033310D01*
X040684Y033310D01*
X040417Y033535D01*
X040417Y033535D01*
X040242Y033837D01*
X040242Y033837D01*
X040182Y034181D01*
X040182Y034181D01*
X040242Y034525D01*
X040242Y034525D01*
X040417Y034827D01*
X040417Y034827D01*
X040417Y034827D01*
X040684Y035051D01*
X040684Y035051D01*
X041012Y035171D01*
X041013Y035171D01*
X041135Y035171D01*
X041135Y035171D01*
X041185Y035171D01*
X041187Y035171D01*
X041239Y035171D01*
X041239Y035171D01*
X041362Y035171D01*
X041690Y035051D01*
X041957Y034827D01*
X041957Y034827D01*
X042132Y034525D01*
X042132Y034525D01*
X042192Y034181D01*
X042192Y034181D01*
X042132Y033837D01*
X042132Y033837D01*
X041957Y033535D01*
X041957Y033535D01*
X041957Y033535D01*
X041690Y033310D01*
X041690Y033310D01*
X041777Y033384D02*
X042927Y033384D01*
X042927Y033502D02*
X041918Y033502D01*
X042007Y033621D02*
X042927Y033621D01*
X042927Y033739D02*
X042075Y033739D01*
X042135Y033858D02*
X042927Y033858D01*
X042927Y033976D02*
X042156Y033976D01*
X042177Y034095D02*
X042927Y034095D01*
X042927Y034213D02*
X042187Y034213D01*
X042166Y034332D02*
X042927Y034332D01*
X042927Y034451D02*
X042145Y034451D01*
X042106Y034569D02*
X042927Y034569D01*
X042927Y034688D02*
X042038Y034688D01*
X041969Y034806D02*
X042919Y034806D01*
X042894Y034925D02*
X041841Y034925D01*
X041699Y035043D02*
X042863Y035043D01*
X042829Y035162D02*
X041387Y035162D01*
X040988Y035162D02*
X012797Y035162D01*
X012797Y035192D02*
X012704Y035416D01*
X012533Y035588D01*
X012308Y035681D01*
X012066Y035681D01*
X011842Y035588D01*
X011670Y035416D01*
X011577Y035192D01*
X011577Y034170D01*
X011670Y033945D01*
X011842Y033774D01*
X012066Y033681D01*
X012308Y033681D01*
X012533Y033774D01*
X012704Y033945D01*
X012797Y034170D01*
X012797Y035192D01*
X012761Y035280D02*
X042761Y035280D01*
X042692Y035399D02*
X012711Y035399D01*
X012603Y035517D02*
X042589Y035517D01*
X042471Y035636D02*
X012417Y035636D01*
X011957Y035636D02*
X010417Y035636D01*
X010308Y035681D02*
X010066Y035681D01*
X009842Y035588D01*
X009670Y035416D01*
X009577Y035192D01*
X009577Y034170D01*
X009670Y033945D01*
X009842Y033774D01*
X010066Y033681D01*
X010308Y033681D01*
X010533Y033774D01*
X010704Y033945D01*
X010797Y034170D01*
X010797Y035192D01*
X010704Y035416D01*
X010533Y035588D01*
X010308Y035681D01*
X010603Y035517D02*
X011771Y035517D01*
X011663Y035399D02*
X010711Y035399D01*
X010761Y035280D02*
X011614Y035280D01*
X011577Y035162D02*
X010797Y035162D01*
X010797Y035043D02*
X011577Y035043D01*
X011577Y034925D02*
X010797Y034925D01*
X010797Y034806D02*
X011577Y034806D01*
X011577Y034688D02*
X010797Y034688D01*
X010797Y034569D02*
X011577Y034569D01*
X011577Y034451D02*
X010797Y034451D01*
X010797Y034332D02*
X011577Y034332D01*
X011577Y034213D02*
X010797Y034213D01*
X010766Y034095D02*
X011608Y034095D01*
X011657Y033976D02*
X010717Y033976D01*
X010617Y033858D02*
X011758Y033858D01*
X011925Y033739D02*
X010449Y033739D01*
X009925Y033739D02*
X008449Y033739D01*
X008533Y033774D02*
X008704Y033945D01*
X008797Y034170D01*
X008797Y035192D01*
X008704Y035416D01*
X008533Y035588D01*
X008308Y035681D01*
X008066Y035681D01*
X007842Y035588D01*
X007670Y035416D01*
X007577Y035192D01*
X007577Y034170D01*
X007670Y033945D01*
X007842Y033774D01*
X008066Y033681D01*
X008308Y033681D01*
X008533Y033774D01*
X008617Y033858D02*
X009758Y033858D01*
X009657Y033976D02*
X008717Y033976D01*
X008766Y034095D02*
X009608Y034095D01*
X009577Y034213D02*
X008797Y034213D01*
X008797Y034332D02*
X009577Y034332D01*
X009577Y034451D02*
X008797Y034451D01*
X008797Y034569D02*
X009577Y034569D01*
X009577Y034688D02*
X008797Y034688D01*
X008797Y034806D02*
X009577Y034806D01*
X009577Y034925D02*
X008797Y034925D01*
X008797Y035043D02*
X009577Y035043D01*
X009577Y035162D02*
X008797Y035162D01*
X008761Y035280D02*
X009614Y035280D01*
X009663Y035399D02*
X008711Y035399D01*
X008603Y035517D02*
X009771Y035517D01*
X009957Y035636D02*
X008417Y035636D01*
X007957Y035636D02*
X002404Y035636D01*
X002285Y035517D02*
X007771Y035517D01*
X007663Y035399D02*
X002182Y035399D01*
X002114Y035280D02*
X007614Y035280D01*
X007577Y035162D02*
X003887Y035162D01*
X003862Y035171D02*
X003862Y035171D01*
X004190Y035051D01*
X004190Y035051D01*
X004457Y034827D01*
X004457Y034827D01*
X004632Y034525D01*
X004632Y034525D01*
X004692Y034181D01*
X004692Y034181D01*
X004632Y033837D01*
X004632Y033837D01*
X004457Y033535D01*
X004457Y033535D01*
X004457Y033535D01*
X004190Y033310D01*
X004190Y033310D01*
X003862Y033191D01*
X003862Y033191D01*
X003739Y033191D01*
X003739Y033191D01*
X003703Y033191D01*
X003687Y033191D01*
X003635Y033191D01*
X003635Y033191D01*
X003513Y033191D01*
X003512Y033191D01*
X003184Y033310D01*
X003184Y033310D01*
X002917Y033535D01*
X002917Y033535D01*
X002742Y033837D01*
X002742Y033837D01*
X002682Y034181D01*
X002682Y034181D01*
X002742Y034525D01*
X002742Y034525D01*
X002917Y034827D01*
X002917Y034827D01*
X002917Y034827D01*
X003184Y035051D01*
X003184Y035051D01*
X003513Y035171D01*
X003635Y035171D01*
X003635Y035171D01*
X003687Y035171D01*
X003732Y035171D01*
X003739Y035171D01*
X003739Y035171D01*
X003862Y035171D01*
X004199Y035043D02*
X007577Y035043D01*
X007577Y034925D02*
X004341Y034925D01*
X004469Y034806D02*
X007577Y034806D01*
X007577Y034688D02*
X004538Y034688D01*
X004606Y034569D02*
X007577Y034569D01*
X007577Y034451D02*
X004645Y034451D01*
X004666Y034332D02*
X007577Y034332D01*
X007577Y034213D02*
X004687Y034213D01*
X004677Y034095D02*
X007608Y034095D01*
X007657Y033976D02*
X004656Y033976D01*
X004635Y033858D02*
X007758Y033858D01*
X007925Y033739D02*
X004575Y033739D01*
X004507Y033621D02*
X014653Y033621D01*
X014771Y033739D02*
X012449Y033739D01*
X012617Y033858D02*
X014890Y033858D01*
X015066Y033976D02*
X012717Y033976D01*
X012766Y034095D02*
X040197Y034095D01*
X040188Y034213D02*
X012797Y034213D01*
X012797Y034332D02*
X040209Y034332D01*
X040229Y034451D02*
X012797Y034451D01*
X012797Y034569D02*
X040268Y034569D01*
X040337Y034688D02*
X012797Y034688D01*
X012797Y034806D02*
X040405Y034806D01*
X040533Y034925D02*
X012797Y034925D01*
X012797Y035043D02*
X040675Y035043D01*
X040218Y033976D02*
X032758Y033976D01*
X032934Y033858D02*
X040239Y033858D01*
X040299Y033739D02*
X033053Y033739D01*
X032941Y033851D02*
X032941Y033851D01*
X033171Y033621D02*
X040367Y033621D01*
X040456Y033502D02*
X033290Y033502D01*
X033409Y033384D02*
X040597Y033384D01*
X040809Y033265D02*
X033527Y033265D01*
X032679Y033265D02*
X031027Y033265D01*
X031264Y033028D02*
X032165Y033028D01*
X032058Y032909D02*
X031383Y032909D01*
X031501Y032791D02*
X032008Y032791D01*
X031844Y029590D02*
X033153Y029590D01*
X033272Y029472D02*
X032016Y029472D01*
X032090Y029353D02*
X033391Y029353D01*
X033509Y029235D02*
X032125Y029235D01*
X032125Y029116D02*
X033628Y029116D01*
X033746Y028998D02*
X032085Y028998D01*
X032005Y028879D02*
X033865Y028879D01*
X033983Y028760D02*
X031987Y028760D01*
X031987Y028642D02*
X034102Y028642D01*
X034220Y028523D02*
X031946Y028523D01*
X031835Y028405D02*
X034339Y028405D01*
X034457Y028286D02*
X031717Y028286D01*
X031625Y028168D02*
X034576Y028168D01*
X034695Y028049D02*
X034438Y028049D01*
X034557Y027931D02*
X034813Y027931D01*
X034932Y027812D02*
X034607Y027812D01*
X034625Y027694D02*
X035050Y027694D01*
X035169Y027575D02*
X034717Y027575D01*
X034836Y027456D02*
X035287Y027456D01*
X033936Y028049D02*
X031607Y028049D01*
X031556Y027931D02*
X033817Y027931D01*
X033767Y027812D02*
X031438Y027812D01*
X031224Y028642D02*
X022572Y028642D01*
X022691Y028760D02*
X030557Y028760D01*
X030369Y028879D02*
X022809Y028879D01*
X021687Y030181D02*
X021187Y030681D01*
X020887Y030657D02*
X020635Y030657D01*
X020754Y030539D02*
X020921Y030539D01*
X020872Y030420D02*
X021024Y030420D01*
X020991Y030302D02*
X021142Y030302D01*
X021109Y030183D02*
X021261Y030183D01*
X020735Y029709D02*
X020583Y029709D01*
X020616Y029827D02*
X020465Y029827D01*
X020498Y029946D02*
X020346Y029946D01*
X020379Y030064D02*
X020228Y030064D01*
X020261Y030183D02*
X020109Y030183D01*
X020142Y030302D02*
X019991Y030302D01*
X020024Y030420D02*
X019872Y030420D01*
X019921Y030539D02*
X019754Y030539D01*
X019635Y030657D02*
X019887Y030657D01*
X019887Y030776D02*
X019516Y030776D01*
X019398Y030894D02*
X019887Y030894D01*
X019887Y031013D02*
X019279Y031013D01*
X019161Y031131D02*
X019887Y031131D01*
X019887Y031250D02*
X019421Y031250D01*
X019539Y031368D02*
X019835Y031368D01*
X019717Y031487D02*
X019657Y031487D01*
X019657Y031606D02*
X019717Y031606D01*
X019717Y031724D02*
X019657Y031724D01*
X019657Y031843D02*
X019717Y031843D01*
X019803Y031961D02*
X019571Y031961D01*
X019453Y032080D02*
X019921Y032080D01*
X020453Y032080D02*
X020921Y032080D01*
X020803Y031961D02*
X020571Y031961D01*
X020657Y031843D02*
X020717Y031843D01*
X020717Y031724D02*
X020657Y031724D01*
X020657Y031606D02*
X020717Y031606D01*
X020717Y031487D02*
X020657Y031487D01*
X020539Y031368D02*
X020835Y031368D01*
X020887Y031250D02*
X020487Y031250D01*
X020487Y031131D02*
X020887Y031131D01*
X020887Y031013D02*
X020487Y031013D01*
X020487Y030894D02*
X020887Y030894D01*
X020887Y030776D02*
X020517Y030776D01*
X020702Y029590D02*
X020750Y029590D01*
X019802Y028642D02*
X012900Y028642D01*
X012782Y028760D02*
X019683Y028760D01*
X019565Y028879D02*
X012663Y028879D01*
X012545Y028998D02*
X019446Y028998D01*
X019328Y029116D02*
X012426Y029116D01*
X012308Y029235D02*
X019209Y029235D01*
X019091Y029353D02*
X012189Y029353D01*
X012071Y029472D02*
X018972Y029472D01*
X018853Y029590D02*
X011952Y029590D01*
X011833Y029709D02*
X018735Y029709D01*
X018616Y029827D02*
X011715Y029827D01*
X011596Y029946D02*
X018498Y029946D01*
X018379Y030064D02*
X011478Y030064D01*
X011359Y030183D02*
X018261Y030183D01*
X018142Y030302D02*
X011241Y030302D01*
X011122Y030420D02*
X018024Y030420D01*
X017905Y030539D02*
X011004Y030539D01*
X010885Y030657D02*
X017787Y030657D01*
X017668Y030776D02*
X010767Y030776D01*
X010648Y030894D02*
X017549Y030894D01*
X017431Y031013D02*
X010529Y031013D01*
X010411Y031131D02*
X017312Y031131D01*
X016953Y031250D02*
X016421Y031250D01*
X016382Y031211D02*
X016657Y031486D01*
X016657Y031876D01*
X016382Y032151D01*
X015992Y032151D01*
X015717Y031876D01*
X015717Y031486D01*
X015992Y031211D01*
X016382Y031211D01*
X016539Y031368D02*
X016835Y031368D01*
X016717Y031487D02*
X016657Y031487D01*
X016657Y031606D02*
X016717Y031606D01*
X016717Y031724D02*
X016657Y031724D01*
X016657Y031843D02*
X016717Y031843D01*
X016803Y031961D02*
X016571Y031961D01*
X016453Y032080D02*
X016921Y032080D01*
X017280Y032198D02*
X015129Y032198D01*
X015247Y032317D02*
X017399Y032317D01*
X017517Y032435D02*
X015366Y032435D01*
X015484Y032554D02*
X017636Y032554D01*
X017754Y032672D02*
X015603Y032672D01*
X015721Y032791D02*
X017873Y032791D01*
X018453Y032080D02*
X018921Y032080D01*
X018803Y031961D02*
X018571Y031961D01*
X018657Y031843D02*
X018717Y031843D01*
X018717Y031724D02*
X018657Y031724D01*
X018687Y031606D02*
X018717Y031606D01*
X015953Y031250D02*
X015421Y031250D01*
X015539Y031368D02*
X015835Y031368D01*
X015717Y031487D02*
X015657Y031487D01*
X015657Y031606D02*
X015717Y031606D01*
X015717Y031724D02*
X015657Y031724D01*
X015657Y031843D02*
X015717Y031843D01*
X015803Y031961D02*
X015571Y031961D01*
X015453Y032080D02*
X015921Y032080D01*
X014953Y031250D02*
X014421Y031250D01*
X014539Y031368D02*
X014835Y031368D01*
X014717Y031487D02*
X014657Y031487D01*
X014657Y031606D02*
X014717Y031606D01*
X014717Y031724D02*
X014657Y031724D01*
X014280Y032198D02*
X008429Y032198D01*
X008547Y032317D02*
X014399Y032317D01*
X014517Y032435D02*
X008666Y032435D01*
X008784Y032554D02*
X014636Y032554D01*
X014547Y032672D02*
X014754Y032672D01*
X014671Y032791D02*
X014873Y032791D01*
X014790Y032909D02*
X014991Y032909D01*
X014908Y033028D02*
X015110Y033028D01*
X015027Y033147D02*
X015229Y033147D01*
X015146Y033265D02*
X015347Y033265D01*
X014534Y033502D02*
X004418Y033502D01*
X004277Y033384D02*
X014416Y033384D01*
X014297Y033265D02*
X004065Y033265D01*
X003309Y033265D02*
X001947Y033265D01*
X001947Y033147D02*
X008528Y033147D01*
X008410Y033028D02*
X001947Y033028D01*
X001947Y032909D02*
X008291Y032909D01*
X008173Y032791D02*
X001947Y032791D01*
X001947Y032672D02*
X008054Y032672D01*
X007936Y032554D02*
X001947Y032554D01*
X001947Y032435D02*
X007817Y032435D01*
X007699Y032317D02*
X001947Y032317D01*
X001947Y032198D02*
X007580Y032198D01*
X007171Y032080D02*
X005703Y032080D01*
X005632Y032151D02*
X005242Y032151D01*
X004967Y031876D01*
X004967Y031486D01*
X005242Y031211D01*
X005483Y031211D01*
X009433Y027261D01*
X009517Y027177D01*
X009627Y027131D01*
X012117Y027131D01*
X012189Y027060D01*
X012350Y026993D01*
X012524Y026993D01*
X012685Y027060D01*
X012808Y027183D01*
X012875Y027344D01*
X012875Y027518D01*
X012808Y027679D01*
X012685Y027802D01*
X012524Y027869D01*
X012350Y027869D01*
X012189Y027802D01*
X012117Y027731D01*
X009811Y027731D01*
X005907Y031635D01*
X005907Y031876D01*
X005632Y032151D01*
X005821Y031961D02*
X006166Y031961D01*
X006276Y032071D02*
X006047Y031842D01*
X006047Y031700D01*
X006418Y031700D01*
X006418Y032071D01*
X006276Y032071D01*
X006418Y031961D02*
X006456Y031961D01*
X006456Y032071D02*
X006456Y031700D01*
X006418Y031700D01*
X006418Y031662D01*
X006047Y031662D01*
X006047Y031519D01*
X006276Y031291D01*
X006418Y031291D01*
X006418Y031662D01*
X006456Y031662D01*
X006456Y031700D01*
X006827Y031700D01*
X006827Y031842D01*
X006599Y032071D01*
X006456Y032071D01*
X006456Y031843D02*
X006418Y031843D01*
X006418Y031724D02*
X006456Y031724D01*
X006456Y031662D02*
X006827Y031662D01*
X006827Y031519D01*
X006599Y031291D01*
X006456Y031291D01*
X006456Y031662D01*
X006456Y031606D02*
X006418Y031606D01*
X006418Y031487D02*
X006456Y031487D01*
X006456Y031368D02*
X006418Y031368D01*
X006292Y031250D02*
X007203Y031250D01*
X007085Y031368D02*
X006676Y031368D01*
X006795Y031487D02*
X006967Y031487D01*
X006967Y031606D02*
X006827Y031606D01*
X006827Y031724D02*
X006967Y031724D01*
X006967Y031843D02*
X006827Y031843D01*
X006708Y031961D02*
X007053Y031961D01*
X007907Y031606D02*
X007967Y031606D01*
X007954Y031724D02*
X007967Y031724D01*
X007967Y031487D02*
X007907Y031487D01*
X007789Y031368D02*
X008085Y031368D01*
X008203Y031250D02*
X007671Y031250D01*
X007004Y030539D02*
X010155Y030539D01*
X010037Y030657D02*
X006885Y030657D01*
X006766Y030776D02*
X009918Y030776D01*
X009799Y030894D02*
X006648Y030894D01*
X006529Y031013D02*
X009681Y031013D01*
X009562Y031131D02*
X006411Y031131D01*
X006198Y031368D02*
X006174Y031368D01*
X006080Y031487D02*
X006055Y031487D01*
X006047Y031606D02*
X005937Y031606D01*
X005907Y031724D02*
X006047Y031724D01*
X006047Y031843D02*
X005907Y031843D01*
X005171Y032080D02*
X001947Y032080D01*
X001947Y031961D02*
X005053Y031961D01*
X004967Y031843D02*
X001947Y031843D01*
X001947Y031724D02*
X004967Y031724D01*
X004967Y031606D02*
X001947Y031606D01*
X001947Y031487D02*
X004967Y031487D01*
X005085Y031368D02*
X001947Y031368D01*
X001947Y031250D02*
X005203Y031250D01*
X005562Y031131D02*
X001947Y031131D01*
X001947Y031013D02*
X005681Y031013D01*
X005800Y030894D02*
X001947Y030894D01*
X001947Y030776D02*
X005918Y030776D01*
X006037Y030657D02*
X001947Y030657D01*
X001947Y030539D02*
X006155Y030539D01*
X006274Y030420D02*
X001947Y030420D01*
X001947Y030302D02*
X006392Y030302D01*
X006511Y030183D02*
X001947Y030183D01*
X001947Y030064D02*
X006629Y030064D01*
X006748Y029946D02*
X001947Y029946D01*
X001947Y029827D02*
X006866Y029827D01*
X006985Y029709D02*
X001947Y029709D01*
X001947Y029590D02*
X007104Y029590D01*
X007222Y029472D02*
X001947Y029472D01*
X001947Y029353D02*
X007341Y029353D01*
X007459Y029235D02*
X001947Y029235D01*
X001947Y029116D02*
X007578Y029116D01*
X007696Y028998D02*
X001947Y028998D01*
X001947Y028879D02*
X007815Y028879D01*
X007933Y028760D02*
X001947Y028760D01*
X001947Y028642D02*
X008052Y028642D01*
X008170Y028523D02*
X001947Y028523D01*
X001947Y028405D02*
X008289Y028405D01*
X008407Y028286D02*
X001947Y028286D01*
X001947Y028168D02*
X008526Y028168D01*
X008645Y028049D02*
X001947Y028049D01*
X001947Y027931D02*
X008763Y027931D01*
X008882Y027812D02*
X001947Y027812D01*
X001947Y027694D02*
X009000Y027694D01*
X009119Y027575D02*
X001947Y027575D01*
X001947Y027456D02*
X009237Y027456D01*
X009356Y027338D02*
X001947Y027338D01*
X001947Y027219D02*
X009474Y027219D01*
X009433Y027261D02*
X009433Y027261D01*
X009730Y027812D02*
X012213Y027812D01*
X012662Y027812D02*
X016132Y027812D01*
X016250Y027694D02*
X015785Y027694D01*
X015939Y027575D02*
X016369Y027575D01*
X016387Y027456D02*
X016057Y027456D01*
X016175Y027338D02*
X016387Y027338D01*
X016387Y027219D02*
X016217Y027219D01*
X016217Y027101D02*
X016387Y027101D01*
X016387Y026982D02*
X016217Y026982D01*
X016217Y026864D02*
X016387Y026864D01*
X016387Y026745D02*
X016217Y026745D01*
X016217Y026627D02*
X016387Y026627D01*
X016387Y026508D02*
X016217Y026508D01*
X016217Y026390D02*
X016387Y026390D01*
X016387Y026271D02*
X016217Y026271D01*
X016217Y026153D02*
X016387Y026153D01*
X016321Y026034D02*
X016217Y026034D01*
X016217Y025915D02*
X016269Y025915D01*
X016249Y025797D02*
X016217Y025797D01*
X016217Y025678D02*
X016255Y025678D01*
X016217Y025560D02*
X016304Y025560D01*
X016387Y025441D02*
X016217Y025441D01*
X016217Y025323D02*
X016387Y025323D01*
X016387Y025204D02*
X016217Y025204D01*
X016217Y025086D02*
X016387Y025086D01*
X016387Y024967D02*
X016217Y024967D01*
X016217Y024849D02*
X016387Y024849D01*
X016387Y024730D02*
X016258Y024730D01*
X016336Y024611D02*
X016387Y024611D01*
X016375Y024493D02*
X016387Y024493D01*
X016375Y024374D02*
X016387Y024374D01*
X016366Y024256D02*
X016339Y024256D01*
X016687Y024181D02*
X016187Y023681D01*
X014687Y023681D01*
X014187Y024181D01*
X014187Y025681D01*
X013711Y025323D02*
X013550Y025323D01*
X013431Y025204D02*
X013829Y025204D01*
X013907Y025086D02*
X011987Y025086D01*
X011987Y025204D02*
X012943Y025204D01*
X012824Y025323D02*
X011987Y025323D01*
X011987Y025441D02*
X012706Y025441D01*
X012677Y025560D02*
X011987Y025560D01*
X011987Y025678D02*
X013147Y025678D01*
X013147Y025560D02*
X013227Y025560D01*
X013227Y025441D02*
X013147Y025441D01*
X013147Y025323D02*
X013227Y025323D01*
X013227Y025204D02*
X013147Y025204D01*
X013092Y024611D02*
X013907Y024611D01*
X013907Y024493D02*
X013295Y024493D01*
X013381Y024374D02*
X013907Y024374D01*
X013907Y024256D02*
X013425Y024256D01*
X013427Y024137D02*
X013907Y024137D01*
X013953Y024019D02*
X013545Y024019D01*
X013664Y023900D02*
X014072Y023900D01*
X014190Y023782D02*
X013782Y023782D01*
X013901Y023663D02*
X014309Y023663D01*
X014427Y023545D02*
X014019Y023545D01*
X014138Y023426D02*
X014571Y023426D01*
X014375Y023189D02*
X016299Y023189D01*
X016181Y023070D02*
X015517Y023070D01*
X015620Y022952D02*
X016062Y022952D01*
X015944Y022833D02*
X015669Y022833D01*
X015675Y022715D02*
X015825Y022715D01*
X015706Y022596D02*
X015655Y022596D01*
X015687Y022181D02*
X017187Y023681D01*
X016749Y023663D02*
X016565Y023663D01*
X016655Y023545D02*
X016447Y023545D01*
X016536Y023426D02*
X016303Y023426D01*
X016418Y023307D02*
X014256Y023307D01*
X014494Y023070D02*
X014957Y023070D01*
X015237Y022731D02*
X014437Y022731D01*
X012987Y024181D01*
X012679Y024493D02*
X011987Y024493D01*
X011987Y024611D02*
X012882Y024611D01*
X012593Y024374D02*
X011987Y024374D01*
X011987Y024256D02*
X012549Y024256D01*
X012549Y024137D02*
X011987Y024137D01*
X011987Y024019D02*
X012580Y024019D01*
X012648Y023900D02*
X011987Y023900D01*
X011987Y023782D02*
X012806Y023782D01*
X013109Y023663D02*
X011987Y023663D01*
X011987Y023545D02*
X013228Y023545D01*
X013346Y023426D02*
X011987Y023426D01*
X011987Y023307D02*
X013465Y023307D01*
X013583Y023189D02*
X011987Y023189D01*
X011966Y023070D02*
X013702Y023070D01*
X013820Y022952D02*
X011882Y022952D01*
X011764Y022833D02*
X012014Y022833D01*
X011851Y022715D02*
X011645Y022715D01*
X011637Y022596D02*
X011781Y022596D01*
X011749Y022478D02*
X011637Y022478D01*
X011637Y022359D02*
X011749Y022359D01*
X011792Y022241D02*
X011702Y022241D01*
X011820Y022122D02*
X011876Y022122D01*
X011939Y022004D02*
X012074Y022004D01*
X011987Y021885D02*
X015795Y021885D01*
X015906Y022004D02*
X015914Y022004D01*
X016024Y022122D02*
X016032Y022122D01*
X016143Y022241D02*
X016151Y022241D01*
X016261Y022359D02*
X016269Y022359D01*
X016380Y022478D02*
X016388Y022478D01*
X016498Y022596D02*
X016506Y022596D01*
X016617Y022715D02*
X016625Y022715D01*
X016735Y022833D02*
X016744Y022833D01*
X016854Y022952D02*
X016862Y022952D01*
X016972Y023070D02*
X016981Y023070D01*
X017091Y023189D02*
X017099Y023189D01*
X016755Y023782D02*
X016684Y023782D01*
X016802Y023900D02*
X016804Y023900D01*
X016987Y024137D02*
X018719Y024137D01*
X018601Y024019D02*
X018146Y024019D01*
X018287Y023900D02*
X018482Y023900D01*
X018364Y023782D02*
X018349Y023782D01*
X017937Y023631D02*
X015487Y021181D01*
X014887Y021181D01*
X014449Y021174D02*
X014437Y021174D01*
X014437Y021060D02*
X014437Y021302D01*
X014344Y021526D01*
X014173Y021698D01*
X013948Y021791D01*
X012926Y021791D01*
X012702Y021698D01*
X012530Y021526D01*
X012437Y021302D01*
X012437Y021060D01*
X012530Y020835D01*
X012562Y020803D01*
X012439Y020752D01*
X012316Y020629D01*
X012249Y020468D01*
X012249Y020294D01*
X012316Y020133D01*
X012439Y020010D01*
X012511Y019980D01*
X012437Y019802D01*
X012437Y019560D01*
X012530Y019335D01*
X012702Y019164D01*
X012926Y019071D01*
X013948Y019071D01*
X014173Y019164D01*
X014344Y019335D01*
X014437Y019560D01*
X014437Y019802D01*
X014344Y020026D01*
X014290Y020081D01*
X020367Y020081D01*
X020439Y020010D01*
X020600Y019943D01*
X020774Y019943D01*
X020935Y020010D01*
X021058Y020133D01*
X021125Y020294D01*
X021125Y020468D01*
X021058Y020629D01*
X020935Y020752D01*
X020774Y020819D01*
X020600Y020819D01*
X020439Y020752D01*
X020367Y020681D01*
X014190Y020681D01*
X014344Y020835D01*
X014437Y021060D01*
X014435Y021055D02*
X014465Y021055D01*
X014514Y020937D02*
X014386Y020937D01*
X014327Y020818D02*
X014630Y020818D01*
X014208Y020700D02*
X020386Y020700D01*
X020444Y020818D02*
X020598Y020818D01*
X020560Y020937D02*
X021007Y020937D01*
X020889Y021055D02*
X020609Y021055D01*
X020625Y021174D02*
X020770Y021174D01*
X020776Y020818D02*
X022630Y020818D01*
X022508Y020581D02*
X021078Y020581D01*
X021125Y020462D02*
X022349Y020462D01*
X022280Y020344D02*
X021125Y020344D01*
X021097Y020225D02*
X022249Y020225D01*
X022189Y020107D02*
X021033Y020107D01*
X020884Y019988D02*
X022070Y019988D01*
X021952Y019870D02*
X014409Y019870D01*
X014437Y019751D02*
X021833Y019751D01*
X021715Y019633D02*
X014437Y019633D01*
X014418Y019514D02*
X021401Y019514D01*
X021302Y019396D02*
X014369Y019396D01*
X014286Y019277D02*
X021253Y019277D01*
X021249Y019158D02*
X014160Y019158D01*
X014360Y019988D02*
X020490Y019988D01*
X020988Y020700D02*
X024637Y020700D01*
X024637Y020818D02*
X023944Y020818D01*
X024060Y020937D02*
X024637Y020937D01*
X024637Y021055D02*
X024109Y021055D01*
X024125Y021174D02*
X024637Y021174D01*
X024637Y021292D02*
X024115Y021292D01*
X024066Y021411D02*
X024533Y021411D01*
X024414Y021529D02*
X023958Y021529D01*
X024177Y021766D02*
X023526Y021766D01*
X023644Y021648D02*
X024296Y021648D01*
X024059Y021885D02*
X023407Y021885D01*
X023289Y022004D02*
X023940Y022004D01*
X023822Y022122D02*
X023170Y022122D01*
X023052Y022241D02*
X023703Y022241D01*
X023585Y022359D02*
X022933Y022359D01*
X022815Y022478D02*
X023466Y022478D01*
X023348Y022596D02*
X022696Y022596D01*
X022577Y022715D02*
X023229Y022715D01*
X023110Y022833D02*
X022459Y022833D01*
X022340Y022952D02*
X022992Y022952D01*
X022873Y023070D02*
X022222Y023070D01*
X022103Y023189D02*
X022755Y023189D01*
X022636Y023307D02*
X021985Y023307D01*
X021866Y023426D02*
X022518Y023426D01*
X022399Y023545D02*
X021748Y023545D01*
X021629Y023663D02*
X022281Y023663D01*
X022162Y023782D02*
X021511Y023782D01*
X021487Y023900D02*
X022044Y023900D01*
X021925Y024019D02*
X021487Y024019D01*
X021487Y024137D02*
X021806Y024137D01*
X021688Y024256D02*
X021487Y024256D01*
X021487Y024374D02*
X021569Y024374D01*
X022062Y024730D02*
X026749Y024730D01*
X026749Y024611D02*
X022181Y024611D01*
X022299Y024493D02*
X026791Y024493D01*
X026874Y024374D02*
X022418Y024374D01*
X022536Y024256D02*
X026887Y024256D01*
X026887Y024137D02*
X022655Y024137D01*
X022774Y024019D02*
X026887Y024019D01*
X026887Y023900D02*
X022892Y023900D01*
X023011Y023782D02*
X026887Y023782D01*
X026887Y023663D02*
X023129Y023663D01*
X023248Y023545D02*
X026887Y023545D01*
X026887Y023426D02*
X023366Y023426D01*
X023485Y023307D02*
X026887Y023307D01*
X026887Y023189D02*
X023603Y023189D01*
X023722Y023070D02*
X026887Y023070D01*
X026887Y022952D02*
X023840Y022952D01*
X023959Y022833D02*
X026887Y022833D01*
X026887Y022715D02*
X024077Y022715D01*
X024196Y022596D02*
X026887Y022596D01*
X026887Y022478D02*
X024315Y022478D01*
X024433Y022359D02*
X026887Y022359D01*
X026887Y022241D02*
X024552Y022241D01*
X024670Y022122D02*
X026887Y022122D01*
X026887Y022004D02*
X024789Y022004D01*
X024907Y021885D02*
X026887Y021885D01*
X026887Y021766D02*
X025026Y021766D01*
X025144Y021648D02*
X026887Y021648D01*
X026887Y021529D02*
X025221Y021529D01*
X025237Y021411D02*
X026887Y021411D01*
X026887Y021292D02*
X025237Y021292D01*
X025237Y021174D02*
X026887Y021174D01*
X026887Y021055D02*
X025237Y021055D01*
X025237Y020937D02*
X026887Y020937D01*
X026887Y020818D02*
X025237Y020818D01*
X025237Y020700D02*
X026887Y020700D01*
X026887Y020581D02*
X025237Y020581D01*
X025237Y020462D02*
X026887Y020462D01*
X026887Y020344D02*
X025237Y020344D01*
X025237Y020225D02*
X026887Y020225D01*
X026887Y020107D02*
X025318Y020107D01*
X025367Y019988D02*
X026887Y019988D01*
X026887Y019870D02*
X025375Y019870D01*
X025375Y019794D02*
X025308Y019633D01*
X025190Y019514D02*
X026887Y019514D01*
X026887Y019396D02*
X022326Y019396D01*
X022207Y019277D02*
X026859Y019277D01*
X026740Y019158D02*
X022125Y019158D01*
X022103Y019040D02*
X026622Y019040D01*
X024689Y019510D02*
X024566Y019633D01*
X024517Y019751D02*
X022794Y019751D01*
X022995Y019870D02*
X024499Y019870D01*
X024507Y019988D02*
X023081Y019988D01*
X023125Y020107D02*
X024556Y020107D01*
X024637Y020225D02*
X023125Y020225D01*
X023094Y020344D02*
X024637Y020344D01*
X024637Y020462D02*
X023025Y020462D01*
X022866Y020581D02*
X024637Y020581D01*
X023430Y020818D02*
X023144Y020818D01*
X023260Y020937D02*
X023314Y020937D01*
X021687Y019181D02*
X021187Y018681D01*
X005687Y018681D01*
X004187Y020181D01*
X004187Y023681D01*
X004687Y024181D01*
X008187Y024181D01*
X008594Y024019D02*
X008925Y024019D01*
X008806Y024137D02*
X008625Y024137D01*
X008625Y024256D02*
X008688Y024256D01*
X008526Y023900D02*
X009081Y023900D01*
X008368Y023782D02*
X010356Y023782D01*
X010718Y023782D02*
X011387Y023782D01*
X011387Y023900D02*
X010876Y023900D01*
X010944Y024019D02*
X011387Y024019D01*
X011387Y024137D02*
X010975Y024137D01*
X010975Y024256D02*
X011387Y024256D01*
X011387Y024374D02*
X010931Y024374D01*
X010845Y024493D02*
X011387Y024493D01*
X011387Y024611D02*
X010642Y024611D01*
X010432Y024611D02*
X010425Y024611D01*
X010425Y024730D02*
X011387Y024730D01*
X011387Y024849D02*
X010392Y024849D01*
X010320Y024967D02*
X011387Y024967D01*
X011387Y025086D02*
X010155Y025086D01*
X009888Y025204D02*
X011387Y025204D01*
X011387Y025323D02*
X009770Y025323D01*
X009651Y025441D02*
X011387Y025441D01*
X011387Y025560D02*
X009532Y025560D01*
X009414Y025678D02*
X011387Y025678D01*
X011387Y025797D02*
X009295Y025797D01*
X009177Y025915D02*
X011387Y025915D01*
X011387Y026034D02*
X009058Y026034D01*
X008940Y026153D02*
X011387Y026153D01*
X011400Y026271D02*
X008821Y026271D01*
X008703Y026390D02*
X011471Y026390D01*
X011517Y026435D02*
X011517Y026435D01*
X011590Y026508D02*
X008584Y026508D01*
X008466Y026627D02*
X011709Y026627D01*
X011827Y026745D02*
X007642Y026745D01*
X007437Y026864D02*
X011946Y026864D01*
X012148Y027101D02*
X004806Y027101D01*
X004774Y027114D02*
X004600Y027114D01*
X004439Y027048D01*
X004316Y026925D01*
X004250Y026764D01*
X004250Y026590D01*
X004316Y026429D01*
X004439Y026306D01*
X004600Y026240D01*
X004774Y026240D01*
X004935Y026306D01*
X005058Y026429D01*
X005124Y026590D01*
X005124Y026764D01*
X005058Y026925D01*
X004935Y027048D01*
X004774Y027114D01*
X004568Y027101D02*
X001947Y027101D01*
X001947Y026982D02*
X004374Y026982D01*
X004291Y026864D02*
X001947Y026864D01*
X001947Y026745D02*
X004250Y026745D01*
X004250Y026627D02*
X001947Y026627D01*
X001947Y026508D02*
X004284Y026508D01*
X004356Y026390D02*
X001947Y026390D01*
X001947Y026271D02*
X004525Y026271D01*
X004849Y026271D02*
X006929Y026271D01*
X006899Y026390D02*
X005018Y026390D01*
X005090Y026508D02*
X006899Y026508D01*
X006944Y026627D02*
X005124Y026627D01*
X005124Y026745D02*
X007032Y026745D01*
X007237Y026864D02*
X005083Y026864D01*
X005000Y026982D02*
X012654Y026982D01*
X012727Y027101D02*
X012773Y027101D01*
X012824Y027219D02*
X012891Y027219D01*
X012873Y027338D02*
X013949Y027338D01*
X013891Y027219D02*
X013483Y027219D01*
X013601Y027101D02*
X013773Y027101D01*
X014187Y027181D02*
X014187Y026681D01*
X014187Y027181D02*
X014437Y027431D01*
X015687Y027431D01*
X015937Y027181D01*
X015937Y024431D01*
X016987Y024374D02*
X018956Y024374D01*
X018838Y024256D02*
X016987Y024256D01*
X016987Y024493D02*
X019075Y024493D01*
X019193Y024611D02*
X016987Y024611D01*
X016987Y024730D02*
X019249Y024730D01*
X019282Y024849D02*
X016987Y024849D01*
X016987Y024967D02*
X019354Y024967D01*
X019519Y025086D02*
X016987Y025086D01*
X016987Y025204D02*
X019887Y025204D01*
X019887Y025086D02*
X019855Y025086D01*
X019887Y025323D02*
X016987Y025323D01*
X016987Y025441D02*
X019887Y025441D01*
X019887Y025560D02*
X017070Y025560D01*
X017119Y025678D02*
X019887Y025678D01*
X019887Y025797D02*
X017125Y025797D01*
X017106Y025915D02*
X019887Y025915D01*
X019887Y026034D02*
X017054Y026034D01*
X016987Y026153D02*
X019887Y026153D01*
X019887Y026271D02*
X016987Y026271D01*
X016987Y026390D02*
X019887Y026390D01*
X019887Y026508D02*
X016987Y026508D01*
X016987Y026627D02*
X019887Y026627D01*
X019887Y026745D02*
X016987Y026745D01*
X016987Y026864D02*
X019887Y026864D01*
X019887Y026982D02*
X016987Y026982D01*
X016987Y027101D02*
X019887Y027101D01*
X019887Y027219D02*
X016987Y027219D01*
X016987Y027338D02*
X019887Y027338D01*
X019887Y027456D02*
X016987Y027456D01*
X016987Y027575D02*
X019887Y027575D01*
X019887Y027694D02*
X016987Y027694D01*
X016957Y027812D02*
X019887Y027812D01*
X019887Y027931D02*
X016862Y027931D01*
X016857Y027935D02*
X016857Y027935D01*
X016743Y028049D02*
X019887Y028049D01*
X019887Y028168D02*
X016624Y028168D01*
X016506Y028286D02*
X019887Y028286D01*
X019887Y028405D02*
X016387Y028405D01*
X014340Y027694D02*
X012794Y027694D01*
X012852Y027575D02*
X014185Y027575D01*
X014067Y027456D02*
X012875Y027456D01*
X012763Y027931D02*
X009612Y027931D01*
X009493Y028049D02*
X012645Y028049D01*
X012526Y028168D02*
X009374Y028168D01*
X009256Y028286D02*
X012407Y028286D01*
X012289Y028405D02*
X009137Y028405D01*
X009019Y028523D02*
X012170Y028523D01*
X012052Y028642D02*
X008900Y028642D01*
X008782Y028760D02*
X011933Y028760D01*
X011815Y028879D02*
X008663Y028879D01*
X008545Y028998D02*
X011696Y028998D01*
X011578Y029116D02*
X008426Y029116D01*
X008308Y029235D02*
X011459Y029235D01*
X011341Y029353D02*
X008189Y029353D01*
X008070Y029472D02*
X011222Y029472D01*
X011103Y029590D02*
X007952Y029590D01*
X007833Y029709D02*
X010985Y029709D01*
X010866Y029827D02*
X007715Y029827D01*
X007596Y029946D02*
X010748Y029946D01*
X010629Y030064D02*
X007478Y030064D01*
X007359Y030183D02*
X010511Y030183D01*
X010392Y030302D02*
X007241Y030302D01*
X007122Y030420D02*
X010274Y030420D01*
X010671Y031250D02*
X011203Y031250D01*
X011242Y031211D02*
X011632Y031211D01*
X011907Y031486D01*
X011907Y031876D01*
X011632Y032151D01*
X011242Y032151D01*
X010967Y031876D01*
X010967Y031486D01*
X011242Y031211D01*
X011085Y031368D02*
X010789Y031368D01*
X010907Y031487D02*
X010967Y031487D01*
X010967Y031606D02*
X010907Y031606D01*
X010907Y031724D02*
X010967Y031724D01*
X010967Y031843D02*
X010907Y031843D01*
X010821Y031961D02*
X011053Y031961D01*
X011171Y032080D02*
X010703Y032080D01*
X010171Y032080D02*
X009703Y032080D01*
X009821Y031961D02*
X010053Y031961D01*
X009967Y031843D02*
X009907Y031843D01*
X009907Y031724D02*
X009967Y031724D01*
X009967Y031606D02*
X009937Y031606D01*
X009203Y031250D02*
X008671Y031250D01*
X008789Y031368D02*
X009085Y031368D01*
X008967Y031487D02*
X008907Y031487D01*
X008907Y031606D02*
X008967Y031606D01*
X008967Y031724D02*
X008907Y031724D01*
X008907Y031843D02*
X008967Y031843D01*
X009053Y031961D02*
X008821Y031961D01*
X008703Y032080D02*
X009171Y032080D01*
X011703Y032080D02*
X012171Y032080D01*
X012242Y032151D02*
X011967Y031876D01*
X011967Y031486D01*
X012242Y031211D01*
X012632Y031211D01*
X012907Y031486D01*
X012907Y031876D01*
X012632Y032151D01*
X012242Y032151D01*
X012053Y031961D02*
X011821Y031961D01*
X011907Y031843D02*
X011967Y031843D01*
X011967Y031724D02*
X011907Y031724D01*
X011907Y031606D02*
X011967Y031606D01*
X011967Y031487D02*
X011907Y031487D01*
X011789Y031368D02*
X012085Y031368D01*
X012203Y031250D02*
X011671Y031250D01*
X012671Y031250D02*
X013953Y031250D01*
X013835Y031368D02*
X012789Y031368D01*
X012907Y031487D02*
X013717Y031487D01*
X013717Y031606D02*
X012907Y031606D01*
X012907Y031724D02*
X013717Y031724D01*
X013717Y031843D02*
X012907Y031843D01*
X012821Y031961D02*
X013803Y031961D01*
X013921Y032080D02*
X012703Y032080D01*
X013019Y028523D02*
X019887Y028523D01*
X021987Y024967D02*
X026854Y024967D01*
X026782Y024849D02*
X021987Y024849D01*
X019887Y024256D02*
X019806Y024256D01*
X019887Y024137D02*
X019568Y024137D01*
X019449Y024019D02*
X019887Y024019D01*
X019887Y023900D02*
X019331Y023900D01*
X019212Y023782D02*
X019887Y023782D01*
X019887Y023663D02*
X019094Y023663D01*
X018975Y023545D02*
X019887Y023545D01*
X019887Y023426D02*
X018856Y023426D01*
X018738Y023307D02*
X019887Y023307D01*
X019887Y023189D02*
X018619Y023189D01*
X018501Y023070D02*
X019887Y023070D01*
X019887Y022952D02*
X018382Y022952D01*
X018264Y022833D02*
X019887Y022833D01*
X019887Y022715D02*
X018145Y022715D01*
X018027Y022596D02*
X019887Y022596D01*
X019864Y022478D02*
X017908Y022478D01*
X017875Y022359D02*
X019787Y022359D01*
X019749Y022241D02*
X017832Y022241D01*
X017748Y022122D02*
X019749Y022122D01*
X019786Y022004D02*
X017550Y022004D01*
X017324Y022004D02*
X016706Y022004D01*
X016824Y022122D02*
X017126Y022122D01*
X017042Y022241D02*
X016943Y022241D01*
X016587Y021885D02*
X019863Y021885D01*
X020043Y021766D02*
X016468Y021766D01*
X016350Y021648D02*
X020230Y021648D01*
X020331Y021766D02*
X020348Y021766D01*
X019916Y021529D02*
X016231Y021529D01*
X016113Y021411D02*
X019808Y021411D01*
X019759Y021292D02*
X015994Y021292D01*
X015876Y021174D02*
X019749Y021174D01*
X019765Y021055D02*
X015757Y021055D01*
X015629Y020937D02*
X019814Y020937D01*
X019930Y020818D02*
X015144Y020818D01*
X015158Y021529D02*
X015440Y021529D01*
X015558Y021648D02*
X014223Y021648D01*
X014341Y021529D02*
X014616Y021529D01*
X014508Y021411D02*
X014392Y021411D01*
X014437Y021292D02*
X014459Y021292D01*
X014008Y021766D02*
X015677Y021766D01*
X015687Y022181D02*
X012437Y022181D01*
X012187Y022431D01*
X012360Y022833D02*
X013939Y022833D01*
X014057Y022715D02*
X012523Y022715D01*
X012593Y022596D02*
X014176Y022596D01*
X014200Y022572D02*
X014200Y022572D01*
X014317Y022478D02*
X012625Y022478D01*
X012867Y021766D02*
X011987Y021766D01*
X011987Y021648D02*
X012651Y021648D01*
X012533Y021529D02*
X011987Y021529D01*
X011987Y021411D02*
X012482Y021411D01*
X012437Y021292D02*
X011987Y021292D01*
X011987Y021174D02*
X012437Y021174D01*
X012439Y021055D02*
X011987Y021055D01*
X011987Y020937D02*
X012488Y020937D01*
X012547Y020818D02*
X011987Y020818D01*
X011987Y020700D02*
X012386Y020700D01*
X012296Y020581D02*
X011987Y020581D01*
X011987Y020462D02*
X012249Y020462D01*
X012249Y020344D02*
X011987Y020344D01*
X011987Y020225D02*
X012277Y020225D01*
X012342Y020107D02*
X011981Y020107D01*
X011919Y019988D02*
X012490Y019988D01*
X012465Y019870D02*
X011772Y019870D01*
X011653Y019751D02*
X012437Y019751D01*
X012437Y019633D02*
X011631Y019633D01*
X011973Y019514D02*
X012456Y019514D01*
X012505Y019396D02*
X012072Y019396D01*
X012121Y019277D02*
X012588Y019277D01*
X012714Y019158D02*
X012125Y019158D01*
X012103Y019040D02*
X021150Y019040D01*
X021586Y018684D02*
X022266Y018684D01*
X022148Y018566D02*
X021468Y018566D01*
X021349Y018447D02*
X022029Y018447D01*
X021919Y018803D02*
X022385Y018803D01*
X022503Y018921D02*
X022047Y018921D01*
X022759Y018329D02*
X028837Y018329D01*
X028718Y018210D02*
X022641Y018210D01*
X022522Y018092D02*
X028600Y018092D01*
X028467Y017380D02*
X023611Y017380D01*
X023492Y017262D02*
X028568Y017262D01*
X028687Y017143D02*
X023374Y017143D01*
X023255Y017025D02*
X028805Y017025D01*
X024122Y014535D02*
X023652Y014535D01*
X023764Y014417D02*
X024011Y014417D01*
X023961Y014298D02*
X023813Y014298D01*
X023825Y014180D02*
X023949Y014180D01*
X023962Y014061D02*
X023812Y014061D01*
X023763Y013943D02*
X024012Y013943D01*
X024087Y013824D02*
X023687Y013824D01*
X023687Y013705D02*
X024087Y013705D01*
X024087Y013587D02*
X023687Y013587D01*
X023687Y013468D02*
X024087Y013468D01*
X024087Y013350D02*
X023687Y013350D01*
X023687Y013231D02*
X024087Y013231D01*
X024087Y013113D02*
X023687Y013113D01*
X023687Y012994D02*
X024087Y012994D01*
X024087Y012876D02*
X023687Y012876D01*
X023687Y012757D02*
X024087Y012757D01*
X024087Y012639D02*
X023687Y012639D01*
X023687Y012520D02*
X024087Y012520D01*
X024087Y012401D02*
X023687Y012401D01*
X023709Y012283D02*
X024087Y012283D01*
X024087Y012164D02*
X023828Y012164D01*
X023946Y012046D02*
X024118Y012046D01*
X024065Y011927D02*
X024216Y011927D01*
X024183Y011809D02*
X024335Y011809D01*
X024302Y011690D02*
X024454Y011690D01*
X024421Y011572D02*
X024572Y011572D01*
X024587Y011453D02*
X024539Y011453D01*
X025687Y009675D02*
X025769Y009675D01*
X025687Y009556D02*
X025887Y009556D01*
X026006Y009438D02*
X025687Y009438D01*
X025687Y009319D02*
X026124Y009319D01*
X026243Y009201D02*
X025687Y009201D01*
X025687Y009082D02*
X026361Y009082D01*
X026480Y008964D02*
X025687Y008964D01*
X025687Y008845D02*
X026599Y008845D01*
X026717Y008727D02*
X025687Y008727D01*
X025687Y008608D02*
X026836Y008608D01*
X026954Y008490D02*
X025687Y008490D01*
X025687Y008371D02*
X027073Y008371D01*
X027191Y008252D02*
X025687Y008252D01*
X025687Y008134D02*
X027310Y008134D01*
X027387Y008015D02*
X025687Y008015D01*
X025687Y007897D02*
X027387Y007897D01*
X027387Y007778D02*
X025687Y007778D01*
X025687Y007660D02*
X027387Y007660D01*
X027387Y007541D02*
X025687Y007541D01*
X025687Y007423D02*
X027387Y007423D01*
X027387Y007304D02*
X025687Y007304D01*
X025687Y007186D02*
X027372Y007186D01*
X027290Y007067D02*
X025687Y007067D01*
X025739Y006949D02*
X027249Y006949D01*
X027249Y006830D02*
X025800Y006830D01*
X025825Y006711D02*
X027283Y006711D01*
X027356Y006593D02*
X025825Y006593D01*
X025776Y006474D02*
X027524Y006474D01*
X027850Y006474D02*
X032887Y006474D01*
X032887Y006356D02*
X025681Y006356D01*
X025152Y006237D02*
X032887Y006237D01*
X032887Y006119D02*
X025049Y006119D01*
X024931Y006000D02*
X032887Y006000D01*
X032887Y005882D02*
X024812Y005882D01*
X024693Y005763D02*
X032887Y005763D01*
X032887Y005645D02*
X024575Y005645D01*
X024456Y005526D02*
X032887Y005526D01*
X032887Y005407D02*
X024338Y005407D01*
X024219Y005289D02*
X032887Y005289D01*
X032887Y005170D02*
X024125Y005170D01*
X024108Y005052D02*
X032887Y005052D01*
X032887Y004933D02*
X024059Y004933D01*
X023940Y004815D02*
X032887Y004815D01*
X033487Y004815D02*
X037887Y004815D01*
X037887Y004933D02*
X033487Y004933D01*
X033487Y005052D02*
X037887Y005052D01*
X037887Y005170D02*
X033487Y005170D01*
X033487Y005289D02*
X037907Y005289D01*
X037989Y005407D02*
X033487Y005407D01*
X033487Y005526D02*
X038108Y005526D01*
X038226Y005645D02*
X033487Y005645D01*
X033487Y005763D02*
X038345Y005763D01*
X038464Y005882D02*
X033487Y005882D01*
X033487Y006000D02*
X038582Y006000D01*
X038701Y006119D02*
X033487Y006119D01*
X033487Y006237D02*
X038819Y006237D01*
X038938Y006356D02*
X033487Y006356D01*
X033487Y006474D02*
X039056Y006474D01*
X039175Y006593D02*
X033487Y006593D01*
X033487Y006711D02*
X039293Y006711D01*
X039387Y006830D02*
X033487Y006830D01*
X033487Y006949D02*
X039387Y006949D01*
X039387Y007067D02*
X033487Y007067D01*
X033487Y007186D02*
X039387Y007186D01*
X039387Y007304D02*
X033487Y007304D01*
X033487Y007423D02*
X039387Y007423D01*
X039387Y007541D02*
X033487Y007541D01*
X033487Y007660D02*
X039387Y007660D01*
X039387Y007778D02*
X033487Y007778D01*
X033487Y007897D02*
X039387Y007897D01*
X039387Y008015D02*
X033487Y008015D01*
X033487Y008134D02*
X039387Y008134D01*
X039387Y008252D02*
X033487Y008252D01*
X033487Y008371D02*
X039387Y008371D01*
X039387Y008490D02*
X038899Y008490D01*
X039132Y008608D02*
X039387Y008608D01*
X039387Y008727D02*
X039251Y008727D01*
X039327Y008845D02*
X039387Y008845D01*
X039376Y008964D02*
X039387Y008964D01*
X039360Y009438D02*
X039387Y009438D01*
X039387Y009556D02*
X039311Y009556D01*
X039387Y009675D02*
X039211Y009675D01*
X039090Y009794D02*
X039409Y009794D01*
X039494Y009912D02*
X033487Y009912D01*
X033487Y009794D02*
X038285Y009794D01*
X038163Y009675D02*
X033487Y009675D01*
X033487Y009556D02*
X038063Y009556D01*
X038014Y009438D02*
X033487Y009438D01*
X033487Y009319D02*
X037967Y009319D01*
X037967Y009201D02*
X033487Y009201D01*
X033487Y009082D02*
X037967Y009082D01*
X037998Y008964D02*
X033487Y008964D01*
X033487Y008845D02*
X038047Y008845D01*
X038123Y008727D02*
X033487Y008727D01*
X033487Y008608D02*
X038242Y008608D01*
X038475Y008490D02*
X033487Y008490D01*
X032887Y008490D02*
X027803Y008490D01*
X027684Y008608D02*
X032887Y008608D01*
X032887Y008727D02*
X027566Y008727D01*
X027447Y008845D02*
X032887Y008845D01*
X032887Y008964D02*
X027329Y008964D01*
X027210Y009082D02*
X032887Y009082D01*
X032887Y009201D02*
X027091Y009201D01*
X026973Y009319D02*
X032887Y009319D01*
X032887Y009438D02*
X026854Y009438D01*
X026736Y009556D02*
X032887Y009556D01*
X032887Y009675D02*
X026617Y009675D01*
X027921Y008371D02*
X032887Y008371D01*
X032887Y008252D02*
X027982Y008252D01*
X027987Y008134D02*
X032887Y008134D01*
X032887Y008015D02*
X027987Y008015D01*
X027987Y007897D02*
X032887Y007897D01*
X032887Y007778D02*
X027987Y007778D01*
X027987Y007660D02*
X032887Y007660D01*
X032887Y007541D02*
X027987Y007541D01*
X027987Y007423D02*
X032887Y007423D01*
X032887Y007304D02*
X027987Y007304D01*
X028002Y007186D02*
X032887Y007186D01*
X032887Y007067D02*
X028084Y007067D01*
X028125Y006949D02*
X032887Y006949D01*
X032887Y006830D02*
X028125Y006830D01*
X028091Y006711D02*
X032887Y006711D01*
X032887Y006593D02*
X028019Y006593D01*
X033169Y010623D02*
X039887Y010623D01*
X039887Y010505D02*
X033287Y010505D01*
X033406Y010386D02*
X039887Y010386D01*
X039850Y010268D02*
X033476Y010268D01*
X033487Y010149D02*
X039731Y010149D01*
X039613Y010031D02*
X033487Y010031D01*
X038719Y005289D02*
X042927Y005289D01*
X042927Y005407D02*
X038838Y005407D01*
X038956Y005526D02*
X042927Y005526D01*
X042927Y005645D02*
X039075Y005645D01*
X039193Y005763D02*
X042927Y005763D01*
X042927Y005882D02*
X039312Y005882D01*
X039431Y006000D02*
X042927Y006000D01*
X042927Y006119D02*
X039549Y006119D01*
X039668Y006237D02*
X042927Y006237D01*
X042927Y006356D02*
X039786Y006356D01*
X039857Y006427D02*
X039857Y006427D01*
X039905Y006474D02*
X042927Y006474D01*
X042927Y006593D02*
X039975Y006593D01*
X039987Y006711D02*
X042927Y006711D01*
X042927Y006830D02*
X039987Y006830D01*
X039987Y006949D02*
X042927Y006949D01*
X042927Y007067D02*
X039987Y007067D01*
X039987Y007186D02*
X042927Y007186D01*
X042927Y007304D02*
X039987Y007304D01*
X039987Y007423D02*
X042927Y007423D01*
X042927Y007541D02*
X039987Y007541D01*
X039987Y007660D02*
X042927Y007660D01*
X042927Y007778D02*
X039987Y007778D01*
X039987Y007897D02*
X042927Y007897D01*
X042927Y008015D02*
X039987Y008015D01*
X039987Y008134D02*
X042927Y008134D01*
X042927Y008252D02*
X039987Y008252D01*
X039987Y008371D02*
X042927Y008371D01*
X042927Y008490D02*
X039987Y008490D01*
X039987Y008608D02*
X040355Y008608D01*
X040422Y008541D02*
X040047Y008916D01*
X040047Y009141D01*
X040647Y009141D01*
X040647Y009221D01*
X040047Y009221D01*
X040047Y009446D01*
X040422Y009821D01*
X040647Y009821D01*
X040647Y009221D01*
X040727Y009221D01*
X040727Y009821D01*
X040952Y009821D01*
X041327Y009446D01*
X041327Y009221D01*
X040727Y009221D01*
X040727Y009141D01*
X041327Y009141D01*
X041327Y008916D01*
X040952Y008541D01*
X040727Y008541D01*
X040727Y009141D01*
X040647Y009141D01*
X040647Y008541D01*
X040422Y008541D01*
X040647Y008608D02*
X040727Y008608D01*
X040727Y008727D02*
X040647Y008727D01*
X040647Y008845D02*
X040727Y008845D01*
X040727Y008964D02*
X040647Y008964D01*
X040647Y009082D02*
X040727Y009082D01*
X040727Y009201D02*
X042927Y009201D01*
X042927Y009319D02*
X041327Y009319D01*
X041327Y009438D02*
X042927Y009438D01*
X042927Y009556D02*
X041217Y009556D01*
X041098Y009675D02*
X042927Y009675D01*
X042927Y009794D02*
X040980Y009794D01*
X040727Y009794D02*
X040647Y009794D01*
X040647Y009675D02*
X040727Y009675D01*
X040727Y009556D02*
X040647Y009556D01*
X040647Y009438D02*
X040727Y009438D01*
X040727Y009319D02*
X040647Y009319D01*
X040647Y009201D02*
X039987Y009201D01*
X039987Y009319D02*
X040047Y009319D01*
X040047Y009438D02*
X039987Y009438D01*
X039987Y009556D02*
X040158Y009556D01*
X040105Y009675D02*
X040276Y009675D01*
X040224Y009794D02*
X040395Y009794D01*
X040342Y009912D02*
X042927Y009912D01*
X042927Y010031D02*
X040449Y010031D01*
X040487Y010149D02*
X042927Y010149D01*
X042927Y010268D02*
X040487Y010268D01*
X040487Y010386D02*
X042927Y010386D01*
X042927Y010505D02*
X040487Y010505D01*
X040487Y010623D02*
X042927Y010623D01*
X042927Y010742D02*
X040487Y010742D01*
X040487Y010860D02*
X042927Y010860D01*
X042927Y010979D02*
X040487Y010979D01*
X040487Y011098D02*
X042927Y011098D01*
X042927Y011216D02*
X040487Y011216D01*
X040487Y011335D02*
X042927Y011335D01*
X042927Y011453D02*
X040487Y011453D01*
X040487Y011572D02*
X042927Y011572D01*
X042927Y011690D02*
X040487Y011690D01*
X040487Y011809D02*
X042927Y011809D01*
X042927Y011927D02*
X040487Y011927D01*
X041597Y013350D02*
X041677Y013350D01*
X041677Y013468D02*
X041597Y013468D01*
X041597Y013587D02*
X041677Y013587D01*
X041677Y013824D02*
X041597Y013824D01*
X041597Y013943D02*
X041677Y013943D01*
X041677Y014061D02*
X041597Y014061D01*
X041188Y014180D02*
X040610Y014180D01*
X040729Y014298D02*
X040984Y014298D01*
X041114Y014061D02*
X040491Y014061D01*
X040487Y013943D02*
X040983Y013943D01*
X040921Y013824D02*
X040487Y013824D01*
X040047Y009082D02*
X039987Y009082D01*
X039987Y008964D02*
X040047Y008964D01*
X039987Y008845D02*
X040118Y008845D01*
X040236Y008727D02*
X039987Y008727D01*
X041019Y008608D02*
X042927Y008608D01*
X042927Y008727D02*
X041138Y008727D01*
X041256Y008845D02*
X042927Y008845D01*
X042927Y008964D02*
X041327Y008964D01*
X041327Y009082D02*
X042927Y009082D01*
X042927Y005170D02*
X038601Y005170D01*
X038487Y005052D02*
X042927Y005052D01*
X042927Y004933D02*
X038487Y004933D01*
X038487Y004815D02*
X042927Y004815D01*
X042927Y004696D02*
X038487Y004696D01*
X038487Y004578D02*
X042927Y004578D01*
X042927Y004459D02*
X038487Y004459D01*
X038487Y004341D02*
X042927Y004341D01*
X042927Y004222D02*
X038487Y004222D01*
X038487Y004103D02*
X042927Y004103D01*
X042927Y003985D02*
X038487Y003985D01*
X038487Y003866D02*
X042927Y003866D01*
X042927Y003748D02*
X038487Y003748D01*
X038487Y003629D02*
X040898Y003629D01*
X041012Y003671D02*
X040684Y003551D01*
X040417Y003327D01*
X040242Y003025D01*
X040242Y003025D01*
X040182Y002681D01*
X038797Y002681D01*
X038797Y002799D02*
X040203Y002799D01*
X040182Y002681D02*
X040182Y002681D01*
X040242Y002337D01*
X040417Y002035D01*
X040417Y002035D01*
X040684Y001810D01*
X040684Y001810D01*
X041012Y001691D01*
X041013Y001691D01*
X041135Y001691D01*
X041135Y001691D01*
X041158Y001691D01*
X041187Y001691D01*
X041239Y001691D01*
X041362Y001691D01*
X041690Y001810D01*
X041957Y002035D01*
X042132Y002337D01*
X042192Y002681D01*
X042927Y002681D01*
X042927Y002799D02*
X042171Y002799D01*
X042192Y002681D02*
X042132Y003025D01*
X041957Y003327D01*
X041690Y003551D01*
X041690Y003551D01*
X041362Y003671D01*
X041362Y003671D01*
X041239Y003671D01*
X041187Y003671D01*
X041186Y003671D01*
X041135Y003671D01*
X041013Y003671D01*
X041012Y003671D01*
X041135Y003671D02*
X041135Y003671D01*
X041239Y003671D02*
X041239Y003671D01*
X041476Y003629D02*
X042927Y003629D01*
X042927Y003511D02*
X041738Y003511D01*
X041880Y003392D02*
X042927Y003392D01*
X042927Y003274D02*
X041988Y003274D01*
X041957Y003327D02*
X041957Y003327D01*
X042056Y003155D02*
X042927Y003155D01*
X042927Y003037D02*
X042125Y003037D01*
X042132Y003025D02*
X042132Y003025D01*
X042150Y002918D02*
X042927Y002918D01*
X042927Y002562D02*
X042171Y002562D01*
X042150Y002444D02*
X042927Y002444D01*
X042927Y002325D02*
X042125Y002325D01*
X042132Y002337D02*
X042132Y002337D01*
X042056Y002207D02*
X042927Y002207D01*
X042921Y002088D02*
X041988Y002088D01*
X041957Y002035D02*
X041957Y002035D01*
X041957Y002035D01*
X041879Y001970D02*
X042903Y001970D01*
X042872Y001851D02*
X041738Y001851D01*
X041690Y001810D02*
X041690Y001810D01*
X041476Y001733D02*
X042840Y001733D01*
X042779Y001614D02*
X002095Y001614D01*
X002163Y001496D02*
X042711Y001496D01*
X042622Y001377D02*
X002252Y001377D01*
X002371Y001258D02*
X042503Y001258D01*
X042343Y001140D02*
X002531Y001140D01*
X002765Y001021D02*
X042109Y001021D01*
X041362Y001691D02*
X041362Y001691D01*
X041239Y001691D02*
X041239Y001691D01*
X040898Y001733D02*
X038433Y001733D01*
X038610Y001851D02*
X040636Y001851D01*
X040495Y001970D02*
X038714Y001970D01*
X038763Y002088D02*
X040386Y002088D01*
X040318Y002207D02*
X038797Y002207D01*
X038797Y002325D02*
X040249Y002325D01*
X040242Y002337D02*
X040242Y002337D01*
X040224Y002444D02*
X038797Y002444D01*
X038797Y002562D02*
X040203Y002562D01*
X040224Y002918D02*
X038797Y002918D01*
X038797Y003037D02*
X040249Y003037D01*
X040318Y003155D02*
X038797Y003155D01*
X038763Y003274D02*
X040386Y003274D01*
X040417Y003327D02*
X040417Y003327D01*
X040417Y003327D01*
X040495Y003392D02*
X038714Y003392D01*
X038610Y003511D02*
X040636Y003511D01*
X040684Y003551D02*
X040684Y003551D01*
X042192Y002681D02*
X042192Y002681D01*
X037941Y001733D02*
X035933Y001733D01*
X036033Y001774D02*
X035808Y001681D01*
X035566Y001681D01*
X035342Y001774D01*
X035170Y001945D01*
X035077Y002170D01*
X035077Y003192D01*
X035170Y003416D01*
X035342Y003588D01*
X035566Y003681D01*
X035808Y003681D01*
X036033Y003588D01*
X036204Y003416D01*
X036297Y003192D01*
X036297Y002170D01*
X036204Y001945D01*
X036033Y001774D01*
X036110Y001851D02*
X037764Y001851D01*
X037660Y001970D02*
X036214Y001970D01*
X036263Y002088D02*
X037611Y002088D01*
X037577Y002207D02*
X036297Y002207D01*
X036297Y002325D02*
X037577Y002325D01*
X037577Y002444D02*
X036297Y002444D01*
X036297Y002562D02*
X037577Y002562D01*
X037577Y002681D02*
X036297Y002681D01*
X036297Y002799D02*
X037577Y002799D01*
X037577Y002918D02*
X036297Y002918D01*
X036297Y003037D02*
X037577Y003037D01*
X037577Y003155D02*
X036297Y003155D01*
X036263Y003274D02*
X037611Y003274D01*
X037660Y003392D02*
X036214Y003392D01*
X036110Y003511D02*
X037764Y003511D01*
X037887Y003629D02*
X035933Y003629D01*
X035441Y003629D02*
X033487Y003629D01*
X033487Y003748D02*
X037887Y003748D01*
X037887Y003866D02*
X033487Y003866D01*
X033487Y003985D02*
X037887Y003985D01*
X037887Y004103D02*
X033487Y004103D01*
X033487Y004222D02*
X037887Y004222D01*
X037887Y004341D02*
X033487Y004341D01*
X033487Y004459D02*
X037887Y004459D01*
X037887Y004578D02*
X033487Y004578D01*
X033487Y004696D02*
X037887Y004696D01*
X035264Y003511D02*
X033610Y003511D01*
X033714Y003392D02*
X035160Y003392D01*
X035111Y003274D02*
X033763Y003274D01*
X033797Y003155D02*
X035077Y003155D01*
X035077Y003037D02*
X033797Y003037D01*
X033797Y002918D02*
X035077Y002918D01*
X035077Y002799D02*
X033797Y002799D01*
X033797Y002681D02*
X035077Y002681D01*
X035077Y002562D02*
X033797Y002562D01*
X033797Y002444D02*
X035077Y002444D01*
X035077Y002325D02*
X033797Y002325D01*
X033797Y002207D02*
X035077Y002207D01*
X035111Y002088D02*
X033763Y002088D01*
X033714Y001970D02*
X035160Y001970D01*
X035264Y001851D02*
X033610Y001851D01*
X033433Y001733D02*
X035441Y001733D01*
X020920Y012283D02*
X020454Y012283D01*
X020572Y012401D02*
X020802Y012401D01*
X020717Y012520D02*
X020657Y012520D01*
X020657Y012639D02*
X020717Y012639D01*
X020717Y012757D02*
X020657Y012757D01*
X020538Y012994D02*
X020836Y012994D01*
X020887Y013113D02*
X020420Y013113D01*
X019954Y013113D02*
X019420Y013113D01*
X019538Y012994D02*
X019836Y012994D01*
X019717Y012757D02*
X019657Y012757D01*
X019657Y012639D02*
X019717Y012639D01*
X019717Y012520D02*
X019657Y012520D01*
X019572Y012401D02*
X019802Y012401D01*
X019920Y012283D02*
X019454Y012283D01*
X018717Y012639D02*
X018657Y012639D01*
X018657Y012757D02*
X018717Y012757D01*
X018836Y012994D02*
X018538Y012994D01*
X018420Y013113D02*
X018954Y013113D01*
X017954Y013113D02*
X017420Y013113D01*
X017538Y012994D02*
X017836Y012994D01*
X017717Y012757D02*
X017657Y012757D01*
X017657Y012639D02*
X017717Y012639D01*
X016920Y012283D02*
X016454Y012283D01*
X016572Y012401D02*
X016802Y012401D01*
X016717Y012520D02*
X016657Y012520D01*
X016657Y012639D02*
X016717Y012639D01*
X016717Y012757D02*
X016657Y012757D01*
X016538Y012994D02*
X016836Y012994D01*
X016954Y013113D02*
X016420Y013113D01*
X015954Y013113D02*
X014420Y013113D01*
X014538Y012994D02*
X015836Y012994D01*
X015717Y012876D02*
X015717Y012486D01*
X015802Y012401D02*
X014572Y012401D01*
X014454Y012283D02*
X015920Y012283D01*
X014976Y013350D02*
X020887Y013350D01*
X020887Y013468D02*
X015073Y013468D01*
X015122Y013587D02*
X020887Y013587D01*
X020887Y013705D02*
X015136Y013705D01*
X015254Y013824D02*
X020922Y013824D01*
X020887Y013231D02*
X012133Y013231D01*
X012168Y013071D02*
X012026Y013071D01*
X011797Y012842D01*
X011797Y012700D01*
X012168Y012700D01*
X012168Y013071D01*
X012206Y013071D02*
X012206Y012700D01*
X012168Y012700D01*
X012168Y012662D01*
X011797Y012662D01*
X011797Y012519D01*
X012026Y012291D01*
X012168Y012291D01*
X012168Y012662D01*
X012206Y012662D01*
X012206Y012700D01*
X012577Y012700D01*
X012577Y012842D01*
X012349Y013071D01*
X012206Y013071D01*
X012206Y012994D02*
X012168Y012994D01*
X012168Y012876D02*
X012206Y012876D01*
X012206Y012757D02*
X012168Y012757D01*
X012206Y012662D02*
X012577Y012662D01*
X012577Y012519D01*
X012349Y012291D01*
X012206Y012291D01*
X012206Y012662D01*
X012206Y012639D02*
X012168Y012639D01*
X012168Y012520D02*
X012206Y012520D01*
X012206Y012401D02*
X012168Y012401D01*
X011915Y012401D02*
X011572Y012401D01*
X011657Y012520D02*
X011797Y012520D01*
X011797Y012639D02*
X011657Y012639D01*
X011659Y012757D02*
X011797Y012757D01*
X011778Y012876D02*
X011830Y012876D01*
X011896Y012994D02*
X011949Y012994D01*
X012015Y013113D02*
X013954Y013113D01*
X013836Y012994D02*
X013425Y012994D01*
X013206Y012994D02*
X013168Y012994D01*
X013168Y012876D02*
X013206Y012876D01*
X013206Y012757D02*
X013168Y012757D01*
X013168Y012639D02*
X013206Y012639D01*
X013206Y012520D02*
X013168Y012520D01*
X013168Y012401D02*
X013206Y012401D01*
X013459Y012401D02*
X013802Y012401D01*
X013717Y012486D02*
X013717Y012876D01*
X014399Y013350D02*
X012252Y013350D01*
X012370Y013468D02*
X014301Y013468D01*
X014252Y013587D02*
X012489Y013587D01*
X012608Y013705D02*
X014249Y013705D01*
X014272Y013824D02*
X012726Y013824D01*
X012845Y013943D02*
X014329Y013943D01*
X014460Y014061D02*
X012963Y014061D01*
X013082Y014180D02*
X014762Y014180D01*
X014880Y014298D02*
X013200Y014298D01*
X013187Y014681D02*
X020487Y014681D01*
X021187Y015381D01*
X020749Y015365D02*
X013295Y015365D01*
X013177Y015247D02*
X020657Y015247D01*
X020538Y015128D02*
X013058Y015128D01*
X012940Y015009D02*
X020420Y015009D01*
X020755Y015484D02*
X013414Y015484D01*
X013533Y015602D02*
X020805Y015602D01*
X020907Y015721D02*
X013651Y015721D01*
X013770Y015839D02*
X021221Y015839D01*
X021340Y015958D02*
X020388Y015958D01*
X020507Y016076D02*
X021458Y016076D01*
X021577Y016195D02*
X020625Y016195D01*
X020744Y016313D02*
X021695Y016313D01*
X021814Y016432D02*
X020862Y016432D01*
X020981Y016551D02*
X021932Y016551D01*
X022051Y016669D02*
X021099Y016669D01*
X021218Y016788D02*
X022169Y016788D01*
X022288Y016906D02*
X021337Y016906D01*
X021455Y017025D02*
X022407Y017025D01*
X022525Y017143D02*
X021574Y017143D01*
X021692Y017262D02*
X022644Y017262D01*
X022762Y017380D02*
X021811Y017380D01*
X021929Y017499D02*
X022881Y017499D01*
X022999Y017617D02*
X022048Y017617D01*
X022166Y017736D02*
X023118Y017736D01*
X023236Y017854D02*
X022285Y017854D01*
X022403Y017973D02*
X023408Y017973D01*
X021199Y017617D02*
X018978Y017617D01*
X018796Y017617D02*
X013778Y017617D01*
X013989Y017499D02*
X018585Y017499D01*
X019189Y017499D02*
X021081Y017499D01*
X020962Y017380D02*
X019279Y017380D01*
X019325Y017262D02*
X020844Y017262D01*
X020725Y017143D02*
X019325Y017143D01*
X019297Y017025D02*
X020607Y017025D01*
X020488Y016906D02*
X019232Y016906D01*
X019082Y016788D02*
X020369Y016788D01*
X020251Y016669D02*
X013599Y016669D01*
X013481Y016551D02*
X020132Y016551D01*
X018692Y016788D02*
X013882Y016788D01*
X013514Y016432D02*
X013362Y016432D01*
X013395Y016313D02*
X013244Y016313D01*
X013277Y016195D02*
X013125Y016195D01*
X013158Y016076D02*
X013007Y016076D01*
X013040Y015958D02*
X012888Y015958D01*
X012921Y015839D02*
X012770Y015839D01*
X012803Y015721D02*
X012651Y015721D01*
X012684Y015602D02*
X012533Y015602D01*
X012566Y015484D02*
X012414Y015484D01*
X012447Y015365D02*
X012295Y015365D01*
X012328Y015247D02*
X012177Y015247D01*
X012210Y015128D02*
X012058Y015128D01*
X012091Y015009D02*
X011940Y015009D01*
X011973Y014891D02*
X011821Y014891D01*
X011854Y014772D02*
X011703Y014772D01*
X011736Y014654D02*
X011584Y014654D01*
X011617Y014535D02*
X011466Y014535D01*
X011499Y014417D02*
X011347Y014417D01*
X011380Y014298D02*
X011229Y014298D01*
X011262Y014180D02*
X011110Y014180D01*
X011143Y014061D02*
X010991Y014061D01*
X011024Y013943D02*
X010873Y013943D01*
X010906Y013824D02*
X010754Y013824D01*
X010787Y013705D02*
X010636Y013705D01*
X010669Y013587D02*
X010517Y013587D01*
X010550Y013468D02*
X010399Y013468D01*
X010432Y013350D02*
X010280Y013350D01*
X010313Y013231D02*
X010162Y013231D01*
X009717Y012757D02*
X009687Y012757D01*
X009657Y012639D02*
X009717Y012639D01*
X009717Y012520D02*
X009657Y012520D01*
X009572Y012401D02*
X009802Y012401D01*
X009920Y012283D02*
X009454Y012283D01*
X010454Y012283D02*
X010920Y012283D01*
X010802Y012401D02*
X010572Y012401D01*
X010657Y012520D02*
X010717Y012520D01*
X010717Y012639D02*
X010657Y012639D01*
X010687Y012757D02*
X010717Y012757D01*
X011187Y012681D02*
X013187Y014681D01*
X013001Y014891D02*
X012821Y014891D01*
X012883Y014772D02*
X012703Y014772D01*
X012764Y014654D02*
X012584Y014654D01*
X012645Y014535D02*
X012466Y014535D01*
X012527Y014417D02*
X012347Y014417D01*
X012408Y014298D02*
X012229Y014298D01*
X012290Y014180D02*
X012110Y014180D01*
X012171Y014061D02*
X011991Y014061D01*
X012053Y013943D02*
X011873Y013943D01*
X011934Y013824D02*
X011754Y013824D01*
X011816Y013705D02*
X011636Y013705D01*
X011697Y013587D02*
X011517Y013587D01*
X011579Y013468D02*
X011399Y013468D01*
X011460Y013350D02*
X011280Y013350D01*
X011341Y013231D02*
X011162Y013231D01*
X011454Y012283D02*
X013920Y012283D01*
X012915Y012401D02*
X012459Y012401D01*
X012577Y012520D02*
X012797Y012520D01*
X012797Y012639D02*
X012577Y012639D01*
X012577Y012757D02*
X012797Y012757D01*
X012830Y012876D02*
X012544Y012876D01*
X012425Y012994D02*
X012949Y012994D01*
X007859Y014772D02*
X006237Y014772D01*
X006237Y014654D02*
X007785Y014654D01*
X007749Y014535D02*
X006237Y014535D01*
X006237Y014417D02*
X007699Y014417D01*
X007580Y014298D02*
X006237Y014298D01*
X006237Y014180D02*
X007462Y014180D01*
X007396Y014061D02*
X006237Y014061D01*
X006237Y013943D02*
X007387Y013943D01*
X007387Y013824D02*
X006237Y013824D01*
X006237Y013705D02*
X007342Y013705D01*
X007278Y013587D02*
X006237Y013587D01*
X006237Y013468D02*
X007249Y013468D01*
X007249Y013350D02*
X006237Y013350D01*
X006237Y013231D02*
X007296Y013231D01*
X007386Y013113D02*
X006237Y013113D01*
X006298Y012994D02*
X007387Y012994D01*
X007387Y012876D02*
X006417Y012876D01*
X006724Y012757D02*
X007339Y012757D01*
X007221Y012639D02*
X006849Y012639D01*
X006904Y012520D02*
X007102Y012520D01*
X006983Y012401D02*
X006925Y012401D01*
X006237Y014891D02*
X007887Y014891D01*
X007887Y015009D02*
X006237Y015009D01*
X006254Y015128D02*
X007887Y015128D01*
X007887Y015247D02*
X006335Y015247D01*
X006375Y015365D02*
X007887Y015365D01*
X007887Y015484D02*
X006375Y015484D01*
X006340Y015602D02*
X007887Y015602D01*
X007887Y015721D02*
X006267Y015721D01*
X006096Y015839D02*
X007887Y015839D01*
X006880Y017025D02*
X001947Y017025D01*
X001947Y017143D02*
X006768Y017143D01*
X006718Y017262D02*
X001947Y017262D01*
X001947Y017380D02*
X006697Y017380D01*
X006697Y017499D02*
X001947Y017499D01*
X001947Y017617D02*
X006697Y017617D01*
X006697Y017736D02*
X001947Y017736D01*
X001947Y017854D02*
X006697Y017854D01*
X006697Y017973D02*
X001947Y017973D01*
X001947Y018092D02*
X006715Y018092D01*
X006764Y018210D02*
X001947Y018210D01*
X001947Y018329D02*
X006872Y018329D01*
X005525Y018447D02*
X001947Y018447D01*
X001947Y018566D02*
X005406Y018566D01*
X005288Y018684D02*
X001947Y018684D01*
X001947Y018803D02*
X005169Y018803D01*
X005051Y018921D02*
X001947Y018921D01*
X001947Y019040D02*
X004932Y019040D01*
X004814Y019158D02*
X001947Y019158D01*
X001947Y019277D02*
X004695Y019277D01*
X004576Y019396D02*
X001947Y019396D01*
X001947Y019514D02*
X004458Y019514D01*
X004339Y019633D02*
X001947Y019633D01*
X001947Y019751D02*
X004221Y019751D01*
X004102Y019870D02*
X001947Y019870D01*
X001947Y019988D02*
X003984Y019988D01*
X003915Y020107D02*
X001947Y020107D01*
X001947Y020225D02*
X003907Y020225D01*
X003907Y020344D02*
X001947Y020344D01*
X001947Y020462D02*
X003907Y020462D01*
X003907Y020581D02*
X001947Y020581D01*
X001947Y020700D02*
X003907Y020700D01*
X003907Y020818D02*
X001947Y020818D01*
X001947Y020937D02*
X003907Y020937D01*
X003907Y021055D02*
X001947Y021055D01*
X001947Y021174D02*
X003907Y021174D01*
X003907Y021292D02*
X001947Y021292D01*
X001947Y021411D02*
X003907Y021411D01*
X003907Y021529D02*
X001947Y021529D01*
X001947Y021648D02*
X003907Y021648D01*
X003907Y021766D02*
X001947Y021766D01*
X001947Y021885D02*
X003907Y021885D01*
X003907Y022004D02*
X001947Y022004D01*
X001947Y022122D02*
X003907Y022122D01*
X003907Y022241D02*
X001947Y022241D01*
X001947Y022359D02*
X003907Y022359D01*
X003907Y022478D02*
X001947Y022478D01*
X001947Y022596D02*
X003907Y022596D01*
X003907Y022715D02*
X001947Y022715D01*
X001947Y022833D02*
X003907Y022833D01*
X003907Y022952D02*
X001947Y022952D01*
X001947Y023070D02*
X003907Y023070D01*
X003907Y023189D02*
X001947Y023189D01*
X001947Y023307D02*
X003907Y023307D01*
X003907Y023426D02*
X001947Y023426D01*
X001947Y023545D02*
X003907Y023545D01*
X003907Y023663D02*
X001947Y023663D01*
X001947Y023782D02*
X003926Y023782D01*
X004010Y023900D02*
X001947Y023900D01*
X001947Y024019D02*
X004129Y024019D01*
X004247Y024137D02*
X001947Y024137D01*
X001947Y024256D02*
X004366Y024256D01*
X004485Y024374D02*
X001947Y024374D01*
X001947Y024493D02*
X007291Y024493D01*
X007249Y024611D02*
X004972Y024611D01*
X004935Y024574D02*
X005058Y024697D01*
X005124Y024858D01*
X005124Y025032D01*
X005058Y025192D01*
X004935Y025315D01*
X004774Y025382D01*
X004600Y025382D01*
X004439Y025315D01*
X004316Y025192D01*
X004250Y025032D01*
X004250Y024858D01*
X004316Y024697D01*
X004439Y024574D01*
X004600Y024508D01*
X004774Y024508D01*
X004935Y024574D01*
X005071Y024730D02*
X007249Y024730D01*
X007282Y024849D02*
X005120Y024849D01*
X005124Y024967D02*
X007354Y024967D01*
X007519Y025086D02*
X005102Y025086D01*
X005046Y025204D02*
X009040Y025204D01*
X009158Y025086D02*
X007855Y025086D01*
X008565Y025678D02*
X001947Y025678D01*
X001947Y025560D02*
X008684Y025560D01*
X008802Y025441D02*
X001947Y025441D01*
X001947Y025323D02*
X004457Y025323D01*
X004328Y025204D02*
X001947Y025204D01*
X001947Y025086D02*
X004272Y025086D01*
X004250Y024967D02*
X001947Y024967D01*
X001947Y024849D02*
X004254Y024849D01*
X004303Y024730D02*
X001947Y024730D01*
X001947Y024611D02*
X004402Y024611D01*
X004802Y023900D02*
X007848Y023900D01*
X008006Y023782D02*
X004684Y023782D01*
X004565Y023663D02*
X011387Y023663D01*
X011387Y023545D02*
X004467Y023545D01*
X004467Y023426D02*
X011387Y023426D01*
X011387Y023307D02*
X004467Y023307D01*
X004467Y023189D02*
X011271Y023189D01*
X011152Y023070D02*
X004467Y023070D01*
X004467Y022952D02*
X011062Y022952D01*
X011037Y022833D02*
X004467Y022833D01*
X004467Y022715D02*
X011037Y022715D01*
X011037Y022596D02*
X004467Y022596D01*
X004467Y022478D02*
X011037Y022478D01*
X011037Y022359D02*
X004798Y022359D01*
X004576Y022359D02*
X004467Y022359D01*
X004687Y021931D02*
X004687Y020681D01*
X005687Y019681D01*
X011187Y019681D01*
X011687Y019181D01*
X011187Y019681D02*
X011687Y020181D01*
X010637Y021531D02*
X010187Y021531D01*
X009749Y021529D02*
X004967Y021529D01*
X004967Y021411D02*
X007382Y021411D01*
X007263Y021292D02*
X004967Y021292D01*
X004967Y021174D02*
X007204Y021174D01*
X007167Y021055D02*
X004967Y021055D01*
X004967Y020937D02*
X007167Y020937D01*
X007167Y020818D02*
X004967Y020818D01*
X005064Y020700D02*
X007167Y020700D01*
X007167Y020581D02*
X005183Y020581D01*
X005301Y020462D02*
X007167Y020462D01*
X007167Y020344D02*
X005420Y020344D01*
X005539Y020225D02*
X007189Y020225D01*
X007238Y020107D02*
X005657Y020107D01*
X005776Y019988D02*
X007344Y019988D01*
X008170Y021174D02*
X008204Y021174D01*
X008263Y021292D02*
X008111Y021292D01*
X007993Y021411D02*
X008382Y021411D01*
X008993Y021411D02*
X009382Y021411D01*
X009263Y021292D02*
X009111Y021292D01*
X009170Y021174D02*
X009204Y021174D01*
X009761Y021648D02*
X005024Y021648D01*
X005093Y021766D02*
X009810Y021766D01*
X009922Y021885D02*
X005125Y021885D01*
X005125Y022004D02*
X010890Y022004D01*
X011037Y022122D02*
X005082Y022122D01*
X004997Y022241D02*
X011037Y022241D01*
X010595Y021885D02*
X010453Y021885D01*
X010787Y021681D02*
X010637Y021531D01*
X010787Y021681D02*
X011187Y021681D01*
X009591Y024493D02*
X009299Y024493D01*
X009181Y024611D02*
X009549Y024611D01*
X009514Y024730D02*
X009062Y024730D01*
X008944Y024849D02*
X009395Y024849D01*
X009277Y024967D02*
X008780Y024967D01*
X008921Y025323D02*
X004917Y025323D01*
X006996Y026153D02*
X001947Y026153D01*
X001947Y026034D02*
X007151Y026034D01*
X007524Y026034D02*
X008210Y026034D01*
X008328Y025915D02*
X001947Y025915D01*
X001947Y025797D02*
X008447Y025797D01*
X011987Y025797D02*
X012677Y025797D01*
X012700Y025915D02*
X011987Y025915D01*
X011987Y026034D02*
X012819Y026034D01*
X012881Y026153D02*
X012083Y026153D01*
X012201Y026271D02*
X012763Y026271D01*
X011987Y024967D02*
X013907Y024967D01*
X013907Y024849D02*
X011987Y024849D01*
X011987Y024730D02*
X013907Y024730D01*
X017469Y024019D02*
X017729Y024019D01*
X017587Y023900D02*
X017570Y023900D01*
X018687Y022031D02*
X019437Y020931D01*
X021678Y015009D02*
X022091Y015009D01*
X021973Y014891D02*
X021774Y014891D01*
X021823Y014772D02*
X021854Y014772D01*
X035987Y022241D02*
X037087Y022241D01*
X037087Y022359D02*
X035987Y022359D01*
X035987Y022478D02*
X037087Y022478D01*
X037087Y022596D02*
X035987Y022596D01*
X035987Y022715D02*
X037002Y022715D01*
X036953Y022833D02*
X035987Y022833D01*
X035987Y022952D02*
X036942Y022952D01*
X036823Y023070D02*
X035987Y023070D01*
X035987Y023189D02*
X036705Y023189D01*
X036586Y023307D02*
X035987Y023307D01*
X035987Y023426D02*
X036468Y023426D01*
X036349Y023545D02*
X035987Y023545D01*
X035987Y023663D02*
X036231Y023663D01*
X036112Y023782D02*
X035987Y023782D01*
X035987Y023900D02*
X035994Y023900D01*
X042286Y035755D02*
X002588Y035755D01*
X002886Y035873D02*
X041988Y035873D01*
X004494Y009912D02*
X003527Y009912D01*
X003760Y009794D02*
X004375Y009794D01*
X004257Y009675D02*
X003878Y009675D01*
X003962Y009556D02*
X004138Y009556D01*
X003097Y033384D02*
X001947Y033384D01*
X001947Y033502D02*
X002956Y033502D01*
X002867Y033621D02*
X001947Y033621D01*
X001947Y033739D02*
X002799Y033739D01*
X002739Y033858D02*
X001947Y033858D01*
X001947Y033976D02*
X002718Y033976D01*
X002697Y034095D02*
X001947Y034095D01*
X001947Y034213D02*
X002688Y034213D01*
X002709Y034332D02*
X001947Y034332D01*
X001947Y034451D02*
X002729Y034451D01*
X002768Y034569D02*
X001947Y034569D01*
X001947Y034688D02*
X002837Y034688D01*
X002905Y034806D02*
X001955Y034806D01*
X001980Y034925D02*
X003033Y034925D01*
X003175Y035043D02*
X002011Y035043D01*
X002045Y035162D02*
X003488Y035162D01*
D22*
X005437Y031681D02*
X009687Y027431D01*
X012437Y027431D01*
X012187Y026681D02*
X011687Y026181D01*
X011687Y023181D01*
X011337Y022831D01*
X011337Y022181D01*
X011687Y021831D01*
X011687Y020181D01*
X012687Y020381D02*
X020687Y020381D01*
X020187Y021181D02*
X020687Y021681D01*
X021187Y021181D01*
X022887Y021181D01*
X023687Y021181D02*
X021187Y023681D01*
X021187Y029681D01*
X020187Y030681D01*
X020187Y031681D01*
X021187Y031681D02*
X021187Y030681D01*
X022687Y029181D01*
X021687Y028181D01*
X021687Y024681D01*
X024937Y021431D01*
X024937Y019881D01*
X026687Y018681D02*
X027187Y019181D01*
X027187Y024681D01*
X031187Y028181D02*
X031687Y028681D01*
X031687Y029181D01*
X030687Y029181D02*
X022687Y029181D01*
X020687Y029181D02*
X018187Y031681D01*
X017187Y031681D02*
X018187Y032681D01*
X030487Y032681D01*
X035687Y027481D01*
X035687Y015681D01*
X035187Y015181D01*
X034687Y013181D02*
X034687Y027181D01*
X034187Y027681D01*
X036187Y027681D02*
X036187Y024131D01*
X037387Y022931D01*
X037387Y015931D01*
X038687Y015681D02*
X038687Y022181D01*
X037687Y024931D02*
X039437Y026681D01*
X041637Y026681D01*
X038887Y029181D02*
X037687Y027981D01*
X037687Y026181D01*
X036187Y027681D02*
X030687Y033181D01*
X016487Y033181D01*
X015687Y033181D01*
X014187Y031681D01*
X014387Y032931D02*
X015137Y033681D01*
X032687Y033681D01*
X033937Y032431D01*
X037187Y029181D02*
X038187Y030181D01*
X038187Y032181D01*
X026687Y018681D02*
X022687Y018681D01*
X020187Y016181D01*
X013687Y016181D01*
X010187Y012681D01*
X009187Y012681D02*
X013687Y017181D01*
X018887Y017181D01*
X021187Y015381D02*
X023487Y017681D01*
X029187Y017681D01*
X029187Y017661D01*
X026687Y014681D02*
X026187Y015181D01*
X022687Y015181D01*
X021187Y013681D01*
X021187Y012681D01*
X022187Y011931D02*
X018937Y011931D01*
X018187Y012681D01*
X017187Y012681D02*
X018337Y011531D01*
X022687Y011531D01*
X023387Y012181D02*
X024387Y011181D01*
X024387Y007381D01*
X023687Y006681D01*
X020687Y006681D01*
X016687Y002681D01*
X015687Y002681D02*
X015687Y003681D01*
X015187Y004181D01*
X007187Y004181D01*
X006687Y003681D01*
X006687Y002681D01*
X004187Y009181D02*
X003287Y009181D01*
X004187Y009181D02*
X006737Y011731D01*
X006587Y011881D01*
X005887Y011881D01*
X006487Y012381D02*
X005937Y012931D01*
X005937Y015431D01*
X007687Y013981D02*
X008187Y014481D01*
X008187Y017681D01*
X007687Y013981D02*
X007687Y013431D01*
X007687Y012681D01*
X006737Y011731D01*
X014687Y013681D02*
X015187Y014181D01*
X020887Y014181D01*
X021387Y014681D01*
X023387Y014181D02*
X023387Y012181D01*
X024387Y012181D02*
X024887Y011681D01*
X024887Y006381D01*
X023687Y005181D01*
X025387Y006681D02*
X025387Y012181D01*
X024887Y012681D01*
X024887Y014681D01*
X024387Y014181D02*
X024387Y012181D01*
X025387Y013181D02*
X025887Y012681D01*
X025887Y009981D01*
X027687Y008181D01*
X027687Y006881D01*
X027187Y010681D02*
X030187Y010681D01*
X032687Y010681D01*
X033187Y010181D01*
X033187Y002681D01*
X038187Y002681D02*
X038187Y005181D01*
X039687Y006681D01*
X039687Y009681D01*
X040187Y010181D01*
X040187Y014181D01*
X040687Y014681D01*
X041637Y014681D01*
X039187Y012431D02*
X035437Y012431D01*
X034687Y013181D01*
X027187Y010681D02*
X026687Y011181D01*
X026687Y014681D01*
X025387Y014181D02*
X025387Y013181D01*
X021687Y019181D02*
X022687Y020181D01*
X020687Y021681D02*
X020687Y029181D01*
X020187Y028681D02*
X017187Y031681D01*
X014387Y032931D02*
X008737Y032931D01*
X007487Y031681D01*
X007437Y031681D01*
X009437Y031681D02*
X012937Y028181D01*
X016187Y028181D01*
X016687Y027681D01*
X016687Y025781D01*
X016687Y024181D01*
X017437Y022431D02*
X019687Y024681D01*
X020187Y022181D02*
X020187Y028681D01*
X013187Y026681D02*
X012187Y026681D01*
X009987Y024681D02*
X008237Y026431D01*
X007337Y026431D01*
X007687Y024681D02*
X008687Y024681D01*
X009187Y024181D01*
X010537Y024181D01*
M02*
