G75*
G70*
%OFA0B0*%
%FSLAX24Y24*%
%IPPOS*%
%LPD*%
%AMOC8*
5,1,8,0,0,1.08239X$1,22.5*
%
%ADD10R,0.0532X0.0277*%
%ADD11R,0.1044X0.0847*%
%ADD12R,0.1438X0.0847*%
%ADD13R,0.1438X0.0257*%
%ADD14C,0.0414*%
%ADD15R,0.0320X0.0860*%
%ADD16R,0.0690X0.0572*%
%ADD17R,0.0560X0.0280*%
%ADD18R,0.0280X0.0560*%
%ADD19R,0.0611X0.0690*%
%ADD20R,0.0651X0.0572*%
%ADD21R,0.0532X0.0532*%
%ADD22R,0.0690X0.0611*%
%ADD23R,0.0177X0.0395*%
%ADD24R,0.1005X0.0710*%
%ADD25R,0.0336X0.0170*%
%ADD26R,0.1005X0.0651*%
%ADD27R,0.1005X0.1005*%
%ADD28R,0.0217X0.0651*%
%ADD29R,0.0572X0.0690*%
%ADD30R,0.0572X0.0651*%
%ADD31C,0.0660*%
%ADD32R,0.0760X0.2060*%
%ADD33R,0.0660X0.0360*%
%ADD34R,0.0800X0.0800*%
%ADD35OC8,0.0800*%
%ADD36R,0.0611X0.0454*%
%ADD37R,0.0414X0.0454*%
%ADD38R,0.0414X0.0493*%
%ADD39C,0.0840*%
%ADD40C,0.0800*%
%ADD41R,0.0930X0.0300*%
%ADD42R,0.0454X0.0611*%
%ADD43R,0.0860X0.0320*%
%ADD44OC8,0.0560*%
%ADD45C,0.0600*%
%ADD46C,0.1060*%
%ADD47OC8,0.1060*%
%ADD48R,0.1320X0.0769*%
%ADD49R,0.0395X0.0729*%
%ADD50R,0.0650X0.0850*%
%ADD51R,0.1560X0.0850*%
%ADD52C,0.1155*%
%ADD53R,0.0651X0.0532*%
%ADD54R,0.0532X0.0651*%
%ADD55C,0.1360*%
%ADD56C,0.0496*%
D10*
X004125Y017307D03*
X004125Y018055D03*
X005149Y018055D03*
X005149Y017681D03*
X005149Y017307D03*
D11*
X003506Y024039D03*
X003506Y027583D03*
D12*
X005868Y027583D03*
X005868Y024039D03*
D13*
X005868Y025181D03*
X005868Y025496D03*
X005868Y025811D03*
X005868Y026126D03*
X005872Y026445D03*
D14*
X004687Y026677D03*
X004687Y024945D03*
D15*
X022137Y015641D03*
X022637Y015641D03*
X023137Y015641D03*
X023637Y015641D03*
X024137Y015641D03*
X024637Y015641D03*
X025137Y015641D03*
X025637Y015641D03*
X025637Y013221D03*
X025137Y013221D03*
X024637Y013221D03*
X024137Y013221D03*
X023637Y013221D03*
X023137Y013221D03*
X022637Y013221D03*
X022137Y013221D03*
D16*
X023687Y022287D03*
X023687Y023075D03*
X023687Y024787D03*
X023687Y025575D03*
X011487Y026787D03*
X011487Y027575D03*
X005187Y013075D03*
X005187Y012287D03*
X033137Y013287D03*
X033137Y014075D03*
X034687Y014075D03*
X034687Y013287D03*
D17*
X019377Y021579D03*
X019377Y021894D03*
X019377Y022209D03*
X019377Y022523D03*
X019377Y022838D03*
X019377Y023153D03*
X019377Y023468D03*
X019377Y023783D03*
X015997Y023783D03*
X015997Y023468D03*
X015997Y023153D03*
X015997Y022838D03*
X015997Y022523D03*
X015997Y022209D03*
X015997Y021894D03*
X015997Y021579D03*
D18*
X016585Y020991D03*
X016900Y020991D03*
X017215Y020991D03*
X017530Y020991D03*
X017845Y020991D03*
X018160Y020991D03*
X018474Y020991D03*
X018789Y020991D03*
X018789Y024371D03*
X018474Y024371D03*
X018160Y024371D03*
X017845Y024371D03*
X017530Y024371D03*
X017215Y024371D03*
X016900Y024371D03*
X016585Y024371D03*
D19*
X003187Y016421D03*
X003187Y015240D03*
D20*
X004687Y015307D03*
X004687Y016055D03*
X004187Y014055D03*
X004187Y013307D03*
X007187Y015557D03*
X007187Y016305D03*
X008687Y016305D03*
X008687Y015557D03*
X008687Y005555D03*
X008687Y004807D03*
X009687Y004807D03*
X009687Y005555D03*
X010687Y005555D03*
X010687Y004807D03*
X012687Y004807D03*
X012687Y005555D03*
X019687Y005055D03*
X019687Y004307D03*
X020687Y004307D03*
X020687Y005055D03*
X021687Y005055D03*
X021687Y004307D03*
X024687Y004307D03*
X024687Y005055D03*
X027687Y005307D03*
X027687Y006055D03*
X032187Y007057D03*
X032187Y007805D03*
X032187Y008707D03*
X032187Y009455D03*
X034037Y006755D03*
X034037Y006007D03*
X036687Y011057D03*
X036687Y011805D03*
X026187Y019307D03*
X026187Y020055D03*
X023187Y027957D03*
X023187Y028705D03*
X009437Y028507D03*
X009437Y029255D03*
X008437Y029255D03*
X008437Y028507D03*
D21*
X008437Y027594D03*
X008437Y026768D03*
X009437Y026768D03*
X009437Y027594D03*
X003187Y014094D03*
X003187Y013268D03*
X030524Y020181D03*
X031350Y020181D03*
X033287Y006794D03*
X033287Y005968D03*
X041274Y005181D03*
X042100Y005181D03*
D22*
X003878Y012181D03*
X002697Y012181D03*
D23*
X006293Y013600D03*
X006490Y013600D03*
X006687Y013600D03*
X006884Y013600D03*
X007081Y013600D03*
X007081Y014762D03*
X006884Y014762D03*
X006687Y014762D03*
X006490Y014762D03*
X006293Y014762D03*
D24*
X006687Y014181D03*
D25*
X007278Y014279D03*
X007278Y014083D03*
X006097Y014083D03*
X006097Y014279D03*
D26*
X010437Y015848D03*
X010437Y018014D03*
D27*
X009503Y014431D03*
X011471Y014431D03*
X028687Y024697D03*
X028687Y026665D03*
D28*
X010850Y025608D03*
X010595Y025608D03*
X010339Y025608D03*
X010083Y025608D03*
X009827Y025608D03*
X009571Y025608D03*
X009315Y025608D03*
X009059Y025608D03*
X008803Y025608D03*
X008547Y025608D03*
X008291Y025608D03*
X008036Y025608D03*
X007780Y025608D03*
X007524Y025608D03*
X007524Y022754D03*
X007780Y022754D03*
X008036Y022754D03*
X008291Y022754D03*
X008547Y022754D03*
X008803Y022754D03*
X009059Y022754D03*
X009315Y022754D03*
X009571Y022754D03*
X009827Y022754D03*
X010083Y022754D03*
X010339Y022754D03*
X010595Y022754D03*
X010850Y022754D03*
D29*
X013793Y022831D03*
X014581Y022831D03*
X014581Y024181D03*
X013793Y024181D03*
X006581Y021931D03*
X005793Y021931D03*
X005793Y020681D03*
X006581Y020681D03*
X033993Y020931D03*
X034781Y020931D03*
D30*
X029561Y020181D03*
X028813Y020181D03*
X024061Y019181D03*
X023313Y019181D03*
X023313Y017931D03*
X024061Y017931D03*
X022111Y017931D03*
X021363Y017931D03*
X021363Y017081D03*
X022111Y017081D03*
X033313Y008681D03*
X034061Y008681D03*
X034061Y007831D03*
X033313Y007831D03*
X029561Y006981D03*
X028813Y006981D03*
X028863Y005131D03*
X029611Y005131D03*
X026561Y005181D03*
X025813Y005181D03*
X025813Y004281D03*
X026561Y004281D03*
X037613Y012431D03*
X038361Y012431D03*
X039313Y005181D03*
X040061Y005181D03*
X039561Y025681D03*
X038813Y025681D03*
X039013Y030681D03*
X039761Y030681D03*
X035561Y031531D03*
X034813Y031531D03*
X007311Y029931D03*
X006563Y029931D03*
X006563Y028931D03*
X007311Y028931D03*
D31*
X007687Y020981D02*
X007687Y020381D01*
X008687Y020381D02*
X008687Y020981D01*
X009687Y020981D02*
X009687Y020381D01*
X010687Y020381D02*
X010687Y020981D01*
X041337Y020681D02*
X041937Y020681D01*
X041937Y021681D02*
X041337Y021681D01*
X041337Y022681D02*
X041937Y022681D01*
X041937Y023681D02*
X041337Y023681D01*
X041337Y024681D02*
X041937Y024681D01*
X041937Y025681D02*
X041337Y025681D01*
X041337Y026681D02*
X041937Y026681D01*
X041937Y027681D02*
X041337Y027681D01*
X041337Y028681D02*
X041937Y028681D01*
X041937Y029681D02*
X041337Y029681D01*
X041337Y030681D02*
X041937Y030681D01*
X041937Y031681D02*
X041337Y031681D01*
X041337Y019681D02*
X041937Y019681D01*
X041937Y018681D02*
X041337Y018681D01*
X041337Y017681D02*
X041937Y017681D01*
X041937Y016681D02*
X041337Y016681D01*
X041337Y015681D02*
X041937Y015681D01*
X041937Y014681D02*
X041337Y014681D01*
X041337Y013681D02*
X041937Y013681D01*
X041937Y012681D02*
X041337Y012681D01*
D32*
X021687Y021781D03*
X021687Y025581D03*
D33*
X020187Y019431D03*
X020187Y017931D03*
X018187Y017931D03*
X018187Y019431D03*
D34*
X015187Y026681D03*
X015687Y002681D03*
D35*
X015187Y025681D03*
X014187Y025681D03*
X013187Y025681D03*
X013187Y026681D03*
X014187Y026681D03*
D36*
X036004Y013681D03*
X036870Y013307D03*
X036870Y014055D03*
X036754Y030807D03*
X036754Y031555D03*
X037620Y031181D03*
D37*
X039116Y014016D03*
X039116Y013346D03*
D38*
X040258Y013681D03*
D39*
X038187Y003071D02*
X038187Y002291D01*
X035687Y002291D02*
X035687Y003071D01*
X033187Y003071D02*
X033187Y002291D01*
X028687Y002291D02*
X028687Y003071D01*
X024687Y003071D02*
X024687Y002291D01*
X020687Y002291D02*
X020687Y003071D01*
X012687Y003071D02*
X012687Y002291D01*
X010687Y002291D02*
X010687Y003071D01*
X008687Y003071D02*
X008687Y002291D01*
X006687Y002291D02*
X006687Y003071D01*
X013047Y019681D02*
X013827Y019681D01*
X013827Y021181D02*
X013047Y021181D01*
X012187Y034291D02*
X012187Y035071D01*
X010187Y035071D02*
X010187Y034291D01*
X008187Y034291D02*
X008187Y035071D01*
D40*
X016687Y002681D03*
X017687Y002681D03*
D41*
X033157Y010931D03*
X033157Y011431D03*
X033157Y011931D03*
X033157Y012431D03*
X035217Y012431D03*
X035217Y011931D03*
X035217Y011431D03*
X035217Y010931D03*
D42*
X026411Y018064D03*
X025663Y018064D03*
X026037Y017198D03*
D43*
X033977Y017431D03*
X033977Y017931D03*
X033977Y018431D03*
X033977Y016931D03*
X033977Y016431D03*
X033977Y015931D03*
X033977Y015431D03*
X033977Y014931D03*
X036397Y014931D03*
X036397Y015431D03*
X036397Y015931D03*
X036397Y016431D03*
X036397Y016931D03*
X036397Y017431D03*
X036397Y017931D03*
X036397Y018431D03*
X036397Y021931D03*
X036397Y022431D03*
X036397Y022931D03*
X036397Y023431D03*
X036397Y023931D03*
X036397Y024431D03*
X036397Y024931D03*
X036397Y025431D03*
X033977Y025431D03*
X033977Y024931D03*
X033977Y024431D03*
X033977Y023931D03*
X033977Y023431D03*
X033977Y022931D03*
X033977Y022431D03*
X033977Y021931D03*
D44*
X021187Y012681D03*
X020187Y012681D03*
X019187Y012681D03*
X018187Y012681D03*
X017187Y012681D03*
X016187Y012681D03*
X014187Y012681D03*
X013187Y012681D03*
X012187Y012681D03*
X011187Y012681D03*
X010187Y012681D03*
X009187Y012681D03*
X009437Y031681D03*
X008437Y031681D03*
X007437Y031681D03*
X006437Y031681D03*
X005437Y031681D03*
X010437Y031681D03*
X011437Y031681D03*
X012437Y031681D03*
X014187Y031681D03*
X015187Y031681D03*
X016187Y031681D03*
X017187Y031681D03*
X018187Y031681D03*
X019187Y031681D03*
X020187Y031681D03*
X021187Y031681D03*
D45*
X008187Y017951D02*
X008187Y017411D01*
X007187Y017411D02*
X007187Y017951D01*
D46*
X038687Y009181D03*
D47*
X040687Y009181D03*
X029187Y014701D03*
X029187Y017661D03*
D48*
X035687Y009783D03*
X035687Y007579D03*
D49*
X031274Y021760D03*
X032061Y022941D03*
X030486Y022941D03*
X029699Y021760D03*
X028911Y022941D03*
X028124Y021760D03*
X027337Y022941D03*
X026549Y021760D03*
X025762Y022941D03*
X024974Y021760D03*
X024974Y030421D03*
X025762Y031602D03*
X026549Y030421D03*
X027337Y031602D03*
X028124Y030421D03*
X028911Y031602D03*
X029699Y030421D03*
X030486Y031602D03*
X031274Y030421D03*
X032061Y031602D03*
D50*
X032097Y024441D03*
X031197Y024441D03*
X030297Y024441D03*
D51*
X031187Y026921D03*
D52*
X023087Y009181D03*
X020087Y009181D03*
X006287Y009181D03*
X003287Y009181D03*
D53*
X025666Y006081D03*
X026808Y006081D03*
X028666Y006081D03*
X029808Y006081D03*
D54*
X022687Y005252D03*
X022687Y004110D03*
X011687Y004610D03*
X011687Y005752D03*
X007687Y005752D03*
X007687Y004610D03*
D55*
X003687Y002681D03*
X003687Y034181D03*
X041187Y034181D03*
X041187Y002681D03*
D56*
X031687Y012181D03*
X030187Y010681D03*
X027687Y006881D03*
X025387Y006681D03*
X023687Y005181D03*
X022687Y011531D03*
X022187Y011931D03*
X023387Y014181D03*
X024387Y014181D03*
X024887Y014681D03*
X025387Y014181D03*
X021387Y014681D03*
X021187Y015381D03*
X020187Y015681D03*
X018887Y017181D03*
X020937Y019231D03*
X021687Y019181D03*
X022687Y020181D03*
X022887Y021181D03*
X023687Y021181D03*
X024937Y019881D03*
X020687Y020381D03*
X020187Y021181D03*
X019437Y020931D03*
X018687Y022031D03*
X017437Y022431D03*
X016687Y021681D03*
X015237Y022731D03*
X015237Y022731D03*
X014337Y021781D03*
X014887Y021181D03*
X012687Y020381D03*
X011687Y019181D03*
X010187Y021531D03*
X011187Y021681D03*
X012187Y022431D03*
X012987Y024181D03*
X010537Y024181D03*
X009987Y024681D03*
X008187Y024181D03*
X007687Y024681D03*
X007337Y026431D03*
X007687Y028231D03*
X010937Y028931D03*
X012437Y027431D03*
X015937Y024431D03*
X017187Y023681D03*
X017937Y023631D03*
X019687Y024681D03*
X016687Y025781D03*
X016687Y025781D03*
X020187Y022181D03*
X027187Y024681D03*
X029687Y023181D03*
X033187Y020181D03*
X037387Y022931D03*
X038687Y022181D03*
X037687Y024931D03*
X037687Y026181D03*
X040187Y024931D03*
X038887Y029181D03*
X037187Y029181D03*
X035687Y030681D03*
X033937Y032431D03*
X032437Y032681D03*
X031687Y029181D03*
X030687Y029181D03*
X031187Y028181D03*
X034187Y027681D03*
X038187Y032181D03*
X023687Y030681D03*
X021187Y029681D03*
X008837Y021681D03*
X004687Y021931D03*
X006187Y017181D03*
X005937Y015431D03*
X003937Y014781D03*
X006487Y012381D03*
X005887Y011881D03*
X007687Y013431D03*
X007687Y013431D03*
X008187Y014481D03*
X009687Y016931D03*
X013687Y017181D03*
X014687Y013681D03*
X035187Y015181D03*
X037387Y015931D03*
X038687Y015681D03*
X038187Y013681D03*
X039187Y012431D03*
X038187Y018681D03*
M02*
