%
M48
M72
T01C0.0236
T02C0.0315
T03C0.0320
T04C0.0354
T05C0.0360
T06C0.0400
T07C0.0520
T08C0.0730
T09C0.1300
%
T01
X5887Y11881
X6487Y12381
X7687Y13431
X7687Y13431
X8187Y14481
X5937Y15431
X6187Y17181
X3937Y14781
X9687Y16931
X11687Y19181
X12487Y20381
X12887Y20831
X14187Y21731
X14887Y21631
X15237Y22731
X15237Y22731
X16687Y21681
X17387Y21681
X17937Y21681
X18687Y22031
X17687Y22681
X18687Y22831
X17937Y23631
X17187Y23681
X15937Y24431
X16687Y25781
X16687Y25781
X19687Y24681
X20437Y22181
X20187Y21181
X19337Y20931
X20687Y20381
X20937Y19231
X21687Y19181
X22687Y20181
X22887Y21181
X23687Y21181
X24937Y20081
X25937Y20931
X26687Y20681
X27837Y18581
X30687Y17181
X33187Y17431
X35187Y15181
X35587Y14431
X37387Y15931
X38687Y15681
X38187Y13681
X39187Y12431
X38187Y18681
X38687Y22181
X37387Y22931
X37687Y24931
X37687Y26181
X40187Y24931
X38887Y29181
X37187Y29181
X35687Y30681
X33937Y32431
X32437Y32681
X31687Y29181
X30687Y29181
X31187Y28181
X34187Y27681
X38187Y32181
X29687Y23181
X27187Y24681
X21187Y29681
X23687Y30681
X13187Y22681
X12187Y22431
X11187Y21681
X10187Y21531
X8837Y21681
X8187Y24181
X7687Y24681
X7337Y26431
X7687Y28231
X10937Y28931
X12437Y27431
X9987Y24681
X10537Y24181
X12987Y24181
X17487Y19881
X19437Y17981
X18887Y17181
X17187Y16681
X17187Y15681
X16087Y17631
X16087Y17631
X16987Y17931
X16987Y17931
X14687Y16681
X14787Y15681
X13387Y17181
X14687Y13681
X20187Y15681
X21187Y15381
X21387Y14681
X23387Y14181
X24387Y14181
X24887Y14681
X25387Y14181
X22687Y11531
X22187Y11931
X27687Y6881
X25387Y6681
X30187Y10681
X31687Y12181
X31187Y13681
X23937Y16931
X33187Y20181
X4687Y21931
T02
X9187Y12681
X10187Y12681
X11187Y12681
X12187Y12681
X13187Y12681
X14187Y12681
X16187Y12681
X17187Y12681
X18187Y12681
X19187Y12681
X20187Y12681
X21187Y12681
X21187Y31681
X20187Y31681
X19187Y31681
X18187Y31681
X17187Y31681
X16187Y31681
X15187Y31681
X14187Y31681
X12437Y31681
X11437Y31681
X10437Y31681
X9437Y31681
X8437Y31681
X7437Y31681
X6437Y31681
X5437Y31681
T03
X14187Y5381
X18187Y5381
T04
X4687Y24945
X4687Y26677
T05
X7187Y17681
X8187Y17681
T06
X7687Y20681
X8687Y20681
X9687Y20681
X10687Y20681
X13187Y25681
X14187Y25681
X15187Y25681
X15187Y26681
X14187Y26681
X13187Y26681
X29187Y17661
X29187Y14701
X38687Y9181
X40687Y9181
X41637Y12681
X41637Y13681
X41637Y14681
X41637Y15681
X41637Y16681
X41637Y17681
X41637Y18681
X41637Y19681
X41637Y20681
X41637Y21681
X41637Y22681
X41637Y23681
X41637Y24681
X41637Y25681
X41637Y26681
X41637Y27681
X41637Y28681
X41637Y29681
X41637Y30681
X41637Y31681
X22187Y2681
X21187Y2681
X20187Y2681
X17687Y2681
X16687Y2681
X15687Y2681
T07
X12687Y2681
X10687Y2681
X8687Y2681
X6687Y2681
X24687Y2681
X28687Y2681
X33187Y2681
X35687Y2681
X38187Y2681
X12187Y34681
X10187Y34681
X8187Y34681
T08
X6287Y9181
X3287Y9181
X20087Y9181
X23087Y9181
T09
X3687Y2681
X3687Y34181
X41187Y34181
X41187Y2681
M30
