G75*
G70*
%OFA0B0*%
%FSLAX24Y24*%
%IPPOS*%
%LPD*%
%AMOC8*
5,1,8,0,0,1.08239X$1,22.5*
%
%ADD10C,0.0434*%
%ADD11C,0.0720*%
%ADD12R,0.0820X0.0820*%
%ADD13OC8,0.0820*%
%ADD14C,0.0860*%
%ADD15C,0.0820*%
%ADD16OC8,0.0635*%
%ADD17C,0.0680*%
%ADD18C,0.1080*%
%ADD19OC8,0.1080*%
%ADD20C,0.1175*%
%ADD21C,0.1380*%
%ADD22C,0.0640*%
D10*
X004687Y024945D03*
X004687Y026677D03*
D11*
X007687Y021001D02*
X007687Y020361D01*
X008687Y020361D02*
X008687Y021001D01*
X009687Y021001D02*
X009687Y020361D01*
X010687Y020361D02*
X010687Y021001D01*
X041317Y020681D02*
X041957Y020681D01*
X041957Y021681D02*
X041317Y021681D01*
X041317Y022681D02*
X041957Y022681D01*
X041957Y023681D02*
X041317Y023681D01*
X041317Y024681D02*
X041957Y024681D01*
X041957Y025681D02*
X041317Y025681D01*
X041317Y026681D02*
X041957Y026681D01*
X041957Y027681D02*
X041317Y027681D01*
X041317Y028681D02*
X041957Y028681D01*
X041957Y029681D02*
X041317Y029681D01*
X041317Y030681D02*
X041957Y030681D01*
X041957Y031681D02*
X041317Y031681D01*
X041317Y019681D02*
X041957Y019681D01*
X041957Y018681D02*
X041317Y018681D01*
X041317Y017681D02*
X041957Y017681D01*
X041957Y016681D02*
X041317Y016681D01*
X041317Y015681D02*
X041957Y015681D01*
X041957Y014681D02*
X041317Y014681D01*
X041317Y013681D02*
X041957Y013681D01*
X041957Y012681D02*
X041317Y012681D01*
D12*
X020187Y002681D03*
X015687Y002681D03*
X015187Y026681D03*
D13*
X014187Y026681D03*
X013187Y026681D03*
X013187Y025681D03*
X014187Y025681D03*
X015187Y025681D03*
D14*
X012187Y034291D02*
X012187Y035071D01*
X010187Y035071D02*
X010187Y034291D01*
X008187Y034291D02*
X008187Y035071D01*
X008687Y003071D02*
X008687Y002291D01*
X006687Y002291D02*
X006687Y003071D01*
X010687Y003071D02*
X010687Y002291D01*
X012687Y002291D02*
X012687Y003071D01*
X024687Y003071D02*
X024687Y002291D01*
X028687Y002291D02*
X028687Y003071D01*
X033187Y003071D02*
X033187Y002291D01*
X035687Y002291D02*
X035687Y003071D01*
X038187Y003071D02*
X038187Y002291D01*
D15*
X022187Y002681D03*
X021187Y002681D03*
X017687Y002681D03*
X016687Y002681D03*
D16*
X016187Y012681D03*
X017187Y012681D03*
X018187Y012681D03*
X019187Y012681D03*
X020187Y012681D03*
X021187Y012681D03*
X014187Y012681D03*
X013187Y012681D03*
X012187Y012681D03*
X011187Y012681D03*
X010187Y012681D03*
X009187Y012681D03*
X009437Y031681D03*
X008437Y031681D03*
X007437Y031681D03*
X006437Y031681D03*
X005437Y031681D03*
X010437Y031681D03*
X011437Y031681D03*
X012437Y031681D03*
X014187Y031681D03*
X015187Y031681D03*
X016187Y031681D03*
X017187Y031681D03*
X018187Y031681D03*
X019187Y031681D03*
X020187Y031681D03*
X021187Y031681D03*
D17*
X008187Y017981D02*
X008187Y017381D01*
X007187Y017381D02*
X007187Y017981D01*
D18*
X038687Y009181D03*
D19*
X040687Y009181D03*
X029187Y014701D03*
X029187Y017661D03*
D20*
X023087Y009181D03*
X020087Y009181D03*
X006287Y009181D03*
X003287Y009181D03*
D21*
X003687Y002681D03*
X003687Y034181D03*
X041187Y034181D03*
X041187Y002681D03*
D22*
X018467Y005381D02*
X017907Y005381D01*
X014467Y005381D02*
X013907Y005381D01*
M02*
