G75*
G70*
%OFA0B0*%
%FSLAX24Y24*%
%IPPOS*%
%LPD*%
%AMOC8*
5,1,8,0,0,1.08239X$1,22.5*
%
%ADD10C,0.0640*%
%ADD11R,0.0740X0.0740*%
%ADD12OC8,0.0740*%
%ADD13C,0.0780*%
%ADD14C,0.0740*%
%ADD15OC8,0.0555*%
%ADD16C,0.0600*%
%ADD17C,0.1000*%
%ADD18OC8,0.1000*%
%ADD19C,0.1095*%
%ADD20C,0.0560*%
%ADD21C,0.0436*%
%ADD22C,0.0120*%
%ADD23C,0.0160*%
D10*
X007687Y020361D02*
X007687Y021001D01*
X008687Y021001D02*
X008687Y020361D01*
X009687Y020361D02*
X009687Y021001D01*
X010687Y021001D02*
X010687Y020361D01*
X041317Y020681D02*
X041957Y020681D01*
X041957Y021681D02*
X041317Y021681D01*
X041317Y022681D02*
X041957Y022681D01*
X041957Y023681D02*
X041317Y023681D01*
X041317Y024681D02*
X041957Y024681D01*
X041957Y025681D02*
X041317Y025681D01*
X041317Y026681D02*
X041957Y026681D01*
X041957Y027681D02*
X041317Y027681D01*
X041317Y028681D02*
X041957Y028681D01*
X041957Y029681D02*
X041317Y029681D01*
X041317Y030681D02*
X041957Y030681D01*
X041957Y031681D02*
X041317Y031681D01*
X041317Y019681D02*
X041957Y019681D01*
X041957Y018681D02*
X041317Y018681D01*
X041317Y017681D02*
X041957Y017681D01*
X041957Y016681D02*
X041317Y016681D01*
X041317Y015681D02*
X041957Y015681D01*
X041957Y014681D02*
X041317Y014681D01*
X041317Y013681D02*
X041957Y013681D01*
X041957Y012681D02*
X041317Y012681D01*
D11*
X020187Y002681D03*
X015687Y002681D03*
X015187Y026681D03*
D12*
X014187Y026681D03*
X013187Y026681D03*
X013187Y025681D03*
X014187Y025681D03*
X015187Y025681D03*
D13*
X012187Y034291D02*
X012187Y035071D01*
X010187Y035071D02*
X010187Y034291D01*
X008187Y034291D02*
X008187Y035071D01*
X008687Y003071D02*
X008687Y002291D01*
X006687Y002291D02*
X006687Y003071D01*
X010687Y003071D02*
X010687Y002291D01*
X012687Y002291D02*
X012687Y003071D01*
X024687Y003071D02*
X024687Y002291D01*
X028687Y002291D02*
X028687Y003071D01*
X033187Y003071D02*
X033187Y002291D01*
X035687Y002291D02*
X035687Y003071D01*
X038187Y003071D02*
X038187Y002291D01*
D14*
X022187Y002681D03*
X021187Y002681D03*
X017687Y002681D03*
X016687Y002681D03*
D15*
X016187Y012681D03*
X017187Y012681D03*
X018187Y012681D03*
X019187Y012681D03*
X020187Y012681D03*
X021187Y012681D03*
X014187Y012681D03*
X013187Y012681D03*
X012187Y012681D03*
X011187Y012681D03*
X010187Y012681D03*
X009187Y012681D03*
X009437Y031681D03*
X008437Y031681D03*
X007437Y031681D03*
X006437Y031681D03*
X005437Y031681D03*
X010437Y031681D03*
X011437Y031681D03*
X012437Y031681D03*
X014187Y031681D03*
X015187Y031681D03*
X016187Y031681D03*
X017187Y031681D03*
X018187Y031681D03*
X019187Y031681D03*
X020187Y031681D03*
X021187Y031681D03*
D16*
X008187Y017981D02*
X008187Y017381D01*
X007187Y017381D02*
X007187Y017981D01*
D17*
X038687Y009181D03*
D18*
X040687Y009181D03*
X029187Y014701D03*
X029187Y017661D03*
D19*
X023087Y009181D03*
X020087Y009181D03*
X006287Y009181D03*
X003287Y009181D03*
D20*
X013907Y005381D02*
X014467Y005381D01*
X017907Y005381D02*
X018467Y005381D01*
D21*
X025387Y006681D03*
X027687Y006881D03*
X030187Y010681D03*
X031687Y012181D03*
X031187Y013681D03*
X030687Y017181D03*
X033187Y017431D03*
X035187Y015181D03*
X035587Y014431D03*
X037387Y015931D03*
X038687Y015681D03*
X038187Y013681D03*
X039187Y012431D03*
X038187Y018681D03*
X038687Y022181D03*
X037387Y022931D03*
X037687Y024931D03*
X037687Y026181D03*
X040187Y024931D03*
X038887Y029181D03*
X037187Y029181D03*
X035687Y030681D03*
X033937Y032431D03*
X032437Y032681D03*
X031687Y029181D03*
X030687Y029181D03*
X031187Y028181D03*
X034187Y027681D03*
X038187Y032181D03*
X029687Y023181D03*
X027187Y024681D03*
X025937Y020931D03*
X026687Y020681D03*
X024937Y020081D03*
X023687Y021181D03*
X022887Y021181D03*
X022687Y020181D03*
X021687Y019181D03*
X020937Y019231D03*
X020687Y020381D03*
X020187Y021181D03*
X019337Y020931D03*
X018687Y022031D03*
X017937Y021681D03*
X017387Y021681D03*
X016687Y021681D03*
X017687Y022681D03*
X018687Y022831D03*
X017937Y023631D03*
X017187Y023681D03*
X015937Y024431D03*
X016687Y025681D03*
X019687Y024681D03*
X020437Y022181D03*
X017487Y019881D03*
X019437Y017981D03*
X018887Y017181D03*
X017187Y016681D03*
X017187Y015681D03*
X016087Y017631D03*
X016987Y017931D03*
X014687Y016681D03*
X014787Y015681D03*
X013387Y017181D03*
X011687Y019181D03*
X012487Y020381D03*
X012887Y020831D03*
X014187Y021731D03*
X014887Y021631D03*
X015237Y022731D03*
X013187Y022681D03*
X012187Y022431D03*
X011187Y021681D03*
X010187Y021531D03*
X008837Y021681D03*
X008187Y024181D03*
X007687Y024681D03*
X007337Y026431D03*
X007687Y028231D03*
X010937Y028931D03*
X012437Y027431D03*
X009987Y024681D03*
X010537Y024181D03*
X012987Y024181D03*
X009687Y016931D03*
X008187Y014481D03*
X007687Y013431D03*
X006487Y012381D03*
X005887Y011881D03*
X003937Y014781D03*
X005937Y015431D03*
X006187Y017181D03*
X004687Y021931D03*
X014687Y013681D03*
X020187Y015681D03*
X021187Y015381D03*
X021387Y014681D03*
X023387Y014181D03*
X024387Y014181D03*
X024887Y014681D03*
X025387Y014181D03*
X022687Y011531D03*
X022187Y011931D03*
X023937Y016931D03*
X027837Y018581D03*
X033187Y020181D03*
X021187Y029681D03*
X023687Y030681D03*
D22*
X002004Y001691D02*
X002172Y001402D01*
X002408Y001165D01*
X002697Y000998D01*
X003020Y000912D01*
X003187Y000901D01*
X003278Y000901D01*
X041596Y000901D01*
X041687Y000901D01*
X041854Y000912D01*
X042177Y000998D01*
X042466Y001165D01*
X042703Y001402D01*
X042870Y001691D01*
X042870Y001691D01*
X042956Y002014D01*
X042967Y002181D01*
X042967Y002272D01*
X042967Y034590D01*
X042967Y034681D01*
X042956Y034848D01*
X042870Y035171D01*
X042703Y035460D01*
X042466Y035696D01*
X042177Y035864D01*
X041854Y035950D01*
X041687Y035961D01*
X041596Y035961D01*
X003278Y035961D01*
X003187Y035961D01*
X003020Y035950D01*
X002697Y035864D01*
X002408Y035696D01*
X002172Y035460D01*
X002004Y035171D01*
X001918Y034848D01*
X001907Y034681D01*
X001907Y034590D01*
X001907Y002272D01*
X001907Y002181D01*
X001918Y002014D01*
X002004Y001691D01*
X001993Y001733D02*
X003398Y001733D01*
X003512Y001691D02*
X003184Y001810D01*
X003184Y001810D01*
X002917Y002035D01*
X002917Y002035D01*
X002742Y002337D01*
X002742Y002337D01*
X002682Y002681D01*
X001907Y002681D01*
X001907Y002799D02*
X002703Y002799D01*
X002682Y002681D02*
X002682Y002681D01*
X002742Y003025D01*
X002742Y003025D01*
X002917Y003327D01*
X002917Y003327D01*
X002917Y003327D01*
X003184Y003551D01*
X003184Y003551D01*
X003512Y003671D01*
X003513Y003671D01*
X003635Y003671D01*
X003635Y003671D01*
X003686Y003671D01*
X003687Y003671D01*
X003739Y003671D01*
X003739Y003671D01*
X003862Y003671D01*
X003862Y003671D01*
X004190Y003551D01*
X004190Y003551D01*
X004457Y003327D01*
X004457Y003327D01*
X004632Y003025D01*
X004632Y003025D01*
X004692Y002681D01*
X006077Y002681D01*
X006077Y002799D02*
X004671Y002799D01*
X004692Y002681D02*
X004692Y002681D01*
X004632Y002337D01*
X004632Y002337D01*
X004457Y002035D01*
X004457Y002035D01*
X004457Y002035D01*
X004190Y001810D01*
X004190Y001810D01*
X003862Y001691D01*
X003862Y001691D01*
X003739Y001691D01*
X003739Y001691D01*
X003687Y001691D01*
X003661Y001691D01*
X003635Y001691D01*
X003635Y001691D01*
X003513Y001691D01*
X003512Y001691D01*
X003136Y001851D02*
X001962Y001851D01*
X001930Y001970D02*
X002995Y001970D01*
X002886Y002088D02*
X001913Y002088D01*
X001907Y002207D02*
X002818Y002207D01*
X002749Y002325D02*
X001907Y002325D01*
X001907Y002444D02*
X002724Y002444D01*
X002703Y002562D02*
X001907Y002562D01*
X001907Y002918D02*
X002724Y002918D01*
X002749Y003037D02*
X001907Y003037D01*
X001907Y003155D02*
X002818Y003155D01*
X002886Y003274D02*
X001907Y003274D01*
X001907Y003392D02*
X002995Y003392D01*
X003136Y003511D02*
X001907Y003511D01*
X001907Y003629D02*
X003398Y003629D01*
X003976Y003629D02*
X006441Y003629D01*
X006342Y003588D02*
X006170Y003416D01*
X006077Y003192D01*
X006077Y002170D01*
X006170Y001945D01*
X006342Y001774D01*
X006566Y001681D01*
X006808Y001681D01*
X007033Y001774D01*
X007204Y001945D01*
X007297Y002170D01*
X007297Y002867D01*
X008311Y003881D01*
X012927Y003881D01*
X013047Y003881D01*
X013157Y003927D01*
X014111Y004881D01*
X014313Y004881D01*
X015387Y003807D01*
X015387Y003271D01*
X015226Y003271D01*
X015097Y003142D01*
X015097Y002220D01*
X015226Y002091D01*
X016148Y002091D01*
X016277Y002220D01*
X016277Y002257D01*
X016353Y002181D01*
X016570Y002091D01*
X016804Y002091D01*
X017021Y002181D01*
X017187Y002347D01*
X017221Y002428D01*
X017234Y002403D01*
X017283Y002336D01*
X017342Y002277D01*
X017409Y002228D01*
X017484Y002190D01*
X017563Y002164D01*
X017645Y002151D01*
X017647Y002151D01*
X017647Y002641D01*
X017727Y002641D01*
X017727Y002721D01*
X017647Y002721D01*
X017647Y003211D01*
X017645Y003211D01*
X017640Y003210D01*
X018811Y004381D01*
X021747Y004381D01*
X021857Y004427D01*
X021941Y004511D01*
X024587Y007157D01*
X024587Y006505D01*
X021339Y003257D01*
X021304Y003271D01*
X021070Y003271D01*
X020853Y003181D01*
X020777Y003105D01*
X020777Y003142D01*
X020648Y003271D01*
X019726Y003271D01*
X019597Y003142D01*
X019597Y002220D01*
X019726Y002091D01*
X020648Y002091D01*
X020777Y002220D01*
X020777Y002257D01*
X020853Y002181D01*
X021070Y002091D01*
X021304Y002091D01*
X021521Y002181D01*
X021687Y002347D01*
X021721Y002428D01*
X021734Y002403D01*
X021783Y002336D01*
X021842Y002277D01*
X021909Y002228D01*
X021984Y002190D01*
X022063Y002164D01*
X022145Y002151D01*
X022147Y002151D01*
X022147Y002641D01*
X022227Y002641D01*
X022227Y002721D01*
X022147Y002721D01*
X022147Y003211D01*
X022145Y003211D01*
X022140Y003210D01*
X025141Y006211D01*
X025176Y006294D01*
X025300Y006243D01*
X025474Y006243D01*
X025635Y006310D01*
X025758Y006433D01*
X025825Y006594D01*
X025825Y006768D01*
X025758Y006929D01*
X025687Y007001D01*
X025687Y009757D01*
X027387Y008057D01*
X027387Y007201D01*
X027316Y007129D01*
X027249Y006968D01*
X027249Y006794D01*
X027316Y006633D01*
X027439Y006510D01*
X027600Y006443D01*
X027774Y006443D01*
X027935Y006510D01*
X028058Y006633D01*
X028125Y006794D01*
X028125Y006968D01*
X028058Y007129D01*
X027987Y007201D01*
X027987Y008241D01*
X027941Y008351D01*
X027857Y008435D01*
X026187Y010105D01*
X026187Y012741D01*
X026141Y012851D01*
X026057Y012935D01*
X025687Y013305D01*
X025687Y013861D01*
X025758Y013933D01*
X025825Y014094D01*
X025825Y014268D01*
X025758Y014429D01*
X025635Y014552D01*
X025474Y014619D01*
X025325Y014619D01*
X025325Y014768D01*
X025278Y014881D01*
X026063Y014881D01*
X026387Y014557D01*
X026387Y011241D01*
X026387Y011121D01*
X026433Y011011D01*
X026933Y010511D01*
X027017Y010427D01*
X027127Y010381D01*
X029868Y010381D01*
X029939Y010310D01*
X030100Y010243D01*
X030274Y010243D01*
X030435Y010310D01*
X030507Y010381D01*
X032563Y010381D01*
X032887Y010057D01*
X032887Y003607D01*
X032842Y003588D01*
X032670Y003416D01*
X032577Y003192D01*
X032577Y002170D01*
X032670Y001945D01*
X032842Y001774D01*
X033066Y001681D01*
X033308Y001681D01*
X033533Y001774D01*
X033704Y001945D01*
X033797Y002170D01*
X033797Y003192D01*
X033704Y003416D01*
X033533Y003588D01*
X033487Y003607D01*
X033487Y010241D01*
X033441Y010351D01*
X033357Y010435D01*
X032941Y010851D01*
X032857Y010935D01*
X032747Y010981D01*
X030507Y010981D01*
X030435Y011052D01*
X030274Y011119D01*
X030100Y011119D01*
X029939Y011052D01*
X029868Y010981D01*
X027311Y010981D01*
X026987Y011305D01*
X026987Y014741D01*
X026941Y014851D01*
X026857Y014935D01*
X026357Y015435D01*
X026247Y015481D01*
X026127Y015481D01*
X022627Y015481D01*
X022517Y015435D01*
X022433Y015351D01*
X021825Y014743D01*
X021825Y014768D01*
X021758Y014929D01*
X021635Y015052D01*
X021524Y015098D01*
X021558Y015133D01*
X021625Y015294D01*
X021625Y015395D01*
X023611Y017381D01*
X027063Y017381D01*
X027933Y016511D01*
X028017Y016427D01*
X028127Y016381D01*
X030127Y016381D01*
X030247Y016381D01*
X030357Y016427D01*
X030673Y016743D01*
X030701Y016743D01*
X030887Y016557D01*
X030887Y014001D01*
X030816Y013929D01*
X030749Y013768D01*
X030749Y013594D01*
X030816Y013433D01*
X030939Y013310D01*
X031100Y013243D01*
X031274Y013243D01*
X031435Y013310D01*
X031558Y013433D01*
X031625Y013594D01*
X031625Y013768D01*
X031558Y013929D01*
X031487Y014001D01*
X031487Y016621D01*
X031487Y016741D01*
X031441Y016851D01*
X031125Y017167D01*
X031125Y017268D01*
X031058Y017429D01*
X030935Y017552D01*
X030774Y017619D01*
X030600Y017619D01*
X030439Y017552D01*
X030316Y017429D01*
X030249Y017268D01*
X030249Y017167D01*
X030063Y016981D01*
X029525Y016981D01*
X029907Y017363D01*
X029907Y017959D01*
X029585Y018281D01*
X031913Y018281D01*
X032749Y017445D01*
X032749Y017344D01*
X032816Y017183D01*
X032939Y017060D01*
X033100Y016993D01*
X033274Y016993D01*
X033435Y017060D01*
X033558Y017183D01*
X033625Y017344D01*
X033625Y017518D01*
X033558Y017679D01*
X033435Y017802D01*
X033274Y017869D01*
X033173Y017869D01*
X032207Y018835D01*
X032097Y018881D01*
X031977Y018881D01*
X028157Y018881D01*
X028085Y018952D01*
X027924Y019019D01*
X027750Y019019D01*
X027589Y018952D01*
X027466Y018829D01*
X027399Y018668D01*
X027399Y018494D01*
X027466Y018333D01*
X027589Y018210D01*
X027750Y018143D01*
X027924Y018143D01*
X028085Y018210D01*
X028157Y018281D01*
X028789Y018281D01*
X028467Y017959D01*
X028467Y017363D01*
X028849Y016981D01*
X028311Y016981D01*
X027357Y017935D01*
X027247Y017981D01*
X027127Y017981D01*
X023547Y017981D01*
X023427Y017981D01*
X023317Y017935D01*
X021201Y015819D01*
X021100Y015819D01*
X020939Y015752D01*
X020816Y015629D01*
X020749Y015468D01*
X020749Y015339D01*
X020371Y014961D01*
X013131Y014961D01*
X013028Y014918D01*
X012950Y014840D01*
X011289Y013178D01*
X011109Y013178D01*
X013811Y015881D01*
X014396Y015881D01*
X014349Y015768D01*
X014349Y015594D01*
X014416Y015433D01*
X014539Y015310D01*
X014700Y015243D01*
X014874Y015243D01*
X015035Y015310D01*
X015107Y015381D01*
X016867Y015381D01*
X016939Y015310D01*
X017100Y015243D01*
X017274Y015243D01*
X017435Y015310D01*
X017558Y015433D01*
X017625Y015594D01*
X017625Y015768D01*
X017578Y015881D01*
X020247Y015881D01*
X020357Y015927D01*
X020441Y016011D01*
X022811Y018381D01*
X026627Y018381D01*
X026747Y018381D01*
X026857Y018427D01*
X027357Y018927D01*
X027441Y019011D01*
X027487Y019121D01*
X027487Y024361D01*
X027558Y024433D01*
X027625Y024594D01*
X027625Y024768D01*
X027558Y024929D01*
X027435Y025052D01*
X027274Y025119D01*
X027100Y025119D01*
X026939Y025052D01*
X026816Y024929D01*
X026749Y024768D01*
X026749Y024594D01*
X026816Y024433D01*
X026887Y024361D01*
X026887Y021072D01*
X026774Y021119D01*
X026600Y021119D01*
X026439Y021052D01*
X026375Y020989D01*
X026375Y021018D01*
X026308Y021179D01*
X026185Y021302D01*
X026024Y021369D01*
X025850Y021369D01*
X025689Y021302D01*
X025566Y021179D01*
X025499Y021018D01*
X025499Y020844D01*
X025566Y020683D01*
X025657Y020591D01*
X025657Y020047D01*
X025421Y019811D01*
X025287Y019811D01*
X025308Y019833D01*
X025375Y019994D01*
X025375Y020168D01*
X025308Y020329D01*
X025237Y020401D01*
X025237Y021371D01*
X025237Y021491D01*
X025191Y021601D01*
X021987Y024805D01*
X021987Y028057D01*
X022811Y028881D01*
X030367Y028881D01*
X030439Y028810D01*
X030600Y028743D01*
X030774Y028743D01*
X030935Y028810D01*
X031058Y028933D01*
X031125Y029094D01*
X031125Y029268D01*
X031058Y029429D01*
X030935Y029552D01*
X030774Y029619D01*
X030600Y029619D01*
X030439Y029552D01*
X030367Y029481D01*
X022811Y029481D01*
X021487Y030805D01*
X021487Y031277D01*
X021685Y031475D01*
X021685Y031887D01*
X021393Y032178D01*
X020981Y032178D01*
X020690Y031887D01*
X020690Y031475D01*
X020887Y031277D01*
X020887Y030741D01*
X020887Y030621D01*
X020933Y030511D01*
X021361Y030083D01*
X021274Y030119D01*
X021173Y030119D01*
X020487Y030805D01*
X020487Y031277D01*
X020685Y031475D01*
X020685Y031887D01*
X020393Y032178D01*
X019981Y032178D01*
X019690Y031887D01*
X019690Y031475D01*
X019887Y031277D01*
X019887Y030741D01*
X019887Y030621D01*
X019933Y030511D01*
X020749Y029695D01*
X020749Y029594D01*
X020785Y029507D01*
X019109Y031183D01*
X019393Y031183D01*
X019685Y031475D01*
X019685Y031887D01*
X019393Y032178D01*
X018981Y032178D01*
X018690Y031887D01*
X018690Y031603D01*
X018685Y031608D01*
X018685Y031887D01*
X018393Y032178D01*
X018109Y032178D01*
X018311Y032381D01*
X030363Y032381D01*
X035387Y027357D01*
X035387Y015805D01*
X035201Y015619D01*
X035100Y015619D01*
X034987Y015572D01*
X034987Y027121D01*
X034987Y027241D01*
X034941Y027351D01*
X034625Y027667D01*
X034625Y027768D01*
X034558Y027929D01*
X034435Y028052D01*
X034274Y028119D01*
X034100Y028119D01*
X033939Y028052D01*
X033816Y027929D01*
X033749Y027768D01*
X033749Y027594D01*
X033816Y027433D01*
X033939Y027310D01*
X034100Y027243D01*
X034201Y027243D01*
X034387Y027057D01*
X034387Y013121D01*
X034433Y013011D01*
X034517Y012927D01*
X035183Y012261D01*
X035267Y012177D01*
X035377Y012131D01*
X038867Y012131D01*
X038939Y012060D01*
X039100Y011993D01*
X039274Y011993D01*
X039435Y012060D01*
X039558Y012183D01*
X039625Y012344D01*
X039625Y012518D01*
X039558Y012679D01*
X039435Y012802D01*
X039274Y012869D01*
X039100Y012869D01*
X038939Y012802D01*
X038867Y012731D01*
X035561Y012731D01*
X034987Y013305D01*
X034987Y014790D01*
X035100Y014743D01*
X035274Y014743D01*
X035435Y014810D01*
X035558Y014933D01*
X035625Y015094D01*
X035625Y015195D01*
X035941Y015511D01*
X035987Y015621D01*
X035987Y015741D01*
X035987Y023907D01*
X036949Y022945D01*
X036949Y022844D01*
X037016Y022683D01*
X037087Y022611D01*
X037087Y016251D01*
X037016Y016179D01*
X036949Y016018D01*
X036949Y015844D01*
X037016Y015683D01*
X037139Y015560D01*
X037300Y015493D01*
X037474Y015493D01*
X037635Y015560D01*
X037758Y015683D01*
X037825Y015844D01*
X037825Y016018D01*
X037758Y016179D01*
X037687Y016251D01*
X037687Y022611D01*
X037758Y022683D01*
X037825Y022844D01*
X037825Y023018D01*
X037758Y023179D01*
X037635Y023302D01*
X037474Y023369D01*
X037373Y023369D01*
X036487Y024255D01*
X036487Y024485D01*
X038407Y022565D01*
X038407Y022521D01*
X038316Y022429D01*
X038249Y022268D01*
X038249Y022094D01*
X038316Y021933D01*
X038387Y021861D01*
X038387Y016001D01*
X038316Y015929D01*
X038249Y015768D01*
X038249Y015594D01*
X038316Y015433D01*
X038439Y015310D01*
X038600Y015243D01*
X038774Y015243D01*
X038907Y015298D01*
X038907Y014797D01*
X038229Y014119D01*
X038100Y014119D01*
X037939Y014052D01*
X037816Y013929D01*
X037749Y013768D01*
X037749Y013594D01*
X037816Y013433D01*
X037939Y013310D01*
X038100Y013243D01*
X038274Y013243D01*
X038435Y013310D01*
X038558Y013433D01*
X038625Y013594D01*
X038625Y013723D01*
X039346Y014444D01*
X039424Y014522D01*
X039467Y014625D01*
X039467Y022625D01*
X039467Y022737D01*
X039424Y022840D01*
X037771Y024493D01*
X037774Y024493D01*
X037935Y024560D01*
X038058Y024683D01*
X038125Y024844D01*
X038125Y024945D01*
X039561Y026381D01*
X040857Y026381D01*
X040859Y026375D01*
X041011Y026223D01*
X041113Y026181D01*
X041011Y026139D01*
X040859Y025987D01*
X040777Y025788D01*
X040777Y025574D01*
X040859Y025375D01*
X041011Y025223D01*
X041113Y025181D01*
X041011Y025139D01*
X040859Y024987D01*
X040777Y024788D01*
X040777Y024574D01*
X040859Y024375D01*
X041011Y024223D01*
X041113Y024181D01*
X041011Y024139D01*
X040859Y023987D01*
X040777Y023788D01*
X040777Y023574D01*
X040859Y023375D01*
X041011Y023223D01*
X041113Y023181D01*
X041011Y023139D01*
X040859Y022987D01*
X040777Y022788D01*
X040777Y022574D01*
X040859Y022375D01*
X041011Y022223D01*
X041113Y022181D01*
X041011Y022139D01*
X040859Y021987D01*
X040777Y021788D01*
X040777Y021574D01*
X040859Y021375D01*
X041011Y021223D01*
X041113Y021181D01*
X041011Y021139D01*
X040859Y020987D01*
X040777Y020788D01*
X040777Y020574D01*
X040859Y020375D01*
X041011Y020223D01*
X041113Y020181D01*
X041011Y020139D01*
X040859Y019987D01*
X040777Y019788D01*
X040777Y019574D01*
X040859Y019375D01*
X041011Y019223D01*
X041113Y019181D01*
X041011Y019139D01*
X040859Y018987D01*
X040777Y018788D01*
X040777Y018574D01*
X040859Y018375D01*
X041011Y018223D01*
X041113Y018181D01*
X041011Y018139D01*
X040859Y017987D01*
X040777Y017788D01*
X040777Y017574D01*
X040859Y017375D01*
X041011Y017223D01*
X041113Y017181D01*
X041011Y017139D01*
X040859Y016987D01*
X040777Y016788D01*
X040777Y016574D01*
X040859Y016375D01*
X041011Y016223D01*
X041113Y016181D01*
X041011Y016139D01*
X040859Y015987D01*
X040777Y015788D01*
X040777Y015574D01*
X040859Y015375D01*
X041011Y015223D01*
X041113Y015181D01*
X041011Y015139D01*
X040859Y014987D01*
X040857Y014981D01*
X040627Y014981D01*
X040517Y014935D01*
X040433Y014851D01*
X040017Y014435D01*
X039933Y014351D01*
X039887Y014241D01*
X039887Y010305D01*
X039517Y009935D01*
X039433Y009851D01*
X039387Y009741D01*
X039387Y009372D01*
X039297Y009589D01*
X039095Y009791D01*
X038830Y009901D01*
X038544Y009901D01*
X038279Y009791D01*
X038077Y009589D01*
X037967Y009324D01*
X037967Y009038D01*
X038077Y008773D01*
X038279Y008571D01*
X038544Y008461D01*
X038830Y008461D01*
X039095Y008571D01*
X039297Y008773D01*
X039387Y008990D01*
X039387Y006805D01*
X037933Y005351D01*
X037887Y005241D01*
X037887Y005121D01*
X037887Y003607D01*
X037842Y003588D01*
X037670Y003416D01*
X037577Y003192D01*
X037577Y002170D01*
X037670Y001945D01*
X037842Y001774D01*
X038066Y001681D01*
X038308Y001681D01*
X038533Y001774D01*
X038704Y001945D01*
X038797Y002170D01*
X038797Y003192D01*
X038704Y003416D01*
X038533Y003588D01*
X038487Y003607D01*
X038487Y005057D01*
X039857Y006427D01*
X039941Y006511D01*
X039987Y006621D01*
X039987Y009557D01*
X040441Y010011D01*
X040487Y010121D01*
X040487Y010241D01*
X040487Y014057D01*
X040811Y014381D01*
X040857Y014381D01*
X040859Y014375D01*
X041011Y014223D01*
X041196Y014146D01*
X041133Y014126D01*
X041066Y014091D01*
X041004Y014047D01*
X040951Y013994D01*
X040907Y013932D01*
X040872Y013865D01*
X040849Y013793D01*
X040837Y013721D01*
X041597Y013721D01*
X041597Y013641D01*
X040837Y013641D01*
X040849Y013569D01*
X040872Y013497D01*
X040907Y013429D01*
X040951Y013368D01*
X041004Y013315D01*
X041066Y013270D01*
X041133Y013236D01*
X041196Y013215D01*
X041011Y013139D01*
X040859Y012987D01*
X040777Y012788D01*
X040777Y012574D01*
X040859Y012375D01*
X041011Y012223D01*
X041210Y012141D01*
X042064Y012141D01*
X042263Y012223D01*
X042415Y012375D01*
X042497Y012574D01*
X042497Y012788D01*
X042415Y012987D01*
X042263Y013139D01*
X042078Y013215D01*
X042141Y013236D01*
X042209Y013270D01*
X042270Y013315D01*
X042323Y013368D01*
X042368Y013429D01*
X042402Y013497D01*
X042425Y013569D01*
X042437Y013641D01*
X041677Y013641D01*
X041677Y013721D01*
X042437Y013721D01*
X042425Y013793D01*
X042402Y013865D01*
X042368Y013932D01*
X042323Y013994D01*
X042270Y014047D01*
X042209Y014091D01*
X042141Y014126D01*
X042078Y014146D01*
X042263Y014223D01*
X042415Y014375D01*
X042497Y014574D01*
X042497Y014788D01*
X042415Y014987D01*
X042263Y015139D01*
X042161Y015181D01*
X042263Y015223D01*
X042415Y015375D01*
X042497Y015574D01*
X042497Y015788D01*
X042415Y015987D01*
X042263Y016139D01*
X042161Y016181D01*
X042263Y016223D01*
X042415Y016375D01*
X042497Y016574D01*
X042497Y016788D01*
X042415Y016987D01*
X042263Y017139D01*
X042161Y017181D01*
X042263Y017223D01*
X042415Y017375D01*
X042497Y017574D01*
X042497Y017788D01*
X042415Y017987D01*
X042263Y018139D01*
X042161Y018181D01*
X042263Y018223D01*
X042415Y018375D01*
X042497Y018574D01*
X042497Y018788D01*
X042415Y018987D01*
X042263Y019139D01*
X042161Y019181D01*
X042263Y019223D01*
X042415Y019375D01*
X042497Y019574D01*
X042497Y019788D01*
X042415Y019987D01*
X042263Y020139D01*
X042161Y020181D01*
X042263Y020223D01*
X042415Y020375D01*
X042497Y020574D01*
X042497Y020788D01*
X042415Y020987D01*
X042263Y021139D01*
X042161Y021181D01*
X042263Y021223D01*
X042415Y021375D01*
X042497Y021574D01*
X042497Y021788D01*
X042415Y021987D01*
X042263Y022139D01*
X042161Y022181D01*
X042263Y022223D01*
X042415Y022375D01*
X042497Y022574D01*
X042497Y022788D01*
X042415Y022987D01*
X042263Y023139D01*
X042161Y023181D01*
X042263Y023223D01*
X042415Y023375D01*
X042497Y023574D01*
X042497Y023788D01*
X042415Y023987D01*
X042263Y024139D01*
X042161Y024181D01*
X042263Y024223D01*
X042415Y024375D01*
X042497Y024574D01*
X042497Y024788D01*
X042415Y024987D01*
X042263Y025139D01*
X042161Y025181D01*
X042263Y025223D01*
X042415Y025375D01*
X042497Y025574D01*
X042497Y025788D01*
X042415Y025987D01*
X042263Y026139D01*
X042161Y026181D01*
X042263Y026223D01*
X042415Y026375D01*
X042497Y026574D01*
X042497Y026788D01*
X042415Y026987D01*
X042263Y027139D01*
X042161Y027181D01*
X042263Y027223D01*
X042415Y027375D01*
X042497Y027574D01*
X042497Y027788D01*
X042415Y027987D01*
X042263Y028139D01*
X042161Y028181D01*
X042263Y028223D01*
X042415Y028375D01*
X042497Y028574D01*
X042497Y028788D01*
X042415Y028987D01*
X042263Y029139D01*
X042161Y029181D01*
X042263Y029223D01*
X042415Y029375D01*
X042497Y029574D01*
X042497Y029788D01*
X042415Y029987D01*
X042263Y030139D01*
X042161Y030181D01*
X042263Y030223D01*
X042415Y030375D01*
X042497Y030574D01*
X042497Y030788D01*
X042415Y030987D01*
X042263Y031139D01*
X042161Y031181D01*
X042263Y031223D01*
X042415Y031375D01*
X042497Y031574D01*
X042497Y031788D01*
X042415Y031987D01*
X042263Y032139D01*
X042064Y032221D01*
X041210Y032221D01*
X041011Y032139D01*
X040859Y031987D01*
X040777Y031788D01*
X040777Y031574D01*
X040859Y031375D01*
X041011Y031223D01*
X041113Y031181D01*
X041011Y031139D01*
X040859Y030987D01*
X040777Y030788D01*
X040777Y030574D01*
X040859Y030375D01*
X041011Y030223D01*
X041113Y030181D01*
X041011Y030139D01*
X040859Y029987D01*
X040849Y029961D01*
X038631Y029961D01*
X038528Y029918D01*
X038450Y029840D01*
X037569Y028959D01*
X037625Y029094D01*
X037625Y029195D01*
X038441Y030011D01*
X038487Y030121D01*
X038487Y030241D01*
X038487Y031861D01*
X038558Y031933D01*
X038625Y032094D01*
X038625Y032268D01*
X038558Y032429D01*
X038435Y032552D01*
X038274Y032619D01*
X038100Y032619D01*
X037939Y032552D01*
X037816Y032429D01*
X037749Y032268D01*
X037749Y032094D01*
X037816Y031933D01*
X037887Y031861D01*
X037887Y030305D01*
X037201Y029619D01*
X037100Y029619D01*
X036939Y029552D01*
X036816Y029429D01*
X036749Y029268D01*
X036749Y029094D01*
X036816Y028933D01*
X036939Y028810D01*
X037100Y028743D01*
X037274Y028743D01*
X037409Y028799D01*
X036967Y028357D01*
X036967Y028375D01*
X036967Y028487D01*
X036924Y028590D01*
X032875Y032639D01*
X032875Y032768D01*
X032808Y032929D01*
X032685Y033052D01*
X032524Y033119D01*
X032350Y033119D01*
X032189Y033052D01*
X032066Y032929D01*
X031999Y032768D01*
X031999Y032594D01*
X032066Y032433D01*
X032189Y032310D01*
X032350Y032243D01*
X032479Y032243D01*
X036407Y028315D01*
X036407Y027885D01*
X036357Y027935D01*
X030911Y033381D01*
X032563Y033381D01*
X033499Y032445D01*
X033499Y032344D01*
X033566Y032183D01*
X033689Y032060D01*
X033850Y031993D01*
X034024Y031993D01*
X034185Y032060D01*
X034308Y032183D01*
X034375Y032344D01*
X034375Y032518D01*
X034308Y032679D01*
X034185Y032802D01*
X034024Y032869D01*
X033923Y032869D01*
X032941Y033851D01*
X032857Y033935D01*
X032747Y033981D01*
X015197Y033981D01*
X015077Y033981D01*
X014967Y033935D01*
X014263Y033231D01*
X008677Y033231D01*
X008567Y033185D01*
X008483Y033101D01*
X007560Y032178D01*
X007231Y032178D01*
X006940Y031887D01*
X006940Y031475D01*
X007231Y031183D01*
X007643Y031183D01*
X007935Y031475D01*
X007935Y031704D01*
X007940Y031709D01*
X007940Y031475D01*
X008231Y031183D01*
X008643Y031183D01*
X008935Y031475D01*
X008935Y031887D01*
X008643Y032178D01*
X008409Y032178D01*
X008861Y032631D01*
X014327Y032631D01*
X014447Y032631D01*
X014557Y032677D01*
X015261Y033381D01*
X015463Y033381D01*
X014260Y032178D01*
X013981Y032178D01*
X013690Y031887D01*
X013690Y031475D01*
X013981Y031183D01*
X014393Y031183D01*
X014685Y031475D01*
X014685Y031754D01*
X014690Y031759D01*
X014690Y031475D01*
X014981Y031183D01*
X015393Y031183D01*
X015685Y031475D01*
X015685Y031887D01*
X015393Y032178D01*
X015109Y032178D01*
X015811Y032881D01*
X016427Y032881D01*
X017963Y032881D01*
X017260Y032178D01*
X016981Y032178D01*
X016690Y031887D01*
X016690Y031475D01*
X016981Y031183D01*
X017260Y031183D01*
X019887Y028557D01*
X019887Y025072D01*
X019774Y025119D01*
X019600Y025119D01*
X019439Y025052D01*
X019316Y024929D01*
X019249Y024768D01*
X019249Y024639D01*
X018361Y023751D01*
X018308Y023879D01*
X018185Y024002D01*
X018024Y024069D01*
X017850Y024069D01*
X017689Y024002D01*
X017575Y023889D01*
X017558Y023929D01*
X017435Y024052D01*
X017274Y024119D01*
X017100Y024119D01*
X016939Y024052D01*
X016935Y024049D01*
X016967Y024125D01*
X016967Y025341D01*
X017058Y025433D01*
X017125Y025594D01*
X017125Y025768D01*
X017058Y025929D01*
X016987Y026001D01*
X016987Y027741D01*
X016941Y027851D01*
X016857Y027935D01*
X016441Y028351D01*
X016357Y028435D01*
X016247Y028481D01*
X013061Y028481D01*
X010359Y031183D01*
X010643Y031183D01*
X010935Y031475D01*
X010935Y031887D01*
X010643Y032178D01*
X010231Y032178D01*
X009940Y031887D01*
X009940Y031603D01*
X009935Y031608D01*
X009935Y031887D01*
X009643Y032178D01*
X009231Y032178D01*
X008940Y031887D01*
X008940Y031475D01*
X009231Y031183D01*
X009510Y031183D01*
X012767Y027927D01*
X012877Y027881D01*
X012997Y027881D01*
X016063Y027881D01*
X016387Y027557D01*
X016387Y026001D01*
X016316Y025929D01*
X016249Y025768D01*
X016249Y025594D01*
X016316Y025433D01*
X016407Y025341D01*
X016407Y024297D01*
X016319Y024209D01*
X016375Y024344D01*
X016375Y024518D01*
X016308Y024679D01*
X016217Y024771D01*
X016217Y027237D01*
X016174Y027340D01*
X016096Y027418D01*
X015846Y027668D01*
X015743Y027711D01*
X015631Y027711D01*
X014381Y027711D01*
X014278Y027668D01*
X014200Y027590D01*
X013950Y027340D01*
X013907Y027237D01*
X013907Y027235D01*
X013687Y027015D01*
X013431Y027271D01*
X012943Y027271D01*
X012653Y026981D01*
X012247Y026981D01*
X012127Y026981D01*
X012017Y026935D01*
X011517Y026435D01*
X011433Y026351D01*
X011387Y026241D01*
X011387Y023305D01*
X011083Y023001D01*
X011037Y022891D01*
X011037Y022771D01*
X011037Y022121D01*
X011047Y022097D01*
X010939Y022052D01*
X010847Y021961D01*
X010731Y021961D01*
X010628Y021918D01*
X010550Y021840D01*
X010550Y021839D01*
X010524Y021814D01*
X010435Y021902D01*
X010274Y021969D01*
X010100Y021969D01*
X009939Y021902D01*
X009816Y021779D01*
X009749Y021618D01*
X009749Y021541D01*
X009580Y021541D01*
X009381Y021459D01*
X009229Y021307D01*
X009187Y021205D01*
X009145Y021307D01*
X008993Y021459D01*
X008794Y021541D01*
X008580Y021541D01*
X008381Y021459D01*
X008229Y021307D01*
X008187Y021205D01*
X008145Y021307D01*
X007993Y021459D01*
X007794Y021541D01*
X007580Y021541D01*
X007381Y021459D01*
X007229Y021307D01*
X007147Y021108D01*
X007147Y020254D01*
X007229Y020055D01*
X007323Y019961D01*
X005803Y019961D01*
X004967Y020797D01*
X004967Y021591D01*
X005058Y021683D01*
X005125Y021844D01*
X005125Y022018D01*
X005058Y022179D01*
X004935Y022302D01*
X004774Y022369D01*
X004600Y022369D01*
X004467Y022314D01*
X004467Y023565D01*
X004803Y023901D01*
X007847Y023901D01*
X007939Y023810D01*
X008100Y023743D01*
X008274Y023743D01*
X008435Y023810D01*
X008558Y023933D01*
X008625Y024094D01*
X008625Y024268D01*
X008589Y024354D01*
X008933Y024011D01*
X009017Y023927D01*
X009127Y023881D01*
X010217Y023881D01*
X010289Y023810D01*
X010450Y023743D01*
X010624Y023743D01*
X010785Y023810D01*
X010908Y023933D01*
X010975Y024094D01*
X010975Y024268D01*
X010908Y024429D01*
X010785Y024552D01*
X010624Y024619D01*
X010450Y024619D01*
X010425Y024609D01*
X010425Y024768D01*
X010358Y024929D01*
X010235Y025052D01*
X010074Y025119D01*
X009973Y025119D01*
X008407Y026685D01*
X008297Y026731D01*
X008177Y026731D01*
X007657Y026731D01*
X007585Y026802D01*
X007424Y026869D01*
X007250Y026869D01*
X007089Y026802D01*
X006966Y026679D01*
X006899Y026518D01*
X006899Y026344D01*
X006966Y026183D01*
X007089Y026060D01*
X007250Y025993D01*
X007424Y025993D01*
X007585Y026060D01*
X007657Y026131D01*
X008113Y026131D01*
X009549Y024695D01*
X009549Y024594D01*
X009596Y024481D01*
X009311Y024481D01*
X008857Y024935D01*
X008747Y024981D01*
X008627Y024981D01*
X008007Y024981D01*
X007935Y025052D01*
X007774Y025119D01*
X007600Y025119D01*
X007439Y025052D01*
X007316Y024929D01*
X007249Y024768D01*
X007249Y024594D01*
X007304Y024461D01*
X004743Y024461D01*
X004631Y024461D01*
X004528Y024418D01*
X004028Y023918D01*
X003950Y023840D01*
X003907Y023737D01*
X003907Y020237D01*
X003907Y020125D01*
X003950Y020022D01*
X005450Y018522D01*
X005528Y018444D01*
X005631Y018401D01*
X006872Y018401D01*
X006746Y018275D01*
X006667Y018084D01*
X006667Y017277D01*
X006746Y017086D01*
X006893Y016940D01*
X007084Y016861D01*
X007291Y016861D01*
X007482Y016940D01*
X007628Y017086D01*
X007687Y017229D01*
X007746Y017086D01*
X007887Y016946D01*
X007887Y014801D01*
X007816Y014729D01*
X007749Y014568D01*
X007749Y014467D01*
X007433Y014151D01*
X007387Y014041D01*
X007387Y013921D01*
X007387Y013751D01*
X007316Y013679D01*
X007249Y013518D01*
X007249Y013344D01*
X007316Y013183D01*
X007387Y013111D01*
X007387Y012305D01*
X006187Y011105D01*
X006187Y011105D01*
X006187Y011561D01*
X006258Y011633D01*
X006325Y011794D01*
X006325Y011968D01*
X006322Y011975D01*
X006400Y011943D01*
X006574Y011943D01*
X006735Y012010D01*
X006858Y012133D01*
X006925Y012294D01*
X006925Y012468D01*
X006858Y012629D01*
X006735Y012752D01*
X006574Y012819D01*
X006473Y012819D01*
X006237Y013055D01*
X006237Y015111D01*
X006308Y015183D01*
X006375Y015344D01*
X006375Y015518D01*
X006308Y015679D01*
X006185Y015802D01*
X006024Y015869D01*
X005850Y015869D01*
X005689Y015802D01*
X005566Y015679D01*
X005499Y015518D01*
X005499Y015344D01*
X005566Y015183D01*
X005637Y015111D01*
X005637Y012991D01*
X005637Y012871D01*
X005683Y012761D01*
X006049Y012395D01*
X006049Y012294D01*
X006052Y012287D01*
X005974Y012319D01*
X005800Y012319D01*
X005639Y012252D01*
X005516Y012129D01*
X005449Y011968D01*
X005449Y011794D01*
X005516Y011633D01*
X005587Y011561D01*
X005587Y011041D01*
X005587Y010921D01*
X005633Y010811D01*
X005763Y010681D01*
X004563Y009481D01*
X003994Y009481D01*
X003938Y009616D01*
X003722Y009832D01*
X003440Y009948D01*
X003134Y009948D01*
X002852Y009832D01*
X002636Y009616D01*
X002520Y009334D01*
X002520Y009028D01*
X002636Y008746D01*
X002852Y008530D01*
X003134Y008413D01*
X003440Y008413D01*
X003722Y008530D01*
X003938Y008746D01*
X003994Y008881D01*
X004627Y008881D01*
X004747Y008881D01*
X004857Y008927D01*
X006357Y010427D01*
X006441Y010511D01*
X007857Y011927D01*
X007941Y012011D01*
X007987Y012121D01*
X007987Y013111D01*
X008058Y013183D01*
X008125Y013344D01*
X008125Y013518D01*
X008058Y013679D01*
X007987Y013751D01*
X007987Y013857D01*
X008173Y014043D01*
X008274Y014043D01*
X008435Y014110D01*
X008558Y014233D01*
X008625Y014394D01*
X008625Y014568D01*
X008558Y014729D01*
X008487Y014801D01*
X008487Y016946D01*
X008628Y017086D01*
X008707Y017277D01*
X008707Y018084D01*
X008628Y018275D01*
X008502Y018401D01*
X021243Y018401D01*
X021346Y018444D01*
X021424Y018522D01*
X021645Y018743D01*
X021774Y018743D01*
X021935Y018810D01*
X022058Y018933D01*
X022125Y019094D01*
X022125Y019195D01*
X022673Y019743D01*
X022774Y019743D01*
X022935Y019810D01*
X023058Y019933D01*
X023111Y020061D01*
X024150Y019022D01*
X024191Y018981D01*
X022627Y018981D01*
X022517Y018935D01*
X022433Y018851D01*
X022433Y018851D01*
X020063Y016481D01*
X017578Y016481D01*
X017625Y016594D01*
X017625Y016768D01*
X017578Y016881D01*
X018568Y016881D01*
X018639Y016810D01*
X018800Y016743D01*
X018974Y016743D01*
X019135Y016810D01*
X019258Y016933D01*
X019325Y017094D01*
X019325Y017268D01*
X019258Y017429D01*
X019135Y017552D01*
X018974Y017619D01*
X018800Y017619D01*
X018639Y017552D01*
X018568Y017481D01*
X016961Y017481D01*
X016973Y017493D01*
X017074Y017493D01*
X017235Y017560D01*
X017358Y017683D01*
X017425Y017844D01*
X017425Y018018D01*
X017358Y018179D01*
X017235Y018302D01*
X017074Y018369D01*
X016900Y018369D01*
X016739Y018302D01*
X016616Y018179D01*
X016549Y018018D01*
X016549Y017931D01*
X016407Y017931D01*
X016335Y018002D01*
X016174Y018069D01*
X016000Y018069D01*
X015839Y018002D01*
X015716Y017879D01*
X015649Y017718D01*
X015649Y017544D01*
X015675Y017481D01*
X013707Y017481D01*
X013635Y017552D01*
X013474Y017619D01*
X013300Y017619D01*
X013139Y017552D01*
X013067Y017481D01*
X010627Y017481D01*
X010517Y017435D01*
X010433Y017351D01*
X008933Y015851D01*
X008887Y015741D01*
X008887Y015621D01*
X008887Y013084D01*
X008690Y012887D01*
X008690Y012475D01*
X008981Y012183D01*
X009393Y012183D01*
X009685Y012475D01*
X009685Y012887D01*
X009487Y013084D01*
X009487Y015557D01*
X010811Y016881D01*
X013067Y016881D01*
X013139Y016810D01*
X013300Y016743D01*
X013474Y016743D01*
X013635Y016810D01*
X013707Y016881D01*
X014296Y016881D01*
X014249Y016768D01*
X014249Y016594D01*
X014296Y016481D01*
X013627Y016481D01*
X013517Y016435D01*
X013433Y016351D01*
X010260Y013178D01*
X009981Y013178D01*
X009690Y012887D01*
X009690Y012475D01*
X009981Y012183D01*
X010393Y012183D01*
X010685Y012475D01*
X010685Y012754D01*
X010690Y012759D01*
X010690Y012475D01*
X010981Y012183D01*
X011393Y012183D01*
X011685Y012475D01*
X011685Y012782D01*
X011750Y012848D01*
X011750Y012700D01*
X012168Y012700D01*
X012168Y013118D01*
X012020Y013118D01*
X013303Y014401D01*
X014983Y014401D01*
X014701Y014119D01*
X014600Y014119D01*
X014439Y014052D01*
X014316Y013929D01*
X014249Y013768D01*
X014249Y013594D01*
X014316Y013433D01*
X014439Y013310D01*
X014600Y013243D01*
X014774Y013243D01*
X014935Y013310D01*
X015058Y013433D01*
X015125Y013594D01*
X015125Y013695D01*
X015311Y013881D01*
X020947Y013881D01*
X020974Y013892D01*
X020933Y013851D01*
X020887Y013741D01*
X020887Y013621D01*
X020887Y013084D01*
X020690Y012887D01*
X020690Y012475D01*
X020934Y012231D01*
X020441Y012231D01*
X020685Y012475D01*
X020685Y012887D01*
X020393Y013178D01*
X019981Y013178D01*
X019690Y012887D01*
X019690Y012475D01*
X019934Y012231D01*
X019441Y012231D01*
X019685Y012475D01*
X019685Y012887D01*
X019393Y013178D01*
X018981Y013178D01*
X018690Y012887D01*
X018690Y012603D01*
X018685Y012608D01*
X018685Y012887D01*
X018393Y013178D01*
X017981Y013178D01*
X017690Y012887D01*
X017690Y012603D01*
X017685Y012608D01*
X017685Y012887D01*
X017393Y013178D01*
X016981Y013178D01*
X016690Y012887D01*
X016690Y012475D01*
X016981Y012183D01*
X017260Y012183D01*
X018167Y011277D01*
X018277Y011231D01*
X018397Y011231D01*
X022367Y011231D01*
X022439Y011160D01*
X022600Y011093D01*
X022774Y011093D01*
X022935Y011160D01*
X023058Y011283D01*
X023125Y011444D01*
X023125Y011618D01*
X023058Y011779D01*
X022935Y011902D01*
X022774Y011969D01*
X022625Y011969D01*
X022625Y012018D01*
X022558Y012179D01*
X022435Y012302D01*
X022274Y012369D01*
X022100Y012369D01*
X021939Y012302D01*
X021867Y012231D01*
X021441Y012231D01*
X021685Y012475D01*
X021685Y012887D01*
X021487Y013084D01*
X021487Y013557D01*
X022811Y014881D01*
X024496Y014881D01*
X024449Y014768D01*
X024449Y014619D01*
X024300Y014619D01*
X024139Y014552D01*
X024016Y014429D01*
X023949Y014268D01*
X023949Y014094D01*
X024016Y013933D01*
X024087Y013861D01*
X024087Y012241D01*
X024087Y012121D01*
X024133Y012011D01*
X024587Y011557D01*
X024587Y011405D01*
X024557Y011435D01*
X023687Y012305D01*
X023687Y013861D01*
X023758Y013933D01*
X023825Y014094D01*
X023825Y014268D01*
X023758Y014429D01*
X023635Y014552D01*
X023474Y014619D01*
X023300Y014619D01*
X023139Y014552D01*
X023016Y014429D01*
X022949Y014268D01*
X022949Y014094D01*
X023016Y013933D01*
X023087Y013861D01*
X023087Y012241D01*
X023087Y012121D01*
X023133Y012011D01*
X024087Y011057D01*
X024087Y007505D01*
X021563Y004981D01*
X018747Y004981D01*
X018651Y004981D01*
X018698Y005005D01*
X018754Y005045D01*
X018803Y005094D01*
X018843Y005150D01*
X018875Y005212D01*
X018896Y005278D01*
X018907Y005346D01*
X018907Y005361D01*
X018207Y005361D01*
X018207Y004941D01*
X018502Y004941D01*
X018549Y004948D01*
X018517Y004935D01*
X016839Y003257D01*
X016804Y003271D01*
X016570Y003271D01*
X016353Y003181D01*
X016277Y003105D01*
X016277Y003142D01*
X016148Y003271D01*
X015987Y003271D01*
X015987Y003991D01*
X015941Y004101D01*
X015857Y004185D01*
X014907Y005136D01*
X014967Y005281D01*
X014967Y005480D01*
X014891Y005664D01*
X014750Y005805D01*
X014567Y005881D01*
X013808Y005881D01*
X013624Y005805D01*
X013483Y005664D01*
X013407Y005480D01*
X013407Y005281D01*
X013482Y005100D01*
X012863Y004481D01*
X008247Y004481D01*
X008127Y004481D01*
X008017Y004435D01*
X007101Y003519D01*
X007033Y003588D01*
X006808Y003681D01*
X006566Y003681D01*
X006342Y003588D01*
X006264Y003511D02*
X004238Y003511D01*
X004380Y003392D02*
X006160Y003392D01*
X006111Y003274D02*
X004488Y003274D01*
X004556Y003155D02*
X006077Y003155D01*
X006077Y003037D02*
X004625Y003037D01*
X004650Y002918D02*
X006077Y002918D01*
X006077Y002562D02*
X004671Y002562D01*
X004650Y002444D02*
X006077Y002444D01*
X006077Y002325D02*
X004625Y002325D01*
X004556Y002207D02*
X006077Y002207D01*
X006111Y002088D02*
X004488Y002088D01*
X004379Y001970D02*
X006160Y001970D01*
X006264Y001851D02*
X004238Y001851D01*
X003976Y001733D02*
X006441Y001733D01*
X006933Y001733D02*
X008441Y001733D01*
X008342Y001774D02*
X008566Y001681D01*
X008808Y001681D01*
X009033Y001774D01*
X009204Y001945D01*
X009297Y002170D01*
X009297Y003192D01*
X009204Y003416D01*
X009033Y003588D01*
X008808Y003681D01*
X008566Y003681D01*
X008342Y003588D01*
X008170Y003416D01*
X008077Y003192D01*
X008077Y002170D01*
X008170Y001945D01*
X008342Y001774D01*
X008264Y001851D02*
X007110Y001851D01*
X007214Y001970D02*
X008160Y001970D01*
X008111Y002088D02*
X007263Y002088D01*
X007297Y002207D02*
X008077Y002207D01*
X008077Y002325D02*
X007297Y002325D01*
X007297Y002444D02*
X008077Y002444D01*
X008077Y002562D02*
X007297Y002562D01*
X007297Y002681D02*
X008077Y002681D01*
X008077Y002799D02*
X007297Y002799D01*
X007348Y002918D02*
X008077Y002918D01*
X008077Y003037D02*
X007467Y003037D01*
X007586Y003155D02*
X008077Y003155D01*
X008111Y003274D02*
X007704Y003274D01*
X007823Y003392D02*
X008160Y003392D01*
X008264Y003511D02*
X007941Y003511D01*
X008060Y003629D02*
X008441Y003629D01*
X008297Y003866D02*
X015327Y003866D01*
X015387Y003748D02*
X008178Y003748D01*
X007804Y004222D02*
X001907Y004222D01*
X001907Y004341D02*
X007922Y004341D01*
X008075Y004459D02*
X001907Y004459D01*
X001907Y004578D02*
X012960Y004578D01*
X013078Y004696D02*
X001907Y004696D01*
X001907Y004815D02*
X013197Y004815D01*
X013315Y004933D02*
X001907Y004933D01*
X001907Y005052D02*
X013434Y005052D01*
X013453Y005170D02*
X001907Y005170D01*
X001907Y005289D02*
X013407Y005289D01*
X013407Y005407D02*
X001907Y005407D01*
X001907Y005526D02*
X013426Y005526D01*
X013475Y005645D02*
X001907Y005645D01*
X001907Y005763D02*
X013582Y005763D01*
X014045Y004815D02*
X014379Y004815D01*
X014498Y004696D02*
X013927Y004696D01*
X013808Y004578D02*
X014616Y004578D01*
X014735Y004459D02*
X013689Y004459D01*
X013571Y004341D02*
X014853Y004341D01*
X014972Y004222D02*
X013452Y004222D01*
X013334Y004103D02*
X015090Y004103D01*
X015209Y003985D02*
X013215Y003985D01*
X012975Y003541D02*
X012898Y003581D01*
X012816Y003607D01*
X012747Y003618D01*
X012747Y002741D01*
X012627Y002741D01*
X012627Y003618D01*
X012558Y003607D01*
X012476Y003581D01*
X012399Y003541D01*
X012329Y003490D01*
X012268Y003429D01*
X012217Y003359D01*
X012177Y003282D01*
X012151Y003200D01*
X012137Y003114D01*
X012137Y002741D01*
X012627Y002741D01*
X012627Y002621D01*
X012137Y002621D01*
X012137Y002248D01*
X012151Y002162D01*
X012177Y002080D01*
X012217Y002003D01*
X012268Y001933D01*
X012329Y001871D01*
X012399Y001821D01*
X012476Y001781D01*
X012558Y001754D01*
X012627Y001744D01*
X012627Y002621D01*
X012747Y002621D01*
X012747Y002741D01*
X013237Y002741D01*
X013237Y003114D01*
X013224Y003200D01*
X013197Y003282D01*
X013157Y003359D01*
X013107Y003429D01*
X013045Y003490D01*
X012975Y003541D01*
X013017Y003511D02*
X015387Y003511D01*
X015387Y003629D02*
X008933Y003629D01*
X009110Y003511D02*
X010357Y003511D01*
X010329Y003490D02*
X010268Y003429D01*
X010217Y003359D01*
X010177Y003282D01*
X010151Y003200D01*
X010137Y003114D01*
X010137Y002741D01*
X010627Y002741D01*
X010627Y003618D01*
X010558Y003607D01*
X010476Y003581D01*
X010399Y003541D01*
X010329Y003490D01*
X010241Y003392D02*
X009214Y003392D01*
X009263Y003274D02*
X010175Y003274D01*
X010144Y003155D02*
X009297Y003155D01*
X009297Y003037D02*
X010137Y003037D01*
X010137Y002918D02*
X009297Y002918D01*
X009297Y002799D02*
X010137Y002799D01*
X010137Y002621D02*
X010137Y002248D01*
X010151Y002162D01*
X010177Y002080D01*
X010217Y002003D01*
X010268Y001933D01*
X010329Y001871D01*
X010399Y001821D01*
X010476Y001781D01*
X010558Y001754D01*
X010627Y001744D01*
X010627Y002621D01*
X010137Y002621D01*
X010137Y002562D02*
X009297Y002562D01*
X009297Y002444D02*
X010137Y002444D01*
X010137Y002325D02*
X009297Y002325D01*
X009297Y002207D02*
X010144Y002207D01*
X010175Y002088D02*
X009263Y002088D01*
X009214Y001970D02*
X010241Y001970D01*
X010357Y001851D02*
X009110Y001851D01*
X008933Y001733D02*
X024441Y001733D01*
X024342Y001774D02*
X024566Y001681D01*
X024808Y001681D01*
X025033Y001774D01*
X025204Y001945D01*
X025297Y002170D01*
X025297Y003192D01*
X025204Y003416D01*
X025033Y003588D01*
X024808Y003681D01*
X024566Y003681D01*
X024342Y003588D01*
X024170Y003416D01*
X024077Y003192D01*
X024077Y002170D01*
X024170Y001945D01*
X024342Y001774D01*
X024264Y001851D02*
X013017Y001851D01*
X013045Y001871D02*
X012975Y001821D01*
X012898Y001781D01*
X012816Y001754D01*
X012747Y001744D01*
X012747Y002621D01*
X013237Y002621D01*
X013237Y002248D01*
X013224Y002162D01*
X013197Y002080D01*
X013157Y002003D01*
X013107Y001933D01*
X013045Y001871D01*
X013133Y001970D02*
X024160Y001970D01*
X024111Y002088D02*
X013199Y002088D01*
X013231Y002207D02*
X015110Y002207D01*
X015097Y002325D02*
X013237Y002325D01*
X013237Y002444D02*
X015097Y002444D01*
X015097Y002562D02*
X013237Y002562D01*
X013237Y002799D02*
X015097Y002799D01*
X015097Y002681D02*
X012747Y002681D01*
X012747Y002799D02*
X012627Y002799D01*
X012627Y002681D02*
X010747Y002681D01*
X010747Y002741D02*
X011237Y002741D01*
X011237Y003114D01*
X011224Y003200D01*
X011197Y003282D01*
X011157Y003359D01*
X011107Y003429D01*
X011045Y003490D01*
X010975Y003541D01*
X010898Y003581D01*
X010816Y003607D01*
X010747Y003618D01*
X010747Y002741D01*
X010627Y002741D01*
X010627Y002621D01*
X010747Y002621D01*
X010747Y002741D01*
X010747Y002799D02*
X010627Y002799D01*
X010627Y002681D02*
X009297Y002681D01*
X010627Y002562D02*
X010747Y002562D01*
X010747Y002621D02*
X010747Y001744D01*
X010816Y001754D01*
X010898Y001781D01*
X010975Y001821D01*
X011045Y001871D01*
X011107Y001933D01*
X011157Y002003D01*
X011197Y002080D01*
X011224Y002162D01*
X011237Y002248D01*
X011237Y002621D01*
X010747Y002621D01*
X010747Y002444D02*
X010627Y002444D01*
X010627Y002325D02*
X010747Y002325D01*
X010747Y002207D02*
X010627Y002207D01*
X010627Y002088D02*
X010747Y002088D01*
X010747Y001970D02*
X010627Y001970D01*
X010627Y001851D02*
X010747Y001851D01*
X011017Y001851D02*
X012357Y001851D01*
X012241Y001970D02*
X011133Y001970D01*
X011199Y002088D02*
X012175Y002088D01*
X012144Y002207D02*
X011231Y002207D01*
X011237Y002325D02*
X012137Y002325D01*
X012137Y002444D02*
X011237Y002444D01*
X011237Y002562D02*
X012137Y002562D01*
X012137Y002799D02*
X011237Y002799D01*
X011237Y002918D02*
X012137Y002918D01*
X012137Y003037D02*
X011237Y003037D01*
X011231Y003155D02*
X012144Y003155D01*
X012175Y003274D02*
X011200Y003274D01*
X011133Y003392D02*
X012241Y003392D01*
X012357Y003511D02*
X011017Y003511D01*
X010747Y003511D02*
X010627Y003511D01*
X010627Y003392D02*
X010747Y003392D01*
X010747Y003274D02*
X010627Y003274D01*
X010627Y003155D02*
X010747Y003155D01*
X010747Y003037D02*
X010627Y003037D01*
X010627Y002918D02*
X010747Y002918D01*
X012627Y002918D02*
X012747Y002918D01*
X012747Y003037D02*
X012627Y003037D01*
X012627Y003155D02*
X012747Y003155D01*
X012747Y003274D02*
X012627Y003274D01*
X012627Y003392D02*
X012747Y003392D01*
X012747Y003511D02*
X012627Y003511D01*
X013133Y003392D02*
X015387Y003392D01*
X015387Y003274D02*
X013200Y003274D01*
X013231Y003155D02*
X015110Y003155D01*
X015097Y003037D02*
X013237Y003037D01*
X013237Y002918D02*
X015097Y002918D01*
X015987Y003274D02*
X016856Y003274D01*
X016974Y003392D02*
X015987Y003392D01*
X015987Y003511D02*
X017093Y003511D01*
X017211Y003629D02*
X015987Y003629D01*
X015987Y003748D02*
X017330Y003748D01*
X017448Y003866D02*
X015987Y003866D01*
X015987Y003985D02*
X017567Y003985D01*
X017685Y004103D02*
X015939Y004103D01*
X015820Y004222D02*
X017804Y004222D01*
X017922Y004341D02*
X015702Y004341D01*
X015583Y004459D02*
X018041Y004459D01*
X018160Y004578D02*
X015465Y004578D01*
X015346Y004696D02*
X018278Y004696D01*
X018397Y004815D02*
X015228Y004815D01*
X015109Y004933D02*
X018515Y004933D01*
X018760Y005052D02*
X021634Y005052D01*
X021752Y005170D02*
X018854Y005170D01*
X018898Y005289D02*
X021871Y005289D01*
X021989Y005407D02*
X018907Y005407D01*
X018907Y005401D02*
X018907Y005416D01*
X018896Y005484D01*
X018875Y005550D01*
X018843Y005612D01*
X018803Y005668D01*
X018754Y005717D01*
X018698Y005757D01*
X018636Y005789D01*
X018570Y005810D01*
X018502Y005821D01*
X018207Y005821D01*
X018207Y005401D01*
X018167Y005401D01*
X018167Y005361D01*
X017467Y005361D01*
X017467Y005346D01*
X017478Y005278D01*
X017499Y005212D01*
X017531Y005150D01*
X017571Y005094D01*
X017620Y005045D01*
X017676Y005005D01*
X017738Y004973D01*
X017804Y004952D01*
X017872Y004941D01*
X018167Y004941D01*
X018167Y005361D01*
X018207Y005361D01*
X018207Y005401D01*
X018907Y005401D01*
X018883Y005526D02*
X022108Y005526D01*
X022226Y005645D02*
X018819Y005645D01*
X018686Y005763D02*
X022345Y005763D01*
X022464Y005882D02*
X001907Y005882D01*
X001907Y006000D02*
X022582Y006000D01*
X022701Y006119D02*
X001907Y006119D01*
X001907Y006237D02*
X022819Y006237D01*
X022938Y006356D02*
X001907Y006356D01*
X001907Y006474D02*
X023056Y006474D01*
X023175Y006593D02*
X001907Y006593D01*
X001907Y006711D02*
X023293Y006711D01*
X023412Y006830D02*
X001907Y006830D01*
X001907Y006949D02*
X023530Y006949D01*
X023649Y007067D02*
X001907Y007067D01*
X001907Y007186D02*
X023767Y007186D01*
X023886Y007304D02*
X001907Y007304D01*
X001907Y007423D02*
X024005Y007423D01*
X024087Y007541D02*
X001907Y007541D01*
X001907Y007660D02*
X024087Y007660D01*
X024087Y007778D02*
X001907Y007778D01*
X001907Y007897D02*
X024087Y007897D01*
X024087Y008015D02*
X001907Y008015D01*
X001907Y008134D02*
X024087Y008134D01*
X024087Y008252D02*
X001907Y008252D01*
X001907Y008371D02*
X024087Y008371D01*
X024087Y008490D02*
X023241Y008490D01*
X023225Y008486D02*
X023315Y008510D01*
X023401Y008545D01*
X023481Y008591D01*
X023555Y008648D01*
X023620Y008713D01*
X023677Y008787D01*
X023723Y008867D01*
X023758Y008953D01*
X023782Y009043D01*
X023793Y009121D01*
X023147Y009121D01*
X023147Y009241D01*
X023027Y009241D01*
X023027Y009887D01*
X022949Y009876D01*
X022859Y009852D01*
X022773Y009817D01*
X022693Y009770D01*
X022620Y009714D01*
X022554Y009648D01*
X022498Y009575D01*
X022451Y009495D01*
X022416Y009409D01*
X022392Y009319D01*
X022381Y009241D01*
X023027Y009241D01*
X023027Y009121D01*
X022381Y009121D01*
X022392Y009043D01*
X022416Y008953D01*
X022451Y008867D01*
X022498Y008787D01*
X022554Y008713D01*
X022620Y008648D01*
X022693Y008591D01*
X022773Y008545D01*
X022859Y008510D01*
X022949Y008486D01*
X023027Y008475D01*
X023027Y009121D01*
X023147Y009121D01*
X023147Y008475D01*
X023225Y008486D01*
X023147Y008490D02*
X023027Y008490D01*
X022934Y008490D02*
X020424Y008490D01*
X020522Y008530D02*
X020738Y008746D01*
X020855Y009028D01*
X020855Y009334D01*
X020738Y009616D01*
X020522Y009832D01*
X020240Y009948D01*
X019934Y009948D01*
X019652Y009832D01*
X019436Y009616D01*
X019320Y009334D01*
X019320Y009028D01*
X019436Y008746D01*
X019652Y008530D01*
X019934Y008413D01*
X020240Y008413D01*
X020522Y008530D01*
X020600Y008608D02*
X022671Y008608D01*
X022544Y008727D02*
X020718Y008727D01*
X020779Y008845D02*
X022464Y008845D01*
X022413Y008964D02*
X020828Y008964D01*
X020855Y009082D02*
X022386Y009082D01*
X022392Y009319D02*
X020855Y009319D01*
X020855Y009201D02*
X023027Y009201D01*
X023027Y009319D02*
X023147Y009319D01*
X023147Y009241D02*
X023147Y009887D01*
X023225Y009876D01*
X023315Y009852D01*
X023401Y009817D01*
X023481Y009770D01*
X023555Y009714D01*
X023620Y009648D01*
X023677Y009575D01*
X023723Y009495D01*
X023758Y009409D01*
X023782Y009319D01*
X023793Y009241D01*
X023147Y009241D01*
X023147Y009201D02*
X024087Y009201D01*
X024087Y009319D02*
X023782Y009319D01*
X023746Y009438D02*
X024087Y009438D01*
X024087Y009556D02*
X023687Y009556D01*
X023594Y009675D02*
X024087Y009675D01*
X024087Y009794D02*
X023441Y009794D01*
X023147Y009794D02*
X023027Y009794D01*
X023027Y009675D02*
X023147Y009675D01*
X023147Y009556D02*
X023027Y009556D01*
X023027Y009438D02*
X023147Y009438D01*
X023147Y009082D02*
X023027Y009082D01*
X023027Y008964D02*
X023147Y008964D01*
X023147Y008845D02*
X023027Y008845D01*
X023027Y008727D02*
X023147Y008727D01*
X023147Y008608D02*
X023027Y008608D01*
X023503Y008608D02*
X024087Y008608D01*
X024087Y008727D02*
X023630Y008727D01*
X023710Y008845D02*
X024087Y008845D01*
X024087Y008964D02*
X023761Y008964D01*
X023788Y009082D02*
X024087Y009082D01*
X024087Y009912D02*
X020327Y009912D01*
X020560Y009794D02*
X022733Y009794D01*
X022581Y009675D02*
X020678Y009675D01*
X020762Y009556D02*
X022487Y009556D01*
X022428Y009438D02*
X020811Y009438D01*
X019847Y009912D02*
X006527Y009912D01*
X006440Y009948D02*
X006134Y009948D01*
X005852Y009832D01*
X005636Y009616D01*
X005520Y009334D01*
X005520Y009028D01*
X005636Y008746D01*
X005852Y008530D01*
X006134Y008413D01*
X006440Y008413D01*
X006722Y008530D01*
X006938Y008746D01*
X007055Y009028D01*
X007055Y009334D01*
X006938Y009616D01*
X006722Y009832D01*
X006440Y009948D01*
X006760Y009794D02*
X019614Y009794D01*
X019496Y009675D02*
X006878Y009675D01*
X006962Y009556D02*
X019412Y009556D01*
X019363Y009438D02*
X007011Y009438D01*
X007055Y009319D02*
X019320Y009319D01*
X019320Y009201D02*
X007055Y009201D01*
X007055Y009082D02*
X019320Y009082D01*
X019346Y008964D02*
X007028Y008964D01*
X006979Y008845D02*
X019395Y008845D01*
X019456Y008727D02*
X006918Y008727D01*
X006800Y008608D02*
X019574Y008608D01*
X019751Y008490D02*
X006624Y008490D01*
X005951Y008490D02*
X003624Y008490D01*
X003800Y008608D02*
X005774Y008608D01*
X005656Y008727D02*
X003918Y008727D01*
X003979Y008845D02*
X005595Y008845D01*
X005546Y008964D02*
X004894Y008964D01*
X005013Y009082D02*
X005520Y009082D01*
X005520Y009201D02*
X005131Y009201D01*
X005250Y009319D02*
X005520Y009319D01*
X005563Y009438D02*
X005368Y009438D01*
X005487Y009556D02*
X005612Y009556D01*
X005605Y009675D02*
X005696Y009675D01*
X005724Y009794D02*
X005814Y009794D01*
X005842Y009912D02*
X006047Y009912D01*
X005961Y010031D02*
X024087Y010031D01*
X024087Y010149D02*
X006080Y010149D01*
X006198Y010268D02*
X024087Y010268D01*
X024087Y010386D02*
X006317Y010386D01*
X006435Y010505D02*
X024087Y010505D01*
X024087Y010623D02*
X006554Y010623D01*
X006672Y010742D02*
X024087Y010742D01*
X024087Y010860D02*
X006791Y010860D01*
X006909Y010979D02*
X024087Y010979D01*
X024046Y011098D02*
X022786Y011098D01*
X022589Y011098D02*
X007028Y011098D01*
X007146Y011216D02*
X022382Y011216D01*
X022992Y011216D02*
X023928Y011216D01*
X023809Y011335D02*
X023080Y011335D01*
X023125Y011453D02*
X023691Y011453D01*
X023572Y011572D02*
X023125Y011572D01*
X023095Y011690D02*
X023454Y011690D01*
X023335Y011809D02*
X023029Y011809D01*
X022875Y011927D02*
X023216Y011927D01*
X023118Y012046D02*
X022614Y012046D01*
X022565Y012164D02*
X023087Y012164D01*
X023087Y012283D02*
X022455Y012283D01*
X023087Y012401D02*
X021611Y012401D01*
X021685Y012520D02*
X023087Y012520D01*
X023087Y012639D02*
X021685Y012639D01*
X021685Y012757D02*
X023087Y012757D01*
X023087Y012876D02*
X021685Y012876D01*
X021577Y012994D02*
X023087Y012994D01*
X023087Y013113D02*
X021487Y013113D01*
X021487Y013231D02*
X023087Y013231D01*
X023087Y013350D02*
X021487Y013350D01*
X021487Y013468D02*
X023087Y013468D01*
X023087Y013587D02*
X021517Y013587D01*
X021636Y013705D02*
X023087Y013705D01*
X023087Y013824D02*
X021754Y013824D01*
X021873Y013943D02*
X023012Y013943D01*
X022962Y014061D02*
X021991Y014061D01*
X022110Y014180D02*
X022949Y014180D01*
X022961Y014298D02*
X022229Y014298D01*
X022347Y014417D02*
X023011Y014417D01*
X023122Y014535D02*
X022466Y014535D01*
X022584Y014654D02*
X024449Y014654D01*
X024451Y014772D02*
X022703Y014772D01*
X022328Y015247D02*
X021606Y015247D01*
X021625Y015365D02*
X022447Y015365D01*
X022210Y015128D02*
X021554Y015128D01*
X021678Y015009D02*
X022091Y015009D01*
X021973Y014891D02*
X021774Y014891D01*
X021823Y014772D02*
X021854Y014772D01*
X021714Y015484D02*
X030887Y015484D01*
X030887Y015602D02*
X021833Y015602D01*
X021951Y015721D02*
X030887Y015721D01*
X030887Y015839D02*
X022070Y015839D01*
X022188Y015958D02*
X030887Y015958D01*
X030887Y016076D02*
X022307Y016076D01*
X022425Y016195D02*
X030887Y016195D01*
X030887Y016313D02*
X022544Y016313D01*
X022662Y016432D02*
X028012Y016432D01*
X027893Y016551D02*
X022781Y016551D01*
X022899Y016669D02*
X027775Y016669D01*
X027656Y016788D02*
X023018Y016788D01*
X023137Y016906D02*
X027538Y016906D01*
X027419Y017025D02*
X023255Y017025D01*
X023374Y017143D02*
X027301Y017143D01*
X027182Y017262D02*
X023492Y017262D01*
X023611Y017380D02*
X027063Y017380D01*
X027438Y017854D02*
X028467Y017854D01*
X028467Y017736D02*
X027556Y017736D01*
X027675Y017617D02*
X028467Y017617D01*
X028467Y017499D02*
X027793Y017499D01*
X027912Y017380D02*
X028467Y017380D01*
X028568Y017262D02*
X028030Y017262D01*
X028149Y017143D02*
X028687Y017143D01*
X028805Y017025D02*
X028268Y017025D01*
X028481Y017973D02*
X027266Y017973D01*
X027588Y018210D02*
X022640Y018210D01*
X022522Y018092D02*
X028600Y018092D01*
X028718Y018210D02*
X028086Y018210D01*
X027470Y018329D02*
X022759Y018329D01*
X022403Y017973D02*
X023408Y017973D01*
X023236Y017854D02*
X022285Y017854D01*
X022166Y017736D02*
X023118Y017736D01*
X022999Y017617D02*
X022048Y017617D01*
X021929Y017499D02*
X022881Y017499D01*
X022762Y017380D02*
X021811Y017380D01*
X021692Y017262D02*
X022644Y017262D01*
X022525Y017143D02*
X021574Y017143D01*
X021455Y017025D02*
X022407Y017025D01*
X022288Y016906D02*
X021336Y016906D01*
X021218Y016788D02*
X022169Y016788D01*
X022051Y016669D02*
X021099Y016669D01*
X020981Y016551D02*
X021932Y016551D01*
X021814Y016432D02*
X020862Y016432D01*
X020744Y016313D02*
X021695Y016313D01*
X021577Y016195D02*
X020625Y016195D01*
X020507Y016076D02*
X021458Y016076D01*
X021340Y015958D02*
X020388Y015958D01*
X020441Y016011D02*
X020441Y016011D01*
X020805Y015602D02*
X017625Y015602D01*
X017625Y015721D02*
X020907Y015721D01*
X020755Y015484D02*
X017580Y015484D01*
X017491Y015365D02*
X020749Y015365D01*
X020657Y015247D02*
X017283Y015247D01*
X017091Y015247D02*
X014883Y015247D01*
X014691Y015247D02*
X013177Y015247D01*
X013295Y015365D02*
X014483Y015365D01*
X014395Y015484D02*
X013414Y015484D01*
X013533Y015602D02*
X014349Y015602D01*
X014349Y015721D02*
X013651Y015721D01*
X013770Y015839D02*
X014379Y015839D01*
X014267Y016551D02*
X010481Y016551D01*
X010599Y016669D02*
X014249Y016669D01*
X014257Y016788D02*
X013582Y016788D01*
X013514Y016432D02*
X010362Y016432D01*
X010244Y016313D02*
X013395Y016313D01*
X013277Y016195D02*
X010125Y016195D01*
X010007Y016076D02*
X013158Y016076D01*
X013040Y015958D02*
X009888Y015958D01*
X009770Y015839D02*
X012921Y015839D01*
X012803Y015721D02*
X009651Y015721D01*
X009533Y015602D02*
X012684Y015602D01*
X012566Y015484D02*
X009487Y015484D01*
X009487Y015365D02*
X012447Y015365D01*
X012328Y015247D02*
X009487Y015247D01*
X009487Y015128D02*
X012210Y015128D01*
X012091Y015009D02*
X009487Y015009D01*
X009487Y014891D02*
X011973Y014891D01*
X011854Y014772D02*
X009487Y014772D01*
X009487Y014654D02*
X011736Y014654D01*
X011617Y014535D02*
X009487Y014535D01*
X009487Y014417D02*
X011499Y014417D01*
X011380Y014298D02*
X009487Y014298D01*
X009487Y014180D02*
X011262Y014180D01*
X011143Y014061D02*
X009487Y014061D01*
X009487Y013943D02*
X011024Y013943D01*
X010906Y013824D02*
X009487Y013824D01*
X009487Y013705D02*
X010787Y013705D01*
X010669Y013587D02*
X009487Y013587D01*
X009487Y013468D02*
X010550Y013468D01*
X010432Y013350D02*
X009487Y013350D01*
X009487Y013231D02*
X010313Y013231D01*
X009915Y013113D02*
X009487Y013113D01*
X009577Y012994D02*
X009797Y012994D01*
X009690Y012876D02*
X009685Y012876D01*
X009685Y012757D02*
X009690Y012757D01*
X009685Y012639D02*
X009690Y012639D01*
X009685Y012520D02*
X009690Y012520D01*
X009763Y012401D02*
X009611Y012401D01*
X009493Y012283D02*
X009882Y012283D01*
X010493Y012283D02*
X010882Y012283D01*
X010763Y012401D02*
X010611Y012401D01*
X010685Y012520D02*
X010690Y012520D01*
X010685Y012639D02*
X010690Y012639D01*
X010687Y012757D02*
X010690Y012757D01*
X011187Y012681D02*
X013187Y014681D01*
X020487Y014681D01*
X021187Y015381D01*
X021221Y015839D02*
X017596Y015839D01*
X017607Y016551D02*
X020132Y016551D01*
X020251Y016669D02*
X017625Y016669D01*
X017617Y016788D02*
X018692Y016788D01*
X019082Y016788D02*
X020370Y016788D01*
X020488Y016906D02*
X019232Y016906D01*
X019297Y017025D02*
X020607Y017025D01*
X020725Y017143D02*
X019325Y017143D01*
X019325Y017262D02*
X020844Y017262D01*
X020962Y017380D02*
X019279Y017380D01*
X019189Y017499D02*
X021081Y017499D01*
X021199Y017617D02*
X018978Y017617D01*
X018796Y017617D02*
X017293Y017617D01*
X017380Y017736D02*
X021318Y017736D01*
X021436Y017854D02*
X017425Y017854D01*
X017425Y017973D02*
X021555Y017973D01*
X021674Y018092D02*
X017395Y018092D01*
X017327Y018210D02*
X021792Y018210D01*
X021911Y018329D02*
X017172Y018329D01*
X016803Y018329D02*
X008575Y018329D01*
X008655Y018210D02*
X016647Y018210D01*
X016579Y018092D02*
X008704Y018092D01*
X008707Y017973D02*
X015810Y017973D01*
X015706Y017854D02*
X008707Y017854D01*
X008707Y017736D02*
X015656Y017736D01*
X015649Y017617D02*
X013478Y017617D01*
X013296Y017617D02*
X008707Y017617D01*
X008707Y017499D02*
X013085Y017499D01*
X013689Y017499D02*
X015668Y017499D01*
X016365Y017973D02*
X016549Y017973D01*
X017089Y017499D02*
X018585Y017499D01*
X016883Y015365D02*
X015091Y015365D01*
X014880Y014298D02*
X013200Y014298D01*
X013082Y014180D02*
X014762Y014180D01*
X014460Y014061D02*
X012963Y014061D01*
X012845Y013943D02*
X014329Y013943D01*
X014272Y013824D02*
X012726Y013824D01*
X012608Y013705D02*
X014249Y013705D01*
X014252Y013587D02*
X012489Y013587D01*
X012370Y013468D02*
X014301Y013468D01*
X014399Y013350D02*
X012252Y013350D01*
X012133Y013231D02*
X020887Y013231D01*
X020887Y013113D02*
X020459Y013113D01*
X020577Y012994D02*
X020797Y012994D01*
X020690Y012876D02*
X020685Y012876D01*
X020685Y012757D02*
X020690Y012757D01*
X020685Y012639D02*
X020690Y012639D01*
X020685Y012520D02*
X020690Y012520D01*
X020763Y012401D02*
X020611Y012401D01*
X020493Y012283D02*
X020882Y012283D01*
X021493Y012283D02*
X021920Y012283D01*
X020887Y013350D02*
X014976Y013350D01*
X015073Y013468D02*
X020887Y013468D01*
X020887Y013587D02*
X015122Y013587D01*
X015136Y013705D02*
X020887Y013705D01*
X020922Y013824D02*
X015254Y013824D01*
X015915Y013113D02*
X014459Y013113D01*
X014393Y013178D02*
X013981Y013178D01*
X013690Y012887D01*
X013690Y012475D01*
X013981Y012183D01*
X014393Y012183D01*
X014685Y012475D01*
X014685Y012887D01*
X014393Y013178D01*
X014577Y012994D02*
X015797Y012994D01*
X015690Y012887D02*
X015690Y012475D01*
X015981Y012183D01*
X016393Y012183D01*
X016685Y012475D01*
X016685Y012887D01*
X016393Y013178D01*
X015981Y013178D01*
X015690Y012887D01*
X015690Y012876D02*
X014685Y012876D01*
X014685Y012757D02*
X015690Y012757D01*
X015690Y012639D02*
X014685Y012639D01*
X014685Y012520D02*
X015690Y012520D01*
X015763Y012401D02*
X014611Y012401D01*
X014493Y012283D02*
X015882Y012283D01*
X016493Y012283D02*
X016882Y012283D01*
X016763Y012401D02*
X016611Y012401D01*
X016685Y012520D02*
X016690Y012520D01*
X016685Y012639D02*
X016690Y012639D01*
X016685Y012757D02*
X016690Y012757D01*
X016685Y012876D02*
X016690Y012876D01*
X016797Y012994D02*
X016577Y012994D01*
X016459Y013113D02*
X016915Y013113D01*
X017459Y013113D02*
X017915Y013113D01*
X017797Y012994D02*
X017577Y012994D01*
X017685Y012876D02*
X017690Y012876D01*
X017685Y012757D02*
X017690Y012757D01*
X017685Y012639D02*
X017690Y012639D01*
X017279Y012164D02*
X007987Y012164D01*
X007987Y012283D02*
X008882Y012283D01*
X008763Y012401D02*
X007987Y012401D01*
X007987Y012520D02*
X008690Y012520D01*
X008690Y012639D02*
X007987Y012639D01*
X007987Y012757D02*
X008690Y012757D01*
X008690Y012876D02*
X007987Y012876D01*
X007987Y012994D02*
X008797Y012994D01*
X008887Y013113D02*
X007988Y013113D01*
X008079Y013231D02*
X008887Y013231D01*
X008887Y013350D02*
X008125Y013350D01*
X008125Y013468D02*
X008887Y013468D01*
X008887Y013587D02*
X008097Y013587D01*
X008032Y013705D02*
X008887Y013705D01*
X008887Y013824D02*
X007987Y013824D01*
X008073Y013943D02*
X008887Y013943D01*
X008887Y014061D02*
X008318Y014061D01*
X008505Y014180D02*
X008887Y014180D01*
X008887Y014298D02*
X008586Y014298D01*
X008625Y014417D02*
X008887Y014417D01*
X008887Y014535D02*
X008625Y014535D01*
X008590Y014654D02*
X008887Y014654D01*
X008887Y014772D02*
X008515Y014772D01*
X008487Y014891D02*
X008887Y014891D01*
X008887Y015009D02*
X008487Y015009D01*
X008487Y015128D02*
X008887Y015128D01*
X008887Y015247D02*
X008487Y015247D01*
X008487Y015365D02*
X008887Y015365D01*
X008887Y015484D02*
X008487Y015484D01*
X008487Y015602D02*
X008887Y015602D01*
X008887Y015721D02*
X008487Y015721D01*
X008487Y015839D02*
X008928Y015839D01*
X009040Y015958D02*
X008487Y015958D01*
X008487Y016076D02*
X009158Y016076D01*
X009277Y016195D02*
X008487Y016195D01*
X008487Y016313D02*
X009395Y016313D01*
X009514Y016432D02*
X008487Y016432D01*
X008487Y016551D02*
X009632Y016551D01*
X009751Y016669D02*
X008487Y016669D01*
X008487Y016788D02*
X009869Y016788D01*
X009988Y016906D02*
X008487Y016906D01*
X008566Y017025D02*
X010107Y017025D01*
X010225Y017143D02*
X008651Y017143D01*
X008701Y017262D02*
X010344Y017262D01*
X010462Y017380D02*
X008707Y017380D01*
X007887Y016906D02*
X007400Y016906D01*
X007566Y017025D02*
X007808Y017025D01*
X007723Y017143D02*
X007651Y017143D01*
X007887Y016788D02*
X001907Y016788D01*
X001907Y016906D02*
X006975Y016906D01*
X006808Y017025D02*
X001907Y017025D01*
X001907Y017143D02*
X006723Y017143D01*
X006674Y017262D02*
X001907Y017262D01*
X001907Y017380D02*
X006667Y017380D01*
X006667Y017499D02*
X001907Y017499D01*
X001907Y017617D02*
X006667Y017617D01*
X006667Y017736D02*
X001907Y017736D01*
X001907Y017854D02*
X006667Y017854D01*
X006667Y017973D02*
X001907Y017973D01*
X001907Y018092D02*
X006670Y018092D01*
X006719Y018210D02*
X001907Y018210D01*
X001907Y018329D02*
X006799Y018329D01*
X005687Y018681D02*
X021187Y018681D01*
X021687Y019181D01*
X021701Y019619D02*
X021600Y019619D01*
X021439Y019552D01*
X021316Y019429D01*
X021249Y019268D01*
X021249Y019139D01*
X021071Y018961D01*
X012070Y018961D01*
X012125Y019094D01*
X012125Y019268D01*
X012058Y019429D01*
X011935Y019552D01*
X011774Y019619D01*
X011645Y019619D01*
X011583Y019681D01*
X011809Y019907D01*
X011857Y019927D01*
X011941Y020011D01*
X011987Y020121D01*
X011987Y021771D01*
X011987Y021891D01*
X011941Y022001D01*
X011637Y022305D01*
X011637Y022707D01*
X011857Y022927D01*
X011941Y023011D01*
X011987Y023121D01*
X011987Y026057D01*
X012311Y026381D01*
X012653Y026381D01*
X012895Y026139D01*
X012657Y025900D01*
X012657Y025721D01*
X013147Y025721D01*
X013147Y025641D01*
X012657Y025641D01*
X012657Y025461D01*
X012968Y025151D01*
X013147Y025151D01*
X013147Y025641D01*
X013227Y025641D01*
X013227Y025151D01*
X013407Y025151D01*
X013645Y025389D01*
X013907Y025127D01*
X013907Y024237D01*
X013907Y024125D01*
X013950Y024022D01*
X014450Y023522D01*
X014528Y023444D01*
X014631Y023401D01*
X016131Y023401D01*
X016243Y023401D01*
X016346Y023444D01*
X016805Y023903D01*
X016749Y023768D01*
X016749Y023639D01*
X015619Y022509D01*
X015675Y022644D01*
X015675Y022818D01*
X015608Y022979D01*
X015485Y023102D01*
X015324Y023169D01*
X015150Y023169D01*
X014989Y023102D01*
X014897Y023011D01*
X014553Y023011D01*
X013425Y024139D01*
X013425Y024268D01*
X013358Y024429D01*
X013235Y024552D01*
X013074Y024619D01*
X012900Y024619D01*
X012739Y024552D01*
X012616Y024429D01*
X012549Y024268D01*
X012549Y024094D01*
X012616Y023933D01*
X012739Y023810D01*
X012900Y023743D01*
X013029Y023743D01*
X014200Y022572D01*
X014278Y022494D01*
X014357Y022461D01*
X012625Y022461D01*
X012625Y022518D01*
X012558Y022679D01*
X012435Y022802D01*
X012274Y022869D01*
X012100Y022869D01*
X011939Y022802D01*
X011816Y022679D01*
X011749Y022518D01*
X011749Y022344D01*
X011816Y022183D01*
X011939Y022060D01*
X012100Y021993D01*
X012229Y021993D01*
X012278Y021944D01*
X012381Y021901D01*
X014538Y021901D01*
X014516Y021879D01*
X014449Y021718D01*
X014449Y021544D01*
X014516Y021383D01*
X014639Y021260D01*
X014800Y021193D01*
X014974Y021193D01*
X015135Y021260D01*
X015227Y021351D01*
X015993Y021351D01*
X016096Y021394D01*
X016174Y021472D01*
X017263Y022561D01*
X017316Y022433D01*
X017439Y022310D01*
X017600Y022243D01*
X017774Y022243D01*
X017935Y022310D01*
X018058Y022433D01*
X018125Y022594D01*
X018125Y022723D01*
X018249Y022847D01*
X018249Y022744D01*
X018316Y022583D01*
X018439Y022460D01*
X018600Y022393D01*
X018774Y022393D01*
X018935Y022460D01*
X019058Y022583D01*
X019125Y022744D01*
X019125Y022918D01*
X019058Y023079D01*
X018935Y023202D01*
X018774Y023269D01*
X018671Y023269D01*
X019645Y024243D01*
X019774Y024243D01*
X019887Y024290D01*
X019887Y022821D01*
X019933Y022711D01*
X020017Y022627D01*
X020137Y022507D01*
X020137Y022501D01*
X020066Y022429D01*
X019999Y022268D01*
X019999Y022094D01*
X020066Y021933D01*
X020189Y021810D01*
X020332Y021750D01*
X020201Y021619D01*
X020100Y021619D01*
X019939Y021552D01*
X019850Y021464D01*
X019624Y021689D01*
X019624Y021690D01*
X019546Y021768D01*
X019443Y021811D01*
X018553Y021811D01*
X018446Y021918D01*
X018343Y021961D01*
X018277Y021961D01*
X018185Y022052D01*
X018024Y022119D01*
X017850Y022119D01*
X017689Y022052D01*
X017662Y022025D01*
X017635Y022052D01*
X017474Y022119D01*
X017300Y022119D01*
X017139Y022052D01*
X017016Y021929D01*
X016949Y021768D01*
X016949Y021594D01*
X017016Y021433D01*
X017107Y021341D01*
X017107Y021247D01*
X016971Y021111D01*
X013227Y021111D01*
X013135Y021202D01*
X012974Y021269D01*
X012800Y021269D01*
X012639Y021202D01*
X012516Y021079D01*
X012449Y020918D01*
X012449Y020819D01*
X012400Y020819D01*
X012239Y020752D01*
X012116Y020629D01*
X012049Y020468D01*
X012049Y020294D01*
X012116Y020133D01*
X012239Y020010D01*
X012400Y019943D01*
X012574Y019943D01*
X012735Y020010D01*
X012827Y020101D01*
X013371Y020101D01*
X013450Y020022D01*
X013528Y019944D01*
X013631Y019901D01*
X017049Y019901D01*
X017049Y019794D01*
X017116Y019633D01*
X011631Y019633D01*
X011653Y019751D02*
X017067Y019751D01*
X017049Y019870D02*
X011772Y019870D01*
X011919Y019988D02*
X012290Y019988D01*
X012142Y020107D02*
X011981Y020107D01*
X011987Y020225D02*
X012077Y020225D01*
X012049Y020344D02*
X011987Y020344D01*
X011987Y020462D02*
X012049Y020462D01*
X012096Y020581D02*
X011987Y020581D01*
X011987Y020700D02*
X012186Y020700D01*
X011987Y020818D02*
X012398Y020818D01*
X012457Y020937D02*
X011987Y020937D01*
X011987Y021055D02*
X012506Y021055D01*
X012610Y021174D02*
X011987Y021174D01*
X011987Y021292D02*
X014606Y021292D01*
X014504Y021411D02*
X011987Y021411D01*
X011987Y021529D02*
X014455Y021529D01*
X014449Y021648D02*
X011987Y021648D01*
X011987Y021766D02*
X014469Y021766D01*
X014522Y021885D02*
X011987Y021885D01*
X011939Y022004D02*
X012074Y022004D01*
X011876Y022122D02*
X011820Y022122D01*
X011792Y022241D02*
X011702Y022241D01*
X011749Y022359D02*
X011637Y022359D01*
X011637Y022478D02*
X011749Y022478D01*
X011781Y022596D02*
X011637Y022596D01*
X011645Y022715D02*
X011851Y022715D01*
X011764Y022833D02*
X012014Y022833D01*
X011882Y022952D02*
X013820Y022952D01*
X013702Y023070D02*
X011966Y023070D01*
X011987Y023189D02*
X013583Y023189D01*
X013465Y023307D02*
X011987Y023307D01*
X011987Y023426D02*
X013346Y023426D01*
X013227Y023545D02*
X011987Y023545D01*
X011987Y023663D02*
X013109Y023663D01*
X012806Y023782D02*
X011987Y023782D01*
X011987Y023900D02*
X012648Y023900D01*
X012580Y024019D02*
X011987Y024019D01*
X011987Y024137D02*
X012549Y024137D01*
X012549Y024256D02*
X011987Y024256D01*
X011987Y024374D02*
X012593Y024374D01*
X012679Y024493D02*
X011987Y024493D01*
X011987Y024611D02*
X012882Y024611D01*
X013092Y024611D02*
X013907Y024611D01*
X013907Y024493D02*
X013295Y024493D01*
X013381Y024374D02*
X013907Y024374D01*
X013907Y024256D02*
X013425Y024256D01*
X013427Y024137D02*
X013907Y024137D01*
X013953Y024019D02*
X013545Y024019D01*
X013664Y023900D02*
X014072Y023900D01*
X014190Y023782D02*
X013782Y023782D01*
X013901Y023663D02*
X014309Y023663D01*
X014427Y023545D02*
X014019Y023545D01*
X014138Y023426D02*
X014571Y023426D01*
X014687Y023681D02*
X016187Y023681D01*
X016687Y024181D01*
X016687Y025681D01*
X016249Y025678D02*
X016217Y025678D01*
X016217Y025560D02*
X016263Y025560D01*
X016217Y025441D02*
X016312Y025441D01*
X016217Y025323D02*
X016407Y025323D01*
X016407Y025204D02*
X016217Y025204D01*
X016217Y025086D02*
X016407Y025086D01*
X016407Y024967D02*
X016217Y024967D01*
X016217Y024849D02*
X016407Y024849D01*
X016407Y024730D02*
X016258Y024730D01*
X016336Y024611D02*
X016407Y024611D01*
X016407Y024493D02*
X016375Y024493D01*
X016375Y024374D02*
X016407Y024374D01*
X016366Y024256D02*
X016339Y024256D01*
X015937Y024431D02*
X015937Y027181D01*
X015687Y027431D01*
X014437Y027431D01*
X014187Y027181D01*
X014187Y026681D01*
X013773Y027101D02*
X013601Y027101D01*
X013483Y027219D02*
X013891Y027219D01*
X013949Y027338D02*
X012873Y027338D01*
X012875Y027344D02*
X012808Y027183D01*
X012685Y027060D01*
X012524Y026993D01*
X012350Y026993D01*
X012189Y027060D01*
X012118Y027131D01*
X009627Y027131D01*
X009517Y027177D01*
X009433Y027261D01*
X005510Y031183D01*
X005231Y031183D01*
X004940Y031475D01*
X004940Y031887D01*
X005231Y032178D01*
X005643Y032178D01*
X005935Y031887D01*
X005935Y031608D01*
X006000Y031543D01*
X006000Y031662D01*
X006418Y031662D01*
X006418Y031700D01*
X006418Y032118D01*
X006256Y032118D01*
X006000Y031862D01*
X006000Y031700D01*
X006418Y031700D01*
X006456Y031700D01*
X006456Y032118D01*
X006618Y032118D01*
X006875Y031862D01*
X006875Y031700D01*
X006456Y031700D01*
X006456Y031662D01*
X006875Y031662D01*
X006875Y031500D01*
X006618Y031243D01*
X006456Y031243D01*
X006456Y031662D01*
X006418Y031662D01*
X006418Y031243D01*
X006299Y031243D01*
X009811Y027731D01*
X012118Y027731D01*
X012189Y027802D01*
X012350Y027869D01*
X012524Y027869D01*
X012685Y027802D01*
X012808Y027679D01*
X012875Y027518D01*
X012875Y027344D01*
X012875Y027456D02*
X014067Y027456D01*
X014185Y027575D02*
X012852Y027575D01*
X012794Y027694D02*
X014340Y027694D01*
X015785Y027694D02*
X016250Y027694D01*
X016132Y027812D02*
X012662Y027812D01*
X012763Y027931D02*
X009612Y027931D01*
X009730Y027812D02*
X012213Y027812D01*
X012526Y028168D02*
X009374Y028168D01*
X009256Y028286D02*
X012407Y028286D01*
X012289Y028405D02*
X009137Y028405D01*
X009019Y028523D02*
X012170Y028523D01*
X012052Y028642D02*
X008900Y028642D01*
X008782Y028760D02*
X011933Y028760D01*
X011815Y028879D02*
X008663Y028879D01*
X008545Y028998D02*
X011696Y028998D01*
X011578Y029116D02*
X008426Y029116D01*
X008308Y029235D02*
X011459Y029235D01*
X011341Y029353D02*
X008189Y029353D01*
X008071Y029472D02*
X011222Y029472D01*
X011103Y029590D02*
X007952Y029590D01*
X007833Y029709D02*
X010985Y029709D01*
X010866Y029827D02*
X007715Y029827D01*
X007596Y029946D02*
X010748Y029946D01*
X010629Y030064D02*
X007478Y030064D01*
X007359Y030183D02*
X010511Y030183D01*
X010392Y030302D02*
X007241Y030302D01*
X007122Y030420D02*
X010274Y030420D01*
X010155Y030539D02*
X007004Y030539D01*
X006885Y030657D02*
X010037Y030657D01*
X009918Y030776D02*
X006767Y030776D01*
X006648Y030894D02*
X009799Y030894D01*
X009681Y031013D02*
X006529Y031013D01*
X006411Y031131D02*
X009562Y031131D01*
X009165Y031250D02*
X008710Y031250D01*
X008828Y031368D02*
X009046Y031368D01*
X008940Y031487D02*
X008935Y031487D01*
X008935Y031606D02*
X008940Y031606D01*
X008935Y031724D02*
X008940Y031724D01*
X008935Y031843D02*
X008940Y031843D01*
X009014Y031961D02*
X008860Y031961D01*
X008742Y032080D02*
X009132Y032080D01*
X008666Y032435D02*
X014517Y032435D01*
X014399Y032317D02*
X008547Y032317D01*
X008429Y032198D02*
X014280Y032198D01*
X013882Y032080D02*
X012742Y032080D01*
X012643Y032178D02*
X012935Y031887D01*
X012935Y031475D01*
X012643Y031183D01*
X012231Y031183D01*
X011940Y031475D01*
X011940Y031887D01*
X012231Y032178D01*
X012643Y032178D01*
X012860Y031961D02*
X013764Y031961D01*
X013690Y031843D02*
X012935Y031843D01*
X012935Y031724D02*
X013690Y031724D01*
X013690Y031606D02*
X012935Y031606D01*
X012935Y031487D02*
X013690Y031487D01*
X013796Y031368D02*
X012828Y031368D01*
X012710Y031250D02*
X013915Y031250D01*
X014460Y031250D02*
X014915Y031250D01*
X014796Y031368D02*
X014578Y031368D01*
X014685Y031487D02*
X014690Y031487D01*
X014685Y031606D02*
X014690Y031606D01*
X014685Y031724D02*
X014690Y031724D01*
X015129Y032198D02*
X017280Y032198D01*
X017399Y032317D02*
X015247Y032317D01*
X015366Y032435D02*
X017517Y032435D01*
X017636Y032554D02*
X015484Y032554D01*
X015603Y032672D02*
X017754Y032672D01*
X017873Y032791D02*
X015721Y032791D01*
X015229Y033147D02*
X015027Y033147D01*
X015110Y033028D02*
X014908Y033028D01*
X014991Y032909D02*
X014790Y032909D01*
X014873Y032791D02*
X014671Y032791D01*
X014754Y032672D02*
X014547Y032672D01*
X014636Y032554D02*
X008784Y032554D01*
X008410Y033028D02*
X001907Y033028D01*
X001907Y032909D02*
X008291Y032909D01*
X008173Y032791D02*
X001907Y032791D01*
X001907Y032672D02*
X008054Y032672D01*
X007936Y032554D02*
X001907Y032554D01*
X001907Y032435D02*
X007817Y032435D01*
X007699Y032317D02*
X001907Y032317D01*
X001907Y032198D02*
X007580Y032198D01*
X007132Y032080D02*
X006657Y032080D01*
X006776Y031961D02*
X007014Y031961D01*
X006940Y031843D02*
X006875Y031843D01*
X006875Y031724D02*
X006940Y031724D01*
X006940Y031606D02*
X006875Y031606D01*
X006862Y031487D02*
X006940Y031487D01*
X007046Y031368D02*
X006743Y031368D01*
X006625Y031250D02*
X007165Y031250D01*
X007710Y031250D02*
X008165Y031250D01*
X008046Y031368D02*
X007828Y031368D01*
X007935Y031487D02*
X007940Y031487D01*
X007935Y031606D02*
X007940Y031606D01*
X006456Y031606D02*
X006418Y031606D01*
X006418Y031724D02*
X006456Y031724D01*
X006456Y031843D02*
X006418Y031843D01*
X006418Y031961D02*
X006456Y031961D01*
X006456Y032080D02*
X006418Y032080D01*
X006217Y032080D02*
X005742Y032080D01*
X005860Y031961D02*
X006099Y031961D01*
X006000Y031843D02*
X005935Y031843D01*
X005935Y031724D02*
X006000Y031724D01*
X006000Y031606D02*
X005937Y031606D01*
X006418Y031487D02*
X006456Y031487D01*
X006456Y031368D02*
X006418Y031368D01*
X006418Y031250D02*
X006456Y031250D01*
X005918Y030776D02*
X001907Y030776D01*
X001907Y030894D02*
X005799Y030894D01*
X005681Y031013D02*
X001907Y031013D01*
X001907Y031131D02*
X005562Y031131D01*
X005165Y031250D02*
X001907Y031250D01*
X001907Y031368D02*
X005046Y031368D01*
X004940Y031487D02*
X001907Y031487D01*
X001907Y031606D02*
X004940Y031606D01*
X004940Y031724D02*
X001907Y031724D01*
X001907Y031843D02*
X004940Y031843D01*
X005014Y031961D02*
X001907Y031961D01*
X001907Y032080D02*
X005132Y032080D01*
X004190Y033310D02*
X003862Y033191D01*
X003862Y033191D01*
X003739Y033191D01*
X003739Y033191D01*
X003704Y033191D01*
X003687Y033191D01*
X003635Y033191D01*
X003635Y033191D01*
X003513Y033191D01*
X003512Y033191D01*
X003184Y033310D01*
X003184Y033310D01*
X002917Y033535D01*
X002917Y033535D01*
X002742Y033837D01*
X002742Y033837D01*
X002682Y034181D01*
X002682Y034181D01*
X002742Y034525D01*
X002917Y034827D01*
X002917Y034827D01*
X003184Y035051D01*
X003184Y035051D01*
X003512Y035171D01*
X003513Y035171D01*
X003635Y035171D01*
X003635Y035171D01*
X003687Y035171D01*
X003687Y035171D01*
X003739Y035171D01*
X003739Y035171D01*
X003862Y035171D01*
X003862Y035171D01*
X004190Y035051D01*
X004190Y035051D01*
X004457Y034827D01*
X004457Y034827D01*
X004632Y034525D01*
X004632Y034525D01*
X004692Y034181D01*
X004692Y034181D01*
X004632Y033837D01*
X004632Y033837D01*
X004457Y033535D01*
X004457Y033535D01*
X004457Y033535D01*
X004190Y033310D01*
X004190Y033310D01*
X004277Y033384D02*
X014416Y033384D01*
X014534Y033502D02*
X004418Y033502D01*
X004507Y033621D02*
X014653Y033621D01*
X014771Y033739D02*
X012449Y033739D01*
X012533Y033774D02*
X012704Y033945D01*
X012797Y034170D01*
X012797Y035192D01*
X012704Y035416D01*
X012533Y035588D01*
X012308Y035681D01*
X012066Y035681D01*
X011842Y035588D01*
X011670Y035416D01*
X011577Y035192D01*
X011577Y034170D01*
X011670Y033945D01*
X011842Y033774D01*
X012066Y033681D01*
X012308Y033681D01*
X012533Y033774D01*
X012617Y033858D02*
X014890Y033858D01*
X015066Y033976D02*
X012717Y033976D01*
X012766Y034095D02*
X040197Y034095D01*
X040182Y034181D02*
X040242Y033837D01*
X040417Y033535D01*
X040417Y033535D01*
X040684Y033310D01*
X040684Y033310D01*
X041012Y033191D01*
X041013Y033191D01*
X041135Y033191D01*
X041135Y033191D01*
X041187Y033191D01*
X041203Y033191D01*
X041239Y033191D01*
X041362Y033191D01*
X041690Y033310D01*
X041957Y033535D01*
X042132Y033837D01*
X042192Y034181D01*
X042132Y034525D01*
X041957Y034827D01*
X041690Y035051D01*
X041690Y035051D01*
X041362Y035171D01*
X041362Y035171D01*
X041239Y035171D01*
X041232Y035171D01*
X041187Y035171D01*
X041135Y035171D01*
X041013Y035171D01*
X040684Y035051D01*
X040417Y034827D01*
X040242Y034525D01*
X040242Y034525D01*
X040182Y034181D01*
X040182Y034181D01*
X040188Y034213D02*
X012797Y034213D01*
X012797Y034332D02*
X040209Y034332D01*
X040229Y034451D02*
X012797Y034451D01*
X012797Y034569D02*
X040268Y034569D01*
X040337Y034688D02*
X012797Y034688D01*
X012797Y034806D02*
X040405Y034806D01*
X040417Y034827D02*
X040417Y034827D01*
X040417Y034827D01*
X040533Y034925D02*
X012797Y034925D01*
X012797Y035043D02*
X040675Y035043D01*
X040684Y035051D02*
X040684Y035051D01*
X040988Y035162D02*
X012797Y035162D01*
X012761Y035280D02*
X042806Y035280D01*
X042872Y035162D02*
X041387Y035162D01*
X041239Y035171D02*
X041239Y035171D01*
X041135Y035171D02*
X041135Y035171D01*
X041699Y035043D02*
X042904Y035043D01*
X042936Y034925D02*
X041841Y034925D01*
X041957Y034827D02*
X041957Y034827D01*
X041969Y034806D02*
X042959Y034806D01*
X042967Y034688D02*
X042038Y034688D01*
X042106Y034569D02*
X042967Y034569D01*
X042967Y034451D02*
X042145Y034451D01*
X042132Y034525D02*
X042132Y034525D01*
X042166Y034332D02*
X042967Y034332D01*
X042967Y034213D02*
X042187Y034213D01*
X042192Y034181D02*
X042192Y034181D01*
X042177Y034095D02*
X042967Y034095D01*
X042967Y033976D02*
X042156Y033976D01*
X042135Y033858D02*
X042967Y033858D01*
X042967Y033739D02*
X042075Y033739D01*
X042132Y033837D02*
X042132Y033837D01*
X042007Y033621D02*
X042967Y033621D01*
X042967Y033502D02*
X041918Y033502D01*
X041957Y033535D02*
X041957Y033535D01*
X041957Y033535D01*
X041777Y033384D02*
X042967Y033384D01*
X042967Y033265D02*
X041565Y033265D01*
X041690Y033310D02*
X041690Y033310D01*
X041362Y033191D02*
X041362Y033191D01*
X041239Y033191D02*
X041239Y033191D01*
X040809Y033265D02*
X033527Y033265D01*
X033409Y033384D02*
X040597Y033384D01*
X040456Y033502D02*
X033290Y033502D01*
X033171Y033621D02*
X040367Y033621D01*
X040299Y033739D02*
X033053Y033739D01*
X032934Y033858D02*
X040239Y033858D01*
X040242Y033837D02*
X040242Y033837D01*
X040218Y033976D02*
X032758Y033976D01*
X032679Y033265D02*
X031027Y033265D01*
X031146Y033147D02*
X032797Y033147D01*
X032710Y033028D02*
X032916Y033028D01*
X032817Y032909D02*
X033034Y032909D01*
X033153Y032791D02*
X032866Y032791D01*
X032875Y032672D02*
X033271Y032672D01*
X033390Y032554D02*
X032960Y032554D01*
X033079Y032435D02*
X033499Y032435D01*
X033510Y032317D02*
X033197Y032317D01*
X033316Y032198D02*
X033559Y032198D01*
X033669Y032080D02*
X033434Y032080D01*
X033553Y031961D02*
X037804Y031961D01*
X037755Y032080D02*
X034205Y032080D01*
X034315Y032198D02*
X037749Y032198D01*
X037769Y032317D02*
X034364Y032317D01*
X034375Y032435D02*
X037822Y032435D01*
X037943Y032554D02*
X034360Y032554D01*
X034311Y032672D02*
X042967Y032672D01*
X042967Y032554D02*
X038432Y032554D01*
X038552Y032435D02*
X042967Y032435D01*
X042967Y032317D02*
X038605Y032317D01*
X038625Y032198D02*
X041155Y032198D01*
X040952Y032080D02*
X038619Y032080D01*
X038570Y031961D02*
X040849Y031961D01*
X040800Y031843D02*
X038487Y031843D01*
X038487Y031724D02*
X040777Y031724D01*
X040777Y031606D02*
X038487Y031606D01*
X038487Y031487D02*
X040813Y031487D01*
X040866Y031368D02*
X038487Y031368D01*
X038487Y031250D02*
X040984Y031250D01*
X041004Y031131D02*
X038487Y031131D01*
X038487Y031013D02*
X040885Y031013D01*
X040821Y030894D02*
X038487Y030894D01*
X038487Y030776D02*
X040777Y030776D01*
X040777Y030657D02*
X038487Y030657D01*
X038487Y030539D02*
X040791Y030539D01*
X040841Y030420D02*
X038487Y030420D01*
X038487Y030302D02*
X040933Y030302D01*
X041108Y030183D02*
X038487Y030183D01*
X038464Y030064D02*
X040937Y030064D01*
X041637Y029681D02*
X038687Y029681D01*
X037187Y028181D01*
X037187Y024681D01*
X039187Y022681D01*
X039187Y014681D01*
X038187Y013681D01*
X037749Y013705D02*
X034987Y013705D01*
X034987Y013587D02*
X037752Y013587D01*
X037801Y013468D02*
X034987Y013468D01*
X034987Y013350D02*
X037899Y013350D01*
X038476Y013350D02*
X039887Y013350D01*
X039887Y013468D02*
X038573Y013468D01*
X038622Y013587D02*
X039887Y013587D01*
X039887Y013705D02*
X038625Y013705D01*
X038726Y013824D02*
X039887Y013824D01*
X039887Y013943D02*
X038845Y013943D01*
X038963Y014061D02*
X039887Y014061D01*
X039887Y014180D02*
X039082Y014180D01*
X039200Y014298D02*
X039911Y014298D01*
X039999Y014417D02*
X039319Y014417D01*
X039430Y014535D02*
X040117Y014535D01*
X040236Y014654D02*
X039467Y014654D01*
X039467Y014772D02*
X040354Y014772D01*
X040473Y014891D02*
X039467Y014891D01*
X039467Y015009D02*
X040882Y015009D01*
X041000Y015128D02*
X039467Y015128D01*
X039467Y015247D02*
X040988Y015247D01*
X040869Y015365D02*
X039467Y015365D01*
X039467Y015484D02*
X040814Y015484D01*
X040777Y015602D02*
X039467Y015602D01*
X039467Y015721D02*
X040777Y015721D01*
X040798Y015839D02*
X039467Y015839D01*
X039467Y015958D02*
X040847Y015958D01*
X040949Y016076D02*
X039467Y016076D01*
X039467Y016195D02*
X041079Y016195D01*
X040921Y016313D02*
X039467Y016313D01*
X039467Y016432D02*
X040836Y016432D01*
X040787Y016551D02*
X039467Y016551D01*
X039467Y016669D02*
X040777Y016669D01*
X040777Y016788D02*
X039467Y016788D01*
X039467Y016906D02*
X040826Y016906D01*
X040897Y017025D02*
X039467Y017025D01*
X039467Y017143D02*
X041022Y017143D01*
X040973Y017262D02*
X039467Y017262D01*
X039467Y017380D02*
X040857Y017380D01*
X040808Y017499D02*
X039467Y017499D01*
X039467Y017617D02*
X040777Y017617D01*
X040777Y017736D02*
X039467Y017736D01*
X039467Y017854D02*
X040804Y017854D01*
X040854Y017973D02*
X039467Y017973D01*
X039467Y018092D02*
X040964Y018092D01*
X041043Y018210D02*
X039467Y018210D01*
X039467Y018329D02*
X040906Y018329D01*
X040829Y018447D02*
X039467Y018447D01*
X039467Y018566D02*
X040780Y018566D01*
X040777Y018684D02*
X039467Y018684D01*
X039467Y018803D02*
X040783Y018803D01*
X040832Y018921D02*
X039467Y018921D01*
X039467Y019040D02*
X040912Y019040D01*
X041059Y019158D02*
X039467Y019158D01*
X039467Y019277D02*
X040957Y019277D01*
X040851Y019396D02*
X039467Y019396D01*
X039467Y019514D02*
X040802Y019514D01*
X040777Y019633D02*
X039467Y019633D01*
X039467Y019751D02*
X040777Y019751D01*
X040811Y019870D02*
X039467Y019870D01*
X039467Y019988D02*
X040861Y019988D01*
X040979Y020107D02*
X039467Y020107D01*
X039467Y020225D02*
X041009Y020225D01*
X040890Y020344D02*
X039467Y020344D01*
X039467Y020462D02*
X040823Y020462D01*
X040777Y020581D02*
X039467Y020581D01*
X039467Y020700D02*
X040777Y020700D01*
X040789Y020818D02*
X039467Y020818D01*
X039467Y020937D02*
X040839Y020937D01*
X040928Y021055D02*
X039467Y021055D01*
X039467Y021174D02*
X041096Y021174D01*
X040942Y021292D02*
X039467Y021292D01*
X039467Y021411D02*
X040844Y021411D01*
X040795Y021529D02*
X039467Y021529D01*
X039467Y021648D02*
X040777Y021648D01*
X040777Y021766D02*
X039467Y021766D01*
X039467Y021885D02*
X040817Y021885D01*
X040876Y022004D02*
X039467Y022004D01*
X039467Y022122D02*
X040995Y022122D01*
X040994Y022241D02*
X039467Y022241D01*
X039467Y022359D02*
X040875Y022359D01*
X040817Y022478D02*
X039467Y022478D01*
X039467Y022596D02*
X040777Y022596D01*
X040777Y022715D02*
X039467Y022715D01*
X039427Y022833D02*
X040796Y022833D01*
X040845Y022952D02*
X039312Y022952D01*
X039194Y023070D02*
X040943Y023070D01*
X041094Y023189D02*
X039075Y023189D01*
X038956Y023307D02*
X040927Y023307D01*
X040838Y023426D02*
X038838Y023426D01*
X038719Y023545D02*
X040789Y023545D01*
X040777Y023663D02*
X038601Y023663D01*
X038482Y023782D02*
X040777Y023782D01*
X040823Y023900D02*
X038364Y023900D01*
X038245Y024019D02*
X040891Y024019D01*
X041010Y024137D02*
X038127Y024137D01*
X038008Y024256D02*
X040979Y024256D01*
X040860Y024374D02*
X037890Y024374D01*
X037774Y024493D02*
X040810Y024493D01*
X040777Y024611D02*
X037987Y024611D01*
X038078Y024730D02*
X040777Y024730D01*
X040802Y024849D02*
X038125Y024849D01*
X038147Y024967D02*
X040851Y024967D01*
X040958Y025086D02*
X038266Y025086D01*
X038385Y025204D02*
X041057Y025204D01*
X040912Y025323D02*
X038503Y025323D01*
X038622Y025441D02*
X040832Y025441D01*
X040783Y025560D02*
X038740Y025560D01*
X038859Y025678D02*
X040777Y025678D01*
X040781Y025797D02*
X038977Y025797D01*
X039096Y025915D02*
X040830Y025915D01*
X040906Y026034D02*
X039214Y026034D01*
X039333Y026153D02*
X041045Y026153D01*
X040963Y026271D02*
X039451Y026271D01*
X036687Y024681D02*
X036687Y028431D01*
X032437Y032681D01*
X031999Y032672D02*
X031620Y032672D01*
X031738Y032554D02*
X032015Y032554D01*
X032065Y032435D02*
X031857Y032435D01*
X031975Y032317D02*
X032182Y032317D01*
X032094Y032198D02*
X032524Y032198D01*
X032642Y032080D02*
X032213Y032080D01*
X032331Y031961D02*
X032761Y031961D01*
X032879Y031843D02*
X032450Y031843D01*
X032568Y031724D02*
X032998Y031724D01*
X033117Y031606D02*
X032687Y031606D01*
X032805Y031487D02*
X033235Y031487D01*
X033354Y031368D02*
X032924Y031368D01*
X033042Y031250D02*
X033472Y031250D01*
X033591Y031131D02*
X033161Y031131D01*
X033279Y031013D02*
X033709Y031013D01*
X033828Y030894D02*
X033398Y030894D01*
X033517Y030776D02*
X033946Y030776D01*
X034065Y030657D02*
X033635Y030657D01*
X033754Y030539D02*
X034183Y030539D01*
X034302Y030420D02*
X033872Y030420D01*
X033991Y030302D02*
X034421Y030302D01*
X034539Y030183D02*
X034109Y030183D01*
X034228Y030064D02*
X034658Y030064D01*
X034776Y029946D02*
X034346Y029946D01*
X034465Y029827D02*
X034895Y029827D01*
X035013Y029709D02*
X034583Y029709D01*
X034702Y029590D02*
X035132Y029590D01*
X035250Y029472D02*
X034821Y029472D01*
X034939Y029353D02*
X035369Y029353D01*
X035487Y029235D02*
X035058Y029235D01*
X035176Y029116D02*
X035606Y029116D01*
X035724Y028998D02*
X035295Y028998D01*
X035413Y028879D02*
X035843Y028879D01*
X035962Y028760D02*
X035532Y028760D01*
X035650Y028642D02*
X036080Y028642D01*
X036199Y028523D02*
X035769Y028523D01*
X035887Y028405D02*
X036317Y028405D01*
X036407Y028286D02*
X036006Y028286D01*
X036124Y028168D02*
X036407Y028168D01*
X036407Y028049D02*
X036243Y028049D01*
X036362Y027931D02*
X036407Y027931D01*
X036967Y028405D02*
X037015Y028405D01*
X036952Y028523D02*
X037134Y028523D01*
X037252Y028642D02*
X036872Y028642D01*
X036753Y028760D02*
X037057Y028760D01*
X036869Y028879D02*
X036635Y028879D01*
X036516Y028998D02*
X036789Y028998D01*
X036749Y029116D02*
X036398Y029116D01*
X036279Y029235D02*
X036749Y029235D01*
X036784Y029353D02*
X036161Y029353D01*
X036042Y029472D02*
X036858Y029472D01*
X037031Y029590D02*
X035924Y029590D01*
X035805Y029709D02*
X037291Y029709D01*
X037409Y029827D02*
X035687Y029827D01*
X035568Y029946D02*
X037528Y029946D01*
X037646Y030064D02*
X035449Y030064D01*
X035331Y030183D02*
X037765Y030183D01*
X037883Y030302D02*
X035212Y030302D01*
X035094Y030420D02*
X037887Y030420D01*
X037887Y030539D02*
X034975Y030539D01*
X034857Y030657D02*
X037887Y030657D01*
X037887Y030776D02*
X034738Y030776D01*
X034620Y030894D02*
X037887Y030894D01*
X037887Y031013D02*
X034501Y031013D01*
X034383Y031131D02*
X037887Y031131D01*
X037887Y031250D02*
X034264Y031250D01*
X034146Y031368D02*
X037887Y031368D01*
X037887Y031487D02*
X034027Y031487D01*
X033908Y031606D02*
X037887Y031606D01*
X037887Y031724D02*
X033790Y031724D01*
X033671Y031843D02*
X037887Y031843D01*
X038376Y029946D02*
X038595Y029946D01*
X038438Y029827D02*
X038258Y029827D01*
X038319Y029709D02*
X038139Y029709D01*
X038200Y029590D02*
X038021Y029590D01*
X038082Y029472D02*
X037902Y029472D01*
X037963Y029353D02*
X037784Y029353D01*
X037845Y029235D02*
X037665Y029235D01*
X037625Y029116D02*
X037726Y029116D01*
X037608Y028998D02*
X037585Y028998D01*
X037371Y028760D02*
X037317Y028760D01*
X035387Y027338D02*
X034947Y027338D01*
X034987Y027219D02*
X035387Y027219D01*
X035387Y027101D02*
X034987Y027101D01*
X034987Y026982D02*
X035387Y026982D01*
X035387Y026864D02*
X034987Y026864D01*
X034987Y026745D02*
X035387Y026745D01*
X035387Y026627D02*
X034987Y026627D01*
X034987Y026508D02*
X035387Y026508D01*
X035387Y026390D02*
X034987Y026390D01*
X034987Y026271D02*
X035387Y026271D01*
X035387Y026153D02*
X034987Y026153D01*
X034987Y026034D02*
X035387Y026034D01*
X035387Y025915D02*
X034987Y025915D01*
X034987Y025797D02*
X035387Y025797D01*
X035387Y025678D02*
X034987Y025678D01*
X034987Y025560D02*
X035387Y025560D01*
X035387Y025441D02*
X034987Y025441D01*
X034987Y025323D02*
X035387Y025323D01*
X035387Y025204D02*
X034987Y025204D01*
X034987Y025086D02*
X035387Y025086D01*
X035387Y024967D02*
X034987Y024967D01*
X034987Y024849D02*
X035387Y024849D01*
X035387Y024730D02*
X034987Y024730D01*
X034987Y024611D02*
X035387Y024611D01*
X035387Y024493D02*
X034987Y024493D01*
X034987Y024374D02*
X035387Y024374D01*
X035387Y024256D02*
X034987Y024256D01*
X034987Y024137D02*
X035387Y024137D01*
X035387Y024019D02*
X034987Y024019D01*
X034987Y023900D02*
X035387Y023900D01*
X035387Y023782D02*
X034987Y023782D01*
X034987Y023663D02*
X035387Y023663D01*
X035387Y023545D02*
X034987Y023545D01*
X034987Y023426D02*
X035387Y023426D01*
X035387Y023307D02*
X034987Y023307D01*
X034987Y023189D02*
X035387Y023189D01*
X035387Y023070D02*
X034987Y023070D01*
X034987Y022952D02*
X035387Y022952D01*
X035387Y022833D02*
X034987Y022833D01*
X034987Y022715D02*
X035387Y022715D01*
X035387Y022596D02*
X034987Y022596D01*
X034987Y022478D02*
X035387Y022478D01*
X035387Y022359D02*
X034987Y022359D01*
X034987Y022241D02*
X035387Y022241D01*
X035387Y022122D02*
X034987Y022122D01*
X034987Y022004D02*
X035387Y022004D01*
X035387Y021885D02*
X034987Y021885D01*
X034987Y021766D02*
X035387Y021766D01*
X035387Y021648D02*
X034987Y021648D01*
X034987Y021529D02*
X035387Y021529D01*
X035387Y021411D02*
X034987Y021411D01*
X034987Y021292D02*
X035387Y021292D01*
X035387Y021174D02*
X034987Y021174D01*
X034987Y021055D02*
X035387Y021055D01*
X035387Y020937D02*
X034987Y020937D01*
X034987Y020818D02*
X035387Y020818D01*
X035387Y020700D02*
X034987Y020700D01*
X034987Y020581D02*
X035387Y020581D01*
X035387Y020462D02*
X034987Y020462D01*
X034987Y020344D02*
X035387Y020344D01*
X035387Y020225D02*
X034987Y020225D01*
X034987Y020107D02*
X035387Y020107D01*
X035387Y019988D02*
X034987Y019988D01*
X034987Y019870D02*
X035387Y019870D01*
X035387Y019751D02*
X034987Y019751D01*
X034987Y019633D02*
X035387Y019633D01*
X035387Y019514D02*
X034987Y019514D01*
X034987Y019396D02*
X035387Y019396D01*
X035387Y019277D02*
X034987Y019277D01*
X034987Y019158D02*
X035387Y019158D01*
X035387Y019040D02*
X034987Y019040D01*
X034987Y018921D02*
X035387Y018921D01*
X035387Y018803D02*
X034987Y018803D01*
X034987Y018684D02*
X035387Y018684D01*
X035387Y018566D02*
X034987Y018566D01*
X034987Y018447D02*
X035387Y018447D01*
X035387Y018329D02*
X034987Y018329D01*
X034987Y018210D02*
X035387Y018210D01*
X035387Y018092D02*
X034987Y018092D01*
X034987Y017973D02*
X035387Y017973D01*
X035387Y017854D02*
X034987Y017854D01*
X034987Y017736D02*
X035387Y017736D01*
X035387Y017617D02*
X034987Y017617D01*
X034987Y017499D02*
X035387Y017499D01*
X035387Y017380D02*
X034987Y017380D01*
X034987Y017262D02*
X035387Y017262D01*
X035387Y017143D02*
X034987Y017143D01*
X034987Y017025D02*
X035387Y017025D01*
X035387Y016906D02*
X034987Y016906D01*
X034987Y016788D02*
X035387Y016788D01*
X035387Y016669D02*
X034987Y016669D01*
X034987Y016551D02*
X035387Y016551D01*
X035387Y016432D02*
X034987Y016432D01*
X034987Y016313D02*
X035387Y016313D01*
X035387Y016195D02*
X034987Y016195D01*
X034987Y016076D02*
X035387Y016076D01*
X035387Y015958D02*
X034987Y015958D01*
X034987Y015839D02*
X035387Y015839D01*
X035303Y015721D02*
X034987Y015721D01*
X034987Y015602D02*
X035059Y015602D01*
X034387Y015602D02*
X031487Y015602D01*
X031487Y015484D02*
X034387Y015484D01*
X034387Y015365D02*
X031487Y015365D01*
X031487Y015247D02*
X034387Y015247D01*
X034387Y015128D02*
X031487Y015128D01*
X031487Y015009D02*
X034387Y015009D01*
X034387Y014891D02*
X031487Y014891D01*
X031487Y014772D02*
X034387Y014772D01*
X034387Y014654D02*
X031487Y014654D01*
X031487Y014535D02*
X034387Y014535D01*
X034387Y014417D02*
X031487Y014417D01*
X031487Y014298D02*
X034387Y014298D01*
X034387Y014180D02*
X031487Y014180D01*
X031487Y014061D02*
X034387Y014061D01*
X034387Y013943D02*
X031545Y013943D01*
X031602Y013824D02*
X034387Y013824D01*
X034387Y013705D02*
X031625Y013705D01*
X031622Y013587D02*
X034387Y013587D01*
X034387Y013468D02*
X031573Y013468D01*
X031476Y013350D02*
X034387Y013350D01*
X034387Y013231D02*
X026987Y013231D01*
X026987Y013113D02*
X034391Y013113D01*
X034450Y012994D02*
X026987Y012994D01*
X026987Y012876D02*
X034568Y012876D01*
X034517Y012927D02*
X034517Y012927D01*
X034687Y012757D02*
X026987Y012757D01*
X026987Y012639D02*
X034805Y012639D01*
X034924Y012520D02*
X026987Y012520D01*
X026987Y012401D02*
X035042Y012401D01*
X035161Y012283D02*
X026987Y012283D01*
X026987Y012164D02*
X035297Y012164D01*
X035183Y012261D02*
X035183Y012261D01*
X035535Y012757D02*
X038894Y012757D01*
X039480Y012757D02*
X039887Y012757D01*
X039887Y012639D02*
X039575Y012639D01*
X039624Y012520D02*
X039887Y012520D01*
X039887Y012401D02*
X039625Y012401D01*
X039600Y012283D02*
X039887Y012283D01*
X039887Y012164D02*
X039540Y012164D01*
X039402Y012046D02*
X039887Y012046D01*
X039887Y011927D02*
X026987Y011927D01*
X026987Y011809D02*
X039887Y011809D01*
X039887Y011690D02*
X026987Y011690D01*
X026987Y011572D02*
X039887Y011572D01*
X039887Y011453D02*
X026987Y011453D01*
X026987Y011335D02*
X039887Y011335D01*
X039887Y011216D02*
X027076Y011216D01*
X027195Y011098D02*
X030048Y011098D01*
X030326Y011098D02*
X039887Y011098D01*
X039887Y010979D02*
X032751Y010979D01*
X032932Y010860D02*
X039887Y010860D01*
X039887Y010742D02*
X033050Y010742D01*
X032941Y010851D02*
X032941Y010851D01*
X033169Y010623D02*
X039887Y010623D01*
X039887Y010505D02*
X033287Y010505D01*
X033357Y010435D02*
X033357Y010435D01*
X033406Y010386D02*
X039887Y010386D01*
X039850Y010268D02*
X033476Y010268D01*
X033487Y010149D02*
X039731Y010149D01*
X039613Y010031D02*
X033487Y010031D01*
X033487Y009912D02*
X039494Y009912D01*
X039409Y009794D02*
X039090Y009794D01*
X039211Y009675D02*
X039387Y009675D01*
X039387Y009556D02*
X039311Y009556D01*
X039360Y009438D02*
X039387Y009438D01*
X039376Y008964D02*
X039387Y008964D01*
X039387Y008845D02*
X039327Y008845D01*
X039387Y008727D02*
X039251Y008727D01*
X039132Y008608D02*
X039387Y008608D01*
X039387Y008490D02*
X038899Y008490D01*
X038475Y008490D02*
X033487Y008490D01*
X033487Y008608D02*
X038242Y008608D01*
X038123Y008727D02*
X033487Y008727D01*
X033487Y008845D02*
X038047Y008845D01*
X037998Y008964D02*
X033487Y008964D01*
X033487Y009082D02*
X037967Y009082D01*
X037967Y009201D02*
X033487Y009201D01*
X033487Y009319D02*
X037967Y009319D01*
X038014Y009438D02*
X033487Y009438D01*
X033487Y009556D02*
X038063Y009556D01*
X038163Y009675D02*
X033487Y009675D01*
X033487Y009794D02*
X038285Y009794D01*
X039987Y009556D02*
X040129Y009556D01*
X040105Y009675D02*
X040248Y009675D01*
X040224Y009794D02*
X040366Y009794D01*
X040414Y009841D02*
X040027Y009454D01*
X040027Y009221D01*
X040647Y009221D01*
X040647Y009141D01*
X040027Y009141D01*
X040027Y008908D01*
X040414Y008521D01*
X040647Y008521D01*
X040647Y009141D01*
X040727Y009141D01*
X040727Y009221D01*
X040647Y009221D01*
X040647Y009841D01*
X040414Y009841D01*
X040342Y009912D02*
X042967Y009912D01*
X042967Y009794D02*
X041008Y009794D01*
X040960Y009841D02*
X040727Y009841D01*
X040727Y009221D01*
X041347Y009221D01*
X041347Y009454D01*
X040960Y009841D01*
X041126Y009675D02*
X042967Y009675D01*
X042967Y009556D02*
X041245Y009556D01*
X041347Y009438D02*
X042967Y009438D01*
X042967Y009319D02*
X041347Y009319D01*
X041347Y009141D02*
X040727Y009141D01*
X040727Y008521D01*
X040960Y008521D01*
X041347Y008908D01*
X041347Y009141D01*
X041347Y009082D02*
X042967Y009082D01*
X042967Y008964D02*
X041347Y008964D01*
X041285Y008845D02*
X042967Y008845D01*
X042967Y008727D02*
X041166Y008727D01*
X041048Y008608D02*
X042967Y008608D01*
X042967Y008490D02*
X039987Y008490D01*
X039987Y008608D02*
X040327Y008608D01*
X040208Y008727D02*
X039987Y008727D01*
X039987Y008845D02*
X040089Y008845D01*
X040027Y008964D02*
X039987Y008964D01*
X039987Y009082D02*
X040027Y009082D01*
X039987Y009201D02*
X040647Y009201D01*
X040727Y009201D02*
X042967Y009201D01*
X042967Y010031D02*
X040449Y010031D01*
X040487Y010149D02*
X042967Y010149D01*
X042967Y010268D02*
X040487Y010268D01*
X040487Y010386D02*
X042967Y010386D01*
X042967Y010505D02*
X040487Y010505D01*
X040487Y010623D02*
X042967Y010623D01*
X042967Y010742D02*
X040487Y010742D01*
X040487Y010860D02*
X042967Y010860D01*
X042967Y010979D02*
X040487Y010979D01*
X040487Y011098D02*
X042967Y011098D01*
X042967Y011216D02*
X040487Y011216D01*
X040487Y011335D02*
X042967Y011335D01*
X042967Y011453D02*
X040487Y011453D01*
X040487Y011572D02*
X042967Y011572D01*
X042967Y011690D02*
X040487Y011690D01*
X040487Y011809D02*
X042967Y011809D01*
X042967Y011927D02*
X040487Y011927D01*
X040487Y012046D02*
X042967Y012046D01*
X042967Y012164D02*
X042121Y012164D01*
X042323Y012283D02*
X042967Y012283D01*
X042967Y012401D02*
X042426Y012401D01*
X042475Y012520D02*
X042967Y012520D01*
X042967Y012639D02*
X042497Y012639D01*
X042497Y012757D02*
X042967Y012757D01*
X042967Y012876D02*
X042461Y012876D01*
X042407Y012994D02*
X042967Y012994D01*
X042967Y013113D02*
X042289Y013113D01*
X042127Y013231D02*
X042967Y013231D01*
X042967Y013350D02*
X042305Y013350D01*
X042387Y013468D02*
X042967Y013468D01*
X042967Y013587D02*
X042428Y013587D01*
X042415Y013824D02*
X042967Y013824D01*
X042967Y013943D02*
X042360Y013943D01*
X042250Y014061D02*
X042967Y014061D01*
X042967Y014180D02*
X042158Y014180D01*
X042338Y014298D02*
X042967Y014298D01*
X042967Y014417D02*
X042432Y014417D01*
X042481Y014535D02*
X042967Y014535D01*
X042967Y014654D02*
X042497Y014654D01*
X042497Y014772D02*
X042967Y014772D01*
X042967Y014891D02*
X042455Y014891D01*
X042392Y015009D02*
X042967Y015009D01*
X042967Y015128D02*
X042274Y015128D01*
X042286Y015247D02*
X042967Y015247D01*
X042967Y015365D02*
X042405Y015365D01*
X042460Y015484D02*
X042967Y015484D01*
X042967Y015602D02*
X042497Y015602D01*
X042497Y015721D02*
X042967Y015721D01*
X042967Y015839D02*
X042476Y015839D01*
X042427Y015958D02*
X042967Y015958D01*
X042967Y016076D02*
X042325Y016076D01*
X042195Y016195D02*
X042967Y016195D01*
X042967Y016313D02*
X042353Y016313D01*
X042438Y016432D02*
X042967Y016432D01*
X042967Y016551D02*
X042488Y016551D01*
X042497Y016669D02*
X042967Y016669D01*
X042967Y016788D02*
X042497Y016788D01*
X042448Y016906D02*
X042967Y016906D01*
X042967Y017025D02*
X042377Y017025D01*
X042252Y017143D02*
X042967Y017143D01*
X042967Y017262D02*
X042302Y017262D01*
X042417Y017380D02*
X042967Y017380D01*
X042967Y017499D02*
X042466Y017499D01*
X042497Y017617D02*
X042967Y017617D01*
X042967Y017736D02*
X042497Y017736D01*
X042470Y017854D02*
X042967Y017854D01*
X042967Y017973D02*
X042421Y017973D01*
X042310Y018092D02*
X042967Y018092D01*
X042967Y018210D02*
X042231Y018210D01*
X042368Y018329D02*
X042967Y018329D01*
X042967Y018447D02*
X042445Y018447D01*
X042494Y018566D02*
X042967Y018566D01*
X042967Y018684D02*
X042497Y018684D01*
X042491Y018803D02*
X042967Y018803D01*
X042967Y018921D02*
X042442Y018921D01*
X042362Y019040D02*
X042967Y019040D01*
X042967Y019158D02*
X042215Y019158D01*
X042317Y019277D02*
X042967Y019277D01*
X042967Y019396D02*
X042423Y019396D01*
X042472Y019514D02*
X042967Y019514D01*
X042967Y019633D02*
X042497Y019633D01*
X042497Y019751D02*
X042967Y019751D01*
X042967Y019870D02*
X042463Y019870D01*
X042413Y019988D02*
X042967Y019988D01*
X042967Y020107D02*
X042295Y020107D01*
X042265Y020225D02*
X042967Y020225D01*
X042967Y020344D02*
X042384Y020344D01*
X042451Y020462D02*
X042967Y020462D01*
X042967Y020581D02*
X042497Y020581D01*
X042497Y020700D02*
X042967Y020700D01*
X042967Y020818D02*
X042485Y020818D01*
X042436Y020937D02*
X042967Y020937D01*
X042967Y021055D02*
X042346Y021055D01*
X042178Y021174D02*
X042967Y021174D01*
X042967Y021292D02*
X042332Y021292D01*
X042430Y021411D02*
X042967Y021411D01*
X042967Y021529D02*
X042479Y021529D01*
X042497Y021648D02*
X042967Y021648D01*
X042967Y021766D02*
X042497Y021766D01*
X042457Y021885D02*
X042967Y021885D01*
X042967Y022004D02*
X042398Y022004D01*
X042280Y022122D02*
X042967Y022122D01*
X042967Y022241D02*
X042280Y022241D01*
X042399Y022359D02*
X042967Y022359D01*
X042967Y022478D02*
X042457Y022478D01*
X042497Y022596D02*
X042967Y022596D01*
X042967Y022715D02*
X042497Y022715D01*
X042478Y022833D02*
X042967Y022833D01*
X042967Y022952D02*
X042429Y022952D01*
X042331Y023070D02*
X042967Y023070D01*
X042967Y023189D02*
X042180Y023189D01*
X042347Y023307D02*
X042967Y023307D01*
X042967Y023426D02*
X042436Y023426D01*
X042485Y023545D02*
X042967Y023545D01*
X042967Y023663D02*
X042497Y023663D01*
X042497Y023782D02*
X042967Y023782D01*
X042967Y023900D02*
X042451Y023900D01*
X042383Y024019D02*
X042967Y024019D01*
X042967Y024137D02*
X042264Y024137D01*
X042296Y024256D02*
X042967Y024256D01*
X042967Y024374D02*
X042414Y024374D01*
X042464Y024493D02*
X042967Y024493D01*
X042967Y024611D02*
X042497Y024611D01*
X042497Y024730D02*
X042967Y024730D01*
X042967Y024849D02*
X042472Y024849D01*
X042423Y024967D02*
X042967Y024967D01*
X042967Y025086D02*
X042316Y025086D01*
X042217Y025204D02*
X042967Y025204D01*
X042967Y025323D02*
X042363Y025323D01*
X042442Y025441D02*
X042967Y025441D01*
X042967Y025560D02*
X042491Y025560D01*
X042497Y025678D02*
X042967Y025678D01*
X042967Y025797D02*
X042494Y025797D01*
X042444Y025915D02*
X042967Y025915D01*
X042967Y026034D02*
X042368Y026034D01*
X042230Y026153D02*
X042967Y026153D01*
X042967Y026271D02*
X042311Y026271D01*
X042421Y026390D02*
X042967Y026390D01*
X042967Y026508D02*
X042470Y026508D01*
X042497Y026627D02*
X042967Y026627D01*
X042967Y026745D02*
X042497Y026745D01*
X042466Y026864D02*
X042967Y026864D01*
X042967Y026982D02*
X042417Y026982D01*
X042301Y027101D02*
X042967Y027101D01*
X042967Y027219D02*
X042254Y027219D01*
X042378Y027338D02*
X042967Y027338D01*
X042967Y027456D02*
X042449Y027456D01*
X042497Y027575D02*
X042967Y027575D01*
X042967Y027694D02*
X042497Y027694D01*
X042487Y027812D02*
X042967Y027812D01*
X042967Y027931D02*
X042438Y027931D01*
X042352Y028049D02*
X042967Y028049D01*
X042967Y028168D02*
X042193Y028168D01*
X042326Y028286D02*
X042967Y028286D01*
X042967Y028405D02*
X042427Y028405D01*
X042476Y028523D02*
X042967Y028523D01*
X042967Y028642D02*
X042497Y028642D01*
X042497Y028760D02*
X042967Y028760D01*
X042967Y028879D02*
X042460Y028879D01*
X042404Y028998D02*
X042967Y028998D01*
X042967Y029116D02*
X042286Y029116D01*
X042274Y029235D02*
X042967Y029235D01*
X042967Y029353D02*
X042393Y029353D01*
X042455Y029472D02*
X042967Y029472D01*
X042967Y029590D02*
X042497Y029590D01*
X042497Y029709D02*
X042967Y029709D01*
X042967Y029827D02*
X042481Y029827D01*
X042432Y029946D02*
X042967Y029946D01*
X042967Y030064D02*
X042337Y030064D01*
X042166Y030183D02*
X042967Y030183D01*
X042967Y030302D02*
X042341Y030302D01*
X042433Y030420D02*
X042967Y030420D01*
X042967Y030539D02*
X042483Y030539D01*
X042497Y030657D02*
X042967Y030657D01*
X042967Y030776D02*
X042497Y030776D01*
X042453Y030894D02*
X042967Y030894D01*
X042967Y031013D02*
X042389Y031013D01*
X042270Y031131D02*
X042967Y031131D01*
X042967Y031250D02*
X042290Y031250D01*
X042408Y031368D02*
X042967Y031368D01*
X042967Y031487D02*
X042461Y031487D01*
X042497Y031606D02*
X042967Y031606D01*
X042967Y031724D02*
X042497Y031724D01*
X042475Y031843D02*
X042967Y031843D01*
X042967Y031961D02*
X042426Y031961D01*
X042322Y032080D02*
X042967Y032080D01*
X042967Y032198D02*
X042119Y032198D01*
X042967Y032791D02*
X034197Y032791D01*
X033883Y032909D02*
X042967Y032909D01*
X042967Y033028D02*
X033764Y033028D01*
X033646Y033147D02*
X042967Y033147D01*
X042738Y035399D02*
X012711Y035399D01*
X012603Y035517D02*
X042645Y035517D01*
X042527Y035636D02*
X012417Y035636D01*
X011957Y035636D02*
X010417Y035636D01*
X010308Y035681D02*
X010066Y035681D01*
X009842Y035588D01*
X009670Y035416D01*
X009577Y035192D01*
X009577Y034170D01*
X009670Y033945D01*
X009842Y033774D01*
X010066Y033681D01*
X010308Y033681D01*
X010533Y033774D01*
X010704Y033945D01*
X010797Y034170D01*
X010797Y035192D01*
X010704Y035416D01*
X010533Y035588D01*
X010308Y035681D01*
X010603Y035517D02*
X011771Y035517D01*
X011663Y035399D02*
X010711Y035399D01*
X010761Y035280D02*
X011614Y035280D01*
X011577Y035162D02*
X010797Y035162D01*
X010797Y035043D02*
X011577Y035043D01*
X011577Y034925D02*
X010797Y034925D01*
X010797Y034806D02*
X011577Y034806D01*
X011577Y034688D02*
X010797Y034688D01*
X010797Y034569D02*
X011577Y034569D01*
X011577Y034451D02*
X010797Y034451D01*
X010797Y034332D02*
X011577Y034332D01*
X011577Y034213D02*
X010797Y034213D01*
X010766Y034095D02*
X011608Y034095D01*
X011657Y033976D02*
X010717Y033976D01*
X010617Y033858D02*
X011758Y033858D01*
X011925Y033739D02*
X010449Y033739D01*
X009925Y033739D02*
X008449Y033739D01*
X008533Y033774D02*
X008704Y033945D01*
X008797Y034170D01*
X008797Y035192D01*
X008704Y035416D01*
X008533Y035588D01*
X008308Y035681D01*
X008066Y035681D01*
X007842Y035588D01*
X007670Y035416D01*
X007577Y035192D01*
X007577Y034170D01*
X007670Y033945D01*
X007842Y033774D01*
X008066Y033681D01*
X008308Y033681D01*
X008533Y033774D01*
X008617Y033858D02*
X009758Y033858D01*
X009657Y033976D02*
X008717Y033976D01*
X008766Y034095D02*
X009608Y034095D01*
X009577Y034213D02*
X008797Y034213D01*
X008797Y034332D02*
X009577Y034332D01*
X009577Y034451D02*
X008797Y034451D01*
X008797Y034569D02*
X009577Y034569D01*
X009577Y034688D02*
X008797Y034688D01*
X008797Y034806D02*
X009577Y034806D01*
X009577Y034925D02*
X008797Y034925D01*
X008797Y035043D02*
X009577Y035043D01*
X009577Y035162D02*
X008797Y035162D01*
X008761Y035280D02*
X009614Y035280D01*
X009663Y035399D02*
X008711Y035399D01*
X008603Y035517D02*
X009771Y035517D01*
X009957Y035636D02*
X008417Y035636D01*
X007957Y035636D02*
X002347Y035636D01*
X002229Y035517D02*
X007771Y035517D01*
X007663Y035399D02*
X002136Y035399D01*
X002068Y035280D02*
X007614Y035280D01*
X007577Y035162D02*
X003887Y035162D01*
X004199Y035043D02*
X007577Y035043D01*
X007577Y034925D02*
X004341Y034925D01*
X004469Y034806D02*
X007577Y034806D01*
X007577Y034688D02*
X004538Y034688D01*
X004606Y034569D02*
X007577Y034569D01*
X007577Y034451D02*
X004645Y034451D01*
X004666Y034332D02*
X007577Y034332D01*
X007577Y034213D02*
X004687Y034213D01*
X004677Y034095D02*
X007608Y034095D01*
X007657Y033976D02*
X004656Y033976D01*
X004635Y033858D02*
X007758Y033858D01*
X007925Y033739D02*
X004575Y033739D01*
X004065Y033265D02*
X014297Y033265D01*
X015146Y033265D02*
X015347Y033265D01*
X015981Y032178D02*
X015690Y031887D01*
X015690Y031475D01*
X015981Y031183D01*
X016393Y031183D01*
X016685Y031475D01*
X016685Y031887D01*
X016393Y032178D01*
X015981Y032178D01*
X015882Y032080D02*
X015492Y032080D01*
X015610Y031961D02*
X015764Y031961D01*
X015690Y031843D02*
X015685Y031843D01*
X015685Y031724D02*
X015690Y031724D01*
X015685Y031606D02*
X015690Y031606D01*
X015685Y031487D02*
X015690Y031487D01*
X015796Y031368D02*
X015578Y031368D01*
X015460Y031250D02*
X015915Y031250D01*
X016460Y031250D02*
X016915Y031250D01*
X016796Y031368D02*
X016578Y031368D01*
X016685Y031487D02*
X016690Y031487D01*
X016685Y031606D02*
X016690Y031606D01*
X016685Y031724D02*
X016690Y031724D01*
X016685Y031843D02*
X016690Y031843D01*
X016764Y031961D02*
X016610Y031961D01*
X016492Y032080D02*
X016882Y032080D01*
X017312Y031131D02*
X010411Y031131D01*
X010529Y031013D02*
X017431Y031013D01*
X017549Y030894D02*
X010648Y030894D01*
X010767Y030776D02*
X017668Y030776D01*
X017787Y030657D02*
X010885Y030657D01*
X011004Y030539D02*
X017905Y030539D01*
X018024Y030420D02*
X011122Y030420D01*
X011241Y030302D02*
X018142Y030302D01*
X018261Y030183D02*
X011359Y030183D01*
X011478Y030064D02*
X018379Y030064D01*
X018498Y029946D02*
X011596Y029946D01*
X011715Y029827D02*
X018616Y029827D01*
X018735Y029709D02*
X011833Y029709D01*
X011952Y029590D02*
X018853Y029590D01*
X018972Y029472D02*
X012071Y029472D01*
X012189Y029353D02*
X019091Y029353D01*
X019209Y029235D02*
X012308Y029235D01*
X012426Y029116D02*
X019328Y029116D01*
X019446Y028998D02*
X012545Y028998D01*
X012663Y028879D02*
X019565Y028879D01*
X019683Y028760D02*
X012782Y028760D01*
X012900Y028642D02*
X019802Y028642D01*
X019887Y028523D02*
X013019Y028523D01*
X012645Y028049D02*
X009493Y028049D01*
X009000Y027694D02*
X001907Y027694D01*
X001907Y027812D02*
X008882Y027812D01*
X008763Y027931D02*
X001907Y027931D01*
X001907Y028049D02*
X008645Y028049D01*
X008526Y028168D02*
X001907Y028168D01*
X001907Y028286D02*
X008407Y028286D01*
X008289Y028405D02*
X001907Y028405D01*
X001907Y028523D02*
X008170Y028523D01*
X008052Y028642D02*
X001907Y028642D01*
X001907Y028760D02*
X007933Y028760D01*
X007815Y028879D02*
X001907Y028879D01*
X001907Y028998D02*
X007696Y028998D01*
X007578Y029116D02*
X001907Y029116D01*
X001907Y029235D02*
X007459Y029235D01*
X007341Y029353D02*
X001907Y029353D01*
X001907Y029472D02*
X007222Y029472D01*
X007103Y029590D02*
X001907Y029590D01*
X001907Y029709D02*
X006985Y029709D01*
X006866Y029827D02*
X001907Y029827D01*
X001907Y029946D02*
X006748Y029946D01*
X006629Y030064D02*
X001907Y030064D01*
X001907Y030183D02*
X006511Y030183D01*
X006392Y030302D02*
X001907Y030302D01*
X001907Y030420D02*
X006274Y030420D01*
X006155Y030539D02*
X001907Y030539D01*
X001907Y030657D02*
X006037Y030657D01*
X008528Y033147D02*
X001907Y033147D01*
X001907Y033265D02*
X003309Y033265D01*
X003097Y033384D02*
X001907Y033384D01*
X001907Y033502D02*
X002956Y033502D01*
X002867Y033621D02*
X001907Y033621D01*
X001907Y033739D02*
X002799Y033739D01*
X002739Y033858D02*
X001907Y033858D01*
X001907Y033976D02*
X002718Y033976D01*
X002697Y034095D02*
X001907Y034095D01*
X001907Y034213D02*
X002688Y034213D01*
X002709Y034332D02*
X001907Y034332D01*
X001907Y034451D02*
X002729Y034451D01*
X002768Y034569D02*
X001907Y034569D01*
X001907Y034688D02*
X002837Y034688D01*
X002905Y034806D02*
X001915Y034806D01*
X001939Y034925D02*
X003033Y034925D01*
X003175Y035043D02*
X001970Y035043D01*
X002002Y035162D02*
X003488Y035162D01*
X002733Y035873D02*
X042141Y035873D01*
X042366Y035755D02*
X002508Y035755D01*
X009742Y032080D02*
X010132Y032080D01*
X010014Y031961D02*
X009860Y031961D01*
X009935Y031843D02*
X009940Y031843D01*
X009935Y031724D02*
X009940Y031724D01*
X009937Y031606D02*
X009940Y031606D01*
X010710Y031250D02*
X011165Y031250D01*
X011231Y031183D02*
X011643Y031183D01*
X011935Y031475D01*
X011935Y031887D01*
X011643Y032178D01*
X011231Y032178D01*
X010940Y031887D01*
X010940Y031475D01*
X011231Y031183D01*
X011046Y031368D02*
X010828Y031368D01*
X010935Y031487D02*
X010940Y031487D01*
X010935Y031606D02*
X010940Y031606D01*
X010935Y031724D02*
X010940Y031724D01*
X010935Y031843D02*
X010940Y031843D01*
X011014Y031961D02*
X010860Y031961D01*
X010742Y032080D02*
X011132Y032080D01*
X011742Y032080D02*
X012132Y032080D01*
X012014Y031961D02*
X011860Y031961D01*
X011935Y031843D02*
X011940Y031843D01*
X011935Y031724D02*
X011940Y031724D01*
X011935Y031606D02*
X011940Y031606D01*
X011935Y031487D02*
X011940Y031487D01*
X012046Y031368D02*
X011828Y031368D01*
X011710Y031250D02*
X012165Y031250D01*
X009119Y027575D02*
X001907Y027575D01*
X001907Y027456D02*
X009237Y027456D01*
X009356Y027338D02*
X001907Y027338D01*
X001907Y027219D02*
X009474Y027219D01*
X008703Y026390D02*
X011471Y026390D01*
X011517Y026435D02*
X011517Y026435D01*
X011590Y026508D02*
X008584Y026508D01*
X008466Y026627D02*
X011709Y026627D01*
X011827Y026745D02*
X007642Y026745D01*
X007437Y026864D02*
X011946Y026864D01*
X012148Y027101D02*
X001907Y027101D01*
X001907Y026982D02*
X004431Y026982D01*
X004462Y027014D02*
X004350Y026902D01*
X004290Y026756D01*
X004290Y026598D01*
X004350Y026452D01*
X004462Y026340D01*
X004608Y026280D01*
X004766Y026280D01*
X004912Y026340D01*
X005024Y026452D01*
X005084Y026598D01*
X005084Y026756D01*
X005024Y026902D01*
X004912Y027014D01*
X004766Y027074D01*
X004608Y027074D01*
X004462Y027014D01*
X004335Y026864D02*
X001907Y026864D01*
X001907Y026745D02*
X004290Y026745D01*
X004290Y026627D02*
X001907Y026627D01*
X001907Y026508D02*
X004327Y026508D01*
X004413Y026390D02*
X001907Y026390D01*
X001907Y026271D02*
X006929Y026271D01*
X006899Y026390D02*
X004961Y026390D01*
X005047Y026508D02*
X006899Y026508D01*
X006944Y026627D02*
X005084Y026627D01*
X005084Y026745D02*
X007032Y026745D01*
X007237Y026864D02*
X005040Y026864D01*
X004943Y026982D02*
X012654Y026982D01*
X012727Y027101D02*
X012773Y027101D01*
X012824Y027219D02*
X012891Y027219D01*
X012763Y026271D02*
X012201Y026271D01*
X012083Y026153D02*
X012881Y026153D01*
X012791Y026034D02*
X011987Y026034D01*
X011987Y025915D02*
X012672Y025915D01*
X012657Y025797D02*
X011987Y025797D01*
X011987Y025678D02*
X013147Y025678D01*
X013147Y025560D02*
X013227Y025560D01*
X013227Y025441D02*
X013147Y025441D01*
X013147Y025323D02*
X013227Y025323D01*
X013227Y025204D02*
X013147Y025204D01*
X012914Y025204D02*
X011987Y025204D01*
X011987Y025086D02*
X013907Y025086D01*
X013907Y024967D02*
X011987Y024967D01*
X011987Y024849D02*
X013907Y024849D01*
X013907Y024730D02*
X011987Y024730D01*
X011987Y025323D02*
X012796Y025323D01*
X012677Y025441D02*
X011987Y025441D01*
X011987Y025560D02*
X012657Y025560D01*
X013460Y025204D02*
X013830Y025204D01*
X013711Y025323D02*
X013578Y025323D01*
X014187Y025681D02*
X014187Y024181D01*
X014687Y023681D01*
X014256Y023307D02*
X016418Y023307D01*
X016303Y023426D02*
X016536Y023426D01*
X016447Y023545D02*
X016655Y023545D01*
X016565Y023663D02*
X016749Y023663D01*
X016755Y023782D02*
X016684Y023782D01*
X016802Y023900D02*
X016804Y023900D01*
X016967Y024137D02*
X018748Y024137D01*
X018866Y024256D02*
X016967Y024256D01*
X016967Y024374D02*
X018985Y024374D01*
X019103Y024493D02*
X016967Y024493D01*
X016967Y024611D02*
X019222Y024611D01*
X019249Y024730D02*
X016967Y024730D01*
X016967Y024849D02*
X019282Y024849D01*
X019354Y024967D02*
X016967Y024967D01*
X016967Y025086D02*
X019519Y025086D01*
X019855Y025086D02*
X019887Y025086D01*
X019887Y025204D02*
X016967Y025204D01*
X016967Y025323D02*
X019887Y025323D01*
X019887Y025441D02*
X017062Y025441D01*
X017111Y025560D02*
X019887Y025560D01*
X019887Y025678D02*
X017125Y025678D01*
X017113Y025797D02*
X019887Y025797D01*
X019887Y025915D02*
X017064Y025915D01*
X016987Y026034D02*
X019887Y026034D01*
X019887Y026153D02*
X016987Y026153D01*
X016987Y026271D02*
X019887Y026271D01*
X019887Y026390D02*
X016987Y026390D01*
X016987Y026508D02*
X019887Y026508D01*
X019887Y026627D02*
X016987Y026627D01*
X016987Y026745D02*
X019887Y026745D01*
X019887Y026864D02*
X016987Y026864D01*
X016987Y026982D02*
X019887Y026982D01*
X019887Y027101D02*
X016987Y027101D01*
X016987Y027219D02*
X019887Y027219D01*
X019887Y027338D02*
X016987Y027338D01*
X016987Y027456D02*
X019887Y027456D01*
X019887Y027575D02*
X016987Y027575D01*
X016987Y027694D02*
X019887Y027694D01*
X019887Y027812D02*
X016957Y027812D01*
X016862Y027931D02*
X019887Y027931D01*
X019887Y028049D02*
X016743Y028049D01*
X016624Y028168D02*
X019887Y028168D01*
X019887Y028286D02*
X016506Y028286D01*
X016387Y028405D02*
X019887Y028405D01*
X020702Y029590D02*
X020750Y029590D01*
X020735Y029709D02*
X020583Y029709D01*
X020616Y029827D02*
X020465Y029827D01*
X020498Y029946D02*
X020346Y029946D01*
X020379Y030064D02*
X020228Y030064D01*
X020261Y030183D02*
X020109Y030183D01*
X020142Y030302D02*
X019991Y030302D01*
X020024Y030420D02*
X019872Y030420D01*
X019921Y030539D02*
X019754Y030539D01*
X019635Y030657D02*
X019887Y030657D01*
X019887Y030776D02*
X019516Y030776D01*
X019398Y030894D02*
X019887Y030894D01*
X019887Y031013D02*
X019279Y031013D01*
X019161Y031131D02*
X019887Y031131D01*
X019887Y031250D02*
X019460Y031250D01*
X019578Y031368D02*
X019796Y031368D01*
X019690Y031487D02*
X019685Y031487D01*
X019685Y031606D02*
X019690Y031606D01*
X019685Y031724D02*
X019690Y031724D01*
X019685Y031843D02*
X019690Y031843D01*
X019764Y031961D02*
X019610Y031961D01*
X019492Y032080D02*
X019882Y032080D01*
X020492Y032080D02*
X020882Y032080D01*
X020764Y031961D02*
X020610Y031961D01*
X020685Y031843D02*
X020690Y031843D01*
X020685Y031724D02*
X020690Y031724D01*
X020685Y031606D02*
X020690Y031606D01*
X020685Y031487D02*
X020690Y031487D01*
X020796Y031368D02*
X020578Y031368D01*
X020487Y031250D02*
X020887Y031250D01*
X020887Y031131D02*
X020487Y031131D01*
X020487Y031013D02*
X020887Y031013D01*
X020887Y030894D02*
X020487Y030894D01*
X020517Y030776D02*
X020887Y030776D01*
X020887Y030657D02*
X020635Y030657D01*
X020754Y030539D02*
X020921Y030539D01*
X020872Y030420D02*
X021024Y030420D01*
X020991Y030302D02*
X021142Y030302D01*
X021109Y030183D02*
X021261Y030183D01*
X021687Y030181D02*
X021187Y030681D01*
X021517Y030776D02*
X031968Y030776D01*
X031849Y030894D02*
X021487Y030894D01*
X021487Y031013D02*
X031731Y031013D01*
X031612Y031131D02*
X021487Y031131D01*
X021487Y031250D02*
X031494Y031250D01*
X031375Y031368D02*
X021578Y031368D01*
X021685Y031487D02*
X031257Y031487D01*
X031138Y031606D02*
X021685Y031606D01*
X021685Y031724D02*
X031020Y031724D01*
X030901Y031843D02*
X021685Y031843D01*
X021610Y031961D02*
X030783Y031961D01*
X030664Y032080D02*
X021492Y032080D01*
X021635Y030657D02*
X032087Y030657D01*
X032205Y030539D02*
X021754Y030539D01*
X021872Y030420D02*
X032324Y030420D01*
X032442Y030302D02*
X021991Y030302D01*
X022109Y030183D02*
X032561Y030183D01*
X032679Y030064D02*
X022228Y030064D01*
X022346Y029946D02*
X032798Y029946D01*
X032916Y029827D02*
X022465Y029827D01*
X022583Y029709D02*
X033035Y029709D01*
X033153Y029590D02*
X031844Y029590D01*
X031774Y029619D02*
X031600Y029619D01*
X031439Y029552D01*
X031316Y029429D01*
X031249Y029268D01*
X031249Y029094D01*
X031316Y028933D01*
X031387Y028861D01*
X031387Y028805D01*
X031201Y028619D01*
X031100Y028619D01*
X030939Y028552D01*
X030816Y028429D01*
X030749Y028268D01*
X030749Y028094D01*
X030816Y027933D01*
X030939Y027810D01*
X031100Y027743D01*
X031274Y027743D01*
X031435Y027810D01*
X031558Y027933D01*
X031625Y028094D01*
X031625Y028195D01*
X031857Y028427D01*
X031941Y028511D01*
X031987Y028621D01*
X031987Y028861D01*
X032058Y028933D01*
X032125Y029094D01*
X032125Y029268D01*
X032058Y029429D01*
X031935Y029552D01*
X031774Y029619D01*
X031531Y029590D02*
X030844Y029590D01*
X031016Y029472D02*
X031358Y029472D01*
X031284Y029353D02*
X031090Y029353D01*
X031125Y029235D02*
X031249Y029235D01*
X031249Y029116D02*
X031125Y029116D01*
X031085Y028998D02*
X031289Y028998D01*
X031369Y028879D02*
X031005Y028879D01*
X030817Y028760D02*
X031342Y028760D01*
X031224Y028642D02*
X022572Y028642D01*
X022454Y028523D02*
X030910Y028523D01*
X030806Y028405D02*
X022335Y028405D01*
X022217Y028286D02*
X030757Y028286D01*
X030749Y028168D02*
X022098Y028168D01*
X021987Y028049D02*
X030767Y028049D01*
X030818Y027931D02*
X021987Y027931D01*
X021987Y027812D02*
X030936Y027812D01*
X031438Y027812D02*
X033767Y027812D01*
X033749Y027694D02*
X021987Y027694D01*
X021987Y027575D02*
X033757Y027575D01*
X033806Y027456D02*
X021987Y027456D01*
X021987Y027338D02*
X033910Y027338D01*
X034224Y027219D02*
X021987Y027219D01*
X021987Y027101D02*
X034343Y027101D01*
X034387Y026982D02*
X021987Y026982D01*
X021987Y026864D02*
X034387Y026864D01*
X034387Y026745D02*
X021987Y026745D01*
X021987Y026627D02*
X034387Y026627D01*
X034387Y026508D02*
X021987Y026508D01*
X021987Y026390D02*
X034387Y026390D01*
X034387Y026271D02*
X021987Y026271D01*
X021987Y026153D02*
X034387Y026153D01*
X034387Y026034D02*
X021987Y026034D01*
X021987Y025915D02*
X034387Y025915D01*
X034387Y025797D02*
X021987Y025797D01*
X021987Y025678D02*
X034387Y025678D01*
X034387Y025560D02*
X021987Y025560D01*
X021987Y025441D02*
X034387Y025441D01*
X034387Y025323D02*
X021987Y025323D01*
X021987Y025204D02*
X034387Y025204D01*
X034387Y025086D02*
X027355Y025086D01*
X027520Y024967D02*
X034387Y024967D01*
X034387Y024849D02*
X027592Y024849D01*
X027625Y024730D02*
X034387Y024730D01*
X034387Y024611D02*
X027625Y024611D01*
X027583Y024493D02*
X034387Y024493D01*
X034387Y024374D02*
X027500Y024374D01*
X027487Y024256D02*
X034387Y024256D01*
X034387Y024137D02*
X027487Y024137D01*
X027487Y024019D02*
X034387Y024019D01*
X034387Y023900D02*
X027487Y023900D01*
X027487Y023782D02*
X034387Y023782D01*
X034387Y023663D02*
X027487Y023663D01*
X027487Y023545D02*
X034387Y023545D01*
X034387Y023426D02*
X027487Y023426D01*
X027487Y023307D02*
X034387Y023307D01*
X034387Y023189D02*
X027487Y023189D01*
X027487Y023070D02*
X034387Y023070D01*
X034387Y022952D02*
X027487Y022952D01*
X027487Y022833D02*
X034387Y022833D01*
X034387Y022715D02*
X027487Y022715D01*
X027487Y022596D02*
X034387Y022596D01*
X034387Y022478D02*
X027487Y022478D01*
X027487Y022359D02*
X034387Y022359D01*
X034387Y022241D02*
X027487Y022241D01*
X027487Y022122D02*
X034387Y022122D01*
X034387Y022004D02*
X027487Y022004D01*
X027487Y021885D02*
X034387Y021885D01*
X034387Y021766D02*
X027487Y021766D01*
X027487Y021648D02*
X034387Y021648D01*
X034387Y021529D02*
X027487Y021529D01*
X027487Y021411D02*
X034387Y021411D01*
X034387Y021292D02*
X027487Y021292D01*
X027487Y021174D02*
X034387Y021174D01*
X034387Y021055D02*
X027487Y021055D01*
X027487Y020937D02*
X034387Y020937D01*
X034387Y020818D02*
X027487Y020818D01*
X027487Y020700D02*
X034387Y020700D01*
X034387Y020581D02*
X027487Y020581D01*
X027487Y020462D02*
X034387Y020462D01*
X034387Y020344D02*
X027487Y020344D01*
X027487Y020225D02*
X034387Y020225D01*
X034387Y020107D02*
X027487Y020107D01*
X027487Y019988D02*
X034387Y019988D01*
X034387Y019870D02*
X027487Y019870D01*
X027487Y019751D02*
X034387Y019751D01*
X034387Y019633D02*
X027487Y019633D01*
X027487Y019514D02*
X034387Y019514D01*
X034387Y019396D02*
X027487Y019396D01*
X027487Y019277D02*
X034387Y019277D01*
X034387Y019158D02*
X027487Y019158D01*
X027453Y019040D02*
X034387Y019040D01*
X034387Y018921D02*
X028116Y018921D01*
X027558Y018921D02*
X027352Y018921D01*
X027357Y018927D02*
X027357Y018927D01*
X027455Y018803D02*
X027233Y018803D01*
X027115Y018684D02*
X027406Y018684D01*
X027399Y018566D02*
X026996Y018566D01*
X026878Y018447D02*
X027418Y018447D01*
X026187Y019181D02*
X026687Y019681D01*
X026687Y020681D01*
X026446Y021055D02*
X026360Y021055D01*
X026311Y021174D02*
X026887Y021174D01*
X026887Y021292D02*
X026195Y021292D01*
X025937Y020931D02*
X025937Y019931D01*
X025537Y019531D01*
X024737Y019531D01*
X023487Y020781D01*
X021237Y020781D01*
X021087Y020931D01*
X020587Y020931D01*
X020337Y020681D01*
X019937Y020681D01*
X019787Y020831D01*
X019787Y021131D01*
X019387Y021531D01*
X018437Y021531D01*
X018287Y021681D01*
X017937Y021681D01*
X018234Y022004D02*
X020036Y022004D01*
X019999Y022122D02*
X016824Y022122D01*
X016706Y022004D02*
X017090Y022004D01*
X016997Y021885D02*
X016587Y021885D01*
X016468Y021766D02*
X016949Y021766D01*
X016949Y021648D02*
X016350Y021648D01*
X016231Y021529D02*
X016976Y021529D01*
X017038Y021411D02*
X016113Y021411D01*
X015937Y021631D02*
X014887Y021631D01*
X015168Y021292D02*
X017107Y021292D01*
X017034Y021174D02*
X013164Y021174D01*
X012887Y020831D02*
X017087Y020831D01*
X017387Y021131D01*
X017387Y021681D01*
X017667Y021331D02*
X017689Y021310D01*
X017850Y021243D01*
X018024Y021243D01*
X018185Y021310D01*
X018224Y021348D01*
X018278Y021294D01*
X018381Y021251D01*
X019271Y021251D01*
X019507Y021015D01*
X019507Y020887D01*
X019507Y020775D01*
X019550Y020672D01*
X019661Y020561D01*
X017181Y020561D01*
X017078Y020518D01*
X017021Y020461D01*
X013803Y020461D01*
X013713Y020551D01*
X017143Y020551D01*
X017246Y020594D01*
X017324Y020672D01*
X017624Y020972D01*
X017667Y021075D01*
X017667Y021187D01*
X017667Y021331D01*
X017667Y021292D02*
X017731Y021292D01*
X017667Y021174D02*
X019348Y021174D01*
X019467Y021055D02*
X017659Y021055D01*
X017589Y020937D02*
X019507Y020937D01*
X019507Y020818D02*
X017470Y020818D01*
X017352Y020700D02*
X019538Y020700D01*
X019641Y020581D02*
X017215Y020581D01*
X017023Y020462D02*
X013801Y020462D01*
X013687Y020181D02*
X017137Y020181D01*
X017237Y020281D01*
X019837Y020281D01*
X019937Y020381D01*
X020687Y020381D01*
X021387Y019881D02*
X022087Y020581D01*
X022987Y020581D01*
X024387Y019181D01*
X026187Y019181D01*
X025480Y019870D02*
X025324Y019870D01*
X025373Y019988D02*
X025598Y019988D01*
X025657Y020107D02*
X025375Y020107D01*
X025351Y020225D02*
X025657Y020225D01*
X025657Y020344D02*
X025294Y020344D01*
X025237Y020462D02*
X025657Y020462D01*
X025657Y020581D02*
X025237Y020581D01*
X025237Y020700D02*
X025559Y020700D01*
X025510Y020818D02*
X025237Y020818D01*
X025237Y020937D02*
X025499Y020937D01*
X025514Y021055D02*
X025237Y021055D01*
X025237Y021174D02*
X025563Y021174D01*
X025679Y021292D02*
X025237Y021292D01*
X025237Y021411D02*
X026887Y021411D01*
X026887Y021529D02*
X025221Y021529D01*
X025144Y021648D02*
X026887Y021648D01*
X026887Y021766D02*
X025026Y021766D01*
X024907Y021885D02*
X026887Y021885D01*
X026887Y022004D02*
X024789Y022004D01*
X024670Y022122D02*
X026887Y022122D01*
X026887Y022241D02*
X024552Y022241D01*
X024433Y022359D02*
X026887Y022359D01*
X026887Y022478D02*
X024315Y022478D01*
X024196Y022596D02*
X026887Y022596D01*
X026887Y022715D02*
X024077Y022715D01*
X023959Y022833D02*
X026887Y022833D01*
X026887Y022952D02*
X023840Y022952D01*
X023722Y023070D02*
X026887Y023070D01*
X026887Y023189D02*
X023603Y023189D01*
X023485Y023307D02*
X026887Y023307D01*
X026887Y023426D02*
X023366Y023426D01*
X023248Y023545D02*
X026887Y023545D01*
X026887Y023663D02*
X023129Y023663D01*
X023011Y023782D02*
X026887Y023782D01*
X026887Y023900D02*
X022892Y023900D01*
X022774Y024019D02*
X026887Y024019D01*
X026887Y024137D02*
X022655Y024137D01*
X022536Y024256D02*
X026887Y024256D01*
X026874Y024374D02*
X022418Y024374D01*
X022299Y024493D02*
X026791Y024493D01*
X026749Y024611D02*
X022181Y024611D01*
X022062Y024730D02*
X026749Y024730D01*
X026782Y024849D02*
X021987Y024849D01*
X021987Y024967D02*
X026854Y024967D01*
X027019Y025086D02*
X021987Y025086D01*
X019887Y024256D02*
X019806Y024256D01*
X019887Y024137D02*
X019539Y024137D01*
X019421Y024019D02*
X019887Y024019D01*
X019887Y023900D02*
X019302Y023900D01*
X019184Y023782D02*
X019887Y023782D01*
X019887Y023663D02*
X019065Y023663D01*
X018947Y023545D02*
X019887Y023545D01*
X019887Y023426D02*
X018828Y023426D01*
X018710Y023307D02*
X019887Y023307D01*
X019887Y023189D02*
X018949Y023189D01*
X019062Y023070D02*
X019887Y023070D01*
X019887Y022952D02*
X019111Y022952D01*
X019125Y022833D02*
X019887Y022833D01*
X019931Y022715D02*
X019113Y022715D01*
X019064Y022596D02*
X020048Y022596D01*
X020114Y022478D02*
X018953Y022478D01*
X018421Y022478D02*
X018077Y022478D01*
X018125Y022596D02*
X018310Y022596D01*
X018261Y022715D02*
X018125Y022715D01*
X018235Y022833D02*
X018249Y022833D01*
X017687Y022681D02*
X019687Y024681D01*
X018629Y024019D02*
X018146Y024019D01*
X018287Y023900D02*
X018510Y023900D01*
X018392Y023782D02*
X018349Y023782D01*
X017937Y023631D02*
X015937Y021631D01*
X015687Y022181D02*
X017187Y023681D01*
X017469Y024019D02*
X017729Y024019D01*
X017587Y023900D02*
X017570Y023900D01*
X017297Y022478D02*
X017180Y022478D01*
X017061Y022359D02*
X017389Y022359D01*
X016943Y022241D02*
X019999Y022241D01*
X020037Y022359D02*
X017985Y022359D01*
X018479Y021885D02*
X020113Y021885D01*
X020293Y021766D02*
X019548Y021766D01*
X019666Y021648D02*
X020230Y021648D01*
X019916Y021529D02*
X019785Y021529D01*
X018282Y021292D02*
X018144Y021292D01*
X017487Y019881D02*
X021387Y019881D01*
X021519Y019633D02*
X021715Y019633D01*
X021701Y019619D02*
X022249Y020167D01*
X022249Y020268D01*
X022263Y020301D01*
X022203Y020301D01*
X021546Y019644D01*
X021443Y019601D01*
X021331Y019601D01*
X017827Y019601D01*
X017735Y019510D01*
X017574Y019443D01*
X017400Y019443D01*
X017239Y019510D01*
X017116Y019633D01*
X017234Y019514D02*
X011973Y019514D01*
X012072Y019396D02*
X021302Y019396D01*
X021253Y019277D02*
X012121Y019277D01*
X012125Y019158D02*
X021249Y019158D01*
X021150Y019040D02*
X012103Y019040D01*
X011687Y019181D02*
X011187Y019681D01*
X011687Y020181D01*
X011187Y019681D02*
X005687Y019681D01*
X004687Y020681D01*
X004687Y021931D01*
X004997Y022241D02*
X011037Y022241D01*
X011037Y022359D02*
X004798Y022359D01*
X004576Y022359D02*
X004467Y022359D01*
X004467Y022478D02*
X011037Y022478D01*
X011037Y022596D02*
X004467Y022596D01*
X004467Y022715D02*
X011037Y022715D01*
X011037Y022833D02*
X004467Y022833D01*
X004467Y022952D02*
X011062Y022952D01*
X011152Y023070D02*
X004467Y023070D01*
X004467Y023189D02*
X011271Y023189D01*
X011387Y023307D02*
X004467Y023307D01*
X004467Y023426D02*
X011387Y023426D01*
X011387Y023545D02*
X004467Y023545D01*
X004565Y023663D02*
X011387Y023663D01*
X011387Y023782D02*
X010718Y023782D01*
X010876Y023900D02*
X011387Y023900D01*
X011387Y024019D02*
X010944Y024019D01*
X010975Y024137D02*
X011387Y024137D01*
X011387Y024256D02*
X010975Y024256D01*
X010931Y024374D02*
X011387Y024374D01*
X011387Y024493D02*
X010845Y024493D01*
X010642Y024611D02*
X011387Y024611D01*
X011387Y024730D02*
X010425Y024730D01*
X010425Y024611D02*
X010432Y024611D01*
X010392Y024849D02*
X011387Y024849D01*
X011387Y024967D02*
X010320Y024967D01*
X010155Y025086D02*
X011387Y025086D01*
X011387Y025204D02*
X009888Y025204D01*
X009770Y025323D02*
X011387Y025323D01*
X011387Y025441D02*
X009651Y025441D01*
X009532Y025560D02*
X011387Y025560D01*
X011387Y025678D02*
X009414Y025678D01*
X009295Y025797D02*
X011387Y025797D01*
X011387Y025915D02*
X009177Y025915D01*
X009058Y026034D02*
X011387Y026034D01*
X011387Y026153D02*
X008940Y026153D01*
X008821Y026271D02*
X011400Y026271D01*
X009514Y024730D02*
X009062Y024730D01*
X008944Y024849D02*
X009395Y024849D01*
X009277Y024967D02*
X008780Y024967D01*
X009040Y025204D02*
X004989Y025204D01*
X005024Y025170D02*
X004912Y025281D01*
X004766Y025342D01*
X004608Y025342D01*
X004462Y025281D01*
X004350Y025170D01*
X004290Y025024D01*
X004290Y024866D01*
X004350Y024720D01*
X004462Y024608D01*
X004608Y024548D01*
X004766Y024548D01*
X004912Y024608D01*
X005024Y024720D01*
X005084Y024866D01*
X005084Y025024D01*
X005024Y025170D01*
X005059Y025086D02*
X007519Y025086D01*
X007354Y024967D02*
X005084Y024967D01*
X005077Y024849D02*
X007282Y024849D01*
X007249Y024730D02*
X005028Y024730D01*
X004915Y024611D02*
X007249Y024611D01*
X007291Y024493D02*
X001907Y024493D01*
X001907Y024611D02*
X004459Y024611D01*
X004346Y024730D02*
X001907Y024730D01*
X001907Y024849D02*
X004297Y024849D01*
X004290Y024967D02*
X001907Y024967D01*
X001907Y025086D02*
X004316Y025086D01*
X004385Y025204D02*
X001907Y025204D01*
X001907Y025323D02*
X004562Y025323D01*
X004812Y025323D02*
X008921Y025323D01*
X008802Y025441D02*
X001907Y025441D01*
X001907Y025560D02*
X008684Y025560D01*
X008565Y025678D02*
X001907Y025678D01*
X001907Y025797D02*
X008447Y025797D01*
X008328Y025915D02*
X001907Y025915D01*
X001907Y026034D02*
X007151Y026034D01*
X006996Y026153D02*
X001907Y026153D01*
X001907Y024374D02*
X004485Y024374D01*
X004366Y024256D02*
X001907Y024256D01*
X001907Y024137D02*
X004247Y024137D01*
X004129Y024019D02*
X001907Y024019D01*
X001907Y023900D02*
X004010Y023900D01*
X003926Y023782D02*
X001907Y023782D01*
X001907Y023663D02*
X003907Y023663D01*
X003907Y023545D02*
X001907Y023545D01*
X001907Y023426D02*
X003907Y023426D01*
X003907Y023307D02*
X001907Y023307D01*
X001907Y023189D02*
X003907Y023189D01*
X003907Y023070D02*
X001907Y023070D01*
X001907Y022952D02*
X003907Y022952D01*
X003907Y022833D02*
X001907Y022833D01*
X001907Y022715D02*
X003907Y022715D01*
X003907Y022596D02*
X001907Y022596D01*
X001907Y022478D02*
X003907Y022478D01*
X003907Y022359D02*
X001907Y022359D01*
X001907Y022241D02*
X003907Y022241D01*
X003907Y022122D02*
X001907Y022122D01*
X001907Y022004D02*
X003907Y022004D01*
X003907Y021885D02*
X001907Y021885D01*
X001907Y021766D02*
X003907Y021766D01*
X003907Y021648D02*
X001907Y021648D01*
X001907Y021529D02*
X003907Y021529D01*
X003907Y021411D02*
X001907Y021411D01*
X001907Y021292D02*
X003907Y021292D01*
X003907Y021174D02*
X001907Y021174D01*
X001907Y021055D02*
X003907Y021055D01*
X003907Y020937D02*
X001907Y020937D01*
X001907Y020818D02*
X003907Y020818D01*
X003907Y020700D02*
X001907Y020700D01*
X001907Y020581D02*
X003907Y020581D01*
X003907Y020462D02*
X001907Y020462D01*
X001907Y020344D02*
X003907Y020344D01*
X003907Y020225D02*
X001907Y020225D01*
X001907Y020107D02*
X003915Y020107D01*
X003984Y019988D02*
X001907Y019988D01*
X001907Y019870D02*
X004102Y019870D01*
X004221Y019751D02*
X001907Y019751D01*
X001907Y019633D02*
X004339Y019633D01*
X004458Y019514D02*
X001907Y019514D01*
X001907Y019396D02*
X004576Y019396D01*
X004695Y019277D02*
X001907Y019277D01*
X001907Y019158D02*
X004814Y019158D01*
X004932Y019040D02*
X001907Y019040D01*
X001907Y018921D02*
X005051Y018921D01*
X005169Y018803D02*
X001907Y018803D01*
X001907Y018684D02*
X005288Y018684D01*
X005406Y018566D02*
X001907Y018566D01*
X001907Y018447D02*
X005525Y018447D01*
X005687Y018681D02*
X004187Y020181D01*
X004187Y023681D01*
X004687Y024181D01*
X008187Y024181D01*
X008594Y024019D02*
X008925Y024019D01*
X008806Y024137D02*
X008625Y024137D01*
X008625Y024256D02*
X008688Y024256D01*
X008526Y023900D02*
X009081Y023900D01*
X008368Y023782D02*
X010356Y023782D01*
X009591Y024493D02*
X009299Y024493D01*
X009181Y024611D02*
X009549Y024611D01*
X009158Y025086D02*
X007855Y025086D01*
X007524Y026034D02*
X008210Y026034D01*
X007848Y023900D02*
X004802Y023900D01*
X004684Y023782D02*
X008006Y023782D01*
X009922Y021885D02*
X005125Y021885D01*
X005125Y022004D02*
X010890Y022004D01*
X011037Y022122D02*
X005082Y022122D01*
X005093Y021766D02*
X009810Y021766D01*
X009761Y021648D02*
X005024Y021648D01*
X004967Y021529D02*
X007552Y021529D01*
X007333Y021411D02*
X004967Y021411D01*
X004967Y021292D02*
X007223Y021292D01*
X007174Y021174D02*
X004967Y021174D01*
X004967Y021055D02*
X007147Y021055D01*
X007147Y020937D02*
X004967Y020937D01*
X004967Y020818D02*
X007147Y020818D01*
X007147Y020700D02*
X005064Y020700D01*
X005183Y020581D02*
X007147Y020581D01*
X007147Y020462D02*
X005301Y020462D01*
X005420Y020344D02*
X007147Y020344D01*
X007159Y020225D02*
X005539Y020225D01*
X005657Y020107D02*
X007208Y020107D01*
X007296Y019988D02*
X005776Y019988D01*
X007822Y021529D02*
X008552Y021529D01*
X008333Y021411D02*
X008041Y021411D01*
X008151Y021292D02*
X008223Y021292D01*
X008822Y021529D02*
X009552Y021529D01*
X009333Y021411D02*
X009041Y021411D01*
X009151Y021292D02*
X009223Y021292D01*
X010187Y021531D02*
X010637Y021531D01*
X010787Y021681D01*
X011187Y021681D01*
X010595Y021885D02*
X010453Y021885D01*
X012187Y022431D02*
X012437Y022181D01*
X015687Y022181D01*
X015706Y022596D02*
X015655Y022596D01*
X015675Y022715D02*
X015825Y022715D01*
X015944Y022833D02*
X015669Y022833D01*
X015620Y022952D02*
X016062Y022952D01*
X016181Y023070D02*
X015517Y023070D01*
X015237Y022731D02*
X014437Y022731D01*
X012987Y024181D01*
X012360Y022833D02*
X013939Y022833D01*
X014057Y022715D02*
X012523Y022715D01*
X012593Y022596D02*
X014176Y022596D01*
X014200Y022572D02*
X014200Y022572D01*
X014317Y022478D02*
X012625Y022478D01*
X014375Y023189D02*
X016299Y023189D01*
X014957Y023070D02*
X014494Y023070D01*
X013487Y020381D02*
X012487Y020381D01*
X012684Y019988D02*
X013484Y019988D01*
X013687Y020181D02*
X013487Y020381D01*
X013192Y016788D02*
X010718Y016788D01*
X012703Y014772D02*
X012883Y014772D01*
X012821Y014891D02*
X013001Y014891D01*
X012940Y015009D02*
X020420Y015009D01*
X020538Y015128D02*
X013058Y015128D01*
X012764Y014654D02*
X012584Y014654D01*
X012645Y014535D02*
X012466Y014535D01*
X012527Y014417D02*
X012347Y014417D01*
X012408Y014298D02*
X012229Y014298D01*
X012290Y014180D02*
X012110Y014180D01*
X012171Y014061D02*
X011991Y014061D01*
X012053Y013943D02*
X011873Y013943D01*
X011934Y013824D02*
X011754Y013824D01*
X011816Y013705D02*
X011636Y013705D01*
X011697Y013587D02*
X011517Y013587D01*
X011579Y013468D02*
X011399Y013468D01*
X011460Y013350D02*
X011280Y013350D01*
X011341Y013231D02*
X011162Y013231D01*
X011685Y012757D02*
X011750Y012757D01*
X011750Y012662D02*
X011750Y012500D01*
X012006Y012243D01*
X012168Y012243D01*
X012168Y012662D01*
X011750Y012662D01*
X011750Y012639D02*
X011685Y012639D01*
X011685Y012520D02*
X011750Y012520D01*
X011848Y012401D02*
X011611Y012401D01*
X011493Y012283D02*
X011966Y012283D01*
X012168Y012283D02*
X012206Y012283D01*
X012206Y012243D02*
X012368Y012243D01*
X012625Y012500D01*
X012625Y012662D01*
X012206Y012662D01*
X012206Y012700D01*
X012168Y012700D01*
X012168Y012662D01*
X012206Y012662D01*
X012206Y012243D01*
X012206Y012401D02*
X012168Y012401D01*
X012168Y012520D02*
X012206Y012520D01*
X012206Y012639D02*
X012168Y012639D01*
X012206Y012700D02*
X012625Y012700D01*
X012625Y012862D01*
X012368Y013118D01*
X012206Y013118D01*
X012206Y012700D01*
X012206Y012757D02*
X012168Y012757D01*
X012168Y012876D02*
X012206Y012876D01*
X012206Y012994D02*
X012168Y012994D01*
X012168Y013113D02*
X012206Y013113D01*
X012374Y013113D02*
X013000Y013113D01*
X013006Y013118D02*
X012750Y012862D01*
X012750Y012700D01*
X013168Y012700D01*
X013168Y013118D01*
X013006Y013118D01*
X013168Y013113D02*
X013206Y013113D01*
X013206Y013118D02*
X013206Y012700D01*
X013168Y012700D01*
X013168Y012662D01*
X012750Y012662D01*
X012750Y012500D01*
X013006Y012243D01*
X013168Y012243D01*
X013168Y012662D01*
X013206Y012662D01*
X013206Y012700D01*
X013625Y012700D01*
X013625Y012862D01*
X013368Y013118D01*
X013206Y013118D01*
X013206Y012994D02*
X013168Y012994D01*
X013168Y012876D02*
X013206Y012876D01*
X013206Y012757D02*
X013168Y012757D01*
X013206Y012662D02*
X013625Y012662D01*
X013625Y012500D01*
X013368Y012243D01*
X013206Y012243D01*
X013206Y012662D01*
X013206Y012639D02*
X013168Y012639D01*
X013168Y012520D02*
X013206Y012520D01*
X013206Y012401D02*
X013168Y012401D01*
X013168Y012283D02*
X013206Y012283D01*
X013408Y012283D02*
X013882Y012283D01*
X013763Y012401D02*
X013526Y012401D01*
X013625Y012520D02*
X013690Y012520D01*
X013690Y012639D02*
X013625Y012639D01*
X013625Y012757D02*
X013690Y012757D01*
X013690Y012876D02*
X013611Y012876D01*
X013492Y012994D02*
X013797Y012994D01*
X013915Y013113D02*
X013374Y013113D01*
X012882Y012994D02*
X012492Y012994D01*
X012611Y012876D02*
X012763Y012876D01*
X012750Y012757D02*
X012625Y012757D01*
X012625Y012639D02*
X012750Y012639D01*
X012750Y012520D02*
X012625Y012520D01*
X012526Y012401D02*
X012848Y012401D01*
X012966Y012283D02*
X012408Y012283D01*
X007956Y012046D02*
X017398Y012046D01*
X017516Y011927D02*
X007858Y011927D01*
X007739Y011809D02*
X017635Y011809D01*
X017754Y011690D02*
X007621Y011690D01*
X007502Y011572D02*
X017872Y011572D01*
X017991Y011453D02*
X007384Y011453D01*
X007265Y011335D02*
X018109Y011335D01*
X018685Y012639D02*
X018690Y012639D01*
X018685Y012757D02*
X018690Y012757D01*
X018685Y012876D02*
X018690Y012876D01*
X018797Y012994D02*
X018577Y012994D01*
X018459Y013113D02*
X018915Y013113D01*
X019459Y013113D02*
X019915Y013113D01*
X019797Y012994D02*
X019577Y012994D01*
X019685Y012876D02*
X019690Y012876D01*
X019685Y012757D02*
X019690Y012757D01*
X019685Y012639D02*
X019690Y012639D01*
X019685Y012520D02*
X019690Y012520D01*
X019763Y012401D02*
X019611Y012401D01*
X019493Y012283D02*
X019882Y012283D01*
X023687Y012401D02*
X024087Y012401D01*
X024087Y012283D02*
X023709Y012283D01*
X023828Y012164D02*
X024087Y012164D01*
X024118Y012046D02*
X023946Y012046D01*
X024065Y011927D02*
X024216Y011927D01*
X024183Y011809D02*
X024335Y011809D01*
X024302Y011690D02*
X024454Y011690D01*
X024421Y011572D02*
X024572Y011572D01*
X024587Y011453D02*
X024539Y011453D01*
X024087Y012520D02*
X023687Y012520D01*
X023687Y012639D02*
X024087Y012639D01*
X024087Y012757D02*
X023687Y012757D01*
X023687Y012876D02*
X024087Y012876D01*
X024087Y012994D02*
X023687Y012994D01*
X023687Y013113D02*
X024087Y013113D01*
X024087Y013231D02*
X023687Y013231D01*
X023687Y013350D02*
X024087Y013350D01*
X024087Y013468D02*
X023687Y013468D01*
X023687Y013587D02*
X024087Y013587D01*
X024087Y013705D02*
X023687Y013705D01*
X023687Y013824D02*
X024087Y013824D01*
X024012Y013943D02*
X023763Y013943D01*
X023812Y014061D02*
X023962Y014061D01*
X023949Y014180D02*
X023825Y014180D01*
X023813Y014298D02*
X023961Y014298D01*
X024011Y014417D02*
X023764Y014417D01*
X023652Y014535D02*
X024122Y014535D01*
X025325Y014654D02*
X026290Y014654D01*
X026387Y014535D02*
X025652Y014535D01*
X025764Y014417D02*
X026387Y014417D01*
X026387Y014298D02*
X025813Y014298D01*
X025825Y014180D02*
X026387Y014180D01*
X026387Y014061D02*
X025812Y014061D01*
X025763Y013943D02*
X026387Y013943D01*
X026387Y013824D02*
X025687Y013824D01*
X025687Y013705D02*
X026387Y013705D01*
X026387Y013587D02*
X025687Y013587D01*
X025687Y013468D02*
X026387Y013468D01*
X026387Y013350D02*
X025687Y013350D01*
X025761Y013231D02*
X026387Y013231D01*
X026387Y013113D02*
X025879Y013113D01*
X025998Y012994D02*
X026387Y012994D01*
X026387Y012876D02*
X026117Y012876D01*
X026180Y012757D02*
X026387Y012757D01*
X026387Y012639D02*
X026187Y012639D01*
X026187Y012520D02*
X026387Y012520D01*
X026387Y012401D02*
X026187Y012401D01*
X026187Y012283D02*
X026387Y012283D01*
X026387Y012164D02*
X026187Y012164D01*
X026187Y012046D02*
X026387Y012046D01*
X026387Y011927D02*
X026187Y011927D01*
X026187Y011809D02*
X026387Y011809D01*
X026387Y011690D02*
X026187Y011690D01*
X026187Y011572D02*
X026387Y011572D01*
X026387Y011453D02*
X026187Y011453D01*
X026187Y011335D02*
X026387Y011335D01*
X026387Y011216D02*
X026187Y011216D01*
X026187Y011098D02*
X026397Y011098D01*
X026465Y010979D02*
X026187Y010979D01*
X026187Y010860D02*
X026583Y010860D01*
X026702Y010742D02*
X026187Y010742D01*
X026187Y010623D02*
X026820Y010623D01*
X026939Y010505D02*
X026187Y010505D01*
X026187Y010386D02*
X027115Y010386D01*
X026499Y009794D02*
X032887Y009794D01*
X032887Y009912D02*
X026380Y009912D01*
X026262Y010031D02*
X032887Y010031D01*
X032795Y010149D02*
X026187Y010149D01*
X026187Y010268D02*
X030040Y010268D01*
X030334Y010268D02*
X032676Y010268D01*
X032887Y009675D02*
X026617Y009675D01*
X026736Y009556D02*
X032887Y009556D01*
X032887Y009438D02*
X026854Y009438D01*
X026973Y009319D02*
X032887Y009319D01*
X032887Y009201D02*
X027091Y009201D01*
X027210Y009082D02*
X032887Y009082D01*
X032887Y008964D02*
X027329Y008964D01*
X027447Y008845D02*
X032887Y008845D01*
X032887Y008727D02*
X027566Y008727D01*
X027684Y008608D02*
X032887Y008608D01*
X032887Y008490D02*
X027803Y008490D01*
X027921Y008371D02*
X032887Y008371D01*
X032887Y008252D02*
X027982Y008252D01*
X027987Y008134D02*
X032887Y008134D01*
X032887Y008015D02*
X027987Y008015D01*
X027987Y007897D02*
X032887Y007897D01*
X032887Y007778D02*
X027987Y007778D01*
X027987Y007660D02*
X032887Y007660D01*
X032887Y007541D02*
X027987Y007541D01*
X027987Y007423D02*
X032887Y007423D01*
X032887Y007304D02*
X027987Y007304D01*
X028002Y007186D02*
X032887Y007186D01*
X032887Y007067D02*
X028084Y007067D01*
X028125Y006949D02*
X032887Y006949D01*
X032887Y006830D02*
X028125Y006830D01*
X028091Y006711D02*
X032887Y006711D01*
X032887Y006593D02*
X028019Y006593D01*
X027850Y006474D02*
X032887Y006474D01*
X032887Y006356D02*
X025681Y006356D01*
X025776Y006474D02*
X027524Y006474D01*
X027356Y006593D02*
X025825Y006593D01*
X025825Y006711D02*
X027283Y006711D01*
X027249Y006830D02*
X025800Y006830D01*
X025739Y006949D02*
X027249Y006949D01*
X027290Y007067D02*
X025687Y007067D01*
X025687Y007186D02*
X027372Y007186D01*
X027387Y007304D02*
X025687Y007304D01*
X025687Y007423D02*
X027387Y007423D01*
X027387Y007541D02*
X025687Y007541D01*
X025687Y007660D02*
X027387Y007660D01*
X027387Y007778D02*
X025687Y007778D01*
X025687Y007897D02*
X027387Y007897D01*
X027387Y008015D02*
X025687Y008015D01*
X025687Y008134D02*
X027310Y008134D01*
X027191Y008252D02*
X025687Y008252D01*
X025687Y008371D02*
X027073Y008371D01*
X026954Y008490D02*
X025687Y008490D01*
X025687Y008608D02*
X026836Y008608D01*
X026717Y008727D02*
X025687Y008727D01*
X025687Y008845D02*
X026599Y008845D01*
X026480Y008964D02*
X025687Y008964D01*
X025687Y009082D02*
X026361Y009082D01*
X026243Y009201D02*
X025687Y009201D01*
X025687Y009319D02*
X026124Y009319D01*
X026006Y009438D02*
X025687Y009438D01*
X025687Y009556D02*
X025887Y009556D01*
X025769Y009675D02*
X025687Y009675D01*
X026987Y012046D02*
X038972Y012046D01*
X039887Y012876D02*
X035417Y012876D01*
X035298Y012994D02*
X039887Y012994D01*
X039887Y013113D02*
X035179Y013113D01*
X035061Y013231D02*
X039887Y013231D01*
X040487Y013231D02*
X041148Y013231D01*
X040985Y013113D02*
X040487Y013113D01*
X040487Y012994D02*
X040867Y012994D01*
X040813Y012876D02*
X040487Y012876D01*
X040487Y012757D02*
X040777Y012757D01*
X040777Y012639D02*
X040487Y012639D01*
X040487Y012520D02*
X040799Y012520D01*
X040848Y012401D02*
X040487Y012401D01*
X040487Y012283D02*
X040951Y012283D01*
X041153Y012164D02*
X040487Y012164D01*
X040487Y013350D02*
X040969Y013350D01*
X040887Y013468D02*
X040487Y013468D01*
X040487Y013587D02*
X040846Y013587D01*
X040859Y013824D02*
X040487Y013824D01*
X040487Y013943D02*
X040914Y013943D01*
X041024Y014061D02*
X040491Y014061D01*
X040610Y014180D02*
X041116Y014180D01*
X040936Y014298D02*
X040729Y014298D01*
X040487Y013705D02*
X041597Y013705D01*
X041677Y013705D02*
X042967Y013705D01*
X038883Y014772D02*
X035345Y014772D01*
X035517Y014891D02*
X038907Y014891D01*
X038907Y015009D02*
X035590Y015009D01*
X035625Y015128D02*
X038907Y015128D01*
X038907Y015247D02*
X038783Y015247D01*
X038591Y015247D02*
X035677Y015247D01*
X035795Y015365D02*
X038383Y015365D01*
X038295Y015484D02*
X035914Y015484D01*
X035979Y015602D02*
X037096Y015602D01*
X037000Y015721D02*
X035987Y015721D01*
X035987Y015839D02*
X036951Y015839D01*
X036949Y015958D02*
X035987Y015958D01*
X035987Y016076D02*
X036973Y016076D01*
X037031Y016195D02*
X035987Y016195D01*
X035987Y016313D02*
X037087Y016313D01*
X037087Y016432D02*
X035987Y016432D01*
X035987Y016551D02*
X037087Y016551D01*
X037087Y016669D02*
X035987Y016669D01*
X035987Y016788D02*
X037087Y016788D01*
X037087Y016906D02*
X035987Y016906D01*
X035987Y017025D02*
X037087Y017025D01*
X037087Y017143D02*
X035987Y017143D01*
X035987Y017262D02*
X037087Y017262D01*
X037087Y017380D02*
X035987Y017380D01*
X035987Y017499D02*
X037087Y017499D01*
X037087Y017617D02*
X035987Y017617D01*
X035987Y017736D02*
X037087Y017736D01*
X037087Y017854D02*
X035987Y017854D01*
X035987Y017973D02*
X037087Y017973D01*
X037087Y018092D02*
X035987Y018092D01*
X035987Y018210D02*
X037087Y018210D01*
X037087Y018329D02*
X035987Y018329D01*
X035987Y018447D02*
X037087Y018447D01*
X037087Y018566D02*
X035987Y018566D01*
X035987Y018684D02*
X037087Y018684D01*
X037087Y018803D02*
X035987Y018803D01*
X035987Y018921D02*
X037087Y018921D01*
X037087Y019040D02*
X035987Y019040D01*
X035987Y019158D02*
X037087Y019158D01*
X037087Y019277D02*
X035987Y019277D01*
X035987Y019396D02*
X037087Y019396D01*
X037087Y019514D02*
X035987Y019514D01*
X035987Y019633D02*
X037087Y019633D01*
X037087Y019751D02*
X035987Y019751D01*
X035987Y019870D02*
X037087Y019870D01*
X037087Y019988D02*
X035987Y019988D01*
X035987Y020107D02*
X037087Y020107D01*
X037087Y020225D02*
X035987Y020225D01*
X035987Y020344D02*
X037087Y020344D01*
X037087Y020462D02*
X035987Y020462D01*
X035987Y020581D02*
X037087Y020581D01*
X037087Y020700D02*
X035987Y020700D01*
X035987Y020818D02*
X037087Y020818D01*
X037087Y020937D02*
X035987Y020937D01*
X035987Y021055D02*
X037087Y021055D01*
X037087Y021174D02*
X035987Y021174D01*
X035987Y021292D02*
X037087Y021292D01*
X037087Y021411D02*
X035987Y021411D01*
X035987Y021529D02*
X037087Y021529D01*
X037087Y021648D02*
X035987Y021648D01*
X035987Y021766D02*
X037087Y021766D01*
X037087Y021885D02*
X035987Y021885D01*
X035987Y022004D02*
X037087Y022004D01*
X037087Y022122D02*
X035987Y022122D01*
X035987Y022241D02*
X037087Y022241D01*
X037087Y022359D02*
X035987Y022359D01*
X035987Y022478D02*
X037087Y022478D01*
X037087Y022596D02*
X035987Y022596D01*
X035987Y022715D02*
X037002Y022715D01*
X036953Y022833D02*
X035987Y022833D01*
X035987Y022952D02*
X036942Y022952D01*
X036823Y023070D02*
X035987Y023070D01*
X035987Y023189D02*
X036705Y023189D01*
X036586Y023307D02*
X035987Y023307D01*
X035987Y023426D02*
X036468Y023426D01*
X036349Y023545D02*
X035987Y023545D01*
X035987Y023663D02*
X036231Y023663D01*
X036112Y023782D02*
X035987Y023782D01*
X035987Y023900D02*
X035994Y023900D01*
X036487Y024256D02*
X036716Y024256D01*
X036605Y024137D02*
X036835Y024137D01*
X036724Y024019D02*
X036953Y024019D01*
X036842Y023900D02*
X037072Y023900D01*
X036961Y023782D02*
X037190Y023782D01*
X037079Y023663D02*
X037309Y023663D01*
X037198Y023545D02*
X037427Y023545D01*
X037316Y023426D02*
X037546Y023426D01*
X037623Y023307D02*
X037665Y023307D01*
X037749Y023189D02*
X037783Y023189D01*
X037804Y023070D02*
X037902Y023070D01*
X037825Y022952D02*
X038020Y022952D01*
X038139Y022833D02*
X037821Y022833D01*
X037772Y022715D02*
X038257Y022715D01*
X038376Y022596D02*
X037687Y022596D01*
X037687Y022478D02*
X038364Y022478D01*
X038287Y022359D02*
X037687Y022359D01*
X037687Y022241D02*
X038249Y022241D01*
X038249Y022122D02*
X037687Y022122D01*
X037687Y022004D02*
X038286Y022004D01*
X038363Y021885D02*
X037687Y021885D01*
X037687Y021766D02*
X038387Y021766D01*
X038387Y021648D02*
X037687Y021648D01*
X037687Y021529D02*
X038387Y021529D01*
X038387Y021411D02*
X037687Y021411D01*
X037687Y021292D02*
X038387Y021292D01*
X038387Y021174D02*
X037687Y021174D01*
X037687Y021055D02*
X038387Y021055D01*
X038387Y020937D02*
X037687Y020937D01*
X037687Y020818D02*
X038387Y020818D01*
X038387Y020700D02*
X037687Y020700D01*
X037687Y020581D02*
X038387Y020581D01*
X038387Y020462D02*
X037687Y020462D01*
X037687Y020344D02*
X038387Y020344D01*
X038387Y020225D02*
X037687Y020225D01*
X037687Y020107D02*
X038387Y020107D01*
X038387Y019988D02*
X037687Y019988D01*
X037687Y019870D02*
X038387Y019870D01*
X038387Y019751D02*
X037687Y019751D01*
X037687Y019633D02*
X038387Y019633D01*
X038387Y019514D02*
X037687Y019514D01*
X037687Y019396D02*
X038387Y019396D01*
X038387Y019277D02*
X037687Y019277D01*
X037687Y019158D02*
X038387Y019158D01*
X038387Y019040D02*
X037687Y019040D01*
X037687Y018921D02*
X038387Y018921D01*
X038387Y018803D02*
X037687Y018803D01*
X037687Y018684D02*
X038387Y018684D01*
X038387Y018566D02*
X037687Y018566D01*
X037687Y018447D02*
X038387Y018447D01*
X038387Y018329D02*
X037687Y018329D01*
X037687Y018210D02*
X038387Y018210D01*
X038387Y018092D02*
X037687Y018092D01*
X037687Y017973D02*
X038387Y017973D01*
X038387Y017854D02*
X037687Y017854D01*
X037687Y017736D02*
X038387Y017736D01*
X038387Y017617D02*
X037687Y017617D01*
X037687Y017499D02*
X038387Y017499D01*
X038387Y017380D02*
X037687Y017380D01*
X037687Y017262D02*
X038387Y017262D01*
X038387Y017143D02*
X037687Y017143D01*
X037687Y017025D02*
X038387Y017025D01*
X038387Y016906D02*
X037687Y016906D01*
X037687Y016788D02*
X038387Y016788D01*
X038387Y016669D02*
X037687Y016669D01*
X037687Y016551D02*
X038387Y016551D01*
X038387Y016432D02*
X037687Y016432D01*
X037687Y016313D02*
X038387Y016313D01*
X038387Y016195D02*
X037743Y016195D01*
X037801Y016076D02*
X038387Y016076D01*
X038344Y015958D02*
X037825Y015958D01*
X037823Y015839D02*
X038278Y015839D01*
X038249Y015721D02*
X037774Y015721D01*
X037678Y015602D02*
X038249Y015602D01*
X038764Y014654D02*
X034987Y014654D01*
X034987Y014772D02*
X035029Y014772D01*
X034987Y014535D02*
X038645Y014535D01*
X038527Y014417D02*
X034987Y014417D01*
X034987Y014298D02*
X038408Y014298D01*
X038290Y014180D02*
X034987Y014180D01*
X034987Y014061D02*
X037960Y014061D01*
X037829Y013943D02*
X034987Y013943D01*
X034987Y013824D02*
X037772Y013824D01*
X034387Y015721D02*
X031487Y015721D01*
X031487Y015839D02*
X034387Y015839D01*
X034387Y015958D02*
X031487Y015958D01*
X031487Y016076D02*
X034387Y016076D01*
X034387Y016195D02*
X031487Y016195D01*
X031487Y016313D02*
X034387Y016313D01*
X034387Y016432D02*
X031487Y016432D01*
X031487Y016551D02*
X034387Y016551D01*
X034387Y016669D02*
X031487Y016669D01*
X031468Y016788D02*
X034387Y016788D01*
X034387Y016906D02*
X031386Y016906D01*
X031268Y017025D02*
X033023Y017025D01*
X032855Y017143D02*
X031149Y017143D01*
X031125Y017262D02*
X032783Y017262D01*
X032749Y017380D02*
X031079Y017380D01*
X030989Y017499D02*
X032695Y017499D01*
X032576Y017617D02*
X030778Y017617D01*
X030596Y017617D02*
X029907Y017617D01*
X029907Y017499D02*
X030385Y017499D01*
X030295Y017380D02*
X029907Y017380D01*
X029806Y017262D02*
X030249Y017262D01*
X030225Y017143D02*
X029688Y017143D01*
X029569Y017025D02*
X030107Y017025D01*
X030481Y016551D02*
X030887Y016551D01*
X030887Y016432D02*
X030362Y016432D01*
X030599Y016669D02*
X030775Y016669D01*
X030887Y015365D02*
X029541Y015365D01*
X029485Y015421D02*
X028889Y015421D01*
X028467Y014999D01*
X028467Y014403D01*
X028889Y013981D01*
X029485Y013981D01*
X029907Y014403D01*
X029907Y014999D01*
X029485Y015421D01*
X029660Y015247D02*
X030887Y015247D01*
X030887Y015128D02*
X029778Y015128D01*
X029897Y015009D02*
X030887Y015009D01*
X030887Y014891D02*
X029907Y014891D01*
X029907Y014772D02*
X030887Y014772D01*
X030887Y014654D02*
X029907Y014654D01*
X029907Y014535D02*
X030887Y014535D01*
X030887Y014417D02*
X029907Y014417D01*
X029803Y014298D02*
X030887Y014298D01*
X030887Y014180D02*
X029684Y014180D01*
X029565Y014061D02*
X030887Y014061D01*
X030829Y013943D02*
X026987Y013943D01*
X026987Y014061D02*
X028809Y014061D01*
X028690Y014180D02*
X026987Y014180D01*
X026987Y014298D02*
X028572Y014298D01*
X028467Y014417D02*
X026987Y014417D01*
X026987Y014535D02*
X028467Y014535D01*
X028467Y014654D02*
X026987Y014654D01*
X026974Y014772D02*
X028467Y014772D01*
X028467Y014891D02*
X026901Y014891D01*
X026783Y015009D02*
X028477Y015009D01*
X028596Y015128D02*
X026664Y015128D01*
X026546Y015247D02*
X028714Y015247D01*
X028833Y015365D02*
X026427Y015365D01*
X026171Y014772D02*
X025323Y014772D01*
X026987Y013824D02*
X030772Y013824D01*
X030749Y013705D02*
X026987Y013705D01*
X026987Y013587D02*
X030752Y013587D01*
X030801Y013468D02*
X026987Y013468D01*
X026987Y013350D02*
X030899Y013350D01*
X033351Y017025D02*
X034387Y017025D01*
X034387Y017143D02*
X033519Y017143D01*
X033591Y017262D02*
X034387Y017262D01*
X034387Y017380D02*
X033625Y017380D01*
X033625Y017499D02*
X034387Y017499D01*
X034387Y017617D02*
X033584Y017617D01*
X033502Y017736D02*
X034387Y017736D01*
X034387Y017854D02*
X033309Y017854D01*
X033069Y017973D02*
X034387Y017973D01*
X034387Y018092D02*
X032951Y018092D01*
X032832Y018210D02*
X034387Y018210D01*
X034387Y018329D02*
X032714Y018329D01*
X032595Y018447D02*
X034387Y018447D01*
X034387Y018566D02*
X032476Y018566D01*
X032358Y018684D02*
X034387Y018684D01*
X034387Y018803D02*
X032239Y018803D01*
X031984Y018210D02*
X029656Y018210D01*
X029775Y018092D02*
X032102Y018092D01*
X032221Y017973D02*
X029893Y017973D01*
X029907Y017854D02*
X032339Y017854D01*
X032458Y017736D02*
X029907Y017736D01*
X024132Y019040D02*
X022103Y019040D01*
X022125Y019158D02*
X024014Y019158D01*
X023895Y019277D02*
X022207Y019277D01*
X022326Y019396D02*
X023776Y019396D01*
X023658Y019514D02*
X022444Y019514D01*
X022563Y019633D02*
X023539Y019633D01*
X023421Y019751D02*
X022794Y019751D01*
X022995Y019870D02*
X023302Y019870D01*
X023184Y019988D02*
X023081Y019988D01*
X022249Y020225D02*
X022127Y020225D01*
X022189Y020107D02*
X022009Y020107D01*
X022070Y019988D02*
X021890Y019988D01*
X021952Y019870D02*
X021772Y019870D01*
X021833Y019751D02*
X021653Y019751D01*
X021401Y019514D02*
X017740Y019514D01*
X021349Y018447D02*
X022029Y018447D01*
X022148Y018566D02*
X021468Y018566D01*
X021586Y018684D02*
X022266Y018684D01*
X022385Y018803D02*
X021919Y018803D01*
X022047Y018921D02*
X022503Y018921D01*
X016261Y025797D02*
X016217Y025797D01*
X016217Y025915D02*
X016310Y025915D01*
X016387Y026034D02*
X016217Y026034D01*
X016217Y026153D02*
X016387Y026153D01*
X016387Y026271D02*
X016217Y026271D01*
X016217Y026390D02*
X016387Y026390D01*
X016387Y026508D02*
X016217Y026508D01*
X016217Y026627D02*
X016387Y026627D01*
X016387Y026745D02*
X016217Y026745D01*
X016217Y026864D02*
X016387Y026864D01*
X016387Y026982D02*
X016217Y026982D01*
X016217Y027101D02*
X016387Y027101D01*
X016387Y027219D02*
X016217Y027219D01*
X016175Y027338D02*
X016387Y027338D01*
X016387Y027456D02*
X016057Y027456D01*
X015939Y027575D02*
X016369Y027575D01*
X018687Y031606D02*
X018690Y031606D01*
X018685Y031724D02*
X018690Y031724D01*
X018685Y031843D02*
X018690Y031843D01*
X018764Y031961D02*
X018610Y031961D01*
X018492Y032080D02*
X018882Y032080D01*
X018247Y032317D02*
X030427Y032317D01*
X030546Y032198D02*
X018129Y032198D01*
X022702Y029590D02*
X030531Y029590D01*
X030369Y028879D02*
X022809Y028879D01*
X022691Y028760D02*
X030557Y028760D01*
X031556Y027931D02*
X033817Y027931D01*
X033936Y028049D02*
X031607Y028049D01*
X031625Y028168D02*
X034576Y028168D01*
X034457Y028286D02*
X031717Y028286D01*
X031835Y028405D02*
X034339Y028405D01*
X034220Y028523D02*
X031946Y028523D01*
X031987Y028642D02*
X034102Y028642D01*
X033983Y028760D02*
X031987Y028760D01*
X032005Y028879D02*
X033865Y028879D01*
X033746Y028998D02*
X032085Y028998D01*
X032125Y029116D02*
X033628Y029116D01*
X033509Y029235D02*
X032125Y029235D01*
X032090Y029353D02*
X033391Y029353D01*
X033272Y029472D02*
X032016Y029472D01*
X034438Y028049D02*
X034695Y028049D01*
X034813Y027931D02*
X034557Y027931D01*
X034607Y027812D02*
X034932Y027812D01*
X035050Y027694D02*
X034625Y027694D01*
X034717Y027575D02*
X035169Y027575D01*
X035287Y027456D02*
X034836Y027456D01*
X036687Y024681D02*
X038687Y022681D01*
X038687Y022181D01*
X036598Y024374D02*
X036487Y024374D01*
X032008Y032791D02*
X031501Y032791D01*
X031383Y032909D02*
X032058Y032909D01*
X032165Y033028D02*
X031264Y033028D01*
X007887Y016669D02*
X001907Y016669D01*
X001907Y016551D02*
X007887Y016551D01*
X007887Y016432D02*
X001907Y016432D01*
X001907Y016313D02*
X007887Y016313D01*
X007887Y016195D02*
X001907Y016195D01*
X001907Y016076D02*
X007887Y016076D01*
X007887Y015958D02*
X001907Y015958D01*
X001907Y015839D02*
X005778Y015839D01*
X005607Y015721D02*
X001907Y015721D01*
X001907Y015602D02*
X005534Y015602D01*
X005499Y015484D02*
X001907Y015484D01*
X001907Y015365D02*
X005499Y015365D01*
X005539Y015247D02*
X001907Y015247D01*
X001907Y015128D02*
X005620Y015128D01*
X005637Y015009D02*
X001907Y015009D01*
X001907Y014891D02*
X005637Y014891D01*
X005637Y014772D02*
X001907Y014772D01*
X001907Y014654D02*
X005637Y014654D01*
X005637Y014535D02*
X001907Y014535D01*
X001907Y014417D02*
X005637Y014417D01*
X005637Y014298D02*
X001907Y014298D01*
X001907Y014180D02*
X005637Y014180D01*
X005637Y014061D02*
X001907Y014061D01*
X001907Y013943D02*
X005637Y013943D01*
X005637Y013824D02*
X001907Y013824D01*
X001907Y013705D02*
X005637Y013705D01*
X005637Y013587D02*
X001907Y013587D01*
X001907Y013468D02*
X005637Y013468D01*
X005637Y013350D02*
X001907Y013350D01*
X001907Y013231D02*
X005637Y013231D01*
X005637Y013113D02*
X001907Y013113D01*
X001907Y012994D02*
X005637Y012994D01*
X005637Y012876D02*
X001907Y012876D01*
X001907Y012757D02*
X005687Y012757D01*
X005805Y012639D02*
X001907Y012639D01*
X001907Y012520D02*
X005924Y012520D01*
X006042Y012401D02*
X001907Y012401D01*
X001907Y012283D02*
X005713Y012283D01*
X005551Y012164D02*
X001907Y012164D01*
X001907Y012046D02*
X005481Y012046D01*
X005449Y011927D02*
X001907Y011927D01*
X001907Y011809D02*
X005449Y011809D01*
X005492Y011690D02*
X001907Y011690D01*
X001907Y011572D02*
X005577Y011572D01*
X005587Y011453D02*
X001907Y011453D01*
X001907Y011335D02*
X005587Y011335D01*
X005587Y011216D02*
X001907Y011216D01*
X001907Y011098D02*
X005587Y011098D01*
X005587Y010979D02*
X001907Y010979D01*
X001907Y010860D02*
X005612Y010860D01*
X005702Y010742D02*
X001907Y010742D01*
X001907Y010623D02*
X005705Y010623D01*
X005587Y010505D02*
X001907Y010505D01*
X001907Y010386D02*
X005468Y010386D01*
X005350Y010268D02*
X001907Y010268D01*
X001907Y010149D02*
X005231Y010149D01*
X005113Y010031D02*
X001907Y010031D01*
X001907Y009912D02*
X003047Y009912D01*
X002814Y009794D02*
X001907Y009794D01*
X001907Y009675D02*
X002696Y009675D01*
X002612Y009556D02*
X001907Y009556D01*
X001907Y009438D02*
X002563Y009438D01*
X002520Y009319D02*
X001907Y009319D01*
X001907Y009201D02*
X002520Y009201D01*
X002520Y009082D02*
X001907Y009082D01*
X001907Y008964D02*
X002546Y008964D01*
X002595Y008845D02*
X001907Y008845D01*
X001907Y008727D02*
X002656Y008727D01*
X002774Y008608D02*
X001907Y008608D01*
X001907Y008490D02*
X002951Y008490D01*
X003962Y009556D02*
X004638Y009556D01*
X004757Y009675D02*
X003878Y009675D01*
X003760Y009794D02*
X004875Y009794D01*
X004994Y009912D02*
X003527Y009912D01*
X006187Y011216D02*
X006298Y011216D01*
X006187Y011335D02*
X006417Y011335D01*
X006535Y011453D02*
X006187Y011453D01*
X006197Y011572D02*
X006654Y011572D01*
X006772Y011690D02*
X006282Y011690D01*
X006325Y011809D02*
X006891Y011809D01*
X007009Y011927D02*
X006325Y011927D01*
X006772Y012046D02*
X007128Y012046D01*
X007246Y012164D02*
X006872Y012164D01*
X006921Y012283D02*
X007365Y012283D01*
X007387Y012401D02*
X006925Y012401D01*
X006904Y012520D02*
X007387Y012520D01*
X007387Y012639D02*
X006849Y012639D01*
X006724Y012757D02*
X007387Y012757D01*
X007387Y012876D02*
X006417Y012876D01*
X006298Y012994D02*
X007387Y012994D01*
X007386Y013113D02*
X006237Y013113D01*
X006237Y013231D02*
X007296Y013231D01*
X007249Y013350D02*
X006237Y013350D01*
X006237Y013468D02*
X007249Y013468D01*
X007278Y013587D02*
X006237Y013587D01*
X006237Y013705D02*
X007342Y013705D01*
X007387Y013824D02*
X006237Y013824D01*
X006237Y013943D02*
X007387Y013943D01*
X007396Y014061D02*
X006237Y014061D01*
X006237Y014180D02*
X007462Y014180D01*
X007580Y014298D02*
X006237Y014298D01*
X006237Y014417D02*
X007699Y014417D01*
X007749Y014535D02*
X006237Y014535D01*
X006237Y014654D02*
X007785Y014654D01*
X007859Y014772D02*
X006237Y014772D01*
X006237Y014891D02*
X007887Y014891D01*
X007887Y015009D02*
X006237Y015009D01*
X006254Y015128D02*
X007887Y015128D01*
X007887Y015247D02*
X006335Y015247D01*
X006375Y015365D02*
X007887Y015365D01*
X007887Y015484D02*
X006375Y015484D01*
X006340Y015602D02*
X007887Y015602D01*
X007887Y015721D02*
X006267Y015721D01*
X006096Y015839D02*
X007887Y015839D01*
X014792Y005763D02*
X017688Y005763D01*
X017676Y005757D02*
X017620Y005717D01*
X017571Y005668D01*
X017531Y005612D01*
X017499Y005550D01*
X017478Y005484D01*
X017467Y005416D01*
X017467Y005401D01*
X018167Y005401D01*
X018167Y005821D01*
X017872Y005821D01*
X017804Y005810D01*
X017738Y005789D01*
X017676Y005757D01*
X017555Y005645D02*
X014899Y005645D01*
X014948Y005526D02*
X017492Y005526D01*
X017467Y005407D02*
X014967Y005407D01*
X014967Y005289D02*
X017476Y005289D01*
X017521Y005170D02*
X014921Y005170D01*
X014990Y005052D02*
X017614Y005052D01*
X018167Y005052D02*
X018207Y005052D01*
X018207Y005170D02*
X018167Y005170D01*
X018167Y005289D02*
X018207Y005289D01*
X018207Y005407D02*
X018167Y005407D01*
X018167Y005526D02*
X018207Y005526D01*
X018207Y005645D02*
X018167Y005645D01*
X018167Y005763D02*
X018207Y005763D01*
X018771Y004341D02*
X022422Y004341D01*
X022304Y004222D02*
X018652Y004222D01*
X018534Y004103D02*
X022185Y004103D01*
X022067Y003985D02*
X018415Y003985D01*
X018297Y003866D02*
X021948Y003866D01*
X021830Y003748D02*
X018178Y003748D01*
X018060Y003629D02*
X021711Y003629D01*
X021593Y003511D02*
X017941Y003511D01*
X017823Y003392D02*
X021474Y003392D01*
X021356Y003274D02*
X017704Y003274D01*
X017727Y003211D02*
X017727Y002721D01*
X018217Y002721D01*
X018217Y002723D01*
X018204Y002805D01*
X018178Y002884D01*
X018140Y002959D01*
X018091Y003026D01*
X018032Y003085D01*
X017965Y003134D01*
X017891Y003172D01*
X017811Y003198D01*
X017729Y003211D01*
X017727Y003211D01*
X017727Y003155D02*
X017647Y003155D01*
X017647Y003037D02*
X017727Y003037D01*
X017727Y002918D02*
X017647Y002918D01*
X017647Y002799D02*
X017727Y002799D01*
X017727Y002681D02*
X019597Y002681D01*
X019597Y002799D02*
X018205Y002799D01*
X018161Y002918D02*
X019597Y002918D01*
X019597Y003037D02*
X018081Y003037D01*
X017924Y003155D02*
X019610Y003155D01*
X019597Y002562D02*
X018205Y002562D01*
X018204Y002557D02*
X018217Y002639D01*
X018217Y002641D01*
X017727Y002641D01*
X017727Y002151D01*
X017729Y002151D01*
X017811Y002164D01*
X017891Y002190D01*
X017965Y002228D01*
X018032Y002277D01*
X018091Y002336D01*
X018140Y002403D01*
X018178Y002477D01*
X018204Y002557D01*
X018161Y002444D02*
X019597Y002444D01*
X019597Y002325D02*
X018081Y002325D01*
X017924Y002207D02*
X019610Y002207D01*
X020764Y002207D02*
X020827Y002207D01*
X021547Y002207D02*
X021950Y002207D01*
X021793Y002325D02*
X021666Y002325D01*
X022147Y002325D02*
X022227Y002325D01*
X022227Y002207D02*
X022147Y002207D01*
X022227Y002151D02*
X022229Y002151D01*
X022311Y002164D01*
X022391Y002190D01*
X022465Y002228D01*
X022532Y002277D01*
X022591Y002336D01*
X022640Y002403D01*
X022678Y002477D01*
X022704Y002557D01*
X022717Y002639D01*
X022717Y002641D01*
X022227Y002641D01*
X022227Y002151D01*
X022424Y002207D02*
X024077Y002207D01*
X024077Y002325D02*
X022581Y002325D01*
X022661Y002444D02*
X024077Y002444D01*
X024077Y002562D02*
X022705Y002562D01*
X022717Y002721D02*
X022227Y002721D01*
X022227Y003211D01*
X022229Y003211D01*
X022311Y003198D01*
X022391Y003172D01*
X022465Y003134D01*
X022532Y003085D01*
X022591Y003026D01*
X022640Y002959D01*
X022678Y002884D01*
X022704Y002805D01*
X022717Y002723D01*
X022717Y002721D01*
X022705Y002799D02*
X024077Y002799D01*
X024077Y002681D02*
X022227Y002681D01*
X022227Y002799D02*
X022147Y002799D01*
X022147Y002918D02*
X022227Y002918D01*
X022227Y003037D02*
X022147Y003037D01*
X022147Y003155D02*
X022227Y003155D01*
X022204Y003274D02*
X024111Y003274D01*
X024077Y003155D02*
X022424Y003155D01*
X022581Y003037D02*
X024077Y003037D01*
X024077Y002918D02*
X022661Y002918D01*
X022227Y002562D02*
X022147Y002562D01*
X022147Y002444D02*
X022227Y002444D01*
X022323Y003392D02*
X024160Y003392D01*
X024264Y003511D02*
X022441Y003511D01*
X022560Y003629D02*
X024441Y003629D01*
X024933Y003629D02*
X028441Y003629D01*
X028342Y003588D02*
X028170Y003416D01*
X028077Y003192D01*
X028077Y002170D01*
X028170Y001945D01*
X028342Y001774D01*
X028566Y001681D01*
X028808Y001681D01*
X029033Y001774D01*
X029204Y001945D01*
X029297Y002170D01*
X029297Y003192D01*
X029204Y003416D01*
X029033Y003588D01*
X028808Y003681D01*
X028566Y003681D01*
X028342Y003588D01*
X028264Y003511D02*
X025110Y003511D01*
X025214Y003392D02*
X028160Y003392D01*
X028111Y003274D02*
X025263Y003274D01*
X025297Y003155D02*
X028077Y003155D01*
X028077Y003037D02*
X025297Y003037D01*
X025297Y002918D02*
X028077Y002918D01*
X028077Y002799D02*
X025297Y002799D01*
X025297Y002681D02*
X028077Y002681D01*
X028077Y002562D02*
X025297Y002562D01*
X025297Y002444D02*
X028077Y002444D01*
X028077Y002325D02*
X025297Y002325D01*
X025297Y002207D02*
X028077Y002207D01*
X028111Y002088D02*
X025263Y002088D01*
X025214Y001970D02*
X028160Y001970D01*
X028264Y001851D02*
X025110Y001851D01*
X024933Y001733D02*
X028441Y001733D01*
X028933Y001733D02*
X032941Y001733D01*
X032764Y001851D02*
X029110Y001851D01*
X029214Y001970D02*
X032660Y001970D01*
X032611Y002088D02*
X029263Y002088D01*
X029297Y002207D02*
X032577Y002207D01*
X032577Y002325D02*
X029297Y002325D01*
X029297Y002444D02*
X032577Y002444D01*
X032577Y002562D02*
X029297Y002562D01*
X029297Y002681D02*
X032577Y002681D01*
X032577Y002799D02*
X029297Y002799D01*
X029297Y002918D02*
X032577Y002918D01*
X032577Y003037D02*
X029297Y003037D01*
X029297Y003155D02*
X032577Y003155D01*
X032611Y003274D02*
X029263Y003274D01*
X029214Y003392D02*
X032660Y003392D01*
X032764Y003511D02*
X029110Y003511D01*
X028933Y003629D02*
X032887Y003629D01*
X032887Y003748D02*
X022678Y003748D01*
X022797Y003866D02*
X032887Y003866D01*
X032887Y003985D02*
X022915Y003985D01*
X023034Y004103D02*
X032887Y004103D01*
X032887Y004222D02*
X023152Y004222D01*
X023271Y004341D02*
X032887Y004341D01*
X032887Y004459D02*
X023389Y004459D01*
X023508Y004578D02*
X032887Y004578D01*
X032887Y004696D02*
X023627Y004696D01*
X023745Y004815D02*
X032887Y004815D01*
X032887Y004933D02*
X023864Y004933D01*
X023982Y005052D02*
X032887Y005052D01*
X032887Y005170D02*
X024101Y005170D01*
X024219Y005289D02*
X032887Y005289D01*
X032887Y005407D02*
X024338Y005407D01*
X024456Y005526D02*
X032887Y005526D01*
X032887Y005645D02*
X024575Y005645D01*
X024693Y005763D02*
X032887Y005763D01*
X032887Y005882D02*
X024812Y005882D01*
X024931Y006000D02*
X032887Y006000D01*
X032887Y006119D02*
X025049Y006119D01*
X025152Y006237D02*
X032887Y006237D01*
X033487Y006237D02*
X038819Y006237D01*
X038701Y006119D02*
X033487Y006119D01*
X033487Y006000D02*
X038582Y006000D01*
X038464Y005882D02*
X033487Y005882D01*
X033487Y005763D02*
X038345Y005763D01*
X038226Y005645D02*
X033487Y005645D01*
X033487Y005526D02*
X038108Y005526D01*
X037989Y005407D02*
X033487Y005407D01*
X033487Y005289D02*
X037907Y005289D01*
X037887Y005170D02*
X033487Y005170D01*
X033487Y005052D02*
X037887Y005052D01*
X037887Y004933D02*
X033487Y004933D01*
X033487Y004815D02*
X037887Y004815D01*
X037887Y004696D02*
X033487Y004696D01*
X033487Y004578D02*
X037887Y004578D01*
X037887Y004459D02*
X033487Y004459D01*
X033487Y004341D02*
X037887Y004341D01*
X037887Y004222D02*
X033487Y004222D01*
X033487Y004103D02*
X037887Y004103D01*
X037887Y003985D02*
X033487Y003985D01*
X033487Y003866D02*
X037887Y003866D01*
X037887Y003748D02*
X033487Y003748D01*
X033487Y003629D02*
X035441Y003629D01*
X035342Y003588D02*
X035170Y003416D01*
X035077Y003192D01*
X035077Y002170D01*
X035170Y001945D01*
X035342Y001774D01*
X035566Y001681D01*
X035808Y001681D01*
X036033Y001774D01*
X036204Y001945D01*
X036297Y002170D01*
X036297Y003192D01*
X036204Y003416D01*
X036033Y003588D01*
X035808Y003681D01*
X035566Y003681D01*
X035342Y003588D01*
X035264Y003511D02*
X033610Y003511D01*
X033714Y003392D02*
X035160Y003392D01*
X035111Y003274D02*
X033763Y003274D01*
X033797Y003155D02*
X035077Y003155D01*
X035077Y003037D02*
X033797Y003037D01*
X033797Y002918D02*
X035077Y002918D01*
X035077Y002799D02*
X033797Y002799D01*
X033797Y002681D02*
X035077Y002681D01*
X035077Y002562D02*
X033797Y002562D01*
X033797Y002444D02*
X035077Y002444D01*
X035077Y002325D02*
X033797Y002325D01*
X033797Y002207D02*
X035077Y002207D01*
X035111Y002088D02*
X033763Y002088D01*
X033714Y001970D02*
X035160Y001970D01*
X035264Y001851D02*
X033610Y001851D01*
X033433Y001733D02*
X035441Y001733D01*
X035933Y001733D02*
X037941Y001733D01*
X037764Y001851D02*
X036110Y001851D01*
X036214Y001970D02*
X037660Y001970D01*
X037611Y002088D02*
X036263Y002088D01*
X036297Y002207D02*
X037577Y002207D01*
X037577Y002325D02*
X036297Y002325D01*
X036297Y002444D02*
X037577Y002444D01*
X037577Y002562D02*
X036297Y002562D01*
X036297Y002681D02*
X037577Y002681D01*
X037577Y002799D02*
X036297Y002799D01*
X036297Y002918D02*
X037577Y002918D01*
X037577Y003037D02*
X036297Y003037D01*
X036297Y003155D02*
X037577Y003155D01*
X037611Y003274D02*
X036263Y003274D01*
X036214Y003392D02*
X037660Y003392D01*
X037764Y003511D02*
X036110Y003511D01*
X035933Y003629D02*
X037887Y003629D01*
X038487Y003629D02*
X040898Y003629D01*
X041012Y003671D02*
X040684Y003551D01*
X040417Y003327D01*
X040242Y003025D01*
X040242Y003025D01*
X040182Y002681D01*
X038797Y002681D01*
X038797Y002799D02*
X040203Y002799D01*
X040182Y002681D02*
X040182Y002681D01*
X040242Y002337D01*
X040417Y002035D01*
X040417Y002035D01*
X040684Y001810D01*
X040684Y001810D01*
X041012Y001691D01*
X041013Y001691D01*
X041135Y001691D01*
X041135Y001691D01*
X041187Y001691D01*
X041239Y001691D01*
X041362Y001691D01*
X041690Y001810D01*
X041957Y002035D01*
X042132Y002337D01*
X042192Y002681D01*
X042967Y002681D01*
X042967Y002799D02*
X042171Y002799D01*
X042192Y002681D02*
X042132Y003025D01*
X041957Y003327D01*
X041690Y003551D01*
X041690Y003551D01*
X041362Y003671D01*
X041362Y003671D01*
X041239Y003671D01*
X041187Y003671D01*
X041185Y003671D01*
X041135Y003671D01*
X041013Y003671D01*
X041012Y003671D01*
X041135Y003671D02*
X041135Y003671D01*
X041239Y003671D02*
X041239Y003671D01*
X041476Y003629D02*
X042967Y003629D01*
X042967Y003511D02*
X041738Y003511D01*
X041880Y003392D02*
X042967Y003392D01*
X042967Y003274D02*
X041988Y003274D01*
X041957Y003327D02*
X041957Y003327D01*
X042056Y003155D02*
X042967Y003155D01*
X042967Y003037D02*
X042125Y003037D01*
X042132Y003025D02*
X042132Y003025D01*
X042150Y002918D02*
X042967Y002918D01*
X042967Y002562D02*
X042171Y002562D01*
X042150Y002444D02*
X042967Y002444D01*
X042967Y002325D02*
X042125Y002325D01*
X042132Y002337D02*
X042132Y002337D01*
X042056Y002207D02*
X042967Y002207D01*
X042961Y002088D02*
X041988Y002088D01*
X041957Y002035D02*
X041957Y002035D01*
X041957Y002035D01*
X041879Y001970D02*
X042944Y001970D01*
X042913Y001851D02*
X041738Y001851D01*
X041476Y001733D02*
X042881Y001733D01*
X042825Y001614D02*
X002049Y001614D01*
X002117Y001496D02*
X042757Y001496D01*
X042678Y001377D02*
X002196Y001377D01*
X002315Y001258D02*
X042559Y001258D01*
X042422Y001140D02*
X002452Y001140D01*
X002657Y001021D02*
X042217Y001021D01*
X041716Y000903D02*
X003158Y000903D01*
X001907Y003748D02*
X007330Y003748D01*
X007448Y003866D02*
X001907Y003866D01*
X001907Y003985D02*
X007567Y003985D01*
X007685Y004103D02*
X001907Y004103D01*
X006933Y003629D02*
X007211Y003629D01*
X012627Y002562D02*
X012747Y002562D01*
X012747Y002444D02*
X012627Y002444D01*
X012627Y002325D02*
X012747Y002325D01*
X012747Y002207D02*
X012627Y002207D01*
X012627Y002088D02*
X012747Y002088D01*
X012747Y001970D02*
X012627Y001970D01*
X012627Y001851D02*
X012747Y001851D01*
X016264Y002207D02*
X016327Y002207D01*
X017047Y002207D02*
X017450Y002207D01*
X017293Y002325D02*
X017166Y002325D01*
X017647Y002325D02*
X017727Y002325D01*
X017727Y002207D02*
X017647Y002207D01*
X017647Y002444D02*
X017727Y002444D01*
X017727Y002562D02*
X017647Y002562D01*
X016327Y003155D02*
X016264Y003155D01*
X020764Y003155D02*
X020827Y003155D01*
X021889Y004459D02*
X022541Y004459D01*
X022660Y004578D02*
X022008Y004578D01*
X022127Y004696D02*
X022778Y004696D01*
X022897Y004815D02*
X022245Y004815D01*
X022364Y004933D02*
X023015Y004933D01*
X023134Y005052D02*
X022482Y005052D01*
X022601Y005170D02*
X023252Y005170D01*
X023371Y005289D02*
X022719Y005289D01*
X022838Y005407D02*
X023489Y005407D01*
X023608Y005526D02*
X022956Y005526D01*
X023075Y005645D02*
X023726Y005645D01*
X023845Y005763D02*
X023193Y005763D01*
X023312Y005882D02*
X023964Y005882D01*
X024082Y006000D02*
X023431Y006000D01*
X023549Y006119D02*
X024201Y006119D01*
X024319Y006237D02*
X023668Y006237D01*
X023786Y006356D02*
X024438Y006356D01*
X024556Y006474D02*
X023905Y006474D01*
X024023Y006593D02*
X024587Y006593D01*
X024587Y006711D02*
X024142Y006711D01*
X024260Y006830D02*
X024587Y006830D01*
X024587Y006949D02*
X024379Y006949D01*
X024497Y007067D02*
X024587Y007067D01*
X033487Y007067D02*
X039387Y007067D01*
X039387Y006949D02*
X033487Y006949D01*
X033487Y006830D02*
X039387Y006830D01*
X039293Y006711D02*
X033487Y006711D01*
X033487Y006593D02*
X039175Y006593D01*
X039056Y006474D02*
X033487Y006474D01*
X033487Y006356D02*
X038938Y006356D01*
X039431Y006000D02*
X042967Y006000D01*
X042967Y005882D02*
X039312Y005882D01*
X039193Y005763D02*
X042967Y005763D01*
X042967Y005645D02*
X039075Y005645D01*
X038956Y005526D02*
X042967Y005526D01*
X042967Y005407D02*
X038838Y005407D01*
X038719Y005289D02*
X042967Y005289D01*
X042967Y005170D02*
X038601Y005170D01*
X038487Y005052D02*
X042967Y005052D01*
X042967Y004933D02*
X038487Y004933D01*
X038487Y004815D02*
X042967Y004815D01*
X042967Y004696D02*
X038487Y004696D01*
X038487Y004578D02*
X042967Y004578D01*
X042967Y004459D02*
X038487Y004459D01*
X038487Y004341D02*
X042967Y004341D01*
X042967Y004222D02*
X038487Y004222D01*
X038487Y004103D02*
X042967Y004103D01*
X042967Y003985D02*
X038487Y003985D01*
X038487Y003866D02*
X042967Y003866D01*
X042967Y003748D02*
X038487Y003748D01*
X038610Y003511D02*
X040636Y003511D01*
X040684Y003551D02*
X040684Y003551D01*
X040495Y003392D02*
X038714Y003392D01*
X038763Y003274D02*
X040386Y003274D01*
X040417Y003327D02*
X040417Y003327D01*
X040417Y003327D01*
X040318Y003155D02*
X038797Y003155D01*
X038797Y003037D02*
X040249Y003037D01*
X040224Y002918D02*
X038797Y002918D01*
X038797Y002562D02*
X040203Y002562D01*
X040224Y002444D02*
X038797Y002444D01*
X038797Y002325D02*
X040249Y002325D01*
X040242Y002337D02*
X040242Y002337D01*
X040318Y002207D02*
X038797Y002207D01*
X038763Y002088D02*
X040386Y002088D01*
X040495Y001970D02*
X038714Y001970D01*
X038610Y001851D02*
X040636Y001851D01*
X040898Y001733D02*
X038433Y001733D01*
X041239Y001691D02*
X041239Y001691D01*
X042192Y002681D02*
X042192Y002681D01*
X042967Y006119D02*
X039549Y006119D01*
X039668Y006237D02*
X042967Y006237D01*
X042967Y006356D02*
X039786Y006356D01*
X039905Y006474D02*
X042967Y006474D01*
X042967Y006593D02*
X039975Y006593D01*
X039987Y006711D02*
X042967Y006711D01*
X042967Y006830D02*
X039987Y006830D01*
X039987Y006949D02*
X042967Y006949D01*
X042967Y007067D02*
X039987Y007067D01*
X039987Y007186D02*
X042967Y007186D01*
X042967Y007304D02*
X039987Y007304D01*
X039987Y007423D02*
X042967Y007423D01*
X042967Y007541D02*
X039987Y007541D01*
X039987Y007660D02*
X042967Y007660D01*
X042967Y007778D02*
X039987Y007778D01*
X039987Y007897D02*
X042967Y007897D01*
X042967Y008015D02*
X039987Y008015D01*
X039987Y008134D02*
X042967Y008134D01*
X042967Y008252D02*
X039987Y008252D01*
X039987Y008371D02*
X042967Y008371D01*
X040727Y008608D02*
X040647Y008608D01*
X040647Y008727D02*
X040727Y008727D01*
X040727Y008845D02*
X040647Y008845D01*
X040647Y008964D02*
X040727Y008964D01*
X040727Y009082D02*
X040647Y009082D01*
X040647Y009319D02*
X040727Y009319D01*
X040727Y009438D02*
X040647Y009438D01*
X040647Y009556D02*
X040727Y009556D01*
X040727Y009675D02*
X040647Y009675D01*
X040647Y009794D02*
X040727Y009794D01*
X040027Y009438D02*
X039987Y009438D01*
X039987Y009319D02*
X040027Y009319D01*
X039387Y008371D02*
X033487Y008371D01*
X033487Y008252D02*
X039387Y008252D01*
X039387Y008134D02*
X033487Y008134D01*
X033487Y008015D02*
X039387Y008015D01*
X039387Y007897D02*
X033487Y007897D01*
X033487Y007778D02*
X039387Y007778D01*
X039387Y007660D02*
X033487Y007660D01*
X033487Y007541D02*
X039387Y007541D01*
X039387Y007423D02*
X033487Y007423D01*
X033487Y007304D02*
X039387Y007304D01*
X039387Y007186D02*
X033487Y007186D01*
D23*
X033187Y010181D02*
X032687Y010681D01*
X030187Y010681D01*
X027187Y010681D01*
X026687Y011181D01*
X026687Y014681D01*
X026187Y015181D01*
X022687Y015181D01*
X021187Y013681D01*
X021187Y012681D01*
X022187Y011931D02*
X018937Y011931D01*
X018187Y012681D01*
X017187Y012681D02*
X018337Y011531D01*
X022687Y011531D01*
X023387Y012181D02*
X024387Y011181D01*
X024387Y007381D01*
X021687Y004681D01*
X018687Y004681D01*
X016687Y002681D01*
X015687Y002681D02*
X015687Y003931D01*
X014237Y005381D01*
X014187Y005381D01*
X012987Y004181D01*
X008187Y004181D01*
X006687Y002681D01*
X004687Y009181D02*
X003287Y009181D01*
X004687Y009181D02*
X006187Y010681D01*
X005887Y010981D01*
X005887Y011881D01*
X006487Y012381D02*
X005937Y012931D01*
X005937Y015431D01*
X007687Y013981D02*
X008187Y014481D01*
X008187Y017681D01*
X009187Y015681D02*
X010687Y017181D01*
X013387Y017181D01*
X018887Y017181D01*
X020187Y016181D02*
X022687Y018681D01*
X026687Y018681D01*
X027187Y019181D01*
X027187Y024681D01*
X024937Y021431D02*
X021687Y024681D01*
X021687Y028181D01*
X022687Y029181D01*
X021187Y030681D01*
X021187Y031681D01*
X020187Y031681D02*
X020187Y030681D01*
X021187Y029681D01*
X021187Y023681D01*
X023687Y021181D01*
X022887Y021181D02*
X021187Y021181D01*
X020687Y021681D01*
X020937Y021931D01*
X020937Y022681D01*
X020687Y022931D01*
X020687Y029181D01*
X018187Y031681D01*
X017187Y031681D02*
X018187Y032681D01*
X030487Y032681D01*
X035687Y027481D01*
X035687Y015681D01*
X035187Y015181D01*
X034687Y013181D02*
X034687Y027181D01*
X034187Y027681D01*
X036187Y027681D02*
X036187Y024131D01*
X037387Y022931D01*
X037387Y015931D01*
X038687Y015681D02*
X038687Y022181D01*
X037687Y024931D02*
X039437Y026681D01*
X041637Y026681D01*
X038887Y029181D02*
X037687Y027981D01*
X037687Y026181D01*
X036187Y027681D02*
X030687Y033181D01*
X016487Y033181D01*
X015687Y033181D01*
X014187Y031681D01*
X014387Y032931D02*
X015137Y033681D01*
X032687Y033681D01*
X033937Y032431D01*
X031687Y029181D02*
X031687Y028681D01*
X031187Y028181D01*
X030687Y029181D02*
X022687Y029181D01*
X020187Y028681D02*
X017187Y031681D01*
X014387Y032931D02*
X008737Y032931D01*
X007487Y031681D01*
X007437Y031681D01*
X005437Y031681D02*
X009687Y027431D01*
X012437Y027431D01*
X012187Y026681D02*
X011687Y026181D01*
X011687Y023181D01*
X011337Y022831D01*
X011337Y022181D01*
X011687Y021831D01*
X011687Y020181D01*
X010537Y024181D02*
X009187Y024181D01*
X008687Y024681D01*
X007687Y024681D01*
X007337Y026431D02*
X008237Y026431D01*
X009987Y024681D01*
X012187Y026681D02*
X013187Y026681D01*
X012937Y028181D02*
X009437Y031681D01*
X012937Y028181D02*
X016187Y028181D01*
X016687Y027681D01*
X016687Y025681D01*
X020187Y022881D02*
X020437Y022631D01*
X020437Y022181D01*
X020687Y021681D02*
X020187Y021181D01*
X020187Y022881D02*
X020187Y028681D01*
X024937Y021431D02*
X024937Y020081D01*
X022687Y020181D02*
X021687Y019181D01*
X023487Y017681D02*
X027187Y017681D01*
X028187Y016681D01*
X030187Y016681D01*
X030687Y017181D01*
X031187Y016681D01*
X031187Y013681D01*
X034687Y013181D02*
X035437Y012431D01*
X039187Y012431D01*
X040187Y014181D02*
X040187Y010181D01*
X039687Y009681D01*
X039687Y006681D01*
X038187Y005181D01*
X038187Y002681D01*
X033187Y002681D02*
X033187Y010181D01*
X027687Y008181D02*
X027687Y006881D01*
X027687Y008181D02*
X025887Y009981D01*
X025887Y012681D01*
X025387Y013181D01*
X025387Y014181D01*
X024887Y014681D02*
X024887Y012681D01*
X025387Y012181D01*
X025387Y006681D01*
X024887Y006381D02*
X021187Y002681D01*
X018187Y005181D02*
X017687Y005181D01*
X017887Y005381D01*
X018187Y005381D01*
X024887Y006381D02*
X024887Y011681D01*
X024387Y012181D01*
X024387Y014181D01*
X023387Y014181D02*
X023387Y012181D01*
X020887Y014181D02*
X015187Y014181D01*
X014687Y013681D01*
X014787Y015681D02*
X017187Y015681D01*
X017187Y016681D02*
X014687Y016681D01*
X013687Y016181D02*
X020187Y016181D01*
X021187Y015381D02*
X023487Y017681D01*
X021387Y014681D02*
X020887Y014181D01*
X016987Y017931D02*
X016687Y017631D01*
X016087Y017631D01*
X013687Y016181D02*
X010187Y012681D01*
X009187Y012681D02*
X009187Y015681D01*
X007687Y013981D02*
X007687Y013431D01*
X007687Y012181D01*
X006187Y010681D01*
X027837Y018581D02*
X032037Y018581D01*
X033187Y017431D01*
X040187Y014181D02*
X040687Y014681D01*
X041637Y014681D01*
X037187Y029181D02*
X038187Y030181D01*
X038187Y032181D01*
M02*
