G75*
G70*
%OFA0B0*%
%FSLAX24Y24*%
%IPPOS*%
%LPD*%
%AMOC8*
5,1,8,0,0,1.08239X$1,22.5*
%
%ADD10C,0.0030*%
%ADD11C,0.0080*%
%ADD12C,0.0240*%
%ADD13C,0.0060*%
%ADD14R,0.0340X0.0240*%
%ADD15C,0.0050*%
%ADD16R,0.0240X0.0340*%
%ADD17C,0.0120*%
%ADD18C,0.0000*%
D10*
X002836Y001302D02*
X002836Y001495D01*
X002933Y001592D01*
X003029Y001495D01*
X003029Y001302D01*
X003131Y001302D02*
X003131Y001495D01*
X003276Y001495D01*
X003324Y001447D01*
X003324Y001302D01*
X003425Y001350D02*
X003474Y001399D01*
X003619Y001399D01*
X003619Y001447D02*
X003619Y001302D01*
X003474Y001302D01*
X003425Y001350D01*
X003474Y001495D02*
X003570Y001495D01*
X003619Y001447D01*
X003720Y001302D02*
X003817Y001302D01*
X003768Y001302D02*
X003768Y001592D01*
X003720Y001592D01*
X003916Y001447D02*
X003916Y001350D01*
X003965Y001302D01*
X004061Y001302D01*
X004110Y001350D01*
X004110Y001447D01*
X004061Y001495D01*
X003965Y001495D01*
X003916Y001447D01*
X004211Y001447D02*
X004211Y001350D01*
X004259Y001302D01*
X004404Y001302D01*
X004404Y001254D02*
X004404Y001495D01*
X004259Y001495D01*
X004211Y001447D01*
X004404Y001254D02*
X004356Y001205D01*
X004308Y001205D01*
X004198Y001092D02*
X004198Y000802D01*
X004198Y000899D02*
X004343Y000802D01*
X004443Y000850D02*
X004443Y000947D01*
X004492Y000995D01*
X004588Y000995D01*
X004637Y000947D01*
X004637Y000899D01*
X004443Y000899D01*
X004443Y000850D02*
X004492Y000802D01*
X004588Y000802D01*
X004343Y000995D02*
X004198Y000899D01*
X004097Y000995D02*
X004097Y000802D01*
X003951Y000802D01*
X003903Y000850D01*
X003903Y000995D01*
X003608Y001092D02*
X003608Y000802D01*
X003802Y000802D01*
X003692Y000592D02*
X003692Y000302D01*
X003644Y000302D02*
X003741Y000302D01*
X003840Y000350D02*
X003840Y000447D01*
X003889Y000495D01*
X003985Y000495D01*
X004034Y000447D01*
X004034Y000399D01*
X003840Y000399D01*
X003840Y000350D02*
X003889Y000302D01*
X003985Y000302D01*
X004135Y000350D02*
X004183Y000399D01*
X004328Y000399D01*
X004328Y000447D02*
X004328Y000302D01*
X004183Y000302D01*
X004135Y000350D01*
X004183Y000495D02*
X004280Y000495D01*
X004328Y000447D01*
X004430Y000447D02*
X004478Y000399D01*
X004575Y000399D01*
X004623Y000350D01*
X004575Y000302D01*
X004430Y000302D01*
X004430Y000447D02*
X004478Y000495D01*
X004623Y000495D01*
X004724Y000447D02*
X004773Y000495D01*
X004869Y000495D01*
X004918Y000447D01*
X004918Y000399D01*
X004724Y000399D01*
X004724Y000447D02*
X004724Y000350D01*
X004773Y000302D01*
X004869Y000302D01*
X005019Y000350D02*
X005019Y000447D01*
X005067Y000495D01*
X005212Y000495D01*
X005212Y000592D02*
X005212Y000302D01*
X005067Y000302D01*
X005019Y000350D01*
X005033Y000802D02*
X005129Y000899D01*
X005226Y000802D01*
X005226Y001092D01*
X005327Y000947D02*
X005376Y000995D01*
X005472Y000995D01*
X005521Y000947D01*
X005521Y000899D01*
X005327Y000899D01*
X005327Y000947D02*
X005327Y000850D01*
X005376Y000802D01*
X005472Y000802D01*
X005622Y000802D02*
X005767Y000802D01*
X005815Y000850D01*
X005767Y000899D01*
X005670Y000899D01*
X005622Y000947D01*
X005670Y000995D01*
X005815Y000995D01*
X005916Y000995D02*
X006013Y000995D01*
X005965Y001044D02*
X005965Y000850D01*
X006013Y000802D01*
X006113Y000850D02*
X006161Y000802D01*
X006258Y000802D01*
X006306Y000850D01*
X006306Y000947D01*
X006258Y000995D01*
X006161Y000995D01*
X006113Y000947D01*
X006113Y000850D01*
X006408Y000802D02*
X006408Y000995D01*
X006553Y000995D01*
X006601Y000947D01*
X006601Y000802D01*
X006702Y000705D02*
X006799Y000802D01*
X006751Y000802D01*
X006751Y000850D01*
X006799Y000850D01*
X006799Y000802D01*
X006787Y000495D02*
X006787Y000302D01*
X006787Y000399D02*
X006884Y000495D01*
X006932Y000495D01*
X007327Y000495D02*
X007424Y000495D01*
X007375Y000544D02*
X007375Y000350D01*
X007424Y000302D01*
X007523Y000302D02*
X007523Y000592D01*
X007572Y000495D02*
X007668Y000495D01*
X007717Y000447D01*
X007717Y000302D01*
X007818Y000350D02*
X007818Y000447D01*
X007866Y000495D01*
X007963Y000495D01*
X008011Y000447D01*
X008011Y000399D01*
X007818Y000399D01*
X007818Y000350D02*
X007866Y000302D01*
X007963Y000302D01*
X007572Y000495D02*
X007523Y000447D01*
X007536Y000802D02*
X007488Y000850D01*
X007681Y001044D01*
X007681Y000850D01*
X007633Y000802D01*
X007536Y000802D01*
X007488Y000850D02*
X007488Y001044D01*
X007536Y001092D01*
X007633Y001092D01*
X007681Y001044D01*
X007783Y000995D02*
X007879Y001092D01*
X007879Y000802D01*
X007783Y000802D02*
X007976Y000802D01*
X008077Y000802D02*
X008271Y000802D01*
X008174Y000802D02*
X008174Y001092D01*
X008077Y000995D01*
X008041Y001302D02*
X008041Y001495D01*
X008186Y001495D01*
X008235Y001447D01*
X008235Y001302D01*
X008384Y001350D02*
X008433Y001302D01*
X008384Y001350D02*
X008384Y001544D01*
X008336Y001495D02*
X008433Y001495D01*
X008532Y001447D02*
X008581Y001495D01*
X008677Y001495D01*
X008726Y001447D01*
X008726Y001399D01*
X008532Y001399D01*
X008532Y001447D02*
X008532Y001350D01*
X008581Y001302D01*
X008677Y001302D01*
X008827Y001302D02*
X008827Y001495D01*
X008827Y001399D02*
X008924Y001495D01*
X008972Y001495D01*
X009073Y001447D02*
X009169Y001447D01*
X009121Y001544D02*
X009121Y001302D01*
X009269Y001350D02*
X009317Y001399D01*
X009462Y001399D01*
X009462Y001447D02*
X009414Y001495D01*
X009317Y001495D01*
X009269Y001350D02*
X009317Y001302D01*
X009462Y001302D01*
X009462Y001447D01*
X009564Y001447D02*
X009564Y001350D01*
X009612Y001302D01*
X009757Y001302D01*
X009858Y001350D02*
X009858Y001447D01*
X009907Y001495D01*
X010003Y001495D01*
X010052Y001447D01*
X010052Y001399D01*
X009858Y001399D01*
X009858Y001350D02*
X009907Y001302D01*
X010003Y001302D01*
X009757Y001495D02*
X009612Y001495D01*
X009564Y001447D01*
X009169Y001592D02*
X009121Y001544D01*
X007942Y001592D02*
X007845Y001592D01*
X007893Y001592D02*
X007893Y001302D01*
X007845Y001302D02*
X007942Y001302D01*
X007449Y001302D02*
X007449Y001447D01*
X007401Y001495D01*
X007256Y001495D01*
X007256Y001302D01*
X007154Y001350D02*
X007154Y001447D01*
X007106Y001495D01*
X007009Y001495D01*
X006961Y001447D01*
X006961Y001350D01*
X007009Y001302D01*
X007106Y001302D01*
X007154Y001350D01*
X006861Y001302D02*
X006813Y001350D01*
X006813Y001544D01*
X006765Y001495D02*
X006861Y001495D01*
X006665Y001495D02*
X006568Y001495D01*
X006616Y001544D02*
X006616Y001350D01*
X006665Y001302D01*
X006467Y001302D02*
X006467Y001495D01*
X006467Y001302D02*
X006322Y001302D01*
X006273Y001350D01*
X006273Y001495D01*
X006172Y001447D02*
X006172Y001350D01*
X006124Y001302D01*
X005979Y001302D01*
X005979Y001592D01*
X005979Y001495D02*
X006124Y001495D01*
X006172Y001447D01*
X005878Y001447D02*
X005878Y001302D01*
X005878Y001447D02*
X005829Y001495D01*
X005733Y001495D01*
X005684Y001447D01*
X005583Y001495D02*
X005438Y001495D01*
X005390Y001447D01*
X005438Y001399D01*
X005535Y001399D01*
X005583Y001350D01*
X005535Y001302D01*
X005390Y001302D01*
X005288Y001302D02*
X005288Y001495D01*
X005288Y001302D02*
X005143Y001302D01*
X005095Y001350D01*
X005095Y001495D01*
X004994Y001447D02*
X004994Y001544D01*
X004945Y001592D01*
X004800Y001592D01*
X004800Y001302D01*
X004800Y001399D02*
X004945Y001399D01*
X004994Y001447D01*
X005033Y001092D02*
X005033Y000802D01*
X005608Y000495D02*
X005608Y000350D01*
X005657Y000302D01*
X005802Y000302D01*
X005802Y000495D01*
X005903Y000495D02*
X006048Y000495D01*
X006096Y000447D01*
X006096Y000302D01*
X006197Y000350D02*
X006197Y000447D01*
X006246Y000495D01*
X006391Y000495D01*
X006391Y000592D02*
X006391Y000302D01*
X006246Y000302D01*
X006197Y000350D01*
X005903Y000302D02*
X005903Y000495D01*
X006492Y000447D02*
X006492Y000350D01*
X006540Y000302D01*
X006637Y000302D01*
X006686Y000399D02*
X006492Y000399D01*
X006492Y000447D02*
X006540Y000495D01*
X006637Y000495D01*
X006686Y000447D01*
X006686Y000399D01*
X007193Y000802D02*
X007387Y000995D01*
X007387Y001044D01*
X007338Y001092D01*
X007242Y001092D01*
X007193Y001044D01*
X007193Y000802D02*
X007387Y000802D01*
X008407Y000592D02*
X008601Y000592D01*
X008504Y000592D02*
X008504Y000302D01*
X008702Y000302D02*
X008702Y000495D01*
X008799Y000592D01*
X008895Y000495D01*
X008895Y000302D01*
X008997Y000302D02*
X008997Y000592D01*
X009142Y000592D01*
X009190Y000544D01*
X009190Y000447D01*
X009142Y000399D01*
X008997Y000399D01*
X008895Y000447D02*
X008702Y000447D01*
X009291Y000399D02*
X009436Y000399D01*
X009485Y000447D01*
X009485Y000544D01*
X009436Y000592D01*
X009291Y000592D01*
X009291Y000302D01*
X009388Y000399D02*
X009485Y000302D01*
X009881Y000350D02*
X009881Y000544D01*
X009929Y000592D01*
X010026Y000592D01*
X010074Y000544D01*
X010074Y000350D01*
X010026Y000302D01*
X009929Y000302D01*
X009881Y000350D01*
X010175Y000302D02*
X010320Y000302D01*
X010369Y000350D01*
X010369Y000447D01*
X010320Y000495D01*
X010175Y000495D01*
X010175Y000205D01*
X010470Y000350D02*
X010470Y000447D01*
X010518Y000495D01*
X010615Y000495D01*
X010663Y000447D01*
X010663Y000399D01*
X010470Y000399D01*
X010470Y000350D02*
X010518Y000302D01*
X010615Y000302D01*
X010764Y000302D02*
X010764Y000495D01*
X010910Y000495D01*
X010958Y000447D01*
X010958Y000302D01*
X011354Y000302D02*
X011354Y000592D01*
X011354Y000447D02*
X011547Y000447D01*
X011648Y000350D02*
X011697Y000399D01*
X011842Y000399D01*
X011842Y000447D02*
X011842Y000302D01*
X011697Y000302D01*
X011648Y000350D01*
X011547Y000302D02*
X011547Y000592D01*
X011697Y000495D02*
X011794Y000495D01*
X011842Y000447D01*
X011943Y000399D02*
X012040Y000495D01*
X012088Y000495D01*
X012189Y000447D02*
X012237Y000495D01*
X012382Y000495D01*
X012382Y000592D02*
X012382Y000302D01*
X012237Y000302D01*
X012189Y000350D01*
X012189Y000447D01*
X011943Y000495D02*
X011943Y000302D01*
X012483Y000350D02*
X012532Y000302D01*
X012580Y000350D01*
X012628Y000302D01*
X012677Y000350D01*
X012677Y000495D01*
X012826Y000495D02*
X012923Y000495D01*
X012971Y000447D01*
X012971Y000302D01*
X012826Y000302D01*
X012778Y000350D01*
X012826Y000399D01*
X012971Y000399D01*
X013072Y000399D02*
X013169Y000495D01*
X013218Y000495D01*
X013318Y000447D02*
X013366Y000495D01*
X013463Y000495D01*
X013511Y000447D01*
X013511Y000399D01*
X013318Y000399D01*
X013318Y000447D02*
X013318Y000350D01*
X013366Y000302D01*
X013463Y000302D01*
X013072Y000302D02*
X013072Y000495D01*
X012483Y000495D02*
X012483Y000350D01*
X013907Y000302D02*
X014101Y000302D01*
X014202Y000302D02*
X014299Y000302D01*
X014250Y000302D02*
X014250Y000495D01*
X014202Y000495D01*
X014250Y000592D02*
X014250Y000641D01*
X014398Y000447D02*
X014398Y000350D01*
X014447Y000302D01*
X014592Y000302D01*
X014693Y000350D02*
X014693Y000447D01*
X014741Y000495D01*
X014838Y000495D01*
X014886Y000447D01*
X014886Y000399D01*
X014693Y000399D01*
X014693Y000350D02*
X014741Y000302D01*
X014838Y000302D01*
X014988Y000302D02*
X014988Y000495D01*
X015133Y000495D01*
X015181Y000447D01*
X015181Y000302D01*
X015282Y000302D02*
X015427Y000302D01*
X015476Y000350D01*
X015427Y000399D01*
X015331Y000399D01*
X015282Y000447D01*
X015331Y000495D01*
X015476Y000495D01*
X015577Y000447D02*
X015625Y000495D01*
X015722Y000495D01*
X015770Y000447D01*
X015770Y000399D01*
X015577Y000399D01*
X015577Y000447D02*
X015577Y000350D01*
X015625Y000302D01*
X015722Y000302D01*
X014592Y000495D02*
X014447Y000495D01*
X014398Y000447D01*
X013907Y000592D02*
X013907Y000302D01*
X011770Y001302D02*
X011770Y001592D01*
X011770Y001495D02*
X011625Y001495D01*
X011577Y001447D01*
X011577Y001350D01*
X011625Y001302D01*
X011770Y001302D01*
X011477Y001495D02*
X011428Y001495D01*
X011331Y001399D01*
X011331Y001495D02*
X011331Y001302D01*
X011230Y001302D02*
X011230Y001447D01*
X011182Y001495D01*
X011085Y001495D01*
X011085Y001399D02*
X011230Y001399D01*
X011230Y001302D02*
X011085Y001302D01*
X011037Y001350D01*
X011085Y001399D01*
X010936Y001350D02*
X010936Y001447D01*
X010887Y001495D01*
X010791Y001495D01*
X010742Y001447D01*
X010742Y001350D01*
X010791Y001302D01*
X010887Y001302D01*
X010936Y001350D01*
X010641Y001350D02*
X010641Y001399D01*
X010593Y001447D01*
X010448Y001447D01*
X010593Y001447D02*
X010641Y001495D01*
X010641Y001544D01*
X010593Y001592D01*
X010448Y001592D01*
X010448Y001302D01*
X010593Y001302D01*
X010641Y001350D01*
X005684Y001302D02*
X005684Y001592D01*
X003692Y000592D02*
X003644Y000592D01*
X003543Y000447D02*
X003543Y000399D01*
X003349Y000399D01*
X003349Y000447D02*
X003349Y000350D01*
X003398Y000302D01*
X003494Y000302D01*
X003543Y000447D02*
X003494Y000495D01*
X003398Y000495D01*
X003349Y000447D01*
X003248Y000447D02*
X003200Y000399D01*
X003055Y000399D01*
X003151Y000399D02*
X003248Y000302D01*
X003248Y000447D02*
X003248Y000544D01*
X003200Y000592D01*
X003055Y000592D01*
X003055Y000302D01*
X003029Y001447D02*
X002836Y001447D01*
X007122Y006122D02*
X007307Y006122D01*
X007369Y006184D01*
X007369Y006431D01*
X007307Y006492D01*
X007122Y006492D01*
X007122Y006122D01*
X007490Y006184D02*
X007490Y006431D01*
X007552Y006492D01*
X007675Y006492D01*
X007737Y006431D01*
X007737Y006184D01*
X007675Y006122D01*
X007552Y006122D01*
X007490Y006184D01*
X007859Y006122D02*
X007859Y006492D01*
X008105Y006492D02*
X008105Y006122D01*
X007982Y006245D01*
X007859Y006122D01*
X008227Y006122D02*
X008227Y006492D01*
X008474Y006122D01*
X008474Y006492D01*
X010122Y009122D02*
X010122Y009492D01*
X010307Y009492D01*
X010369Y009431D01*
X010369Y009307D01*
X010307Y009245D01*
X010122Y009245D01*
X010245Y009245D02*
X010369Y009122D01*
X010490Y009122D02*
X010614Y009122D01*
X010552Y009122D02*
X010552Y009492D01*
X010490Y009492D02*
X010614Y009492D01*
X010736Y009431D02*
X010736Y009184D01*
X010797Y009122D01*
X010921Y009122D01*
X010983Y009184D01*
X010983Y009307D01*
X010859Y009307D01*
X010736Y009431D02*
X010797Y009492D01*
X010921Y009492D01*
X010983Y009431D01*
X011104Y009492D02*
X011104Y009122D01*
X011104Y009307D02*
X011351Y009307D01*
X011351Y009492D02*
X011351Y009122D01*
X011596Y009122D02*
X011596Y009492D01*
X011719Y009492D02*
X011472Y009492D01*
X009990Y010622D02*
X009990Y010992D01*
X010175Y010992D01*
X010237Y010931D01*
X010237Y010807D01*
X010175Y010745D01*
X009990Y010745D01*
X009869Y010684D02*
X009869Y010992D01*
X009622Y010992D02*
X009622Y010684D01*
X009684Y010622D01*
X009807Y010622D01*
X009869Y010684D01*
X005474Y009492D02*
X005227Y009492D01*
X005105Y009492D02*
X004859Y009492D01*
X004859Y009122D01*
X004737Y009122D02*
X004490Y009122D01*
X004490Y009492D01*
X004737Y009492D01*
X004859Y009307D02*
X004982Y009307D01*
X004614Y009307D02*
X004490Y009307D01*
X004369Y009122D02*
X004122Y009122D01*
X004122Y009492D01*
X005350Y009492D02*
X005350Y009122D01*
X019622Y006431D02*
X019622Y006184D01*
X019684Y006122D01*
X019807Y006122D01*
X019869Y006184D01*
X019990Y006122D02*
X019990Y006369D01*
X020114Y006492D01*
X020237Y006369D01*
X020237Y006122D01*
X020359Y006122D02*
X020359Y006492D01*
X020605Y006122D01*
X020605Y006492D01*
X020727Y006431D02*
X020727Y006184D01*
X020789Y006122D01*
X020912Y006122D01*
X020974Y006184D01*
X021095Y006122D02*
X021342Y006122D01*
X021463Y006122D02*
X021710Y006122D01*
X021463Y006122D02*
X021463Y006492D01*
X021342Y006492D02*
X021095Y006492D01*
X021095Y006122D01*
X021095Y006307D02*
X021219Y006307D01*
X020974Y006431D02*
X020912Y006492D01*
X020789Y006492D01*
X020727Y006431D01*
X020237Y006307D02*
X019990Y006307D01*
X019869Y006431D02*
X019807Y006492D01*
X019684Y006492D01*
X019622Y006431D01*
X020684Y012122D02*
X020807Y012122D01*
X020869Y012184D01*
X020869Y012431D01*
X020807Y012492D01*
X020684Y012492D01*
X020622Y012431D01*
X020622Y012184D01*
X020684Y012122D01*
X020990Y012122D02*
X020990Y012492D01*
X021052Y012307D02*
X021237Y012122D01*
X020990Y012245D02*
X021237Y012492D01*
D11*
X021457Y011807D02*
X019757Y011807D01*
X019607Y011807D01*
X019407Y011607D01*
X019407Y011007D01*
X019407Y011012D02*
X019407Y010207D01*
X019407Y009607D01*
X019607Y009407D01*
X019757Y009407D01*
X021457Y009407D01*
X021607Y009407D01*
X021807Y009607D01*
X021807Y010207D01*
X021807Y011000D01*
X021807Y011007D02*
X021807Y011607D01*
X021607Y011807D01*
X021457Y011807D01*
X019607Y011107D02*
X019607Y010807D01*
X019757Y010457D01*
X019607Y010407D02*
X019607Y010107D01*
X019907Y010607D02*
X019909Y010659D01*
X019915Y010711D01*
X019925Y010763D01*
X019938Y010813D01*
X019955Y010863D01*
X019976Y010911D01*
X020001Y010957D01*
X020029Y011001D01*
X020060Y011043D01*
X020094Y011083D01*
X020131Y011120D01*
X020171Y011154D01*
X020213Y011185D01*
X020257Y011213D01*
X020303Y011238D01*
X020351Y011259D01*
X020401Y011276D01*
X020451Y011289D01*
X020503Y011299D01*
X020555Y011305D01*
X020607Y011307D01*
X020659Y011305D01*
X020711Y011299D01*
X020763Y011289D01*
X020813Y011276D01*
X020863Y011259D01*
X020911Y011238D01*
X020957Y011213D01*
X021001Y011185D01*
X021043Y011154D01*
X021083Y011120D01*
X021120Y011083D01*
X021154Y011043D01*
X021185Y011001D01*
X021213Y010957D01*
X021238Y010911D01*
X021259Y010863D01*
X021276Y010813D01*
X021289Y010763D01*
X021299Y010711D01*
X021305Y010659D01*
X021307Y010607D01*
X021305Y010555D01*
X021299Y010503D01*
X021289Y010451D01*
X021276Y010401D01*
X021259Y010351D01*
X021238Y010303D01*
X021213Y010257D01*
X021185Y010213D01*
X021154Y010171D01*
X021120Y010131D01*
X021083Y010094D01*
X021043Y010060D01*
X021001Y010029D01*
X020957Y010001D01*
X020911Y009976D01*
X020863Y009955D01*
X020813Y009938D01*
X020763Y009925D01*
X020711Y009915D01*
X020659Y009909D01*
X020607Y009907D01*
X020555Y009909D01*
X020503Y009915D01*
X020451Y009925D01*
X020401Y009938D01*
X020351Y009955D01*
X020303Y009976D01*
X020257Y010001D01*
X020213Y010029D01*
X020171Y010060D01*
X020131Y010094D01*
X020094Y010131D01*
X020060Y010171D01*
X020029Y010213D01*
X020001Y010257D01*
X019976Y010303D01*
X019955Y010351D01*
X019938Y010401D01*
X019925Y010451D01*
X019915Y010503D01*
X019909Y010555D01*
X019907Y010607D01*
X019757Y005807D02*
X019607Y005807D01*
X019407Y005607D01*
X019407Y005007D01*
X019407Y005012D02*
X019407Y004207D01*
X019407Y003607D01*
X019607Y003407D01*
X019757Y003407D01*
X021457Y003407D01*
X021607Y003407D01*
X021807Y003607D01*
X021807Y004207D01*
X021807Y005000D01*
X021807Y005007D02*
X021807Y005607D01*
X021607Y005807D01*
X021457Y005807D01*
X019757Y005807D01*
X019607Y005107D02*
X019607Y004807D01*
X019757Y004457D01*
X019607Y004407D02*
X019607Y004107D01*
X019907Y004607D02*
X019909Y004659D01*
X019915Y004711D01*
X019925Y004763D01*
X019938Y004813D01*
X019955Y004863D01*
X019976Y004911D01*
X020001Y004957D01*
X020029Y005001D01*
X020060Y005043D01*
X020094Y005083D01*
X020131Y005120D01*
X020171Y005154D01*
X020213Y005185D01*
X020257Y005213D01*
X020303Y005238D01*
X020351Y005259D01*
X020401Y005276D01*
X020451Y005289D01*
X020503Y005299D01*
X020555Y005305D01*
X020607Y005307D01*
X020659Y005305D01*
X020711Y005299D01*
X020763Y005289D01*
X020813Y005276D01*
X020863Y005259D01*
X020911Y005238D01*
X020957Y005213D01*
X021001Y005185D01*
X021043Y005154D01*
X021083Y005120D01*
X021120Y005083D01*
X021154Y005043D01*
X021185Y005001D01*
X021213Y004957D01*
X021238Y004911D01*
X021259Y004863D01*
X021276Y004813D01*
X021289Y004763D01*
X021299Y004711D01*
X021305Y004659D01*
X021307Y004607D01*
X021305Y004555D01*
X021299Y004503D01*
X021289Y004451D01*
X021276Y004401D01*
X021259Y004351D01*
X021238Y004303D01*
X021213Y004257D01*
X021185Y004213D01*
X021154Y004171D01*
X021120Y004131D01*
X021083Y004094D01*
X021043Y004060D01*
X021001Y004029D01*
X020957Y004001D01*
X020911Y003976D01*
X020863Y003955D01*
X020813Y003938D01*
X020763Y003925D01*
X020711Y003915D01*
X020659Y003909D01*
X020607Y003907D01*
X020555Y003909D01*
X020503Y003915D01*
X020451Y003925D01*
X020401Y003938D01*
X020351Y003955D01*
X020303Y003976D01*
X020257Y004001D01*
X020213Y004029D01*
X020171Y004060D01*
X020131Y004094D01*
X020094Y004131D01*
X020060Y004171D01*
X020029Y004213D01*
X020001Y004257D01*
X019976Y004303D01*
X019955Y004351D01*
X019938Y004401D01*
X019925Y004451D01*
X019915Y004503D01*
X019909Y004555D01*
X019907Y004607D01*
X011807Y006607D02*
X011807Y007207D01*
X011807Y008000D01*
X011807Y008007D02*
X011807Y008607D01*
X011607Y008807D01*
X011457Y008807D01*
X009757Y008807D01*
X009607Y008807D01*
X009407Y008607D01*
X009407Y008007D01*
X009407Y008012D02*
X009407Y007207D01*
X009407Y006607D01*
X009607Y006407D01*
X009757Y006407D01*
X011457Y006407D01*
X011607Y006407D01*
X011807Y006607D01*
X009907Y007607D02*
X009909Y007659D01*
X009915Y007711D01*
X009925Y007763D01*
X009938Y007813D01*
X009955Y007863D01*
X009976Y007911D01*
X010001Y007957D01*
X010029Y008001D01*
X010060Y008043D01*
X010094Y008083D01*
X010131Y008120D01*
X010171Y008154D01*
X010213Y008185D01*
X010257Y008213D01*
X010303Y008238D01*
X010351Y008259D01*
X010401Y008276D01*
X010451Y008289D01*
X010503Y008299D01*
X010555Y008305D01*
X010607Y008307D01*
X010659Y008305D01*
X010711Y008299D01*
X010763Y008289D01*
X010813Y008276D01*
X010863Y008259D01*
X010911Y008238D01*
X010957Y008213D01*
X011001Y008185D01*
X011043Y008154D01*
X011083Y008120D01*
X011120Y008083D01*
X011154Y008043D01*
X011185Y008001D01*
X011213Y007957D01*
X011238Y007911D01*
X011259Y007863D01*
X011276Y007813D01*
X011289Y007763D01*
X011299Y007711D01*
X011305Y007659D01*
X011307Y007607D01*
X011305Y007555D01*
X011299Y007503D01*
X011289Y007451D01*
X011276Y007401D01*
X011259Y007351D01*
X011238Y007303D01*
X011213Y007257D01*
X011185Y007213D01*
X011154Y007171D01*
X011120Y007131D01*
X011083Y007094D01*
X011043Y007060D01*
X011001Y007029D01*
X010957Y007001D01*
X010911Y006976D01*
X010863Y006955D01*
X010813Y006938D01*
X010763Y006925D01*
X010711Y006915D01*
X010659Y006909D01*
X010607Y006907D01*
X010555Y006909D01*
X010503Y006915D01*
X010451Y006925D01*
X010401Y006938D01*
X010351Y006955D01*
X010303Y006976D01*
X010257Y007001D01*
X010213Y007029D01*
X010171Y007060D01*
X010131Y007094D01*
X010094Y007131D01*
X010060Y007171D01*
X010029Y007213D01*
X010001Y007257D01*
X009976Y007303D01*
X009955Y007351D01*
X009938Y007401D01*
X009925Y007451D01*
X009915Y007503D01*
X009909Y007555D01*
X009907Y007607D01*
X009757Y007457D02*
X009607Y007807D01*
X009607Y008107D01*
X009607Y007407D02*
X009607Y007107D01*
X008607Y005807D02*
X008457Y005807D01*
X006757Y005807D01*
X006607Y005807D01*
X006407Y005607D01*
X006407Y005007D01*
X006407Y005012D02*
X006407Y004207D01*
X006407Y003607D01*
X006607Y003407D01*
X006757Y003407D01*
X008457Y003407D01*
X008607Y003407D01*
X008807Y003607D01*
X008807Y004207D01*
X008807Y005000D01*
X008807Y005007D02*
X008807Y005607D01*
X008607Y005807D01*
X006907Y004607D02*
X006909Y004659D01*
X006915Y004711D01*
X006925Y004763D01*
X006938Y004813D01*
X006955Y004863D01*
X006976Y004911D01*
X007001Y004957D01*
X007029Y005001D01*
X007060Y005043D01*
X007094Y005083D01*
X007131Y005120D01*
X007171Y005154D01*
X007213Y005185D01*
X007257Y005213D01*
X007303Y005238D01*
X007351Y005259D01*
X007401Y005276D01*
X007451Y005289D01*
X007503Y005299D01*
X007555Y005305D01*
X007607Y005307D01*
X007659Y005305D01*
X007711Y005299D01*
X007763Y005289D01*
X007813Y005276D01*
X007863Y005259D01*
X007911Y005238D01*
X007957Y005213D01*
X008001Y005185D01*
X008043Y005154D01*
X008083Y005120D01*
X008120Y005083D01*
X008154Y005043D01*
X008185Y005001D01*
X008213Y004957D01*
X008238Y004911D01*
X008259Y004863D01*
X008276Y004813D01*
X008289Y004763D01*
X008299Y004711D01*
X008305Y004659D01*
X008307Y004607D01*
X008305Y004555D01*
X008299Y004503D01*
X008289Y004451D01*
X008276Y004401D01*
X008259Y004351D01*
X008238Y004303D01*
X008213Y004257D01*
X008185Y004213D01*
X008154Y004171D01*
X008120Y004131D01*
X008083Y004094D01*
X008043Y004060D01*
X008001Y004029D01*
X007957Y004001D01*
X007911Y003976D01*
X007863Y003955D01*
X007813Y003938D01*
X007763Y003925D01*
X007711Y003915D01*
X007659Y003909D01*
X007607Y003907D01*
X007555Y003909D01*
X007503Y003915D01*
X007451Y003925D01*
X007401Y003938D01*
X007351Y003955D01*
X007303Y003976D01*
X007257Y004001D01*
X007213Y004029D01*
X007171Y004060D01*
X007131Y004094D01*
X007094Y004131D01*
X007060Y004171D01*
X007029Y004213D01*
X007001Y004257D01*
X006976Y004303D01*
X006955Y004351D01*
X006938Y004401D01*
X006925Y004451D01*
X006915Y004503D01*
X006909Y004555D01*
X006907Y004607D01*
X006757Y004457D02*
X006607Y004807D01*
X006607Y005107D01*
X006607Y004407D02*
X006607Y004107D01*
X005607Y006407D02*
X005457Y006407D01*
X003757Y006407D01*
X003607Y006407D01*
X003407Y006607D01*
X003407Y007207D01*
X003407Y008012D01*
X003407Y008007D02*
X003407Y008607D01*
X003607Y008807D01*
X003757Y008807D01*
X005457Y008807D01*
X005607Y008807D01*
X005807Y008607D01*
X005807Y008007D01*
X005807Y008000D02*
X005807Y007207D01*
X005807Y006607D01*
X005607Y006407D01*
X003757Y007457D02*
X003607Y007807D01*
X003607Y008107D01*
X003907Y007607D02*
X003909Y007659D01*
X003915Y007711D01*
X003925Y007763D01*
X003938Y007813D01*
X003955Y007863D01*
X003976Y007911D01*
X004001Y007957D01*
X004029Y008001D01*
X004060Y008043D01*
X004094Y008083D01*
X004131Y008120D01*
X004171Y008154D01*
X004213Y008185D01*
X004257Y008213D01*
X004303Y008238D01*
X004351Y008259D01*
X004401Y008276D01*
X004451Y008289D01*
X004503Y008299D01*
X004555Y008305D01*
X004607Y008307D01*
X004659Y008305D01*
X004711Y008299D01*
X004763Y008289D01*
X004813Y008276D01*
X004863Y008259D01*
X004911Y008238D01*
X004957Y008213D01*
X005001Y008185D01*
X005043Y008154D01*
X005083Y008120D01*
X005120Y008083D01*
X005154Y008043D01*
X005185Y008001D01*
X005213Y007957D01*
X005238Y007911D01*
X005259Y007863D01*
X005276Y007813D01*
X005289Y007763D01*
X005299Y007711D01*
X005305Y007659D01*
X005307Y007607D01*
X005305Y007555D01*
X005299Y007503D01*
X005289Y007451D01*
X005276Y007401D01*
X005259Y007351D01*
X005238Y007303D01*
X005213Y007257D01*
X005185Y007213D01*
X005154Y007171D01*
X005120Y007131D01*
X005083Y007094D01*
X005043Y007060D01*
X005001Y007029D01*
X004957Y007001D01*
X004911Y006976D01*
X004863Y006955D01*
X004813Y006938D01*
X004763Y006925D01*
X004711Y006915D01*
X004659Y006909D01*
X004607Y006907D01*
X004555Y006909D01*
X004503Y006915D01*
X004451Y006925D01*
X004401Y006938D01*
X004351Y006955D01*
X004303Y006976D01*
X004257Y007001D01*
X004213Y007029D01*
X004171Y007060D01*
X004131Y007094D01*
X004094Y007131D01*
X004060Y007171D01*
X004029Y007213D01*
X004001Y007257D01*
X003976Y007303D01*
X003955Y007351D01*
X003938Y007401D01*
X003925Y007451D01*
X003915Y007503D01*
X003909Y007555D01*
X003907Y007607D01*
X003607Y007407D02*
X003607Y007107D01*
X006407Y009607D02*
X006607Y009407D01*
X006757Y009407D01*
X008457Y009407D01*
X008607Y009407D01*
X008807Y009607D01*
X008807Y010207D01*
X008807Y011000D01*
X008807Y011007D02*
X008807Y011607D01*
X008607Y011807D01*
X008457Y011807D01*
X006757Y011807D01*
X006607Y011807D01*
X006407Y011607D01*
X006407Y011007D01*
X006407Y011012D02*
X006407Y010207D01*
X006407Y009607D01*
X006607Y010107D02*
X006607Y010407D01*
X006757Y010457D02*
X006607Y010807D01*
X006607Y011107D01*
X006907Y010607D02*
X006909Y010659D01*
X006915Y010711D01*
X006925Y010763D01*
X006938Y010813D01*
X006955Y010863D01*
X006976Y010911D01*
X007001Y010957D01*
X007029Y011001D01*
X007060Y011043D01*
X007094Y011083D01*
X007131Y011120D01*
X007171Y011154D01*
X007213Y011185D01*
X007257Y011213D01*
X007303Y011238D01*
X007351Y011259D01*
X007401Y011276D01*
X007451Y011289D01*
X007503Y011299D01*
X007555Y011305D01*
X007607Y011307D01*
X007659Y011305D01*
X007711Y011299D01*
X007763Y011289D01*
X007813Y011276D01*
X007863Y011259D01*
X007911Y011238D01*
X007957Y011213D01*
X008001Y011185D01*
X008043Y011154D01*
X008083Y011120D01*
X008120Y011083D01*
X008154Y011043D01*
X008185Y011001D01*
X008213Y010957D01*
X008238Y010911D01*
X008259Y010863D01*
X008276Y010813D01*
X008289Y010763D01*
X008299Y010711D01*
X008305Y010659D01*
X008307Y010607D01*
X008305Y010555D01*
X008299Y010503D01*
X008289Y010451D01*
X008276Y010401D01*
X008259Y010351D01*
X008238Y010303D01*
X008213Y010257D01*
X008185Y010213D01*
X008154Y010171D01*
X008120Y010131D01*
X008083Y010094D01*
X008043Y010060D01*
X008001Y010029D01*
X007957Y010001D01*
X007911Y009976D01*
X007863Y009955D01*
X007813Y009938D01*
X007763Y009925D01*
X007711Y009915D01*
X007659Y009909D01*
X007607Y009907D01*
X007555Y009909D01*
X007503Y009915D01*
X007451Y009925D01*
X007401Y009938D01*
X007351Y009955D01*
X007303Y009976D01*
X007257Y010001D01*
X007213Y010029D01*
X007171Y010060D01*
X007131Y010094D01*
X007094Y010131D01*
X007060Y010171D01*
X007029Y010213D01*
X007001Y010257D01*
X006976Y010303D01*
X006955Y010351D01*
X006938Y010401D01*
X006925Y010451D01*
X006915Y010503D01*
X006909Y010555D01*
X006907Y010607D01*
D12*
X006007Y012607D02*
X005607Y012607D01*
X009207Y012607D02*
X009607Y012607D01*
X013107Y009607D02*
X013107Y009207D01*
X014607Y009207D02*
X014607Y009607D01*
X014607Y006007D02*
X014607Y005607D01*
X013107Y005607D02*
X013107Y006007D01*
X009607Y002107D02*
X009207Y002107D01*
X006007Y002107D02*
X005607Y002107D01*
X005107Y004607D02*
X004707Y004607D01*
X002107Y005607D02*
X002107Y006007D01*
X001507Y004607D02*
X001107Y004607D01*
X002107Y009207D02*
X002107Y009607D01*
D13*
X002457Y008857D02*
X001757Y008857D01*
X001740Y008855D01*
X001723Y008851D01*
X001707Y008844D01*
X001693Y008834D01*
X001680Y008821D01*
X001670Y008807D01*
X001663Y008791D01*
X001659Y008774D01*
X001657Y008757D01*
X001657Y008607D01*
X001707Y008557D01*
X001707Y006657D01*
X001657Y006607D01*
X001657Y006457D01*
X001659Y006440D01*
X001663Y006423D01*
X001670Y006407D01*
X001680Y006393D01*
X001693Y006380D01*
X001707Y006370D01*
X001723Y006363D01*
X001740Y006359D01*
X001757Y006357D01*
X002457Y006357D01*
X002474Y006359D01*
X002491Y006363D01*
X002507Y006370D01*
X002521Y006380D01*
X002534Y006393D01*
X002544Y006407D01*
X002551Y006423D01*
X002555Y006440D01*
X002557Y006457D01*
X002557Y006607D01*
X002507Y006657D01*
X002507Y008557D01*
X002557Y008607D01*
X002557Y008757D01*
X002555Y008774D01*
X002551Y008791D01*
X002544Y008807D01*
X002534Y008821D01*
X002521Y008834D01*
X002507Y008844D01*
X002491Y008851D01*
X002474Y008855D01*
X002457Y008857D01*
X006457Y012157D02*
X006607Y012157D01*
X006657Y012207D01*
X008557Y012207D01*
X008607Y012157D01*
X008757Y012157D01*
X008774Y012159D01*
X008791Y012163D01*
X008807Y012170D01*
X008821Y012180D01*
X008834Y012193D01*
X008844Y012207D01*
X008851Y012223D01*
X008855Y012240D01*
X008857Y012257D01*
X008857Y012957D01*
X008855Y012974D01*
X008851Y012991D01*
X008844Y013007D01*
X008834Y013021D01*
X008821Y013034D01*
X008807Y013044D01*
X008791Y013051D01*
X008774Y013055D01*
X008757Y013057D01*
X008607Y013057D01*
X008557Y013007D01*
X006657Y013007D01*
X006607Y013057D01*
X006457Y013057D01*
X006440Y013055D01*
X006423Y013051D01*
X006407Y013044D01*
X006393Y013034D01*
X006380Y013021D01*
X006370Y013007D01*
X006363Y012991D01*
X006359Y012974D01*
X006357Y012957D01*
X006357Y012257D01*
X006359Y012240D01*
X006363Y012223D01*
X006370Y012207D01*
X006380Y012193D01*
X006393Y012180D01*
X006407Y012170D01*
X006423Y012163D01*
X006440Y012159D01*
X006457Y012157D01*
X012657Y008757D02*
X012657Y008607D01*
X012707Y008557D01*
X012707Y006657D01*
X012657Y006607D01*
X012657Y006457D01*
X012659Y006440D01*
X012663Y006423D01*
X012670Y006407D01*
X012680Y006393D01*
X012693Y006380D01*
X012707Y006370D01*
X012723Y006363D01*
X012740Y006359D01*
X012757Y006357D01*
X013457Y006357D01*
X013474Y006359D01*
X013491Y006363D01*
X013507Y006370D01*
X013521Y006380D01*
X013534Y006393D01*
X013544Y006407D01*
X013551Y006423D01*
X013555Y006440D01*
X013557Y006457D01*
X013557Y006607D01*
X013507Y006657D01*
X013507Y008557D01*
X013557Y008607D01*
X013557Y008757D01*
X013555Y008774D01*
X013551Y008791D01*
X013544Y008807D01*
X013534Y008821D01*
X013521Y008834D01*
X013507Y008844D01*
X013491Y008851D01*
X013474Y008855D01*
X013457Y008857D01*
X012757Y008857D01*
X012740Y008855D01*
X012723Y008851D01*
X012707Y008844D01*
X012693Y008834D01*
X012680Y008821D01*
X012670Y008807D01*
X012663Y008791D01*
X012659Y008774D01*
X012657Y008757D01*
X014157Y008757D02*
X014157Y008607D01*
X014207Y008557D01*
X014207Y006657D01*
X014157Y006607D01*
X014157Y006457D01*
X014159Y006440D01*
X014163Y006423D01*
X014170Y006407D01*
X014180Y006393D01*
X014193Y006380D01*
X014207Y006370D01*
X014223Y006363D01*
X014240Y006359D01*
X014257Y006357D01*
X014957Y006357D01*
X014974Y006359D01*
X014991Y006363D01*
X015007Y006370D01*
X015021Y006380D01*
X015034Y006393D01*
X015044Y006407D01*
X015051Y006423D01*
X015055Y006440D01*
X015057Y006457D01*
X015057Y006607D01*
X015007Y006657D01*
X015007Y008557D01*
X015057Y008607D01*
X015057Y008757D01*
X015055Y008774D01*
X015051Y008791D01*
X015044Y008807D01*
X015034Y008821D01*
X015021Y008834D01*
X015007Y008844D01*
X014991Y008851D01*
X014974Y008855D01*
X014957Y008857D01*
X014257Y008857D01*
X014240Y008855D01*
X014223Y008851D01*
X014207Y008844D01*
X014193Y008834D01*
X014180Y008821D01*
X014170Y008807D01*
X014163Y008791D01*
X014159Y008774D01*
X014157Y008757D01*
X017607Y004957D02*
X018107Y004957D01*
X018133Y004955D01*
X018159Y004950D01*
X018184Y004942D01*
X018207Y004930D01*
X018229Y004916D01*
X018248Y004898D01*
X018266Y004879D01*
X018280Y004857D01*
X018292Y004834D01*
X018300Y004809D01*
X018305Y004783D01*
X018307Y004757D01*
X018307Y003457D01*
X018305Y003431D01*
X018300Y003405D01*
X018292Y003380D01*
X018280Y003357D01*
X018266Y003335D01*
X018248Y003316D01*
X018229Y003298D01*
X018207Y003284D01*
X018184Y003272D01*
X018159Y003264D01*
X018133Y003259D01*
X018107Y003257D01*
X017607Y003257D01*
X017581Y003259D01*
X017555Y003264D01*
X017530Y003272D01*
X017507Y003284D01*
X017485Y003298D01*
X017466Y003316D01*
X017448Y003335D01*
X017434Y003357D01*
X017422Y003380D01*
X017414Y003405D01*
X017409Y003431D01*
X017407Y003457D01*
X017407Y004757D01*
X017409Y004783D01*
X017414Y004809D01*
X017422Y004834D01*
X017434Y004857D01*
X017448Y004879D01*
X017466Y004898D01*
X017485Y004916D01*
X017507Y004930D01*
X017530Y004942D01*
X017555Y004950D01*
X017581Y004955D01*
X017607Y004957D01*
X017857Y004607D02*
X017857Y004237D01*
X017857Y003987D02*
X017857Y003607D01*
X016357Y003607D02*
X016357Y003857D01*
X016107Y003857D01*
X015107Y003857D02*
X014857Y003857D01*
X014857Y003607D01*
X015107Y003107D02*
X015109Y003151D01*
X015115Y003195D01*
X015125Y003238D01*
X015138Y003280D01*
X015155Y003321D01*
X015176Y003360D01*
X015200Y003397D01*
X015227Y003432D01*
X015257Y003464D01*
X015290Y003494D01*
X015326Y003520D01*
X015363Y003544D01*
X015403Y003563D01*
X015444Y003580D01*
X015487Y003592D01*
X015530Y003601D01*
X015574Y003606D01*
X015618Y003607D01*
X015662Y003604D01*
X015706Y003597D01*
X015749Y003586D01*
X015791Y003572D01*
X015831Y003554D01*
X015870Y003532D01*
X015906Y003508D01*
X015940Y003480D01*
X015972Y003449D01*
X016001Y003415D01*
X016027Y003379D01*
X016049Y003341D01*
X016068Y003301D01*
X016083Y003259D01*
X016095Y003217D01*
X016103Y003173D01*
X016107Y003129D01*
X016107Y003085D01*
X016103Y003041D01*
X016095Y002997D01*
X016083Y002955D01*
X016068Y002913D01*
X016049Y002873D01*
X016027Y002835D01*
X016001Y002799D01*
X015972Y002765D01*
X015940Y002734D01*
X015906Y002706D01*
X015870Y002682D01*
X015831Y002660D01*
X015791Y002642D01*
X015749Y002628D01*
X015706Y002617D01*
X015662Y002610D01*
X015618Y002607D01*
X015574Y002608D01*
X015530Y002613D01*
X015487Y002622D01*
X015444Y002634D01*
X015403Y002651D01*
X015363Y002670D01*
X015326Y002694D01*
X015290Y002720D01*
X015257Y002750D01*
X015227Y002782D01*
X015200Y002817D01*
X015176Y002854D01*
X015155Y002893D01*
X015138Y002934D01*
X015125Y002976D01*
X015115Y003019D01*
X015109Y003063D01*
X015107Y003107D01*
X014857Y002607D02*
X014857Y002357D01*
X015107Y002357D01*
X016107Y002357D02*
X016357Y002357D01*
X016357Y002607D01*
X013857Y002607D02*
X013857Y002357D01*
X013607Y002357D01*
X012607Y002357D02*
X012357Y002357D01*
X012357Y002607D01*
X012607Y003107D02*
X012609Y003151D01*
X012615Y003195D01*
X012625Y003238D01*
X012638Y003280D01*
X012655Y003321D01*
X012676Y003360D01*
X012700Y003397D01*
X012727Y003432D01*
X012757Y003464D01*
X012790Y003494D01*
X012826Y003520D01*
X012863Y003544D01*
X012903Y003563D01*
X012944Y003580D01*
X012987Y003592D01*
X013030Y003601D01*
X013074Y003606D01*
X013118Y003607D01*
X013162Y003604D01*
X013206Y003597D01*
X013249Y003586D01*
X013291Y003572D01*
X013331Y003554D01*
X013370Y003532D01*
X013406Y003508D01*
X013440Y003480D01*
X013472Y003449D01*
X013501Y003415D01*
X013527Y003379D01*
X013549Y003341D01*
X013568Y003301D01*
X013583Y003259D01*
X013595Y003217D01*
X013603Y003173D01*
X013607Y003129D01*
X013607Y003085D01*
X013603Y003041D01*
X013595Y002997D01*
X013583Y002955D01*
X013568Y002913D01*
X013549Y002873D01*
X013527Y002835D01*
X013501Y002799D01*
X013472Y002765D01*
X013440Y002734D01*
X013406Y002706D01*
X013370Y002682D01*
X013331Y002660D01*
X013291Y002642D01*
X013249Y002628D01*
X013206Y002617D01*
X013162Y002610D01*
X013118Y002607D01*
X013074Y002608D01*
X013030Y002613D01*
X012987Y002622D01*
X012944Y002634D01*
X012903Y002651D01*
X012863Y002670D01*
X012826Y002694D01*
X012790Y002720D01*
X012757Y002750D01*
X012727Y002782D01*
X012700Y002817D01*
X012676Y002854D01*
X012655Y002893D01*
X012638Y002934D01*
X012625Y002976D01*
X012615Y003019D01*
X012609Y003063D01*
X012607Y003107D01*
X012357Y003607D02*
X012357Y003857D01*
X012607Y003857D01*
X013607Y003857D02*
X013857Y003857D01*
X013857Y003607D01*
X011357Y003607D02*
X011357Y003857D01*
X011107Y003857D01*
X010107Y003857D02*
X009857Y003857D01*
X009857Y003607D01*
X010107Y003107D02*
X010109Y003151D01*
X010115Y003195D01*
X010125Y003238D01*
X010138Y003280D01*
X010155Y003321D01*
X010176Y003360D01*
X010200Y003397D01*
X010227Y003432D01*
X010257Y003464D01*
X010290Y003494D01*
X010326Y003520D01*
X010363Y003544D01*
X010403Y003563D01*
X010444Y003580D01*
X010487Y003592D01*
X010530Y003601D01*
X010574Y003606D01*
X010618Y003607D01*
X010662Y003604D01*
X010706Y003597D01*
X010749Y003586D01*
X010791Y003572D01*
X010831Y003554D01*
X010870Y003532D01*
X010906Y003508D01*
X010940Y003480D01*
X010972Y003449D01*
X011001Y003415D01*
X011027Y003379D01*
X011049Y003341D01*
X011068Y003301D01*
X011083Y003259D01*
X011095Y003217D01*
X011103Y003173D01*
X011107Y003129D01*
X011107Y003085D01*
X011103Y003041D01*
X011095Y002997D01*
X011083Y002955D01*
X011068Y002913D01*
X011049Y002873D01*
X011027Y002835D01*
X011001Y002799D01*
X010972Y002765D01*
X010940Y002734D01*
X010906Y002706D01*
X010870Y002682D01*
X010831Y002660D01*
X010791Y002642D01*
X010749Y002628D01*
X010706Y002617D01*
X010662Y002610D01*
X010618Y002607D01*
X010574Y002608D01*
X010530Y002613D01*
X010487Y002622D01*
X010444Y002634D01*
X010403Y002651D01*
X010363Y002670D01*
X010326Y002694D01*
X010290Y002720D01*
X010257Y002750D01*
X010227Y002782D01*
X010200Y002817D01*
X010176Y002854D01*
X010155Y002893D01*
X010138Y002934D01*
X010125Y002976D01*
X010115Y003019D01*
X010109Y003063D01*
X010107Y003107D01*
X009857Y002607D02*
X009857Y002357D01*
X010107Y002357D01*
X011107Y002357D02*
X011357Y002357D01*
X011357Y002607D01*
X008857Y002457D02*
X008857Y001757D01*
X008855Y001740D01*
X008851Y001723D01*
X008844Y001707D01*
X008834Y001693D01*
X008821Y001680D01*
X008807Y001670D01*
X008791Y001663D01*
X008774Y001659D01*
X008757Y001657D01*
X008607Y001657D01*
X008557Y001707D01*
X006657Y001707D01*
X006607Y001657D01*
X006457Y001657D01*
X006440Y001659D01*
X006423Y001663D01*
X006407Y001670D01*
X006393Y001680D01*
X006380Y001693D01*
X006370Y001707D01*
X006363Y001723D01*
X006359Y001740D01*
X006357Y001757D01*
X006357Y002457D01*
X006359Y002474D01*
X006363Y002491D01*
X006370Y002507D01*
X006380Y002521D01*
X006393Y002534D01*
X006407Y002544D01*
X006423Y002551D01*
X006440Y002555D01*
X006457Y002557D01*
X006607Y002557D01*
X006657Y002507D01*
X008557Y002507D01*
X008607Y002557D01*
X008757Y002557D01*
X008774Y002555D01*
X008791Y002551D01*
X008807Y002544D01*
X008821Y002534D01*
X008834Y002521D01*
X008844Y002507D01*
X008851Y002491D01*
X008855Y002474D01*
X008857Y002457D01*
X004357Y004257D02*
X004357Y004957D01*
X004355Y004974D01*
X004351Y004991D01*
X004344Y005007D01*
X004334Y005021D01*
X004321Y005034D01*
X004307Y005044D01*
X004291Y005051D01*
X004274Y005055D01*
X004257Y005057D01*
X004107Y005057D01*
X004057Y005007D01*
X002157Y005007D01*
X002107Y005057D01*
X001957Y005057D01*
X001940Y005055D01*
X001923Y005051D01*
X001907Y005044D01*
X001893Y005034D01*
X001880Y005021D01*
X001870Y005007D01*
X001863Y004991D01*
X001859Y004974D01*
X001857Y004957D01*
X001857Y004257D01*
X001859Y004240D01*
X001863Y004223D01*
X001870Y004207D01*
X001880Y004193D01*
X001893Y004180D01*
X001907Y004170D01*
X001923Y004163D01*
X001940Y004159D01*
X001957Y004157D01*
X002107Y004157D01*
X002157Y004207D01*
X004057Y004207D01*
X004107Y004157D01*
X004257Y004157D01*
X004274Y004159D01*
X004291Y004163D01*
X004307Y004170D01*
X004321Y004180D01*
X004334Y004193D01*
X004344Y004207D01*
X004351Y004223D01*
X004355Y004240D01*
X004357Y004257D01*
D14*
X004527Y004607D03*
X001687Y004607D03*
X006187Y002107D03*
X009027Y002107D03*
X009027Y012607D03*
X006187Y012607D03*
D15*
X010242Y012682D02*
X010392Y012832D01*
X010392Y012382D01*
X010242Y012382D02*
X010542Y012382D01*
X011163Y012382D02*
X011163Y012832D01*
X011388Y012682D02*
X011163Y012532D01*
X011388Y012382D01*
X012882Y011638D02*
X013332Y011638D01*
X013182Y011638D02*
X013032Y011863D01*
X013182Y011638D02*
X013332Y011863D01*
X014382Y011853D02*
X014832Y011853D01*
X014682Y011853D02*
X014532Y012078D01*
X014682Y011853D02*
X014832Y012078D01*
X014757Y011233D02*
X014832Y011158D01*
X014832Y011007D01*
X014757Y010932D01*
X014757Y010777D02*
X014832Y010777D01*
X014832Y010702D01*
X014757Y010702D01*
X014757Y010777D01*
X014457Y010932D02*
X014382Y011007D01*
X014382Y011158D01*
X014457Y011233D01*
X014532Y011233D01*
X014607Y011158D01*
X014682Y011233D01*
X014757Y011233D01*
X014607Y011158D02*
X014607Y011083D01*
X014682Y010542D02*
X014757Y010542D01*
X014832Y010467D01*
X014832Y010317D01*
X014757Y010242D01*
X014607Y010392D02*
X014607Y010467D01*
X014682Y010542D01*
X014607Y010467D02*
X014532Y010542D01*
X014457Y010542D01*
X014382Y010467D01*
X014382Y010317D01*
X014457Y010242D01*
X013332Y010327D02*
X013332Y010027D01*
X013032Y010327D01*
X012957Y010327D01*
X012882Y010252D01*
X012882Y010102D01*
X012957Y010027D01*
X013257Y010487D02*
X013257Y010562D01*
X013332Y010562D01*
X013332Y010487D01*
X013257Y010487D01*
X013332Y010717D02*
X013032Y011018D01*
X012957Y011018D01*
X012882Y010943D01*
X012882Y010792D01*
X012957Y010717D01*
X013332Y010717D02*
X013332Y011018D01*
X016082Y005532D02*
X016082Y005082D01*
X015932Y005082D02*
X016232Y005082D01*
X016392Y005157D02*
X016693Y005457D01*
X016693Y005157D01*
X016617Y005082D01*
X016467Y005082D01*
X016392Y005157D01*
X016392Y005457D01*
X016467Y005532D01*
X016617Y005532D01*
X016693Y005457D01*
X016853Y005457D02*
X016928Y005532D01*
X017078Y005532D01*
X017153Y005457D01*
X016853Y005157D01*
X016928Y005082D01*
X017078Y005082D01*
X017153Y005157D01*
X017153Y005457D01*
X016853Y005457D02*
X016853Y005157D01*
X016082Y005532D02*
X015932Y005382D01*
X015803Y004482D02*
X015803Y004182D01*
X015953Y004032D01*
X016103Y004182D01*
X016103Y004482D01*
X015643Y004482D02*
X015342Y004482D01*
X015342Y004257D01*
X015492Y004332D01*
X015567Y004332D01*
X015643Y004257D01*
X015643Y004107D01*
X015567Y004032D01*
X015417Y004032D01*
X015342Y004107D01*
X015032Y004107D02*
X015032Y004407D01*
X014882Y004257D02*
X015182Y004257D01*
X013603Y004107D02*
X013603Y004407D01*
X013528Y004482D01*
X013303Y004482D01*
X013303Y004032D01*
X013528Y004032D01*
X013603Y004107D01*
X013143Y004032D02*
X013143Y004482D01*
X012842Y004482D02*
X013143Y004032D01*
X012842Y004032D02*
X012842Y004482D01*
X012682Y004407D02*
X012607Y004482D01*
X012457Y004482D01*
X012382Y004407D01*
X012382Y004107D01*
X012457Y004032D01*
X012607Y004032D01*
X012682Y004107D01*
X012682Y004257D01*
X012532Y004257D01*
X011103Y004482D02*
X010803Y004482D01*
X010953Y004482D02*
X010953Y004032D01*
X010643Y004107D02*
X010643Y004482D01*
X010342Y004482D02*
X010342Y004107D01*
X010417Y004032D01*
X010567Y004032D01*
X010643Y004107D01*
X010182Y004107D02*
X010182Y004407D01*
X010107Y004482D01*
X009957Y004482D01*
X009882Y004407D01*
X009882Y004107D01*
X009957Y004032D01*
X010107Y004032D01*
X010182Y004107D01*
X006134Y002757D02*
X006134Y002607D01*
X006059Y002532D01*
X005833Y002532D01*
X005833Y002382D02*
X005833Y002832D01*
X006059Y002832D01*
X006134Y002757D01*
X005983Y002532D02*
X006134Y002382D01*
X005213Y002457D02*
X005138Y002382D01*
X004988Y002382D01*
X004913Y002457D01*
X005213Y002757D01*
X005213Y002457D01*
X004913Y002457D02*
X004913Y002757D01*
X004988Y002832D01*
X005138Y002832D01*
X005213Y002757D01*
X004753Y002757D02*
X004753Y002682D01*
X004677Y002607D01*
X004753Y002532D01*
X004753Y002457D01*
X004677Y002382D01*
X004527Y002382D01*
X004452Y002457D01*
X004292Y002457D02*
X004292Y002532D01*
X004217Y002607D01*
X004142Y002607D01*
X004217Y002607D02*
X004292Y002682D01*
X004292Y002757D01*
X004217Y002832D01*
X004067Y002832D01*
X003992Y002757D01*
X004452Y002757D02*
X004527Y002832D01*
X004677Y002832D01*
X004753Y002757D01*
X004677Y002607D02*
X004602Y002607D01*
X004292Y002457D02*
X004217Y002382D01*
X004067Y002382D01*
X003992Y002457D01*
X004078Y003382D02*
X003853Y003532D01*
X004078Y003682D01*
X003853Y003832D02*
X003853Y003382D01*
X003233Y003382D02*
X002932Y003382D01*
X003233Y003682D01*
X003233Y003757D01*
X003158Y003832D01*
X003007Y003832D01*
X002932Y003757D01*
X002542Y003757D02*
X002542Y003682D01*
X002242Y003382D01*
X002542Y003382D01*
X002702Y003382D02*
X002777Y003382D01*
X002777Y003457D01*
X002702Y003457D01*
X002702Y003382D01*
X002542Y003757D02*
X002467Y003832D01*
X002317Y003832D01*
X002242Y003757D01*
X001257Y006742D02*
X001107Y006742D01*
X001107Y006967D01*
X001182Y007042D01*
X001257Y007042D01*
X001332Y006967D01*
X001332Y006817D01*
X001257Y006742D01*
X001107Y006742D02*
X000957Y006892D01*
X000882Y007042D01*
X000957Y007202D02*
X001032Y007202D01*
X001107Y007277D01*
X001107Y007427D01*
X001182Y007503D01*
X001257Y007503D01*
X001332Y007427D01*
X001332Y007277D01*
X001257Y007202D01*
X001182Y007202D01*
X001107Y007277D01*
X001107Y007427D02*
X001032Y007503D01*
X000957Y007503D01*
X000882Y007427D01*
X000882Y007277D01*
X000957Y007202D01*
X000957Y007663D02*
X000882Y007738D01*
X000882Y007888D01*
X000957Y007963D01*
X001257Y007663D01*
X001332Y007738D01*
X001332Y007888D01*
X001257Y007963D01*
X000957Y007963D01*
X000957Y007663D02*
X001257Y007663D01*
X001332Y008583D02*
X000882Y008583D01*
X000882Y008809D01*
X000957Y008884D01*
X001107Y008884D01*
X001182Y008809D01*
X001182Y008583D01*
X001182Y008733D02*
X001332Y008884D01*
X017773Y005382D02*
X017773Y005082D01*
X018074Y005082D02*
X018074Y005307D01*
X017999Y005382D01*
X017773Y005382D01*
X018234Y005307D02*
X018384Y005307D01*
X018234Y005082D02*
X018234Y005532D01*
X018534Y005532D01*
D16*
X014607Y006187D03*
X013107Y006187D03*
X013107Y009027D03*
X014607Y009027D03*
X002107Y009027D03*
X002107Y006187D03*
D17*
X017557Y004237D02*
X018157Y004237D01*
X018157Y003987D02*
X017557Y003987D01*
D18*
X015632Y003589D02*
X015632Y003583D01*
X015629Y003579D01*
X015625Y003583D01*
X015625Y003589D01*
X015623Y003589D02*
X015616Y003589D01*
X015616Y003584D01*
X015619Y003586D01*
X015621Y003586D01*
X015623Y003584D01*
X015623Y003581D01*
X015621Y003579D01*
X015618Y003579D01*
X015616Y003581D01*
X015614Y003584D02*
X015607Y003584D01*
X015610Y003581D02*
X015610Y003588D01*
X013132Y003588D02*
X013130Y003589D01*
X013125Y003589D01*
X013125Y003579D01*
X013130Y003579D01*
X013132Y003581D01*
X013132Y003588D01*
X013123Y003589D02*
X013123Y003579D01*
X013116Y003589D01*
X013116Y003579D01*
X013114Y003581D02*
X013114Y003584D01*
X013110Y003584D01*
X013107Y003581D02*
X013109Y003579D01*
X013112Y003579D01*
X013114Y003581D01*
X013114Y003588D02*
X013112Y003589D01*
X013109Y003589D01*
X013107Y003588D01*
X013107Y003581D01*
X010684Y003579D02*
X010684Y003589D01*
X010677Y003589D02*
X010684Y003579D01*
X010677Y003579D02*
X010677Y003589D01*
X010674Y003589D02*
X010671Y003589D01*
X010673Y003589D02*
X010673Y003579D01*
X010674Y003579D02*
X010671Y003579D01*
X010669Y003578D02*
X010662Y003578D01*
X010659Y003579D02*
X010659Y003589D01*
X010653Y003589D02*
X010659Y003579D01*
X010653Y003579D02*
X010653Y003589D01*
X010650Y003588D02*
X010649Y003589D01*
X010645Y003589D01*
X010644Y003588D01*
X010644Y003581D01*
X010645Y003579D01*
X010649Y003579D01*
X010650Y003581D01*
X010650Y003588D01*
X010641Y003589D02*
X010634Y003589D01*
X010632Y003589D02*
X010625Y003589D01*
X010623Y003589D02*
X010623Y003581D01*
X010621Y003579D01*
X010618Y003579D01*
X010616Y003581D01*
X010616Y003589D01*
X010614Y003588D02*
X010614Y003586D01*
X010612Y003584D01*
X010607Y003584D01*
X010607Y003579D02*
X010612Y003579D01*
X010614Y003581D01*
X010614Y003583D01*
X010612Y003584D01*
X010614Y003588D02*
X010612Y003589D01*
X010607Y003589D01*
X010607Y003579D01*
X010629Y003579D02*
X010629Y003589D01*
X010638Y003589D02*
X010638Y003579D01*
M02*
