G75*
G70*
%OFA0B0*%
%FSLAX24Y24*%
%IPPOS*%
%LPD*%
%AMOC8*
5,1,8,0,0,1.08239X$1,22.5*
%
%ADD10C,0.0800*%
%ADD11OC8,0.0540*%
%ADD12OC8,0.1560*%
%ADD13C,0.1360*%
D10*
X006327Y003717D03*
X008887Y003717D03*
X008887Y005497D03*
X009327Y006717D03*
X011887Y006717D03*
X011887Y008497D03*
X009327Y008497D03*
X008887Y009717D03*
X006327Y009717D03*
X005887Y008497D03*
X003327Y008497D03*
X003327Y006717D03*
X005887Y006717D03*
X006327Y005497D03*
X006327Y011497D03*
X008887Y011497D03*
X019327Y011497D03*
X021887Y011497D03*
X021887Y009717D03*
X019327Y009717D03*
X019327Y005497D03*
X021887Y005497D03*
X021887Y003717D03*
X019327Y003717D03*
D11*
X017857Y003607D03*
X017857Y004607D03*
X014607Y005607D03*
X013107Y005607D03*
X009607Y002107D03*
X005607Y002107D03*
X005107Y004607D03*
X002107Y005607D03*
X001107Y004607D03*
X002107Y009607D03*
X005607Y012607D03*
X009607Y012607D03*
X013107Y009607D03*
X014607Y009607D03*
D12*
X015607Y003107D03*
X013107Y003107D03*
X010607Y003107D03*
D13*
X001607Y001607D03*
X017857Y001607D03*
X017857Y012107D03*
X001607Y012107D03*
M02*
