G75*
G70*
%OFA0B0*%
%FSLAX24Y24*%
%IPPOS*%
%LPD*%
%AMOC8*
5,1,8,0,0,1.08239X$1,22.5*
%
%ADD10C,0.0000*%
%ADD11C,0.0740*%
%ADD12OC8,0.0480*%
%ADD13OC8,0.1500*%
D10*
X001607Y000107D02*
X021607Y000107D01*
X021683Y000109D01*
X021759Y000115D01*
X021834Y000124D01*
X021909Y000138D01*
X021983Y000155D01*
X022056Y000176D01*
X022128Y000200D01*
X022199Y000229D01*
X022268Y000260D01*
X022335Y000295D01*
X022400Y000334D01*
X022464Y000376D01*
X022525Y000421D01*
X022584Y000469D01*
X022640Y000520D01*
X022694Y000574D01*
X022745Y000630D01*
X022793Y000689D01*
X022838Y000750D01*
X022880Y000814D01*
X022919Y000879D01*
X022954Y000946D01*
X022985Y001015D01*
X023014Y001086D01*
X023038Y001158D01*
X023059Y001231D01*
X023076Y001305D01*
X023090Y001380D01*
X023099Y001455D01*
X023105Y001531D01*
X023107Y001607D01*
X023107Y012107D01*
X023105Y012183D01*
X023099Y012259D01*
X023090Y012334D01*
X023076Y012409D01*
X023059Y012483D01*
X023038Y012556D01*
X023014Y012628D01*
X022985Y012699D01*
X022954Y012768D01*
X022919Y012835D01*
X022880Y012900D01*
X022838Y012964D01*
X022793Y013025D01*
X022745Y013084D01*
X022694Y013140D01*
X022640Y013194D01*
X022584Y013245D01*
X022525Y013293D01*
X022464Y013338D01*
X022400Y013380D01*
X022335Y013419D01*
X022268Y013454D01*
X022199Y013485D01*
X022128Y013514D01*
X022056Y013538D01*
X021983Y013559D01*
X021909Y013576D01*
X021834Y013590D01*
X021759Y013599D01*
X021683Y013605D01*
X021607Y013607D01*
X001607Y013607D01*
X000957Y012107D02*
X000959Y012157D01*
X000965Y012207D01*
X000975Y012257D01*
X000988Y012305D01*
X001005Y012353D01*
X001026Y012399D01*
X001050Y012443D01*
X001078Y012485D01*
X001109Y012525D01*
X001143Y012562D01*
X001180Y012597D01*
X001219Y012628D01*
X001260Y012657D01*
X001304Y012682D01*
X001350Y012704D01*
X001397Y012722D01*
X001445Y012736D01*
X001494Y012747D01*
X001544Y012754D01*
X001594Y012757D01*
X001645Y012756D01*
X001695Y012751D01*
X001745Y012742D01*
X001793Y012730D01*
X001841Y012713D01*
X001887Y012693D01*
X001932Y012670D01*
X001975Y012643D01*
X002015Y012613D01*
X002053Y012580D01*
X002088Y012544D01*
X002121Y012505D01*
X002150Y012464D01*
X002176Y012421D01*
X002199Y012376D01*
X002218Y012329D01*
X002233Y012281D01*
X002245Y012232D01*
X002253Y012182D01*
X002257Y012132D01*
X002257Y012082D01*
X002253Y012032D01*
X002245Y011982D01*
X002233Y011933D01*
X002218Y011885D01*
X002199Y011838D01*
X002176Y011793D01*
X002150Y011750D01*
X002121Y011709D01*
X002088Y011670D01*
X002053Y011634D01*
X002015Y011601D01*
X001975Y011571D01*
X001932Y011544D01*
X001887Y011521D01*
X001841Y011501D01*
X001793Y011484D01*
X001745Y011472D01*
X001695Y011463D01*
X001645Y011458D01*
X001594Y011457D01*
X001544Y011460D01*
X001494Y011467D01*
X001445Y011478D01*
X001397Y011492D01*
X001350Y011510D01*
X001304Y011532D01*
X001260Y011557D01*
X001219Y011586D01*
X001180Y011617D01*
X001143Y011652D01*
X001109Y011689D01*
X001078Y011729D01*
X001050Y011771D01*
X001026Y011815D01*
X001005Y011861D01*
X000988Y011909D01*
X000975Y011957D01*
X000965Y012007D01*
X000959Y012057D01*
X000957Y012107D01*
X000107Y012107D02*
X000109Y012183D01*
X000115Y012259D01*
X000124Y012334D01*
X000138Y012409D01*
X000155Y012483D01*
X000176Y012556D01*
X000200Y012628D01*
X000229Y012699D01*
X000260Y012768D01*
X000295Y012835D01*
X000334Y012900D01*
X000376Y012964D01*
X000421Y013025D01*
X000469Y013084D01*
X000520Y013140D01*
X000574Y013194D01*
X000630Y013245D01*
X000689Y013293D01*
X000750Y013338D01*
X000814Y013380D01*
X000879Y013419D01*
X000946Y013454D01*
X001015Y013485D01*
X001086Y013514D01*
X001158Y013538D01*
X001231Y013559D01*
X001305Y013576D01*
X001380Y013590D01*
X001455Y013599D01*
X001531Y013605D01*
X001607Y013607D01*
X000107Y012107D02*
X000107Y001607D01*
X000957Y001607D02*
X000959Y001657D01*
X000965Y001707D01*
X000975Y001757D01*
X000988Y001805D01*
X001005Y001853D01*
X001026Y001899D01*
X001050Y001943D01*
X001078Y001985D01*
X001109Y002025D01*
X001143Y002062D01*
X001180Y002097D01*
X001219Y002128D01*
X001260Y002157D01*
X001304Y002182D01*
X001350Y002204D01*
X001397Y002222D01*
X001445Y002236D01*
X001494Y002247D01*
X001544Y002254D01*
X001594Y002257D01*
X001645Y002256D01*
X001695Y002251D01*
X001745Y002242D01*
X001793Y002230D01*
X001841Y002213D01*
X001887Y002193D01*
X001932Y002170D01*
X001975Y002143D01*
X002015Y002113D01*
X002053Y002080D01*
X002088Y002044D01*
X002121Y002005D01*
X002150Y001964D01*
X002176Y001921D01*
X002199Y001876D01*
X002218Y001829D01*
X002233Y001781D01*
X002245Y001732D01*
X002253Y001682D01*
X002257Y001632D01*
X002257Y001582D01*
X002253Y001532D01*
X002245Y001482D01*
X002233Y001433D01*
X002218Y001385D01*
X002199Y001338D01*
X002176Y001293D01*
X002150Y001250D01*
X002121Y001209D01*
X002088Y001170D01*
X002053Y001134D01*
X002015Y001101D01*
X001975Y001071D01*
X001932Y001044D01*
X001887Y001021D01*
X001841Y001001D01*
X001793Y000984D01*
X001745Y000972D01*
X001695Y000963D01*
X001645Y000958D01*
X001594Y000957D01*
X001544Y000960D01*
X001494Y000967D01*
X001445Y000978D01*
X001397Y000992D01*
X001350Y001010D01*
X001304Y001032D01*
X001260Y001057D01*
X001219Y001086D01*
X001180Y001117D01*
X001143Y001152D01*
X001109Y001189D01*
X001078Y001229D01*
X001050Y001271D01*
X001026Y001315D01*
X001005Y001361D01*
X000988Y001409D01*
X000975Y001457D01*
X000965Y001507D01*
X000959Y001557D01*
X000957Y001607D01*
X000107Y001607D02*
X000109Y001531D01*
X000115Y001455D01*
X000124Y001380D01*
X000138Y001305D01*
X000155Y001231D01*
X000176Y001158D01*
X000200Y001086D01*
X000229Y001015D01*
X000260Y000946D01*
X000295Y000879D01*
X000334Y000814D01*
X000376Y000750D01*
X000421Y000689D01*
X000469Y000630D01*
X000520Y000574D01*
X000574Y000520D01*
X000630Y000469D01*
X000689Y000421D01*
X000750Y000376D01*
X000814Y000334D01*
X000879Y000295D01*
X000946Y000260D01*
X001015Y000229D01*
X001086Y000200D01*
X001158Y000176D01*
X001231Y000155D01*
X001305Y000138D01*
X001380Y000124D01*
X001455Y000115D01*
X001531Y000109D01*
X001607Y000107D01*
X017207Y001607D02*
X017209Y001657D01*
X017215Y001707D01*
X017225Y001757D01*
X017238Y001805D01*
X017255Y001853D01*
X017276Y001899D01*
X017300Y001943D01*
X017328Y001985D01*
X017359Y002025D01*
X017393Y002062D01*
X017430Y002097D01*
X017469Y002128D01*
X017510Y002157D01*
X017554Y002182D01*
X017600Y002204D01*
X017647Y002222D01*
X017695Y002236D01*
X017744Y002247D01*
X017794Y002254D01*
X017844Y002257D01*
X017895Y002256D01*
X017945Y002251D01*
X017995Y002242D01*
X018043Y002230D01*
X018091Y002213D01*
X018137Y002193D01*
X018182Y002170D01*
X018225Y002143D01*
X018265Y002113D01*
X018303Y002080D01*
X018338Y002044D01*
X018371Y002005D01*
X018400Y001964D01*
X018426Y001921D01*
X018449Y001876D01*
X018468Y001829D01*
X018483Y001781D01*
X018495Y001732D01*
X018503Y001682D01*
X018507Y001632D01*
X018507Y001582D01*
X018503Y001532D01*
X018495Y001482D01*
X018483Y001433D01*
X018468Y001385D01*
X018449Y001338D01*
X018426Y001293D01*
X018400Y001250D01*
X018371Y001209D01*
X018338Y001170D01*
X018303Y001134D01*
X018265Y001101D01*
X018225Y001071D01*
X018182Y001044D01*
X018137Y001021D01*
X018091Y001001D01*
X018043Y000984D01*
X017995Y000972D01*
X017945Y000963D01*
X017895Y000958D01*
X017844Y000957D01*
X017794Y000960D01*
X017744Y000967D01*
X017695Y000978D01*
X017647Y000992D01*
X017600Y001010D01*
X017554Y001032D01*
X017510Y001057D01*
X017469Y001086D01*
X017430Y001117D01*
X017393Y001152D01*
X017359Y001189D01*
X017328Y001229D01*
X017300Y001271D01*
X017276Y001315D01*
X017255Y001361D01*
X017238Y001409D01*
X017225Y001457D01*
X017215Y001507D01*
X017209Y001557D01*
X017207Y001607D01*
X017207Y012107D02*
X017209Y012157D01*
X017215Y012207D01*
X017225Y012257D01*
X017238Y012305D01*
X017255Y012353D01*
X017276Y012399D01*
X017300Y012443D01*
X017328Y012485D01*
X017359Y012525D01*
X017393Y012562D01*
X017430Y012597D01*
X017469Y012628D01*
X017510Y012657D01*
X017554Y012682D01*
X017600Y012704D01*
X017647Y012722D01*
X017695Y012736D01*
X017744Y012747D01*
X017794Y012754D01*
X017844Y012757D01*
X017895Y012756D01*
X017945Y012751D01*
X017995Y012742D01*
X018043Y012730D01*
X018091Y012713D01*
X018137Y012693D01*
X018182Y012670D01*
X018225Y012643D01*
X018265Y012613D01*
X018303Y012580D01*
X018338Y012544D01*
X018371Y012505D01*
X018400Y012464D01*
X018426Y012421D01*
X018449Y012376D01*
X018468Y012329D01*
X018483Y012281D01*
X018495Y012232D01*
X018503Y012182D01*
X018507Y012132D01*
X018507Y012082D01*
X018503Y012032D01*
X018495Y011982D01*
X018483Y011933D01*
X018468Y011885D01*
X018449Y011838D01*
X018426Y011793D01*
X018400Y011750D01*
X018371Y011709D01*
X018338Y011670D01*
X018303Y011634D01*
X018265Y011601D01*
X018225Y011571D01*
X018182Y011544D01*
X018137Y011521D01*
X018091Y011501D01*
X018043Y011484D01*
X017995Y011472D01*
X017945Y011463D01*
X017895Y011458D01*
X017844Y011457D01*
X017794Y011460D01*
X017744Y011467D01*
X017695Y011478D01*
X017647Y011492D01*
X017600Y011510D01*
X017554Y011532D01*
X017510Y011557D01*
X017469Y011586D01*
X017430Y011617D01*
X017393Y011652D01*
X017359Y011689D01*
X017328Y011729D01*
X017300Y011771D01*
X017276Y011815D01*
X017255Y011861D01*
X017238Y011909D01*
X017225Y011957D01*
X017215Y012007D01*
X017209Y012057D01*
X017207Y012107D01*
D11*
X019327Y011497D03*
X021887Y011497D03*
X021887Y009717D03*
X019327Y009717D03*
X019327Y005497D03*
X021887Y005497D03*
X021887Y003717D03*
X019327Y003717D03*
X011887Y006717D03*
X009327Y006717D03*
X008887Y005497D03*
X006327Y005497D03*
X005887Y006717D03*
X003327Y006717D03*
X003327Y008497D03*
X005887Y008497D03*
X006327Y009717D03*
X008887Y009717D03*
X009327Y008497D03*
X011887Y008497D03*
X008887Y011497D03*
X006327Y011497D03*
X006327Y003717D03*
X008887Y003717D03*
D12*
X009607Y002107D03*
X005607Y002107D03*
X005107Y004607D03*
X002107Y005607D03*
X001107Y004607D03*
X002107Y009607D03*
X005607Y012607D03*
X009607Y012607D03*
X013107Y009607D03*
X014607Y009607D03*
X014607Y005607D03*
X013107Y005607D03*
X017857Y004607D03*
X017857Y003607D03*
D13*
X015607Y003107D03*
X013107Y003107D03*
X010607Y003107D03*
M02*
