G75*
G70*
%OFA0B0*%
%FSLAX24Y24*%
%IPPOS*%
%LPD*%
%AMOC8*
5,1,8,0,0,1.08239X$1,22.5*
%
%ADD10C,0.0740*%
%ADD11OC8,0.0480*%
%ADD12OC8,0.1500*%
%ADD13C,0.0240*%
D10*
X006327Y003717D03*
X008887Y003717D03*
X008887Y005497D03*
X009327Y006717D03*
X011887Y006717D03*
X011887Y008497D03*
X009327Y008497D03*
X008887Y009717D03*
X006327Y009717D03*
X005887Y008497D03*
X003327Y008497D03*
X003327Y006717D03*
X005887Y006717D03*
X006327Y005497D03*
X006327Y011497D03*
X008887Y011497D03*
X019327Y011497D03*
X021887Y011497D03*
X021887Y009717D03*
X019327Y009717D03*
X019327Y005497D03*
X021887Y005497D03*
X021887Y003717D03*
X019327Y003717D03*
D11*
X017857Y003607D03*
X017857Y004607D03*
X014607Y005607D03*
X013107Y005607D03*
X009607Y002107D03*
X005607Y002107D03*
X005107Y004607D03*
X002107Y005607D03*
X001107Y004607D03*
X002107Y009607D03*
X005607Y012607D03*
X009607Y012607D03*
X013107Y009607D03*
X014607Y009607D03*
D12*
X015607Y003107D03*
X013107Y003107D03*
X010607Y003107D03*
D13*
X013607Y001107D02*
X004607Y001107D01*
X001107Y004607D01*
X002107Y004607D02*
X002107Y005607D01*
X002107Y008107D01*
X002497Y008497D01*
X003327Y008497D01*
X004607Y009107D02*
X005217Y009717D01*
X006327Y009717D01*
X007497Y009717D01*
X008107Y009107D01*
X008107Y007107D01*
X008497Y006717D01*
X008107Y006327D01*
X008107Y004607D01*
X011607Y004607D01*
X013107Y003107D01*
X014607Y004607D01*
X017857Y004607D01*
X018437Y004607D01*
X019327Y003717D01*
X020607Y004997D01*
X020607Y008437D01*
X019327Y009717D01*
X019327Y011497D02*
X017437Y009607D01*
X014607Y009607D01*
X013107Y009607D02*
X011607Y009607D01*
X011607Y010607D01*
X009607Y012607D01*
X006327Y011497D02*
X005607Y012217D01*
X005607Y012607D01*
X006327Y011497D02*
X003997Y011497D01*
X002107Y009607D01*
X004607Y009107D02*
X004607Y007107D01*
X004217Y006717D01*
X003327Y006717D01*
X006327Y005497D02*
X006327Y004827D01*
X006107Y004607D01*
X005107Y004607D01*
X005107Y003607D01*
X005607Y003107D01*
X005607Y002107D01*
X008607Y002107D01*
X009607Y003107D01*
X010607Y003107D01*
X009607Y002107D02*
X009107Y001607D01*
X005107Y001607D01*
X002107Y004607D01*
X006327Y003717D02*
X007217Y003717D01*
X008107Y004607D01*
X008497Y006717D02*
X009327Y006717D01*
X009327Y008497D02*
X010497Y008497D01*
X011607Y009607D01*
X013107Y005607D02*
X014607Y005607D01*
X019217Y005607D01*
X019327Y005497D01*
X017857Y004607D02*
X015607Y004607D01*
X017357Y003107D02*
X017857Y003607D01*
X017357Y003107D02*
X015607Y003107D01*
X013607Y001107D01*
M02*
