%
M48
M72
T01C0.0320
T02C0.0400
T03C0.0520
T04C0.1300
%
T01
X5607Y2107
X9607Y2107
X5107Y4607
X2107Y5607
X1107Y4607
X2107Y9607
X5607Y12607
X9607Y12607
X13107Y9607
X14607Y9607
X14607Y5607
X13107Y5607
X17857Y4607
X17857Y3607
T02
X19327Y3717
X21887Y3717
X21887Y5497
X19327Y5497
X19327Y9717
X21887Y9717
X21887Y11497
X19327Y11497
X11887Y8497
X9327Y8497
X8887Y9717
X6327Y9717
X5887Y8497
X3327Y8497
X3327Y6717
X5887Y6717
X6327Y5497
X8887Y5497
X9327Y6717
X11887Y6717
X8887Y3717
X6327Y3717
X6327Y11497
X8887Y11497
T03
X10607Y3107
X13107Y3107
X15607Y3107
T04
X1607Y1607
X17857Y1607
X17857Y12107
X1607Y12107
M30
