%
M48
M72
T01C0.0320
T02C0.0520
T03C0.0790
T04C0.1300
%
T01
X4685Y5685
X5685Y5685
X7185Y7185
X7185Y8685
X7185Y10185
X7185Y11685
X3185Y11685
X3185Y10185
X3185Y8685
X3185Y7185
X14685Y6185
X16185Y7185
X16185Y8685
X16185Y10185
X14685Y10185
X16185Y11685
X20185Y11685
X21685Y11185
X21685Y10185
X20185Y10185
X21685Y9185
X20185Y8685
X20185Y7185
X17185Y5185
X16185Y5185
X14685Y5185
X25185Y7685
X26685Y7685
X28185Y7685
X29685Y7185
X27185Y6185
X27185Y5185
X29685Y5185
X30685Y5185
X33685Y7185
X33685Y8685
X35185Y9185
X35185Y10185
X33685Y10185
X35185Y11185
X33685Y11685
X32185Y13185
X30685Y13185
X29185Y13685
X28185Y13685
X27185Y13685
X26185Y13685
X24685Y13185
X23185Y13685
X21685Y13185
X20185Y14185
X20185Y15685
X21685Y17185
X23185Y16685
X24685Y17185
X26185Y16685
X27185Y16685
X28185Y16685
X29185Y16685
X30685Y17185
X27185Y18185
X26185Y18185
X23185Y15685
X23185Y14685
X25185Y11685
X26685Y11685
X28185Y11685
X29685Y11685
X29685Y10185
X29685Y8685
X38685Y7685
X40185Y7685
X41685Y7685
X40685Y6185
X40685Y5185
X40185Y11685
X41685Y11685
X38685Y11685
X32185Y14185
X16185Y14185
X14685Y14185
X16185Y15685
X7185Y14685
X7185Y13685
X5185Y13685
X4185Y13685
X3185Y13685
T02
X13685Y18185
X17185Y18185
X20185Y18185
X23185Y18185
X32685Y18185
X35185Y18185
X37685Y18185
X40185Y18185
T03
X38265Y5685
X36685Y5685
X35105Y5685
X24765Y5685
X23185Y5685
X21605Y5685
X12265Y5685
X10685Y5685
X9105Y5685
X9105Y10185
X10685Y10185
X12265Y10185
X12265Y14685
X10685Y14685
X9105Y14685
T04
X3185Y4185
X3185Y18185
X42185Y18185
X42185Y4185
M30
