G75*
G70*
%OFA0B0*%
%FSLAX24Y24*%
%IPPOS*%
%LPD*%
%AMOC8*
5,1,8,0,0,1.08239X$1,22.5*
%
%ADD10C,0.0000*%
%ADD11OC8,0.0630*%
%ADD12OC8,0.0480*%
%ADD13C,0.1185*%
%ADD14C,0.0480*%
%ADD15OC8,0.1500*%
%ADD16C,0.0160*%
%ADD17C,0.0240*%
D10*
X003185Y001185D02*
X042185Y001185D01*
X042261Y001187D01*
X042337Y001193D01*
X042412Y001202D01*
X042487Y001216D01*
X042561Y001233D01*
X042634Y001254D01*
X042706Y001278D01*
X042777Y001307D01*
X042846Y001338D01*
X042913Y001373D01*
X042978Y001412D01*
X043042Y001454D01*
X043103Y001499D01*
X043162Y001547D01*
X043218Y001598D01*
X043272Y001652D01*
X043323Y001708D01*
X043371Y001767D01*
X043416Y001828D01*
X043458Y001892D01*
X043497Y001957D01*
X043532Y002024D01*
X043563Y002093D01*
X043592Y002164D01*
X043616Y002236D01*
X043637Y002309D01*
X043654Y002383D01*
X043668Y002458D01*
X043677Y002533D01*
X043683Y002609D01*
X043685Y002685D01*
X043685Y018185D01*
X041535Y018185D02*
X041537Y018235D01*
X041543Y018285D01*
X041553Y018335D01*
X041566Y018383D01*
X041583Y018431D01*
X041604Y018477D01*
X041628Y018521D01*
X041656Y018563D01*
X041687Y018603D01*
X041721Y018640D01*
X041758Y018675D01*
X041797Y018706D01*
X041838Y018735D01*
X041882Y018760D01*
X041928Y018782D01*
X041975Y018800D01*
X042023Y018814D01*
X042072Y018825D01*
X042122Y018832D01*
X042172Y018835D01*
X042223Y018834D01*
X042273Y018829D01*
X042323Y018820D01*
X042371Y018808D01*
X042419Y018791D01*
X042465Y018771D01*
X042510Y018748D01*
X042553Y018721D01*
X042593Y018691D01*
X042631Y018658D01*
X042666Y018622D01*
X042699Y018583D01*
X042728Y018542D01*
X042754Y018499D01*
X042777Y018454D01*
X042796Y018407D01*
X042811Y018359D01*
X042823Y018310D01*
X042831Y018260D01*
X042835Y018210D01*
X042835Y018160D01*
X042831Y018110D01*
X042823Y018060D01*
X042811Y018011D01*
X042796Y017963D01*
X042777Y017916D01*
X042754Y017871D01*
X042728Y017828D01*
X042699Y017787D01*
X042666Y017748D01*
X042631Y017712D01*
X042593Y017679D01*
X042553Y017649D01*
X042510Y017622D01*
X042465Y017599D01*
X042419Y017579D01*
X042371Y017562D01*
X042323Y017550D01*
X042273Y017541D01*
X042223Y017536D01*
X042172Y017535D01*
X042122Y017538D01*
X042072Y017545D01*
X042023Y017556D01*
X041975Y017570D01*
X041928Y017588D01*
X041882Y017610D01*
X041838Y017635D01*
X041797Y017664D01*
X041758Y017695D01*
X041721Y017730D01*
X041687Y017767D01*
X041656Y017807D01*
X041628Y017849D01*
X041604Y017893D01*
X041583Y017939D01*
X041566Y017987D01*
X041553Y018035D01*
X041543Y018085D01*
X041537Y018135D01*
X041535Y018185D01*
X042185Y019685D02*
X042261Y019683D01*
X042337Y019677D01*
X042412Y019668D01*
X042487Y019654D01*
X042561Y019637D01*
X042634Y019616D01*
X042706Y019592D01*
X042777Y019563D01*
X042846Y019532D01*
X042913Y019497D01*
X042978Y019458D01*
X043042Y019416D01*
X043103Y019371D01*
X043162Y019323D01*
X043218Y019272D01*
X043272Y019218D01*
X043323Y019162D01*
X043371Y019103D01*
X043416Y019042D01*
X043458Y018978D01*
X043497Y018913D01*
X043532Y018846D01*
X043563Y018777D01*
X043592Y018706D01*
X043616Y018634D01*
X043637Y018561D01*
X043654Y018487D01*
X043668Y018412D01*
X043677Y018337D01*
X043683Y018261D01*
X043685Y018185D01*
X042185Y019685D02*
X003185Y019685D01*
X002535Y018185D02*
X002537Y018235D01*
X002543Y018285D01*
X002553Y018335D01*
X002566Y018383D01*
X002583Y018431D01*
X002604Y018477D01*
X002628Y018521D01*
X002656Y018563D01*
X002687Y018603D01*
X002721Y018640D01*
X002758Y018675D01*
X002797Y018706D01*
X002838Y018735D01*
X002882Y018760D01*
X002928Y018782D01*
X002975Y018800D01*
X003023Y018814D01*
X003072Y018825D01*
X003122Y018832D01*
X003172Y018835D01*
X003223Y018834D01*
X003273Y018829D01*
X003323Y018820D01*
X003371Y018808D01*
X003419Y018791D01*
X003465Y018771D01*
X003510Y018748D01*
X003553Y018721D01*
X003593Y018691D01*
X003631Y018658D01*
X003666Y018622D01*
X003699Y018583D01*
X003728Y018542D01*
X003754Y018499D01*
X003777Y018454D01*
X003796Y018407D01*
X003811Y018359D01*
X003823Y018310D01*
X003831Y018260D01*
X003835Y018210D01*
X003835Y018160D01*
X003831Y018110D01*
X003823Y018060D01*
X003811Y018011D01*
X003796Y017963D01*
X003777Y017916D01*
X003754Y017871D01*
X003728Y017828D01*
X003699Y017787D01*
X003666Y017748D01*
X003631Y017712D01*
X003593Y017679D01*
X003553Y017649D01*
X003510Y017622D01*
X003465Y017599D01*
X003419Y017579D01*
X003371Y017562D01*
X003323Y017550D01*
X003273Y017541D01*
X003223Y017536D01*
X003172Y017535D01*
X003122Y017538D01*
X003072Y017545D01*
X003023Y017556D01*
X002975Y017570D01*
X002928Y017588D01*
X002882Y017610D01*
X002838Y017635D01*
X002797Y017664D01*
X002758Y017695D01*
X002721Y017730D01*
X002687Y017767D01*
X002656Y017807D01*
X002628Y017849D01*
X002604Y017893D01*
X002583Y017939D01*
X002566Y017987D01*
X002553Y018035D01*
X002543Y018085D01*
X002537Y018135D01*
X002535Y018185D01*
X001685Y018185D02*
X001687Y018261D01*
X001693Y018337D01*
X001702Y018412D01*
X001716Y018487D01*
X001733Y018561D01*
X001754Y018634D01*
X001778Y018706D01*
X001807Y018777D01*
X001838Y018846D01*
X001873Y018913D01*
X001912Y018978D01*
X001954Y019042D01*
X001999Y019103D01*
X002047Y019162D01*
X002098Y019218D01*
X002152Y019272D01*
X002208Y019323D01*
X002267Y019371D01*
X002328Y019416D01*
X002392Y019458D01*
X002457Y019497D01*
X002524Y019532D01*
X002593Y019563D01*
X002664Y019592D01*
X002736Y019616D01*
X002809Y019637D01*
X002883Y019654D01*
X002958Y019668D01*
X003033Y019677D01*
X003109Y019683D01*
X003185Y019685D01*
X001685Y018185D02*
X001685Y002685D01*
X001687Y002609D01*
X001693Y002533D01*
X001702Y002458D01*
X001716Y002383D01*
X001733Y002309D01*
X001754Y002236D01*
X001778Y002164D01*
X001807Y002093D01*
X001838Y002024D01*
X001873Y001957D01*
X001912Y001892D01*
X001954Y001828D01*
X001999Y001767D01*
X002047Y001708D01*
X002098Y001652D01*
X002152Y001598D01*
X002208Y001547D01*
X002267Y001499D01*
X002328Y001454D01*
X002392Y001412D01*
X002457Y001373D01*
X002524Y001338D01*
X002593Y001307D01*
X002664Y001278D01*
X002736Y001254D01*
X002809Y001233D01*
X002883Y001216D01*
X002958Y001202D01*
X003033Y001193D01*
X003109Y001187D01*
X003185Y001185D01*
X002535Y004185D02*
X002537Y004235D01*
X002543Y004285D01*
X002553Y004335D01*
X002566Y004383D01*
X002583Y004431D01*
X002604Y004477D01*
X002628Y004521D01*
X002656Y004563D01*
X002687Y004603D01*
X002721Y004640D01*
X002758Y004675D01*
X002797Y004706D01*
X002838Y004735D01*
X002882Y004760D01*
X002928Y004782D01*
X002975Y004800D01*
X003023Y004814D01*
X003072Y004825D01*
X003122Y004832D01*
X003172Y004835D01*
X003223Y004834D01*
X003273Y004829D01*
X003323Y004820D01*
X003371Y004808D01*
X003419Y004791D01*
X003465Y004771D01*
X003510Y004748D01*
X003553Y004721D01*
X003593Y004691D01*
X003631Y004658D01*
X003666Y004622D01*
X003699Y004583D01*
X003728Y004542D01*
X003754Y004499D01*
X003777Y004454D01*
X003796Y004407D01*
X003811Y004359D01*
X003823Y004310D01*
X003831Y004260D01*
X003835Y004210D01*
X003835Y004160D01*
X003831Y004110D01*
X003823Y004060D01*
X003811Y004011D01*
X003796Y003963D01*
X003777Y003916D01*
X003754Y003871D01*
X003728Y003828D01*
X003699Y003787D01*
X003666Y003748D01*
X003631Y003712D01*
X003593Y003679D01*
X003553Y003649D01*
X003510Y003622D01*
X003465Y003599D01*
X003419Y003579D01*
X003371Y003562D01*
X003323Y003550D01*
X003273Y003541D01*
X003223Y003536D01*
X003172Y003535D01*
X003122Y003538D01*
X003072Y003545D01*
X003023Y003556D01*
X002975Y003570D01*
X002928Y003588D01*
X002882Y003610D01*
X002838Y003635D01*
X002797Y003664D01*
X002758Y003695D01*
X002721Y003730D01*
X002687Y003767D01*
X002656Y003807D01*
X002628Y003849D01*
X002604Y003893D01*
X002583Y003939D01*
X002566Y003987D01*
X002553Y004035D01*
X002543Y004085D01*
X002537Y004135D01*
X002535Y004185D01*
X041535Y004185D02*
X041537Y004235D01*
X041543Y004285D01*
X041553Y004335D01*
X041566Y004383D01*
X041583Y004431D01*
X041604Y004477D01*
X041628Y004521D01*
X041656Y004563D01*
X041687Y004603D01*
X041721Y004640D01*
X041758Y004675D01*
X041797Y004706D01*
X041838Y004735D01*
X041882Y004760D01*
X041928Y004782D01*
X041975Y004800D01*
X042023Y004814D01*
X042072Y004825D01*
X042122Y004832D01*
X042172Y004835D01*
X042223Y004834D01*
X042273Y004829D01*
X042323Y004820D01*
X042371Y004808D01*
X042419Y004791D01*
X042465Y004771D01*
X042510Y004748D01*
X042553Y004721D01*
X042593Y004691D01*
X042631Y004658D01*
X042666Y004622D01*
X042699Y004583D01*
X042728Y004542D01*
X042754Y004499D01*
X042777Y004454D01*
X042796Y004407D01*
X042811Y004359D01*
X042823Y004310D01*
X042831Y004260D01*
X042835Y004210D01*
X042835Y004160D01*
X042831Y004110D01*
X042823Y004060D01*
X042811Y004011D01*
X042796Y003963D01*
X042777Y003916D01*
X042754Y003871D01*
X042728Y003828D01*
X042699Y003787D01*
X042666Y003748D01*
X042631Y003712D01*
X042593Y003679D01*
X042553Y003649D01*
X042510Y003622D01*
X042465Y003599D01*
X042419Y003579D01*
X042371Y003562D01*
X042323Y003550D01*
X042273Y003541D01*
X042223Y003536D01*
X042172Y003535D01*
X042122Y003538D01*
X042072Y003545D01*
X042023Y003556D01*
X041975Y003570D01*
X041928Y003588D01*
X041882Y003610D01*
X041838Y003635D01*
X041797Y003664D01*
X041758Y003695D01*
X041721Y003730D01*
X041687Y003767D01*
X041656Y003807D01*
X041628Y003849D01*
X041604Y003893D01*
X041583Y003939D01*
X041566Y003987D01*
X041553Y004035D01*
X041543Y004085D01*
X041537Y004135D01*
X041535Y004185D01*
D11*
X029185Y013685D03*
X028185Y013685D03*
X027185Y013685D03*
X026185Y013685D03*
X026185Y016685D03*
X027185Y016685D03*
X028185Y016685D03*
X029185Y016685D03*
D12*
X030685Y017185D03*
X027185Y018185D03*
X026185Y018185D03*
X024685Y017185D03*
X023185Y016685D03*
X021685Y017185D03*
X023185Y015685D03*
X023185Y014685D03*
X023185Y013685D03*
X024685Y013185D03*
X025185Y011685D03*
X026685Y011685D03*
X028185Y011685D03*
X029685Y011685D03*
X030685Y013185D03*
X032185Y013185D03*
X032185Y014185D03*
X033685Y011685D03*
X038685Y011685D03*
X040185Y011685D03*
X041685Y011685D03*
X033685Y008685D03*
X029685Y008685D03*
X028185Y007685D03*
X026685Y007685D03*
X025185Y007685D03*
X027185Y006185D03*
X027185Y005185D03*
X029685Y005185D03*
X030685Y005185D03*
X038685Y007685D03*
X040185Y007685D03*
X041685Y007685D03*
X040685Y006185D03*
X040685Y005185D03*
X021685Y013185D03*
X020185Y014185D03*
X020185Y015685D03*
X016185Y015685D03*
X016185Y014185D03*
X014685Y014185D03*
X016185Y011685D03*
X014685Y010185D03*
X016185Y008685D03*
X020185Y008685D03*
X014685Y006185D03*
X014685Y005185D03*
X016185Y005185D03*
X017185Y005185D03*
X007185Y008685D03*
X003185Y008685D03*
X003185Y011685D03*
X007185Y011685D03*
X007185Y013685D03*
X007185Y014685D03*
X020185Y011685D03*
X005685Y005685D03*
X004685Y005685D03*
D13*
X009105Y005092D02*
X009105Y006277D01*
X010685Y006277D02*
X010685Y005092D01*
X012265Y005092D02*
X012265Y006277D01*
X012265Y009592D02*
X012265Y010777D01*
X010685Y010777D02*
X010685Y009592D01*
X009105Y009592D02*
X009105Y010777D01*
X009105Y014092D02*
X009105Y015277D01*
X010685Y015277D02*
X010685Y014092D01*
X012265Y014092D02*
X012265Y015277D01*
X021605Y006277D02*
X021605Y005092D01*
X023185Y005092D02*
X023185Y006277D01*
X024765Y006277D02*
X024765Y005092D01*
X035105Y005092D02*
X035105Y006277D01*
X036685Y006277D02*
X036685Y005092D01*
X038265Y005092D02*
X038265Y006277D01*
D14*
X033925Y007185D02*
X033445Y007185D01*
X029925Y007185D02*
X029445Y007185D01*
X034945Y009185D02*
X035425Y009185D01*
X035425Y010185D02*
X034945Y010185D01*
X033925Y010185D02*
X033445Y010185D01*
X034945Y011185D02*
X035425Y011185D01*
X029925Y010185D02*
X029445Y010185D01*
X021925Y010185D02*
X021445Y010185D01*
X020425Y010185D02*
X019945Y010185D01*
X021445Y011185D02*
X021925Y011185D01*
X021925Y009185D02*
X021445Y009185D01*
X020425Y007185D02*
X019945Y007185D01*
X016425Y007185D02*
X015945Y007185D01*
X015945Y010185D02*
X016425Y010185D01*
X007425Y010185D02*
X006945Y010185D01*
X003425Y010185D02*
X002945Y010185D01*
X002945Y007185D02*
X003425Y007185D01*
X006945Y007185D02*
X007425Y007185D01*
X005185Y013445D02*
X005185Y013925D01*
X004185Y013925D02*
X004185Y013445D01*
X003185Y013445D02*
X003185Y013925D01*
D15*
X013685Y018185D03*
X017185Y018185D03*
X020185Y018185D03*
X023185Y018185D03*
X032685Y018185D03*
X035185Y018185D03*
X037685Y018185D03*
X040185Y018185D03*
D16*
X003026Y001475D02*
X002718Y001558D01*
X002442Y001717D01*
X002217Y001942D01*
X002058Y002218D01*
X001975Y002526D01*
X001965Y002685D01*
X001965Y002741D01*
X001965Y018129D01*
X001965Y018185D01*
X001975Y018344D01*
X002058Y018652D01*
X002217Y018928D01*
X002442Y019153D01*
X002718Y019312D01*
X003026Y019394D01*
X003185Y019405D01*
X003241Y019405D01*
X042129Y019405D01*
X042185Y019405D01*
X042344Y019394D01*
X042652Y019312D01*
X042928Y019153D01*
X043153Y018928D01*
X043312Y018652D01*
X043394Y018344D01*
X043405Y018185D01*
X043405Y018129D01*
X043405Y002741D01*
X043405Y002685D01*
X043394Y002526D01*
X043312Y002218D01*
X043153Y001942D01*
X042928Y001717D01*
X042652Y001558D01*
X042344Y001475D01*
X042185Y001465D01*
X042129Y001465D01*
X003241Y001465D01*
X003185Y001465D01*
X003026Y001475D01*
X002646Y001599D02*
X042724Y001599D01*
X042969Y001758D02*
X002401Y001758D01*
X002243Y001917D02*
X043127Y001917D01*
X043230Y002075D02*
X002140Y002075D01*
X002054Y002234D02*
X043316Y002234D01*
X043312Y002218D02*
X043312Y002218D01*
X043359Y002392D02*
X002011Y002392D01*
X001974Y002551D02*
X043396Y002551D01*
X043405Y002709D02*
X001965Y002709D01*
X001965Y002868D02*
X043405Y002868D01*
X043405Y003026D02*
X001965Y003026D01*
X001965Y003185D02*
X002979Y003185D01*
X003007Y003175D02*
X003129Y003175D01*
X003129Y003175D01*
X003157Y003175D01*
X003185Y003175D01*
X003241Y003175D01*
X003363Y003175D01*
X003698Y003297D01*
X003970Y003526D01*
X004149Y003834D01*
X004210Y004185D01*
X004149Y004536D01*
X003970Y004844D01*
X003698Y005073D01*
X003698Y005073D01*
X003363Y005195D01*
X003241Y005195D01*
X003185Y005195D01*
X003184Y005195D01*
X003129Y005195D01*
X003129Y005195D01*
X003007Y005195D01*
X002672Y005073D01*
X002399Y004844D01*
X002221Y004536D01*
X002221Y004536D01*
X002159Y004185D01*
X002221Y003834D01*
X002399Y003526D01*
X002399Y003526D01*
X002672Y003297D01*
X003007Y003175D01*
X003007Y003175D01*
X003241Y003175D02*
X003241Y003175D01*
X003363Y003175D02*
X003363Y003175D01*
X003390Y003185D02*
X041979Y003185D01*
X042007Y003175D02*
X042129Y003175D01*
X042129Y003175D01*
X042185Y003175D01*
X042202Y003175D01*
X042241Y003175D01*
X042363Y003175D01*
X042698Y003297D01*
X042970Y003526D01*
X043149Y003834D01*
X043210Y004185D01*
X043149Y004536D01*
X042970Y004844D01*
X042698Y005073D01*
X042698Y005073D01*
X042363Y005195D01*
X042241Y005195D01*
X042185Y005195D01*
X042185Y005195D01*
X042129Y005195D01*
X042007Y005195D01*
X041672Y005073D01*
X041399Y004844D01*
X041221Y004536D01*
X041159Y004185D01*
X041221Y003834D01*
X041399Y003526D01*
X041399Y003526D01*
X041672Y003297D01*
X042007Y003175D01*
X042007Y003175D01*
X042241Y003175D02*
X042241Y003175D01*
X042363Y003175D02*
X042363Y003175D01*
X042390Y003185D02*
X043405Y003185D01*
X043405Y003343D02*
X042753Y003343D01*
X042698Y003297D02*
X042698Y003297D01*
X042942Y003502D02*
X043405Y003502D01*
X043405Y003661D02*
X043048Y003661D01*
X042970Y003526D02*
X042970Y003526D01*
X042970Y003526D01*
X043140Y003819D02*
X043405Y003819D01*
X043405Y003978D02*
X043174Y003978D01*
X043149Y003834D02*
X043149Y003834D01*
X043202Y004136D02*
X043405Y004136D01*
X043405Y004295D02*
X043191Y004295D01*
X043210Y004185D02*
X043210Y004185D01*
X043163Y004453D02*
X043405Y004453D01*
X043405Y004612D02*
X043105Y004612D01*
X043149Y004536D02*
X043149Y004536D01*
X043013Y004770D02*
X043405Y004770D01*
X043405Y004929D02*
X042869Y004929D01*
X042970Y004844D02*
X042970Y004844D01*
X042658Y005087D02*
X043405Y005087D01*
X043405Y005246D02*
X041085Y005246D01*
X041085Y005185D02*
X041085Y005351D01*
X040851Y005585D01*
X040685Y005585D01*
X040685Y005185D01*
X040685Y005185D01*
X041085Y005185D01*
X040685Y005185D01*
X040685Y005185D01*
X040685Y005585D01*
X040519Y005585D01*
X040285Y005351D01*
X040285Y005185D01*
X040684Y005185D01*
X040684Y005185D01*
X040285Y005185D01*
X040285Y005019D01*
X040519Y004785D01*
X040685Y004785D01*
X040851Y004785D01*
X041085Y005019D01*
X041085Y005185D01*
X041085Y005087D02*
X041712Y005087D01*
X041672Y005073D02*
X041672Y005073D01*
X041500Y004929D02*
X040994Y004929D01*
X040685Y004929D02*
X040685Y004929D01*
X040685Y004785D02*
X040685Y005184D01*
X040685Y005184D01*
X040685Y004785D01*
X040375Y004929D02*
X039097Y004929D01*
X039097Y004927D02*
X039097Y006443D01*
X038971Y006749D01*
X038736Y006983D01*
X038430Y007110D01*
X038099Y007110D01*
X037793Y006983D01*
X037559Y006749D01*
X037475Y006546D01*
X037391Y006749D01*
X037156Y006983D01*
X036850Y007110D01*
X036769Y007110D01*
X036389Y007490D01*
X036256Y007545D01*
X036113Y007545D01*
X034244Y007545D01*
X034197Y007592D01*
X034020Y007665D01*
X033349Y007665D01*
X033173Y007592D01*
X033038Y007457D01*
X032965Y007280D01*
X032965Y007089D01*
X033038Y006913D01*
X033173Y006778D01*
X033349Y006705D01*
X034020Y006705D01*
X034197Y006778D01*
X034244Y006825D01*
X034475Y006825D01*
X034399Y006749D01*
X034272Y006443D01*
X034272Y004927D01*
X034399Y004621D01*
X034633Y004387D01*
X034939Y004260D01*
X035270Y004260D01*
X035576Y004387D01*
X035811Y004621D01*
X035895Y004824D01*
X035979Y004621D01*
X036213Y004387D01*
X036519Y004260D01*
X036850Y004260D01*
X037156Y004387D01*
X037391Y004621D01*
X037475Y004824D01*
X037559Y004621D01*
X037793Y004387D01*
X038099Y004260D01*
X038430Y004260D01*
X038736Y004387D01*
X038971Y004621D01*
X039097Y004927D01*
X039097Y005087D02*
X040285Y005087D01*
X040285Y005246D02*
X039097Y005246D01*
X039097Y005404D02*
X040339Y005404D01*
X040497Y005563D02*
X039097Y005563D01*
X039097Y005722D02*
X040469Y005722D01*
X040486Y005705D02*
X040884Y005705D01*
X041165Y005986D01*
X041165Y006156D01*
X041990Y006981D01*
X042045Y007113D01*
X042045Y007256D01*
X042045Y007366D01*
X042165Y007486D01*
X042165Y007884D01*
X041884Y008165D01*
X041486Y008165D01*
X041205Y007884D01*
X041205Y007486D01*
X041325Y007366D01*
X041325Y007334D01*
X040656Y006665D01*
X040486Y006665D01*
X040205Y006384D01*
X040205Y005986D01*
X040486Y005705D01*
X040685Y005563D02*
X040685Y005563D01*
X040685Y005404D02*
X040685Y005404D01*
X040685Y005246D02*
X040685Y005246D01*
X040685Y005087D02*
X040685Y005087D01*
X041031Y005404D02*
X043405Y005404D01*
X043405Y005563D02*
X040872Y005563D01*
X040900Y005722D02*
X043405Y005722D01*
X043405Y005880D02*
X041059Y005880D01*
X041165Y006039D02*
X043405Y006039D01*
X043405Y006197D02*
X041206Y006197D01*
X041365Y006356D02*
X043405Y006356D01*
X043405Y006514D02*
X041523Y006514D01*
X041682Y006673D02*
X043405Y006673D01*
X043405Y006831D02*
X041840Y006831D01*
X041994Y006990D02*
X043405Y006990D01*
X043405Y007148D02*
X042045Y007148D01*
X042045Y007307D02*
X043405Y007307D01*
X043405Y007466D02*
X042144Y007466D01*
X042165Y007624D02*
X043405Y007624D01*
X043405Y007783D02*
X042165Y007783D01*
X042107Y007941D02*
X043405Y007941D01*
X043405Y008100D02*
X041949Y008100D01*
X041421Y008100D02*
X040449Y008100D01*
X040384Y008165D02*
X039986Y008165D01*
X039866Y008045D01*
X039045Y008045D01*
X039045Y009613D01*
X039045Y009756D01*
X038990Y009889D01*
X038490Y010389D01*
X038389Y010490D01*
X038256Y010545D01*
X035744Y010545D01*
X035697Y010592D01*
X035520Y010665D01*
X034849Y010665D01*
X034673Y010592D01*
X034538Y010457D01*
X034465Y010280D01*
X034465Y010089D01*
X034538Y009913D01*
X034673Y009778D01*
X034849Y009705D01*
X035520Y009705D01*
X035697Y009778D01*
X035744Y009825D01*
X038036Y009825D01*
X038325Y009536D01*
X038325Y008004D01*
X038205Y007884D01*
X038205Y007486D01*
X038486Y007205D01*
X038884Y007205D01*
X039004Y007325D01*
X039866Y007325D01*
X039986Y007205D01*
X040384Y007205D01*
X040665Y007486D01*
X040665Y007884D01*
X040384Y008165D01*
X040607Y007941D02*
X041262Y007941D01*
X041205Y007783D02*
X040665Y007783D01*
X040665Y007624D02*
X041205Y007624D01*
X041225Y007466D02*
X040644Y007466D01*
X040486Y007307D02*
X041298Y007307D01*
X041139Y007148D02*
X036730Y007148D01*
X036572Y007307D02*
X038384Y007307D01*
X038225Y007466D02*
X036413Y007466D01*
X037140Y006990D02*
X037810Y006990D01*
X037641Y006831D02*
X037308Y006831D01*
X037422Y006673D02*
X037528Y006673D01*
X038720Y006990D02*
X040981Y006990D01*
X040822Y006831D02*
X038888Y006831D01*
X039002Y006673D02*
X040664Y006673D01*
X040336Y006514D02*
X039068Y006514D01*
X039097Y006356D02*
X040205Y006356D01*
X040205Y006197D02*
X039097Y006197D01*
X039097Y006039D02*
X040205Y006039D01*
X040311Y005880D02*
X039097Y005880D01*
X039033Y004770D02*
X041357Y004770D01*
X041399Y004844D02*
X041399Y004844D01*
X041265Y004612D02*
X038962Y004612D01*
X038803Y004453D02*
X041207Y004453D01*
X041179Y004295D02*
X038515Y004295D01*
X038015Y004295D02*
X036935Y004295D01*
X037223Y004453D02*
X037727Y004453D01*
X037568Y004612D02*
X037382Y004612D01*
X037453Y004770D02*
X037497Y004770D01*
X036435Y004295D02*
X035355Y004295D01*
X035643Y004453D02*
X036147Y004453D01*
X035988Y004612D02*
X035802Y004612D01*
X035873Y004770D02*
X035917Y004770D01*
X034855Y004295D02*
X025015Y004295D01*
X024930Y004260D02*
X025236Y004387D01*
X025471Y004621D01*
X025597Y004927D01*
X025597Y006443D01*
X025471Y006749D01*
X025236Y006983D01*
X024930Y007110D01*
X024599Y007110D01*
X024293Y006983D01*
X024059Y006749D01*
X023975Y006546D01*
X023891Y006749D01*
X023656Y006983D01*
X023350Y007110D01*
X023269Y007110D01*
X022889Y007490D01*
X022756Y007545D01*
X022613Y007545D01*
X020744Y007545D01*
X020697Y007592D01*
X020520Y007665D01*
X019849Y007665D01*
X019673Y007592D01*
X019538Y007457D01*
X019465Y007280D01*
X019465Y007089D01*
X019538Y006913D01*
X019673Y006778D01*
X019849Y006705D01*
X020520Y006705D01*
X020697Y006778D01*
X020744Y006825D01*
X020975Y006825D01*
X020899Y006749D01*
X020772Y006443D01*
X020772Y004927D01*
X020899Y004621D01*
X021133Y004387D01*
X021439Y004260D01*
X021770Y004260D01*
X022076Y004387D01*
X022311Y004621D01*
X022395Y004824D01*
X022479Y004621D01*
X022713Y004387D01*
X023019Y004260D01*
X023350Y004260D01*
X023656Y004387D01*
X023891Y004621D01*
X023975Y004824D01*
X024059Y004621D01*
X024293Y004387D01*
X024599Y004260D01*
X024930Y004260D01*
X024515Y004295D02*
X023435Y004295D01*
X023723Y004453D02*
X024227Y004453D01*
X024068Y004612D02*
X023882Y004612D01*
X023953Y004770D02*
X023997Y004770D01*
X022935Y004295D02*
X021855Y004295D01*
X022143Y004453D02*
X022647Y004453D01*
X022488Y004612D02*
X022302Y004612D01*
X022373Y004770D02*
X022417Y004770D01*
X021355Y004295D02*
X012515Y004295D01*
X012430Y004260D02*
X012736Y004387D01*
X012971Y004621D01*
X013097Y004927D01*
X013097Y006443D01*
X012971Y006749D01*
X012736Y006983D01*
X012430Y007110D01*
X012099Y007110D01*
X011793Y006983D01*
X011559Y006749D01*
X011475Y006546D01*
X011391Y006749D01*
X011156Y006983D01*
X010850Y007110D01*
X010769Y007110D01*
X010389Y007490D01*
X010256Y007545D01*
X010113Y007545D01*
X007744Y007545D01*
X007697Y007592D01*
X007520Y007665D01*
X006849Y007665D01*
X006673Y007592D01*
X006538Y007457D01*
X006465Y007280D01*
X006465Y007089D01*
X006538Y006913D01*
X006673Y006778D01*
X006849Y006705D01*
X007520Y006705D01*
X007697Y006778D01*
X007744Y006825D01*
X008475Y006825D01*
X008399Y006749D01*
X008272Y006443D01*
X008272Y004927D01*
X008399Y004621D01*
X008633Y004387D01*
X008939Y004260D01*
X009270Y004260D01*
X009576Y004387D01*
X009811Y004621D01*
X009895Y004824D01*
X009979Y004621D01*
X010213Y004387D01*
X010519Y004260D01*
X010850Y004260D01*
X011156Y004387D01*
X011391Y004621D01*
X011475Y004824D01*
X011559Y004621D01*
X011793Y004387D01*
X012099Y004260D01*
X012430Y004260D01*
X012015Y004295D02*
X010935Y004295D01*
X011223Y004453D02*
X011727Y004453D01*
X011568Y004612D02*
X011382Y004612D01*
X011453Y004770D02*
X011497Y004770D01*
X010435Y004295D02*
X009355Y004295D01*
X009643Y004453D02*
X010147Y004453D01*
X009988Y004612D02*
X009802Y004612D01*
X009873Y004770D02*
X009917Y004770D01*
X008855Y004295D02*
X004191Y004295D01*
X004210Y004185D02*
X004210Y004185D01*
X004202Y004136D02*
X041168Y004136D01*
X041159Y004185D02*
X041159Y004185D01*
X041196Y003978D02*
X004174Y003978D01*
X004149Y003834D02*
X004149Y003834D01*
X004140Y003819D02*
X041230Y003819D01*
X041221Y003834D02*
X041221Y003834D01*
X041321Y003661D02*
X004048Y003661D01*
X003970Y003526D02*
X003970Y003526D01*
X003970Y003526D01*
X003942Y003502D02*
X041427Y003502D01*
X041616Y003343D02*
X003753Y003343D01*
X003698Y003297D02*
X003698Y003297D01*
X002672Y003297D02*
X002672Y003297D01*
X002616Y003343D02*
X001965Y003343D01*
X001965Y003502D02*
X002427Y003502D01*
X002321Y003661D02*
X001965Y003661D01*
X001965Y003819D02*
X002230Y003819D01*
X002221Y003834D02*
X002221Y003834D01*
X002196Y003978D02*
X001965Y003978D01*
X001965Y004136D02*
X002168Y004136D01*
X002159Y004185D02*
X002159Y004185D01*
X002179Y004295D02*
X001965Y004295D01*
X001965Y004453D02*
X002207Y004453D01*
X002265Y004612D02*
X001965Y004612D01*
X001965Y004770D02*
X002357Y004770D01*
X002399Y004844D02*
X002399Y004844D01*
X002399Y004844D01*
X002500Y004929D02*
X001965Y004929D01*
X001965Y005087D02*
X002712Y005087D01*
X002672Y005073D02*
X002672Y005073D01*
X003007Y005195D02*
X003007Y005195D01*
X003241Y005195D02*
X003241Y005195D01*
X003363Y005195D02*
X003363Y005195D01*
X003658Y005087D02*
X008272Y005087D01*
X008272Y004929D02*
X003869Y004929D01*
X003970Y004844D02*
X003970Y004844D01*
X004013Y004770D02*
X008337Y004770D01*
X008408Y004612D02*
X004105Y004612D01*
X004149Y004536D02*
X004149Y004536D01*
X004163Y004453D02*
X008567Y004453D01*
X008272Y005246D02*
X004925Y005246D01*
X004884Y005205D02*
X005165Y005486D01*
X005165Y005884D01*
X004884Y006165D01*
X004714Y006165D01*
X003871Y007008D01*
X003905Y007089D01*
X003905Y007280D01*
X003832Y007457D01*
X003697Y007592D01*
X003545Y007655D01*
X003545Y008366D01*
X003665Y008486D01*
X003665Y008884D01*
X003384Y009165D01*
X002986Y009165D01*
X002705Y008884D01*
X002705Y008486D01*
X002825Y008366D01*
X002825Y007655D01*
X002673Y007592D01*
X002538Y007457D01*
X002465Y007280D01*
X002465Y007089D01*
X002538Y006913D01*
X002673Y006778D01*
X002849Y006705D01*
X003156Y006705D01*
X004205Y005656D01*
X004205Y005486D01*
X004486Y005205D01*
X004884Y005205D01*
X005083Y005404D02*
X005400Y005404D01*
X005285Y005519D02*
X005519Y005285D01*
X005685Y005285D01*
X005851Y005285D01*
X006085Y005519D01*
X006085Y005685D01*
X006085Y005851D01*
X005851Y006085D01*
X005685Y006085D01*
X005685Y005685D01*
X006085Y005685D01*
X005685Y005685D01*
X005685Y005685D01*
X005685Y005685D01*
X005685Y006085D01*
X005519Y006085D01*
X005285Y005851D01*
X005285Y005685D01*
X005684Y005685D01*
X005684Y005685D01*
X005285Y005685D01*
X005285Y005519D01*
X005285Y005563D02*
X005165Y005563D01*
X005165Y005722D02*
X005285Y005722D01*
X005314Y005880D02*
X005165Y005880D01*
X005010Y006039D02*
X005473Y006039D01*
X005685Y006039D02*
X005685Y006039D01*
X005685Y005880D02*
X005685Y005880D01*
X005685Y005722D02*
X005685Y005722D01*
X005685Y005684D02*
X005685Y005285D01*
X005685Y005684D01*
X005685Y005684D01*
X005685Y005563D02*
X005685Y005563D01*
X005685Y005404D02*
X005685Y005404D01*
X005970Y005404D02*
X008272Y005404D01*
X008272Y005563D02*
X006085Y005563D01*
X006085Y005722D02*
X008272Y005722D01*
X008272Y005880D02*
X006055Y005880D01*
X005897Y006039D02*
X008272Y006039D01*
X008272Y006197D02*
X004682Y006197D01*
X004523Y006356D02*
X008272Y006356D01*
X008302Y006514D02*
X004365Y006514D01*
X004206Y006673D02*
X008368Y006673D01*
X007619Y007624D02*
X014325Y007624D01*
X014325Y007466D02*
X010413Y007466D01*
X010572Y007307D02*
X014325Y007307D01*
X014325Y007148D02*
X010730Y007148D01*
X011140Y006990D02*
X011810Y006990D01*
X011641Y006831D02*
X011308Y006831D01*
X011422Y006673D02*
X011528Y006673D01*
X012720Y006990D02*
X014325Y006990D01*
X014325Y006831D02*
X012888Y006831D01*
X013002Y006673D02*
X014325Y006673D01*
X014325Y006514D02*
X013068Y006514D01*
X013097Y006356D02*
X014205Y006356D01*
X014205Y006384D02*
X014205Y005986D01*
X014486Y005705D01*
X014884Y005705D01*
X015165Y005986D01*
X015165Y006384D01*
X015045Y006504D01*
X015045Y009866D01*
X015165Y009986D01*
X015165Y010384D01*
X014884Y010665D01*
X014486Y010665D01*
X014205Y010384D01*
X014205Y009986D01*
X014325Y009866D01*
X014325Y006504D01*
X014205Y006384D01*
X014205Y006197D02*
X013097Y006197D01*
X013097Y006039D02*
X014205Y006039D01*
X014311Y005880D02*
X013097Y005880D01*
X013097Y005722D02*
X014469Y005722D01*
X014519Y005585D02*
X014285Y005351D01*
X014285Y005185D01*
X014684Y005185D01*
X014684Y005185D01*
X014285Y005185D01*
X014285Y005019D01*
X014519Y004785D01*
X014685Y004785D01*
X014851Y004785D01*
X015085Y005019D01*
X015085Y005185D01*
X015085Y005351D01*
X014851Y005585D01*
X014685Y005585D01*
X014685Y005185D01*
X014685Y005185D01*
X015085Y005185D01*
X014685Y005185D01*
X014685Y005185D01*
X014685Y005585D01*
X014519Y005585D01*
X014497Y005563D02*
X013097Y005563D01*
X013097Y005404D02*
X014339Y005404D01*
X014285Y005246D02*
X013097Y005246D01*
X013097Y005087D02*
X014285Y005087D01*
X014375Y004929D02*
X013097Y004929D01*
X013033Y004770D02*
X015921Y004770D01*
X015986Y004705D02*
X016384Y004705D01*
X016665Y004986D01*
X016665Y005384D01*
X016545Y005504D01*
X016545Y006715D01*
X016697Y006778D01*
X016832Y006913D01*
X016905Y007089D01*
X016905Y007280D01*
X016832Y007457D01*
X016697Y007592D01*
X016545Y007655D01*
X016545Y008366D01*
X016665Y008486D01*
X016665Y008884D01*
X016384Y009165D01*
X015986Y009165D01*
X015705Y008884D01*
X015705Y008486D01*
X015825Y008366D01*
X015825Y007655D01*
X015673Y007592D01*
X015538Y007457D01*
X015465Y007280D01*
X015465Y007089D01*
X015538Y006913D01*
X015673Y006778D01*
X015825Y006715D01*
X015825Y005504D01*
X015705Y005384D01*
X015705Y004986D01*
X015986Y004705D01*
X015762Y004929D02*
X014994Y004929D01*
X015085Y005087D02*
X015705Y005087D01*
X015705Y005246D02*
X015085Y005246D01*
X015031Y005404D02*
X015726Y005404D01*
X015825Y005563D02*
X014872Y005563D01*
X014900Y005722D02*
X015825Y005722D01*
X015825Y005880D02*
X015059Y005880D01*
X015165Y006039D02*
X015825Y006039D01*
X015825Y006197D02*
X015165Y006197D01*
X015165Y006356D02*
X015825Y006356D01*
X015825Y006514D02*
X015045Y006514D01*
X015045Y006673D02*
X015825Y006673D01*
X015620Y006831D02*
X015045Y006831D01*
X015045Y006990D02*
X015506Y006990D01*
X015465Y007148D02*
X015045Y007148D01*
X015045Y007307D02*
X015476Y007307D01*
X015547Y007466D02*
X015045Y007466D01*
X015045Y007624D02*
X015751Y007624D01*
X015825Y007783D02*
X015045Y007783D01*
X015045Y007941D02*
X015825Y007941D01*
X015825Y008100D02*
X015045Y008100D01*
X015045Y008258D02*
X015825Y008258D01*
X015774Y008417D02*
X015045Y008417D01*
X015045Y008575D02*
X015705Y008575D01*
X015705Y008734D02*
X015045Y008734D01*
X015045Y008892D02*
X015714Y008892D01*
X015872Y009051D02*
X015045Y009051D01*
X015045Y009210D02*
X019151Y009210D01*
X018993Y009368D02*
X015045Y009368D01*
X015045Y009527D02*
X018834Y009527D01*
X018675Y009685D02*
X015045Y009685D01*
X015045Y009844D02*
X015607Y009844D01*
X015673Y009778D02*
X015538Y009913D01*
X015465Y010089D01*
X015465Y010280D01*
X015538Y010457D01*
X015673Y010592D01*
X015849Y010665D01*
X016520Y010665D01*
X016697Y010592D01*
X016744Y010545D01*
X018756Y010545D01*
X018889Y010490D01*
X018990Y010389D01*
X020214Y009165D01*
X020384Y009165D01*
X020504Y009045D01*
X020983Y009045D01*
X020965Y009089D01*
X020965Y009280D01*
X021038Y009457D01*
X021173Y009592D01*
X021349Y009665D01*
X022020Y009665D01*
X022197Y009592D01*
X022332Y009457D01*
X022405Y009280D01*
X022405Y009089D01*
X022332Y008913D01*
X022197Y008778D01*
X022020Y008705D01*
X021714Y008705D01*
X021389Y008380D01*
X021256Y008325D01*
X021113Y008325D01*
X020504Y008325D01*
X020384Y008205D01*
X019986Y008205D01*
X019705Y008486D01*
X019705Y008656D01*
X018536Y009825D01*
X016744Y009825D01*
X016697Y009778D01*
X016520Y009705D01*
X015849Y009705D01*
X015673Y009778D01*
X015501Y010002D02*
X015165Y010002D01*
X015165Y010161D02*
X015465Y010161D01*
X015481Y010319D02*
X015165Y010319D01*
X015071Y010478D02*
X015559Y010478D01*
X015781Y010636D02*
X014912Y010636D01*
X014458Y010636D02*
X013097Y010636D01*
X013097Y010478D02*
X014299Y010478D01*
X014205Y010319D02*
X013097Y010319D01*
X013097Y010161D02*
X014205Y010161D01*
X014205Y010002D02*
X013097Y010002D01*
X013097Y009844D02*
X014325Y009844D01*
X014325Y009685D02*
X013097Y009685D01*
X013097Y009527D02*
X014325Y009527D01*
X014325Y009368D02*
X013073Y009368D01*
X013097Y009427D02*
X012971Y009121D01*
X012736Y008887D01*
X012430Y008760D01*
X012099Y008760D01*
X011793Y008887D01*
X011559Y009121D01*
X011475Y009324D01*
X011391Y009121D01*
X011156Y008887D01*
X010850Y008760D01*
X010519Y008760D01*
X010213Y008887D01*
X009979Y009121D01*
X009895Y009324D01*
X009811Y009121D01*
X009576Y008887D01*
X009270Y008760D01*
X008939Y008760D01*
X008633Y008887D01*
X008399Y009121D01*
X008320Y009311D01*
X007665Y008656D01*
X007665Y008486D01*
X007384Y008205D01*
X006986Y008205D01*
X006705Y008486D01*
X006705Y008656D01*
X005536Y009825D01*
X003744Y009825D01*
X003697Y009778D01*
X003520Y009705D01*
X002849Y009705D01*
X002673Y009778D01*
X002538Y009913D01*
X002465Y010089D01*
X002465Y010280D01*
X002538Y010457D01*
X002673Y010592D01*
X002849Y010665D01*
X003156Y010665D01*
X004825Y012334D01*
X004825Y013126D01*
X004778Y013173D01*
X004705Y013349D01*
X004705Y014020D01*
X004778Y014197D01*
X004913Y014332D01*
X005089Y014405D01*
X005280Y014405D01*
X005457Y014332D01*
X005592Y014197D01*
X005665Y014020D01*
X005665Y013349D01*
X005592Y013173D01*
X007188Y013173D01*
X007156Y013205D02*
X007880Y012481D01*
X007981Y012380D01*
X008113Y012325D01*
X010113Y012325D01*
X010256Y012325D01*
X010389Y012380D01*
X010685Y012676D01*
X011853Y011508D01*
X011793Y011483D01*
X011559Y011249D01*
X011475Y011046D01*
X011391Y011249D01*
X011156Y011483D01*
X010850Y011610D01*
X010519Y011610D01*
X010213Y011483D01*
X009979Y011249D01*
X009895Y011046D01*
X009811Y011249D01*
X009576Y011483D01*
X009270Y011610D01*
X008939Y011610D01*
X008633Y011483D01*
X008399Y011249D01*
X008272Y010943D01*
X008272Y010281D01*
X007185Y009194D01*
X005889Y010490D01*
X005756Y010545D01*
X005613Y010545D01*
X004054Y010545D01*
X005490Y011981D01*
X005545Y012113D01*
X005545Y012256D01*
X005545Y013126D01*
X005592Y013173D01*
X005545Y013015D02*
X007346Y013015D01*
X007505Y012856D02*
X005545Y012856D01*
X005545Y012697D02*
X007663Y012697D01*
X007822Y012539D02*
X005545Y012539D01*
X005545Y012380D02*
X007980Y012380D01*
X007585Y011851D02*
X007351Y012085D01*
X007185Y012085D01*
X007185Y011685D01*
X007585Y011685D01*
X007585Y011851D01*
X007531Y011905D02*
X011456Y011905D01*
X011297Y012063D02*
X007372Y012063D01*
X007185Y012063D02*
X007185Y012063D01*
X007185Y012085D02*
X007019Y012085D01*
X006785Y011851D01*
X006785Y011685D01*
X007184Y011685D01*
X007184Y011685D01*
X006785Y011685D01*
X006785Y011519D01*
X007019Y011285D01*
X007185Y011285D01*
X007351Y011285D01*
X007585Y011519D01*
X007585Y011685D01*
X007185Y011685D01*
X007185Y011685D01*
X007185Y011685D01*
X007185Y012085D01*
X007185Y011905D02*
X007185Y011905D01*
X007185Y011746D02*
X007185Y011746D01*
X007185Y011684D02*
X007185Y011285D01*
X007185Y011684D01*
X007185Y011684D01*
X007185Y011588D02*
X007185Y011588D01*
X007185Y011429D02*
X007185Y011429D01*
X007495Y011429D02*
X008579Y011429D01*
X008421Y011271D02*
X004780Y011271D01*
X004938Y011429D02*
X006875Y011429D01*
X006785Y011588D02*
X005097Y011588D01*
X005255Y011746D02*
X006785Y011746D01*
X006839Y011905D02*
X005414Y011905D01*
X005524Y012063D02*
X006998Y012063D01*
X007585Y011746D02*
X011614Y011746D01*
X011773Y011588D02*
X010904Y011588D01*
X011210Y011429D02*
X011739Y011429D01*
X011581Y011271D02*
X011369Y011271D01*
X011447Y011112D02*
X011502Y011112D01*
X010466Y011588D02*
X009324Y011588D01*
X009630Y011429D02*
X010159Y011429D01*
X010001Y011271D02*
X009789Y011271D01*
X009867Y011112D02*
X009922Y011112D01*
X008886Y011588D02*
X007585Y011588D01*
X008342Y011112D02*
X004621Y011112D01*
X004463Y010954D02*
X008277Y010954D01*
X008272Y010795D02*
X004304Y010795D01*
X004145Y010636D02*
X008272Y010636D01*
X008272Y010478D02*
X007698Y010478D01*
X007680Y010496D02*
X007614Y010539D01*
X007542Y010569D01*
X007464Y010585D01*
X007185Y010585D01*
X007185Y010185D01*
X007185Y010185D01*
X007825Y010185D01*
X007825Y010224D01*
X007809Y010302D01*
X007779Y010374D01*
X007736Y010440D01*
X007680Y010496D01*
X007802Y010319D02*
X008272Y010319D01*
X008152Y010161D02*
X007825Y010161D01*
X007825Y010145D02*
X007809Y010068D01*
X007779Y009995D01*
X007736Y009930D01*
X007680Y009874D01*
X007614Y009830D01*
X007542Y009800D01*
X007464Y009785D01*
X007185Y009785D01*
X007185Y010184D01*
X007185Y010184D01*
X007185Y009785D01*
X006905Y009785D01*
X006828Y009800D01*
X006755Y009830D01*
X006690Y009874D01*
X006634Y009930D01*
X006590Y009995D01*
X006560Y010068D01*
X006545Y010145D01*
X006545Y010185D01*
X007184Y010185D01*
X007184Y010185D01*
X006545Y010185D01*
X006545Y010224D01*
X006560Y010302D01*
X006590Y010374D01*
X006634Y010440D01*
X006690Y010496D01*
X006755Y010539D01*
X006828Y010569D01*
X006905Y010585D01*
X007185Y010585D01*
X007185Y010185D01*
X007185Y010185D01*
X007825Y010185D01*
X007825Y010145D01*
X007782Y010002D02*
X007993Y010002D01*
X007835Y009844D02*
X007634Y009844D01*
X007676Y009685D02*
X006694Y009685D01*
X006735Y009844D02*
X006535Y009844D01*
X006588Y010002D02*
X006377Y010002D01*
X006218Y010161D02*
X006545Y010161D01*
X006568Y010319D02*
X006059Y010319D01*
X005901Y010478D02*
X006672Y010478D01*
X007185Y010478D02*
X007185Y010478D01*
X007185Y010319D02*
X007185Y010319D01*
X007185Y010161D02*
X007185Y010161D01*
X007185Y010002D02*
X007185Y010002D01*
X007185Y009844D02*
X007185Y009844D01*
X006852Y009527D02*
X007518Y009527D01*
X007359Y009368D02*
X007011Y009368D01*
X007169Y009210D02*
X007200Y009210D01*
X007901Y008892D02*
X008627Y008892D01*
X008469Y009051D02*
X008060Y009051D01*
X008219Y009210D02*
X008362Y009210D01*
X007743Y008734D02*
X014325Y008734D01*
X014325Y008892D02*
X012742Y008892D01*
X012901Y009051D02*
X014325Y009051D01*
X014325Y009210D02*
X013007Y009210D01*
X013097Y009427D02*
X013097Y010943D01*
X012971Y011249D01*
X012736Y011483D01*
X012625Y011529D01*
X012625Y011533D01*
X012625Y011676D01*
X012570Y011809D01*
X011045Y013334D01*
X011045Y013340D01*
X011156Y013387D01*
X011391Y013621D01*
X011475Y013824D01*
X011559Y013621D01*
X011793Y013387D01*
X012099Y013260D01*
X012430Y013260D01*
X012736Y013387D01*
X012971Y013621D01*
X013097Y013927D01*
X013097Y015443D01*
X012971Y015749D01*
X012895Y015825D01*
X013036Y015825D01*
X013325Y015536D01*
X013325Y013113D01*
X013380Y012981D01*
X013481Y012880D01*
X014130Y012231D01*
X014231Y012130D01*
X014363Y012075D01*
X016009Y012075D01*
X015785Y011851D01*
X015785Y011685D01*
X016184Y011685D01*
X016184Y011685D01*
X015785Y011685D01*
X015785Y011519D01*
X016019Y011285D01*
X016185Y011285D01*
X016351Y011285D01*
X016585Y011519D01*
X016585Y011685D01*
X016585Y011851D01*
X016360Y012075D01*
X019896Y012075D01*
X019705Y011884D01*
X019705Y011486D01*
X019986Y011205D01*
X020384Y011205D01*
X020504Y011325D01*
X020983Y011325D01*
X020965Y011280D01*
X020965Y011089D01*
X021038Y010913D01*
X021173Y010778D01*
X021349Y010705D01*
X022020Y010705D01*
X022197Y010778D01*
X022332Y010913D01*
X022405Y011089D01*
X022405Y011280D01*
X022332Y011457D01*
X022197Y011592D01*
X022020Y011665D01*
X021714Y011665D01*
X021389Y011990D01*
X021256Y012045D01*
X021113Y012045D01*
X020504Y012045D01*
X020474Y012075D01*
X022986Y012075D01*
X024380Y010681D01*
X024481Y010580D01*
X024613Y010525D01*
X029106Y010525D01*
X029038Y010457D01*
X028965Y010280D01*
X028965Y010089D01*
X029038Y009913D01*
X029173Y009778D01*
X029349Y009705D01*
X030020Y009705D01*
X030197Y009778D01*
X030244Y009825D01*
X032036Y009825D01*
X033205Y008656D01*
X033205Y008486D01*
X033486Y008205D01*
X033884Y008205D01*
X034004Y008325D01*
X034756Y008325D01*
X034889Y008380D01*
X034990Y008481D01*
X035214Y008705D01*
X035520Y008705D01*
X035697Y008778D01*
X035832Y008913D01*
X035905Y009089D01*
X035905Y009280D01*
X035832Y009457D01*
X035697Y009592D01*
X035520Y009665D01*
X034849Y009665D01*
X034673Y009592D01*
X034538Y009457D01*
X034465Y009280D01*
X034465Y009089D01*
X034483Y009045D01*
X034004Y009045D01*
X033884Y009165D01*
X033714Y009165D01*
X032545Y010334D01*
X032545Y011536D01*
X033334Y012325D01*
X037256Y012325D01*
X037389Y012380D01*
X037490Y012481D01*
X037990Y012981D01*
X038045Y013113D01*
X038045Y013256D01*
X038045Y017195D01*
X038095Y017195D01*
X038675Y017775D01*
X038675Y018595D01*
X038095Y019175D01*
X037275Y019175D01*
X036695Y018595D01*
X036695Y017775D01*
X037275Y017195D01*
X037325Y017195D01*
X037325Y013334D01*
X037036Y013045D01*
X033256Y013045D01*
X033113Y013045D01*
X032981Y012990D01*
X031981Y011990D01*
X031880Y011889D01*
X031825Y011756D01*
X031825Y010545D01*
X030505Y010545D01*
X030589Y010580D01*
X030889Y010880D01*
X030990Y010981D01*
X031045Y011113D01*
X031045Y012825D01*
X031866Y012825D01*
X031986Y012705D01*
X032384Y012705D01*
X032665Y012986D01*
X032665Y013384D01*
X032384Y013665D01*
X031986Y013665D01*
X031866Y013545D01*
X031004Y013545D01*
X030884Y013665D01*
X030674Y013665D01*
X032834Y015825D01*
X033113Y015825D01*
X033256Y015825D01*
X033389Y015880D01*
X034739Y017230D01*
X034775Y017195D01*
X035595Y017195D01*
X036175Y017775D01*
X036175Y018595D01*
X035595Y019175D01*
X034775Y019175D01*
X034195Y018595D01*
X034195Y017775D01*
X034230Y017739D01*
X033036Y016545D01*
X032613Y016545D01*
X032481Y016490D01*
X032380Y016389D01*
X029660Y013669D01*
X029660Y013685D01*
X029660Y013882D01*
X029382Y014160D01*
X029185Y014160D01*
X029185Y013685D01*
X029185Y013685D01*
X029660Y013685D01*
X029185Y013685D01*
X029185Y013685D01*
X029185Y014160D01*
X028988Y014160D01*
X028740Y013912D01*
X028740Y013915D01*
X028415Y014240D01*
X027955Y014240D01*
X027685Y013970D01*
X027545Y014110D01*
X027545Y014536D01*
X028490Y015481D01*
X028545Y015613D01*
X028545Y015756D01*
X028545Y016260D01*
X028685Y016400D01*
X028955Y016130D01*
X029415Y016130D01*
X029740Y016455D01*
X029740Y016915D01*
X029415Y017240D01*
X029249Y017240D01*
X029334Y017325D01*
X030036Y017325D01*
X030205Y017156D01*
X030205Y016986D01*
X030486Y016705D01*
X030884Y016705D01*
X031165Y016986D01*
X031165Y017384D01*
X030884Y017665D01*
X030714Y017665D01*
X030554Y017825D01*
X031695Y017825D01*
X031695Y017775D01*
X032275Y017195D01*
X033095Y017195D01*
X033675Y017775D01*
X033675Y018595D01*
X033095Y019175D01*
X032275Y019175D01*
X031695Y018595D01*
X031695Y018545D01*
X027504Y018545D01*
X027384Y018665D01*
X026986Y018665D01*
X026705Y018384D01*
X026705Y017986D01*
X026825Y017866D01*
X026825Y017110D01*
X026685Y016970D01*
X026415Y017240D01*
X025955Y017240D01*
X025630Y016915D01*
X025630Y016455D01*
X025955Y016130D01*
X026415Y016130D01*
X026685Y016400D01*
X026955Y016130D01*
X027415Y016130D01*
X027685Y016400D01*
X027825Y016260D01*
X027825Y015834D01*
X026981Y014990D01*
X026880Y014889D01*
X026825Y014756D01*
X026825Y014110D01*
X026685Y013970D01*
X026415Y014240D01*
X025955Y014240D01*
X025630Y013915D01*
X025630Y013455D01*
X025955Y013130D01*
X026415Y013130D01*
X026685Y013400D01*
X026955Y013130D01*
X027121Y013130D01*
X027036Y013045D01*
X025334Y013045D01*
X025165Y013214D01*
X025165Y013384D01*
X024884Y013665D01*
X024714Y013665D01*
X024389Y013990D01*
X024256Y014045D01*
X024113Y014045D01*
X023504Y014045D01*
X023384Y014165D01*
X022986Y014165D01*
X022705Y013884D01*
X022705Y013486D01*
X022986Y013205D01*
X023384Y013205D01*
X023504Y013325D01*
X024036Y013325D01*
X024205Y013156D01*
X024205Y012986D01*
X024486Y012705D01*
X024656Y012705D01*
X024880Y012481D01*
X024981Y012380D01*
X025113Y012325D01*
X027113Y012325D01*
X027256Y012325D01*
X027389Y012380D01*
X028139Y013130D01*
X028415Y013130D01*
X028740Y013455D01*
X028740Y013458D01*
X028988Y013210D01*
X029185Y013210D01*
X029201Y013210D01*
X028156Y012165D01*
X027986Y012165D01*
X027866Y012045D01*
X027004Y012045D01*
X026884Y012165D01*
X026486Y012165D01*
X026205Y011884D01*
X026205Y011486D01*
X026446Y011245D01*
X024834Y011245D01*
X023339Y012740D01*
X023206Y012795D01*
X023063Y012795D01*
X021974Y012795D01*
X022165Y012986D01*
X022165Y013384D01*
X022045Y013504D01*
X022045Y015756D01*
X021990Y015889D01*
X021889Y015990D01*
X020639Y017239D01*
X021175Y017775D01*
X021175Y018595D01*
X020595Y019175D01*
X019775Y019175D01*
X019195Y018595D01*
X019195Y017775D01*
X019775Y017195D01*
X019825Y017195D01*
X019825Y017113D01*
X019880Y016981D01*
X021325Y015536D01*
X021325Y013545D01*
X017334Y013545D01*
X016665Y014214D01*
X016665Y014384D01*
X016384Y014665D01*
X015986Y014665D01*
X015866Y014545D01*
X015004Y014545D01*
X014884Y014665D01*
X014486Y014665D01*
X014205Y014384D01*
X014205Y013986D01*
X014486Y013705D01*
X014884Y013705D01*
X015004Y013825D01*
X015866Y013825D01*
X015986Y013705D01*
X016156Y013705D01*
X016981Y012880D01*
X017113Y012825D01*
X017256Y012825D01*
X021366Y012825D01*
X021396Y012795D01*
X014584Y012795D01*
X014045Y013334D01*
X014045Y015756D01*
X013990Y015889D01*
X013889Y015990D01*
X013554Y016325D01*
X019036Y016325D01*
X019705Y015656D01*
X019705Y015486D01*
X019825Y015366D01*
X019825Y014504D01*
X019705Y014384D01*
X019705Y013986D01*
X019986Y013705D01*
X020384Y013705D01*
X020665Y013986D01*
X020665Y014384D01*
X020545Y014504D01*
X020545Y015366D01*
X020665Y015486D01*
X020665Y015884D01*
X020384Y016165D01*
X020214Y016165D01*
X019490Y016889D01*
X019389Y016990D01*
X019256Y017045D01*
X004756Y017045D01*
X004613Y017045D01*
X004481Y016990D01*
X003981Y016490D01*
X003880Y016389D01*
X003825Y016256D01*
X003825Y014244D01*
X003778Y014197D01*
X003705Y014020D01*
X003705Y013349D01*
X003778Y013173D01*
X003913Y013038D01*
X004089Y012965D01*
X004280Y012965D01*
X004457Y013038D01*
X004592Y013173D01*
X004778Y013173D01*
X004825Y013015D02*
X004400Y013015D01*
X004592Y013173D02*
X004665Y013349D01*
X004665Y014020D01*
X004592Y014197D01*
X004545Y014244D01*
X004545Y016036D01*
X004834Y016325D01*
X009316Y016325D01*
X009101Y016110D01*
X008939Y016110D01*
X008633Y015983D01*
X008399Y015749D01*
X008272Y015443D01*
X008272Y015045D01*
X007504Y015045D01*
X007384Y015165D01*
X006986Y015165D01*
X006705Y014884D01*
X006705Y014486D01*
X006986Y014205D01*
X007384Y014205D01*
X007504Y014325D01*
X008272Y014325D01*
X008272Y013927D01*
X008399Y013621D01*
X008633Y013387D01*
X008939Y013260D01*
X009270Y013260D01*
X009576Y013387D01*
X009811Y013621D01*
X009895Y013824D01*
X009979Y013621D01*
X010213Y013387D01*
X010325Y013340D01*
X010325Y013334D01*
X010036Y013045D01*
X008334Y013045D01*
X007665Y013714D01*
X007665Y013884D01*
X007384Y014165D01*
X006986Y014165D01*
X006705Y013884D01*
X006705Y013486D01*
X006986Y013205D01*
X007156Y013205D01*
X006859Y013332D02*
X005657Y013332D01*
X005665Y013490D02*
X006705Y013490D01*
X006705Y013649D02*
X005665Y013649D01*
X005665Y013807D02*
X006705Y013807D01*
X006787Y013966D02*
X005665Y013966D01*
X005622Y014124D02*
X006946Y014124D01*
X006908Y014283D02*
X005506Y014283D01*
X004864Y014283D02*
X004545Y014283D01*
X004545Y014441D02*
X006749Y014441D01*
X006705Y014600D02*
X004545Y014600D01*
X004545Y014759D02*
X006705Y014759D01*
X006738Y014917D02*
X004545Y014917D01*
X004545Y015076D02*
X006897Y015076D01*
X007473Y015076D02*
X008272Y015076D01*
X008272Y015234D02*
X004545Y015234D01*
X004545Y015393D02*
X008272Y015393D01*
X008317Y015551D02*
X004545Y015551D01*
X004545Y015710D02*
X008383Y015710D01*
X008518Y015868D02*
X004545Y015868D01*
X004545Y016027D02*
X008739Y016027D01*
X009176Y016185D02*
X004695Y016185D01*
X004152Y016661D02*
X001965Y016661D01*
X001965Y016503D02*
X003993Y016503D01*
X003861Y016344D02*
X001965Y016344D01*
X001965Y016185D02*
X003825Y016185D01*
X003825Y016027D02*
X001965Y016027D01*
X001965Y015868D02*
X003825Y015868D01*
X003825Y015710D02*
X001965Y015710D01*
X001965Y015551D02*
X003825Y015551D01*
X003825Y015393D02*
X001965Y015393D01*
X001965Y015234D02*
X003825Y015234D01*
X003825Y015076D02*
X001965Y015076D01*
X001965Y014917D02*
X003825Y014917D01*
X003825Y014759D02*
X001965Y014759D01*
X001965Y014600D02*
X003825Y014600D01*
X003825Y014441D02*
X001965Y014441D01*
X001965Y014283D02*
X002864Y014283D01*
X002913Y014332D02*
X002778Y014197D01*
X002705Y014020D01*
X002705Y013349D01*
X002778Y013173D01*
X002825Y013126D01*
X002825Y012004D01*
X002705Y011884D01*
X002705Y011486D01*
X002986Y011205D01*
X003384Y011205D01*
X003665Y011486D01*
X003665Y011884D01*
X003545Y012004D01*
X003545Y013126D01*
X003592Y013173D01*
X003778Y013173D01*
X003712Y013332D02*
X003657Y013332D01*
X003665Y013349D02*
X003665Y014020D01*
X003592Y014197D01*
X003457Y014332D01*
X003280Y014405D01*
X003089Y014405D01*
X002913Y014332D01*
X002748Y014124D02*
X001965Y014124D01*
X001965Y013966D02*
X002705Y013966D01*
X002705Y013807D02*
X001965Y013807D01*
X001965Y013649D02*
X002705Y013649D01*
X002705Y013490D02*
X001965Y013490D01*
X001965Y013332D02*
X002712Y013332D01*
X002778Y013173D02*
X001965Y013173D01*
X001965Y013015D02*
X002825Y013015D01*
X002825Y012856D02*
X001965Y012856D01*
X001965Y012697D02*
X002825Y012697D01*
X002825Y012539D02*
X001965Y012539D01*
X001965Y012380D02*
X002825Y012380D01*
X002825Y012222D02*
X001965Y012222D01*
X001965Y012063D02*
X002825Y012063D01*
X002726Y011905D02*
X001965Y011905D01*
X001965Y011746D02*
X002705Y011746D01*
X002705Y011588D02*
X001965Y011588D01*
X001965Y011429D02*
X002762Y011429D01*
X002920Y011271D02*
X001965Y011271D01*
X001965Y011112D02*
X003603Y011112D01*
X003449Y011271D02*
X003761Y011271D01*
X003608Y011429D02*
X003920Y011429D01*
X004079Y011588D02*
X003665Y011588D01*
X003665Y011746D02*
X004237Y011746D01*
X004396Y011905D02*
X003644Y011905D01*
X003545Y012063D02*
X004554Y012063D01*
X004713Y012222D02*
X003545Y012222D01*
X003545Y012380D02*
X004825Y012380D01*
X004825Y012539D02*
X003545Y012539D01*
X003545Y012697D02*
X004825Y012697D01*
X004825Y012856D02*
X003545Y012856D01*
X003545Y013015D02*
X003969Y013015D01*
X003592Y013173D02*
X003665Y013349D01*
X003665Y013490D02*
X003705Y013490D01*
X003705Y013649D02*
X003665Y013649D01*
X003665Y013807D02*
X003705Y013807D01*
X003705Y013966D02*
X003665Y013966D01*
X003622Y014124D02*
X003748Y014124D01*
X003825Y014283D02*
X003506Y014283D01*
X004622Y014124D02*
X004748Y014124D01*
X004705Y013966D02*
X004665Y013966D01*
X004665Y013807D02*
X004705Y013807D01*
X004705Y013649D02*
X004665Y013649D01*
X004665Y013490D02*
X004705Y013490D01*
X004712Y013332D02*
X004657Y013332D01*
X005545Y012222D02*
X011139Y012222D01*
X010980Y012380D02*
X010389Y012380D01*
X010548Y012539D02*
X010822Y012539D01*
X011364Y013015D02*
X013366Y013015D01*
X013325Y013173D02*
X011206Y013173D01*
X011047Y013332D02*
X011926Y013332D01*
X011690Y013490D02*
X011260Y013490D01*
X011402Y013649D02*
X011547Y013649D01*
X011482Y013807D02*
X011468Y013807D01*
X012604Y013332D02*
X013325Y013332D01*
X013325Y013490D02*
X012840Y013490D01*
X012982Y013649D02*
X013325Y013649D01*
X013325Y013807D02*
X013048Y013807D01*
X013097Y013966D02*
X013325Y013966D01*
X013325Y014124D02*
X013097Y014124D01*
X013097Y014283D02*
X013325Y014283D01*
X013325Y014441D02*
X013097Y014441D01*
X013097Y014600D02*
X013325Y014600D01*
X013325Y014759D02*
X013097Y014759D01*
X013097Y014917D02*
X013325Y014917D01*
X013325Y015076D02*
X013097Y015076D01*
X013097Y015234D02*
X013325Y015234D01*
X013325Y015393D02*
X013097Y015393D01*
X013053Y015551D02*
X013309Y015551D01*
X013151Y015710D02*
X012987Y015710D01*
X013852Y016027D02*
X015961Y016027D01*
X016019Y016085D02*
X015785Y015851D01*
X015785Y015685D01*
X016184Y015685D01*
X016184Y015685D01*
X015785Y015685D01*
X015785Y015519D01*
X016019Y015285D01*
X016185Y015285D01*
X016351Y015285D01*
X016585Y015519D01*
X016585Y015685D01*
X016585Y015851D01*
X016351Y016085D01*
X016185Y016085D01*
X016185Y015685D01*
X016585Y015685D01*
X016185Y015685D01*
X016185Y015685D01*
X016185Y015685D01*
X016185Y016085D01*
X016019Y016085D01*
X016185Y016027D02*
X016185Y016027D01*
X016185Y015868D02*
X016185Y015868D01*
X016185Y015710D02*
X016185Y015710D01*
X016185Y015684D02*
X016185Y015285D01*
X016185Y015684D01*
X016185Y015684D01*
X016185Y015551D02*
X016185Y015551D01*
X016185Y015393D02*
X016185Y015393D01*
X016458Y015393D02*
X019798Y015393D01*
X019825Y015234D02*
X014045Y015234D01*
X014045Y015076D02*
X019825Y015076D01*
X019825Y014917D02*
X014045Y014917D01*
X014045Y014759D02*
X019825Y014759D01*
X019825Y014600D02*
X016449Y014600D01*
X016607Y014441D02*
X019763Y014441D01*
X019705Y014283D02*
X016665Y014283D01*
X016754Y014124D02*
X019705Y014124D01*
X019725Y013966D02*
X016913Y013966D01*
X017072Y013807D02*
X019884Y013807D01*
X020486Y013807D02*
X021325Y013807D01*
X021325Y013649D02*
X017230Y013649D01*
X016370Y013490D02*
X014045Y013490D01*
X014047Y013332D02*
X016529Y013332D01*
X016688Y013173D02*
X014206Y013173D01*
X014364Y013015D02*
X016846Y013015D01*
X017038Y012856D02*
X014523Y012856D01*
X013980Y012380D02*
X011998Y012380D01*
X011840Y012539D02*
X013822Y012539D01*
X013663Y012697D02*
X011681Y012697D01*
X011523Y012856D02*
X013505Y012856D01*
X013481Y012880D02*
X013481Y012880D01*
X014130Y012231D02*
X014130Y012231D01*
X014139Y012222D02*
X012157Y012222D01*
X012316Y012063D02*
X015998Y012063D01*
X015839Y011905D02*
X012474Y011905D01*
X012596Y011746D02*
X015785Y011746D01*
X015785Y011588D02*
X012625Y011588D01*
X012790Y011429D02*
X015875Y011429D01*
X016185Y011429D02*
X016185Y011429D01*
X016185Y011285D02*
X016185Y011684D01*
X016185Y011684D01*
X016185Y011285D01*
X016185Y011588D02*
X016185Y011588D01*
X016185Y011685D02*
X016185Y011685D01*
X016585Y011685D01*
X016185Y011685D01*
X016495Y011429D02*
X019762Y011429D01*
X019705Y011588D02*
X016585Y011588D01*
X016585Y011746D02*
X019705Y011746D01*
X019726Y011905D02*
X016531Y011905D01*
X016372Y012063D02*
X019885Y012063D01*
X020485Y012063D02*
X022997Y012063D01*
X023156Y011905D02*
X021474Y011905D01*
X021633Y011746D02*
X023314Y011746D01*
X023473Y011588D02*
X022201Y011588D01*
X022343Y011429D02*
X023631Y011429D01*
X023790Y011271D02*
X022405Y011271D01*
X022405Y011112D02*
X023949Y011112D01*
X024107Y010954D02*
X022349Y010954D01*
X022214Y010795D02*
X024266Y010795D01*
X024380Y010681D02*
X024380Y010681D01*
X024424Y010636D02*
X022089Y010636D01*
X022020Y010665D02*
X021349Y010665D01*
X021173Y010592D01*
X021038Y010457D01*
X020965Y010280D01*
X020965Y010089D01*
X021038Y009913D01*
X021173Y009778D01*
X021349Y009705D01*
X022020Y009705D01*
X022197Y009778D01*
X022244Y009825D01*
X024036Y009825D01*
X024825Y009036D01*
X024825Y008004D01*
X024705Y007884D01*
X024705Y007486D01*
X024986Y007205D01*
X025384Y007205D01*
X025504Y007325D01*
X026366Y007325D01*
X026486Y007205D01*
X026884Y007205D01*
X027165Y007486D01*
X027165Y007884D01*
X026884Y008165D01*
X026486Y008165D01*
X026366Y008045D01*
X025545Y008045D01*
X025545Y009256D01*
X025490Y009389D01*
X025389Y009490D01*
X024389Y010490D01*
X024256Y010545D01*
X024113Y010545D01*
X022244Y010545D01*
X022197Y010592D01*
X022020Y010665D01*
X021281Y010636D02*
X016589Y010636D01*
X018901Y010478D02*
X019672Y010478D01*
X019690Y010496D02*
X019634Y010440D01*
X019590Y010374D01*
X019560Y010302D01*
X019545Y010224D01*
X019545Y010185D01*
X020184Y010185D01*
X020184Y010185D01*
X019545Y010185D01*
X019545Y010145D01*
X019560Y010068D01*
X019590Y009995D01*
X019634Y009930D01*
X019690Y009874D01*
X019755Y009830D01*
X019828Y009800D01*
X019905Y009785D01*
X020185Y009785D01*
X020464Y009785D01*
X020542Y009800D01*
X020614Y009830D01*
X020680Y009874D01*
X020736Y009930D01*
X020779Y009995D01*
X020809Y010068D01*
X020825Y010145D01*
X020825Y010185D01*
X020825Y010224D01*
X020809Y010302D01*
X020779Y010374D01*
X020736Y010440D01*
X020680Y010496D01*
X020614Y010539D01*
X020542Y010569D01*
X020464Y010585D01*
X020185Y010585D01*
X020185Y010185D01*
X020185Y010185D01*
X020825Y010185D01*
X020185Y010185D01*
X020185Y010185D01*
X020185Y010585D01*
X019905Y010585D01*
X019828Y010569D01*
X019755Y010539D01*
X019690Y010496D01*
X019568Y010319D02*
X019059Y010319D01*
X019218Y010161D02*
X019545Y010161D01*
X019588Y010002D02*
X019377Y010002D01*
X019535Y009844D02*
X019735Y009844D01*
X019694Y009685D02*
X024175Y009685D01*
X024334Y009527D02*
X022262Y009527D01*
X022369Y009368D02*
X024493Y009368D01*
X024651Y009210D02*
X022405Y009210D01*
X022389Y009051D02*
X024810Y009051D01*
X024825Y008892D02*
X022311Y008892D01*
X022090Y008734D02*
X024825Y008734D01*
X024825Y008575D02*
X021584Y008575D01*
X021426Y008417D02*
X024825Y008417D01*
X024825Y008258D02*
X020437Y008258D01*
X019933Y008258D02*
X016545Y008258D01*
X016545Y008100D02*
X024825Y008100D01*
X024762Y007941D02*
X016545Y007941D01*
X016545Y007783D02*
X024705Y007783D01*
X024705Y007624D02*
X020619Y007624D01*
X019751Y007624D02*
X016619Y007624D01*
X016823Y007466D02*
X019547Y007466D01*
X019476Y007307D02*
X016894Y007307D01*
X016905Y007148D02*
X019465Y007148D01*
X019506Y006990D02*
X016864Y006990D01*
X016750Y006831D02*
X019620Y006831D01*
X020802Y006514D02*
X016545Y006514D01*
X016545Y006356D02*
X020772Y006356D01*
X020772Y006197D02*
X016545Y006197D01*
X016545Y006039D02*
X020772Y006039D01*
X020772Y005880D02*
X016545Y005880D01*
X016545Y005722D02*
X020772Y005722D01*
X020772Y005563D02*
X017372Y005563D01*
X017351Y005585D02*
X017185Y005585D01*
X017185Y005185D01*
X017585Y005185D01*
X017585Y005351D01*
X017351Y005585D01*
X017185Y005585D02*
X017019Y005585D01*
X016785Y005351D01*
X016785Y005185D01*
X017184Y005185D01*
X017184Y005185D01*
X016785Y005185D01*
X016785Y005019D01*
X017019Y004785D01*
X017185Y004785D01*
X017351Y004785D01*
X017585Y005019D01*
X017585Y005185D01*
X017185Y005185D01*
X017185Y005185D01*
X017185Y005185D01*
X017185Y005585D01*
X017185Y005563D02*
X017185Y005563D01*
X017185Y005404D02*
X017185Y005404D01*
X017185Y005246D02*
X017185Y005246D01*
X017185Y005184D02*
X017185Y004785D01*
X017185Y005184D01*
X017185Y005184D01*
X017185Y005087D02*
X017185Y005087D01*
X017185Y004929D02*
X017185Y004929D01*
X017494Y004929D02*
X020772Y004929D01*
X020772Y005087D02*
X017585Y005087D01*
X017585Y005246D02*
X020772Y005246D01*
X020772Y005404D02*
X017531Y005404D01*
X016997Y005563D02*
X016545Y005563D01*
X016644Y005404D02*
X016839Y005404D01*
X016785Y005246D02*
X016665Y005246D01*
X016665Y005087D02*
X016785Y005087D01*
X016875Y004929D02*
X016608Y004929D01*
X016449Y004770D02*
X020837Y004770D01*
X020908Y004612D02*
X012962Y004612D01*
X012803Y004453D02*
X021067Y004453D01*
X025303Y004453D02*
X034567Y004453D01*
X034408Y004612D02*
X025462Y004612D01*
X025533Y004770D02*
X029421Y004770D01*
X029486Y004705D02*
X029884Y004705D01*
X030165Y004986D01*
X030165Y005384D01*
X030045Y005504D01*
X030045Y006715D01*
X030197Y006778D01*
X030332Y006913D01*
X030405Y007089D01*
X030405Y007280D01*
X030332Y007457D01*
X030197Y007592D01*
X030045Y007655D01*
X030045Y008366D01*
X030165Y008486D01*
X030165Y008884D01*
X029884Y009165D01*
X029486Y009165D01*
X029205Y008884D01*
X029205Y008486D01*
X029325Y008366D01*
X029325Y007655D01*
X029173Y007592D01*
X029038Y007457D01*
X028965Y007280D01*
X028965Y007089D01*
X029038Y006913D01*
X029173Y006778D01*
X029325Y006715D01*
X029325Y005504D01*
X029205Y005384D01*
X029205Y004986D01*
X029486Y004705D01*
X029262Y004929D02*
X027494Y004929D01*
X027585Y005019D02*
X027585Y005185D01*
X027585Y005351D01*
X027351Y005585D01*
X027185Y005585D01*
X027185Y005185D01*
X027185Y005185D01*
X027585Y005185D01*
X027185Y005185D01*
X027185Y005185D01*
X027185Y005585D01*
X027019Y005585D01*
X026785Y005351D01*
X026785Y005185D01*
X027184Y005185D01*
X027184Y005185D01*
X026785Y005185D01*
X026785Y005019D01*
X027019Y004785D01*
X027185Y004785D01*
X027351Y004785D01*
X027585Y005019D01*
X027585Y005087D02*
X029205Y005087D01*
X029205Y005246D02*
X027585Y005246D01*
X027531Y005404D02*
X029226Y005404D01*
X029325Y005563D02*
X027372Y005563D01*
X027384Y005705D02*
X026986Y005705D01*
X026705Y005986D01*
X026705Y006384D01*
X026986Y006665D01*
X027156Y006665D01*
X027825Y007334D01*
X027825Y007366D01*
X027705Y007486D01*
X027705Y007884D01*
X027986Y008165D01*
X028384Y008165D01*
X028665Y007884D01*
X028665Y007486D01*
X028545Y007366D01*
X028545Y007256D01*
X028545Y007113D01*
X028490Y006981D01*
X027665Y006156D01*
X027665Y005986D01*
X027384Y005705D01*
X027400Y005722D02*
X029325Y005722D01*
X029325Y005880D02*
X027559Y005880D01*
X027665Y006039D02*
X029325Y006039D01*
X029325Y006197D02*
X027706Y006197D01*
X027865Y006356D02*
X029325Y006356D01*
X029325Y006514D02*
X028023Y006514D01*
X028182Y006673D02*
X029325Y006673D01*
X029120Y006831D02*
X028340Y006831D01*
X028494Y006990D02*
X029006Y006990D01*
X028965Y007148D02*
X028545Y007148D01*
X028545Y007307D02*
X028976Y007307D01*
X029047Y007466D02*
X028644Y007466D01*
X028665Y007624D02*
X029251Y007624D01*
X029325Y007783D02*
X028665Y007783D01*
X028607Y007941D02*
X029325Y007941D01*
X029325Y008100D02*
X028449Y008100D01*
X027921Y008100D02*
X026949Y008100D01*
X027107Y007941D02*
X027762Y007941D01*
X027705Y007783D02*
X027165Y007783D01*
X027165Y007624D02*
X027705Y007624D01*
X027725Y007466D02*
X027144Y007466D01*
X026986Y007307D02*
X027798Y007307D01*
X027639Y007148D02*
X023230Y007148D01*
X023072Y007307D02*
X024884Y007307D01*
X024725Y007466D02*
X022913Y007466D01*
X023640Y006990D02*
X024310Y006990D01*
X024141Y006831D02*
X023808Y006831D01*
X023922Y006673D02*
X024028Y006673D01*
X025220Y006990D02*
X027481Y006990D01*
X027322Y006831D02*
X025388Y006831D01*
X025502Y006673D02*
X027164Y006673D01*
X026836Y006514D02*
X025568Y006514D01*
X025597Y006356D02*
X026705Y006356D01*
X026705Y006197D02*
X025597Y006197D01*
X025597Y006039D02*
X026705Y006039D01*
X026811Y005880D02*
X025597Y005880D01*
X025597Y005722D02*
X026969Y005722D01*
X026997Y005563D02*
X025597Y005563D01*
X025597Y005404D02*
X026839Y005404D01*
X026785Y005246D02*
X025597Y005246D01*
X025597Y005087D02*
X026785Y005087D01*
X026875Y004929D02*
X025597Y004929D01*
X027185Y004929D02*
X027185Y004929D01*
X027185Y004785D02*
X027185Y005184D01*
X027185Y005184D01*
X027185Y004785D01*
X027185Y005087D02*
X027185Y005087D01*
X027185Y005246D02*
X027185Y005246D01*
X027185Y005404D02*
X027185Y005404D01*
X027185Y005563D02*
X027185Y005563D01*
X030045Y005563D02*
X030497Y005563D01*
X030519Y005585D02*
X030285Y005351D01*
X030285Y005185D01*
X030684Y005185D01*
X030684Y005185D01*
X030285Y005185D01*
X030285Y005019D01*
X030519Y004785D01*
X030685Y004785D01*
X030851Y004785D01*
X031085Y005019D01*
X031085Y005185D01*
X031085Y005351D01*
X030851Y005585D01*
X030685Y005585D01*
X030685Y005185D01*
X031085Y005185D01*
X030685Y005185D01*
X030685Y005185D01*
X030685Y005185D01*
X030685Y005585D01*
X030519Y005585D01*
X030685Y005563D02*
X030685Y005563D01*
X030685Y005404D02*
X030685Y005404D01*
X030685Y005246D02*
X030685Y005246D01*
X030685Y005184D02*
X030685Y004785D01*
X030685Y005184D01*
X030685Y005184D01*
X030685Y005087D02*
X030685Y005087D01*
X030685Y004929D02*
X030685Y004929D01*
X030994Y004929D02*
X034272Y004929D01*
X034272Y005087D02*
X031085Y005087D01*
X031085Y005246D02*
X034272Y005246D01*
X034272Y005404D02*
X031031Y005404D01*
X030872Y005563D02*
X034272Y005563D01*
X034272Y005722D02*
X030045Y005722D01*
X030045Y005880D02*
X034272Y005880D01*
X034272Y006039D02*
X030045Y006039D01*
X030045Y006197D02*
X034272Y006197D01*
X034272Y006356D02*
X030045Y006356D01*
X030045Y006514D02*
X034302Y006514D01*
X034368Y006673D02*
X030045Y006673D01*
X030250Y006831D02*
X033120Y006831D01*
X033006Y006990D02*
X030364Y006990D01*
X030405Y007148D02*
X032965Y007148D01*
X032976Y007307D02*
X030394Y007307D01*
X030323Y007466D02*
X033047Y007466D01*
X033251Y007624D02*
X030119Y007624D01*
X030045Y007783D02*
X038205Y007783D01*
X038205Y007624D02*
X034119Y007624D01*
X033937Y008258D02*
X038325Y008258D01*
X038325Y008100D02*
X030045Y008100D01*
X030045Y008258D02*
X033433Y008258D01*
X033274Y008417D02*
X030096Y008417D01*
X030165Y008575D02*
X033205Y008575D01*
X033127Y008734D02*
X030165Y008734D01*
X030156Y008892D02*
X032968Y008892D01*
X032810Y009051D02*
X029998Y009051D01*
X029372Y009051D02*
X025545Y009051D01*
X025545Y008892D02*
X029214Y008892D01*
X029205Y008734D02*
X025545Y008734D01*
X025545Y008575D02*
X029205Y008575D01*
X029274Y008417D02*
X025545Y008417D01*
X025545Y008258D02*
X029325Y008258D01*
X030045Y007941D02*
X038262Y007941D01*
X038325Y008417D02*
X034926Y008417D01*
X035084Y008575D02*
X038325Y008575D01*
X038325Y008734D02*
X035590Y008734D01*
X035811Y008892D02*
X038325Y008892D01*
X038325Y009051D02*
X035889Y009051D01*
X035905Y009210D02*
X038325Y009210D01*
X038325Y009368D02*
X035869Y009368D01*
X035762Y009527D02*
X038325Y009527D01*
X038175Y009685D02*
X033194Y009685D01*
X033255Y009830D02*
X033328Y009800D01*
X033405Y009785D01*
X033685Y009785D01*
X033964Y009785D01*
X034042Y009800D01*
X034114Y009830D01*
X034180Y009874D01*
X034236Y009930D01*
X034279Y009995D01*
X034309Y010068D01*
X034325Y010145D01*
X034325Y010185D01*
X034325Y010224D01*
X034309Y010302D01*
X034279Y010374D01*
X034236Y010440D01*
X034180Y010496D01*
X034114Y010539D01*
X034042Y010569D01*
X033964Y010585D01*
X033685Y010585D01*
X033685Y010185D01*
X033685Y010185D01*
X034325Y010185D01*
X033685Y010185D01*
X033685Y010185D01*
X033685Y010585D01*
X033405Y010585D01*
X033328Y010569D01*
X033255Y010539D01*
X033190Y010496D01*
X033134Y010440D01*
X033090Y010374D01*
X033060Y010302D01*
X033045Y010224D01*
X033045Y010185D01*
X033684Y010185D01*
X033684Y010185D01*
X033045Y010185D01*
X033045Y010145D01*
X033060Y010068D01*
X033090Y009995D01*
X033134Y009930D01*
X033190Y009874D01*
X033255Y009830D01*
X033235Y009844D02*
X033035Y009844D01*
X033088Y010002D02*
X032877Y010002D01*
X032718Y010161D02*
X033045Y010161D01*
X033068Y010319D02*
X032559Y010319D01*
X032545Y010478D02*
X033172Y010478D01*
X033685Y010478D02*
X033685Y010478D01*
X033685Y010319D02*
X033685Y010319D01*
X033685Y010184D02*
X033685Y009785D01*
X033685Y010184D01*
X033685Y010184D01*
X033685Y010161D02*
X033685Y010161D01*
X033685Y010002D02*
X033685Y010002D01*
X033685Y009844D02*
X033685Y009844D01*
X034134Y009844D02*
X034607Y009844D01*
X034501Y010002D02*
X034282Y010002D01*
X034325Y010161D02*
X034465Y010161D01*
X034481Y010319D02*
X034302Y010319D01*
X034198Y010478D02*
X034559Y010478D01*
X034781Y010636D02*
X032545Y010636D01*
X032545Y010795D02*
X034656Y010795D01*
X034673Y010778D02*
X034849Y010705D01*
X035520Y010705D01*
X035697Y010778D01*
X035832Y010913D01*
X035905Y011089D01*
X035905Y011280D01*
X035832Y011457D01*
X035697Y011592D01*
X035520Y011665D01*
X035214Y011665D01*
X034990Y011889D01*
X034889Y011990D01*
X034756Y012045D01*
X034004Y012045D01*
X033884Y012165D01*
X033486Y012165D01*
X033205Y011884D01*
X033205Y011486D01*
X033486Y011205D01*
X033884Y011205D01*
X034004Y011325D01*
X034483Y011325D01*
X034465Y011280D01*
X034465Y011089D01*
X034538Y010913D01*
X034673Y010778D01*
X034521Y010954D02*
X032545Y010954D01*
X032545Y011112D02*
X034465Y011112D01*
X034465Y011271D02*
X033949Y011271D01*
X033420Y011271D02*
X032545Y011271D01*
X032545Y011429D02*
X033262Y011429D01*
X033205Y011588D02*
X032597Y011588D01*
X032755Y011746D02*
X033205Y011746D01*
X033226Y011905D02*
X032914Y011905D01*
X033072Y012063D02*
X033385Y012063D01*
X033231Y012222D02*
X039825Y012222D01*
X039825Y012380D02*
X037389Y012380D01*
X037548Y012539D02*
X039825Y012539D01*
X039825Y012697D02*
X037707Y012697D01*
X037865Y012856D02*
X039825Y012856D01*
X039825Y013015D02*
X038004Y013015D01*
X038045Y013173D02*
X039825Y013173D01*
X039825Y013332D02*
X038045Y013332D01*
X038045Y013490D02*
X039825Y013490D01*
X039825Y013649D02*
X038045Y013649D01*
X038045Y013807D02*
X039825Y013807D01*
X039825Y013966D02*
X038045Y013966D01*
X038045Y014124D02*
X039825Y014124D01*
X039825Y014283D02*
X038045Y014283D01*
X038045Y014441D02*
X039825Y014441D01*
X039825Y014600D02*
X038045Y014600D01*
X038045Y014759D02*
X039825Y014759D01*
X039825Y014917D02*
X038045Y014917D01*
X038045Y015076D02*
X039825Y015076D01*
X039825Y015234D02*
X038045Y015234D01*
X038045Y015393D02*
X039825Y015393D01*
X039825Y015551D02*
X038045Y015551D01*
X038045Y015710D02*
X039825Y015710D01*
X039825Y015868D02*
X038045Y015868D01*
X038045Y016027D02*
X039825Y016027D01*
X039825Y016185D02*
X038045Y016185D01*
X038045Y016344D02*
X039825Y016344D01*
X039825Y016503D02*
X038045Y016503D01*
X038045Y016661D02*
X039825Y016661D01*
X039825Y016820D02*
X038045Y016820D01*
X038045Y016978D02*
X039825Y016978D01*
X039825Y017137D02*
X038045Y017137D01*
X038195Y017295D02*
X039674Y017295D01*
X039775Y017195D02*
X039825Y017195D01*
X039825Y012004D01*
X039705Y011884D01*
X039705Y011486D01*
X039986Y011205D01*
X040384Y011205D01*
X040504Y011325D01*
X041366Y011325D01*
X041486Y011205D01*
X041884Y011205D01*
X042165Y011486D01*
X042165Y011884D01*
X041884Y012165D01*
X041486Y012165D01*
X041366Y012045D01*
X040545Y012045D01*
X040545Y017195D01*
X040595Y017195D01*
X041175Y017775D01*
X041175Y018097D01*
X041221Y017834D01*
X041399Y017526D01*
X041399Y017526D01*
X041672Y017297D01*
X042007Y017175D01*
X042129Y017175D01*
X042129Y017175D01*
X042185Y017175D01*
X042200Y017175D01*
X042241Y017175D01*
X042363Y017175D01*
X042698Y017297D01*
X042970Y017526D01*
X043149Y017834D01*
X043210Y018185D01*
X043149Y018536D01*
X042970Y018844D01*
X042698Y019073D01*
X042698Y019073D01*
X042363Y019195D01*
X042241Y019195D01*
X042185Y019195D01*
X042183Y019195D01*
X042129Y019195D01*
X042129Y019195D01*
X042007Y019195D01*
X041672Y019073D01*
X041399Y018844D01*
X041221Y018536D01*
X041221Y018536D01*
X041175Y018273D01*
X041175Y018595D01*
X040595Y019175D01*
X039775Y019175D01*
X039195Y018595D01*
X039195Y017775D01*
X039775Y017195D01*
X039516Y017454D02*
X038354Y017454D01*
X038512Y017612D02*
X039357Y017612D01*
X039199Y017771D02*
X038671Y017771D01*
X038675Y017929D02*
X039195Y017929D01*
X039195Y018088D02*
X038675Y018088D01*
X038675Y018246D02*
X039195Y018246D01*
X039195Y018405D02*
X038675Y018405D01*
X038675Y018564D02*
X039195Y018564D01*
X039322Y018722D02*
X038548Y018722D01*
X038389Y018881D02*
X039481Y018881D01*
X039639Y019039D02*
X038231Y019039D01*
X037139Y019039D02*
X035731Y019039D01*
X035889Y018881D02*
X036981Y018881D01*
X036822Y018722D02*
X036048Y018722D01*
X036175Y018564D02*
X036695Y018564D01*
X036695Y018405D02*
X036175Y018405D01*
X036175Y018246D02*
X036695Y018246D01*
X036695Y018088D02*
X036175Y018088D01*
X036175Y017929D02*
X036695Y017929D01*
X036699Y017771D02*
X036171Y017771D01*
X036012Y017612D02*
X036857Y017612D01*
X037016Y017454D02*
X035854Y017454D01*
X035695Y017295D02*
X037174Y017295D01*
X037325Y017137D02*
X034646Y017137D01*
X034487Y016978D02*
X037325Y016978D01*
X037325Y016820D02*
X034329Y016820D01*
X034170Y016661D02*
X037325Y016661D01*
X037325Y016503D02*
X034012Y016503D01*
X033853Y016344D02*
X037325Y016344D01*
X037325Y016185D02*
X033694Y016185D01*
X033536Y016027D02*
X037325Y016027D01*
X037325Y015868D02*
X033361Y015868D01*
X032719Y015710D02*
X037325Y015710D01*
X037325Y015551D02*
X032560Y015551D01*
X032402Y015393D02*
X037325Y015393D01*
X037325Y015234D02*
X032243Y015234D01*
X032085Y015076D02*
X037325Y015076D01*
X037325Y014917D02*
X031926Y014917D01*
X031768Y014759D02*
X037325Y014759D01*
X037325Y014600D02*
X031609Y014600D01*
X031451Y014441D02*
X031876Y014441D01*
X031785Y014351D02*
X032019Y014585D01*
X032185Y014585D01*
X032185Y014185D01*
X032185Y014185D01*
X032585Y014185D01*
X032585Y014351D01*
X032351Y014585D01*
X032185Y014585D01*
X032185Y014185D01*
X032185Y014185D01*
X032585Y014185D01*
X032585Y014019D01*
X032351Y013785D01*
X032185Y013785D01*
X032185Y014184D01*
X032185Y014184D01*
X032185Y013785D01*
X032019Y013785D01*
X031785Y014019D01*
X031785Y014185D01*
X032184Y014185D01*
X032184Y014185D01*
X031785Y014185D01*
X031785Y014351D01*
X031785Y014283D02*
X031292Y014283D01*
X031133Y014124D02*
X031785Y014124D01*
X031838Y013966D02*
X030975Y013966D01*
X030816Y013807D02*
X031997Y013807D01*
X031970Y013649D02*
X030900Y013649D01*
X030205Y013196D02*
X030205Y012986D01*
X030325Y012866D01*
X030325Y011334D01*
X030236Y011245D01*
X028424Y011245D01*
X028665Y011486D01*
X028665Y011656D01*
X030205Y013196D01*
X030205Y013173D02*
X030182Y013173D01*
X030205Y013015D02*
X030024Y013015D01*
X029865Y012856D02*
X030325Y012856D01*
X030325Y012697D02*
X029707Y012697D01*
X029548Y012539D02*
X030325Y012539D01*
X030325Y012380D02*
X029389Y012380D01*
X029231Y012222D02*
X030325Y012222D01*
X030325Y012063D02*
X029872Y012063D01*
X029851Y012085D02*
X029685Y012085D01*
X029685Y011685D01*
X030085Y011685D01*
X030085Y011851D01*
X029851Y012085D01*
X029685Y012085D02*
X029519Y012085D01*
X029285Y011851D01*
X029285Y011685D01*
X029684Y011685D01*
X029684Y011685D01*
X029285Y011685D01*
X029285Y011519D01*
X029519Y011285D01*
X029685Y011285D01*
X029851Y011285D01*
X030085Y011519D01*
X030085Y011685D01*
X029685Y011685D01*
X029685Y011685D01*
X029685Y011685D01*
X029685Y012085D01*
X029685Y012063D02*
X029685Y012063D01*
X029685Y011905D02*
X029685Y011905D01*
X029685Y011746D02*
X029685Y011746D01*
X029685Y011684D02*
X029685Y011285D01*
X029685Y011684D01*
X029685Y011684D01*
X029685Y011588D02*
X029685Y011588D01*
X029685Y011429D02*
X029685Y011429D01*
X029995Y011429D02*
X030325Y011429D01*
X030325Y011588D02*
X030085Y011588D01*
X030085Y011746D02*
X030325Y011746D01*
X030325Y011905D02*
X030031Y011905D01*
X029498Y012063D02*
X029072Y012063D01*
X028914Y011905D02*
X029339Y011905D01*
X029285Y011746D02*
X028755Y011746D01*
X028665Y011588D02*
X029285Y011588D01*
X029375Y011429D02*
X028608Y011429D01*
X028449Y011271D02*
X030261Y011271D01*
X030804Y010795D02*
X031825Y010795D01*
X031825Y010954D02*
X030963Y010954D01*
X031044Y011112D02*
X031825Y011112D01*
X031825Y011271D02*
X031045Y011271D01*
X031045Y011429D02*
X031825Y011429D01*
X031825Y011588D02*
X031045Y011588D01*
X031045Y011746D02*
X031825Y011746D01*
X031896Y011905D02*
X031045Y011905D01*
X031045Y012063D02*
X032054Y012063D01*
X032213Y012222D02*
X031045Y012222D01*
X031045Y012380D02*
X032371Y012380D01*
X032530Y012539D02*
X031045Y012539D01*
X031045Y012697D02*
X032688Y012697D01*
X032535Y012856D02*
X032847Y012856D01*
X032665Y013015D02*
X033040Y013015D01*
X032665Y013173D02*
X037164Y013173D01*
X037323Y013332D02*
X032665Y013332D01*
X032558Y013490D02*
X037325Y013490D01*
X037325Y013649D02*
X032400Y013649D01*
X032373Y013807D02*
X037325Y013807D01*
X037325Y013966D02*
X032531Y013966D01*
X032585Y014124D02*
X037325Y014124D01*
X037325Y014283D02*
X032585Y014283D01*
X032494Y014441D02*
X037325Y014441D01*
X040545Y014441D02*
X043405Y014441D01*
X043405Y014283D02*
X040545Y014283D01*
X040545Y014124D02*
X043405Y014124D01*
X043405Y013966D02*
X040545Y013966D01*
X040545Y013807D02*
X043405Y013807D01*
X043405Y013649D02*
X040545Y013649D01*
X040545Y013490D02*
X043405Y013490D01*
X043405Y013332D02*
X040545Y013332D01*
X040545Y013173D02*
X043405Y013173D01*
X043405Y013015D02*
X040545Y013015D01*
X040545Y012856D02*
X043405Y012856D01*
X043405Y012697D02*
X040545Y012697D01*
X040545Y012539D02*
X043405Y012539D01*
X043405Y012380D02*
X040545Y012380D01*
X040545Y012222D02*
X043405Y012222D01*
X043405Y012063D02*
X041985Y012063D01*
X042144Y011905D02*
X043405Y011905D01*
X043405Y011746D02*
X042165Y011746D01*
X042165Y011588D02*
X043405Y011588D01*
X043405Y011429D02*
X042108Y011429D01*
X041949Y011271D02*
X043405Y011271D01*
X043405Y011112D02*
X035905Y011112D01*
X035905Y011271D02*
X039920Y011271D01*
X039762Y011429D02*
X038995Y011429D01*
X039085Y011519D02*
X038851Y011285D01*
X038685Y011285D01*
X038685Y011684D01*
X038685Y011684D01*
X038685Y011285D01*
X038519Y011285D01*
X038285Y011519D01*
X038285Y011685D01*
X038684Y011685D01*
X038684Y011685D01*
X038285Y011685D01*
X038285Y011851D01*
X038519Y012085D01*
X038685Y012085D01*
X038685Y011685D01*
X038685Y011685D01*
X039085Y011685D01*
X039085Y011851D01*
X038851Y012085D01*
X038685Y012085D01*
X038685Y011685D01*
X038685Y011685D01*
X039085Y011685D01*
X039085Y011519D01*
X039085Y011588D02*
X039705Y011588D01*
X039705Y011746D02*
X039085Y011746D01*
X039031Y011905D02*
X039726Y011905D01*
X039825Y012063D02*
X038872Y012063D01*
X038685Y012063D02*
X038685Y012063D01*
X038685Y011905D02*
X038685Y011905D01*
X038685Y011746D02*
X038685Y011746D01*
X038685Y011588D02*
X038685Y011588D01*
X038685Y011429D02*
X038685Y011429D01*
X038375Y011429D02*
X035843Y011429D01*
X035701Y011588D02*
X038285Y011588D01*
X038285Y011746D02*
X035133Y011746D01*
X034974Y011905D02*
X038339Y011905D01*
X038498Y012063D02*
X033985Y012063D01*
X035849Y010954D02*
X043405Y010954D01*
X043405Y010795D02*
X035714Y010795D01*
X035589Y010636D02*
X043405Y010636D01*
X043405Y010478D02*
X038401Y010478D01*
X038559Y010319D02*
X043405Y010319D01*
X043405Y010161D02*
X038718Y010161D01*
X038877Y010002D02*
X043405Y010002D01*
X043405Y009844D02*
X039009Y009844D01*
X039045Y009685D02*
X043405Y009685D01*
X043405Y009527D02*
X039045Y009527D01*
X039045Y009368D02*
X043405Y009368D01*
X043405Y009210D02*
X039045Y009210D01*
X039045Y009051D02*
X043405Y009051D01*
X043405Y008892D02*
X039045Y008892D01*
X039045Y008734D02*
X043405Y008734D01*
X043405Y008575D02*
X039045Y008575D01*
X039045Y008417D02*
X043405Y008417D01*
X043405Y008258D02*
X039045Y008258D01*
X039045Y008100D02*
X039921Y008100D01*
X039884Y007307D02*
X038986Y007307D01*
X034501Y009368D02*
X033511Y009368D01*
X033669Y009210D02*
X034465Y009210D01*
X034481Y009051D02*
X033998Y009051D01*
X034608Y009527D02*
X033352Y009527D01*
X032651Y009210D02*
X025545Y009210D01*
X025499Y009368D02*
X032493Y009368D01*
X032334Y009527D02*
X025352Y009527D01*
X025194Y009685D02*
X032175Y009685D01*
X031825Y010636D02*
X030646Y010636D01*
X029059Y010478D02*
X024401Y010478D01*
X024559Y010319D02*
X028981Y010319D01*
X028965Y010161D02*
X024718Y010161D01*
X024877Y010002D02*
X029001Y010002D01*
X029107Y009844D02*
X025035Y009844D01*
X025019Y011285D02*
X024785Y011519D01*
X024785Y011685D01*
X025184Y011685D01*
X025184Y011685D01*
X024785Y011685D01*
X024785Y011851D01*
X025019Y012085D01*
X025185Y012085D01*
X025185Y011685D01*
X025185Y011685D01*
X025585Y011685D01*
X025585Y011851D01*
X025351Y012085D01*
X025185Y012085D01*
X025185Y011685D01*
X025185Y011685D01*
X025585Y011685D01*
X025585Y011519D01*
X025351Y011285D01*
X025185Y011285D01*
X025185Y011684D01*
X025185Y011684D01*
X025185Y011285D01*
X025019Y011285D01*
X024875Y011429D02*
X024650Y011429D01*
X024785Y011588D02*
X024491Y011588D01*
X024333Y011746D02*
X024785Y011746D01*
X024839Y011905D02*
X024174Y011905D01*
X024016Y012063D02*
X024998Y012063D01*
X025185Y012063D02*
X025185Y012063D01*
X025185Y011905D02*
X025185Y011905D01*
X025185Y011746D02*
X025185Y011746D01*
X025185Y011588D02*
X025185Y011588D01*
X025185Y011429D02*
X025185Y011429D01*
X025495Y011429D02*
X026262Y011429D01*
X026205Y011588D02*
X025585Y011588D01*
X025585Y011746D02*
X026205Y011746D01*
X026226Y011905D02*
X025531Y011905D01*
X025372Y012063D02*
X026385Y012063D01*
X026985Y012063D02*
X027885Y012063D01*
X028213Y012222D02*
X023857Y012222D01*
X023698Y012380D02*
X024980Y012380D01*
X024822Y012539D02*
X023540Y012539D01*
X023381Y012697D02*
X024663Y012697D01*
X024335Y012856D02*
X022035Y012856D01*
X022165Y013015D02*
X024205Y013015D01*
X024188Y013173D02*
X022165Y013173D01*
X022165Y013332D02*
X022859Y013332D01*
X022705Y013490D02*
X022058Y013490D01*
X022045Y013649D02*
X022705Y013649D01*
X022705Y013807D02*
X022045Y013807D01*
X022045Y013966D02*
X022787Y013966D01*
X022946Y014124D02*
X022045Y014124D01*
X022045Y014283D02*
X026825Y014283D01*
X026825Y014441D02*
X023507Y014441D01*
X023585Y014519D02*
X023585Y014685D01*
X023585Y014851D01*
X023351Y015085D01*
X023185Y015085D01*
X023185Y014685D01*
X023185Y014685D01*
X023585Y014685D01*
X023185Y014685D01*
X023185Y014685D01*
X023185Y015085D01*
X023019Y015085D01*
X022785Y014851D01*
X022785Y014685D01*
X023184Y014685D01*
X023184Y014685D01*
X022785Y014685D01*
X022785Y014519D01*
X023019Y014285D01*
X023185Y014285D01*
X023351Y014285D01*
X023585Y014519D01*
X023585Y014600D02*
X026825Y014600D01*
X026826Y014759D02*
X023585Y014759D01*
X023518Y014917D02*
X026908Y014917D01*
X027067Y015076D02*
X023360Y015076D01*
X023185Y015076D02*
X023185Y015076D01*
X023185Y014917D02*
X023185Y014917D01*
X023185Y014759D02*
X023185Y014759D01*
X023185Y014684D02*
X023185Y014285D01*
X023185Y014684D01*
X023185Y014684D01*
X023185Y014600D02*
X023185Y014600D01*
X023185Y014441D02*
X023185Y014441D01*
X022863Y014441D02*
X022045Y014441D01*
X022045Y014600D02*
X022785Y014600D01*
X022785Y014759D02*
X022045Y014759D01*
X022045Y014917D02*
X022851Y014917D01*
X023010Y015076D02*
X022045Y015076D01*
X022045Y015234D02*
X027225Y015234D01*
X027384Y015393D02*
X023458Y015393D01*
X023351Y015285D02*
X023585Y015519D01*
X023585Y015685D01*
X023585Y015851D01*
X023351Y016085D01*
X023185Y016085D01*
X023185Y015685D01*
X023185Y015685D01*
X023585Y015685D01*
X023185Y015685D01*
X023185Y015685D01*
X023185Y016085D01*
X023019Y016085D01*
X022785Y015851D01*
X022785Y015685D01*
X023184Y015685D01*
X023184Y015685D01*
X022785Y015685D01*
X022785Y015519D01*
X023019Y015285D01*
X023185Y015285D01*
X023351Y015285D01*
X023185Y015285D02*
X023185Y015684D01*
X023185Y015684D01*
X023185Y015285D01*
X023185Y015393D02*
X023185Y015393D01*
X023185Y015551D02*
X023185Y015551D01*
X023185Y015710D02*
X023185Y015710D01*
X023185Y015868D02*
X023185Y015868D01*
X023185Y016027D02*
X023185Y016027D01*
X023408Y016027D02*
X027825Y016027D01*
X027825Y016185D02*
X027470Y016185D01*
X027629Y016344D02*
X027741Y016344D01*
X028545Y016185D02*
X028899Y016185D01*
X028741Y016344D02*
X028629Y016344D01*
X028545Y016027D02*
X032018Y016027D01*
X032176Y016185D02*
X029470Y016185D01*
X029629Y016344D02*
X032335Y016344D01*
X032511Y016503D02*
X029740Y016503D01*
X029740Y016661D02*
X033152Y016661D01*
X033311Y016820D02*
X030998Y016820D01*
X031157Y016978D02*
X033469Y016978D01*
X033628Y017137D02*
X031165Y017137D01*
X031165Y017295D02*
X032174Y017295D01*
X032016Y017454D02*
X031095Y017454D01*
X030936Y017612D02*
X031857Y017612D01*
X031699Y017771D02*
X030608Y017771D01*
X030065Y017295D02*
X029304Y017295D01*
X029518Y017137D02*
X030205Y017137D01*
X030213Y016978D02*
X029676Y016978D01*
X029740Y016820D02*
X030371Y016820D01*
X031859Y015868D02*
X028545Y015868D01*
X028545Y015710D02*
X031701Y015710D01*
X031542Y015551D02*
X028519Y015551D01*
X028402Y015393D02*
X031384Y015393D01*
X031225Y015234D02*
X028243Y015234D01*
X028085Y015076D02*
X031067Y015076D01*
X030908Y014917D02*
X027926Y014917D01*
X027768Y014759D02*
X030749Y014759D01*
X030591Y014600D02*
X027609Y014600D01*
X027545Y014441D02*
X030432Y014441D01*
X030274Y014283D02*
X027545Y014283D01*
X027545Y014124D02*
X027840Y014124D01*
X028530Y014124D02*
X028953Y014124D01*
X028794Y013966D02*
X028689Y013966D01*
X029185Y013966D02*
X029185Y013966D01*
X029185Y014124D02*
X029185Y014124D01*
X029417Y014124D02*
X030115Y014124D01*
X029957Y013966D02*
X029576Y013966D01*
X029660Y013807D02*
X029798Y013807D01*
X029185Y013807D02*
X029185Y013807D01*
X029185Y013684D02*
X029185Y013210D01*
X029185Y013684D01*
X029185Y013684D01*
X029185Y013649D02*
X029185Y013649D01*
X029185Y013490D02*
X029185Y013490D01*
X029185Y013332D02*
X029185Y013332D01*
X029164Y013173D02*
X028458Y013173D01*
X028616Y013332D02*
X028866Y013332D01*
X029006Y013015D02*
X028024Y013015D01*
X027865Y012856D02*
X028847Y012856D01*
X028688Y012697D02*
X027707Y012697D01*
X027548Y012539D02*
X028530Y012539D01*
X028371Y012380D02*
X027389Y012380D01*
X026912Y013173D02*
X026458Y013173D01*
X026616Y013332D02*
X026753Y013332D01*
X025912Y013173D02*
X025206Y013173D01*
X025165Y013332D02*
X025753Y013332D01*
X025630Y013490D02*
X025058Y013490D01*
X024900Y013649D02*
X025630Y013649D01*
X025630Y013807D02*
X024572Y013807D01*
X024413Y013966D02*
X025681Y013966D01*
X025840Y014124D02*
X023424Y014124D01*
X021325Y014124D02*
X020665Y014124D01*
X020665Y014283D02*
X021325Y014283D01*
X021325Y014441D02*
X020607Y014441D01*
X020545Y014600D02*
X021325Y014600D01*
X021325Y014759D02*
X020545Y014759D01*
X020545Y014917D02*
X021325Y014917D01*
X021325Y015076D02*
X020545Y015076D01*
X020545Y015234D02*
X021325Y015234D01*
X021325Y015393D02*
X020571Y015393D01*
X020665Y015551D02*
X021309Y015551D01*
X021151Y015710D02*
X020665Y015710D01*
X020665Y015868D02*
X020992Y015868D01*
X020834Y016027D02*
X020522Y016027D01*
X020675Y016185D02*
X020193Y016185D01*
X020035Y016344D02*
X020517Y016344D01*
X020358Y016503D02*
X019876Y016503D01*
X019718Y016661D02*
X020200Y016661D01*
X020041Y016820D02*
X019559Y016820D01*
X019401Y016978D02*
X019882Y016978D01*
X019825Y017137D02*
X001965Y017137D01*
X001965Y017295D02*
X002676Y017295D01*
X002672Y017297D02*
X003007Y017175D01*
X003129Y017175D01*
X003129Y017175D01*
X003185Y017175D01*
X003203Y017175D01*
X003241Y017175D01*
X003363Y017175D01*
X003698Y017297D01*
X003970Y017526D01*
X004149Y017834D01*
X004210Y018185D01*
X004149Y018536D01*
X003970Y018844D01*
X003698Y019073D01*
X003698Y019073D01*
X003363Y019195D01*
X003241Y019195D01*
X003185Y019195D01*
X003185Y019195D01*
X003129Y019195D01*
X003007Y019195D01*
X002672Y019073D01*
X002399Y018844D01*
X002221Y018536D01*
X002221Y018536D01*
X002159Y018185D01*
X002159Y018185D01*
X002221Y017834D01*
X002399Y017526D01*
X002672Y017297D01*
X002672Y017297D01*
X002485Y017454D02*
X001965Y017454D01*
X001965Y017612D02*
X002349Y017612D01*
X002258Y017771D02*
X001965Y017771D01*
X001965Y017929D02*
X002204Y017929D01*
X002176Y018088D02*
X001965Y018088D01*
X001969Y018246D02*
X002170Y018246D01*
X002198Y018405D02*
X001992Y018405D01*
X002034Y018564D02*
X002237Y018564D01*
X002329Y018722D02*
X002098Y018722D01*
X002190Y018881D02*
X002443Y018881D01*
X002399Y018844D02*
X002399Y018844D01*
X002399Y018844D01*
X002329Y019039D02*
X002632Y019039D01*
X002672Y019073D02*
X002672Y019073D01*
X002520Y019198D02*
X042850Y019198D01*
X042738Y019039D02*
X043041Y019039D01*
X042927Y018881D02*
X043180Y018881D01*
X043271Y018722D02*
X043041Y018722D01*
X042970Y018844D02*
X042970Y018844D01*
X042363Y019195D02*
X042363Y019195D01*
X042241Y019195D02*
X042241Y019195D01*
X042007Y019195D02*
X042007Y019195D01*
X041672Y019073D02*
X041672Y019073D01*
X041632Y019039D02*
X040731Y019039D01*
X040889Y018881D02*
X041443Y018881D01*
X041399Y018844D02*
X041399Y018844D01*
X041399Y018844D01*
X041329Y018722D02*
X041048Y018722D01*
X041175Y018564D02*
X041237Y018564D01*
X041198Y018405D02*
X041175Y018405D01*
X041175Y018088D02*
X041176Y018088D01*
X041175Y017929D02*
X041204Y017929D01*
X041221Y017834D02*
X041221Y017834D01*
X041258Y017771D02*
X041171Y017771D01*
X041012Y017612D02*
X041349Y017612D01*
X041485Y017454D02*
X040854Y017454D01*
X040695Y017295D02*
X041676Y017295D01*
X041672Y017297D02*
X041672Y017297D01*
X042007Y017175D02*
X042007Y017175D01*
X042241Y017175D02*
X042241Y017175D01*
X042363Y017175D02*
X042363Y017175D01*
X042693Y017295D02*
X043405Y017295D01*
X043405Y017137D02*
X040545Y017137D01*
X040545Y016978D02*
X043405Y016978D01*
X043405Y016820D02*
X040545Y016820D01*
X040545Y016661D02*
X043405Y016661D01*
X043405Y016503D02*
X040545Y016503D01*
X040545Y016344D02*
X043405Y016344D01*
X043405Y016185D02*
X040545Y016185D01*
X040545Y016027D02*
X043405Y016027D01*
X043405Y015868D02*
X040545Y015868D01*
X040545Y015710D02*
X043405Y015710D01*
X043405Y015551D02*
X040545Y015551D01*
X040545Y015393D02*
X043405Y015393D01*
X043405Y015234D02*
X040545Y015234D01*
X040545Y015076D02*
X043405Y015076D01*
X043405Y014917D02*
X040545Y014917D01*
X040545Y014759D02*
X043405Y014759D01*
X043405Y014600D02*
X040545Y014600D01*
X040545Y012063D02*
X041385Y012063D01*
X041420Y011271D02*
X040449Y011271D01*
X032185Y013807D02*
X032185Y013807D01*
X032185Y013966D02*
X032185Y013966D01*
X032185Y014124D02*
X032185Y014124D01*
X032185Y014283D02*
X032185Y014283D01*
X032185Y014441D02*
X032185Y014441D01*
X027825Y015868D02*
X023567Y015868D01*
X023585Y015710D02*
X027701Y015710D01*
X027542Y015551D02*
X023585Y015551D01*
X022911Y015393D02*
X022045Y015393D01*
X022045Y015551D02*
X022785Y015551D01*
X022785Y015710D02*
X022045Y015710D01*
X021999Y015868D02*
X022803Y015868D01*
X022961Y016027D02*
X021852Y016027D01*
X021693Y016185D02*
X025899Y016185D01*
X025741Y016344D02*
X024303Y016344D01*
X024256Y016325D02*
X024389Y016380D01*
X024714Y016705D01*
X024884Y016705D01*
X025165Y016986D01*
X025165Y017384D01*
X024884Y017665D01*
X024486Y017665D01*
X024205Y017384D01*
X024205Y017214D01*
X024036Y017045D01*
X023504Y017045D01*
X023384Y017165D01*
X022986Y017165D01*
X022866Y017045D01*
X022334Y017045D01*
X022165Y017214D01*
X022165Y017384D01*
X021884Y017665D01*
X021486Y017665D01*
X021205Y017384D01*
X021205Y016986D01*
X021486Y016705D01*
X021656Y016705D01*
X021981Y016380D01*
X022113Y016325D01*
X022256Y016325D01*
X022866Y016325D01*
X022986Y016205D01*
X023384Y016205D01*
X023504Y016325D01*
X024113Y016325D01*
X024256Y016325D01*
X024512Y016503D02*
X025630Y016503D01*
X025630Y016661D02*
X024670Y016661D01*
X024998Y016820D02*
X025630Y016820D01*
X025693Y016978D02*
X025157Y016978D01*
X025165Y017137D02*
X025852Y017137D01*
X025165Y017295D02*
X026825Y017295D01*
X026825Y017137D02*
X026518Y017137D01*
X026676Y016978D02*
X026693Y016978D01*
X026825Y017454D02*
X025095Y017454D01*
X024936Y017612D02*
X026825Y017612D01*
X026825Y017771D02*
X024058Y017771D01*
X024095Y017808D02*
X024095Y018135D01*
X023235Y018135D01*
X023235Y018235D01*
X024095Y018235D01*
X024095Y018562D01*
X023562Y019095D01*
X023235Y019095D01*
X023235Y018235D01*
X023135Y018235D01*
X023135Y019095D01*
X022808Y019095D01*
X022275Y018562D01*
X022275Y018235D01*
X023135Y018235D01*
X023135Y018135D01*
X023235Y018135D01*
X023235Y017275D01*
X023562Y017275D01*
X024095Y017808D01*
X024095Y017929D02*
X025875Y017929D01*
X025785Y018019D02*
X026019Y017785D01*
X026185Y017785D01*
X026351Y017785D01*
X026585Y018019D01*
X026585Y018185D01*
X026585Y018351D01*
X026351Y018585D01*
X026185Y018585D01*
X026185Y018185D01*
X026585Y018185D01*
X026185Y018185D01*
X026185Y018185D01*
X026185Y018185D01*
X026185Y018585D01*
X026019Y018585D01*
X025785Y018351D01*
X025785Y018185D01*
X026184Y018185D01*
X026184Y018185D01*
X025785Y018185D01*
X025785Y018019D01*
X025785Y018088D02*
X024095Y018088D01*
X024095Y018246D02*
X025785Y018246D01*
X025839Y018405D02*
X024095Y018405D01*
X024093Y018564D02*
X025998Y018564D01*
X026185Y018564D02*
X026185Y018564D01*
X026185Y018405D02*
X026185Y018405D01*
X026185Y018246D02*
X026185Y018246D01*
X026185Y018184D02*
X026185Y017785D01*
X026185Y018184D01*
X026185Y018184D01*
X026185Y018088D02*
X026185Y018088D01*
X026185Y017929D02*
X026185Y017929D01*
X026495Y017929D02*
X026762Y017929D01*
X026705Y018088D02*
X026585Y018088D01*
X026585Y018246D02*
X026705Y018246D01*
X026726Y018405D02*
X026530Y018405D01*
X026372Y018564D02*
X026885Y018564D01*
X027485Y018564D02*
X031695Y018564D01*
X031822Y018722D02*
X023934Y018722D01*
X023776Y018881D02*
X031981Y018881D01*
X032139Y019039D02*
X023617Y019039D01*
X023235Y019039D02*
X023135Y019039D01*
X023135Y018881D02*
X023235Y018881D01*
X023235Y018722D02*
X023135Y018722D01*
X023135Y018564D02*
X023235Y018564D01*
X023235Y018405D02*
X023135Y018405D01*
X023135Y018246D02*
X023235Y018246D01*
X023135Y018135D02*
X022275Y018135D01*
X022275Y017808D01*
X022808Y017275D01*
X023135Y017275D01*
X023135Y018135D01*
X023135Y018088D02*
X023235Y018088D01*
X023235Y017929D02*
X023135Y017929D01*
X023135Y017771D02*
X023235Y017771D01*
X023235Y017612D02*
X023135Y017612D01*
X023135Y017454D02*
X023235Y017454D01*
X023235Y017295D02*
X023135Y017295D01*
X022958Y017137D02*
X022242Y017137D01*
X022165Y017295D02*
X022788Y017295D01*
X022629Y017454D02*
X022095Y017454D01*
X021936Y017612D02*
X022471Y017612D01*
X022312Y017771D02*
X021171Y017771D01*
X021175Y017929D02*
X022275Y017929D01*
X022275Y018088D02*
X021175Y018088D01*
X021175Y018246D02*
X022275Y018246D01*
X022275Y018405D02*
X021175Y018405D01*
X021175Y018564D02*
X022277Y018564D01*
X022435Y018722D02*
X021048Y018722D01*
X020889Y018881D02*
X022594Y018881D01*
X022752Y019039D02*
X020731Y019039D01*
X019639Y019039D02*
X017731Y019039D01*
X017595Y019175D02*
X016775Y019175D01*
X016195Y018595D01*
X016195Y017775D01*
X016775Y017195D01*
X017595Y017195D01*
X018175Y017775D01*
X018175Y018595D01*
X017595Y019175D01*
X017889Y018881D02*
X019481Y018881D01*
X019322Y018722D02*
X018048Y018722D01*
X018175Y018564D02*
X019195Y018564D01*
X019195Y018405D02*
X018175Y018405D01*
X018175Y018246D02*
X019195Y018246D01*
X019195Y018088D02*
X018175Y018088D01*
X018175Y017929D02*
X019195Y017929D01*
X019199Y017771D02*
X018171Y017771D01*
X018012Y017612D02*
X019357Y017612D01*
X019516Y017454D02*
X017854Y017454D01*
X017695Y017295D02*
X019674Y017295D01*
X020695Y017295D02*
X021205Y017295D01*
X021205Y017137D02*
X020742Y017137D01*
X020901Y016978D02*
X021213Y016978D01*
X021059Y016820D02*
X021371Y016820D01*
X021218Y016661D02*
X021700Y016661D01*
X021858Y016503D02*
X021376Y016503D01*
X021535Y016344D02*
X022067Y016344D01*
X023412Y017137D02*
X024128Y017137D01*
X024205Y017295D02*
X023582Y017295D01*
X023741Y017454D02*
X024275Y017454D01*
X024434Y017612D02*
X023899Y017612D01*
X021434Y017612D02*
X021012Y017612D01*
X020854Y017454D02*
X021275Y017454D01*
X019175Y016185D02*
X013693Y016185D01*
X013999Y015868D02*
X015803Y015868D01*
X015785Y015710D02*
X014045Y015710D01*
X014045Y015551D02*
X015785Y015551D01*
X015911Y015393D02*
X014045Y015393D01*
X014045Y014600D02*
X014421Y014600D01*
X014263Y014441D02*
X014045Y014441D01*
X014045Y014283D02*
X014205Y014283D01*
X014205Y014124D02*
X014045Y014124D01*
X014045Y013966D02*
X014225Y013966D01*
X014384Y013807D02*
X014045Y013807D01*
X014045Y013649D02*
X016212Y013649D01*
X015884Y013807D02*
X014986Y013807D01*
X014949Y014600D02*
X015921Y014600D01*
X016585Y015551D02*
X019705Y015551D01*
X019651Y015710D02*
X016585Y015710D01*
X016567Y015868D02*
X019492Y015868D01*
X019334Y016027D02*
X016408Y016027D01*
X014675Y017775D02*
X014095Y017195D01*
X013275Y017195D01*
X012695Y017775D01*
X012695Y018595D01*
X013275Y019175D01*
X014095Y019175D01*
X014675Y018595D01*
X014675Y017775D01*
X014671Y017771D02*
X016199Y017771D01*
X016195Y017929D02*
X014675Y017929D01*
X014675Y018088D02*
X016195Y018088D01*
X016195Y018246D02*
X014675Y018246D01*
X014675Y018405D02*
X016195Y018405D01*
X016195Y018564D02*
X014675Y018564D01*
X014548Y018722D02*
X016322Y018722D01*
X016481Y018881D02*
X014389Y018881D01*
X014231Y019039D02*
X016639Y019039D01*
X016357Y017612D02*
X014512Y017612D01*
X014354Y017454D02*
X016516Y017454D01*
X016674Y017295D02*
X014195Y017295D01*
X013174Y017295D02*
X003693Y017295D01*
X003698Y017297D02*
X003698Y017297D01*
X003885Y017454D02*
X013016Y017454D01*
X012857Y017612D02*
X004020Y017612D01*
X003970Y017526D02*
X003970Y017526D01*
X003970Y017526D01*
X004112Y017771D02*
X012699Y017771D01*
X012695Y017929D02*
X004165Y017929D01*
X004149Y017834D02*
X004149Y017834D01*
X004193Y018088D02*
X012695Y018088D01*
X012695Y018246D02*
X004200Y018246D01*
X004210Y018185D02*
X004210Y018185D01*
X004172Y018405D02*
X012695Y018405D01*
X012695Y018564D02*
X004132Y018564D01*
X004149Y018536D02*
X004149Y018536D01*
X004041Y018722D02*
X012822Y018722D01*
X012981Y018881D02*
X003927Y018881D01*
X003970Y018844D02*
X003970Y018844D01*
X003738Y019039D02*
X013139Y019039D01*
X004469Y016978D02*
X001965Y016978D01*
X001965Y016820D02*
X004311Y016820D01*
X003363Y017175D02*
X003363Y017175D01*
X003241Y017175D02*
X003241Y017175D01*
X003007Y017175D02*
X003007Y017175D01*
X003007Y019195D02*
X003007Y019195D01*
X003129Y019195D02*
X003129Y019195D01*
X003241Y019195D02*
X003241Y019195D01*
X003363Y019195D02*
X003363Y019195D01*
X002883Y019356D02*
X042486Y019356D01*
X043132Y018564D02*
X043336Y018564D01*
X043378Y018405D02*
X043172Y018405D01*
X043149Y018536D02*
X043149Y018536D01*
X043200Y018246D02*
X043401Y018246D01*
X043405Y018088D02*
X043193Y018088D01*
X043165Y017929D02*
X043405Y017929D01*
X043405Y017771D02*
X043112Y017771D01*
X043149Y017834D02*
X043149Y017834D01*
X043020Y017612D02*
X043405Y017612D01*
X043405Y017454D02*
X042885Y017454D01*
X042698Y017297D02*
X042698Y017297D01*
X034639Y019039D02*
X033231Y019039D01*
X033389Y018881D02*
X034481Y018881D01*
X034322Y018722D02*
X033548Y018722D01*
X033675Y018564D02*
X034195Y018564D01*
X034195Y018405D02*
X033675Y018405D01*
X033675Y018246D02*
X034195Y018246D01*
X034195Y018088D02*
X033675Y018088D01*
X033675Y017929D02*
X034195Y017929D01*
X034199Y017771D02*
X033671Y017771D01*
X033512Y017612D02*
X034103Y017612D01*
X033945Y017454D02*
X033354Y017454D01*
X033195Y017295D02*
X033786Y017295D01*
X026899Y016185D02*
X026470Y016185D01*
X026629Y016344D02*
X026741Y016344D01*
X026825Y014124D02*
X026530Y014124D01*
X021325Y013966D02*
X020645Y013966D01*
X020449Y011271D02*
X020965Y011271D01*
X020965Y011112D02*
X013027Y011112D01*
X013093Y010954D02*
X021021Y010954D01*
X021156Y010795D02*
X013097Y010795D01*
X012949Y011271D02*
X019920Y011271D01*
X020185Y010478D02*
X020185Y010478D01*
X020185Y010319D02*
X020185Y010319D01*
X020185Y010184D02*
X020185Y009785D01*
X020185Y010184D01*
X020185Y010184D01*
X020185Y010161D02*
X020185Y010161D01*
X020185Y010002D02*
X020185Y010002D01*
X020185Y009844D02*
X020185Y009844D01*
X020634Y009844D02*
X021107Y009844D01*
X021001Y010002D02*
X020782Y010002D01*
X020825Y010161D02*
X020965Y010161D01*
X020981Y010319D02*
X020802Y010319D01*
X020698Y010478D02*
X021059Y010478D01*
X021108Y009527D02*
X019852Y009527D01*
X020011Y009368D02*
X021001Y009368D01*
X020965Y009210D02*
X020169Y009210D01*
X020498Y009051D02*
X020981Y009051D01*
X019705Y008575D02*
X016665Y008575D01*
X016665Y008734D02*
X019627Y008734D01*
X019468Y008892D02*
X016656Y008892D01*
X016498Y009051D02*
X019310Y009051D01*
X019774Y008417D02*
X016596Y008417D01*
X014325Y008417D02*
X007596Y008417D01*
X007665Y008575D02*
X014325Y008575D01*
X014325Y008258D02*
X007437Y008258D01*
X006933Y008258D02*
X003545Y008258D01*
X003545Y008100D02*
X014325Y008100D01*
X014325Y007941D02*
X003545Y007941D01*
X003545Y007783D02*
X014325Y007783D01*
X016545Y006673D02*
X020868Y006673D01*
X025486Y007307D02*
X026384Y007307D01*
X026421Y008100D02*
X025545Y008100D01*
X030144Y005404D02*
X030339Y005404D01*
X030285Y005246D02*
X030165Y005246D01*
X030165Y005087D02*
X030285Y005087D01*
X030375Y004929D02*
X030108Y004929D01*
X029949Y004770D02*
X034337Y004770D01*
X041672Y003297D02*
X041672Y003297D01*
X042007Y005195D02*
X042007Y005195D01*
X042129Y005195D02*
X042129Y005195D01*
X042241Y005195D02*
X042241Y005195D01*
X042363Y005195D02*
X042363Y005195D01*
X026420Y011271D02*
X024808Y011271D01*
X014685Y005563D02*
X014685Y005563D01*
X014685Y005404D02*
X014685Y005404D01*
X014685Y005246D02*
X014685Y005246D01*
X014685Y005184D02*
X014685Y004785D01*
X014685Y005184D01*
X014685Y005184D01*
X014685Y005087D02*
X014685Y005087D01*
X014685Y004929D02*
X014685Y004929D01*
X011787Y008892D02*
X011162Y008892D01*
X011321Y009051D02*
X011629Y009051D01*
X011522Y009210D02*
X011427Y009210D01*
X010207Y008892D02*
X009582Y008892D01*
X009741Y009051D02*
X010049Y009051D01*
X009942Y009210D02*
X009847Y009210D01*
X006774Y008417D02*
X003596Y008417D01*
X003665Y008575D02*
X006705Y008575D01*
X006627Y008734D02*
X003665Y008734D01*
X003656Y008892D02*
X006468Y008892D01*
X006310Y009051D02*
X003498Y009051D01*
X002872Y009051D02*
X001965Y009051D01*
X001965Y008892D02*
X002714Y008892D01*
X002705Y008734D02*
X001965Y008734D01*
X001965Y008575D02*
X002705Y008575D01*
X002774Y008417D02*
X001965Y008417D01*
X001965Y008258D02*
X002825Y008258D01*
X002825Y008100D02*
X001965Y008100D01*
X001965Y007941D02*
X002825Y007941D01*
X002825Y007783D02*
X001965Y007783D01*
X001965Y007624D02*
X002751Y007624D01*
X002547Y007466D02*
X001965Y007466D01*
X001965Y007307D02*
X002476Y007307D01*
X002465Y007148D02*
X001965Y007148D01*
X001965Y006990D02*
X002506Y006990D01*
X002620Y006831D02*
X001965Y006831D01*
X001965Y006673D02*
X003188Y006673D01*
X003346Y006514D02*
X001965Y006514D01*
X001965Y006356D02*
X003505Y006356D01*
X003663Y006197D02*
X001965Y006197D01*
X001965Y006039D02*
X003822Y006039D01*
X003981Y005880D02*
X001965Y005880D01*
X001965Y005722D02*
X004139Y005722D01*
X004205Y005563D02*
X001965Y005563D01*
X001965Y005404D02*
X004286Y005404D01*
X004445Y005246D02*
X001965Y005246D01*
X003889Y006990D02*
X006506Y006990D01*
X006465Y007148D02*
X003905Y007148D01*
X003894Y007307D02*
X006476Y007307D01*
X006547Y007466D02*
X003823Y007466D01*
X003619Y007624D02*
X006751Y007624D01*
X006620Y006831D02*
X004047Y006831D01*
X001965Y009210D02*
X006151Y009210D01*
X005993Y009368D02*
X001965Y009368D01*
X001965Y009527D02*
X005834Y009527D01*
X005675Y009685D02*
X001965Y009685D01*
X001965Y009844D02*
X002607Y009844D01*
X002501Y010002D02*
X001965Y010002D01*
X001965Y010161D02*
X002465Y010161D01*
X002481Y010319D02*
X001965Y010319D01*
X001965Y010478D02*
X002559Y010478D01*
X002781Y010636D02*
X001965Y010636D01*
X001965Y010795D02*
X003286Y010795D01*
X003444Y010954D02*
X001965Y010954D01*
X007730Y013649D02*
X008387Y013649D01*
X008322Y013807D02*
X007665Y013807D01*
X007583Y013966D02*
X008272Y013966D01*
X008272Y014124D02*
X007424Y014124D01*
X007462Y014283D02*
X008272Y014283D01*
X009822Y013649D02*
X009967Y013649D01*
X009902Y013807D02*
X009888Y013807D01*
X009680Y013490D02*
X010110Y013490D01*
X010323Y013332D02*
X009444Y013332D01*
X008766Y013332D02*
X008047Y013332D01*
X007889Y013490D02*
X008530Y013490D01*
X008206Y013173D02*
X010164Y013173D01*
D17*
X010185Y012685D02*
X010685Y013185D01*
X012265Y011605D01*
X012265Y010185D01*
X014685Y010185D02*
X014685Y006185D01*
X016185Y007185D02*
X016185Y008685D01*
X016185Y010185D02*
X018685Y010185D01*
X020185Y008685D01*
X021185Y008685D01*
X021685Y009185D01*
X021685Y010185D02*
X024185Y010185D01*
X025185Y009185D01*
X025185Y007685D01*
X026685Y007685D01*
X028185Y007685D02*
X028185Y007185D01*
X027185Y006185D01*
X029685Y005185D02*
X029685Y007185D01*
X029685Y008685D01*
X029685Y010185D02*
X032185Y010185D01*
X032185Y011685D01*
X033185Y012685D01*
X037185Y012685D01*
X037685Y013185D01*
X037685Y018185D01*
X040185Y018185D02*
X040185Y011685D01*
X041685Y011685D01*
X038685Y009685D02*
X038185Y010185D01*
X035185Y010185D01*
X035185Y011185D02*
X034685Y011685D01*
X033685Y011685D01*
X032185Y013185D02*
X030685Y013185D01*
X030685Y011185D01*
X030385Y010885D01*
X024685Y010885D01*
X023135Y012435D01*
X014435Y012435D01*
X013685Y013185D01*
X013685Y015685D01*
X013185Y016185D01*
X009685Y016185D01*
X009105Y015605D01*
X009105Y014685D01*
X007185Y014685D01*
X007185Y013685D02*
X008185Y012685D01*
X010185Y012685D01*
X010685Y013185D02*
X010685Y014685D01*
X014685Y014185D02*
X016185Y014185D01*
X017185Y013185D01*
X021685Y013185D01*
X021685Y015685D01*
X020185Y017185D01*
X020185Y018185D01*
X021685Y017185D02*
X022185Y016685D01*
X023185Y016685D01*
X024185Y016685D01*
X024685Y017185D01*
X027185Y016685D02*
X027185Y018185D01*
X032685Y018185D01*
X033185Y016185D02*
X035185Y018185D01*
X033185Y016185D02*
X032685Y016185D01*
X028185Y011685D01*
X026685Y011685D01*
X027185Y012685D02*
X025185Y012685D01*
X024685Y013185D01*
X024185Y013685D01*
X023185Y013685D01*
X020185Y014185D02*
X020185Y015685D01*
X019185Y016685D01*
X004685Y016685D01*
X004185Y016185D01*
X004185Y013685D01*
X005185Y013685D02*
X005185Y012185D01*
X003185Y010185D01*
X005685Y010185D01*
X007185Y008685D01*
X008685Y010185D01*
X009105Y010185D01*
X003185Y011685D02*
X003185Y013685D01*
X003185Y008685D02*
X003185Y007185D01*
X004685Y005685D01*
X007185Y007185D02*
X010185Y007185D01*
X010685Y006685D01*
X010685Y005685D01*
X016185Y005185D02*
X016185Y007185D01*
X020185Y007185D02*
X022685Y007185D01*
X023185Y006685D01*
X023185Y005685D01*
X032185Y010185D02*
X033685Y008685D01*
X034685Y008685D01*
X035185Y009185D01*
X038685Y009685D02*
X038685Y007685D01*
X040185Y007685D01*
X041685Y007685D02*
X041685Y007185D01*
X040685Y006185D01*
X036685Y006685D02*
X036685Y005685D01*
X036685Y006685D02*
X036185Y007185D01*
X033685Y007185D01*
X027185Y012685D02*
X028185Y013685D01*
X027185Y013685D02*
X027185Y014685D01*
X028185Y015685D01*
X028185Y016685D01*
X029185Y017685D01*
X030185Y017685D01*
X030685Y017185D01*
X021685Y011185D02*
X021185Y011685D01*
X020185Y011685D01*
M02*
