%
M48
M72
T01C0.0320
T02C0.0520
T03C0.0790
T04C0.1300
%
T01
X4685Y5161
X5685Y5161
X7185Y6661
X7185Y8161
X7185Y9661
X7185Y11161
X3185Y11161
X3185Y9661
X3185Y8161
X3185Y6661
X14685Y5661
X14685Y4661
X16185Y4661
X17185Y4661
X16185Y6661
X16185Y8161
X16185Y9661
X14685Y9661
X16185Y11161
X20185Y11161
X21685Y10661
X21685Y9661
X20185Y9661
X21685Y8661
X20185Y8161
X20185Y6661
X25185Y7161
X26685Y7161
X28185Y7161
X29685Y6661
X27185Y5661
X27185Y4661
X29685Y4661
X30685Y4661
X33685Y6661
X33685Y8161
X35185Y8661
X35185Y9661
X33685Y9661
X35185Y10661
X33685Y11161
X32185Y12661
X30685Y12661
X29185Y13161
X28185Y13161
X27185Y13161
X26185Y13161
X24685Y12661
X23185Y13161
X21685Y12661
X20185Y13661
X23185Y14161
X23185Y15161
X23185Y16161
X24685Y16661
X26185Y16161
X27185Y16161
X28185Y16161
X29185Y16161
X30685Y16661
X27185Y17661
X26185Y17661
X21685Y16661
X20185Y15161
X16185Y15161
X16185Y13661
X14685Y13661
X7185Y14161
X7185Y13161
X5185Y13161
X4185Y13161
X3185Y13161
X25185Y11161
X26685Y11161
X28185Y11161
X29685Y11161
X29685Y9661
X29685Y8161
X38685Y7161
X40185Y7161
X41685Y7161
X40685Y5661
X40685Y4661
X40185Y11161
X41685Y11161
X38685Y11161
X32185Y13661
T02
X32685Y17661
X35185Y17661
X37685Y17661
X40185Y17661
X23185Y17661
X20185Y17661
X17185Y17661
X13685Y17661
T03
X12265Y14161
X10685Y14161
X9105Y14161
X9105Y9661
X10685Y9661
X12265Y9661
X12265Y5161
X10685Y5161
X9105Y5161
X21605Y5161
X23185Y5161
X24765Y5161
X35105Y5161
X36685Y5161
X38265Y5161
T04
X3185Y3661
X3185Y17661
X42185Y17661
X42185Y3661
M30
