G75*
G70*
%OFA0B0*%
%FSLAX24Y24*%
%IPPOS*%
%LPD*%
%AMOC8*
5,1,8,0,0,1.08239X$1,22.5*
%
%ADD10C,0.0030*%
%ADD11C,0.0060*%
%ADD12C,0.0240*%
%ADD13R,0.0240X0.0340*%
%ADD14C,0.0120*%
%ADD15R,0.0340X0.0240*%
%ADD16C,0.0100*%
%ADD17R,0.0300X0.1200*%
%ADD18C,0.0000*%
%ADD19C,0.0050*%
%ADD20C,0.0010*%
D10*
X003200Y001700D02*
X003447Y001700D01*
X003568Y001762D02*
X003630Y001700D01*
X003815Y001700D01*
X003815Y001947D01*
X003936Y002070D02*
X003936Y001700D01*
X003936Y001823D02*
X004122Y001947D01*
X004243Y001885D02*
X004305Y001947D01*
X004429Y001947D01*
X004490Y001885D01*
X004490Y001823D01*
X004243Y001823D01*
X004243Y001762D02*
X004243Y001885D01*
X004243Y001762D02*
X004305Y001700D01*
X004429Y001700D01*
X004122Y001700D02*
X003936Y001823D01*
X003568Y001762D02*
X003568Y001947D01*
X003200Y002070D02*
X003200Y001700D01*
X003122Y002200D02*
X002937Y002200D01*
X002875Y002262D01*
X002875Y002385D01*
X002937Y002447D01*
X003122Y002447D01*
X003243Y002447D02*
X003243Y002262D01*
X003305Y002200D01*
X003490Y002200D01*
X003490Y002447D01*
X003612Y002447D02*
X003673Y002447D01*
X003673Y002200D01*
X003612Y002200D02*
X003735Y002200D01*
X003857Y002200D02*
X003857Y002447D01*
X004042Y002447D01*
X004104Y002385D01*
X004104Y002200D01*
X004226Y002262D02*
X004287Y002200D01*
X004411Y002200D01*
X004472Y002262D01*
X004472Y002385D01*
X004411Y002447D01*
X004287Y002447D01*
X004226Y002385D01*
X004226Y002262D01*
X004594Y002200D02*
X004594Y002570D01*
X004594Y002200D02*
X004841Y002200D01*
X004962Y002262D02*
X005024Y002323D01*
X005209Y002323D01*
X005209Y002385D02*
X005209Y002200D01*
X005024Y002200D01*
X004962Y002262D01*
X004980Y002070D02*
X004980Y001700D01*
X005103Y001823D01*
X005227Y001700D01*
X005227Y002070D01*
X005330Y002200D02*
X005516Y002200D01*
X005577Y002262D01*
X005577Y002385D01*
X005516Y002447D01*
X005330Y002447D01*
X005330Y002570D02*
X005330Y002200D01*
X005209Y002385D02*
X005147Y002447D01*
X005024Y002447D01*
X006067Y002508D02*
X006067Y002262D01*
X006129Y002200D01*
X006252Y002200D01*
X006314Y002262D01*
X006314Y002508D01*
X006252Y002570D01*
X006129Y002570D01*
X006067Y002508D01*
X006435Y002447D02*
X006621Y002447D01*
X006682Y002385D01*
X006682Y002262D01*
X006621Y002200D01*
X006435Y002200D01*
X006435Y002076D02*
X006435Y002447D01*
X006804Y002385D02*
X006865Y002447D01*
X006989Y002447D01*
X007051Y002385D01*
X007051Y002323D01*
X006804Y002323D01*
X006804Y002262D02*
X006804Y002385D01*
X006804Y002262D02*
X006865Y002200D01*
X006989Y002200D01*
X007172Y002200D02*
X007172Y002447D01*
X007357Y002447D01*
X007419Y002385D01*
X007419Y002200D01*
X007540Y002385D02*
X007787Y002385D01*
X007909Y002262D02*
X007970Y002200D01*
X008094Y002200D01*
X008155Y002262D01*
X008277Y002262D02*
X008339Y002200D01*
X008462Y002200D01*
X008524Y002262D01*
X008524Y002385D01*
X008462Y002447D01*
X008339Y002447D01*
X008277Y002385D01*
X008277Y002262D01*
X008234Y002070D02*
X008111Y002070D01*
X008049Y002008D01*
X008049Y001762D01*
X008296Y002008D01*
X008296Y001762D01*
X008234Y001700D01*
X008111Y001700D01*
X008049Y001762D01*
X007928Y001700D02*
X007681Y001700D01*
X007928Y001947D01*
X007928Y002008D01*
X007866Y002070D01*
X007743Y002070D01*
X007681Y002008D01*
X007909Y002262D02*
X007909Y002508D01*
X007970Y002570D01*
X008094Y002570D01*
X008155Y002508D01*
X008234Y002070D02*
X008296Y002008D01*
X008417Y001947D02*
X008541Y002070D01*
X008541Y001700D01*
X008664Y001700D02*
X008417Y001700D01*
X008786Y001700D02*
X009033Y001700D01*
X008909Y001700D02*
X008909Y002070D01*
X008786Y001947D01*
X008769Y002200D02*
X008645Y002200D01*
X008707Y002200D02*
X008707Y002570D01*
X008645Y002570D01*
X008891Y002570D02*
X008952Y002570D01*
X008952Y002200D01*
X008891Y002200D02*
X009014Y002200D01*
X009136Y002262D02*
X009136Y002385D01*
X009198Y002447D01*
X009321Y002447D01*
X009383Y002385D01*
X009383Y002323D01*
X009136Y002323D01*
X009136Y002262D02*
X009198Y002200D01*
X009321Y002200D01*
X009505Y002262D02*
X009566Y002200D01*
X009751Y002200D01*
X009935Y002262D02*
X009996Y002200D01*
X009935Y002262D02*
X009935Y002508D01*
X009873Y002447D02*
X009996Y002447D01*
X010118Y002385D02*
X010180Y002447D01*
X010304Y002447D01*
X010365Y002385D01*
X010365Y002262D01*
X010304Y002200D01*
X010180Y002200D01*
X010118Y002262D01*
X010118Y002385D01*
X009751Y002447D02*
X009566Y002447D01*
X009505Y002385D01*
X009505Y002262D01*
X010487Y002323D02*
X010610Y002447D01*
X010672Y002447D01*
X010487Y002447D02*
X010487Y002200D01*
X011162Y002262D02*
X011162Y002508D01*
X011224Y002570D01*
X011347Y002570D01*
X011409Y002508D01*
X011409Y002262D01*
X011347Y002200D01*
X011224Y002200D01*
X011162Y002262D01*
X011530Y002262D02*
X011530Y002447D01*
X011530Y002262D02*
X011592Y002200D01*
X011777Y002200D01*
X011777Y002447D01*
X011898Y002447D02*
X012022Y002447D01*
X011960Y002508D02*
X011960Y002262D01*
X012022Y002200D01*
X012144Y002200D02*
X012329Y002200D01*
X012391Y002262D01*
X012391Y002385D01*
X012329Y002447D01*
X012144Y002447D01*
X012144Y002076D01*
X012512Y002262D02*
X012574Y002200D01*
X012759Y002200D01*
X012759Y002447D01*
X012881Y002447D02*
X013004Y002447D01*
X012942Y002508D02*
X012942Y002262D01*
X013004Y002200D01*
X013494Y002200D02*
X013494Y002570D01*
X013680Y002570D01*
X013741Y002508D01*
X013741Y002447D01*
X013680Y002385D01*
X013494Y002385D01*
X013494Y002200D02*
X013680Y002200D01*
X013741Y002262D01*
X013741Y002323D01*
X013680Y002385D01*
X013863Y002385D02*
X013863Y002262D01*
X013924Y002200D01*
X014048Y002200D01*
X014110Y002262D01*
X014110Y002385D01*
X014048Y002447D01*
X013924Y002447D01*
X013863Y002385D01*
X014231Y002262D02*
X014293Y002323D01*
X014478Y002323D01*
X014478Y002385D02*
X014478Y002200D01*
X014293Y002200D01*
X014231Y002262D01*
X014293Y002447D02*
X014416Y002447D01*
X014478Y002385D01*
X014599Y002323D02*
X014723Y002447D01*
X014784Y002447D01*
X014906Y002385D02*
X014968Y002447D01*
X015153Y002447D01*
X015153Y002570D02*
X015153Y002200D01*
X014968Y002200D01*
X014906Y002262D01*
X014906Y002385D01*
X014599Y002447D02*
X014599Y002200D01*
X016700Y002262D02*
X016762Y002200D01*
X016885Y002200D01*
X016947Y002262D01*
X016947Y002508D01*
X016885Y002570D01*
X016762Y002570D01*
X016700Y002508D01*
X016700Y002262D01*
X017068Y002200D02*
X017253Y002200D01*
X017315Y002262D01*
X017315Y002385D01*
X017253Y002447D01*
X017068Y002447D01*
X017068Y002076D01*
X017436Y002262D02*
X017436Y002385D01*
X017498Y002447D01*
X017622Y002447D01*
X017683Y002385D01*
X017683Y002323D01*
X017436Y002323D01*
X017436Y002262D02*
X017498Y002200D01*
X017622Y002200D01*
X017805Y002200D02*
X017805Y002447D01*
X017990Y002447D01*
X018052Y002385D01*
X018052Y002200D01*
X018541Y002200D02*
X018541Y002570D01*
X018541Y002385D02*
X018788Y002385D01*
X018910Y002262D02*
X018971Y002323D01*
X019157Y002323D01*
X019157Y002385D02*
X019157Y002200D01*
X018971Y002200D01*
X018910Y002262D01*
X018788Y002200D02*
X018788Y002570D01*
X018971Y002447D02*
X019095Y002447D01*
X019157Y002385D01*
X019278Y002323D02*
X019401Y002447D01*
X019463Y002447D01*
X019585Y002385D02*
X019647Y002447D01*
X019832Y002447D01*
X019953Y002447D02*
X019953Y002262D01*
X020015Y002200D01*
X020077Y002262D01*
X020138Y002200D01*
X020200Y002262D01*
X020200Y002447D01*
X020383Y002447D02*
X020507Y002447D01*
X020568Y002385D01*
X020568Y002200D01*
X020383Y002200D01*
X020322Y002262D01*
X020383Y002323D01*
X020568Y002323D01*
X020690Y002323D02*
X020813Y002447D01*
X020875Y002447D01*
X020997Y002385D02*
X021058Y002447D01*
X021182Y002447D01*
X021244Y002385D01*
X021244Y002323D01*
X020997Y002323D01*
X020997Y002262D02*
X020997Y002385D01*
X020997Y002262D02*
X021058Y002200D01*
X021182Y002200D01*
X020690Y002200D02*
X020690Y002447D01*
X019832Y002570D02*
X019832Y002200D01*
X019647Y002200D01*
X019585Y002262D01*
X019585Y002385D01*
X019278Y002447D02*
X019278Y002200D01*
X021200Y003262D02*
X021262Y003200D01*
X021385Y003200D01*
X021447Y003262D01*
X021568Y003200D02*
X021568Y003570D01*
X021447Y003508D02*
X021385Y003570D01*
X021262Y003570D01*
X021200Y003508D01*
X021200Y003262D01*
X021568Y003385D02*
X021815Y003385D01*
X021936Y003508D02*
X021998Y003570D01*
X022122Y003570D01*
X022183Y003508D01*
X022183Y003447D01*
X021936Y003200D01*
X022183Y003200D01*
X021815Y003200D02*
X021815Y003570D01*
X022673Y003570D02*
X022858Y003570D01*
X022920Y003508D01*
X022920Y003385D01*
X022858Y003323D01*
X022673Y003323D01*
X022673Y003200D02*
X022673Y003570D01*
X023041Y003570D02*
X023041Y003262D01*
X023103Y003200D01*
X023227Y003200D01*
X023288Y003262D01*
X023288Y003570D01*
X023410Y003570D02*
X023410Y003200D01*
X023657Y003200D01*
X023778Y003200D02*
X024025Y003200D01*
X024146Y003262D02*
X024208Y003200D01*
X024331Y003200D01*
X024393Y003262D01*
X024393Y003570D01*
X024515Y003570D02*
X024700Y003570D01*
X024761Y003508D01*
X024761Y003385D01*
X024700Y003323D01*
X024515Y003323D01*
X024515Y003200D02*
X024515Y003570D01*
X024146Y003570D02*
X024146Y003262D01*
X023778Y003200D02*
X023778Y003570D01*
X025200Y003762D02*
X025262Y003700D01*
X025385Y003700D01*
X025447Y003762D01*
X025447Y004008D01*
X025385Y004070D01*
X025262Y004070D01*
X025200Y004008D01*
X025200Y003762D01*
X025568Y003700D02*
X025568Y004070D01*
X025815Y003700D01*
X025815Y004070D01*
X026700Y004262D02*
X026700Y004508D01*
X026762Y004570D01*
X026885Y004570D01*
X026947Y004508D01*
X027068Y004570D02*
X027068Y004200D01*
X026947Y004262D02*
X026885Y004200D01*
X026762Y004200D01*
X026700Y004262D01*
X027068Y004385D02*
X027315Y004385D01*
X027436Y004508D02*
X027498Y004570D01*
X027622Y004570D01*
X027683Y004508D01*
X027683Y004447D01*
X027436Y004200D01*
X027683Y004200D01*
X027315Y004200D02*
X027315Y004570D01*
X028173Y004508D02*
X028173Y004262D01*
X028235Y004200D01*
X028358Y004200D01*
X028420Y004262D01*
X028420Y004508D01*
X028358Y004570D01*
X028235Y004570D01*
X028173Y004508D01*
X028541Y004570D02*
X028788Y004200D01*
X028788Y004570D01*
X028541Y004570D02*
X028541Y004200D01*
X031450Y005345D02*
X031643Y005345D01*
X031745Y005248D02*
X031745Y005200D01*
X031745Y005248D02*
X031938Y005442D01*
X031938Y005490D01*
X031745Y005490D01*
X031595Y005490D02*
X031450Y005345D01*
X031595Y005200D02*
X031595Y005490D01*
X032039Y005442D02*
X032088Y005490D01*
X032184Y005490D01*
X032233Y005442D01*
X032039Y005248D01*
X032088Y005200D01*
X032184Y005200D01*
X032233Y005248D01*
X032233Y005442D01*
X032039Y005442D02*
X032039Y005248D01*
X032628Y005200D02*
X032628Y005393D01*
X032774Y005393D01*
X032822Y005345D01*
X032822Y005200D01*
X032923Y005200D02*
X032923Y005490D01*
X033117Y005490D01*
X033020Y005345D02*
X032923Y005345D01*
X032618Y006150D02*
X032667Y006198D01*
X032667Y006392D01*
X032618Y006440D01*
X032521Y006440D01*
X032473Y006392D01*
X032473Y006343D01*
X032521Y006295D01*
X032667Y006295D01*
X032618Y006150D02*
X032521Y006150D01*
X032473Y006198D01*
X032372Y006150D02*
X032178Y006150D01*
X032275Y006150D02*
X032275Y006440D01*
X032178Y006343D01*
X032077Y006343D02*
X032029Y006295D01*
X031932Y006295D01*
X031884Y006343D01*
X031884Y006392D01*
X031932Y006440D01*
X032029Y006440D01*
X032077Y006392D01*
X032077Y006343D01*
X032029Y006295D02*
X032077Y006247D01*
X032077Y006198D01*
X032029Y006150D01*
X031932Y006150D01*
X031884Y006198D01*
X031884Y006247D01*
X031932Y006295D01*
X031783Y006295D02*
X031783Y006198D01*
X031734Y006150D01*
X031638Y006150D01*
X031589Y006198D01*
X031589Y006295D02*
X031686Y006343D01*
X031734Y006343D01*
X031783Y006295D01*
X031783Y006440D02*
X031589Y006440D01*
X031589Y006295D01*
X031488Y006150D02*
X031488Y006440D01*
X031295Y006440D02*
X031295Y006150D01*
X031193Y006150D02*
X031000Y006150D01*
X031097Y006150D02*
X031097Y006440D01*
X031000Y006343D01*
X031295Y006440D02*
X031488Y006150D01*
X033110Y008000D02*
X033303Y008000D01*
X033207Y008000D02*
X033207Y008290D01*
X033110Y008193D01*
X033699Y008097D02*
X033844Y008000D01*
X033699Y008000D02*
X033699Y008290D01*
X033844Y008193D02*
X033699Y008097D01*
X036450Y009480D02*
X036498Y009432D01*
X036450Y009480D02*
X036450Y009577D01*
X036498Y009625D01*
X036546Y009625D01*
X036740Y009432D01*
X036740Y009625D01*
X036740Y009727D02*
X036450Y009727D01*
X036740Y009920D01*
X036450Y009920D01*
X036498Y010021D02*
X036450Y010070D01*
X036450Y010166D01*
X036498Y010215D01*
X036546Y010215D01*
X036740Y010021D01*
X036740Y010215D01*
X036740Y010316D02*
X036546Y010509D01*
X036498Y010509D01*
X036450Y010461D01*
X036450Y010364D01*
X036498Y010316D01*
X036740Y010316D02*
X036740Y010509D01*
X036740Y010611D02*
X036546Y010804D01*
X036498Y010804D01*
X036450Y010756D01*
X036450Y010659D01*
X036498Y010611D01*
X036740Y010611D02*
X036740Y010804D01*
X036740Y010905D02*
X036546Y011099D01*
X036498Y011099D01*
X036450Y011050D01*
X036450Y010954D01*
X036498Y010905D01*
X036740Y010905D02*
X036740Y011099D01*
X034287Y012200D02*
X034191Y012297D01*
X034239Y012297D02*
X034094Y012297D01*
X034094Y012200D02*
X034094Y012490D01*
X034239Y012490D01*
X034287Y012442D01*
X034287Y012345D01*
X034239Y012297D01*
X033698Y012297D02*
X033698Y012248D01*
X033650Y012200D01*
X033553Y012200D01*
X033505Y012248D01*
X033505Y012297D01*
X033553Y012345D01*
X033650Y012345D01*
X033698Y012297D01*
X033650Y012345D02*
X033698Y012393D01*
X033698Y012442D01*
X033650Y012490D01*
X033553Y012490D01*
X033505Y012442D01*
X033505Y012393D01*
X033553Y012345D01*
X033403Y012200D02*
X033210Y012200D01*
X033307Y012200D02*
X033307Y012490D01*
X033210Y012393D01*
X033120Y013150D02*
X033120Y013343D01*
X033120Y013247D02*
X032830Y013247D01*
X032926Y013150D01*
X032926Y013739D02*
X032926Y013884D01*
X032975Y013933D01*
X033120Y013933D01*
X033120Y014034D02*
X032830Y014034D01*
X032830Y014227D01*
X032975Y014131D02*
X032975Y014034D01*
X032926Y013739D02*
X033120Y013739D01*
X031620Y014810D02*
X031620Y015003D01*
X031620Y014907D02*
X031330Y014907D01*
X031426Y014810D01*
X031378Y015105D02*
X031330Y015153D01*
X031330Y015250D01*
X031378Y015298D01*
X031572Y015105D01*
X031620Y015153D01*
X031620Y015250D01*
X031572Y015298D01*
X031378Y015298D01*
X031378Y015105D02*
X031572Y015105D01*
X031620Y015694D02*
X031330Y015694D01*
X031330Y015839D01*
X031378Y015887D01*
X031475Y015887D01*
X031523Y015839D01*
X031523Y015694D01*
X031523Y015791D02*
X031620Y015887D01*
X032323Y016762D02*
X032323Y017008D01*
X032200Y016885D02*
X032447Y016885D01*
X032568Y016885D02*
X032692Y016947D01*
X032753Y016947D01*
X032815Y016885D01*
X032815Y016762D01*
X032753Y016700D01*
X032630Y016700D01*
X032568Y016762D01*
X032568Y016885D02*
X032568Y017070D01*
X032815Y017070D01*
X032936Y017070D02*
X032936Y016823D01*
X033060Y016700D01*
X033183Y016823D01*
X033183Y017070D01*
X034200Y017008D02*
X034200Y016762D01*
X034262Y016700D01*
X034385Y016700D01*
X034447Y016762D01*
X034568Y016700D02*
X034568Y017070D01*
X034447Y017008D02*
X034385Y017070D01*
X034262Y017070D01*
X034200Y017008D01*
X034568Y016885D02*
X034815Y016885D01*
X034936Y017008D02*
X034998Y017070D01*
X035122Y017070D01*
X035183Y017008D01*
X035183Y016947D01*
X034936Y016700D01*
X035183Y016700D01*
X034815Y016700D02*
X034815Y017070D01*
X035673Y017070D02*
X035797Y017070D01*
X035735Y017070D02*
X035735Y016700D01*
X035673Y016700D02*
X035797Y016700D01*
X035919Y016700D02*
X035919Y017070D01*
X036165Y016700D01*
X036165Y017070D01*
X036700Y017008D02*
X036700Y016762D01*
X036762Y016700D01*
X036885Y016700D01*
X036947Y016762D01*
X037068Y016700D02*
X037068Y017070D01*
X036947Y017008D02*
X036885Y017070D01*
X036762Y017070D01*
X036700Y017008D01*
X037068Y016885D02*
X037315Y016885D01*
X037436Y017008D02*
X037498Y017070D01*
X037622Y017070D01*
X037683Y017008D01*
X037683Y016947D01*
X037622Y016885D01*
X037683Y016823D01*
X037683Y016762D01*
X037622Y016700D01*
X037498Y016700D01*
X037436Y016762D01*
X037315Y016700D02*
X037315Y017070D01*
X037560Y016885D02*
X037622Y016885D01*
X038173Y016762D02*
X038235Y016700D01*
X038358Y016700D01*
X038420Y016762D01*
X038420Y017008D01*
X038358Y017070D01*
X038235Y017070D01*
X038173Y017008D01*
X038173Y016762D01*
X038541Y016762D02*
X038603Y016700D01*
X038727Y016700D01*
X038788Y016762D01*
X038788Y017070D01*
X038910Y017070D02*
X039157Y017070D01*
X039033Y017070D02*
X039033Y016700D01*
X039700Y016762D02*
X039700Y017008D01*
X039762Y017070D01*
X039885Y017070D01*
X039947Y017008D01*
X040068Y017070D02*
X040068Y016700D01*
X039947Y016762D02*
X039885Y016700D01*
X039762Y016700D01*
X039700Y016762D01*
X040068Y016885D02*
X040315Y016885D01*
X040436Y016762D02*
X040498Y016700D01*
X040622Y016700D01*
X040683Y016762D01*
X040683Y016823D01*
X040622Y016885D01*
X040560Y016885D01*
X040622Y016885D02*
X040683Y016947D01*
X040683Y017008D01*
X040622Y017070D01*
X040498Y017070D01*
X040436Y017008D01*
X040315Y017070D02*
X040315Y016700D01*
X041173Y016700D02*
X041297Y016700D01*
X041235Y016700D02*
X041235Y017070D01*
X041173Y017070D02*
X041297Y017070D01*
X041419Y017070D02*
X041665Y016700D01*
X041665Y017070D01*
X041419Y017070D02*
X041419Y016700D01*
X038541Y016762D02*
X038541Y017070D01*
X029367Y018290D02*
X029173Y018290D01*
X029173Y018000D01*
X029072Y018000D02*
X029072Y018145D01*
X029024Y018193D01*
X028878Y018193D01*
X028878Y018000D01*
X029173Y018145D02*
X029270Y018145D01*
X028483Y018242D02*
X028289Y018048D01*
X028338Y018000D01*
X028434Y018000D01*
X028483Y018048D01*
X028483Y018242D01*
X028434Y018290D01*
X028338Y018290D01*
X028289Y018242D01*
X028289Y018048D01*
X028188Y018048D02*
X028140Y018000D01*
X028043Y018000D01*
X027995Y018048D01*
X028188Y018242D01*
X028188Y018048D01*
X027995Y018048D02*
X027995Y018242D01*
X028043Y018290D01*
X028140Y018290D01*
X028188Y018242D01*
X027893Y018000D02*
X027700Y018000D01*
X027797Y018000D02*
X027797Y018290D01*
X027700Y018193D01*
X025283Y018262D02*
X025283Y018508D01*
X025222Y018570D01*
X025036Y018570D01*
X025036Y018200D01*
X025222Y018200D01*
X025283Y018262D01*
X024915Y018200D02*
X024915Y018570D01*
X024668Y018570D02*
X024915Y018200D01*
X024668Y018200D02*
X024668Y018570D01*
X024547Y018508D02*
X024485Y018570D01*
X024362Y018570D01*
X024300Y018508D01*
X024300Y018262D01*
X024362Y018200D01*
X024485Y018200D01*
X024547Y018262D01*
X024547Y018385D01*
X024423Y018385D01*
X021165Y017070D02*
X021165Y016700D01*
X020919Y017070D01*
X020919Y016700D01*
X020797Y016700D02*
X020673Y016700D01*
X020735Y016700D02*
X020735Y017070D01*
X020673Y017070D02*
X020797Y017070D01*
X020060Y017070D02*
X020060Y016700D01*
X020183Y016700D02*
X019936Y016700D01*
X019815Y016700D02*
X019815Y017070D01*
X019936Y016947D02*
X020060Y017070D01*
X019815Y016885D02*
X019568Y016885D01*
X019447Y016762D02*
X019385Y016700D01*
X019262Y016700D01*
X019200Y016762D01*
X019200Y017008D01*
X019262Y017070D01*
X019385Y017070D01*
X019447Y017008D01*
X019568Y017070D02*
X019568Y016700D01*
X018157Y017070D02*
X017910Y017070D01*
X017788Y017070D02*
X017788Y016762D01*
X017727Y016700D01*
X017603Y016700D01*
X017541Y016762D01*
X017541Y017070D01*
X017420Y017008D02*
X017358Y017070D01*
X017235Y017070D01*
X017173Y017008D01*
X017173Y016762D01*
X017235Y016700D01*
X017358Y016700D01*
X017420Y016762D01*
X017420Y017008D01*
X018033Y017070D02*
X018033Y016700D01*
X016683Y016700D02*
X016436Y016700D01*
X016683Y016947D01*
X016683Y017008D01*
X016622Y017070D01*
X016498Y017070D01*
X016436Y017008D01*
X016315Y017070D02*
X016315Y016700D01*
X016315Y016885D02*
X016068Y016885D01*
X015947Y016762D02*
X015885Y016700D01*
X015762Y016700D01*
X015700Y016762D01*
X015700Y017008D01*
X015762Y017070D01*
X015885Y017070D01*
X015947Y017008D01*
X016068Y017070D02*
X016068Y016700D01*
X014315Y016008D02*
X014253Y016070D01*
X014130Y016070D01*
X014068Y016008D01*
X014068Y015762D01*
X014130Y015700D01*
X014253Y015700D01*
X014315Y015762D01*
X013947Y015700D02*
X013947Y015947D01*
X013823Y016070D01*
X013700Y015947D01*
X013700Y015700D01*
X013700Y015885D02*
X013947Y015885D01*
X014033Y016700D02*
X014033Y017070D01*
X013910Y017070D02*
X014157Y017070D01*
X013788Y017070D02*
X013788Y016762D01*
X013727Y016700D01*
X013603Y016700D01*
X013541Y016762D01*
X013541Y017070D01*
X013420Y017008D02*
X013358Y017070D01*
X013235Y017070D01*
X013173Y017008D01*
X013173Y016762D01*
X013235Y016700D01*
X013358Y016700D01*
X013420Y016762D01*
X013420Y017008D01*
X012683Y016700D02*
X012436Y016700D01*
X012315Y016700D02*
X012315Y017070D01*
X012436Y016947D02*
X012560Y017070D01*
X012560Y016700D01*
X012315Y016885D02*
X012068Y016885D01*
X011947Y016762D02*
X011885Y016700D01*
X011762Y016700D01*
X011700Y016762D01*
X011700Y017008D01*
X011762Y017070D01*
X011885Y017070D01*
X011947Y017008D01*
X012068Y017070D02*
X012068Y016700D01*
X009735Y018700D02*
X009735Y018885D01*
X009673Y018947D01*
X009611Y018885D01*
X009611Y018700D01*
X009488Y018700D02*
X009488Y018947D01*
X009550Y018947D01*
X009611Y018885D01*
X009366Y018885D02*
X009366Y018700D01*
X009243Y018700D02*
X009243Y018885D01*
X009305Y018947D01*
X009366Y018885D01*
X009243Y018885D02*
X009181Y018947D01*
X009120Y018947D01*
X009120Y018700D01*
X008630Y019008D02*
X008383Y018762D01*
X008383Y018700D01*
X008200Y018700D02*
X008200Y019070D01*
X008015Y018885D01*
X008261Y018885D01*
X008383Y019070D02*
X008630Y019070D01*
X008630Y019008D01*
X007525Y018947D02*
X007278Y018700D01*
X007278Y018947D02*
X007525Y018700D01*
X006788Y018700D02*
X006788Y018885D01*
X006727Y018947D01*
X006665Y018885D01*
X006665Y018700D01*
X006541Y018700D02*
X006541Y018947D01*
X006603Y018947D01*
X006665Y018885D01*
X006420Y018885D02*
X006420Y018700D01*
X006297Y018700D02*
X006297Y018885D01*
X006358Y018947D01*
X006420Y018885D01*
X006297Y018885D02*
X006235Y018947D01*
X006173Y018947D01*
X006173Y018700D01*
X005683Y019008D02*
X005436Y018762D01*
X005436Y018700D01*
X005315Y018762D02*
X005253Y018700D01*
X005130Y018700D01*
X005068Y018762D01*
X005315Y019008D01*
X005315Y018762D01*
X005315Y019008D02*
X005253Y019070D01*
X005130Y019070D01*
X005068Y019008D01*
X005068Y018762D01*
X004947Y018700D02*
X004700Y018700D01*
X004823Y018700D02*
X004823Y019070D01*
X004700Y018947D01*
X005436Y019070D02*
X005683Y019070D01*
X005683Y019008D01*
X007200Y016070D02*
X007385Y016070D01*
X007447Y016008D01*
X007447Y015762D01*
X007385Y015700D01*
X007200Y015700D01*
X007200Y016070D01*
X007568Y016008D02*
X007568Y015762D01*
X007630Y015700D01*
X007753Y015700D01*
X007815Y015762D01*
X007815Y016008D02*
X007753Y016070D01*
X007630Y016070D01*
X007568Y016008D01*
X006520Y014873D02*
X006230Y014873D01*
X006230Y015067D01*
X006375Y014970D02*
X006375Y014873D01*
X006375Y014772D02*
X006326Y014724D01*
X006326Y014578D01*
X006520Y014578D01*
X006520Y014772D02*
X006375Y014772D01*
X006278Y014183D02*
X006472Y014183D01*
X006520Y014134D01*
X006520Y014038D01*
X006472Y013989D01*
X006278Y014183D01*
X006230Y014134D01*
X006230Y014038D01*
X006278Y013989D01*
X006472Y013989D01*
X006472Y013888D02*
X006520Y013840D01*
X006520Y013743D01*
X006472Y013695D01*
X006278Y013888D01*
X006472Y013888D01*
X006472Y013695D02*
X006278Y013695D01*
X006230Y013743D01*
X006230Y013840D01*
X006278Y013888D01*
X006520Y013593D02*
X006520Y013400D01*
X006520Y013497D02*
X006230Y013497D01*
X006326Y013400D01*
X006250Y012740D02*
X006298Y012692D01*
X006298Y012643D01*
X006250Y012595D01*
X006153Y012595D01*
X006105Y012643D01*
X006105Y012692D01*
X006153Y012740D01*
X006250Y012740D01*
X006250Y012595D02*
X006298Y012547D01*
X006298Y012498D01*
X006250Y012450D01*
X006153Y012450D01*
X006105Y012498D01*
X006105Y012547D01*
X006153Y012595D01*
X006003Y012450D02*
X005810Y012450D01*
X005907Y012450D02*
X005907Y012740D01*
X005810Y012643D01*
X005017Y012550D02*
X004823Y012550D01*
X005017Y012743D01*
X005017Y012792D01*
X004968Y012840D01*
X004871Y012840D01*
X004823Y012792D01*
X004722Y012792D02*
X004674Y012840D01*
X004577Y012840D01*
X004528Y012792D01*
X004427Y012792D02*
X004379Y012840D01*
X004282Y012840D01*
X004234Y012792D01*
X004133Y012792D02*
X004084Y012840D01*
X003988Y012840D01*
X003939Y012792D01*
X003838Y012840D02*
X003838Y012550D01*
X003645Y012840D01*
X003645Y012550D01*
X003543Y012550D02*
X003350Y012550D01*
X003543Y012743D01*
X003543Y012792D01*
X003495Y012840D01*
X003398Y012840D01*
X003350Y012792D01*
X003939Y012550D02*
X004133Y012743D01*
X004133Y012792D01*
X004133Y012550D02*
X003939Y012550D01*
X004234Y012550D02*
X004427Y012743D01*
X004427Y012792D01*
X004427Y012550D02*
X004234Y012550D01*
X004528Y012550D02*
X004722Y012743D01*
X004722Y012792D01*
X004722Y012550D02*
X004528Y012550D01*
X006694Y012547D02*
X006839Y012547D01*
X006887Y012595D01*
X006887Y012692D01*
X006839Y012740D01*
X006694Y012740D01*
X006694Y012450D01*
X006791Y012547D02*
X006887Y012450D01*
X008450Y012300D02*
X008635Y012300D01*
X008697Y012362D01*
X008697Y012608D01*
X008635Y012670D01*
X008450Y012670D01*
X008450Y012300D01*
X008818Y012300D02*
X008818Y012670D01*
X009003Y012670D01*
X009065Y012608D01*
X009065Y012362D01*
X009003Y012300D01*
X008818Y012300D01*
X009186Y012362D02*
X009248Y012300D01*
X009372Y012300D01*
X009433Y012362D01*
X009433Y012423D01*
X009372Y012485D01*
X009248Y012485D01*
X009186Y012547D01*
X009186Y012608D01*
X009248Y012670D01*
X009372Y012670D01*
X009433Y012608D01*
X009923Y012547D02*
X009923Y012300D01*
X009923Y012485D02*
X010170Y012485D01*
X010170Y012547D02*
X010170Y012300D01*
X010291Y012362D02*
X010353Y012300D01*
X010477Y012300D01*
X010538Y012362D01*
X010538Y012608D02*
X010477Y012670D01*
X010353Y012670D01*
X010291Y012608D01*
X010291Y012362D01*
X010170Y012547D02*
X010047Y012670D01*
X009923Y012547D01*
X011028Y012608D02*
X011028Y012362D01*
X011090Y012300D01*
X011213Y012300D01*
X011275Y012362D01*
X011396Y012362D02*
X011396Y012608D01*
X011458Y012670D01*
X011581Y012670D01*
X011643Y012608D01*
X011643Y012362D01*
X011581Y012300D01*
X011458Y012300D01*
X011396Y012362D01*
X011275Y012608D02*
X011213Y012670D01*
X011090Y012670D01*
X011028Y012608D01*
X011765Y012670D02*
X011765Y012362D01*
X011826Y012300D01*
X011950Y012300D01*
X012011Y012362D01*
X012011Y012670D01*
X012133Y012670D02*
X012318Y012670D01*
X012380Y012608D01*
X012380Y012485D01*
X012318Y012423D01*
X012133Y012423D01*
X012133Y012300D02*
X012133Y012670D01*
X012501Y012670D02*
X012501Y012300D01*
X012748Y012300D01*
X012870Y012300D02*
X013116Y012300D01*
X012993Y012485D02*
X012870Y012485D01*
X012870Y012670D02*
X012870Y012300D01*
X012870Y012670D02*
X013116Y012670D01*
X013780Y012688D02*
X013780Y012834D01*
X013828Y012882D01*
X013925Y012882D01*
X013973Y012834D01*
X013973Y012688D01*
X014070Y012688D02*
X013780Y012688D01*
X013973Y012785D02*
X014070Y012882D01*
X014022Y012293D02*
X014070Y012244D01*
X014070Y012148D01*
X014022Y012099D01*
X013828Y012293D01*
X014022Y012293D01*
X014022Y012099D02*
X013828Y012099D01*
X013780Y012148D01*
X013780Y012244D01*
X013828Y012293D01*
X013828Y011998D02*
X014022Y011805D01*
X014070Y011805D01*
X014070Y011655D02*
X013780Y011655D01*
X013925Y011510D01*
X013925Y011703D01*
X013780Y011805D02*
X013780Y011998D01*
X013828Y011998D01*
X017610Y013398D02*
X017658Y013350D01*
X017755Y013350D01*
X017803Y013398D01*
X017803Y013447D01*
X017755Y013495D01*
X017610Y013495D01*
X017610Y013398D01*
X017610Y013495D02*
X017707Y013592D01*
X017803Y013640D01*
X017905Y013592D02*
X017905Y013543D01*
X017953Y013495D01*
X018050Y013495D01*
X018098Y013447D01*
X018098Y013398D01*
X018050Y013350D01*
X017953Y013350D01*
X017905Y013398D01*
X017905Y013447D01*
X017953Y013495D01*
X018050Y013495D02*
X018098Y013543D01*
X018098Y013592D01*
X018050Y013640D01*
X017953Y013640D01*
X017905Y013592D01*
X018199Y013592D02*
X018199Y013398D01*
X018393Y013592D01*
X018393Y013398D01*
X018344Y013350D01*
X018248Y013350D01*
X018199Y013398D01*
X018199Y013592D02*
X018248Y013640D01*
X018344Y013640D01*
X018393Y013592D01*
X018788Y013640D02*
X018788Y013350D01*
X018788Y013447D02*
X018934Y013447D01*
X018982Y013495D01*
X018982Y013592D01*
X018934Y013640D01*
X018788Y013640D01*
X018885Y013447D02*
X018982Y013350D01*
X018907Y012740D02*
X018907Y012450D01*
X019003Y012450D02*
X018810Y012450D01*
X018810Y012643D02*
X018907Y012740D01*
X019105Y012692D02*
X019105Y012643D01*
X019153Y012595D01*
X019250Y012595D01*
X019298Y012547D01*
X019298Y012498D01*
X019250Y012450D01*
X019153Y012450D01*
X019105Y012498D01*
X019105Y012547D01*
X019153Y012595D01*
X019250Y012595D02*
X019298Y012643D01*
X019298Y012692D01*
X019250Y012740D01*
X019153Y012740D01*
X019105Y012692D01*
X019694Y012740D02*
X019839Y012740D01*
X019887Y012692D01*
X019887Y012595D01*
X019839Y012547D01*
X019694Y012547D01*
X019791Y012547D02*
X019887Y012450D01*
X019694Y012450D02*
X019694Y012740D01*
X022500Y012800D02*
X022693Y012800D01*
X022597Y012800D02*
X022597Y013090D01*
X022500Y012993D01*
X022795Y013042D02*
X022795Y012848D01*
X022988Y013042D01*
X022988Y012848D01*
X022940Y012800D01*
X022843Y012800D01*
X022795Y012848D01*
X022795Y013042D02*
X022843Y013090D01*
X022940Y013090D01*
X022988Y013042D01*
X023089Y013042D02*
X023138Y013090D01*
X023234Y013090D01*
X023283Y013042D01*
X023089Y012848D01*
X023138Y012800D01*
X023234Y012800D01*
X023283Y012848D01*
X023283Y013042D01*
X023089Y013042D02*
X023089Y012848D01*
X023678Y012800D02*
X023678Y012993D01*
X023824Y012993D01*
X023872Y012945D01*
X023872Y012800D01*
X023973Y012800D02*
X023973Y013090D01*
X024167Y013090D01*
X024070Y012945D02*
X023973Y012945D01*
X026750Y012892D02*
X026750Y012698D01*
X026798Y012650D01*
X026895Y012650D01*
X026943Y012698D01*
X026943Y012892D01*
X026895Y012940D01*
X026798Y012940D01*
X026750Y012892D01*
X027045Y012940D02*
X027045Y012650D01*
X027045Y012747D02*
X027190Y012747D01*
X027238Y012795D01*
X027238Y012892D01*
X027190Y012940D01*
X027045Y012940D01*
X027339Y012843D02*
X027436Y012940D01*
X027533Y012843D01*
X027533Y012650D01*
X027634Y012698D02*
X027682Y012650D01*
X027779Y012650D01*
X027827Y012698D01*
X027827Y012747D01*
X027779Y012795D01*
X027731Y012795D01*
X027779Y012795D02*
X027827Y012843D01*
X027827Y012892D01*
X027779Y012940D01*
X027682Y012940D01*
X027634Y012892D01*
X027533Y012795D02*
X027339Y012795D01*
X027339Y012843D02*
X027339Y012650D01*
X027928Y012795D02*
X028122Y012795D01*
X028223Y012698D02*
X028271Y012650D01*
X028368Y012650D01*
X028417Y012698D01*
X028417Y012892D01*
X028223Y012698D01*
X028223Y012892D01*
X028271Y012940D01*
X028368Y012940D01*
X028417Y012892D01*
X028518Y012940D02*
X028518Y012650D01*
X028518Y012747D02*
X028663Y012747D01*
X028711Y012795D01*
X028711Y012892D01*
X028663Y012940D01*
X028518Y012940D01*
X028074Y012940D02*
X027928Y012795D01*
X028074Y012650D02*
X028074Y012940D01*
X024770Y014860D02*
X024770Y015053D01*
X024770Y014957D02*
X024480Y014957D01*
X024576Y014860D01*
X024070Y014900D02*
X024070Y015093D01*
X024070Y014997D02*
X023780Y014997D01*
X023876Y014900D01*
X023828Y015195D02*
X023780Y015243D01*
X023780Y015340D01*
X023828Y015388D01*
X024022Y015195D01*
X024070Y015243D01*
X024070Y015340D01*
X024022Y015388D01*
X023828Y015388D01*
X023828Y015489D02*
X023780Y015538D01*
X023780Y015634D01*
X023828Y015683D01*
X024022Y015489D01*
X024070Y015538D01*
X024070Y015634D01*
X024022Y015683D01*
X023828Y015683D01*
X023828Y015489D02*
X024022Y015489D01*
X024022Y015195D02*
X023828Y015195D01*
X024480Y015449D02*
X024770Y015449D01*
X024673Y015449D02*
X024576Y015594D01*
X024673Y015449D02*
X024770Y015594D01*
X024070Y016078D02*
X023876Y016078D01*
X023876Y016224D01*
X023925Y016272D01*
X024070Y016272D01*
X024070Y016373D02*
X023780Y016373D01*
X023780Y016567D01*
X023925Y016470D02*
X023925Y016373D01*
X021020Y015544D02*
X020923Y015399D01*
X020826Y015544D01*
X020730Y015399D02*
X021020Y015399D01*
X021020Y015003D02*
X021020Y014810D01*
X021020Y014907D02*
X020730Y014907D01*
X020826Y014810D01*
X018934Y014750D02*
X018788Y014847D01*
X018934Y014943D01*
X018788Y015040D02*
X018788Y014750D01*
X018393Y014798D02*
X018393Y014992D01*
X018199Y014798D01*
X018248Y014750D01*
X018344Y014750D01*
X018393Y014798D01*
X018393Y014992D02*
X018344Y015040D01*
X018248Y015040D01*
X018199Y014992D01*
X018199Y014798D01*
X018098Y014798D02*
X018098Y014992D01*
X017905Y014798D01*
X017953Y014750D01*
X018050Y014750D01*
X018098Y014798D01*
X017905Y014798D02*
X017905Y014992D01*
X017953Y015040D01*
X018050Y015040D01*
X018098Y014992D01*
X017803Y014750D02*
X017610Y014750D01*
X017707Y014750D02*
X017707Y015040D01*
X017610Y014943D01*
X022900Y011050D02*
X022900Y010954D01*
X022948Y010905D01*
X022948Y010804D02*
X022900Y010756D01*
X022900Y010659D01*
X022948Y010611D01*
X022948Y010509D02*
X022900Y010461D01*
X022900Y010364D01*
X022948Y010316D01*
X022948Y010215D02*
X022900Y010166D01*
X022900Y010070D01*
X022948Y010021D01*
X022900Y009920D02*
X023190Y009920D01*
X022900Y009727D01*
X023190Y009727D01*
X023190Y009625D02*
X023190Y009432D01*
X022996Y009625D01*
X022948Y009625D01*
X022900Y009577D01*
X022900Y009480D01*
X022948Y009432D01*
X023190Y010021D02*
X022996Y010215D01*
X022948Y010215D01*
X023190Y010215D02*
X023190Y010021D01*
X023190Y010316D02*
X022996Y010509D01*
X022948Y010509D01*
X023190Y010509D02*
X023190Y010316D01*
X023190Y010611D02*
X022996Y010804D01*
X022948Y010804D01*
X023190Y010804D02*
X023190Y010611D01*
X023190Y010905D02*
X022996Y011099D01*
X022948Y011099D01*
X022900Y011050D01*
X023190Y011099D02*
X023190Y010905D01*
X025750Y010444D02*
X026040Y010444D01*
X025943Y010444D02*
X025846Y010589D01*
X025943Y010444D02*
X026040Y010589D01*
X025992Y010049D02*
X025798Y010049D01*
X025992Y009855D01*
X026040Y009903D01*
X026040Y010000D01*
X025992Y010049D01*
X025992Y009855D02*
X025798Y009855D01*
X025750Y009903D01*
X025750Y010000D01*
X025798Y010049D01*
X025798Y009754D02*
X025992Y009560D01*
X026040Y009609D01*
X026040Y009706D01*
X025992Y009754D01*
X025798Y009754D01*
X025750Y009706D01*
X025750Y009609D01*
X025798Y009560D01*
X025992Y009560D01*
X026040Y009459D02*
X026040Y009266D01*
X026040Y009362D02*
X025750Y009362D01*
X025846Y009266D01*
X027300Y009410D02*
X027348Y009313D01*
X027445Y009217D01*
X027445Y009362D01*
X027493Y009410D01*
X027542Y009410D01*
X027590Y009362D01*
X027590Y009265D01*
X027542Y009217D01*
X027445Y009217D01*
X027493Y009511D02*
X027445Y009560D01*
X027445Y009656D01*
X027493Y009705D01*
X027542Y009705D01*
X027590Y009656D01*
X027590Y009560D01*
X027542Y009511D01*
X027493Y009511D01*
X027445Y009560D02*
X027396Y009511D01*
X027348Y009511D01*
X027300Y009560D01*
X027300Y009656D01*
X027348Y009705D01*
X027396Y009705D01*
X027445Y009656D01*
X027542Y009806D02*
X027348Y009999D01*
X027542Y009999D01*
X027590Y009951D01*
X027590Y009854D01*
X027542Y009806D01*
X027348Y009806D01*
X027300Y009854D01*
X027300Y009951D01*
X027348Y009999D01*
X027300Y010395D02*
X027300Y010540D01*
X027348Y010589D01*
X027445Y010589D01*
X027493Y010540D01*
X027493Y010395D01*
X027590Y010395D02*
X027300Y010395D01*
X027493Y010492D02*
X027590Y010589D01*
X028750Y010540D02*
X028750Y010395D01*
X029040Y010395D01*
X028943Y010395D02*
X028943Y010540D01*
X028895Y010589D01*
X028798Y010589D01*
X028750Y010540D01*
X028943Y010492D02*
X029040Y010589D01*
X028992Y009999D02*
X029040Y009951D01*
X029040Y009854D01*
X028992Y009806D01*
X028798Y009999D01*
X028992Y009999D01*
X028992Y009806D02*
X028798Y009806D01*
X028750Y009854D01*
X028750Y009951D01*
X028798Y009999D01*
X028798Y009705D02*
X028992Y009511D01*
X029040Y009511D01*
X029040Y009362D02*
X028750Y009362D01*
X028895Y009217D01*
X028895Y009410D01*
X028750Y009511D02*
X028750Y009705D01*
X028798Y009705D01*
X031150Y009750D02*
X031343Y009750D01*
X031247Y009750D02*
X031247Y010040D01*
X031150Y009943D01*
X031445Y010040D02*
X031638Y009750D01*
X031638Y010040D01*
X031739Y009895D02*
X031933Y009895D01*
X032034Y009992D02*
X032082Y010040D01*
X032179Y010040D01*
X032227Y009992D01*
X032034Y009798D01*
X032082Y009750D01*
X032179Y009750D01*
X032227Y009798D01*
X032227Y009992D01*
X032328Y009992D02*
X032377Y010040D01*
X032474Y010040D01*
X032522Y009992D01*
X032328Y009798D01*
X032377Y009750D01*
X032474Y009750D01*
X032522Y009798D01*
X032522Y009992D01*
X032623Y009895D02*
X032817Y009895D01*
X032768Y010040D02*
X032623Y009895D01*
X032768Y009750D02*
X032768Y010040D01*
X032328Y009992D02*
X032328Y009798D01*
X032034Y009798D02*
X032034Y009992D01*
X031884Y010040D02*
X031739Y009895D01*
X031884Y009750D02*
X031884Y010040D01*
X031445Y010040D02*
X031445Y009750D01*
X039300Y009706D02*
X039300Y009609D01*
X039348Y009560D01*
X039542Y009560D01*
X039348Y009754D01*
X039542Y009754D01*
X039590Y009706D01*
X039590Y009609D01*
X039542Y009560D01*
X039590Y009459D02*
X039590Y009266D01*
X039590Y009362D02*
X039300Y009362D01*
X039396Y009266D01*
X039300Y009706D02*
X039348Y009754D01*
X039348Y009855D02*
X039300Y009903D01*
X039300Y010000D01*
X039348Y010049D01*
X039542Y009855D01*
X039590Y009903D01*
X039590Y010000D01*
X039542Y010049D01*
X039348Y010049D01*
X039348Y009855D02*
X039542Y009855D01*
X039590Y010444D02*
X039300Y010444D01*
X039396Y010589D02*
X039493Y010444D01*
X039590Y010589D01*
X040800Y010540D02*
X040800Y010395D01*
X041090Y010395D01*
X040993Y010395D02*
X040993Y010540D01*
X040945Y010589D01*
X040848Y010589D01*
X040800Y010540D01*
X040993Y010492D02*
X041090Y010589D01*
X041042Y009999D02*
X041090Y009951D01*
X041090Y009854D01*
X041042Y009806D01*
X040848Y009999D01*
X041042Y009999D01*
X041042Y009806D02*
X040848Y009806D01*
X040800Y009854D01*
X040800Y009951D01*
X040848Y009999D01*
X040848Y009705D02*
X040800Y009656D01*
X040800Y009560D01*
X040848Y009511D01*
X040896Y009511D01*
X040945Y009560D01*
X040945Y009656D01*
X040993Y009705D01*
X041042Y009705D01*
X041090Y009656D01*
X041090Y009560D01*
X041042Y009511D01*
X040993Y009511D01*
X040945Y009560D01*
X040945Y009656D02*
X040896Y009705D01*
X040848Y009705D01*
X040800Y009410D02*
X040848Y009313D01*
X040945Y009217D01*
X040945Y009362D01*
X040993Y009410D01*
X041042Y009410D01*
X041090Y009362D01*
X041090Y009265D01*
X041042Y009217D01*
X040945Y009217D01*
X042300Y009362D02*
X042445Y009217D01*
X042445Y009410D01*
X042542Y009511D02*
X042590Y009511D01*
X042542Y009511D02*
X042348Y009705D01*
X042300Y009705D01*
X042300Y009511D01*
X042300Y009362D02*
X042590Y009362D01*
X042542Y009806D02*
X042348Y009999D01*
X042542Y009999D01*
X042590Y009951D01*
X042590Y009854D01*
X042542Y009806D01*
X042348Y009806D01*
X042300Y009854D01*
X042300Y009951D01*
X042348Y009999D01*
X042300Y010395D02*
X042300Y010540D01*
X042348Y010589D01*
X042445Y010589D01*
X042493Y010540D01*
X042493Y010395D01*
X042590Y010395D02*
X042300Y010395D01*
X042493Y010492D02*
X042590Y010589D01*
X042700Y007578D02*
X043070Y007578D01*
X042700Y007332D01*
X043070Y007332D01*
X043008Y007210D02*
X042761Y007210D01*
X042700Y007148D01*
X042700Y007025D01*
X042761Y006963D01*
X043008Y006963D01*
X043070Y007025D01*
X043070Y007148D01*
X043008Y007210D01*
X043008Y006473D02*
X043070Y006412D01*
X043070Y006288D01*
X043008Y006227D01*
X043070Y006105D02*
X042700Y006105D01*
X042761Y006227D02*
X042700Y006288D01*
X042700Y006412D01*
X042761Y006473D01*
X042823Y006473D01*
X042885Y006412D01*
X042946Y006473D01*
X043008Y006473D01*
X042885Y006412D02*
X042885Y006350D01*
X042885Y006105D02*
X042885Y005858D01*
X043008Y005737D02*
X043070Y005675D01*
X043070Y005552D01*
X043008Y005490D01*
X042761Y005490D01*
X042700Y005552D01*
X042700Y005675D01*
X042761Y005737D01*
X042700Y005858D02*
X043070Y005858D01*
X039815Y004070D02*
X039815Y003700D01*
X039568Y004070D01*
X039568Y003700D01*
X039447Y003762D02*
X039447Y004008D01*
X039385Y004070D01*
X039262Y004070D01*
X039200Y004008D01*
X039200Y003762D01*
X039262Y003700D01*
X039385Y003700D01*
X039447Y003762D01*
X038761Y003508D02*
X038761Y003385D01*
X038700Y003323D01*
X038515Y003323D01*
X038515Y003200D02*
X038515Y003570D01*
X038700Y003570D01*
X038761Y003508D01*
X038393Y003570D02*
X038393Y003262D01*
X038331Y003200D01*
X038208Y003200D01*
X038146Y003262D01*
X038146Y003570D01*
X037778Y003570D02*
X037778Y003200D01*
X038025Y003200D01*
X037657Y003200D02*
X037410Y003200D01*
X037410Y003570D01*
X037288Y003570D02*
X037288Y003262D01*
X037227Y003200D01*
X037103Y003200D01*
X037041Y003262D01*
X037041Y003570D01*
X036920Y003508D02*
X036920Y003385D01*
X036858Y003323D01*
X036673Y003323D01*
X036673Y003200D02*
X036673Y003570D01*
X036858Y003570D01*
X036920Y003508D01*
X036183Y003508D02*
X036183Y003447D01*
X036122Y003385D01*
X036183Y003323D01*
X036183Y003262D01*
X036122Y003200D01*
X035998Y003200D01*
X035936Y003262D01*
X035815Y003200D02*
X035815Y003570D01*
X035936Y003508D02*
X035998Y003570D01*
X036122Y003570D01*
X036183Y003508D01*
X036122Y003385D02*
X036060Y003385D01*
X035815Y003385D02*
X035568Y003385D01*
X035447Y003262D02*
X035385Y003200D01*
X035262Y003200D01*
X035200Y003262D01*
X035200Y003508D01*
X035262Y003570D01*
X035385Y003570D01*
X035447Y003508D01*
X035568Y003570D02*
X035568Y003200D01*
X035668Y002632D02*
X035668Y002570D01*
X035668Y002447D02*
X035668Y002200D01*
X035729Y002200D02*
X035606Y002200D01*
X035485Y002200D02*
X035238Y002200D01*
X035238Y002570D01*
X035606Y002447D02*
X035668Y002447D01*
X035852Y002385D02*
X035852Y002262D01*
X035913Y002200D01*
X036098Y002200D01*
X036220Y002262D02*
X036220Y002385D01*
X036282Y002447D01*
X036405Y002447D01*
X036467Y002385D01*
X036467Y002323D01*
X036220Y002323D01*
X036220Y002262D02*
X036282Y002200D01*
X036405Y002200D01*
X036588Y002200D02*
X036588Y002447D01*
X036773Y002447D01*
X036835Y002385D01*
X036835Y002200D01*
X036956Y002200D02*
X037142Y002200D01*
X037203Y002262D01*
X037142Y002323D01*
X037018Y002323D01*
X036956Y002385D01*
X037018Y002447D01*
X037203Y002447D01*
X037325Y002385D02*
X037386Y002447D01*
X037510Y002447D01*
X037572Y002385D01*
X037572Y002323D01*
X037325Y002323D01*
X037325Y002262D02*
X037325Y002385D01*
X037325Y002262D02*
X037386Y002200D01*
X037510Y002200D01*
X037693Y002200D02*
X037693Y002262D01*
X037755Y002262D01*
X037755Y002200D01*
X037693Y002200D01*
X037693Y002385D02*
X037693Y002447D01*
X037755Y002447D01*
X037755Y002385D01*
X037693Y002385D01*
X038246Y002447D02*
X038246Y002262D01*
X038307Y002200D01*
X038369Y002262D01*
X038431Y002200D01*
X038492Y002262D01*
X038492Y002447D01*
X038614Y002447D02*
X038614Y002262D01*
X038676Y002200D01*
X038737Y002262D01*
X038799Y002200D01*
X038861Y002262D01*
X038861Y002447D01*
X038982Y002447D02*
X038982Y002262D01*
X039044Y002200D01*
X039106Y002262D01*
X039167Y002200D01*
X039229Y002262D01*
X039229Y002447D01*
X039350Y002262D02*
X039412Y002262D01*
X039412Y002200D01*
X039350Y002200D01*
X039350Y002262D01*
X039596Y002262D02*
X039596Y002508D01*
X039535Y002447D02*
X039658Y002447D01*
X039842Y002447D02*
X039965Y002447D01*
X040027Y002385D01*
X040027Y002200D01*
X039842Y002200D01*
X039780Y002262D01*
X039842Y002323D01*
X040027Y002323D01*
X040148Y002200D02*
X040334Y002200D01*
X040395Y002262D01*
X040395Y002385D01*
X040334Y002447D01*
X040148Y002447D01*
X040148Y002076D01*
X040517Y002200D02*
X040517Y002447D01*
X040640Y002447D02*
X040702Y002447D01*
X040640Y002447D02*
X040517Y002323D01*
X040824Y002262D02*
X040885Y002262D01*
X040885Y002200D01*
X040824Y002200D01*
X040824Y002262D01*
X041008Y002262D02*
X041069Y002200D01*
X041193Y002200D01*
X041255Y002262D01*
X041255Y002385D01*
X041193Y002447D01*
X041069Y002447D01*
X041008Y002385D01*
X041008Y002262D01*
X041376Y002323D02*
X041499Y002447D01*
X041561Y002447D01*
X041683Y002385D02*
X041683Y002262D01*
X041745Y002200D01*
X041930Y002200D01*
X041930Y002138D02*
X041930Y002447D01*
X041745Y002447D01*
X041683Y002385D01*
X041376Y002447D02*
X041376Y002200D01*
X041806Y002076D02*
X041868Y002076D01*
X041930Y002138D01*
X042051Y002200D02*
X042298Y002570D01*
X042420Y002508D02*
X042420Y002262D01*
X042481Y002200D01*
X042605Y002200D01*
X042666Y002262D01*
X042666Y002508D01*
X042605Y002570D01*
X042481Y002570D01*
X042420Y002508D01*
X042788Y002570D02*
X042788Y002200D01*
X042788Y002385D02*
X043035Y002385D01*
X043035Y002570D02*
X043035Y002200D01*
X043156Y002200D02*
X043156Y002570D01*
X043156Y002200D02*
X043403Y002200D01*
X039658Y002200D02*
X039596Y002262D01*
X036098Y002447D02*
X035913Y002447D01*
X035852Y002385D01*
X034748Y002385D02*
X034748Y002323D01*
X034501Y002323D01*
X034501Y002262D02*
X034501Y002385D01*
X034563Y002447D01*
X034686Y002447D01*
X034748Y002385D01*
X034686Y002200D02*
X034563Y002200D01*
X034501Y002262D01*
X034379Y002447D02*
X034318Y002447D01*
X034194Y002323D01*
X034073Y002323D02*
X033888Y002323D01*
X033826Y002262D01*
X033888Y002200D01*
X034073Y002200D01*
X034073Y002385D01*
X034011Y002447D01*
X033888Y002447D01*
X033704Y002447D02*
X033704Y002262D01*
X033643Y002200D01*
X033581Y002262D01*
X033519Y002200D01*
X033458Y002262D01*
X033458Y002447D01*
X033336Y002447D02*
X033151Y002447D01*
X033089Y002385D01*
X033089Y002262D01*
X033151Y002200D01*
X033336Y002200D01*
X033336Y002570D01*
X032968Y002447D02*
X032906Y002447D01*
X032782Y002323D01*
X032661Y002323D02*
X032476Y002323D01*
X032414Y002262D01*
X032476Y002200D01*
X032661Y002200D01*
X032661Y002385D01*
X032599Y002447D01*
X032476Y002447D01*
X032293Y002385D02*
X032046Y002385D01*
X032046Y002200D02*
X032046Y002570D01*
X032293Y002570D02*
X032293Y002200D01*
X032782Y002200D02*
X032782Y002447D01*
X031556Y002385D02*
X031556Y002200D01*
X031556Y002385D02*
X031494Y002447D01*
X031309Y002447D01*
X031309Y002200D01*
X031188Y002323D02*
X030941Y002323D01*
X030941Y002262D02*
X030941Y002385D01*
X031003Y002447D01*
X031126Y002447D01*
X031188Y002385D01*
X031188Y002323D01*
X031126Y002200D02*
X031003Y002200D01*
X030941Y002262D01*
X030819Y002262D02*
X030758Y002200D01*
X030573Y002200D01*
X030573Y002076D02*
X030573Y002447D01*
X030758Y002447D01*
X030819Y002385D01*
X030819Y002262D01*
X030451Y002262D02*
X030451Y002508D01*
X030389Y002570D01*
X030266Y002570D01*
X030204Y002508D01*
X030204Y002262D01*
X030266Y002200D01*
X030389Y002200D01*
X030451Y002262D01*
X029715Y002200D02*
X029591Y002323D01*
X029653Y002323D02*
X029468Y002323D01*
X029468Y002200D02*
X029468Y002570D01*
X029653Y002570D01*
X029715Y002508D01*
X029715Y002385D01*
X029653Y002323D01*
X029346Y002385D02*
X029346Y002508D01*
X029285Y002570D01*
X029099Y002570D01*
X029099Y002200D01*
X028978Y002200D02*
X028978Y002447D01*
X028854Y002570D01*
X028731Y002447D01*
X028731Y002200D01*
X028731Y002385D02*
X028978Y002385D01*
X029099Y002323D02*
X029285Y002323D01*
X029346Y002385D01*
X028610Y002570D02*
X028363Y002570D01*
X028486Y002570D02*
X028486Y002200D01*
X027873Y002323D02*
X027626Y002323D01*
X027626Y002262D02*
X027626Y002385D01*
X027688Y002447D01*
X027811Y002447D01*
X027873Y002385D01*
X027873Y002323D01*
X027811Y002200D02*
X027688Y002200D01*
X027626Y002262D01*
X027505Y002200D02*
X027505Y002385D01*
X027443Y002447D01*
X027320Y002447D01*
X027258Y002385D01*
X027136Y002447D02*
X027012Y002447D01*
X027074Y002508D02*
X027074Y002262D01*
X027136Y002200D01*
X027258Y002200D02*
X027258Y002570D01*
X026522Y002447D02*
X026461Y002447D01*
X026337Y002323D01*
X026216Y002323D02*
X025969Y002323D01*
X025969Y002262D02*
X025969Y002385D01*
X026031Y002447D01*
X026154Y002447D01*
X026216Y002385D01*
X026216Y002323D01*
X026154Y002200D02*
X026031Y002200D01*
X025969Y002262D01*
X025847Y002200D02*
X025847Y002570D01*
X025847Y002447D02*
X025662Y002447D01*
X025601Y002385D01*
X025601Y002262D01*
X025662Y002200D01*
X025847Y002200D01*
X025479Y002200D02*
X025479Y002385D01*
X025417Y002447D01*
X025232Y002447D01*
X025232Y002200D01*
X025111Y002200D02*
X025111Y002447D01*
X024864Y002447D02*
X024864Y002262D01*
X024926Y002200D01*
X025111Y002200D01*
X024374Y002200D02*
X024189Y002200D01*
X024127Y002262D01*
X024127Y002385D01*
X024189Y002447D01*
X024374Y002447D01*
X024374Y002570D02*
X024374Y002200D01*
X024006Y002323D02*
X023759Y002323D01*
X023759Y002262D02*
X023759Y002385D01*
X023821Y002447D01*
X023944Y002447D01*
X024006Y002385D01*
X024006Y002323D01*
X023944Y002200D02*
X023821Y002200D01*
X023759Y002262D01*
X023638Y002262D02*
X023576Y002323D01*
X023452Y002323D01*
X023391Y002385D01*
X023452Y002447D01*
X023638Y002447D01*
X023638Y002262D02*
X023576Y002200D01*
X023391Y002200D01*
X023269Y002200D02*
X023084Y002200D01*
X023022Y002262D01*
X023084Y002323D01*
X023269Y002323D01*
X023269Y002385D02*
X023269Y002200D01*
X023269Y002385D02*
X023208Y002447D01*
X023084Y002447D01*
X022901Y002385D02*
X022839Y002447D01*
X022716Y002447D01*
X022654Y002385D01*
X022654Y002262D01*
X022716Y002200D01*
X022839Y002200D01*
X022901Y002323D02*
X022654Y002323D01*
X022532Y002200D02*
X022409Y002200D01*
X022470Y002200D02*
X022470Y002570D01*
X022409Y002570D01*
X022225Y002447D02*
X022287Y002385D01*
X022287Y002323D01*
X022040Y002323D01*
X022040Y002262D02*
X022040Y002385D01*
X022102Y002447D01*
X022225Y002447D01*
X022225Y002200D02*
X022102Y002200D01*
X022040Y002262D01*
X021919Y002447D02*
X021857Y002447D01*
X021733Y002323D01*
X021733Y002200D02*
X021733Y002447D01*
X022901Y002385D02*
X022901Y002323D01*
X026337Y002200D02*
X026337Y002447D01*
X019617Y005490D02*
X019423Y005490D01*
X019423Y005200D01*
X019322Y005200D02*
X019322Y005345D01*
X019274Y005393D01*
X019128Y005393D01*
X019128Y005200D01*
X019423Y005345D02*
X019520Y005345D01*
X018733Y005248D02*
X018684Y005200D01*
X018588Y005200D01*
X018539Y005248D01*
X018733Y005442D01*
X018733Y005248D01*
X018733Y005442D02*
X018684Y005490D01*
X018588Y005490D01*
X018539Y005442D01*
X018539Y005248D01*
X018438Y005442D02*
X018245Y005248D01*
X018245Y005200D01*
X018095Y005200D02*
X018095Y005490D01*
X017950Y005345D01*
X018143Y005345D01*
X018245Y005490D02*
X018438Y005490D01*
X018438Y005442D01*
X018479Y006100D02*
X018382Y006100D01*
X018334Y006148D01*
X018334Y006197D01*
X018382Y006245D01*
X018479Y006245D01*
X018527Y006197D01*
X018527Y006148D01*
X018479Y006100D01*
X018479Y006245D02*
X018527Y006293D01*
X018527Y006342D01*
X018479Y006390D01*
X018382Y006390D01*
X018334Y006342D01*
X018334Y006293D01*
X018382Y006245D01*
X018233Y006245D02*
X018233Y006148D01*
X018184Y006100D01*
X018088Y006100D01*
X018039Y006148D01*
X018039Y006245D02*
X018136Y006293D01*
X018184Y006293D01*
X018233Y006245D01*
X018233Y006390D02*
X018039Y006390D01*
X018039Y006245D01*
X017938Y006100D02*
X017938Y006390D01*
X017745Y006390D02*
X017938Y006100D01*
X017745Y006100D02*
X017745Y006390D01*
X017547Y006390D02*
X017450Y006293D01*
X017547Y006390D02*
X017547Y006100D01*
X017643Y006100D02*
X017450Y006100D01*
X018628Y006100D02*
X018822Y006100D01*
X018725Y006100D02*
X018725Y006390D01*
X018628Y006293D01*
X018923Y006293D02*
X018971Y006245D01*
X019117Y006245D01*
X019117Y006342D02*
X019068Y006390D01*
X018971Y006390D01*
X018923Y006342D01*
X018923Y006293D01*
X018923Y006148D02*
X018971Y006100D01*
X019068Y006100D01*
X019117Y006148D01*
X019117Y006342D01*
X019760Y007900D02*
X019953Y007900D01*
X019857Y007900D02*
X019857Y008190D01*
X019760Y008093D01*
X020349Y007997D02*
X020494Y008093D01*
X020349Y007997D02*
X020494Y007900D01*
X020349Y007900D02*
X020349Y008190D01*
X019268Y010000D02*
X019268Y010290D01*
X019123Y010145D01*
X019317Y010145D01*
X019022Y010242D02*
X018828Y010048D01*
X018877Y010000D01*
X018974Y010000D01*
X019022Y010048D01*
X019022Y010242D01*
X018974Y010290D01*
X018877Y010290D01*
X018828Y010242D01*
X018828Y010048D01*
X018727Y010048D02*
X018679Y010000D01*
X018582Y010000D01*
X018534Y010048D01*
X018727Y010242D01*
X018727Y010048D01*
X018534Y010048D02*
X018534Y010242D01*
X018582Y010290D01*
X018679Y010290D01*
X018727Y010242D01*
X018433Y010145D02*
X018239Y010145D01*
X018384Y010290D01*
X018384Y010000D01*
X018138Y010000D02*
X018138Y010290D01*
X017945Y010290D02*
X018138Y010000D01*
X017945Y010000D02*
X017945Y010290D01*
X017747Y010290D02*
X017747Y010000D01*
X017843Y010000D02*
X017650Y010000D01*
X017650Y010193D02*
X017747Y010290D01*
X014683Y009508D02*
X014622Y009570D01*
X014498Y009570D01*
X014436Y009508D01*
X014436Y009447D01*
X014498Y009385D01*
X014622Y009385D01*
X014683Y009323D01*
X014683Y009262D01*
X014622Y009200D01*
X014498Y009200D01*
X014436Y009262D01*
X014315Y009262D02*
X014315Y009508D01*
X014253Y009570D01*
X014068Y009570D01*
X014068Y009200D01*
X014253Y009200D01*
X014315Y009262D01*
X013947Y009262D02*
X013947Y009508D01*
X013885Y009570D01*
X013700Y009570D01*
X013700Y009200D01*
X013885Y009200D01*
X013947Y009262D01*
X013303Y008220D02*
X013056Y008220D01*
X013180Y008220D02*
X013180Y007850D01*
X012935Y007912D02*
X012873Y007850D01*
X012750Y007850D01*
X012688Y007912D01*
X012688Y008158D01*
X012750Y008220D01*
X012873Y008220D01*
X012935Y008158D01*
X012566Y008220D02*
X012320Y008220D01*
X012320Y007850D01*
X012566Y007850D01*
X012443Y008035D02*
X012320Y008035D01*
X012198Y007850D02*
X011951Y007850D01*
X011951Y008220D01*
X011830Y008220D02*
X011583Y008220D01*
X011583Y007850D01*
X011830Y007850D01*
X011706Y008035D02*
X011583Y008035D01*
X011461Y007973D02*
X011461Y007912D01*
X011400Y007850D01*
X011276Y007850D01*
X011215Y007912D01*
X011276Y008035D02*
X011400Y008035D01*
X011461Y007973D01*
X011461Y008158D02*
X011400Y008220D01*
X011276Y008220D01*
X011215Y008158D01*
X011215Y008097D01*
X011276Y008035D01*
X010725Y007850D02*
X010478Y007850D01*
X010478Y008220D01*
X010725Y008220D01*
X010601Y008035D02*
X010478Y008035D01*
X010357Y007912D02*
X010295Y007850D01*
X010110Y007850D01*
X010110Y008220D01*
X010295Y008220D01*
X010357Y008158D01*
X010357Y007912D01*
X009988Y007912D02*
X009988Y008158D01*
X009927Y008220D01*
X009803Y008220D01*
X009741Y008158D01*
X009741Y007912D01*
X009803Y007850D01*
X009927Y007850D01*
X009988Y007912D01*
X009620Y007850D02*
X009620Y008220D01*
X009497Y008097D01*
X009373Y008220D01*
X009373Y007850D01*
X008883Y007850D02*
X008636Y007850D01*
X008515Y007850D02*
X008515Y008220D01*
X008636Y008097D02*
X008760Y008220D01*
X008760Y007850D01*
X008515Y008035D02*
X008268Y008035D01*
X008147Y007912D02*
X008085Y007850D01*
X007962Y007850D01*
X007900Y007912D01*
X007900Y008158D01*
X007962Y008220D01*
X008085Y008220D01*
X008147Y008158D01*
X008268Y008220D02*
X008268Y007850D01*
X006317Y007242D02*
X006317Y007048D01*
X006268Y007000D01*
X006171Y007000D01*
X006123Y007048D01*
X006171Y007145D02*
X006317Y007145D01*
X006317Y007242D02*
X006268Y007290D01*
X006171Y007290D01*
X006123Y007242D01*
X006123Y007193D01*
X006171Y007145D01*
X006022Y007000D02*
X005828Y007000D01*
X005925Y007000D02*
X005925Y007290D01*
X005828Y007193D01*
X005727Y007193D02*
X005679Y007145D01*
X005582Y007145D01*
X005534Y007193D01*
X005534Y007242D01*
X005582Y007290D01*
X005679Y007290D01*
X005727Y007242D01*
X005727Y007193D01*
X005679Y007145D02*
X005727Y007097D01*
X005727Y007048D01*
X005679Y007000D01*
X005582Y007000D01*
X005534Y007048D01*
X005534Y007097D01*
X005582Y007145D01*
X005433Y007145D02*
X005433Y007048D01*
X005384Y007000D01*
X005288Y007000D01*
X005239Y007048D01*
X005239Y007145D02*
X005336Y007193D01*
X005384Y007193D01*
X005433Y007145D01*
X005433Y007290D02*
X005239Y007290D01*
X005239Y007145D01*
X005138Y007000D02*
X005138Y007290D01*
X004945Y007290D02*
X004945Y007000D01*
X004843Y007000D02*
X004650Y007000D01*
X004747Y007000D02*
X004747Y007290D01*
X004650Y007193D01*
X004945Y007290D02*
X005138Y007000D01*
X005003Y008450D02*
X004810Y008450D01*
X004907Y008450D02*
X004907Y008740D01*
X004810Y008643D01*
X005399Y008547D02*
X005544Y008643D01*
X005399Y008547D02*
X005544Y008450D01*
X005399Y008450D02*
X005399Y008740D01*
X005384Y010000D02*
X005384Y010290D01*
X005239Y010145D01*
X005433Y010145D01*
X005534Y010048D02*
X005727Y010242D01*
X005727Y010048D01*
X005679Y010000D01*
X005582Y010000D01*
X005534Y010048D01*
X005534Y010242D01*
X005582Y010290D01*
X005679Y010290D01*
X005727Y010242D01*
X005828Y010242D02*
X005877Y010290D01*
X005974Y010290D01*
X006022Y010242D01*
X005828Y010048D01*
X005877Y010000D01*
X005974Y010000D01*
X006022Y010048D01*
X006022Y010242D01*
X006123Y010145D02*
X006317Y010145D01*
X006268Y010290D02*
X006123Y010145D01*
X006268Y010000D02*
X006268Y010290D01*
X005828Y010242D02*
X005828Y010048D01*
X005138Y010000D02*
X005138Y010290D01*
X004945Y010290D02*
X005138Y010000D01*
X004945Y010000D02*
X004945Y010290D01*
X004747Y010290D02*
X004747Y010000D01*
X004843Y010000D02*
X004650Y010000D01*
X004650Y010193D02*
X004747Y010290D01*
X004838Y004990D02*
X004838Y004942D01*
X004645Y004748D01*
X004645Y004700D01*
X004495Y004700D02*
X004495Y004990D01*
X004350Y004845D01*
X004543Y004845D01*
X004645Y004990D02*
X004838Y004990D01*
X004939Y004942D02*
X004988Y004990D01*
X005084Y004990D01*
X005133Y004942D01*
X004939Y004748D01*
X004988Y004700D01*
X005084Y004700D01*
X005133Y004748D01*
X005133Y004942D01*
X004939Y004942D02*
X004939Y004748D01*
X005528Y004700D02*
X005528Y004893D01*
X005674Y004893D01*
X005722Y004845D01*
X005722Y004700D01*
X005823Y004700D02*
X005823Y004990D01*
X006017Y004990D01*
X005920Y004845D02*
X005823Y004845D01*
X008900Y003708D02*
X008900Y003462D01*
X008962Y003400D01*
X009085Y003400D01*
X009147Y003462D01*
X009268Y003400D02*
X009268Y003770D01*
X009147Y003708D02*
X009085Y003770D01*
X008962Y003770D01*
X008900Y003708D01*
X009268Y003585D02*
X009515Y003585D01*
X009636Y003647D02*
X009760Y003770D01*
X009760Y003400D01*
X009883Y003400D02*
X009636Y003400D01*
X009515Y003400D02*
X009515Y003770D01*
X010373Y003770D02*
X010373Y003400D01*
X010373Y003523D02*
X010558Y003523D01*
X010620Y003585D01*
X010620Y003708D01*
X010558Y003770D01*
X010373Y003770D01*
X010741Y003770D02*
X010741Y003462D01*
X010803Y003400D01*
X010927Y003400D01*
X010988Y003462D01*
X010988Y003770D01*
X011110Y003770D02*
X011110Y003400D01*
X011357Y003400D01*
X011478Y003400D02*
X011725Y003400D01*
X011846Y003462D02*
X011908Y003400D01*
X012031Y003400D01*
X012093Y003462D01*
X012093Y003770D01*
X012215Y003770D02*
X012400Y003770D01*
X012461Y003708D01*
X012461Y003585D01*
X012400Y003523D01*
X012215Y003523D01*
X012215Y003400D02*
X012215Y003770D01*
X011846Y003770D02*
X011846Y003462D01*
X011478Y003400D02*
X011478Y003770D01*
X013200Y003762D02*
X013262Y003700D01*
X013385Y003700D01*
X013447Y003762D01*
X013447Y004008D01*
X013385Y004070D01*
X013262Y004070D01*
X013200Y004008D01*
X013200Y003762D01*
X013568Y003700D02*
X013568Y004070D01*
X013815Y003700D01*
X013815Y004070D01*
X014700Y004262D02*
X014700Y004508D01*
X014762Y004570D01*
X014885Y004570D01*
X014947Y004508D01*
X015068Y004570D02*
X015068Y004200D01*
X014947Y004262D02*
X014885Y004200D01*
X014762Y004200D01*
X014700Y004262D01*
X015068Y004385D02*
X015315Y004385D01*
X015436Y004447D02*
X015560Y004570D01*
X015560Y004200D01*
X015683Y004200D02*
X015436Y004200D01*
X015315Y004200D02*
X015315Y004570D01*
X016173Y004508D02*
X016173Y004262D01*
X016235Y004200D01*
X016358Y004200D01*
X016420Y004262D01*
X016420Y004508D01*
X016358Y004570D01*
X016235Y004570D01*
X016173Y004508D01*
X016541Y004570D02*
X016788Y004200D01*
X016788Y004570D01*
X016541Y004570D02*
X016541Y004200D01*
X012512Y002447D02*
X012512Y002262D01*
X007190Y001762D02*
X007190Y001700D01*
X007129Y001700D01*
X007129Y001762D01*
X007190Y001762D01*
X007190Y001700D02*
X007067Y001576D01*
X006946Y001700D02*
X006946Y001885D01*
X006884Y001947D01*
X006699Y001947D01*
X006699Y001700D01*
X006577Y001762D02*
X006516Y001700D01*
X006392Y001700D01*
X006330Y001762D01*
X006330Y001885D01*
X006392Y001947D01*
X006516Y001947D01*
X006577Y001885D01*
X006577Y001762D01*
X006208Y001700D02*
X006147Y001762D01*
X006147Y002008D01*
X006085Y001947D02*
X006208Y001947D01*
X005963Y001947D02*
X005778Y001947D01*
X005717Y001885D01*
X005778Y001823D01*
X005902Y001823D01*
X005963Y001762D01*
X005902Y001700D01*
X005717Y001700D01*
X005595Y001823D02*
X005348Y001823D01*
X005348Y001762D02*
X005348Y001885D01*
X005410Y001947D01*
X005533Y001947D01*
X005595Y001885D01*
X005595Y001823D01*
X005533Y001700D02*
X005410Y001700D01*
X005348Y001762D01*
X003673Y002570D02*
X003673Y002632D01*
X003122Y002570D02*
X003122Y002200D01*
X002753Y002447D02*
X002692Y002447D01*
X002568Y002323D01*
X002568Y002200D02*
X002568Y002447D01*
X002447Y002447D02*
X002447Y002200D01*
X002447Y002385D02*
X002200Y002385D01*
X002200Y002447D02*
X002200Y002200D01*
X002200Y002447D02*
X002323Y002570D01*
X002447Y002447D01*
X034194Y002200D02*
X034194Y002447D01*
D11*
X035785Y003985D02*
X035555Y004305D01*
X034685Y005685D01*
X035575Y007065D01*
X035785Y007385D01*
X037585Y007385D01*
X037815Y007065D01*
X038685Y005685D01*
X037815Y004305D01*
X037585Y003985D01*
X035785Y003985D01*
X035555Y004305D02*
X034305Y004305D01*
X034055Y004555D01*
X034055Y006815D01*
X034305Y007065D01*
X035575Y007065D01*
X035685Y006685D02*
X035935Y006685D01*
X037185Y006315D01*
X037185Y005055D01*
X035935Y004685D01*
X035685Y004685D01*
X035435Y004935D01*
X035435Y006435D01*
X035685Y006685D01*
X035935Y006685D02*
X036185Y006435D01*
X036185Y004935D01*
X035935Y004685D01*
X036185Y004685D02*
X036245Y004657D01*
X036306Y004633D01*
X036369Y004613D01*
X036433Y004596D01*
X036497Y004583D01*
X036562Y004574D01*
X036628Y004568D01*
X036694Y004567D01*
X036760Y004570D01*
X036826Y004576D01*
X036891Y004586D01*
X036955Y004600D01*
X037019Y004618D01*
X037081Y004639D01*
X037142Y004665D01*
X037201Y004693D01*
X037259Y004725D01*
X037314Y004761D01*
X037368Y004800D01*
X037419Y004841D01*
X037467Y004886D01*
X037513Y004934D01*
X037556Y004984D01*
X037595Y005036D01*
X037632Y005091D01*
X037665Y005148D01*
X037695Y005207D01*
X037722Y005267D01*
X037745Y005329D01*
X037764Y005392D01*
X037779Y005456D01*
X037791Y005521D01*
X037799Y005586D01*
X037803Y005652D01*
X037803Y005718D01*
X037799Y005784D01*
X037791Y005849D01*
X037779Y005914D01*
X037764Y005978D01*
X037745Y006041D01*
X037722Y006103D01*
X037695Y006163D01*
X037665Y006222D01*
X037632Y006279D01*
X037595Y006334D01*
X037556Y006386D01*
X037513Y006436D01*
X037467Y006484D01*
X037419Y006529D01*
X037368Y006570D01*
X037314Y006609D01*
X037259Y006645D01*
X037201Y006677D01*
X037142Y006705D01*
X037081Y006731D01*
X037019Y006752D01*
X036955Y006770D01*
X036891Y006784D01*
X036826Y006794D01*
X036760Y006800D01*
X036694Y006803D01*
X036628Y006802D01*
X036562Y006796D01*
X036497Y006787D01*
X036433Y006774D01*
X036369Y006757D01*
X036306Y006737D01*
X036245Y006713D01*
X036185Y006685D01*
X037815Y007065D02*
X039065Y007065D01*
X039315Y006815D01*
X039315Y004555D01*
X039065Y004305D01*
X037815Y004305D01*
X035685Y004685D02*
X035739Y004634D01*
X035795Y004586D01*
X035854Y004541D01*
X035915Y004499D01*
X035978Y004460D01*
X036043Y004425D01*
X036110Y004393D01*
X036178Y004365D01*
X036248Y004340D01*
X036319Y004319D01*
X036391Y004302D01*
X036464Y004288D01*
X036537Y004279D01*
X036611Y004273D01*
X036685Y004271D01*
X036759Y004273D01*
X036833Y004279D01*
X036906Y004288D01*
X036979Y004302D01*
X037051Y004319D01*
X037122Y004340D01*
X037192Y004365D01*
X037260Y004393D01*
X037327Y004425D01*
X037392Y004460D01*
X037455Y004499D01*
X037516Y004541D01*
X037575Y004586D01*
X037631Y004634D01*
X037685Y004685D01*
X037736Y004739D01*
X037784Y004795D01*
X037829Y004854D01*
X037871Y004915D01*
X037910Y004978D01*
X037945Y005043D01*
X037977Y005110D01*
X038005Y005178D01*
X038030Y005248D01*
X038051Y005319D01*
X038068Y005391D01*
X038082Y005464D01*
X038091Y005537D01*
X038097Y005611D01*
X038099Y005685D01*
X038097Y005759D01*
X038091Y005833D01*
X038082Y005906D01*
X038068Y005979D01*
X038051Y006051D01*
X038030Y006122D01*
X038005Y006192D01*
X037977Y006260D01*
X037945Y006327D01*
X037910Y006392D01*
X037871Y006455D01*
X037829Y006516D01*
X037784Y006575D01*
X037736Y006631D01*
X037685Y006685D01*
X037631Y006736D01*
X037575Y006784D01*
X037516Y006829D01*
X037455Y006871D01*
X037392Y006910D01*
X037327Y006945D01*
X037260Y006977D01*
X037192Y007005D01*
X037122Y007030D01*
X037051Y007051D01*
X036979Y007068D01*
X036906Y007082D01*
X036833Y007091D01*
X036759Y007097D01*
X036685Y007099D01*
X036611Y007097D01*
X036537Y007091D01*
X036464Y007082D01*
X036391Y007068D01*
X036319Y007051D01*
X036248Y007030D01*
X036178Y007005D01*
X036110Y006977D01*
X036043Y006945D01*
X035978Y006910D01*
X035915Y006871D01*
X035854Y006829D01*
X035795Y006784D01*
X035739Y006736D01*
X035685Y006685D01*
X033235Y007185D02*
X032935Y007185D01*
X032935Y007785D01*
X030435Y007785D01*
X030435Y007185D01*
X030435Y006585D01*
X032935Y006585D01*
X032935Y007185D01*
X032835Y008235D02*
X032685Y008235D01*
X032635Y008285D01*
X030735Y008285D01*
X030685Y008235D01*
X030535Y008235D01*
X030518Y008237D01*
X030501Y008241D01*
X030485Y008248D01*
X030471Y008258D01*
X030458Y008271D01*
X030448Y008285D01*
X030441Y008301D01*
X030437Y008318D01*
X030435Y008335D01*
X030435Y009035D01*
X030437Y009052D01*
X030441Y009069D01*
X030448Y009085D01*
X030458Y009099D01*
X030471Y009112D01*
X030485Y009122D01*
X030501Y009129D01*
X030518Y009133D01*
X030535Y009135D01*
X030685Y009135D01*
X030735Y009085D01*
X032635Y009085D01*
X032685Y009135D01*
X032835Y009135D01*
X032852Y009133D01*
X032869Y009129D01*
X032885Y009122D01*
X032899Y009112D01*
X032912Y009099D01*
X032922Y009085D01*
X032929Y009069D01*
X032933Y009052D01*
X032935Y009035D01*
X032935Y008335D01*
X032933Y008318D01*
X032929Y008301D01*
X032922Y008285D01*
X032912Y008271D01*
X032899Y008258D01*
X032885Y008248D01*
X032869Y008241D01*
X032852Y008237D01*
X032835Y008235D01*
X030435Y007185D02*
X030135Y007185D01*
X028535Y008435D02*
X027835Y008435D01*
X027818Y008437D01*
X027801Y008441D01*
X027785Y008448D01*
X027771Y008458D01*
X027758Y008471D01*
X027748Y008485D01*
X027741Y008501D01*
X027737Y008518D01*
X027735Y008535D01*
X027735Y008685D01*
X027785Y008735D01*
X027785Y010635D01*
X027735Y010685D01*
X027735Y010835D01*
X027737Y010852D01*
X027741Y010869D01*
X027748Y010885D01*
X027758Y010899D01*
X027771Y010912D01*
X027785Y010922D01*
X027801Y010929D01*
X027818Y010933D01*
X027835Y010935D01*
X028535Y010935D01*
X028552Y010933D01*
X028569Y010929D01*
X028585Y010922D01*
X028599Y010912D01*
X028612Y010899D01*
X028622Y010885D01*
X028629Y010869D01*
X028633Y010852D01*
X028635Y010835D01*
X028635Y010685D01*
X028585Y010635D01*
X028585Y008735D01*
X028635Y008685D01*
X028635Y008535D01*
X028633Y008518D01*
X028629Y008501D01*
X028622Y008485D01*
X028612Y008471D01*
X028599Y008458D01*
X028585Y008448D01*
X028569Y008441D01*
X028552Y008437D01*
X028535Y008435D01*
X027135Y008535D02*
X027135Y008685D01*
X027085Y008735D01*
X027085Y010635D01*
X027135Y010685D01*
X027135Y010835D01*
X027133Y010852D01*
X027129Y010869D01*
X027122Y010885D01*
X027112Y010899D01*
X027099Y010912D01*
X027085Y010922D01*
X027069Y010929D01*
X027052Y010933D01*
X027035Y010935D01*
X026335Y010935D01*
X026318Y010933D01*
X026301Y010929D01*
X026285Y010922D01*
X026271Y010912D01*
X026258Y010899D01*
X026248Y010885D01*
X026241Y010869D01*
X026237Y010852D01*
X026235Y010835D01*
X026235Y010685D01*
X026285Y010635D01*
X026285Y008735D01*
X026235Y008685D01*
X026235Y008535D01*
X026237Y008518D01*
X026241Y008501D01*
X026248Y008485D01*
X026258Y008471D01*
X026271Y008458D01*
X026285Y008448D01*
X026301Y008441D01*
X026318Y008437D01*
X026335Y008435D01*
X027035Y008435D01*
X027052Y008437D01*
X027069Y008441D01*
X027085Y008448D01*
X027099Y008458D01*
X027112Y008471D01*
X027122Y008485D01*
X027129Y008501D01*
X027133Y008518D01*
X027135Y008535D01*
X025635Y008535D02*
X025635Y008685D01*
X025585Y008735D01*
X025585Y010635D01*
X025635Y010685D01*
X025635Y010835D01*
X025633Y010852D01*
X025629Y010869D01*
X025622Y010885D01*
X025612Y010899D01*
X025599Y010912D01*
X025585Y010922D01*
X025569Y010929D01*
X025552Y010933D01*
X025535Y010935D01*
X024835Y010935D01*
X024818Y010933D01*
X024801Y010929D01*
X024785Y010922D01*
X024771Y010912D01*
X024758Y010899D01*
X024748Y010885D01*
X024741Y010869D01*
X024737Y010852D01*
X024735Y010835D01*
X024735Y010685D01*
X024785Y010635D01*
X024785Y008735D01*
X024735Y008685D01*
X024735Y008535D01*
X024737Y008518D01*
X024741Y008501D01*
X024748Y008485D01*
X024758Y008471D01*
X024771Y008458D01*
X024785Y008448D01*
X024801Y008441D01*
X024818Y008437D01*
X024835Y008435D01*
X025535Y008435D01*
X025552Y008437D01*
X025569Y008441D01*
X025585Y008448D01*
X025599Y008458D01*
X025612Y008471D01*
X025622Y008485D01*
X025629Y008501D01*
X025633Y008518D01*
X025635Y008535D01*
X024085Y007385D02*
X024315Y007065D01*
X025185Y005685D01*
X024315Y004305D01*
X024085Y003985D01*
X022285Y003985D01*
X022055Y004305D01*
X021185Y005685D01*
X022075Y007065D01*
X022285Y007385D01*
X024085Y007385D01*
X024315Y007065D02*
X025565Y007065D01*
X025815Y006815D01*
X025815Y004555D01*
X025565Y004305D01*
X024315Y004305D01*
X023685Y005055D02*
X023685Y006315D01*
X022435Y006685D01*
X022685Y006435D01*
X022685Y004935D01*
X022435Y004685D01*
X023685Y005055D01*
X022685Y004685D02*
X022745Y004657D01*
X022806Y004633D01*
X022869Y004613D01*
X022933Y004596D01*
X022997Y004583D01*
X023062Y004574D01*
X023128Y004568D01*
X023194Y004567D01*
X023260Y004570D01*
X023326Y004576D01*
X023391Y004586D01*
X023455Y004600D01*
X023519Y004618D01*
X023581Y004639D01*
X023642Y004665D01*
X023701Y004693D01*
X023759Y004725D01*
X023814Y004761D01*
X023868Y004800D01*
X023919Y004841D01*
X023967Y004886D01*
X024013Y004934D01*
X024056Y004984D01*
X024095Y005036D01*
X024132Y005091D01*
X024165Y005148D01*
X024195Y005207D01*
X024222Y005267D01*
X024245Y005329D01*
X024264Y005392D01*
X024279Y005456D01*
X024291Y005521D01*
X024299Y005586D01*
X024303Y005652D01*
X024303Y005718D01*
X024299Y005784D01*
X024291Y005849D01*
X024279Y005914D01*
X024264Y005978D01*
X024245Y006041D01*
X024222Y006103D01*
X024195Y006163D01*
X024165Y006222D01*
X024132Y006279D01*
X024095Y006334D01*
X024056Y006386D01*
X024013Y006436D01*
X023967Y006484D01*
X023919Y006529D01*
X023868Y006570D01*
X023814Y006609D01*
X023759Y006645D01*
X023701Y006677D01*
X023642Y006705D01*
X023581Y006731D01*
X023519Y006752D01*
X023455Y006770D01*
X023391Y006784D01*
X023326Y006794D01*
X023260Y006800D01*
X023194Y006803D01*
X023128Y006802D01*
X023062Y006796D01*
X022997Y006787D01*
X022933Y006774D01*
X022869Y006757D01*
X022806Y006737D01*
X022745Y006713D01*
X022685Y006685D01*
X022435Y006685D02*
X022185Y006685D01*
X021935Y006435D01*
X021935Y004935D01*
X022185Y004685D01*
X022435Y004685D01*
X022055Y004305D02*
X020805Y004305D01*
X020555Y004555D01*
X020555Y006815D01*
X020805Y007065D01*
X022075Y007065D01*
X019735Y007185D02*
X019435Y007185D01*
X019435Y007785D01*
X016935Y007785D01*
X016935Y007185D01*
X016935Y006585D01*
X019435Y006585D01*
X019435Y007185D01*
X019335Y008235D02*
X019185Y008235D01*
X019135Y008285D01*
X017235Y008285D01*
X017185Y008235D01*
X017035Y008235D01*
X017018Y008237D01*
X017001Y008241D01*
X016985Y008248D01*
X016971Y008258D01*
X016958Y008271D01*
X016948Y008285D01*
X016941Y008301D01*
X016937Y008318D01*
X016935Y008335D01*
X016935Y009035D01*
X016937Y009052D01*
X016941Y009069D01*
X016948Y009085D01*
X016958Y009099D01*
X016971Y009112D01*
X016985Y009122D01*
X017001Y009129D01*
X017018Y009133D01*
X017035Y009135D01*
X017185Y009135D01*
X017235Y009085D01*
X019135Y009085D01*
X019185Y009135D01*
X019335Y009135D01*
X019352Y009133D01*
X019369Y009129D01*
X019385Y009122D01*
X019399Y009112D01*
X019412Y009099D01*
X019422Y009085D01*
X019429Y009069D01*
X019433Y009052D01*
X019435Y009035D01*
X019435Y008335D01*
X019433Y008318D01*
X019429Y008301D01*
X019422Y008285D01*
X019412Y008271D01*
X019399Y008258D01*
X019385Y008248D01*
X019369Y008241D01*
X019352Y008237D01*
X019335Y008235D01*
X016935Y007185D02*
X016635Y007185D01*
X016035Y005635D02*
X017335Y005635D01*
X017361Y005633D01*
X017387Y005628D01*
X017412Y005620D01*
X017435Y005608D01*
X017457Y005594D01*
X017476Y005576D01*
X017494Y005557D01*
X017508Y005535D01*
X017520Y005512D01*
X017528Y005487D01*
X017533Y005461D01*
X017535Y005435D01*
X017535Y004935D01*
X017533Y004909D01*
X017528Y004883D01*
X017520Y004858D01*
X017508Y004835D01*
X017494Y004813D01*
X017476Y004794D01*
X017457Y004776D01*
X017435Y004762D01*
X017412Y004750D01*
X017387Y004742D01*
X017361Y004737D01*
X017335Y004735D01*
X016035Y004735D01*
X016009Y004737D01*
X015983Y004742D01*
X015958Y004750D01*
X015935Y004762D01*
X015913Y004776D01*
X015894Y004794D01*
X015876Y004813D01*
X015862Y004835D01*
X015850Y004858D01*
X015842Y004883D01*
X015837Y004909D01*
X015835Y004935D01*
X015835Y005435D01*
X015837Y005461D01*
X015842Y005487D01*
X015850Y005512D01*
X015862Y005535D01*
X015876Y005557D01*
X015894Y005576D01*
X015913Y005594D01*
X015935Y005608D01*
X015958Y005620D01*
X015983Y005628D01*
X016009Y005633D01*
X016035Y005635D01*
X016185Y005185D02*
X016555Y005185D01*
X016805Y005185D02*
X017185Y005185D01*
X014685Y005285D02*
X014646Y005287D01*
X014607Y005293D01*
X014569Y005302D01*
X014532Y005315D01*
X014496Y005332D01*
X014463Y005352D01*
X014431Y005376D01*
X014402Y005402D01*
X014376Y005431D01*
X014352Y005463D01*
X014332Y005496D01*
X014315Y005532D01*
X014302Y005569D01*
X014293Y005607D01*
X014287Y005646D01*
X014285Y005685D01*
X014286Y006133D02*
X014324Y006164D01*
X014364Y006192D01*
X014406Y006216D01*
X014449Y006237D01*
X014495Y006254D01*
X014541Y006267D01*
X014589Y006277D01*
X014637Y006283D01*
X014685Y006285D01*
X014435Y005685D02*
X014437Y005655D01*
X014442Y005625D01*
X014451Y005596D01*
X014464Y005569D01*
X014479Y005543D01*
X014498Y005519D01*
X014519Y005498D01*
X014543Y005479D01*
X014569Y005464D01*
X014596Y005451D01*
X014625Y005442D01*
X014655Y005437D01*
X014685Y005435D01*
X015085Y005685D02*
X015083Y005724D01*
X015077Y005763D01*
X015068Y005801D01*
X015055Y005838D01*
X015038Y005874D01*
X015018Y005907D01*
X014994Y005939D01*
X014968Y005968D01*
X014939Y005994D01*
X014907Y006018D01*
X014874Y006038D01*
X014838Y006055D01*
X014801Y006068D01*
X014763Y006077D01*
X014724Y006083D01*
X014685Y006085D01*
X014685Y005935D02*
X014715Y005933D01*
X014745Y005928D01*
X014774Y005919D01*
X014801Y005906D01*
X014827Y005891D01*
X014851Y005872D01*
X014872Y005851D01*
X014891Y005827D01*
X014906Y005801D01*
X014919Y005774D01*
X014928Y005745D01*
X014933Y005715D01*
X014935Y005685D01*
X014317Y006159D02*
X014282Y006129D01*
X014249Y006098D01*
X014219Y006063D01*
X014192Y006027D01*
X014168Y005989D01*
X014146Y005949D01*
X014128Y005907D01*
X014112Y005864D01*
X014100Y005820D01*
X014092Y005776D01*
X014087Y005730D01*
X014085Y005685D01*
X014087Y005640D01*
X014092Y005594D01*
X014100Y005550D01*
X014112Y005506D01*
X014128Y005463D01*
X014146Y005421D01*
X014168Y005381D01*
X014192Y005343D01*
X014219Y005307D01*
X014249Y005272D01*
X014282Y005241D01*
X014317Y005211D01*
X015285Y005685D02*
X015283Y005731D01*
X015278Y005777D01*
X015269Y005823D01*
X015257Y005868D01*
X015241Y005911D01*
X015222Y005953D01*
X015199Y005994D01*
X015174Y006033D01*
X015146Y006069D01*
X015115Y006104D01*
X015081Y006136D01*
X015045Y006165D01*
X015285Y005685D02*
X015283Y005638D01*
X015277Y005590D01*
X015268Y005544D01*
X015255Y005498D01*
X015239Y005454D01*
X015219Y005410D01*
X015195Y005369D01*
X015169Y005330D01*
X015139Y005293D01*
X015106Y005258D01*
X015071Y005226D01*
X015034Y005197D01*
X014685Y005085D02*
X014639Y005087D01*
X014593Y005092D01*
X014547Y005101D01*
X014503Y005113D01*
X014459Y005129D01*
X014417Y005148D01*
X014376Y005170D01*
X014338Y005196D01*
X014301Y005224D01*
X014685Y005085D02*
X014732Y005087D01*
X014779Y005092D01*
X014825Y005102D01*
X014871Y005115D01*
X014915Y005131D01*
X014958Y005151D01*
X014999Y005174D01*
X015038Y005200D01*
X015075Y005229D01*
X015069Y006146D02*
X015032Y006174D01*
X014994Y006200D01*
X014953Y006222D01*
X014911Y006241D01*
X014867Y006257D01*
X014823Y006269D01*
X014777Y006278D01*
X014731Y006283D01*
X014685Y006285D01*
X013315Y006815D02*
X013315Y004555D01*
X013065Y004305D01*
X011795Y004305D01*
X012685Y005685D01*
X011815Y007065D01*
X011585Y007385D01*
X009785Y007385D01*
X009555Y007065D01*
X008685Y005685D01*
X009555Y004305D01*
X009785Y003985D01*
X011585Y003985D01*
X011795Y004305D01*
X011685Y004685D02*
X011435Y004685D01*
X010185Y005055D01*
X010185Y006315D01*
X011435Y006685D01*
X011685Y006685D01*
X011935Y006435D01*
X011935Y004935D01*
X011685Y004685D01*
X011435Y004685D02*
X011185Y004935D01*
X011185Y006435D01*
X011435Y006685D01*
X011815Y007065D02*
X013065Y007065D01*
X013315Y006815D01*
X011185Y006685D02*
X011125Y006713D01*
X011064Y006737D01*
X011001Y006757D01*
X010937Y006774D01*
X010873Y006787D01*
X010808Y006796D01*
X010742Y006802D01*
X010676Y006803D01*
X010610Y006800D01*
X010544Y006794D01*
X010479Y006784D01*
X010415Y006770D01*
X010351Y006752D01*
X010289Y006731D01*
X010228Y006705D01*
X010169Y006677D01*
X010111Y006645D01*
X010056Y006609D01*
X010002Y006570D01*
X009951Y006529D01*
X009903Y006484D01*
X009857Y006436D01*
X009814Y006386D01*
X009775Y006334D01*
X009738Y006279D01*
X009705Y006222D01*
X009675Y006163D01*
X009648Y006103D01*
X009625Y006041D01*
X009606Y005978D01*
X009591Y005914D01*
X009579Y005849D01*
X009571Y005784D01*
X009567Y005718D01*
X009567Y005652D01*
X009571Y005586D01*
X009579Y005521D01*
X009591Y005456D01*
X009606Y005392D01*
X009625Y005329D01*
X009648Y005267D01*
X009675Y005207D01*
X009705Y005148D01*
X009738Y005091D01*
X009775Y005036D01*
X009814Y004984D01*
X009857Y004934D01*
X009903Y004886D01*
X009951Y004841D01*
X010002Y004800D01*
X010056Y004761D01*
X010111Y004725D01*
X010169Y004693D01*
X010228Y004665D01*
X010289Y004639D01*
X010351Y004618D01*
X010415Y004600D01*
X010479Y004586D01*
X010544Y004576D01*
X010610Y004570D01*
X010676Y004567D01*
X010742Y004568D01*
X010808Y004574D01*
X010873Y004583D01*
X010937Y004596D01*
X011001Y004613D01*
X011064Y004633D01*
X011125Y004657D01*
X011185Y004685D01*
X009555Y004305D02*
X008305Y004305D01*
X008055Y004555D01*
X008055Y006815D01*
X008305Y007065D01*
X009555Y007065D01*
X009785Y008485D02*
X009555Y008805D01*
X008685Y010185D01*
X009575Y011565D01*
X009785Y011885D01*
X011585Y011885D01*
X011815Y011565D01*
X012685Y010185D01*
X011815Y008805D01*
X011585Y008485D01*
X009785Y008485D01*
X009555Y008805D02*
X008305Y008805D01*
X008055Y009055D01*
X008055Y011315D01*
X008305Y011565D01*
X009575Y011565D01*
X009685Y011185D02*
X009935Y011185D01*
X011185Y010815D01*
X011185Y009555D01*
X009935Y009185D01*
X009685Y009185D01*
X009435Y009435D01*
X009435Y010935D01*
X009685Y011185D01*
X009935Y011185D02*
X010185Y010935D01*
X010185Y009435D01*
X009935Y009185D01*
X010185Y009185D02*
X010245Y009157D01*
X010306Y009133D01*
X010369Y009113D01*
X010433Y009096D01*
X010497Y009083D01*
X010562Y009074D01*
X010628Y009068D01*
X010694Y009067D01*
X010760Y009070D01*
X010826Y009076D01*
X010891Y009086D01*
X010955Y009100D01*
X011019Y009118D01*
X011081Y009139D01*
X011142Y009165D01*
X011201Y009193D01*
X011259Y009225D01*
X011314Y009261D01*
X011368Y009300D01*
X011419Y009341D01*
X011467Y009386D01*
X011513Y009434D01*
X011556Y009484D01*
X011595Y009536D01*
X011632Y009591D01*
X011665Y009648D01*
X011695Y009707D01*
X011722Y009767D01*
X011745Y009829D01*
X011764Y009892D01*
X011779Y009956D01*
X011791Y010021D01*
X011799Y010086D01*
X011803Y010152D01*
X011803Y010218D01*
X011799Y010284D01*
X011791Y010349D01*
X011779Y010414D01*
X011764Y010478D01*
X011745Y010541D01*
X011722Y010603D01*
X011695Y010663D01*
X011665Y010722D01*
X011632Y010779D01*
X011595Y010834D01*
X011556Y010886D01*
X011513Y010936D01*
X011467Y010984D01*
X011419Y011029D01*
X011368Y011070D01*
X011314Y011109D01*
X011259Y011145D01*
X011201Y011177D01*
X011142Y011205D01*
X011081Y011231D01*
X011019Y011252D01*
X010955Y011270D01*
X010891Y011284D01*
X010826Y011294D01*
X010760Y011300D01*
X010694Y011303D01*
X010628Y011302D01*
X010562Y011296D01*
X010497Y011287D01*
X010433Y011274D01*
X010369Y011257D01*
X010306Y011237D01*
X010245Y011213D01*
X010185Y011185D01*
X011815Y011565D02*
X013065Y011565D01*
X013315Y011315D01*
X013315Y009055D01*
X013065Y008805D01*
X011815Y008805D01*
X009685Y009185D02*
X009739Y009134D01*
X009795Y009086D01*
X009854Y009041D01*
X009915Y008999D01*
X009978Y008960D01*
X010043Y008925D01*
X010110Y008893D01*
X010178Y008865D01*
X010248Y008840D01*
X010319Y008819D01*
X010391Y008802D01*
X010464Y008788D01*
X010537Y008779D01*
X010611Y008773D01*
X010685Y008771D01*
X010759Y008773D01*
X010833Y008779D01*
X010906Y008788D01*
X010979Y008802D01*
X011051Y008819D01*
X011122Y008840D01*
X011192Y008865D01*
X011260Y008893D01*
X011327Y008925D01*
X011392Y008960D01*
X011455Y008999D01*
X011516Y009041D01*
X011575Y009086D01*
X011631Y009134D01*
X011685Y009185D01*
X011736Y009239D01*
X011784Y009295D01*
X011829Y009354D01*
X011871Y009415D01*
X011910Y009478D01*
X011945Y009543D01*
X011977Y009610D01*
X012005Y009678D01*
X012030Y009748D01*
X012051Y009819D01*
X012068Y009891D01*
X012082Y009964D01*
X012091Y010037D01*
X012097Y010111D01*
X012099Y010185D01*
X012097Y010259D01*
X012091Y010333D01*
X012082Y010406D01*
X012068Y010479D01*
X012051Y010551D01*
X012030Y010622D01*
X012005Y010692D01*
X011977Y010760D01*
X011945Y010827D01*
X011910Y010892D01*
X011871Y010955D01*
X011829Y011016D01*
X011784Y011075D01*
X011736Y011131D01*
X011685Y011185D01*
X011631Y011236D01*
X011575Y011284D01*
X011516Y011329D01*
X011455Y011371D01*
X011392Y011410D01*
X011327Y011445D01*
X011260Y011477D01*
X011192Y011505D01*
X011122Y011530D01*
X011051Y011551D01*
X010979Y011568D01*
X010906Y011582D01*
X010833Y011591D01*
X010759Y011597D01*
X010685Y011599D01*
X010611Y011597D01*
X010537Y011591D01*
X010464Y011582D01*
X010391Y011568D01*
X010319Y011551D01*
X010248Y011530D01*
X010178Y011505D01*
X010110Y011477D01*
X010043Y011445D01*
X009978Y011410D01*
X009915Y011371D01*
X009854Y011329D01*
X009795Y011284D01*
X009739Y011236D01*
X009685Y011185D01*
X006735Y010185D02*
X006435Y010185D01*
X006435Y010785D01*
X003935Y010785D01*
X003935Y010185D01*
X003935Y009585D01*
X006435Y009585D01*
X006435Y010185D01*
X006335Y011235D02*
X006185Y011235D01*
X006135Y011285D01*
X004235Y011285D01*
X004185Y011235D01*
X004035Y011235D01*
X004018Y011237D01*
X004001Y011241D01*
X003985Y011248D01*
X003971Y011258D01*
X003958Y011271D01*
X003948Y011285D01*
X003941Y011301D01*
X003937Y011318D01*
X003935Y011335D01*
X003935Y012035D01*
X003937Y012052D01*
X003941Y012069D01*
X003948Y012085D01*
X003958Y012099D01*
X003971Y012112D01*
X003985Y012122D01*
X004001Y012129D01*
X004018Y012133D01*
X004035Y012135D01*
X004185Y012135D01*
X004235Y012085D01*
X006135Y012085D01*
X006185Y012135D01*
X006335Y012135D01*
X006352Y012133D01*
X006369Y012129D01*
X006385Y012122D01*
X006399Y012112D01*
X006412Y012099D01*
X006422Y012085D01*
X006429Y012069D01*
X006433Y012052D01*
X006435Y012035D01*
X006435Y011335D01*
X006433Y011318D01*
X006429Y011301D01*
X006422Y011285D01*
X006412Y011271D01*
X006399Y011258D01*
X006385Y011248D01*
X006369Y011241D01*
X006352Y011237D01*
X006335Y011235D01*
X003935Y010185D02*
X003635Y010185D01*
X004035Y009135D02*
X004185Y009135D01*
X004235Y009085D01*
X006135Y009085D01*
X006185Y009135D01*
X006335Y009135D01*
X006352Y009133D01*
X006369Y009129D01*
X006385Y009122D01*
X006399Y009112D01*
X006412Y009099D01*
X006422Y009085D01*
X006429Y009069D01*
X006433Y009052D01*
X006435Y009035D01*
X006435Y008335D01*
X006433Y008318D01*
X006429Y008301D01*
X006422Y008285D01*
X006412Y008271D01*
X006399Y008258D01*
X006385Y008248D01*
X006369Y008241D01*
X006352Y008237D01*
X006335Y008235D01*
X006185Y008235D01*
X006135Y008285D01*
X004235Y008285D01*
X004185Y008235D01*
X004035Y008235D01*
X004018Y008237D01*
X004001Y008241D01*
X003985Y008248D01*
X003971Y008258D01*
X003958Y008271D01*
X003948Y008285D01*
X003941Y008301D01*
X003937Y008318D01*
X003935Y008335D01*
X003935Y009035D01*
X003937Y009052D01*
X003941Y009069D01*
X003948Y009085D01*
X003958Y009099D01*
X003971Y009112D01*
X003985Y009122D01*
X004001Y009129D01*
X004018Y009133D01*
X004035Y009135D01*
X003935Y007785D02*
X003935Y007185D01*
X003935Y006585D01*
X006435Y006585D01*
X006435Y007185D01*
X006435Y007785D01*
X003935Y007785D01*
X003935Y007185D02*
X003635Y007185D01*
X004535Y006135D02*
X005835Y006135D01*
X005861Y006133D01*
X005887Y006128D01*
X005912Y006120D01*
X005935Y006108D01*
X005957Y006094D01*
X005976Y006076D01*
X005994Y006057D01*
X006008Y006035D01*
X006020Y006012D01*
X006028Y005987D01*
X006033Y005961D01*
X006035Y005935D01*
X006035Y005435D01*
X006033Y005409D01*
X006028Y005383D01*
X006020Y005358D01*
X006008Y005335D01*
X005994Y005313D01*
X005976Y005294D01*
X005957Y005276D01*
X005935Y005262D01*
X005912Y005250D01*
X005887Y005242D01*
X005861Y005237D01*
X005835Y005235D01*
X004535Y005235D01*
X004509Y005237D01*
X004483Y005242D01*
X004458Y005250D01*
X004435Y005262D01*
X004413Y005276D01*
X004394Y005294D01*
X004376Y005313D01*
X004362Y005335D01*
X004350Y005358D01*
X004342Y005383D01*
X004337Y005409D01*
X004335Y005435D01*
X004335Y005935D01*
X004337Y005961D01*
X004342Y005987D01*
X004350Y006012D01*
X004362Y006035D01*
X004376Y006057D01*
X004394Y006076D01*
X004413Y006094D01*
X004435Y006108D01*
X004458Y006120D01*
X004483Y006128D01*
X004509Y006133D01*
X004535Y006135D01*
X004685Y005685D02*
X005055Y005685D01*
X005305Y005685D02*
X005685Y005685D01*
X006435Y007185D02*
X006735Y007185D01*
X011685Y006685D02*
X011631Y006736D01*
X011575Y006784D01*
X011516Y006829D01*
X011455Y006871D01*
X011392Y006910D01*
X011327Y006945D01*
X011260Y006977D01*
X011192Y007005D01*
X011122Y007030D01*
X011051Y007051D01*
X010979Y007068D01*
X010906Y007082D01*
X010833Y007091D01*
X010759Y007097D01*
X010685Y007099D01*
X010611Y007097D01*
X010537Y007091D01*
X010464Y007082D01*
X010391Y007068D01*
X010319Y007051D01*
X010248Y007030D01*
X010178Y007005D01*
X010110Y006977D01*
X010043Y006945D01*
X009978Y006910D01*
X009915Y006871D01*
X009854Y006829D01*
X009795Y006784D01*
X009739Y006736D01*
X009685Y006685D01*
X009634Y006631D01*
X009586Y006575D01*
X009541Y006516D01*
X009499Y006455D01*
X009460Y006392D01*
X009425Y006327D01*
X009393Y006260D01*
X009365Y006192D01*
X009340Y006122D01*
X009319Y006051D01*
X009302Y005979D01*
X009288Y005906D01*
X009279Y005833D01*
X009273Y005759D01*
X009271Y005685D01*
X009273Y005611D01*
X009279Y005537D01*
X009288Y005464D01*
X009302Y005391D01*
X009319Y005319D01*
X009340Y005248D01*
X009365Y005178D01*
X009393Y005110D01*
X009425Y005043D01*
X009460Y004978D01*
X009499Y004915D01*
X009541Y004854D01*
X009586Y004795D01*
X009634Y004739D01*
X009685Y004685D01*
X009739Y004634D01*
X009795Y004586D01*
X009854Y004541D01*
X009915Y004499D01*
X009978Y004460D01*
X010043Y004425D01*
X010110Y004393D01*
X010178Y004365D01*
X010248Y004340D01*
X010319Y004319D01*
X010391Y004302D01*
X010464Y004288D01*
X010537Y004279D01*
X010611Y004273D01*
X010685Y004271D01*
X010759Y004273D01*
X010833Y004279D01*
X010906Y004288D01*
X010979Y004302D01*
X011051Y004319D01*
X011122Y004340D01*
X011192Y004365D01*
X011260Y004393D01*
X011327Y004425D01*
X011392Y004460D01*
X011455Y004499D01*
X011516Y004541D01*
X011575Y004586D01*
X011631Y004634D01*
X011685Y004685D01*
X016935Y009585D02*
X016935Y010185D01*
X016935Y010785D01*
X019435Y010785D01*
X019435Y010185D01*
X019435Y009585D01*
X016935Y009585D01*
X016935Y010185D02*
X016635Y010185D01*
X015035Y010935D02*
X014335Y010935D01*
X014318Y010937D01*
X014301Y010941D01*
X014285Y010948D01*
X014271Y010958D01*
X014258Y010971D01*
X014248Y010985D01*
X014241Y011001D01*
X014237Y011018D01*
X014235Y011035D01*
X014235Y011185D01*
X014285Y011235D01*
X014285Y013135D01*
X014235Y013185D01*
X014235Y013335D01*
X014237Y013352D01*
X014241Y013369D01*
X014248Y013385D01*
X014258Y013399D01*
X014271Y013412D01*
X014285Y013422D01*
X014301Y013429D01*
X014318Y013433D01*
X014335Y013435D01*
X015035Y013435D01*
X015052Y013433D01*
X015069Y013429D01*
X015085Y013422D01*
X015099Y013412D01*
X015112Y013399D01*
X015122Y013385D01*
X015129Y013369D01*
X015133Y013352D01*
X015135Y013335D01*
X015135Y013185D01*
X015085Y013135D01*
X015085Y011235D01*
X015135Y011185D01*
X015135Y011035D01*
X015133Y011018D01*
X015129Y011001D01*
X015122Y010985D01*
X015112Y010971D01*
X015099Y010958D01*
X015085Y010948D01*
X015069Y010941D01*
X015052Y010937D01*
X015035Y010935D01*
X016935Y011335D02*
X016935Y012035D01*
X016937Y012052D01*
X016941Y012069D01*
X016948Y012085D01*
X016958Y012099D01*
X016971Y012112D01*
X016985Y012122D01*
X017001Y012129D01*
X017018Y012133D01*
X017035Y012135D01*
X017185Y012135D01*
X017235Y012085D01*
X019135Y012085D01*
X019185Y012135D01*
X019335Y012135D01*
X019352Y012133D01*
X019369Y012129D01*
X019385Y012122D01*
X019399Y012112D01*
X019412Y012099D01*
X019422Y012085D01*
X019429Y012069D01*
X019433Y012052D01*
X019435Y012035D01*
X019435Y011335D01*
X019433Y011318D01*
X019429Y011301D01*
X019422Y011285D01*
X019412Y011271D01*
X019399Y011258D01*
X019385Y011248D01*
X019369Y011241D01*
X019352Y011237D01*
X019335Y011235D01*
X019185Y011235D01*
X019135Y011285D01*
X017235Y011285D01*
X017185Y011235D01*
X017035Y011235D01*
X017018Y011237D01*
X017001Y011241D01*
X016985Y011248D01*
X016971Y011258D01*
X016958Y011271D01*
X016948Y011285D01*
X016941Y011301D01*
X016937Y011318D01*
X016935Y011335D01*
X019435Y010185D02*
X019735Y010185D01*
X022935Y013335D02*
X023435Y013335D01*
X023461Y013337D01*
X023487Y013342D01*
X023512Y013350D01*
X023535Y013362D01*
X023557Y013376D01*
X023576Y013394D01*
X023594Y013413D01*
X023608Y013435D01*
X023620Y013458D01*
X023628Y013483D01*
X023633Y013509D01*
X023635Y013535D01*
X023635Y014835D01*
X023633Y014861D01*
X023628Y014887D01*
X023620Y014912D01*
X023608Y014935D01*
X023594Y014957D01*
X023576Y014976D01*
X023557Y014994D01*
X023535Y015008D01*
X023512Y015020D01*
X023487Y015028D01*
X023461Y015033D01*
X023435Y015035D01*
X022935Y015035D01*
X022909Y015033D01*
X022883Y015028D01*
X022858Y015020D01*
X022835Y015008D01*
X022813Y014994D01*
X022794Y014976D01*
X022776Y014957D01*
X022762Y014935D01*
X022750Y014912D01*
X022742Y014887D01*
X022737Y014861D01*
X022735Y014835D01*
X022735Y013535D01*
X022737Y013509D01*
X022742Y013483D01*
X022750Y013458D01*
X022762Y013435D01*
X022776Y013413D01*
X022794Y013394D01*
X022813Y013376D01*
X022835Y013362D01*
X022858Y013350D01*
X022883Y013342D01*
X022909Y013337D01*
X022935Y013335D01*
X023185Y013685D02*
X023185Y014065D01*
X023185Y014315D02*
X023185Y014685D01*
X024235Y014185D02*
X024285Y014235D01*
X024285Y016135D01*
X024235Y016185D01*
X024235Y016335D01*
X024237Y016352D01*
X024241Y016369D01*
X024248Y016385D01*
X024258Y016399D01*
X024271Y016412D01*
X024285Y016422D01*
X024301Y016429D01*
X024318Y016433D01*
X024335Y016435D01*
X025035Y016435D01*
X025052Y016433D01*
X025069Y016429D01*
X025085Y016422D01*
X025099Y016412D01*
X025112Y016399D01*
X025122Y016385D01*
X025129Y016369D01*
X025133Y016352D01*
X025135Y016335D01*
X025135Y016185D01*
X025085Y016135D01*
X025085Y014235D01*
X025135Y014185D01*
X025135Y014035D01*
X025133Y014018D01*
X025129Y014001D01*
X025122Y013985D01*
X025112Y013971D01*
X025099Y013958D01*
X025085Y013948D01*
X025069Y013941D01*
X025052Y013937D01*
X025035Y013935D01*
X024335Y013935D01*
X024318Y013937D01*
X024301Y013941D01*
X024285Y013948D01*
X024271Y013958D01*
X024258Y013971D01*
X024248Y013985D01*
X024241Y014001D01*
X024237Y014018D01*
X024235Y014035D01*
X024235Y014185D01*
X025685Y014185D02*
X025685Y014785D01*
X025724Y014787D01*
X025763Y014793D01*
X025801Y014802D01*
X025838Y014815D01*
X025874Y014832D01*
X025907Y014852D01*
X025939Y014876D01*
X025968Y014902D01*
X025994Y014931D01*
X026018Y014963D01*
X026038Y014996D01*
X026055Y015032D01*
X026068Y015069D01*
X026077Y015107D01*
X026083Y015146D01*
X026085Y015185D01*
X026083Y015224D01*
X026077Y015263D01*
X026068Y015301D01*
X026055Y015338D01*
X026038Y015374D01*
X026018Y015407D01*
X025994Y015439D01*
X025968Y015468D01*
X025939Y015494D01*
X025907Y015518D01*
X025874Y015538D01*
X025838Y015555D01*
X025801Y015568D01*
X025763Y015577D01*
X025724Y015583D01*
X025685Y015585D01*
X025685Y016185D01*
X029685Y016185D01*
X029685Y014185D01*
X029685Y013185D01*
X025685Y013185D01*
X025685Y014185D01*
X029685Y014185D01*
X030235Y014185D02*
X030285Y014235D01*
X030285Y016135D01*
X030235Y016185D01*
X030235Y016335D01*
X030237Y016352D01*
X030241Y016369D01*
X030248Y016385D01*
X030258Y016399D01*
X030271Y016412D01*
X030285Y016422D01*
X030301Y016429D01*
X030318Y016433D01*
X030335Y016435D01*
X031035Y016435D01*
X031052Y016433D01*
X031069Y016429D01*
X031085Y016422D01*
X031099Y016412D01*
X031112Y016399D01*
X031122Y016385D01*
X031129Y016369D01*
X031133Y016352D01*
X031135Y016335D01*
X031135Y016185D01*
X031085Y016135D01*
X031085Y014235D01*
X031135Y014185D01*
X031135Y014035D01*
X031133Y014018D01*
X031129Y014001D01*
X031122Y013985D01*
X031112Y013971D01*
X031099Y013958D01*
X031085Y013948D01*
X031069Y013941D01*
X031052Y013937D01*
X031035Y013935D01*
X030335Y013935D01*
X030318Y013937D01*
X030301Y013941D01*
X030285Y013948D01*
X030271Y013958D01*
X030258Y013971D01*
X030248Y013985D01*
X030241Y014001D01*
X030237Y014018D01*
X030235Y014035D01*
X030235Y014185D01*
X031735Y014335D02*
X031735Y013035D01*
X031737Y013009D01*
X031742Y012983D01*
X031750Y012958D01*
X031762Y012935D01*
X031776Y012913D01*
X031794Y012894D01*
X031813Y012876D01*
X031835Y012862D01*
X031858Y012850D01*
X031883Y012842D01*
X031909Y012837D01*
X031935Y012835D01*
X032435Y012835D01*
X032461Y012837D01*
X032487Y012842D01*
X032512Y012850D01*
X032535Y012862D01*
X032557Y012876D01*
X032576Y012894D01*
X032594Y012913D01*
X032608Y012935D01*
X032620Y012958D01*
X032628Y012983D01*
X032633Y013009D01*
X032635Y013035D01*
X032635Y014335D01*
X032633Y014361D01*
X032628Y014387D01*
X032620Y014412D01*
X032608Y014435D01*
X032594Y014457D01*
X032576Y014476D01*
X032557Y014494D01*
X032535Y014508D01*
X032512Y014520D01*
X032487Y014528D01*
X032461Y014533D01*
X032435Y014535D01*
X031935Y014535D01*
X031909Y014533D01*
X031883Y014528D01*
X031858Y014520D01*
X031835Y014508D01*
X031813Y014494D01*
X031794Y014476D01*
X031776Y014457D01*
X031762Y014435D01*
X031750Y014412D01*
X031742Y014387D01*
X031737Y014361D01*
X031735Y014335D01*
X032185Y014185D02*
X032185Y013815D01*
X032185Y013565D02*
X032185Y013185D01*
X032685Y012135D02*
X032635Y012085D01*
X030735Y012085D01*
X030685Y012135D01*
X030535Y012135D01*
X030518Y012133D01*
X030501Y012129D01*
X030485Y012122D01*
X030471Y012112D01*
X030458Y012099D01*
X030448Y012085D01*
X030441Y012069D01*
X030437Y012052D01*
X030435Y012035D01*
X030435Y011335D01*
X030437Y011318D01*
X030441Y011301D01*
X030448Y011285D01*
X030458Y011271D01*
X030471Y011258D01*
X030485Y011248D01*
X030501Y011241D01*
X030518Y011237D01*
X030535Y011235D01*
X030685Y011235D01*
X030735Y011285D01*
X032635Y011285D01*
X032685Y011235D01*
X032835Y011235D01*
X032852Y011237D01*
X032869Y011241D01*
X032885Y011248D01*
X032899Y011258D01*
X032912Y011271D01*
X032922Y011285D01*
X032929Y011301D01*
X032933Y011318D01*
X032935Y011335D01*
X032935Y012035D01*
X032933Y012052D01*
X032929Y012069D01*
X032922Y012085D01*
X032912Y012099D01*
X032899Y012112D01*
X032885Y012122D01*
X032869Y012129D01*
X032852Y012133D01*
X032835Y012135D01*
X032685Y012135D01*
X032935Y010785D02*
X030435Y010785D01*
X030435Y010185D01*
X030435Y009585D01*
X032935Y009585D01*
X032935Y010185D01*
X032935Y010785D01*
X032935Y010185D02*
X033235Y010185D01*
X030435Y010185D02*
X030135Y010185D01*
X038235Y010685D02*
X038285Y010635D01*
X038285Y008735D01*
X038235Y008685D01*
X038235Y008535D01*
X038237Y008518D01*
X038241Y008501D01*
X038248Y008485D01*
X038258Y008471D01*
X038271Y008458D01*
X038285Y008448D01*
X038301Y008441D01*
X038318Y008437D01*
X038335Y008435D01*
X039035Y008435D01*
X039052Y008437D01*
X039069Y008441D01*
X039085Y008448D01*
X039099Y008458D01*
X039112Y008471D01*
X039122Y008485D01*
X039129Y008501D01*
X039133Y008518D01*
X039135Y008535D01*
X039135Y008685D01*
X039085Y008735D01*
X039085Y010635D01*
X039135Y010685D01*
X039135Y010835D01*
X039133Y010852D01*
X039129Y010869D01*
X039122Y010885D01*
X039112Y010899D01*
X039099Y010912D01*
X039085Y010922D01*
X039069Y010929D01*
X039052Y010933D01*
X039035Y010935D01*
X038335Y010935D01*
X038318Y010933D01*
X038301Y010929D01*
X038285Y010922D01*
X038271Y010912D01*
X038258Y010899D01*
X038248Y010885D01*
X038241Y010869D01*
X038237Y010852D01*
X038235Y010835D01*
X038235Y010685D01*
X039735Y010685D02*
X039785Y010635D01*
X039785Y008735D01*
X039735Y008685D01*
X039735Y008535D01*
X039737Y008518D01*
X039741Y008501D01*
X039748Y008485D01*
X039758Y008471D01*
X039771Y008458D01*
X039785Y008448D01*
X039801Y008441D01*
X039818Y008437D01*
X039835Y008435D01*
X040535Y008435D01*
X040552Y008437D01*
X040569Y008441D01*
X040585Y008448D01*
X040599Y008458D01*
X040612Y008471D01*
X040622Y008485D01*
X040629Y008501D01*
X040633Y008518D01*
X040635Y008535D01*
X040635Y008685D01*
X040585Y008735D01*
X040585Y010635D01*
X040635Y010685D01*
X040635Y010835D01*
X040633Y010852D01*
X040629Y010869D01*
X040622Y010885D01*
X040612Y010899D01*
X040599Y010912D01*
X040585Y010922D01*
X040569Y010929D01*
X040552Y010933D01*
X040535Y010935D01*
X039835Y010935D01*
X039818Y010933D01*
X039801Y010929D01*
X039785Y010922D01*
X039771Y010912D01*
X039758Y010899D01*
X039748Y010885D01*
X039741Y010869D01*
X039737Y010852D01*
X039735Y010835D01*
X039735Y010685D01*
X041235Y010685D02*
X041235Y010835D01*
X041237Y010852D01*
X041241Y010869D01*
X041248Y010885D01*
X041258Y010899D01*
X041271Y010912D01*
X041285Y010922D01*
X041301Y010929D01*
X041318Y010933D01*
X041335Y010935D01*
X042035Y010935D01*
X042052Y010933D01*
X042069Y010929D01*
X042085Y010922D01*
X042099Y010912D01*
X042112Y010899D01*
X042122Y010885D01*
X042129Y010869D01*
X042133Y010852D01*
X042135Y010835D01*
X042135Y010685D01*
X042085Y010635D01*
X042085Y008735D01*
X042135Y008685D01*
X042135Y008535D01*
X042133Y008518D01*
X042129Y008501D01*
X042122Y008485D01*
X042112Y008471D01*
X042099Y008458D01*
X042085Y008448D01*
X042069Y008441D01*
X042052Y008437D01*
X042035Y008435D01*
X041335Y008435D01*
X041318Y008437D01*
X041301Y008441D01*
X041285Y008448D01*
X041271Y008458D01*
X041258Y008471D01*
X041248Y008485D01*
X041241Y008501D01*
X041237Y008518D01*
X041235Y008535D01*
X041235Y008685D01*
X041285Y008735D01*
X041285Y010635D01*
X041235Y010685D01*
X040285Y005685D02*
X040287Y005646D01*
X040293Y005607D01*
X040302Y005569D01*
X040315Y005532D01*
X040332Y005496D01*
X040352Y005463D01*
X040376Y005431D01*
X040402Y005402D01*
X040431Y005376D01*
X040463Y005352D01*
X040496Y005332D01*
X040532Y005315D01*
X040569Y005302D01*
X040607Y005293D01*
X040646Y005287D01*
X040685Y005285D01*
X040685Y005435D02*
X040655Y005437D01*
X040625Y005442D01*
X040596Y005451D01*
X040569Y005464D01*
X040543Y005479D01*
X040519Y005498D01*
X040498Y005519D01*
X040479Y005543D01*
X040464Y005569D01*
X040451Y005596D01*
X040442Y005625D01*
X040437Y005655D01*
X040435Y005685D01*
X040286Y006133D02*
X040324Y006164D01*
X040364Y006192D01*
X040406Y006216D01*
X040449Y006237D01*
X040495Y006254D01*
X040541Y006267D01*
X040589Y006277D01*
X040637Y006283D01*
X040685Y006285D01*
X040685Y006085D02*
X040724Y006083D01*
X040763Y006077D01*
X040801Y006068D01*
X040838Y006055D01*
X040874Y006038D01*
X040907Y006018D01*
X040939Y005994D01*
X040968Y005968D01*
X040994Y005939D01*
X041018Y005907D01*
X041038Y005874D01*
X041055Y005838D01*
X041068Y005801D01*
X041077Y005763D01*
X041083Y005724D01*
X041085Y005685D01*
X040935Y005685D02*
X040933Y005715D01*
X040928Y005745D01*
X040919Y005774D01*
X040906Y005801D01*
X040891Y005827D01*
X040872Y005851D01*
X040851Y005872D01*
X040827Y005891D01*
X040801Y005906D01*
X040774Y005919D01*
X040745Y005928D01*
X040715Y005933D01*
X040685Y005935D01*
X040317Y006159D02*
X040282Y006129D01*
X040249Y006098D01*
X040219Y006063D01*
X040192Y006027D01*
X040168Y005989D01*
X040146Y005949D01*
X040128Y005907D01*
X040112Y005864D01*
X040100Y005820D01*
X040092Y005776D01*
X040087Y005730D01*
X040085Y005685D01*
X040087Y005640D01*
X040092Y005594D01*
X040100Y005550D01*
X040112Y005506D01*
X040128Y005463D01*
X040146Y005421D01*
X040168Y005381D01*
X040192Y005343D01*
X040219Y005307D01*
X040249Y005272D01*
X040282Y005241D01*
X040317Y005211D01*
X041285Y005685D02*
X041283Y005731D01*
X041278Y005777D01*
X041269Y005823D01*
X041257Y005868D01*
X041241Y005911D01*
X041222Y005953D01*
X041199Y005994D01*
X041174Y006033D01*
X041146Y006069D01*
X041115Y006104D01*
X041081Y006136D01*
X041045Y006165D01*
X041285Y005685D02*
X041283Y005638D01*
X041277Y005590D01*
X041268Y005544D01*
X041255Y005498D01*
X041239Y005454D01*
X041219Y005410D01*
X041195Y005369D01*
X041169Y005330D01*
X041139Y005293D01*
X041106Y005258D01*
X041071Y005226D01*
X041034Y005197D01*
X040685Y005085D02*
X040639Y005087D01*
X040593Y005092D01*
X040547Y005101D01*
X040503Y005113D01*
X040459Y005129D01*
X040417Y005148D01*
X040376Y005170D01*
X040338Y005196D01*
X040301Y005224D01*
X040685Y005085D02*
X040732Y005087D01*
X040779Y005092D01*
X040825Y005102D01*
X040871Y005115D01*
X040915Y005131D01*
X040958Y005151D01*
X040999Y005174D01*
X041038Y005200D01*
X041075Y005229D01*
X041069Y006146D02*
X041032Y006174D01*
X040994Y006200D01*
X040953Y006222D01*
X040911Y006241D01*
X040867Y006257D01*
X040823Y006269D01*
X040777Y006278D01*
X040731Y006283D01*
X040685Y006285D01*
X031035Y005435D02*
X031035Y004935D01*
X031033Y004909D01*
X031028Y004883D01*
X031020Y004858D01*
X031008Y004835D01*
X030994Y004813D01*
X030976Y004794D01*
X030957Y004776D01*
X030935Y004762D01*
X030912Y004750D01*
X030887Y004742D01*
X030861Y004737D01*
X030835Y004735D01*
X029535Y004735D01*
X029509Y004737D01*
X029483Y004742D01*
X029458Y004750D01*
X029435Y004762D01*
X029413Y004776D01*
X029394Y004794D01*
X029376Y004813D01*
X029362Y004835D01*
X029350Y004858D01*
X029342Y004883D01*
X029337Y004909D01*
X029335Y004935D01*
X029335Y005435D01*
X029337Y005461D01*
X029342Y005487D01*
X029350Y005512D01*
X029362Y005535D01*
X029376Y005557D01*
X029394Y005576D01*
X029413Y005594D01*
X029435Y005608D01*
X029458Y005620D01*
X029483Y005628D01*
X029509Y005633D01*
X029535Y005635D01*
X030835Y005635D01*
X030861Y005633D01*
X030887Y005628D01*
X030912Y005620D01*
X030935Y005608D01*
X030957Y005594D01*
X030976Y005576D01*
X030994Y005557D01*
X031008Y005535D01*
X031020Y005512D01*
X031028Y005487D01*
X031033Y005461D01*
X031035Y005435D01*
X030685Y005185D02*
X030305Y005185D01*
X030055Y005185D02*
X029685Y005185D01*
X027185Y005285D02*
X027146Y005287D01*
X027107Y005293D01*
X027069Y005302D01*
X027032Y005315D01*
X026996Y005332D01*
X026963Y005352D01*
X026931Y005376D01*
X026902Y005402D01*
X026876Y005431D01*
X026852Y005463D01*
X026832Y005496D01*
X026815Y005532D01*
X026802Y005569D01*
X026793Y005607D01*
X026787Y005646D01*
X026785Y005685D01*
X026786Y006133D02*
X026824Y006164D01*
X026864Y006192D01*
X026906Y006216D01*
X026949Y006237D01*
X026995Y006254D01*
X027041Y006267D01*
X027089Y006277D01*
X027137Y006283D01*
X027185Y006285D01*
X026935Y005685D02*
X026937Y005655D01*
X026942Y005625D01*
X026951Y005596D01*
X026964Y005569D01*
X026979Y005543D01*
X026998Y005519D01*
X027019Y005498D01*
X027043Y005479D01*
X027069Y005464D01*
X027096Y005451D01*
X027125Y005442D01*
X027155Y005437D01*
X027185Y005435D01*
X027585Y005685D02*
X027583Y005724D01*
X027577Y005763D01*
X027568Y005801D01*
X027555Y005838D01*
X027538Y005874D01*
X027518Y005907D01*
X027494Y005939D01*
X027468Y005968D01*
X027439Y005994D01*
X027407Y006018D01*
X027374Y006038D01*
X027338Y006055D01*
X027301Y006068D01*
X027263Y006077D01*
X027224Y006083D01*
X027185Y006085D01*
X027185Y005935D02*
X027215Y005933D01*
X027245Y005928D01*
X027274Y005919D01*
X027301Y005906D01*
X027327Y005891D01*
X027351Y005872D01*
X027372Y005851D01*
X027391Y005827D01*
X027406Y005801D01*
X027419Y005774D01*
X027428Y005745D01*
X027433Y005715D01*
X027435Y005685D01*
X026817Y006159D02*
X026782Y006129D01*
X026749Y006098D01*
X026719Y006063D01*
X026692Y006027D01*
X026668Y005989D01*
X026646Y005949D01*
X026628Y005907D01*
X026612Y005864D01*
X026600Y005820D01*
X026592Y005776D01*
X026587Y005730D01*
X026585Y005685D01*
X026587Y005640D01*
X026592Y005594D01*
X026600Y005550D01*
X026612Y005506D01*
X026628Y005463D01*
X026646Y005421D01*
X026668Y005381D01*
X026692Y005343D01*
X026719Y005307D01*
X026749Y005272D01*
X026782Y005241D01*
X026817Y005211D01*
X027785Y005685D02*
X027783Y005731D01*
X027778Y005777D01*
X027769Y005823D01*
X027757Y005868D01*
X027741Y005911D01*
X027722Y005953D01*
X027699Y005994D01*
X027674Y006033D01*
X027646Y006069D01*
X027615Y006104D01*
X027581Y006136D01*
X027545Y006165D01*
X027785Y005685D02*
X027783Y005638D01*
X027777Y005590D01*
X027768Y005544D01*
X027755Y005498D01*
X027739Y005454D01*
X027719Y005410D01*
X027695Y005369D01*
X027669Y005330D01*
X027639Y005293D01*
X027606Y005258D01*
X027571Y005226D01*
X027534Y005197D01*
X027185Y005085D02*
X027139Y005087D01*
X027093Y005092D01*
X027047Y005101D01*
X027003Y005113D01*
X026959Y005129D01*
X026917Y005148D01*
X026876Y005170D01*
X026838Y005196D01*
X026801Y005224D01*
X027185Y005085D02*
X027232Y005087D01*
X027279Y005092D01*
X027325Y005102D01*
X027371Y005115D01*
X027415Y005131D01*
X027458Y005151D01*
X027499Y005174D01*
X027538Y005200D01*
X027575Y005229D01*
X027569Y006146D02*
X027532Y006174D01*
X027494Y006200D01*
X027453Y006222D01*
X027411Y006241D01*
X027367Y006257D01*
X027323Y006269D01*
X027277Y006278D01*
X027231Y006283D01*
X027185Y006285D01*
X022185Y006685D02*
X022239Y006736D01*
X022295Y006784D01*
X022354Y006829D01*
X022415Y006871D01*
X022478Y006910D01*
X022543Y006945D01*
X022610Y006977D01*
X022678Y007005D01*
X022748Y007030D01*
X022819Y007051D01*
X022891Y007068D01*
X022964Y007082D01*
X023037Y007091D01*
X023111Y007097D01*
X023185Y007099D01*
X023259Y007097D01*
X023333Y007091D01*
X023406Y007082D01*
X023479Y007068D01*
X023551Y007051D01*
X023622Y007030D01*
X023692Y007005D01*
X023760Y006977D01*
X023827Y006945D01*
X023892Y006910D01*
X023955Y006871D01*
X024016Y006829D01*
X024075Y006784D01*
X024131Y006736D01*
X024185Y006685D01*
X024236Y006631D01*
X024284Y006575D01*
X024329Y006516D01*
X024371Y006455D01*
X024410Y006392D01*
X024445Y006327D01*
X024477Y006260D01*
X024505Y006192D01*
X024530Y006122D01*
X024551Y006051D01*
X024568Y005979D01*
X024582Y005906D01*
X024591Y005833D01*
X024597Y005759D01*
X024599Y005685D01*
X024597Y005611D01*
X024591Y005537D01*
X024582Y005464D01*
X024568Y005391D01*
X024551Y005319D01*
X024530Y005248D01*
X024505Y005178D01*
X024477Y005110D01*
X024445Y005043D01*
X024410Y004978D01*
X024371Y004915D01*
X024329Y004854D01*
X024284Y004795D01*
X024236Y004739D01*
X024185Y004685D01*
X024131Y004634D01*
X024075Y004586D01*
X024016Y004541D01*
X023955Y004499D01*
X023892Y004460D01*
X023827Y004425D01*
X023760Y004393D01*
X023692Y004365D01*
X023622Y004340D01*
X023551Y004319D01*
X023479Y004302D01*
X023406Y004288D01*
X023333Y004279D01*
X023259Y004273D01*
X023185Y004271D01*
X023111Y004273D01*
X023037Y004279D01*
X022964Y004288D01*
X022891Y004302D01*
X022819Y004319D01*
X022748Y004340D01*
X022678Y004365D01*
X022610Y004393D01*
X022543Y004425D01*
X022478Y004460D01*
X022415Y004499D01*
X022354Y004541D01*
X022295Y004586D01*
X022239Y004634D01*
X022185Y004685D01*
X011585Y012985D02*
X009785Y012985D01*
X009555Y013305D01*
X008685Y014685D01*
X009555Y016065D01*
X009785Y016385D01*
X011585Y016385D01*
X011815Y016065D01*
X012685Y014685D01*
X011795Y013305D01*
X011585Y012985D01*
X011795Y013305D02*
X013065Y013305D01*
X013315Y013555D01*
X013315Y015815D01*
X013065Y016065D01*
X011815Y016065D01*
X011685Y015685D02*
X011935Y015435D01*
X011935Y013935D01*
X011685Y013685D01*
X011435Y013685D01*
X010185Y014055D01*
X010185Y015315D01*
X011435Y015685D01*
X011685Y015685D01*
X011435Y015685D02*
X011185Y015435D01*
X011185Y013935D01*
X011435Y013685D01*
X009555Y013305D02*
X008305Y013305D01*
X008055Y013555D01*
X008055Y015815D01*
X008305Y016065D01*
X009555Y016065D01*
X007435Y015035D02*
X006935Y015035D01*
X006909Y015033D01*
X006883Y015028D01*
X006858Y015020D01*
X006835Y015008D01*
X006813Y014994D01*
X006794Y014976D01*
X006776Y014957D01*
X006762Y014935D01*
X006750Y014912D01*
X006742Y014887D01*
X006737Y014861D01*
X006735Y014835D01*
X006735Y013535D01*
X006737Y013509D01*
X006742Y013483D01*
X006750Y013458D01*
X006762Y013435D01*
X006776Y013413D01*
X006794Y013394D01*
X006813Y013376D01*
X006835Y013362D01*
X006858Y013350D01*
X006883Y013342D01*
X006909Y013337D01*
X006935Y013335D01*
X007435Y013335D01*
X007461Y013337D01*
X007487Y013342D01*
X007512Y013350D01*
X007535Y013362D01*
X007557Y013376D01*
X007576Y013394D01*
X007594Y013413D01*
X007608Y013435D01*
X007620Y013458D01*
X007628Y013483D01*
X007633Y013509D01*
X007635Y013535D01*
X007635Y014835D01*
X007633Y014861D01*
X007628Y014887D01*
X007620Y014912D01*
X007608Y014935D01*
X007594Y014957D01*
X007576Y014976D01*
X007557Y014994D01*
X007535Y015008D01*
X007512Y015020D01*
X007487Y015028D01*
X007461Y015033D01*
X007435Y015035D01*
X007185Y014685D02*
X007185Y014305D01*
X007185Y014055D02*
X007185Y013685D01*
X011185Y013685D02*
X011125Y013657D01*
X011064Y013633D01*
X011001Y013613D01*
X010937Y013596D01*
X010873Y013583D01*
X010808Y013574D01*
X010742Y013568D01*
X010676Y013567D01*
X010610Y013570D01*
X010544Y013576D01*
X010479Y013586D01*
X010415Y013600D01*
X010351Y013618D01*
X010289Y013639D01*
X010228Y013665D01*
X010169Y013693D01*
X010111Y013725D01*
X010056Y013761D01*
X010002Y013800D01*
X009951Y013841D01*
X009903Y013886D01*
X009857Y013934D01*
X009814Y013984D01*
X009775Y014036D01*
X009738Y014091D01*
X009705Y014148D01*
X009675Y014207D01*
X009648Y014267D01*
X009625Y014329D01*
X009606Y014392D01*
X009591Y014456D01*
X009579Y014521D01*
X009571Y014586D01*
X009567Y014652D01*
X009567Y014718D01*
X009571Y014784D01*
X009579Y014849D01*
X009591Y014914D01*
X009606Y014978D01*
X009625Y015041D01*
X009648Y015103D01*
X009675Y015163D01*
X009705Y015222D01*
X009738Y015279D01*
X009775Y015334D01*
X009814Y015386D01*
X009857Y015436D01*
X009903Y015484D01*
X009951Y015529D01*
X010002Y015570D01*
X010056Y015609D01*
X010111Y015645D01*
X010169Y015677D01*
X010228Y015705D01*
X010289Y015731D01*
X010351Y015752D01*
X010415Y015770D01*
X010479Y015784D01*
X010544Y015794D01*
X010610Y015800D01*
X010676Y015803D01*
X010742Y015802D01*
X010808Y015796D01*
X010873Y015787D01*
X010937Y015774D01*
X011001Y015757D01*
X011064Y015737D01*
X011125Y015713D01*
X011185Y015685D01*
X011685Y015685D02*
X011631Y015736D01*
X011575Y015784D01*
X011516Y015829D01*
X011455Y015871D01*
X011392Y015910D01*
X011327Y015945D01*
X011260Y015977D01*
X011192Y016005D01*
X011122Y016030D01*
X011051Y016051D01*
X010979Y016068D01*
X010906Y016082D01*
X010833Y016091D01*
X010759Y016097D01*
X010685Y016099D01*
X010611Y016097D01*
X010537Y016091D01*
X010464Y016082D01*
X010391Y016068D01*
X010319Y016051D01*
X010248Y016030D01*
X010178Y016005D01*
X010110Y015977D01*
X010043Y015945D01*
X009978Y015910D01*
X009915Y015871D01*
X009854Y015829D01*
X009795Y015784D01*
X009739Y015736D01*
X009685Y015685D01*
X009634Y015631D01*
X009586Y015575D01*
X009541Y015516D01*
X009499Y015455D01*
X009460Y015392D01*
X009425Y015327D01*
X009393Y015260D01*
X009365Y015192D01*
X009340Y015122D01*
X009319Y015051D01*
X009302Y014979D01*
X009288Y014906D01*
X009279Y014833D01*
X009273Y014759D01*
X009271Y014685D01*
X009273Y014611D01*
X009279Y014537D01*
X009288Y014464D01*
X009302Y014391D01*
X009319Y014319D01*
X009340Y014248D01*
X009365Y014178D01*
X009393Y014110D01*
X009425Y014043D01*
X009460Y013978D01*
X009499Y013915D01*
X009541Y013854D01*
X009586Y013795D01*
X009634Y013739D01*
X009685Y013685D01*
X009739Y013634D01*
X009795Y013586D01*
X009854Y013541D01*
X009915Y013499D01*
X009978Y013460D01*
X010043Y013425D01*
X010110Y013393D01*
X010178Y013365D01*
X010248Y013340D01*
X010319Y013319D01*
X010391Y013302D01*
X010464Y013288D01*
X010537Y013279D01*
X010611Y013273D01*
X010685Y013271D01*
X010759Y013273D01*
X010833Y013279D01*
X010906Y013288D01*
X010979Y013302D01*
X011051Y013319D01*
X011122Y013340D01*
X011192Y013365D01*
X011260Y013393D01*
X011327Y013425D01*
X011392Y013460D01*
X011455Y013499D01*
X011516Y013541D01*
X011575Y013586D01*
X011631Y013634D01*
X011685Y013685D01*
X016935Y013835D02*
X016935Y014535D01*
X016937Y014552D01*
X016941Y014569D01*
X016948Y014585D01*
X016958Y014599D01*
X016971Y014612D01*
X016985Y014622D01*
X017001Y014629D01*
X017018Y014633D01*
X017035Y014635D01*
X017185Y014635D01*
X017235Y014585D01*
X019135Y014585D01*
X019185Y014635D01*
X019335Y014635D01*
X019352Y014633D01*
X019369Y014629D01*
X019385Y014622D01*
X019399Y014612D01*
X019412Y014599D01*
X019422Y014585D01*
X019429Y014569D01*
X019433Y014552D01*
X019435Y014535D01*
X019435Y013835D01*
X019433Y013818D01*
X019429Y013801D01*
X019422Y013785D01*
X019412Y013771D01*
X019399Y013758D01*
X019385Y013748D01*
X019369Y013741D01*
X019352Y013737D01*
X019335Y013735D01*
X019185Y013735D01*
X019135Y013785D01*
X017235Y013785D01*
X017185Y013735D01*
X017035Y013735D01*
X017018Y013737D01*
X017001Y013741D01*
X016985Y013748D01*
X016971Y013758D01*
X016958Y013771D01*
X016948Y013785D01*
X016941Y013801D01*
X016937Y013818D01*
X016935Y013835D01*
X017035Y015235D02*
X017185Y015235D01*
X017235Y015285D01*
X019135Y015285D01*
X019185Y015235D01*
X019335Y015235D01*
X019352Y015237D01*
X019369Y015241D01*
X019385Y015248D01*
X019399Y015258D01*
X019412Y015271D01*
X019422Y015285D01*
X019429Y015301D01*
X019433Y015318D01*
X019435Y015335D01*
X019435Y016035D01*
X019433Y016052D01*
X019429Y016069D01*
X019422Y016085D01*
X019412Y016099D01*
X019399Y016112D01*
X019385Y016122D01*
X019369Y016129D01*
X019352Y016133D01*
X019335Y016135D01*
X019185Y016135D01*
X019135Y016085D01*
X017235Y016085D01*
X017185Y016135D01*
X017035Y016135D01*
X017018Y016133D01*
X017001Y016129D01*
X016985Y016122D01*
X016971Y016112D01*
X016958Y016099D01*
X016948Y016085D01*
X016941Y016069D01*
X016937Y016052D01*
X016935Y016035D01*
X016935Y015335D01*
X016937Y015318D01*
X016941Y015301D01*
X016948Y015285D01*
X016958Y015271D01*
X016971Y015258D01*
X016985Y015248D01*
X017001Y015241D01*
X017018Y015237D01*
X017035Y015235D01*
X021235Y016185D02*
X021285Y016135D01*
X021285Y014235D01*
X021235Y014185D01*
X021235Y014035D01*
X021237Y014018D01*
X021241Y014001D01*
X021248Y013985D01*
X021258Y013971D01*
X021271Y013958D01*
X021285Y013948D01*
X021301Y013941D01*
X021318Y013937D01*
X021335Y013935D01*
X022035Y013935D01*
X022052Y013937D01*
X022069Y013941D01*
X022085Y013948D01*
X022099Y013958D01*
X022112Y013971D01*
X022122Y013985D01*
X022129Y014001D01*
X022133Y014018D01*
X022135Y014035D01*
X022135Y014185D01*
X022085Y014235D01*
X022085Y016135D01*
X022135Y016185D01*
X022135Y016335D01*
X022133Y016352D01*
X022129Y016369D01*
X022122Y016385D01*
X022112Y016399D01*
X022099Y016412D01*
X022085Y016422D01*
X022069Y016429D01*
X022052Y016433D01*
X022035Y016435D01*
X021335Y016435D01*
X021318Y016433D01*
X021301Y016429D01*
X021285Y016422D01*
X021271Y016412D01*
X021258Y016399D01*
X021248Y016385D01*
X021241Y016369D01*
X021237Y016352D01*
X021235Y016335D01*
X021235Y016185D01*
X022735Y015535D02*
X022735Y016835D01*
X022737Y016861D01*
X022742Y016887D01*
X022750Y016912D01*
X022762Y016935D01*
X022776Y016957D01*
X022794Y016976D01*
X022813Y016994D01*
X022835Y017008D01*
X022858Y017020D01*
X022883Y017028D01*
X022909Y017033D01*
X022935Y017035D01*
X023435Y017035D01*
X023461Y017033D01*
X023487Y017028D01*
X023512Y017020D01*
X023535Y017008D01*
X023557Y016994D01*
X023576Y016976D01*
X023594Y016957D01*
X023608Y016935D01*
X023620Y016912D01*
X023628Y016887D01*
X023633Y016861D01*
X023635Y016835D01*
X023635Y015535D01*
X023633Y015509D01*
X023628Y015483D01*
X023620Y015458D01*
X023608Y015435D01*
X023594Y015413D01*
X023576Y015394D01*
X023557Y015376D01*
X023535Y015362D01*
X023512Y015350D01*
X023487Y015342D01*
X023461Y015337D01*
X023435Y015335D01*
X022935Y015335D01*
X022909Y015337D01*
X022883Y015342D01*
X022858Y015350D01*
X022835Y015362D01*
X022813Y015376D01*
X022794Y015394D01*
X022776Y015413D01*
X022762Y015435D01*
X022750Y015458D01*
X022742Y015483D01*
X022737Y015509D01*
X022735Y015535D01*
X023185Y015685D02*
X023185Y016055D01*
X023185Y016305D02*
X023185Y016685D01*
X023685Y017435D02*
X023935Y017435D01*
X023935Y017685D01*
X022685Y018185D02*
X022687Y018229D01*
X022693Y018273D01*
X022703Y018316D01*
X022716Y018358D01*
X022733Y018399D01*
X022754Y018438D01*
X022778Y018475D01*
X022805Y018510D01*
X022835Y018542D01*
X022868Y018572D01*
X022904Y018598D01*
X022941Y018622D01*
X022981Y018641D01*
X023022Y018658D01*
X023065Y018670D01*
X023108Y018679D01*
X023152Y018684D01*
X023196Y018685D01*
X023240Y018682D01*
X023284Y018675D01*
X023327Y018664D01*
X023369Y018650D01*
X023409Y018632D01*
X023448Y018610D01*
X023484Y018586D01*
X023518Y018558D01*
X023550Y018527D01*
X023579Y018493D01*
X023605Y018457D01*
X023627Y018419D01*
X023646Y018379D01*
X023661Y018337D01*
X023673Y018295D01*
X023681Y018251D01*
X023685Y018207D01*
X023685Y018163D01*
X023681Y018119D01*
X023673Y018075D01*
X023661Y018033D01*
X023646Y017991D01*
X023627Y017951D01*
X023605Y017913D01*
X023579Y017877D01*
X023550Y017843D01*
X023518Y017812D01*
X023484Y017784D01*
X023448Y017760D01*
X023409Y017738D01*
X023369Y017720D01*
X023327Y017706D01*
X023284Y017695D01*
X023240Y017688D01*
X023196Y017685D01*
X023152Y017686D01*
X023108Y017691D01*
X023065Y017700D01*
X023022Y017712D01*
X022981Y017729D01*
X022941Y017748D01*
X022904Y017772D01*
X022868Y017798D01*
X022835Y017828D01*
X022805Y017860D01*
X022778Y017895D01*
X022754Y017932D01*
X022733Y017971D01*
X022716Y018012D01*
X022703Y018054D01*
X022693Y018097D01*
X022687Y018141D01*
X022685Y018185D01*
X022435Y018685D02*
X022435Y018935D01*
X022685Y018935D01*
X023685Y018935D02*
X023935Y018935D01*
X023935Y018685D01*
X025835Y018435D02*
X025835Y017935D01*
X025837Y017909D01*
X025842Y017883D01*
X025850Y017858D01*
X025862Y017835D01*
X025876Y017813D01*
X025894Y017794D01*
X025913Y017776D01*
X025935Y017762D01*
X025958Y017750D01*
X025983Y017742D01*
X026009Y017737D01*
X026035Y017735D01*
X027335Y017735D01*
X027361Y017737D01*
X027387Y017742D01*
X027412Y017750D01*
X027435Y017762D01*
X027457Y017776D01*
X027476Y017794D01*
X027494Y017813D01*
X027508Y017835D01*
X027520Y017858D01*
X027528Y017883D01*
X027533Y017909D01*
X027535Y017935D01*
X027535Y018435D01*
X027533Y018461D01*
X027528Y018487D01*
X027520Y018512D01*
X027508Y018535D01*
X027494Y018557D01*
X027476Y018576D01*
X027457Y018594D01*
X027435Y018608D01*
X027412Y018620D01*
X027387Y018628D01*
X027361Y018633D01*
X027335Y018635D01*
X026035Y018635D01*
X026009Y018633D01*
X025983Y018628D01*
X025958Y018620D01*
X025935Y018608D01*
X025913Y018594D01*
X025894Y018576D01*
X025876Y018557D01*
X025862Y018535D01*
X025850Y018512D01*
X025842Y018487D01*
X025837Y018461D01*
X025835Y018435D01*
X026185Y018185D02*
X026555Y018185D01*
X026805Y018185D02*
X027185Y018185D01*
X025685Y017185D02*
X025685Y016185D01*
X025685Y017185D02*
X029685Y017185D01*
X029685Y016185D01*
X031935Y017435D02*
X031935Y017685D01*
X031935Y017435D02*
X032185Y017435D01*
X033185Y017435D02*
X033435Y017435D01*
X033435Y017685D01*
X034435Y017685D02*
X034435Y017435D01*
X034685Y017435D01*
X035685Y017435D02*
X035935Y017435D01*
X035935Y017685D01*
X036935Y017685D02*
X036935Y017435D01*
X037185Y017435D01*
X038185Y017435D02*
X038435Y017435D01*
X038435Y017685D01*
X039435Y017685D02*
X039435Y017435D01*
X039685Y017435D01*
X040685Y017435D02*
X040935Y017435D01*
X040935Y017685D01*
X039685Y018185D02*
X039687Y018229D01*
X039693Y018273D01*
X039703Y018316D01*
X039716Y018358D01*
X039733Y018399D01*
X039754Y018438D01*
X039778Y018475D01*
X039805Y018510D01*
X039835Y018542D01*
X039868Y018572D01*
X039904Y018598D01*
X039941Y018622D01*
X039981Y018641D01*
X040022Y018658D01*
X040065Y018670D01*
X040108Y018679D01*
X040152Y018684D01*
X040196Y018685D01*
X040240Y018682D01*
X040284Y018675D01*
X040327Y018664D01*
X040369Y018650D01*
X040409Y018632D01*
X040448Y018610D01*
X040484Y018586D01*
X040518Y018558D01*
X040550Y018527D01*
X040579Y018493D01*
X040605Y018457D01*
X040627Y018419D01*
X040646Y018379D01*
X040661Y018337D01*
X040673Y018295D01*
X040681Y018251D01*
X040685Y018207D01*
X040685Y018163D01*
X040681Y018119D01*
X040673Y018075D01*
X040661Y018033D01*
X040646Y017991D01*
X040627Y017951D01*
X040605Y017913D01*
X040579Y017877D01*
X040550Y017843D01*
X040518Y017812D01*
X040484Y017784D01*
X040448Y017760D01*
X040409Y017738D01*
X040369Y017720D01*
X040327Y017706D01*
X040284Y017695D01*
X040240Y017688D01*
X040196Y017685D01*
X040152Y017686D01*
X040108Y017691D01*
X040065Y017700D01*
X040022Y017712D01*
X039981Y017729D01*
X039941Y017748D01*
X039904Y017772D01*
X039868Y017798D01*
X039835Y017828D01*
X039805Y017860D01*
X039778Y017895D01*
X039754Y017932D01*
X039733Y017971D01*
X039716Y018012D01*
X039703Y018054D01*
X039693Y018097D01*
X039687Y018141D01*
X039685Y018185D01*
X039435Y018685D02*
X039435Y018935D01*
X039685Y018935D01*
X040685Y018935D02*
X040935Y018935D01*
X040935Y018685D01*
X038435Y018685D02*
X038435Y018935D01*
X038185Y018935D01*
X037185Y018185D02*
X037187Y018229D01*
X037193Y018273D01*
X037203Y018316D01*
X037216Y018358D01*
X037233Y018399D01*
X037254Y018438D01*
X037278Y018475D01*
X037305Y018510D01*
X037335Y018542D01*
X037368Y018572D01*
X037404Y018598D01*
X037441Y018622D01*
X037481Y018641D01*
X037522Y018658D01*
X037565Y018670D01*
X037608Y018679D01*
X037652Y018684D01*
X037696Y018685D01*
X037740Y018682D01*
X037784Y018675D01*
X037827Y018664D01*
X037869Y018650D01*
X037909Y018632D01*
X037948Y018610D01*
X037984Y018586D01*
X038018Y018558D01*
X038050Y018527D01*
X038079Y018493D01*
X038105Y018457D01*
X038127Y018419D01*
X038146Y018379D01*
X038161Y018337D01*
X038173Y018295D01*
X038181Y018251D01*
X038185Y018207D01*
X038185Y018163D01*
X038181Y018119D01*
X038173Y018075D01*
X038161Y018033D01*
X038146Y017991D01*
X038127Y017951D01*
X038105Y017913D01*
X038079Y017877D01*
X038050Y017843D01*
X038018Y017812D01*
X037984Y017784D01*
X037948Y017760D01*
X037909Y017738D01*
X037869Y017720D01*
X037827Y017706D01*
X037784Y017695D01*
X037740Y017688D01*
X037696Y017685D01*
X037652Y017686D01*
X037608Y017691D01*
X037565Y017700D01*
X037522Y017712D01*
X037481Y017729D01*
X037441Y017748D01*
X037404Y017772D01*
X037368Y017798D01*
X037335Y017828D01*
X037305Y017860D01*
X037278Y017895D01*
X037254Y017932D01*
X037233Y017971D01*
X037216Y018012D01*
X037203Y018054D01*
X037193Y018097D01*
X037187Y018141D01*
X037185Y018185D01*
X036935Y018685D02*
X036935Y018935D01*
X037185Y018935D01*
X035935Y018935D02*
X035935Y018685D01*
X035935Y018935D02*
X035685Y018935D01*
X034685Y018935D02*
X034435Y018935D01*
X034435Y018685D01*
X034685Y018185D02*
X034687Y018229D01*
X034693Y018273D01*
X034703Y018316D01*
X034716Y018358D01*
X034733Y018399D01*
X034754Y018438D01*
X034778Y018475D01*
X034805Y018510D01*
X034835Y018542D01*
X034868Y018572D01*
X034904Y018598D01*
X034941Y018622D01*
X034981Y018641D01*
X035022Y018658D01*
X035065Y018670D01*
X035108Y018679D01*
X035152Y018684D01*
X035196Y018685D01*
X035240Y018682D01*
X035284Y018675D01*
X035327Y018664D01*
X035369Y018650D01*
X035409Y018632D01*
X035448Y018610D01*
X035484Y018586D01*
X035518Y018558D01*
X035550Y018527D01*
X035579Y018493D01*
X035605Y018457D01*
X035627Y018419D01*
X035646Y018379D01*
X035661Y018337D01*
X035673Y018295D01*
X035681Y018251D01*
X035685Y018207D01*
X035685Y018163D01*
X035681Y018119D01*
X035673Y018075D01*
X035661Y018033D01*
X035646Y017991D01*
X035627Y017951D01*
X035605Y017913D01*
X035579Y017877D01*
X035550Y017843D01*
X035518Y017812D01*
X035484Y017784D01*
X035448Y017760D01*
X035409Y017738D01*
X035369Y017720D01*
X035327Y017706D01*
X035284Y017695D01*
X035240Y017688D01*
X035196Y017685D01*
X035152Y017686D01*
X035108Y017691D01*
X035065Y017700D01*
X035022Y017712D01*
X034981Y017729D01*
X034941Y017748D01*
X034904Y017772D01*
X034868Y017798D01*
X034835Y017828D01*
X034805Y017860D01*
X034778Y017895D01*
X034754Y017932D01*
X034733Y017971D01*
X034716Y018012D01*
X034703Y018054D01*
X034693Y018097D01*
X034687Y018141D01*
X034685Y018185D01*
X033435Y018685D02*
X033435Y018935D01*
X033185Y018935D01*
X032185Y018185D02*
X032187Y018229D01*
X032193Y018273D01*
X032203Y018316D01*
X032216Y018358D01*
X032233Y018399D01*
X032254Y018438D01*
X032278Y018475D01*
X032305Y018510D01*
X032335Y018542D01*
X032368Y018572D01*
X032404Y018598D01*
X032441Y018622D01*
X032481Y018641D01*
X032522Y018658D01*
X032565Y018670D01*
X032608Y018679D01*
X032652Y018684D01*
X032696Y018685D01*
X032740Y018682D01*
X032784Y018675D01*
X032827Y018664D01*
X032869Y018650D01*
X032909Y018632D01*
X032948Y018610D01*
X032984Y018586D01*
X033018Y018558D01*
X033050Y018527D01*
X033079Y018493D01*
X033105Y018457D01*
X033127Y018419D01*
X033146Y018379D01*
X033161Y018337D01*
X033173Y018295D01*
X033181Y018251D01*
X033185Y018207D01*
X033185Y018163D01*
X033181Y018119D01*
X033173Y018075D01*
X033161Y018033D01*
X033146Y017991D01*
X033127Y017951D01*
X033105Y017913D01*
X033079Y017877D01*
X033050Y017843D01*
X033018Y017812D01*
X032984Y017784D01*
X032948Y017760D01*
X032909Y017738D01*
X032869Y017720D01*
X032827Y017706D01*
X032784Y017695D01*
X032740Y017688D01*
X032696Y017685D01*
X032652Y017686D01*
X032608Y017691D01*
X032565Y017700D01*
X032522Y017712D01*
X032481Y017729D01*
X032441Y017748D01*
X032404Y017772D01*
X032368Y017798D01*
X032335Y017828D01*
X032305Y017860D01*
X032278Y017895D01*
X032254Y017932D01*
X032233Y017971D01*
X032216Y018012D01*
X032203Y018054D01*
X032193Y018097D01*
X032187Y018141D01*
X032185Y018185D01*
X031935Y018685D02*
X031935Y018935D01*
X032185Y018935D01*
X022685Y017435D02*
X022435Y017435D01*
X022435Y017685D01*
X020935Y017685D02*
X020935Y017435D01*
X020685Y017435D01*
X019685Y017435D02*
X019435Y017435D01*
X019435Y017685D01*
X019685Y018185D02*
X019687Y018229D01*
X019693Y018273D01*
X019703Y018316D01*
X019716Y018358D01*
X019733Y018399D01*
X019754Y018438D01*
X019778Y018475D01*
X019805Y018510D01*
X019835Y018542D01*
X019868Y018572D01*
X019904Y018598D01*
X019941Y018622D01*
X019981Y018641D01*
X020022Y018658D01*
X020065Y018670D01*
X020108Y018679D01*
X020152Y018684D01*
X020196Y018685D01*
X020240Y018682D01*
X020284Y018675D01*
X020327Y018664D01*
X020369Y018650D01*
X020409Y018632D01*
X020448Y018610D01*
X020484Y018586D01*
X020518Y018558D01*
X020550Y018527D01*
X020579Y018493D01*
X020605Y018457D01*
X020627Y018419D01*
X020646Y018379D01*
X020661Y018337D01*
X020673Y018295D01*
X020681Y018251D01*
X020685Y018207D01*
X020685Y018163D01*
X020681Y018119D01*
X020673Y018075D01*
X020661Y018033D01*
X020646Y017991D01*
X020627Y017951D01*
X020605Y017913D01*
X020579Y017877D01*
X020550Y017843D01*
X020518Y017812D01*
X020484Y017784D01*
X020448Y017760D01*
X020409Y017738D01*
X020369Y017720D01*
X020327Y017706D01*
X020284Y017695D01*
X020240Y017688D01*
X020196Y017685D01*
X020152Y017686D01*
X020108Y017691D01*
X020065Y017700D01*
X020022Y017712D01*
X019981Y017729D01*
X019941Y017748D01*
X019904Y017772D01*
X019868Y017798D01*
X019835Y017828D01*
X019805Y017860D01*
X019778Y017895D01*
X019754Y017932D01*
X019733Y017971D01*
X019716Y018012D01*
X019703Y018054D01*
X019693Y018097D01*
X019687Y018141D01*
X019685Y018185D01*
X019435Y018685D02*
X019435Y018935D01*
X019685Y018935D01*
X020685Y018935D02*
X020935Y018935D01*
X020935Y018685D01*
X017935Y018685D02*
X017935Y018935D01*
X017685Y018935D01*
X016685Y018935D02*
X016435Y018935D01*
X016435Y018685D01*
X016685Y018185D02*
X016687Y018229D01*
X016693Y018273D01*
X016703Y018316D01*
X016716Y018358D01*
X016733Y018399D01*
X016754Y018438D01*
X016778Y018475D01*
X016805Y018510D01*
X016835Y018542D01*
X016868Y018572D01*
X016904Y018598D01*
X016941Y018622D01*
X016981Y018641D01*
X017022Y018658D01*
X017065Y018670D01*
X017108Y018679D01*
X017152Y018684D01*
X017196Y018685D01*
X017240Y018682D01*
X017284Y018675D01*
X017327Y018664D01*
X017369Y018650D01*
X017409Y018632D01*
X017448Y018610D01*
X017484Y018586D01*
X017518Y018558D01*
X017550Y018527D01*
X017579Y018493D01*
X017605Y018457D01*
X017627Y018419D01*
X017646Y018379D01*
X017661Y018337D01*
X017673Y018295D01*
X017681Y018251D01*
X017685Y018207D01*
X017685Y018163D01*
X017681Y018119D01*
X017673Y018075D01*
X017661Y018033D01*
X017646Y017991D01*
X017627Y017951D01*
X017605Y017913D01*
X017579Y017877D01*
X017550Y017843D01*
X017518Y017812D01*
X017484Y017784D01*
X017448Y017760D01*
X017409Y017738D01*
X017369Y017720D01*
X017327Y017706D01*
X017284Y017695D01*
X017240Y017688D01*
X017196Y017685D01*
X017152Y017686D01*
X017108Y017691D01*
X017065Y017700D01*
X017022Y017712D01*
X016981Y017729D01*
X016941Y017748D01*
X016904Y017772D01*
X016868Y017798D01*
X016835Y017828D01*
X016805Y017860D01*
X016778Y017895D01*
X016754Y017932D01*
X016733Y017971D01*
X016716Y018012D01*
X016703Y018054D01*
X016693Y018097D01*
X016687Y018141D01*
X016685Y018185D01*
X016435Y017685D02*
X016435Y017435D01*
X016685Y017435D01*
X017685Y017435D02*
X017935Y017435D01*
X017935Y017685D01*
X014435Y017685D02*
X014435Y017435D01*
X014185Y017435D01*
X013185Y017435D02*
X012935Y017435D01*
X012935Y017685D01*
X013185Y018185D02*
X013187Y018229D01*
X013193Y018273D01*
X013203Y018316D01*
X013216Y018358D01*
X013233Y018399D01*
X013254Y018438D01*
X013278Y018475D01*
X013305Y018510D01*
X013335Y018542D01*
X013368Y018572D01*
X013404Y018598D01*
X013441Y018622D01*
X013481Y018641D01*
X013522Y018658D01*
X013565Y018670D01*
X013608Y018679D01*
X013652Y018684D01*
X013696Y018685D01*
X013740Y018682D01*
X013784Y018675D01*
X013827Y018664D01*
X013869Y018650D01*
X013909Y018632D01*
X013948Y018610D01*
X013984Y018586D01*
X014018Y018558D01*
X014050Y018527D01*
X014079Y018493D01*
X014105Y018457D01*
X014127Y018419D01*
X014146Y018379D01*
X014161Y018337D01*
X014173Y018295D01*
X014181Y018251D01*
X014185Y018207D01*
X014185Y018163D01*
X014181Y018119D01*
X014173Y018075D01*
X014161Y018033D01*
X014146Y017991D01*
X014127Y017951D01*
X014105Y017913D01*
X014079Y017877D01*
X014050Y017843D01*
X014018Y017812D01*
X013984Y017784D01*
X013948Y017760D01*
X013909Y017738D01*
X013869Y017720D01*
X013827Y017706D01*
X013784Y017695D01*
X013740Y017688D01*
X013696Y017685D01*
X013652Y017686D01*
X013608Y017691D01*
X013565Y017700D01*
X013522Y017712D01*
X013481Y017729D01*
X013441Y017748D01*
X013404Y017772D01*
X013368Y017798D01*
X013335Y017828D01*
X013305Y017860D01*
X013278Y017895D01*
X013254Y017932D01*
X013233Y017971D01*
X013216Y018012D01*
X013203Y018054D01*
X013193Y018097D01*
X013187Y018141D01*
X013185Y018185D01*
X012935Y018685D02*
X012935Y018935D01*
X013185Y018935D01*
X014185Y018935D02*
X014435Y018935D01*
X014435Y018685D01*
D12*
X016185Y015685D02*
X016585Y015685D01*
X016585Y014185D02*
X016185Y014185D01*
X014685Y014185D02*
X014685Y013785D01*
X016185Y011685D02*
X016585Y011685D01*
X014685Y010585D02*
X014685Y010185D01*
X016185Y008685D02*
X016585Y008685D01*
X019785Y008685D02*
X020185Y008685D01*
X025185Y008085D02*
X025185Y007685D01*
X026685Y007685D02*
X026685Y008085D01*
X028185Y008085D02*
X028185Y007685D01*
X029685Y008685D02*
X030085Y008685D01*
X033285Y008685D02*
X033685Y008685D01*
X038685Y008085D02*
X038685Y007685D01*
X040185Y007685D02*
X040185Y008085D01*
X041685Y008085D02*
X041685Y007685D01*
X041685Y011285D02*
X041685Y011685D01*
X040185Y011685D02*
X040185Y011285D01*
X038685Y011285D02*
X038685Y011685D01*
X033685Y011685D02*
X033285Y011685D01*
X030685Y013185D02*
X030685Y013585D01*
X030085Y011685D02*
X029685Y011685D01*
X028185Y011685D02*
X028185Y011285D01*
X026685Y011285D02*
X026685Y011685D01*
X025185Y011685D02*
X025185Y011285D01*
X024685Y013185D02*
X024685Y013585D01*
X021685Y013585D02*
X021685Y013185D01*
X020185Y014185D02*
X019785Y014185D01*
X019785Y015685D02*
X020185Y015685D01*
X021685Y016785D02*
X021685Y017185D01*
X024685Y017185D02*
X024685Y016785D01*
X030685Y016785D02*
X030685Y017185D01*
X020185Y011685D02*
X019785Y011685D01*
X007185Y011685D02*
X006785Y011685D01*
X003585Y011685D02*
X003185Y011685D01*
X003185Y008685D02*
X003585Y008685D01*
X006785Y008685D02*
X007185Y008685D01*
D13*
X014685Y010765D03*
X014685Y013605D03*
X021685Y013765D03*
X024685Y013765D03*
X025185Y011105D03*
X026685Y011105D03*
X028185Y011105D03*
X030685Y013765D03*
X030685Y016605D03*
X024685Y016605D03*
X021685Y016605D03*
X025185Y008265D03*
X026685Y008265D03*
X028185Y008265D03*
X038685Y008265D03*
X040185Y008265D03*
X041685Y008265D03*
X041685Y011105D03*
X040185Y011105D03*
X038685Y011105D03*
D14*
X032485Y013565D02*
X031885Y013565D01*
X031885Y013815D02*
X032485Y013815D01*
X026805Y017885D02*
X026805Y018485D01*
X026555Y018485D02*
X026555Y017885D01*
X023485Y016305D02*
X022885Y016305D01*
X022885Y016055D02*
X023485Y016055D01*
X023485Y014315D02*
X022885Y014315D01*
X022885Y014065D02*
X023485Y014065D01*
X007485Y014055D02*
X006885Y014055D01*
X006885Y014305D02*
X007485Y014305D01*
X005305Y005985D02*
X005305Y005385D01*
X005055Y005385D02*
X005055Y005985D01*
X016555Y005485D02*
X016555Y004885D01*
X016805Y004885D02*
X016805Y005485D01*
X030055Y005485D02*
X030055Y004885D01*
X030305Y004885D02*
X030305Y005485D01*
D15*
X030265Y008685D03*
X033105Y008685D03*
X033105Y011685D03*
X030265Y011685D03*
X019605Y011685D03*
X016765Y011685D03*
X016765Y014185D03*
X016765Y015685D03*
X019605Y015685D03*
X019605Y014185D03*
X019605Y008685D03*
X016765Y008685D03*
X006605Y008685D03*
X003765Y008685D03*
X003765Y011685D03*
X006605Y011685D03*
D16*
X014266Y006366D02*
X014314Y006394D01*
X014363Y006418D01*
X014415Y006438D01*
X014467Y006455D01*
X014521Y006468D01*
X014575Y006477D01*
X014630Y006483D01*
X014685Y006485D01*
X014288Y006380D02*
X014240Y006350D01*
X014195Y006317D01*
X014152Y006281D01*
X014111Y006243D01*
X014074Y006201D01*
X014039Y006157D01*
X014008Y006111D01*
X013979Y006062D01*
X013955Y006012D01*
X013934Y005960D01*
X013916Y005906D01*
X013903Y005852D01*
X013893Y005797D01*
X013887Y005741D01*
X013885Y005685D01*
X014185Y005065D02*
X015185Y005065D01*
X015485Y005685D02*
X015483Y005739D01*
X015478Y005793D01*
X015469Y005846D01*
X015456Y005899D01*
X015440Y005950D01*
X015420Y006000D01*
X015397Y006049D01*
X015371Y006097D01*
X015342Y006142D01*
X015309Y006185D01*
X015274Y006226D01*
X015236Y006265D01*
X015196Y006301D01*
X015153Y006334D01*
X015108Y006364D01*
X015061Y006391D01*
X015064Y006389D02*
X015014Y006414D01*
X014961Y006436D01*
X014908Y006453D01*
X014853Y006467D01*
X014798Y006477D01*
X014741Y006483D01*
X014685Y006485D01*
X013885Y005685D02*
X013887Y005632D01*
X013892Y005578D01*
X013901Y005526D01*
X013913Y005474D01*
X013929Y005423D01*
X013948Y005373D01*
X013971Y005324D01*
X013997Y005277D01*
X014025Y005232D01*
X014057Y005189D01*
X014091Y005149D01*
X014129Y005110D01*
X014168Y005074D01*
X015197Y005070D02*
X015237Y005106D01*
X015275Y005145D01*
X015310Y005186D01*
X015342Y005229D01*
X015372Y005274D01*
X015398Y005321D01*
X015420Y005370D01*
X015440Y005421D01*
X015456Y005472D01*
X015469Y005524D01*
X015478Y005578D01*
X015483Y005631D01*
X015485Y005685D01*
X026685Y005065D02*
X027685Y005065D01*
X027985Y005685D02*
X027983Y005739D01*
X027978Y005793D01*
X027969Y005846D01*
X027956Y005899D01*
X027940Y005950D01*
X027920Y006000D01*
X027897Y006049D01*
X027871Y006097D01*
X027842Y006142D01*
X027809Y006185D01*
X027774Y006226D01*
X027736Y006265D01*
X027696Y006301D01*
X027653Y006334D01*
X027608Y006364D01*
X027561Y006391D01*
X026788Y006380D02*
X026740Y006350D01*
X026695Y006317D01*
X026652Y006281D01*
X026611Y006243D01*
X026574Y006201D01*
X026539Y006157D01*
X026508Y006111D01*
X026479Y006062D01*
X026455Y006012D01*
X026434Y005960D01*
X026416Y005906D01*
X026403Y005852D01*
X026393Y005797D01*
X026387Y005741D01*
X026385Y005685D01*
X026766Y006366D02*
X026814Y006394D01*
X026863Y006418D01*
X026915Y006438D01*
X026967Y006455D01*
X027021Y006468D01*
X027075Y006477D01*
X027130Y006483D01*
X027185Y006485D01*
X027241Y006483D01*
X027298Y006477D01*
X027353Y006467D01*
X027408Y006453D01*
X027461Y006436D01*
X027514Y006414D01*
X027564Y006389D01*
X026385Y005685D02*
X026387Y005632D01*
X026392Y005578D01*
X026401Y005526D01*
X026413Y005474D01*
X026429Y005423D01*
X026448Y005373D01*
X026471Y005324D01*
X026497Y005277D01*
X026525Y005232D01*
X026557Y005189D01*
X026591Y005149D01*
X026629Y005110D01*
X026668Y005074D01*
X027697Y005070D02*
X027737Y005106D01*
X027775Y005145D01*
X027810Y005186D01*
X027842Y005229D01*
X027872Y005274D01*
X027898Y005321D01*
X027920Y005370D01*
X027940Y005421D01*
X027956Y005472D01*
X027969Y005524D01*
X027978Y005578D01*
X027983Y005631D01*
X027985Y005685D01*
X040185Y005065D02*
X041185Y005065D01*
X041485Y005685D02*
X041483Y005739D01*
X041478Y005793D01*
X041469Y005846D01*
X041456Y005899D01*
X041440Y005950D01*
X041420Y006000D01*
X041397Y006049D01*
X041371Y006097D01*
X041342Y006142D01*
X041309Y006185D01*
X041274Y006226D01*
X041236Y006265D01*
X041196Y006301D01*
X041153Y006334D01*
X041108Y006364D01*
X041061Y006391D01*
X040288Y006380D02*
X040240Y006350D01*
X040195Y006317D01*
X040152Y006281D01*
X040111Y006243D01*
X040074Y006201D01*
X040039Y006157D01*
X040008Y006111D01*
X039979Y006062D01*
X039955Y006012D01*
X039934Y005960D01*
X039916Y005906D01*
X039903Y005852D01*
X039893Y005797D01*
X039887Y005741D01*
X039885Y005685D01*
X040266Y006366D02*
X040314Y006394D01*
X040363Y006418D01*
X040415Y006438D01*
X040467Y006455D01*
X040521Y006468D01*
X040575Y006477D01*
X040630Y006483D01*
X040685Y006485D01*
X040741Y006483D01*
X040798Y006477D01*
X040853Y006467D01*
X040908Y006453D01*
X040961Y006436D01*
X041014Y006414D01*
X041064Y006389D01*
X039885Y005685D02*
X039887Y005632D01*
X039892Y005578D01*
X039901Y005526D01*
X039913Y005474D01*
X039929Y005423D01*
X039948Y005373D01*
X039971Y005324D01*
X039997Y005277D01*
X040025Y005232D01*
X040057Y005189D01*
X040091Y005149D01*
X040129Y005110D01*
X040168Y005074D01*
X041197Y005070D02*
X041237Y005106D01*
X041275Y005145D01*
X041310Y005186D01*
X041342Y005229D01*
X041372Y005274D01*
X041398Y005321D01*
X041420Y005370D01*
X041440Y005421D01*
X041456Y005472D01*
X041469Y005524D01*
X041478Y005578D01*
X041483Y005631D01*
X041485Y005685D01*
D17*
X030935Y007185D03*
X030935Y010185D03*
X017435Y010185D03*
X017435Y007185D03*
X004435Y007185D03*
X004435Y010185D03*
D18*
X017120Y017704D02*
X017122Y017702D01*
X017125Y017702D01*
X017127Y017704D01*
X017127Y017711D01*
X017125Y017712D01*
X017122Y017712D01*
X017120Y017711D01*
X017120Y017704D01*
X017130Y017704D02*
X017131Y017702D01*
X017135Y017702D01*
X017136Y017704D01*
X017139Y017702D02*
X017145Y017709D01*
X017145Y017711D01*
X017144Y017712D01*
X017140Y017712D01*
X017139Y017711D01*
X017136Y017711D02*
X017135Y017712D01*
X017131Y017712D01*
X017130Y017711D01*
X017130Y017704D01*
X017139Y017702D02*
X017145Y017702D01*
X017148Y017701D02*
X017155Y017701D01*
X017157Y017704D02*
X017159Y017702D01*
X017162Y017702D01*
X017164Y017704D01*
X017164Y017711D01*
X017162Y017712D01*
X017159Y017712D01*
X017157Y017711D01*
X017157Y017704D01*
X017166Y017704D02*
X017168Y017702D01*
X017171Y017702D01*
X017173Y017704D01*
X017173Y017712D01*
X017175Y017712D02*
X017182Y017712D01*
X017179Y017712D02*
X017179Y017702D01*
X017166Y017704D02*
X017166Y017712D01*
X020133Y017712D02*
X020138Y017712D01*
X020139Y017711D01*
X020139Y017704D01*
X020138Y017702D01*
X020133Y017702D01*
X020133Y017712D01*
X020142Y017712D02*
X020147Y017712D01*
X020149Y017711D01*
X020149Y017704D01*
X020147Y017702D01*
X020142Y017702D01*
X020142Y017712D01*
X020151Y017711D02*
X020151Y017709D01*
X020153Y017707D01*
X020156Y017707D01*
X020158Y017706D01*
X020158Y017704D01*
X020156Y017702D01*
X020153Y017702D01*
X020151Y017704D01*
X020151Y017711D02*
X020153Y017712D01*
X020156Y017712D01*
X020158Y017711D01*
X020160Y017701D02*
X020167Y017701D01*
X020169Y017702D02*
X020173Y017702D01*
X020171Y017702D02*
X020171Y017712D01*
X020169Y017712D02*
X020173Y017712D01*
X020176Y017712D02*
X020182Y017702D01*
X020182Y017712D01*
X020176Y017712D02*
X020176Y017702D01*
X023185Y018659D02*
X023187Y018657D01*
X023190Y018657D01*
X023192Y018659D01*
X023192Y018662D01*
X023188Y018662D01*
X023185Y018659D02*
X023185Y018666D01*
X023187Y018667D01*
X023190Y018667D01*
X023192Y018666D01*
X023194Y018667D02*
X023201Y018657D01*
X023201Y018667D01*
X023203Y018667D02*
X023208Y018667D01*
X023210Y018666D01*
X023210Y018659D01*
X023208Y018657D01*
X023203Y018657D01*
X023203Y018667D01*
X023194Y018667D02*
X023194Y018657D01*
X013747Y018667D02*
X013740Y018667D01*
X013737Y018667D02*
X013737Y018659D01*
X013736Y018657D01*
X013732Y018657D01*
X013731Y018659D01*
X013731Y018667D01*
X013728Y018666D02*
X013727Y018667D01*
X013723Y018667D01*
X013722Y018666D01*
X013722Y018659D01*
X013723Y018657D01*
X013727Y018657D01*
X013728Y018659D01*
X013728Y018666D01*
X013719Y018656D02*
X013712Y018656D01*
X013710Y018657D02*
X013703Y018657D01*
X013701Y018659D02*
X013699Y018657D01*
X013696Y018657D01*
X013694Y018659D01*
X013694Y018666D01*
X013696Y018667D01*
X013699Y018667D01*
X013701Y018666D01*
X013703Y018664D02*
X013707Y018667D01*
X013707Y018657D01*
X013692Y018659D02*
X013692Y018666D01*
X013690Y018667D01*
X013687Y018667D01*
X013685Y018666D01*
X013685Y018659D01*
X013687Y018657D01*
X013690Y018657D01*
X013692Y018659D01*
X013743Y018657D02*
X013743Y018667D01*
X032685Y018662D02*
X032692Y018662D01*
X032694Y018662D02*
X032697Y018664D01*
X032699Y018664D01*
X032701Y018662D01*
X032701Y018659D01*
X032699Y018657D01*
X032696Y018657D01*
X032694Y018659D01*
X032694Y018662D02*
X032694Y018667D01*
X032701Y018667D01*
X032703Y018667D02*
X032703Y018661D01*
X032707Y018657D01*
X032710Y018661D01*
X032710Y018667D01*
X032688Y018666D02*
X032688Y018659D01*
X035133Y017711D02*
X035133Y017704D01*
X035134Y017702D01*
X035138Y017702D01*
X035139Y017704D01*
X035139Y017711D01*
X035138Y017712D01*
X035134Y017712D01*
X035133Y017711D01*
X035142Y017711D02*
X035142Y017704D01*
X035144Y017702D01*
X035147Y017702D01*
X035149Y017704D01*
X035151Y017702D02*
X035158Y017709D01*
X035158Y017711D01*
X035156Y017712D01*
X035153Y017712D01*
X035151Y017711D01*
X035149Y017711D02*
X035147Y017712D01*
X035144Y017712D01*
X035142Y017711D01*
X035151Y017702D02*
X035158Y017702D01*
X035160Y017701D02*
X035167Y017701D01*
X035169Y017702D02*
X035173Y017702D01*
X035171Y017702D02*
X035171Y017712D01*
X035169Y017712D02*
X035173Y017712D01*
X035176Y017712D02*
X035182Y017702D01*
X035182Y017712D01*
X035176Y017712D02*
X035176Y017702D01*
X037620Y017704D02*
X037622Y017702D01*
X037625Y017702D01*
X037627Y017704D01*
X037627Y017711D01*
X037625Y017712D01*
X037622Y017712D01*
X037620Y017711D01*
X037620Y017704D01*
X037630Y017704D02*
X037631Y017702D01*
X037635Y017702D01*
X037636Y017704D01*
X037639Y017704D02*
X037640Y017702D01*
X037644Y017702D01*
X037645Y017704D01*
X037645Y017706D01*
X037644Y017707D01*
X037642Y017707D01*
X037644Y017707D02*
X037645Y017709D01*
X037645Y017711D01*
X037644Y017712D01*
X037640Y017712D01*
X037639Y017711D01*
X037636Y017711D02*
X037635Y017712D01*
X037631Y017712D01*
X037630Y017711D01*
X037630Y017704D01*
X037648Y017701D02*
X037655Y017701D01*
X037657Y017704D02*
X037659Y017702D01*
X037662Y017702D01*
X037664Y017704D01*
X037664Y017711D01*
X037662Y017712D01*
X037659Y017712D01*
X037657Y017711D01*
X037657Y017704D01*
X037666Y017704D02*
X037668Y017702D01*
X037671Y017702D01*
X037673Y017704D01*
X037673Y017712D01*
X037675Y017712D02*
X037682Y017712D01*
X037679Y017712D02*
X037679Y017702D01*
X037666Y017704D02*
X037666Y017712D01*
X040133Y017704D02*
X040134Y017702D01*
X040138Y017702D01*
X040139Y017704D01*
X040139Y017711D01*
X040138Y017712D01*
X040134Y017712D01*
X040133Y017711D01*
X040133Y017704D01*
X040142Y017704D02*
X040144Y017702D01*
X040147Y017702D01*
X040149Y017704D01*
X040151Y017704D02*
X040153Y017702D01*
X040156Y017702D01*
X040158Y017704D01*
X040158Y017706D01*
X040156Y017707D01*
X040154Y017707D01*
X040156Y017707D02*
X040158Y017709D01*
X040158Y017711D01*
X040156Y017712D01*
X040153Y017712D01*
X040151Y017711D01*
X040149Y017711D02*
X040147Y017712D01*
X040144Y017712D01*
X040142Y017711D01*
X040142Y017704D01*
X040160Y017701D02*
X040167Y017701D01*
X040169Y017702D02*
X040173Y017702D01*
X040171Y017702D02*
X040171Y017712D01*
X040169Y017712D02*
X040173Y017712D01*
X040176Y017712D02*
X040182Y017702D01*
X040182Y017712D01*
X040176Y017712D02*
X040176Y017702D01*
D19*
X035135Y011234D02*
X035135Y010738D01*
X035135Y010632D01*
X035135Y009738D01*
X035135Y009632D01*
X035135Y009136D01*
X034535Y009360D02*
X034535Y011010D01*
X021635Y011234D02*
X021635Y010738D01*
X021635Y010632D01*
X021635Y009738D01*
X021635Y009632D01*
X021635Y009136D01*
X021035Y009360D02*
X021035Y011010D01*
X005234Y013635D02*
X004738Y013635D01*
X004632Y013635D01*
X003738Y013635D01*
X003632Y013635D01*
X003136Y013635D01*
X003360Y013035D02*
X005010Y013035D01*
D20*
X005028Y013027D02*
X004996Y013052D01*
X004997Y013051D02*
X005032Y013099D01*
X005064Y013148D01*
X005093Y013199D01*
X005119Y013251D01*
X005155Y013235D01*
X005155Y013234D01*
X005128Y013180D01*
X005098Y013127D01*
X005065Y013076D01*
X005028Y013027D01*
X005021Y013032D01*
X005057Y013081D01*
X005090Y013132D01*
X005120Y013184D01*
X005147Y013238D01*
X005139Y013242D01*
X005112Y013188D01*
X005083Y013136D01*
X005050Y013086D01*
X005014Y013038D01*
X005007Y013043D01*
X005042Y013091D01*
X005075Y013141D01*
X005104Y013192D01*
X005131Y013246D01*
X005123Y013249D01*
X005096Y013197D01*
X005067Y013146D01*
X005035Y013096D01*
X005000Y013049D01*
X005155Y013234D02*
X005119Y013251D01*
X005144Y013310D01*
X005166Y013370D01*
X005183Y013432D01*
X005197Y013494D01*
X005207Y013557D01*
X005213Y013621D01*
X005215Y013685D01*
X005213Y013749D01*
X005207Y013813D01*
X005197Y013876D01*
X005183Y013938D01*
X005166Y014000D01*
X005144Y014060D01*
X005119Y014119D01*
X005155Y014136D01*
X005180Y014079D01*
X005201Y014021D01*
X005219Y013961D01*
X005233Y013901D01*
X005244Y013840D01*
X005251Y013778D01*
X005255Y013716D01*
X005255Y013654D01*
X005251Y013592D01*
X005244Y013530D01*
X005233Y013469D01*
X005219Y013409D01*
X005201Y013349D01*
X005180Y013291D01*
X005155Y013234D01*
X005147Y013238D01*
X005171Y013294D01*
X005192Y013352D01*
X005210Y013411D01*
X005224Y013471D01*
X005235Y013532D01*
X005242Y013593D01*
X005246Y013654D01*
X005246Y013716D01*
X005242Y013777D01*
X005235Y013838D01*
X005224Y013899D01*
X005210Y013959D01*
X005192Y014018D01*
X005171Y014076D01*
X005147Y014132D01*
X005139Y014129D01*
X005163Y014072D01*
X005184Y014015D01*
X005201Y013957D01*
X005215Y013897D01*
X005226Y013837D01*
X005233Y013776D01*
X005237Y013716D01*
X005237Y013654D01*
X005233Y013594D01*
X005226Y013533D01*
X005215Y013473D01*
X005201Y013413D01*
X005184Y013355D01*
X005163Y013298D01*
X005139Y013241D01*
X005131Y013245D01*
X005155Y013301D01*
X005175Y013358D01*
X005193Y013416D01*
X005207Y013475D01*
X005217Y013534D01*
X005224Y013594D01*
X005228Y013655D01*
X005228Y013715D01*
X005224Y013776D01*
X005217Y013836D01*
X005207Y013895D01*
X005193Y013954D01*
X005175Y014012D01*
X005155Y014069D01*
X005131Y014125D01*
X005123Y014121D01*
X005146Y014066D01*
X005167Y014009D01*
X005184Y013952D01*
X005198Y013894D01*
X005208Y013834D01*
X005215Y013775D01*
X005219Y013715D01*
X005219Y013655D01*
X005215Y013595D01*
X005208Y013536D01*
X005198Y013476D01*
X005184Y013418D01*
X005167Y013361D01*
X005146Y013304D01*
X005123Y013249D01*
X003215Y014136D02*
X003251Y014119D01*
X003226Y014060D01*
X003204Y014000D01*
X003187Y013938D01*
X003173Y013876D01*
X003163Y013813D01*
X003157Y013749D01*
X003155Y013685D01*
X003157Y013621D01*
X003163Y013557D01*
X003173Y013494D01*
X003187Y013432D01*
X003204Y013370D01*
X003226Y013310D01*
X003251Y013251D01*
X003215Y013234D01*
X003190Y013291D01*
X003169Y013349D01*
X003151Y013409D01*
X003137Y013469D01*
X003126Y013530D01*
X003119Y013592D01*
X003115Y013654D01*
X003115Y013716D01*
X003119Y013778D01*
X003126Y013840D01*
X003137Y013901D01*
X003151Y013961D01*
X003169Y014021D01*
X003190Y014079D01*
X003215Y014136D01*
X003223Y014132D01*
X003199Y014076D01*
X003178Y014018D01*
X003160Y013959D01*
X003146Y013899D01*
X003135Y013838D01*
X003128Y013777D01*
X003124Y013716D01*
X003124Y013654D01*
X003128Y013593D01*
X003135Y013532D01*
X003146Y013471D01*
X003160Y013411D01*
X003178Y013352D01*
X003199Y013294D01*
X003223Y013238D01*
X003231Y013241D01*
X003207Y013298D01*
X003186Y013355D01*
X003169Y013413D01*
X003155Y013473D01*
X003144Y013533D01*
X003137Y013594D01*
X003133Y013654D01*
X003133Y013716D01*
X003137Y013776D01*
X003144Y013837D01*
X003155Y013897D01*
X003169Y013957D01*
X003186Y014015D01*
X003207Y014072D01*
X003231Y014129D01*
X003239Y014125D01*
X003215Y014069D01*
X003195Y014012D01*
X003177Y013954D01*
X003163Y013895D01*
X003153Y013836D01*
X003146Y013776D01*
X003142Y013715D01*
X003142Y013655D01*
X003146Y013594D01*
X003153Y013534D01*
X003163Y013475D01*
X003177Y013416D01*
X003195Y013358D01*
X003215Y013301D01*
X003239Y013245D01*
X003247Y013249D01*
X003224Y013304D01*
X003203Y013361D01*
X003186Y013418D01*
X003172Y013476D01*
X003162Y013536D01*
X003155Y013595D01*
X003151Y013655D01*
X003151Y013715D01*
X003155Y013775D01*
X003162Y013834D01*
X003172Y013894D01*
X003186Y013952D01*
X003203Y014009D01*
X003224Y014066D01*
X003247Y014121D01*
X003220Y013225D02*
X003256Y013242D01*
X003255Y013242D02*
X003281Y013192D01*
X003309Y013143D01*
X003340Y013096D01*
X003373Y013051D01*
X003342Y013027D01*
X003307Y013073D01*
X003275Y013122D01*
X003246Y013173D01*
X003219Y013225D01*
X003227Y013229D01*
X003254Y013177D01*
X003283Y013127D01*
X003314Y013079D01*
X003349Y013032D01*
X003356Y013038D01*
X003322Y013084D01*
X003290Y013132D01*
X003261Y013181D01*
X003235Y013232D01*
X003243Y013236D01*
X003269Y013186D01*
X003298Y013136D01*
X003329Y013089D01*
X003363Y013043D01*
X003370Y013049D01*
X003336Y013094D01*
X003306Y013141D01*
X003277Y013190D01*
X003252Y013240D01*
X005150Y014145D02*
X005114Y014128D01*
X005115Y014128D02*
X005086Y014184D01*
X005054Y014238D01*
X005019Y014290D01*
X004981Y014339D01*
X004939Y014386D01*
X004895Y014431D01*
X004848Y014473D01*
X004799Y014512D01*
X004748Y014548D01*
X004694Y014580D01*
X004639Y014610D01*
X004582Y014635D01*
X004523Y014658D01*
X004464Y014677D01*
X004403Y014692D01*
X004341Y014703D01*
X004279Y014711D01*
X004216Y014715D01*
X004154Y014715D01*
X004091Y014711D01*
X004029Y014703D01*
X003967Y014692D01*
X003906Y014677D01*
X003847Y014658D01*
X003788Y014635D01*
X003731Y014610D01*
X003676Y014580D01*
X003622Y014548D01*
X003571Y014512D01*
X003522Y014473D01*
X003475Y014431D01*
X003431Y014386D01*
X003389Y014339D01*
X003351Y014290D01*
X003316Y014238D01*
X003284Y014184D01*
X003255Y014128D01*
X003220Y014145D01*
X003219Y014145D01*
X003249Y014203D01*
X003282Y014259D01*
X003319Y014313D01*
X003358Y014365D01*
X003401Y014414D01*
X003447Y014460D01*
X003496Y014503D01*
X003547Y014544D01*
X003600Y014581D01*
X003656Y014615D01*
X003713Y014645D01*
X003773Y014672D01*
X003833Y014696D01*
X003896Y014715D01*
X003959Y014731D01*
X004023Y014743D01*
X004087Y014751D01*
X004152Y014755D01*
X004218Y014755D01*
X004283Y014751D01*
X004347Y014743D01*
X004411Y014731D01*
X004474Y014715D01*
X004537Y014696D01*
X004597Y014672D01*
X004657Y014645D01*
X004714Y014615D01*
X004770Y014581D01*
X004823Y014544D01*
X004874Y014503D01*
X004923Y014460D01*
X004969Y014414D01*
X005012Y014365D01*
X005051Y014313D01*
X005088Y014259D01*
X005121Y014203D01*
X005151Y014145D01*
X005143Y014141D01*
X005113Y014199D01*
X005080Y014254D01*
X005044Y014308D01*
X005005Y014359D01*
X004962Y014407D01*
X004917Y014453D01*
X004869Y014496D01*
X004818Y014537D01*
X004765Y014573D01*
X004710Y014607D01*
X004653Y014637D01*
X004594Y014664D01*
X004534Y014687D01*
X004472Y014706D01*
X004409Y014722D01*
X004346Y014734D01*
X004282Y014742D01*
X004217Y014746D01*
X004153Y014746D01*
X004088Y014742D01*
X004024Y014734D01*
X003961Y014722D01*
X003898Y014706D01*
X003836Y014687D01*
X003776Y014664D01*
X003717Y014637D01*
X003660Y014607D01*
X003605Y014573D01*
X003552Y014537D01*
X003501Y014496D01*
X003453Y014453D01*
X003408Y014407D01*
X003365Y014359D01*
X003326Y014308D01*
X003290Y014254D01*
X003257Y014199D01*
X003227Y014141D01*
X003235Y014138D01*
X003265Y014195D01*
X003297Y014250D01*
X003333Y014303D01*
X003372Y014353D01*
X003415Y014401D01*
X003460Y014447D01*
X003507Y014490D01*
X003557Y014529D01*
X003610Y014566D01*
X003665Y014599D01*
X003721Y014629D01*
X003780Y014656D01*
X003839Y014679D01*
X003900Y014698D01*
X003963Y014713D01*
X004026Y014725D01*
X004089Y014733D01*
X004153Y014737D01*
X004217Y014737D01*
X004281Y014733D01*
X004344Y014725D01*
X004407Y014713D01*
X004470Y014698D01*
X004531Y014679D01*
X004590Y014656D01*
X004649Y014629D01*
X004705Y014599D01*
X004760Y014566D01*
X004813Y014529D01*
X004863Y014490D01*
X004910Y014447D01*
X004955Y014401D01*
X004998Y014353D01*
X005037Y014303D01*
X005073Y014250D01*
X005105Y014195D01*
X005135Y014138D01*
X005127Y014134D01*
X005097Y014190D01*
X005065Y014245D01*
X005029Y014297D01*
X004991Y014347D01*
X004949Y014395D01*
X004904Y014440D01*
X004857Y014483D01*
X004807Y014522D01*
X004755Y014558D01*
X004701Y014591D01*
X004645Y014621D01*
X004587Y014647D01*
X004528Y014670D01*
X004467Y014689D01*
X004406Y014704D01*
X004343Y014716D01*
X004280Y014724D01*
X004217Y014728D01*
X004153Y014728D01*
X004090Y014724D01*
X004027Y014716D01*
X003964Y014704D01*
X003903Y014689D01*
X003842Y014670D01*
X003783Y014647D01*
X003725Y014621D01*
X003669Y014591D01*
X003615Y014558D01*
X003563Y014522D01*
X003513Y014483D01*
X003466Y014440D01*
X003421Y014395D01*
X003379Y014347D01*
X003341Y014297D01*
X003305Y014245D01*
X003273Y014190D01*
X003243Y014134D01*
X003252Y014130D01*
X003280Y014186D01*
X003313Y014240D01*
X003348Y014292D01*
X003386Y014342D01*
X003428Y014389D01*
X003472Y014434D01*
X003519Y014476D01*
X003568Y014515D01*
X003620Y014551D01*
X003674Y014584D01*
X003729Y014613D01*
X003787Y014639D01*
X003845Y014662D01*
X003905Y014680D01*
X003966Y014696D01*
X004028Y014707D01*
X004091Y014715D01*
X004154Y014719D01*
X004216Y014719D01*
X004279Y014715D01*
X004342Y014707D01*
X004404Y014696D01*
X004465Y014680D01*
X004525Y014662D01*
X004583Y014639D01*
X004641Y014613D01*
X004696Y014584D01*
X004750Y014551D01*
X004802Y014515D01*
X004851Y014476D01*
X004898Y014434D01*
X004942Y014389D01*
X004984Y014342D01*
X005022Y014292D01*
X005057Y014240D01*
X005090Y014186D01*
X005118Y014130D01*
X021234Y009215D02*
X021251Y009251D01*
X021310Y009226D01*
X021370Y009204D01*
X021432Y009187D01*
X021494Y009173D01*
X021557Y009163D01*
X021621Y009157D01*
X021685Y009155D01*
X021749Y009157D01*
X021813Y009163D01*
X021876Y009173D01*
X021938Y009187D01*
X022000Y009204D01*
X022060Y009226D01*
X022119Y009251D01*
X022136Y009215D01*
X022079Y009190D01*
X022021Y009169D01*
X021961Y009151D01*
X021901Y009137D01*
X021840Y009126D01*
X021778Y009119D01*
X021716Y009115D01*
X021654Y009115D01*
X021592Y009119D01*
X021530Y009126D01*
X021469Y009137D01*
X021409Y009151D01*
X021349Y009169D01*
X021291Y009190D01*
X021234Y009215D01*
X021238Y009223D01*
X021294Y009199D01*
X021352Y009178D01*
X021411Y009160D01*
X021471Y009146D01*
X021532Y009135D01*
X021593Y009128D01*
X021654Y009124D01*
X021716Y009124D01*
X021777Y009128D01*
X021838Y009135D01*
X021899Y009146D01*
X021959Y009160D01*
X022018Y009178D01*
X022076Y009199D01*
X022132Y009223D01*
X022129Y009231D01*
X022072Y009207D01*
X022015Y009186D01*
X021957Y009169D01*
X021897Y009155D01*
X021837Y009144D01*
X021776Y009137D01*
X021716Y009133D01*
X021654Y009133D01*
X021594Y009137D01*
X021533Y009144D01*
X021473Y009155D01*
X021413Y009169D01*
X021355Y009186D01*
X021298Y009207D01*
X021241Y009231D01*
X021245Y009239D01*
X021301Y009215D01*
X021358Y009195D01*
X021416Y009177D01*
X021475Y009163D01*
X021534Y009153D01*
X021594Y009146D01*
X021655Y009142D01*
X021715Y009142D01*
X021776Y009146D01*
X021836Y009153D01*
X021895Y009163D01*
X021954Y009177D01*
X022012Y009195D01*
X022069Y009215D01*
X022125Y009239D01*
X022121Y009247D01*
X022066Y009224D01*
X022009Y009203D01*
X021952Y009186D01*
X021894Y009172D01*
X021834Y009162D01*
X021775Y009155D01*
X021715Y009151D01*
X021655Y009151D01*
X021595Y009155D01*
X021536Y009162D01*
X021476Y009172D01*
X021418Y009186D01*
X021361Y009203D01*
X021304Y009224D01*
X021249Y009247D01*
X021027Y009342D02*
X021052Y009374D01*
X021051Y009373D02*
X021099Y009338D01*
X021148Y009306D01*
X021199Y009277D01*
X021251Y009251D01*
X021235Y009215D01*
X021234Y009215D01*
X021180Y009242D01*
X021127Y009272D01*
X021076Y009305D01*
X021027Y009342D01*
X021032Y009349D01*
X021081Y009313D01*
X021132Y009280D01*
X021184Y009250D01*
X021238Y009223D01*
X021242Y009231D01*
X021188Y009258D01*
X021136Y009287D01*
X021086Y009320D01*
X021038Y009356D01*
X021043Y009363D01*
X021091Y009328D01*
X021141Y009295D01*
X021192Y009266D01*
X021246Y009239D01*
X021249Y009247D01*
X021197Y009274D01*
X021146Y009303D01*
X021096Y009335D01*
X021049Y009370D01*
X022136Y011155D02*
X022119Y011119D01*
X022060Y011144D01*
X022000Y011166D01*
X021938Y011183D01*
X021876Y011197D01*
X021813Y011207D01*
X021749Y011213D01*
X021685Y011215D01*
X021621Y011213D01*
X021557Y011207D01*
X021494Y011197D01*
X021432Y011183D01*
X021370Y011166D01*
X021310Y011144D01*
X021251Y011119D01*
X021234Y011155D01*
X021291Y011180D01*
X021349Y011201D01*
X021409Y011219D01*
X021469Y011233D01*
X021530Y011244D01*
X021592Y011251D01*
X021654Y011255D01*
X021716Y011255D01*
X021778Y011251D01*
X021840Y011244D01*
X021901Y011233D01*
X021961Y011219D01*
X022021Y011201D01*
X022079Y011180D01*
X022136Y011155D01*
X022132Y011147D01*
X022076Y011171D01*
X022018Y011192D01*
X021959Y011210D01*
X021899Y011224D01*
X021838Y011235D01*
X021777Y011242D01*
X021716Y011246D01*
X021654Y011246D01*
X021593Y011242D01*
X021532Y011235D01*
X021471Y011224D01*
X021411Y011210D01*
X021352Y011192D01*
X021294Y011171D01*
X021238Y011147D01*
X021241Y011139D01*
X021298Y011163D01*
X021355Y011184D01*
X021413Y011201D01*
X021473Y011215D01*
X021533Y011226D01*
X021594Y011233D01*
X021654Y011237D01*
X021716Y011237D01*
X021776Y011233D01*
X021837Y011226D01*
X021897Y011215D01*
X021957Y011201D01*
X022015Y011184D01*
X022072Y011163D01*
X022129Y011139D01*
X022125Y011131D01*
X022069Y011155D01*
X022012Y011175D01*
X021954Y011193D01*
X021895Y011207D01*
X021836Y011217D01*
X021776Y011224D01*
X021715Y011228D01*
X021655Y011228D01*
X021594Y011224D01*
X021534Y011217D01*
X021475Y011207D01*
X021416Y011193D01*
X021358Y011175D01*
X021301Y011155D01*
X021245Y011131D01*
X021249Y011123D01*
X021304Y011146D01*
X021361Y011167D01*
X021418Y011184D01*
X021476Y011198D01*
X021536Y011208D01*
X021595Y011215D01*
X021655Y011219D01*
X021715Y011219D01*
X021775Y011215D01*
X021834Y011208D01*
X021894Y011198D01*
X021952Y011184D01*
X022009Y011167D01*
X022066Y011146D01*
X022121Y011123D01*
X021225Y011150D02*
X021242Y011114D01*
X021242Y011115D02*
X021192Y011089D01*
X021143Y011061D01*
X021096Y011030D01*
X021051Y010997D01*
X021027Y011028D01*
X021073Y011063D01*
X021122Y011095D01*
X021173Y011124D01*
X021225Y011151D01*
X021229Y011143D01*
X021177Y011116D01*
X021127Y011087D01*
X021079Y011056D01*
X021032Y011021D01*
X021038Y011014D01*
X021084Y011048D01*
X021132Y011080D01*
X021181Y011109D01*
X021232Y011135D01*
X021236Y011127D01*
X021186Y011101D01*
X021136Y011072D01*
X021089Y011041D01*
X021043Y011007D01*
X021049Y011000D01*
X021094Y011034D01*
X021141Y011064D01*
X021190Y011093D01*
X021240Y011118D01*
X022145Y009220D02*
X022128Y009256D01*
X022128Y009255D02*
X022184Y009284D01*
X022238Y009316D01*
X022290Y009351D01*
X022339Y009389D01*
X022386Y009431D01*
X022431Y009475D01*
X022473Y009522D01*
X022512Y009571D01*
X022548Y009622D01*
X022580Y009676D01*
X022610Y009731D01*
X022635Y009788D01*
X022658Y009847D01*
X022677Y009906D01*
X022692Y009967D01*
X022703Y010029D01*
X022711Y010091D01*
X022715Y010154D01*
X022715Y010216D01*
X022711Y010279D01*
X022703Y010341D01*
X022692Y010403D01*
X022677Y010464D01*
X022658Y010523D01*
X022635Y010582D01*
X022610Y010639D01*
X022580Y010694D01*
X022548Y010748D01*
X022512Y010799D01*
X022473Y010848D01*
X022431Y010895D01*
X022386Y010939D01*
X022339Y010981D01*
X022290Y011019D01*
X022238Y011054D01*
X022184Y011086D01*
X022128Y011115D01*
X022145Y011150D01*
X022145Y011151D01*
X022203Y011121D01*
X022259Y011088D01*
X022313Y011051D01*
X022365Y011012D01*
X022414Y010969D01*
X022460Y010923D01*
X022503Y010874D01*
X022544Y010823D01*
X022581Y010770D01*
X022615Y010714D01*
X022645Y010657D01*
X022672Y010597D01*
X022696Y010537D01*
X022715Y010474D01*
X022731Y010411D01*
X022743Y010347D01*
X022751Y010283D01*
X022755Y010218D01*
X022755Y010152D01*
X022751Y010087D01*
X022743Y010023D01*
X022731Y009959D01*
X022715Y009896D01*
X022696Y009833D01*
X022672Y009773D01*
X022645Y009713D01*
X022615Y009656D01*
X022581Y009600D01*
X022544Y009547D01*
X022503Y009496D01*
X022460Y009447D01*
X022414Y009401D01*
X022365Y009358D01*
X022313Y009319D01*
X022259Y009282D01*
X022203Y009249D01*
X022145Y009219D01*
X022141Y009227D01*
X022199Y009257D01*
X022254Y009290D01*
X022308Y009326D01*
X022359Y009365D01*
X022407Y009408D01*
X022453Y009453D01*
X022496Y009501D01*
X022537Y009552D01*
X022573Y009605D01*
X022607Y009660D01*
X022637Y009717D01*
X022664Y009776D01*
X022687Y009836D01*
X022706Y009898D01*
X022722Y009961D01*
X022734Y010024D01*
X022742Y010088D01*
X022746Y010153D01*
X022746Y010217D01*
X022742Y010282D01*
X022734Y010346D01*
X022722Y010409D01*
X022706Y010472D01*
X022687Y010534D01*
X022664Y010594D01*
X022637Y010653D01*
X022607Y010710D01*
X022573Y010765D01*
X022537Y010818D01*
X022496Y010869D01*
X022453Y010917D01*
X022407Y010962D01*
X022359Y011005D01*
X022308Y011044D01*
X022254Y011080D01*
X022199Y011113D01*
X022141Y011143D01*
X022138Y011135D01*
X022195Y011105D01*
X022250Y011073D01*
X022303Y011037D01*
X022353Y010998D01*
X022401Y010955D01*
X022447Y010910D01*
X022490Y010863D01*
X022529Y010813D01*
X022566Y010760D01*
X022599Y010705D01*
X022629Y010649D01*
X022656Y010590D01*
X022679Y010531D01*
X022698Y010470D01*
X022713Y010407D01*
X022725Y010344D01*
X022733Y010281D01*
X022737Y010217D01*
X022737Y010153D01*
X022733Y010089D01*
X022725Y010026D01*
X022713Y009963D01*
X022698Y009900D01*
X022679Y009839D01*
X022656Y009780D01*
X022629Y009721D01*
X022599Y009665D01*
X022566Y009610D01*
X022529Y009557D01*
X022490Y009507D01*
X022447Y009460D01*
X022401Y009415D01*
X022353Y009372D01*
X022303Y009333D01*
X022250Y009297D01*
X022195Y009265D01*
X022138Y009235D01*
X022134Y009243D01*
X022190Y009273D01*
X022245Y009305D01*
X022297Y009341D01*
X022347Y009379D01*
X022395Y009421D01*
X022440Y009466D01*
X022483Y009513D01*
X022522Y009563D01*
X022558Y009615D01*
X022591Y009669D01*
X022621Y009725D01*
X022647Y009783D01*
X022670Y009842D01*
X022689Y009903D01*
X022704Y009964D01*
X022716Y010027D01*
X022724Y010090D01*
X022728Y010153D01*
X022728Y010217D01*
X022724Y010280D01*
X022716Y010343D01*
X022704Y010406D01*
X022689Y010467D01*
X022670Y010528D01*
X022647Y010587D01*
X022621Y010645D01*
X022591Y010701D01*
X022558Y010755D01*
X022522Y010807D01*
X022483Y010857D01*
X022440Y010904D01*
X022395Y010949D01*
X022347Y010991D01*
X022297Y011029D01*
X022245Y011065D01*
X022190Y011097D01*
X022134Y011127D01*
X022130Y011118D01*
X022186Y011090D01*
X022240Y011057D01*
X022292Y011022D01*
X022342Y010984D01*
X022389Y010942D01*
X022434Y010898D01*
X022476Y010851D01*
X022515Y010802D01*
X022551Y010750D01*
X022584Y010696D01*
X022613Y010641D01*
X022639Y010583D01*
X022662Y010525D01*
X022680Y010465D01*
X022696Y010404D01*
X022707Y010342D01*
X022715Y010279D01*
X022719Y010216D01*
X022719Y010154D01*
X022715Y010091D01*
X022707Y010028D01*
X022696Y009966D01*
X022680Y009905D01*
X022662Y009845D01*
X022639Y009787D01*
X022613Y009729D01*
X022584Y009674D01*
X022551Y009620D01*
X022515Y009568D01*
X022476Y009519D01*
X022434Y009472D01*
X022389Y009428D01*
X022342Y009386D01*
X022292Y009348D01*
X022240Y009313D01*
X022186Y009280D01*
X022130Y009252D01*
X034734Y009215D02*
X034751Y009251D01*
X034810Y009226D01*
X034870Y009204D01*
X034932Y009187D01*
X034994Y009173D01*
X035057Y009163D01*
X035121Y009157D01*
X035185Y009155D01*
X035249Y009157D01*
X035313Y009163D01*
X035376Y009173D01*
X035438Y009187D01*
X035500Y009204D01*
X035560Y009226D01*
X035619Y009251D01*
X035636Y009215D01*
X035579Y009190D01*
X035521Y009169D01*
X035461Y009151D01*
X035401Y009137D01*
X035340Y009126D01*
X035278Y009119D01*
X035216Y009115D01*
X035154Y009115D01*
X035092Y009119D01*
X035030Y009126D01*
X034969Y009137D01*
X034909Y009151D01*
X034849Y009169D01*
X034791Y009190D01*
X034734Y009215D01*
X034738Y009223D01*
X034794Y009199D01*
X034852Y009178D01*
X034911Y009160D01*
X034971Y009146D01*
X035032Y009135D01*
X035093Y009128D01*
X035154Y009124D01*
X035216Y009124D01*
X035277Y009128D01*
X035338Y009135D01*
X035399Y009146D01*
X035459Y009160D01*
X035518Y009178D01*
X035576Y009199D01*
X035632Y009223D01*
X035629Y009231D01*
X035572Y009207D01*
X035515Y009186D01*
X035457Y009169D01*
X035397Y009155D01*
X035337Y009144D01*
X035276Y009137D01*
X035216Y009133D01*
X035154Y009133D01*
X035094Y009137D01*
X035033Y009144D01*
X034973Y009155D01*
X034913Y009169D01*
X034855Y009186D01*
X034798Y009207D01*
X034741Y009231D01*
X034745Y009239D01*
X034801Y009215D01*
X034858Y009195D01*
X034916Y009177D01*
X034975Y009163D01*
X035034Y009153D01*
X035094Y009146D01*
X035155Y009142D01*
X035215Y009142D01*
X035276Y009146D01*
X035336Y009153D01*
X035395Y009163D01*
X035454Y009177D01*
X035512Y009195D01*
X035569Y009215D01*
X035625Y009239D01*
X035621Y009247D01*
X035566Y009224D01*
X035509Y009203D01*
X035452Y009186D01*
X035394Y009172D01*
X035334Y009162D01*
X035275Y009155D01*
X035215Y009151D01*
X035155Y009151D01*
X035095Y009155D01*
X035036Y009162D01*
X034976Y009172D01*
X034918Y009186D01*
X034861Y009203D01*
X034804Y009224D01*
X034749Y009247D01*
X034527Y009342D02*
X034552Y009374D01*
X034551Y009373D02*
X034599Y009338D01*
X034648Y009306D01*
X034699Y009277D01*
X034751Y009251D01*
X034735Y009215D01*
X034734Y009215D01*
X034680Y009242D01*
X034627Y009272D01*
X034576Y009305D01*
X034527Y009342D01*
X034532Y009349D01*
X034581Y009313D01*
X034632Y009280D01*
X034684Y009250D01*
X034738Y009223D01*
X034742Y009231D01*
X034688Y009258D01*
X034636Y009287D01*
X034586Y009320D01*
X034538Y009356D01*
X034543Y009363D01*
X034591Y009328D01*
X034641Y009295D01*
X034692Y009266D01*
X034746Y009239D01*
X034749Y009247D01*
X034697Y009274D01*
X034646Y009303D01*
X034596Y009335D01*
X034549Y009370D01*
X035636Y011155D02*
X035619Y011119D01*
X035560Y011144D01*
X035500Y011166D01*
X035438Y011183D01*
X035376Y011197D01*
X035313Y011207D01*
X035249Y011213D01*
X035185Y011215D01*
X035121Y011213D01*
X035057Y011207D01*
X034994Y011197D01*
X034932Y011183D01*
X034870Y011166D01*
X034810Y011144D01*
X034751Y011119D01*
X034734Y011155D01*
X034791Y011180D01*
X034849Y011201D01*
X034909Y011219D01*
X034969Y011233D01*
X035030Y011244D01*
X035092Y011251D01*
X035154Y011255D01*
X035216Y011255D01*
X035278Y011251D01*
X035340Y011244D01*
X035401Y011233D01*
X035461Y011219D01*
X035521Y011201D01*
X035579Y011180D01*
X035636Y011155D01*
X035632Y011147D01*
X035576Y011171D01*
X035518Y011192D01*
X035459Y011210D01*
X035399Y011224D01*
X035338Y011235D01*
X035277Y011242D01*
X035216Y011246D01*
X035154Y011246D01*
X035093Y011242D01*
X035032Y011235D01*
X034971Y011224D01*
X034911Y011210D01*
X034852Y011192D01*
X034794Y011171D01*
X034738Y011147D01*
X034741Y011139D01*
X034798Y011163D01*
X034855Y011184D01*
X034913Y011201D01*
X034973Y011215D01*
X035033Y011226D01*
X035094Y011233D01*
X035154Y011237D01*
X035216Y011237D01*
X035276Y011233D01*
X035337Y011226D01*
X035397Y011215D01*
X035457Y011201D01*
X035515Y011184D01*
X035572Y011163D01*
X035629Y011139D01*
X035625Y011131D01*
X035569Y011155D01*
X035512Y011175D01*
X035454Y011193D01*
X035395Y011207D01*
X035336Y011217D01*
X035276Y011224D01*
X035215Y011228D01*
X035155Y011228D01*
X035094Y011224D01*
X035034Y011217D01*
X034975Y011207D01*
X034916Y011193D01*
X034858Y011175D01*
X034801Y011155D01*
X034745Y011131D01*
X034749Y011123D01*
X034804Y011146D01*
X034861Y011167D01*
X034918Y011184D01*
X034976Y011198D01*
X035036Y011208D01*
X035095Y011215D01*
X035155Y011219D01*
X035215Y011219D01*
X035275Y011215D01*
X035334Y011208D01*
X035394Y011198D01*
X035452Y011184D01*
X035509Y011167D01*
X035566Y011146D01*
X035621Y011123D01*
X034725Y011150D02*
X034742Y011114D01*
X034742Y011115D02*
X034692Y011089D01*
X034643Y011061D01*
X034596Y011030D01*
X034551Y010997D01*
X034527Y011028D01*
X034573Y011063D01*
X034622Y011095D01*
X034673Y011124D01*
X034725Y011151D01*
X034729Y011143D01*
X034677Y011116D01*
X034627Y011087D01*
X034579Y011056D01*
X034532Y011021D01*
X034538Y011014D01*
X034584Y011048D01*
X034632Y011080D01*
X034681Y011109D01*
X034732Y011135D01*
X034736Y011127D01*
X034686Y011101D01*
X034636Y011072D01*
X034589Y011041D01*
X034543Y011007D01*
X034549Y011000D01*
X034594Y011034D01*
X034641Y011064D01*
X034690Y011093D01*
X034740Y011118D01*
X035645Y009220D02*
X035628Y009256D01*
X035628Y009255D02*
X035684Y009284D01*
X035738Y009316D01*
X035790Y009351D01*
X035839Y009389D01*
X035886Y009431D01*
X035931Y009475D01*
X035973Y009522D01*
X036012Y009571D01*
X036048Y009622D01*
X036080Y009676D01*
X036110Y009731D01*
X036135Y009788D01*
X036158Y009847D01*
X036177Y009906D01*
X036192Y009967D01*
X036203Y010029D01*
X036211Y010091D01*
X036215Y010154D01*
X036215Y010216D01*
X036211Y010279D01*
X036203Y010341D01*
X036192Y010403D01*
X036177Y010464D01*
X036158Y010523D01*
X036135Y010582D01*
X036110Y010639D01*
X036080Y010694D01*
X036048Y010748D01*
X036012Y010799D01*
X035973Y010848D01*
X035931Y010895D01*
X035886Y010939D01*
X035839Y010981D01*
X035790Y011019D01*
X035738Y011054D01*
X035684Y011086D01*
X035628Y011115D01*
X035645Y011150D01*
X035645Y011151D01*
X035703Y011121D01*
X035759Y011088D01*
X035813Y011051D01*
X035865Y011012D01*
X035914Y010969D01*
X035960Y010923D01*
X036003Y010874D01*
X036044Y010823D01*
X036081Y010770D01*
X036115Y010714D01*
X036145Y010657D01*
X036172Y010597D01*
X036196Y010537D01*
X036215Y010474D01*
X036231Y010411D01*
X036243Y010347D01*
X036251Y010283D01*
X036255Y010218D01*
X036255Y010152D01*
X036251Y010087D01*
X036243Y010023D01*
X036231Y009959D01*
X036215Y009896D01*
X036196Y009833D01*
X036172Y009773D01*
X036145Y009713D01*
X036115Y009656D01*
X036081Y009600D01*
X036044Y009547D01*
X036003Y009496D01*
X035960Y009447D01*
X035914Y009401D01*
X035865Y009358D01*
X035813Y009319D01*
X035759Y009282D01*
X035703Y009249D01*
X035645Y009219D01*
X035641Y009227D01*
X035699Y009257D01*
X035754Y009290D01*
X035808Y009326D01*
X035859Y009365D01*
X035907Y009408D01*
X035953Y009453D01*
X035996Y009501D01*
X036037Y009552D01*
X036073Y009605D01*
X036107Y009660D01*
X036137Y009717D01*
X036164Y009776D01*
X036187Y009836D01*
X036206Y009898D01*
X036222Y009961D01*
X036234Y010024D01*
X036242Y010088D01*
X036246Y010153D01*
X036246Y010217D01*
X036242Y010282D01*
X036234Y010346D01*
X036222Y010409D01*
X036206Y010472D01*
X036187Y010534D01*
X036164Y010594D01*
X036137Y010653D01*
X036107Y010710D01*
X036073Y010765D01*
X036037Y010818D01*
X035996Y010869D01*
X035953Y010917D01*
X035907Y010962D01*
X035859Y011005D01*
X035808Y011044D01*
X035754Y011080D01*
X035699Y011113D01*
X035641Y011143D01*
X035638Y011135D01*
X035695Y011105D01*
X035750Y011073D01*
X035803Y011037D01*
X035853Y010998D01*
X035901Y010955D01*
X035947Y010910D01*
X035990Y010863D01*
X036029Y010813D01*
X036066Y010760D01*
X036099Y010705D01*
X036129Y010649D01*
X036156Y010590D01*
X036179Y010531D01*
X036198Y010470D01*
X036213Y010407D01*
X036225Y010344D01*
X036233Y010281D01*
X036237Y010217D01*
X036237Y010153D01*
X036233Y010089D01*
X036225Y010026D01*
X036213Y009963D01*
X036198Y009900D01*
X036179Y009839D01*
X036156Y009780D01*
X036129Y009721D01*
X036099Y009665D01*
X036066Y009610D01*
X036029Y009557D01*
X035990Y009507D01*
X035947Y009460D01*
X035901Y009415D01*
X035853Y009372D01*
X035803Y009333D01*
X035750Y009297D01*
X035695Y009265D01*
X035638Y009235D01*
X035634Y009243D01*
X035690Y009273D01*
X035745Y009305D01*
X035797Y009341D01*
X035847Y009379D01*
X035895Y009421D01*
X035940Y009466D01*
X035983Y009513D01*
X036022Y009563D01*
X036058Y009615D01*
X036091Y009669D01*
X036121Y009725D01*
X036147Y009783D01*
X036170Y009842D01*
X036189Y009903D01*
X036204Y009964D01*
X036216Y010027D01*
X036224Y010090D01*
X036228Y010153D01*
X036228Y010217D01*
X036224Y010280D01*
X036216Y010343D01*
X036204Y010406D01*
X036189Y010467D01*
X036170Y010528D01*
X036147Y010587D01*
X036121Y010645D01*
X036091Y010701D01*
X036058Y010755D01*
X036022Y010807D01*
X035983Y010857D01*
X035940Y010904D01*
X035895Y010949D01*
X035847Y010991D01*
X035797Y011029D01*
X035745Y011065D01*
X035690Y011097D01*
X035634Y011127D01*
X035630Y011118D01*
X035686Y011090D01*
X035740Y011057D01*
X035792Y011022D01*
X035842Y010984D01*
X035889Y010942D01*
X035934Y010898D01*
X035976Y010851D01*
X036015Y010802D01*
X036051Y010750D01*
X036084Y010696D01*
X036113Y010641D01*
X036139Y010583D01*
X036162Y010525D01*
X036180Y010465D01*
X036196Y010404D01*
X036207Y010342D01*
X036215Y010279D01*
X036219Y010216D01*
X036219Y010154D01*
X036215Y010091D01*
X036207Y010028D01*
X036196Y009966D01*
X036180Y009905D01*
X036162Y009845D01*
X036139Y009787D01*
X036113Y009729D01*
X036084Y009674D01*
X036051Y009620D01*
X036015Y009568D01*
X035976Y009519D01*
X035934Y009472D01*
X035889Y009428D01*
X035842Y009386D01*
X035792Y009348D01*
X035740Y009313D01*
X035686Y009280D01*
X035630Y009252D01*
M02*
