G75*
G70*
%OFA0B0*%
%FSLAX24Y24*%
%IPPOS*%
%LPD*%
%AMOC8*
5,1,8,0,0,1.08239X$1,22.5*
%
%ADD10OC8,0.0630*%
%ADD11OC8,0.0480*%
%ADD12C,0.1185*%
%ADD13C,0.0480*%
%ADD14OC8,0.1500*%
%ADD15C,0.0120*%
%ADD16C,0.0240*%
%ADD17C,0.0160*%
D10*
X026185Y013161D03*
X027185Y013161D03*
X028185Y013161D03*
X029185Y013161D03*
X029185Y016161D03*
X028185Y016161D03*
X027185Y016161D03*
X026185Y016161D03*
D11*
X024685Y016661D03*
X023185Y016161D03*
X023185Y015161D03*
X023185Y014161D03*
X023185Y013161D03*
X024685Y012661D03*
X025185Y011161D03*
X026685Y011161D03*
X028185Y011161D03*
X029685Y011161D03*
X030685Y012661D03*
X032185Y012661D03*
X032185Y013661D03*
X033685Y011161D03*
X038685Y011161D03*
X040185Y011161D03*
X041685Y011161D03*
X033685Y008161D03*
X029685Y008161D03*
X028185Y007161D03*
X026685Y007161D03*
X025185Y007161D03*
X027185Y005661D03*
X027185Y004661D03*
X029685Y004661D03*
X030685Y004661D03*
X038685Y007161D03*
X040185Y007161D03*
X041685Y007161D03*
X040685Y005661D03*
X040685Y004661D03*
X021685Y012661D03*
X020185Y013661D03*
X020185Y015161D03*
X021685Y016661D03*
X026185Y017661D03*
X027185Y017661D03*
X030685Y016661D03*
X020185Y011161D03*
X016185Y011161D03*
X014685Y009661D03*
X016185Y008161D03*
X020185Y008161D03*
X014685Y005661D03*
X014685Y004661D03*
X016185Y004661D03*
X017185Y004661D03*
X007185Y008161D03*
X003185Y008161D03*
X003185Y011161D03*
X007185Y011161D03*
X007185Y013161D03*
X007185Y014161D03*
X014685Y013661D03*
X016185Y013661D03*
X016185Y015161D03*
X005685Y005161D03*
X004685Y005161D03*
D12*
X009105Y004568D02*
X009105Y005753D01*
X010685Y005753D02*
X010685Y004568D01*
X012265Y004568D02*
X012265Y005753D01*
X012265Y009068D02*
X012265Y010253D01*
X010685Y010253D02*
X010685Y009068D01*
X009105Y009068D02*
X009105Y010253D01*
X009105Y013568D02*
X009105Y014753D01*
X010685Y014753D02*
X010685Y013568D01*
X012265Y013568D02*
X012265Y014753D01*
X021605Y005753D02*
X021605Y004568D01*
X023185Y004568D02*
X023185Y005753D01*
X024765Y005753D02*
X024765Y004568D01*
X035105Y004568D02*
X035105Y005753D01*
X036685Y005753D02*
X036685Y004568D01*
X038265Y004568D02*
X038265Y005753D01*
D13*
X033925Y006661D02*
X033445Y006661D01*
X029925Y006661D02*
X029445Y006661D01*
X034945Y008661D02*
X035425Y008661D01*
X035425Y009661D02*
X034945Y009661D01*
X033925Y009661D02*
X033445Y009661D01*
X034945Y010661D02*
X035425Y010661D01*
X029925Y009661D02*
X029445Y009661D01*
X021925Y009661D02*
X021445Y009661D01*
X020425Y009661D02*
X019945Y009661D01*
X021445Y010661D02*
X021925Y010661D01*
X021925Y008661D02*
X021445Y008661D01*
X020425Y006661D02*
X019945Y006661D01*
X016425Y006661D02*
X015945Y006661D01*
X015945Y009661D02*
X016425Y009661D01*
X007425Y009661D02*
X006945Y009661D01*
X003425Y009661D02*
X002945Y009661D01*
X002945Y006661D02*
X003425Y006661D01*
X006945Y006661D02*
X007425Y006661D01*
X005185Y012921D02*
X005185Y013401D01*
X004185Y013401D02*
X004185Y012921D01*
X003185Y012921D02*
X003185Y013401D01*
D14*
X013685Y017661D03*
X017185Y017661D03*
X020185Y017661D03*
X023185Y017661D03*
X032685Y017661D03*
X035185Y017661D03*
X037685Y017661D03*
X040185Y017661D03*
D15*
X001945Y018901D02*
X001945Y000921D01*
X043425Y000921D01*
X043425Y018901D01*
X001945Y018901D01*
X001945Y018783D02*
X043425Y018783D01*
X043425Y018664D02*
X001945Y018664D01*
X001945Y018546D02*
X002722Y018546D01*
X002682Y018531D02*
X002682Y018531D01*
X002415Y018307D01*
X002415Y018307D01*
X002240Y018005D01*
X002180Y017661D01*
X002240Y017317D01*
X002415Y017015D01*
X002415Y017015D01*
X002682Y016790D01*
X002682Y016790D01*
X003010Y016671D01*
X003133Y016671D01*
X003133Y016671D01*
X003185Y016671D01*
X003202Y016671D01*
X003237Y016671D01*
X003359Y016671D01*
X003359Y016671D01*
X003687Y016790D01*
X003687Y016790D01*
X003955Y017015D01*
X004129Y017317D01*
X004190Y017661D01*
X004129Y018005D01*
X003955Y018307D01*
X003687Y018531D01*
X003359Y018651D01*
X003237Y018651D01*
X003185Y018651D01*
X003185Y018651D01*
X003133Y018651D01*
X003133Y018651D01*
X003010Y018651D01*
X002682Y018531D01*
X002558Y018427D02*
X001945Y018427D01*
X001945Y018309D02*
X002417Y018309D01*
X002415Y018307D02*
X002415Y018307D01*
X002347Y018190D02*
X001945Y018190D01*
X001945Y018071D02*
X002279Y018071D01*
X002240Y018005D02*
X002240Y018005D01*
X002231Y017953D02*
X001945Y017953D01*
X001945Y017834D02*
X002210Y017834D01*
X002189Y017716D02*
X001945Y017716D01*
X001945Y017597D02*
X002191Y017597D01*
X002180Y017661D02*
X002180Y017661D01*
X002212Y017479D02*
X001945Y017479D01*
X001945Y017360D02*
X002233Y017360D01*
X002284Y017242D02*
X001945Y017242D01*
X001945Y017123D02*
X002352Y017123D01*
X002427Y017005D02*
X001945Y017005D01*
X001945Y016886D02*
X002568Y016886D01*
X002745Y016767D02*
X001945Y016767D01*
X001945Y016649D02*
X013345Y016649D01*
X013345Y016691D02*
X013345Y012802D01*
X013044Y012501D01*
X011253Y012501D01*
X011117Y012501D01*
X010992Y012449D01*
X010397Y011853D01*
X010345Y011728D01*
X010345Y011593D01*
X010345Y010992D01*
X010225Y010942D01*
X009996Y010714D01*
X009895Y010469D01*
X009794Y010714D01*
X009565Y010942D01*
X009266Y011066D01*
X008943Y011066D01*
X008645Y010942D01*
X008416Y010714D01*
X008292Y010415D01*
X008292Y008907D01*
X008416Y008608D01*
X008645Y008379D01*
X008943Y008256D01*
X009266Y008256D01*
X009565Y008379D01*
X009794Y008608D01*
X009895Y008852D01*
X009996Y008608D01*
X010225Y008379D01*
X010523Y008256D01*
X010846Y008256D01*
X011145Y008379D01*
X011374Y008608D01*
X011475Y008852D01*
X011576Y008608D01*
X011805Y008379D01*
X012103Y008256D01*
X012426Y008256D01*
X012725Y008379D01*
X012954Y008608D01*
X013077Y008907D01*
X013077Y010415D01*
X012954Y010714D01*
X012725Y010942D01*
X012426Y011066D01*
X012103Y011066D01*
X011805Y010942D01*
X011576Y010714D01*
X011475Y010469D01*
X011374Y010714D01*
X011145Y010942D01*
X011025Y010992D01*
X011025Y011520D01*
X011326Y011821D01*
X013117Y011821D01*
X013253Y011821D01*
X013377Y011873D01*
X013877Y012373D01*
X013877Y012373D01*
X013973Y012468D01*
X014025Y012593D01*
X014025Y016691D01*
X014087Y016691D01*
X014655Y017259D01*
X014655Y018063D01*
X014087Y018631D01*
X013283Y018631D01*
X012715Y018063D01*
X012715Y017259D01*
X013283Y016691D01*
X013345Y016691D01*
X013206Y016767D02*
X003625Y016767D01*
X003802Y016886D02*
X013088Y016886D01*
X012969Y017005D02*
X003943Y017005D01*
X003955Y017015D02*
X003955Y017015D01*
X003955Y017015D01*
X004017Y017123D02*
X012851Y017123D01*
X012732Y017242D02*
X004086Y017242D01*
X004129Y017317D02*
X004129Y017317D01*
X004137Y017360D02*
X012715Y017360D01*
X012715Y017479D02*
X004158Y017479D01*
X004179Y017597D02*
X012715Y017597D01*
X012715Y017716D02*
X004180Y017716D01*
X004190Y017661D02*
X004190Y017661D01*
X004159Y017834D02*
X012715Y017834D01*
X012715Y017953D02*
X004139Y017953D01*
X004129Y018005D02*
X004129Y018005D01*
X004091Y018071D02*
X012724Y018071D01*
X012842Y018190D02*
X004022Y018190D01*
X003955Y018307D02*
X003955Y018307D01*
X003953Y018309D02*
X012961Y018309D01*
X013079Y018427D02*
X003812Y018427D01*
X003687Y018531D02*
X003687Y018531D01*
X003648Y018546D02*
X013198Y018546D01*
X014172Y018546D02*
X016698Y018546D01*
X016783Y018631D02*
X016215Y018063D01*
X016215Y017259D01*
X016783Y016691D01*
X016845Y016691D01*
X016845Y016093D01*
X016897Y015968D01*
X016992Y015873D01*
X017345Y015520D01*
X017345Y011302D01*
X016164Y010121D01*
X015853Y010121D01*
X015684Y010051D01*
X015555Y009921D01*
X015485Y009752D01*
X015485Y009569D01*
X015555Y009400D01*
X015684Y009271D01*
X015853Y009201D01*
X016516Y009201D01*
X016685Y009271D01*
X016815Y009400D01*
X016885Y009569D01*
X016885Y009752D01*
X016847Y009843D01*
X017877Y010873D01*
X017973Y010968D01*
X018025Y011093D01*
X018025Y015593D01*
X018025Y015728D01*
X017973Y015853D01*
X017525Y016302D01*
X017525Y016691D01*
X017587Y016691D01*
X018155Y017259D01*
X018155Y018063D01*
X017587Y018631D01*
X016783Y018631D01*
X016579Y018427D02*
X014290Y018427D01*
X014409Y018309D02*
X016461Y018309D01*
X016342Y018190D02*
X014527Y018190D01*
X014646Y018071D02*
X016224Y018071D01*
X016215Y017953D02*
X014655Y017953D01*
X014655Y017834D02*
X016215Y017834D01*
X016215Y017716D02*
X014655Y017716D01*
X014655Y017597D02*
X016215Y017597D01*
X016215Y017479D02*
X014655Y017479D01*
X014655Y017360D02*
X016215Y017360D01*
X016232Y017242D02*
X014637Y017242D01*
X014519Y017123D02*
X016351Y017123D01*
X016469Y017005D02*
X014400Y017005D01*
X014282Y016886D02*
X016588Y016886D01*
X016706Y016767D02*
X014163Y016767D01*
X014025Y016649D02*
X016845Y016649D01*
X016845Y016530D02*
X014025Y016530D01*
X014025Y016412D02*
X016845Y016412D01*
X016845Y016293D02*
X014025Y016293D01*
X014025Y016175D02*
X016845Y016175D01*
X016860Y016056D02*
X014025Y016056D01*
X014025Y015938D02*
X016927Y015938D01*
X017046Y015819D02*
X014025Y015819D01*
X014025Y015701D02*
X017164Y015701D01*
X017283Y015582D02*
X014025Y015582D01*
X014025Y015463D02*
X015950Y015463D01*
X016027Y015541D02*
X015805Y015318D01*
X015805Y015181D01*
X016165Y015181D01*
X016165Y015541D01*
X016027Y015541D01*
X016165Y015463D02*
X016205Y015463D01*
X016205Y015541D02*
X016342Y015541D01*
X016565Y015318D01*
X016565Y015181D01*
X016205Y015181D01*
X016165Y015181D01*
X016165Y015141D01*
X015805Y015141D01*
X015805Y015003D01*
X016027Y014781D01*
X016165Y014781D01*
X016165Y015141D01*
X016205Y015141D01*
X016205Y015181D01*
X016205Y015541D01*
X016205Y015345D02*
X016165Y015345D01*
X016165Y015226D02*
X016205Y015226D01*
X016205Y015141D02*
X016565Y015141D01*
X016565Y015003D01*
X016342Y014781D01*
X016205Y014781D01*
X016205Y015141D01*
X016205Y015108D02*
X016165Y015108D01*
X016165Y014989D02*
X016205Y014989D01*
X016205Y014871D02*
X016165Y014871D01*
X015938Y014871D02*
X014025Y014871D01*
X014025Y014989D02*
X015819Y014989D01*
X015805Y015108D02*
X014025Y015108D01*
X014025Y015226D02*
X015805Y015226D01*
X015832Y015345D02*
X014025Y015345D01*
X013345Y015345D02*
X012822Y015345D01*
X012725Y015442D02*
X012954Y015214D01*
X013077Y014915D01*
X013077Y013407D01*
X012954Y013108D01*
X012725Y012879D01*
X012426Y012756D01*
X012103Y012756D01*
X011805Y012879D01*
X011576Y013108D01*
X011475Y013352D01*
X011374Y013108D01*
X011145Y012879D01*
X010846Y012756D01*
X010523Y012756D01*
X010225Y012879D01*
X009996Y013108D01*
X009895Y013352D01*
X009794Y013108D01*
X009565Y012879D01*
X009266Y012756D01*
X008943Y012756D01*
X008645Y012879D01*
X008416Y013108D01*
X008292Y013407D01*
X008292Y014915D01*
X008416Y015214D01*
X008645Y015442D01*
X008943Y015566D01*
X009266Y015566D01*
X009565Y015442D01*
X009794Y015214D01*
X009895Y014969D01*
X009996Y015214D01*
X010225Y015442D01*
X010523Y015566D01*
X010846Y015566D01*
X011145Y015442D01*
X011374Y015214D01*
X011475Y014969D01*
X011576Y015214D01*
X011805Y015442D01*
X012103Y015566D01*
X012426Y015566D01*
X012725Y015442D01*
X012674Y015463D02*
X013345Y015463D01*
X013345Y015582D02*
X001945Y015582D01*
X001945Y015463D02*
X008696Y015463D01*
X008547Y015345D02*
X001945Y015345D01*
X001945Y015226D02*
X008429Y015226D01*
X008372Y015108D02*
X001945Y015108D01*
X001945Y014989D02*
X008323Y014989D01*
X008292Y014871D02*
X001945Y014871D01*
X001945Y014752D02*
X008292Y014752D01*
X008292Y014634D02*
X001945Y014634D01*
X001945Y014515D02*
X006889Y014515D01*
X006994Y014621D02*
X006725Y014351D01*
X006725Y013970D01*
X006994Y013701D01*
X007375Y013701D01*
X007645Y013970D01*
X007645Y014351D01*
X007375Y014621D01*
X006994Y014621D01*
X006770Y014397D02*
X001945Y014397D01*
X001945Y014278D02*
X006725Y014278D01*
X006725Y014159D02*
X001945Y014159D01*
X001945Y014041D02*
X006725Y014041D01*
X006773Y013922D02*
X001945Y013922D01*
X001945Y013804D02*
X002956Y013804D01*
X002924Y013791D02*
X002795Y013661D01*
X002725Y013492D01*
X002725Y012829D01*
X002795Y012660D01*
X002924Y012531D01*
X003093Y012461D01*
X003276Y012461D01*
X003445Y012531D01*
X003575Y012660D01*
X003645Y012829D01*
X003645Y013492D01*
X003575Y013661D01*
X003445Y013791D01*
X003276Y013861D01*
X003093Y013861D01*
X002924Y013791D01*
X002819Y013685D02*
X001945Y013685D01*
X001945Y013567D02*
X002756Y013567D01*
X002725Y013448D02*
X001945Y013448D01*
X001945Y013330D02*
X002725Y013330D01*
X002725Y013211D02*
X001945Y013211D01*
X001945Y013093D02*
X002725Y013093D01*
X002725Y012974D02*
X001945Y012974D01*
X001945Y012856D02*
X002725Y012856D01*
X002763Y012737D02*
X001945Y012737D01*
X001945Y012618D02*
X002837Y012618D01*
X002999Y012500D02*
X001945Y012500D01*
X001945Y012381D02*
X010925Y012381D01*
X010806Y012263D02*
X001945Y012263D01*
X001945Y012144D02*
X010688Y012144D01*
X010569Y012026D02*
X001945Y012026D01*
X001945Y011907D02*
X010450Y011907D01*
X010370Y011789D02*
X001945Y011789D01*
X001945Y011670D02*
X010345Y011670D01*
X010345Y011552D02*
X003445Y011552D01*
X003375Y011621D02*
X002994Y011621D01*
X002725Y011351D01*
X002725Y010970D01*
X002994Y010701D01*
X003375Y010701D01*
X003645Y010970D01*
X003645Y011351D01*
X003375Y011621D01*
X003563Y011433D02*
X006920Y011433D01*
X007027Y011541D02*
X006805Y011318D01*
X006805Y011181D01*
X007165Y011181D01*
X007165Y011541D01*
X007027Y011541D01*
X007165Y011433D02*
X007205Y011433D01*
X007205Y011541D02*
X007205Y011181D01*
X007165Y011181D01*
X007165Y011141D01*
X006805Y011141D01*
X006805Y011003D01*
X007027Y010781D01*
X007165Y010781D01*
X007165Y011141D01*
X007205Y011141D01*
X007205Y011181D01*
X007565Y011181D01*
X007565Y011318D01*
X007342Y011541D01*
X007205Y011541D01*
X007205Y011314D02*
X007165Y011314D01*
X007165Y011196D02*
X007205Y011196D01*
X007205Y011141D02*
X007565Y011141D01*
X007565Y011003D01*
X007342Y010781D01*
X007205Y010781D01*
X007205Y011141D01*
X007205Y011077D02*
X007165Y011077D01*
X007165Y010959D02*
X007205Y010959D01*
X007205Y010840D02*
X007165Y010840D01*
X006968Y010840D02*
X003515Y010840D01*
X003396Y010722D02*
X008424Y010722D01*
X008370Y010603D02*
X001945Y010603D01*
X001945Y010485D02*
X008321Y010485D01*
X008292Y010366D02*
X001945Y010366D01*
X001945Y010248D02*
X008292Y010248D01*
X008292Y010129D02*
X001945Y010129D01*
X001945Y010010D02*
X002644Y010010D01*
X002684Y010051D02*
X002555Y009921D01*
X002485Y009752D01*
X002485Y009569D01*
X002555Y009400D01*
X002684Y009271D01*
X002853Y009201D01*
X003516Y009201D01*
X003685Y009271D01*
X003815Y009400D01*
X003885Y009569D01*
X003885Y009752D01*
X003815Y009921D01*
X003685Y010051D01*
X003516Y010121D01*
X002853Y010121D01*
X002684Y010051D01*
X002543Y009892D02*
X001945Y009892D01*
X001945Y009773D02*
X002494Y009773D01*
X002485Y009655D02*
X001945Y009655D01*
X001945Y009536D02*
X002499Y009536D01*
X002548Y009418D02*
X001945Y009418D01*
X001945Y009299D02*
X002656Y009299D01*
X001945Y009181D02*
X008292Y009181D01*
X008292Y009299D02*
X007545Y009299D01*
X007536Y009295D02*
X007605Y009324D01*
X007667Y009366D01*
X007720Y009419D01*
X007762Y009481D01*
X007790Y009550D01*
X007805Y009623D01*
X007805Y009641D01*
X007205Y009641D01*
X007205Y009681D01*
X007165Y009681D01*
X007165Y010041D01*
X006907Y010041D01*
X006834Y010026D01*
X006765Y009998D01*
X006703Y009956D01*
X006650Y009903D01*
X006608Y009841D01*
X006579Y009772D01*
X006565Y009698D01*
X006565Y009681D01*
X007165Y009681D01*
X007165Y009641D01*
X006565Y009641D01*
X006565Y009623D01*
X006579Y009550D01*
X006608Y009481D01*
X006650Y009419D01*
X006703Y009366D01*
X006765Y009324D01*
X006834Y009295D01*
X006907Y009281D01*
X007165Y009281D01*
X007165Y009641D01*
X007205Y009641D01*
X007205Y009281D01*
X007462Y009281D01*
X007536Y009295D01*
X007719Y009418D02*
X008292Y009418D01*
X008292Y009536D02*
X007785Y009536D01*
X007805Y009681D02*
X007805Y009698D01*
X007790Y009772D01*
X007762Y009841D01*
X007720Y009903D01*
X007667Y009956D01*
X007605Y009998D01*
X007536Y010026D01*
X007462Y010041D01*
X007205Y010041D01*
X007205Y009681D01*
X007805Y009681D01*
X007790Y009773D02*
X008292Y009773D01*
X008292Y009655D02*
X007205Y009655D01*
X007165Y009655D02*
X003885Y009655D01*
X003876Y009773D02*
X006580Y009773D01*
X006642Y009892D02*
X003827Y009892D01*
X003726Y010010D02*
X006796Y010010D01*
X007165Y010010D02*
X007205Y010010D01*
X007205Y009892D02*
X007165Y009892D01*
X007165Y009773D02*
X007205Y009773D01*
X007205Y009536D02*
X007165Y009536D01*
X007165Y009418D02*
X007205Y009418D01*
X007205Y009299D02*
X007165Y009299D01*
X006825Y009299D02*
X003714Y009299D01*
X003822Y009418D02*
X006651Y009418D01*
X006585Y009536D02*
X003871Y009536D01*
X003375Y008621D02*
X002994Y008621D01*
X002725Y008351D01*
X001945Y008351D01*
X001945Y008469D02*
X002843Y008469D01*
X002725Y008351D02*
X002725Y007970D01*
X002994Y007701D01*
X003375Y007701D01*
X003645Y007970D01*
X003645Y008351D01*
X006725Y008351D01*
X006725Y007970D01*
X006994Y007701D01*
X007375Y007701D01*
X007645Y007970D01*
X007645Y008351D01*
X008714Y008351D01*
X008555Y008469D02*
X007527Y008469D01*
X007645Y008351D02*
X007375Y008621D01*
X006994Y008621D01*
X006725Y008351D01*
X006725Y008232D02*
X003645Y008232D01*
X003645Y008114D02*
X006725Y008114D01*
X006725Y007995D02*
X003645Y007995D01*
X003551Y007877D02*
X006818Y007877D01*
X006937Y007758D02*
X003433Y007758D01*
X002937Y007758D02*
X001945Y007758D01*
X001945Y007640D02*
X019183Y007640D01*
X019147Y007603D02*
X017544Y006001D01*
X015826Y006001D01*
X014973Y006853D01*
X014877Y006949D01*
X014753Y007001D01*
X010253Y007001D01*
X010117Y007001D01*
X009992Y006949D01*
X009509Y006465D01*
X009266Y006566D01*
X008943Y006566D01*
X008645Y006442D01*
X008416Y006214D01*
X008292Y005915D01*
X008292Y004407D01*
X008416Y004108D01*
X008645Y003879D01*
X008943Y003756D01*
X009266Y003756D01*
X009565Y003879D01*
X009794Y004108D01*
X009895Y004352D01*
X009996Y004108D01*
X010225Y003879D01*
X010523Y003756D01*
X010846Y003756D01*
X011145Y003879D01*
X011374Y004108D01*
X011475Y004352D01*
X011576Y004108D01*
X011805Y003879D01*
X012103Y003756D01*
X012426Y003756D01*
X012725Y003879D01*
X012954Y004108D01*
X013077Y004407D01*
X013077Y005915D01*
X012954Y006214D01*
X012846Y006321D01*
X014544Y006321D01*
X014744Y006121D01*
X014494Y006121D01*
X014225Y005851D01*
X014225Y005470D01*
X014494Y005201D01*
X014875Y005201D01*
X015145Y005470D01*
X015145Y005720D01*
X015492Y005373D01*
X015617Y005321D01*
X015753Y005321D01*
X017617Y005321D01*
X017753Y005321D01*
X017877Y005373D01*
X019576Y007071D01*
X019733Y007071D01*
X019684Y007051D01*
X019555Y006921D01*
X019485Y006752D01*
X019485Y006569D01*
X019555Y006400D01*
X019684Y006271D01*
X019853Y006201D01*
X020516Y006201D01*
X020685Y006271D01*
X020815Y006400D01*
X020885Y006569D01*
X020885Y006752D01*
X020815Y006921D01*
X020685Y007051D01*
X020637Y007071D01*
X023294Y007071D01*
X024114Y006251D01*
X024076Y006214D01*
X023975Y005969D01*
X023874Y006214D01*
X023645Y006442D01*
X023346Y006566D01*
X023023Y006566D01*
X022725Y006442D01*
X022496Y006214D01*
X022395Y005969D01*
X022294Y006214D01*
X022065Y006442D01*
X021766Y006566D01*
X021443Y006566D01*
X021145Y006442D01*
X020916Y006214D01*
X020792Y005915D01*
X020792Y004407D01*
X020916Y004108D01*
X021145Y003879D01*
X021443Y003756D01*
X021766Y003756D01*
X022065Y003879D01*
X022294Y004108D01*
X022395Y004352D01*
X022496Y004108D01*
X022725Y003879D01*
X023023Y003756D01*
X023346Y003756D01*
X023645Y003879D01*
X023874Y004108D01*
X023975Y004352D01*
X024076Y004108D01*
X024305Y003879D01*
X024603Y003756D01*
X024926Y003756D01*
X025225Y003879D01*
X025355Y004010D01*
X025897Y003468D01*
X025992Y003373D01*
X026117Y003321D01*
X037617Y003321D01*
X037753Y003321D01*
X037877Y003373D01*
X038261Y003756D01*
X038426Y003756D01*
X038725Y003879D01*
X038954Y004108D01*
X039077Y004407D01*
X039077Y005915D01*
X038954Y006214D01*
X038725Y006442D01*
X038426Y006566D01*
X038261Y006566D01*
X038025Y006802D01*
X038025Y010093D01*
X038025Y010228D01*
X037973Y010353D01*
X033025Y015302D01*
X033025Y016691D01*
X033087Y016691D01*
X033655Y017259D01*
X033655Y018063D01*
X033087Y018631D01*
X032283Y018631D01*
X031715Y018063D01*
X031715Y017259D01*
X032283Y016691D01*
X032345Y016691D01*
X032345Y015228D01*
X032345Y015093D01*
X032397Y014968D01*
X037345Y010020D01*
X037345Y006593D01*
X037397Y006468D01*
X037492Y006373D01*
X037614Y006251D01*
X037576Y006214D01*
X037475Y005969D01*
X037374Y006214D01*
X037145Y006442D01*
X036846Y006566D01*
X036523Y006566D01*
X036225Y006442D01*
X035996Y006214D01*
X035895Y005969D01*
X035794Y006214D01*
X035565Y006442D01*
X035266Y006566D01*
X034943Y006566D01*
X034645Y006442D01*
X034416Y006214D01*
X034292Y005915D01*
X034292Y004407D01*
X034416Y004108D01*
X034523Y004001D01*
X026326Y004001D01*
X025577Y004749D01*
X025577Y005915D01*
X025454Y006214D01*
X025225Y006442D01*
X024926Y006566D01*
X024761Y006566D01*
X023627Y007699D01*
X023503Y007751D01*
X023367Y007751D01*
X020425Y007751D01*
X020645Y007970D01*
X020645Y008351D01*
X021104Y008351D01*
X021055Y008400D02*
X021184Y008271D01*
X021353Y008201D01*
X022016Y008201D01*
X022185Y008271D01*
X022315Y008400D01*
X022385Y008569D01*
X022385Y008752D01*
X022315Y008921D01*
X022185Y009051D01*
X022016Y009121D01*
X021353Y009121D01*
X021184Y009051D01*
X021055Y008921D01*
X020985Y008752D01*
X020985Y008569D01*
X021055Y008400D01*
X021026Y008469D02*
X020527Y008469D01*
X020645Y008351D02*
X020375Y008621D01*
X019994Y008621D01*
X019725Y008351D01*
X016645Y008351D01*
X016375Y008621D01*
X015994Y008621D01*
X015725Y008351D01*
X012656Y008351D01*
X012815Y008469D02*
X015843Y008469D01*
X015725Y008351D02*
X015725Y007970D01*
X015994Y007701D01*
X016375Y007701D01*
X016645Y007970D01*
X016645Y008351D01*
X016645Y008232D02*
X019725Y008232D01*
X019725Y008114D02*
X016645Y008114D01*
X016645Y007995D02*
X019725Y007995D01*
X019725Y007970D02*
X019944Y007751D01*
X019367Y007751D01*
X019242Y007699D01*
X019147Y007603D01*
X019064Y007521D02*
X001945Y007521D01*
X001945Y007403D02*
X018946Y007403D01*
X018827Y007284D02*
X001945Y007284D01*
X001945Y007165D02*
X018709Y007165D01*
X018590Y007047D02*
X016689Y007047D01*
X016685Y007051D02*
X016516Y007121D01*
X015853Y007121D01*
X015684Y007051D01*
X015555Y006921D01*
X015485Y006752D01*
X015485Y006569D01*
X015555Y006400D01*
X015684Y006271D01*
X015853Y006201D01*
X016516Y006201D01*
X016685Y006271D01*
X016815Y006400D01*
X016885Y006569D01*
X016885Y006752D01*
X016815Y006921D01*
X016685Y007051D01*
X016808Y006928D02*
X018472Y006928D01*
X018353Y006810D02*
X016861Y006810D01*
X016885Y006691D02*
X018235Y006691D01*
X018116Y006573D02*
X016885Y006573D01*
X016837Y006454D02*
X017997Y006454D01*
X017879Y006336D02*
X016750Y006336D01*
X016556Y006217D02*
X017760Y006217D01*
X017642Y006099D02*
X015728Y006099D01*
X015814Y006217D02*
X015609Y006217D01*
X015619Y006336D02*
X015491Y006336D01*
X015533Y006454D02*
X015372Y006454D01*
X015485Y006573D02*
X015254Y006573D01*
X015135Y006691D02*
X015485Y006691D01*
X015509Y006810D02*
X015017Y006810D01*
X014898Y006928D02*
X015562Y006928D01*
X015680Y007047D02*
X007689Y007047D01*
X007685Y007051D02*
X007516Y007121D01*
X006853Y007121D01*
X006684Y007051D01*
X006555Y006921D01*
X006485Y006752D01*
X006485Y006569D01*
X006555Y006400D01*
X006684Y006271D01*
X006853Y006201D01*
X007516Y006201D01*
X007685Y006271D01*
X007815Y006400D01*
X007885Y006569D01*
X007885Y006752D01*
X007815Y006921D01*
X007685Y007051D01*
X007808Y006928D02*
X009972Y006928D01*
X009853Y006810D02*
X007861Y006810D01*
X007885Y006691D02*
X009735Y006691D01*
X009616Y006573D02*
X007885Y006573D01*
X007837Y006454D02*
X008674Y006454D01*
X008538Y006336D02*
X007750Y006336D01*
X007556Y006217D02*
X008420Y006217D01*
X008368Y006099D02*
X001945Y006099D01*
X001945Y006217D02*
X002814Y006217D01*
X002853Y006201D02*
X003516Y006201D01*
X003685Y006271D01*
X003815Y006400D01*
X003885Y006569D01*
X003885Y006752D01*
X003815Y006921D01*
X003685Y007051D01*
X003516Y007121D01*
X002853Y007121D01*
X002684Y007051D01*
X002555Y006921D01*
X002485Y006752D01*
X002485Y006569D01*
X002555Y006400D01*
X002684Y006271D01*
X002853Y006201D01*
X002619Y006336D02*
X001945Y006336D01*
X001945Y006454D02*
X002533Y006454D01*
X002485Y006573D02*
X001945Y006573D01*
X001945Y006691D02*
X002485Y006691D01*
X002509Y006810D02*
X001945Y006810D01*
X001945Y006928D02*
X002562Y006928D01*
X002680Y007047D02*
X001945Y007047D01*
X001945Y007877D02*
X002818Y007877D01*
X002725Y007995D02*
X001945Y007995D01*
X001945Y008114D02*
X002725Y008114D01*
X002725Y008232D02*
X001945Y008232D01*
X001945Y008588D02*
X002962Y008588D01*
X003375Y008621D02*
X003645Y008351D01*
X003527Y008469D02*
X006843Y008469D01*
X006962Y008588D02*
X003408Y008588D01*
X001945Y008706D02*
X008375Y008706D01*
X008326Y008825D02*
X001945Y008825D01*
X001945Y008944D02*
X008292Y008944D01*
X008292Y009062D02*
X001945Y009062D01*
X001945Y010722D02*
X002973Y010722D01*
X002855Y010840D02*
X001945Y010840D01*
X001945Y010959D02*
X002736Y010959D01*
X002725Y011077D02*
X001945Y011077D01*
X001945Y011196D02*
X002725Y011196D01*
X002725Y011314D02*
X001945Y011314D01*
X001945Y011433D02*
X002807Y011433D01*
X002925Y011552D02*
X001945Y011552D01*
X003371Y012500D02*
X003999Y012500D01*
X003924Y012531D02*
X004093Y012461D01*
X004276Y012461D01*
X004445Y012531D01*
X004575Y012660D01*
X004645Y012829D01*
X004645Y013492D01*
X004575Y013661D01*
X004445Y013791D01*
X004276Y013861D01*
X004093Y013861D01*
X003924Y013791D01*
X003795Y013661D01*
X003725Y013492D01*
X003725Y012829D01*
X003795Y012660D01*
X003924Y012531D01*
X003837Y012618D02*
X003533Y012618D01*
X003607Y012737D02*
X003763Y012737D01*
X003725Y012856D02*
X003645Y012856D01*
X003645Y012974D02*
X003725Y012974D01*
X003725Y013093D02*
X003645Y013093D01*
X003645Y013211D02*
X003725Y013211D01*
X003725Y013330D02*
X003645Y013330D01*
X003645Y013448D02*
X003725Y013448D01*
X003756Y013567D02*
X003614Y013567D01*
X003551Y013685D02*
X003819Y013685D01*
X003956Y013804D02*
X003414Y013804D01*
X004414Y013804D02*
X004956Y013804D01*
X004924Y013791D02*
X004795Y013661D01*
X004725Y013492D01*
X004725Y012829D01*
X004795Y012660D01*
X004924Y012531D01*
X005093Y012461D01*
X005276Y012461D01*
X005445Y012531D01*
X005575Y012660D01*
X005645Y012829D01*
X005645Y013492D01*
X005575Y013661D01*
X005445Y013791D01*
X005276Y013861D01*
X005093Y013861D01*
X004924Y013791D01*
X004819Y013685D02*
X004551Y013685D01*
X004614Y013567D02*
X004756Y013567D01*
X004725Y013448D02*
X004645Y013448D01*
X004645Y013330D02*
X004725Y013330D01*
X004725Y013211D02*
X004645Y013211D01*
X004645Y013093D02*
X004725Y013093D01*
X004725Y012974D02*
X004645Y012974D01*
X004645Y012856D02*
X004725Y012856D01*
X004763Y012737D02*
X004607Y012737D01*
X004533Y012618D02*
X004837Y012618D01*
X004999Y012500D02*
X004371Y012500D01*
X005371Y012500D02*
X011115Y012500D01*
X011087Y012856D02*
X011862Y012856D01*
X011710Y012974D02*
X011240Y012974D01*
X011358Y013093D02*
X011591Y013093D01*
X011533Y013211D02*
X011416Y013211D01*
X011465Y013330D02*
X011484Y013330D01*
X012667Y012856D02*
X013345Y012856D01*
X013345Y012974D02*
X012820Y012974D01*
X012938Y013093D02*
X013345Y013093D01*
X013345Y013211D02*
X012996Y013211D01*
X013045Y013330D02*
X013345Y013330D01*
X013345Y013448D02*
X013077Y013448D01*
X013077Y013567D02*
X013345Y013567D01*
X013345Y013685D02*
X013077Y013685D01*
X013077Y013804D02*
X013345Y013804D01*
X013345Y013922D02*
X013077Y013922D01*
X013077Y014041D02*
X013345Y014041D01*
X013345Y014159D02*
X013077Y014159D01*
X013077Y014278D02*
X013345Y014278D01*
X013345Y014397D02*
X013077Y014397D01*
X013077Y014515D02*
X013345Y014515D01*
X013345Y014634D02*
X013077Y014634D01*
X013077Y014752D02*
X013345Y014752D01*
X013345Y014871D02*
X013077Y014871D01*
X013047Y014989D02*
X013345Y014989D01*
X013345Y015108D02*
X012997Y015108D01*
X012941Y015226D02*
X013345Y015226D01*
X013345Y015701D02*
X001945Y015701D01*
X001945Y015819D02*
X013345Y015819D01*
X013345Y015938D02*
X001945Y015938D01*
X001945Y016056D02*
X013345Y016056D01*
X013345Y016175D02*
X001945Y016175D01*
X001945Y016293D02*
X013345Y016293D01*
X013345Y016412D02*
X001945Y016412D01*
X001945Y016530D02*
X013345Y016530D01*
X011856Y015463D02*
X011094Y015463D01*
X011242Y015345D02*
X011707Y015345D01*
X011589Y015226D02*
X011361Y015226D01*
X011417Y015108D02*
X011532Y015108D01*
X011483Y014989D02*
X011467Y014989D01*
X010276Y015463D02*
X009514Y015463D01*
X009662Y015345D02*
X010127Y015345D01*
X010009Y015226D02*
X009781Y015226D01*
X009837Y015108D02*
X009952Y015108D01*
X009903Y014989D02*
X009887Y014989D01*
X008292Y014515D02*
X007481Y014515D01*
X007600Y014397D02*
X008292Y014397D01*
X008292Y014278D02*
X007645Y014278D01*
X007645Y014159D02*
X008292Y014159D01*
X008292Y014041D02*
X007645Y014041D01*
X007597Y013922D02*
X008292Y013922D01*
X008292Y013804D02*
X007478Y013804D01*
X007375Y013621D02*
X006994Y013621D01*
X006725Y013351D01*
X006725Y012970D01*
X006994Y012701D01*
X007375Y012701D01*
X007645Y012970D01*
X007645Y013351D01*
X007375Y013621D01*
X007429Y013567D02*
X008292Y013567D01*
X008292Y013685D02*
X005551Y013685D01*
X005614Y013567D02*
X006940Y013567D01*
X006822Y013448D02*
X005645Y013448D01*
X005645Y013330D02*
X006725Y013330D01*
X006725Y013211D02*
X005645Y013211D01*
X005645Y013093D02*
X006725Y013093D01*
X006725Y012974D02*
X005645Y012974D01*
X005645Y012856D02*
X006840Y012856D01*
X006958Y012737D02*
X005607Y012737D01*
X005533Y012618D02*
X013162Y012618D01*
X013280Y012737D02*
X007412Y012737D01*
X007530Y012856D02*
X008702Y012856D01*
X008550Y012974D02*
X007645Y012974D01*
X007645Y013093D02*
X008431Y013093D01*
X008373Y013211D02*
X007645Y013211D01*
X007645Y013330D02*
X008324Y013330D01*
X008292Y013448D02*
X007548Y013448D01*
X006891Y013804D02*
X005414Y013804D01*
X009507Y012856D02*
X010282Y012856D01*
X010130Y012974D02*
X009660Y012974D01*
X009778Y013093D02*
X010011Y013093D01*
X009953Y013211D02*
X009836Y013211D01*
X009885Y013330D02*
X009904Y013330D01*
X011294Y011789D02*
X017345Y011789D01*
X017345Y011907D02*
X013412Y011907D01*
X013531Y012026D02*
X017345Y012026D01*
X017345Y012144D02*
X013649Y012144D01*
X013768Y012263D02*
X017345Y012263D01*
X017345Y012381D02*
X013886Y012381D01*
X013986Y012500D02*
X017345Y012500D01*
X017345Y012618D02*
X014025Y012618D01*
X014025Y012737D02*
X017345Y012737D01*
X017345Y012856D02*
X014025Y012856D01*
X014025Y012974D02*
X017345Y012974D01*
X017345Y013093D02*
X014025Y013093D01*
X014025Y013211D02*
X014484Y013211D01*
X014494Y013201D02*
X014875Y013201D01*
X015145Y013470D01*
X015145Y013851D01*
X014875Y014121D01*
X014494Y014121D01*
X014225Y013851D01*
X014225Y013470D01*
X014494Y013201D01*
X014365Y013330D02*
X014025Y013330D01*
X014025Y013448D02*
X014247Y013448D01*
X014225Y013567D02*
X014025Y013567D01*
X014025Y013685D02*
X014225Y013685D01*
X014225Y013804D02*
X014025Y013804D01*
X014025Y013922D02*
X014296Y013922D01*
X014415Y014041D02*
X014025Y014041D01*
X014025Y014159D02*
X017345Y014159D01*
X017345Y014041D02*
X016455Y014041D01*
X016375Y014121D02*
X015994Y014121D01*
X015725Y013851D01*
X015725Y013470D01*
X015994Y013201D01*
X016375Y013201D01*
X016645Y013470D01*
X016645Y013851D01*
X016375Y014121D01*
X016574Y013922D02*
X017345Y013922D01*
X017345Y013804D02*
X016645Y013804D01*
X016645Y013685D02*
X017345Y013685D01*
X017345Y013567D02*
X016645Y013567D01*
X016623Y013448D02*
X017345Y013448D01*
X017345Y013330D02*
X016504Y013330D01*
X016386Y013211D02*
X017345Y013211D01*
X018025Y013211D02*
X019984Y013211D01*
X019994Y013201D02*
X020375Y013201D01*
X020645Y013470D01*
X020645Y013851D01*
X020375Y014121D01*
X019994Y014121D01*
X019725Y013851D01*
X019725Y013470D01*
X019994Y013201D01*
X019865Y013330D02*
X018025Y013330D01*
X018025Y013448D02*
X019747Y013448D01*
X019725Y013567D02*
X018025Y013567D01*
X018025Y013685D02*
X019725Y013685D01*
X019725Y013804D02*
X018025Y013804D01*
X018025Y013922D02*
X019796Y013922D01*
X019915Y014041D02*
X018025Y014041D01*
X018025Y014159D02*
X023165Y014159D01*
X023165Y014141D02*
X022805Y014141D01*
X022805Y014003D01*
X023027Y013781D01*
X023165Y013781D01*
X023165Y014141D01*
X023165Y014181D01*
X023165Y014541D01*
X023027Y014541D01*
X022805Y014318D01*
X022805Y014181D01*
X023165Y014181D01*
X023205Y014181D01*
X023205Y014541D01*
X023342Y014541D01*
X023565Y014318D01*
X023565Y014181D01*
X023205Y014181D01*
X023205Y014141D01*
X023565Y014141D01*
X023565Y014003D01*
X023342Y013781D01*
X023205Y013781D01*
X023205Y014141D01*
X023165Y014141D01*
X023205Y014159D02*
X033205Y014159D01*
X033324Y014041D02*
X023565Y014041D01*
X023484Y013922D02*
X031909Y013922D01*
X031805Y013818D02*
X032027Y014041D01*
X032165Y014041D01*
X032165Y013681D01*
X032205Y013681D01*
X032205Y014041D01*
X032342Y014041D01*
X032565Y013818D01*
X032565Y013681D01*
X032205Y013681D01*
X032205Y013641D01*
X032565Y013641D01*
X032565Y013503D01*
X032342Y013281D01*
X032205Y013281D01*
X032205Y013641D01*
X032165Y013641D01*
X031805Y013641D01*
X031805Y013503D01*
X032027Y013281D01*
X032165Y013281D01*
X032165Y013641D01*
X032165Y013681D01*
X031805Y013681D01*
X031805Y013818D01*
X031805Y013804D02*
X023365Y013804D01*
X023205Y013804D02*
X023165Y013804D01*
X023165Y013922D02*
X023205Y013922D01*
X023205Y014041D02*
X023165Y014041D01*
X023165Y014278D02*
X023205Y014278D01*
X023205Y014397D02*
X023165Y014397D01*
X023165Y014515D02*
X023205Y014515D01*
X023368Y014515D02*
X032850Y014515D01*
X032968Y014397D02*
X023486Y014397D01*
X023565Y014278D02*
X033087Y014278D01*
X033442Y013922D02*
X032461Y013922D01*
X032565Y013804D02*
X033561Y013804D01*
X033680Y013685D02*
X032565Y013685D01*
X032565Y013567D02*
X033798Y013567D01*
X033917Y013448D02*
X032510Y013448D01*
X032391Y013330D02*
X034035Y013330D01*
X034154Y013211D02*
X029640Y013211D01*
X029640Y013181D02*
X029640Y013349D01*
X029373Y013616D01*
X029205Y013616D01*
X029205Y013181D01*
X029165Y013181D01*
X029165Y013616D01*
X028996Y013616D01*
X028730Y013349D01*
X028730Y013181D01*
X029165Y013181D01*
X029165Y013141D01*
X028730Y013141D01*
X028730Y012972D01*
X028996Y012706D01*
X029165Y012706D01*
X029165Y013141D01*
X029205Y013141D01*
X029205Y013181D01*
X029640Y013181D01*
X029640Y013141D02*
X029205Y013141D01*
X029205Y012706D01*
X029373Y012706D01*
X029640Y012972D01*
X029640Y013141D01*
X029640Y013093D02*
X030466Y013093D01*
X030494Y013121D02*
X030225Y012851D01*
X030225Y012470D01*
X030494Y012201D01*
X030875Y012201D01*
X031145Y012470D01*
X031145Y012851D01*
X030875Y013121D01*
X030494Y013121D01*
X030348Y012974D02*
X029640Y012974D01*
X029523Y012856D02*
X030229Y012856D01*
X030225Y012737D02*
X029404Y012737D01*
X029205Y012737D02*
X029165Y012737D01*
X029165Y012856D02*
X029205Y012856D01*
X029205Y012974D02*
X029165Y012974D01*
X029165Y013093D02*
X029205Y013093D01*
X029205Y013211D02*
X029165Y013211D01*
X029165Y013330D02*
X029205Y013330D01*
X029205Y013448D02*
X029165Y013448D01*
X029165Y013567D02*
X029205Y013567D01*
X029422Y013567D02*
X031805Y013567D01*
X031805Y013685D02*
X028417Y013685D01*
X028406Y013696D02*
X027963Y013696D01*
X027685Y013417D01*
X027406Y013696D01*
X026963Y013696D01*
X026685Y013417D01*
X026406Y013696D01*
X025963Y013696D01*
X025650Y013382D01*
X025650Y012939D01*
X025963Y012626D01*
X026406Y012626D01*
X026685Y012904D01*
X026963Y012626D01*
X027406Y012626D01*
X027685Y012904D01*
X027963Y012626D01*
X028406Y012626D01*
X028720Y012939D01*
X028720Y013382D01*
X028406Y013696D01*
X028535Y013567D02*
X028947Y013567D01*
X028829Y013448D02*
X028654Y013448D01*
X028720Y013330D02*
X028730Y013330D01*
X028720Y013211D02*
X028730Y013211D01*
X028720Y013093D02*
X028730Y013093D01*
X028720Y012974D02*
X028730Y012974D01*
X028636Y012856D02*
X028847Y012856D01*
X028965Y012737D02*
X028518Y012737D01*
X027852Y012737D02*
X027518Y012737D01*
X027636Y012856D02*
X027734Y012856D01*
X027716Y013448D02*
X027654Y013448D01*
X027535Y013567D02*
X027834Y013567D01*
X027953Y013685D02*
X027417Y013685D01*
X026953Y013685D02*
X026417Y013685D01*
X026535Y013567D02*
X026834Y013567D01*
X026716Y013448D02*
X026654Y013448D01*
X026636Y012856D02*
X026734Y012856D01*
X026852Y012737D02*
X026518Y012737D01*
X025852Y012737D02*
X025145Y012737D01*
X025145Y012851D02*
X025145Y012470D01*
X024875Y012201D01*
X024494Y012201D01*
X024225Y012470D01*
X024225Y012851D01*
X024494Y013121D01*
X024875Y013121D01*
X025145Y012851D01*
X025141Y012856D02*
X025734Y012856D01*
X025650Y012974D02*
X025022Y012974D01*
X024904Y013093D02*
X025650Y013093D01*
X025650Y013211D02*
X023645Y013211D01*
X023645Y013093D02*
X024466Y013093D01*
X024348Y012974D02*
X023645Y012974D01*
X023645Y012970D02*
X023375Y012701D01*
X022994Y012701D01*
X022725Y012970D01*
X022725Y013351D01*
X022994Y013621D01*
X023375Y013621D01*
X023645Y013351D01*
X023645Y012970D01*
X023530Y012856D02*
X024229Y012856D01*
X024225Y012737D02*
X023412Y012737D01*
X022958Y012737D02*
X022145Y012737D01*
X022145Y012851D02*
X022145Y012470D01*
X021875Y012201D01*
X021494Y012201D01*
X021225Y012470D01*
X021225Y012851D01*
X021494Y013121D01*
X021875Y013121D01*
X022145Y012851D01*
X022141Y012856D02*
X022840Y012856D01*
X022725Y012974D02*
X022022Y012974D01*
X021904Y013093D02*
X022725Y013093D01*
X022725Y013211D02*
X020386Y013211D01*
X020504Y013330D02*
X022725Y013330D01*
X022822Y013448D02*
X020623Y013448D01*
X020645Y013567D02*
X022940Y013567D01*
X023004Y013804D02*
X020645Y013804D01*
X020645Y013685D02*
X025953Y013685D01*
X025834Y013567D02*
X023429Y013567D01*
X023548Y013448D02*
X025716Y013448D01*
X025650Y013330D02*
X023645Y013330D01*
X024225Y012618D02*
X022145Y012618D01*
X022145Y012500D02*
X024225Y012500D01*
X024314Y012381D02*
X022056Y012381D01*
X021937Y012263D02*
X024432Y012263D01*
X024937Y012263D02*
X030432Y012263D01*
X030314Y012381D02*
X025056Y012381D01*
X025145Y012500D02*
X030225Y012500D01*
X030225Y012618D02*
X025145Y012618D01*
X025165Y011541D02*
X025027Y011541D01*
X024805Y011318D01*
X024805Y011181D01*
X025165Y011181D01*
X025165Y011541D01*
X025205Y011541D02*
X025205Y011181D01*
X025165Y011181D01*
X025165Y011141D01*
X024805Y011141D01*
X024805Y011003D01*
X025027Y010781D01*
X025165Y010781D01*
X025165Y011141D01*
X025205Y011141D01*
X025205Y011181D01*
X025565Y011181D01*
X025565Y011318D01*
X025342Y011541D01*
X025205Y011541D01*
X025205Y011433D02*
X025165Y011433D01*
X025165Y011314D02*
X025205Y011314D01*
X025205Y011196D02*
X025165Y011196D01*
X025205Y011141D02*
X025565Y011141D01*
X025565Y011003D01*
X025342Y010781D01*
X025205Y010781D01*
X025205Y011141D01*
X025205Y011077D02*
X025165Y011077D01*
X025165Y010959D02*
X025205Y010959D01*
X025205Y010840D02*
X025165Y010840D01*
X024968Y010840D02*
X022348Y010840D01*
X022315Y010921D02*
X022385Y010752D01*
X022385Y010569D01*
X022315Y010400D01*
X022185Y010271D01*
X022016Y010201D01*
X021353Y010201D01*
X021184Y010271D01*
X021055Y010400D01*
X020985Y010569D01*
X020985Y010752D01*
X021055Y010921D01*
X021184Y011051D01*
X021353Y011121D01*
X022016Y011121D01*
X022185Y011051D01*
X022315Y010921D01*
X022277Y010959D02*
X024849Y010959D01*
X024805Y011077D02*
X022121Y011077D01*
X022385Y010722D02*
X026473Y010722D01*
X026494Y010701D02*
X026875Y010701D01*
X027145Y010970D01*
X027145Y011351D01*
X026875Y011621D01*
X026494Y011621D01*
X026225Y011351D01*
X026225Y010970D01*
X026494Y010701D01*
X026355Y010840D02*
X025402Y010840D01*
X025520Y010959D02*
X026236Y010959D01*
X026225Y011077D02*
X025565Y011077D01*
X025565Y011196D02*
X026225Y011196D01*
X026225Y011314D02*
X025565Y011314D01*
X025450Y011433D02*
X026307Y011433D01*
X026425Y011552D02*
X020445Y011552D01*
X020375Y011621D02*
X020645Y011351D01*
X020645Y010970D01*
X020375Y010701D01*
X019994Y010701D01*
X019725Y010970D01*
X019725Y011351D01*
X019994Y011621D01*
X020375Y011621D01*
X020563Y011433D02*
X024920Y011433D01*
X024805Y011314D02*
X020645Y011314D01*
X020645Y011196D02*
X024805Y011196D01*
X026896Y010722D02*
X027973Y010722D01*
X027994Y010701D02*
X028375Y010701D01*
X028645Y010970D01*
X028645Y011351D01*
X028375Y011621D01*
X027994Y011621D01*
X027725Y011351D01*
X027725Y010970D01*
X027994Y010701D01*
X027855Y010840D02*
X027015Y010840D01*
X027133Y010959D02*
X027736Y010959D01*
X027725Y011077D02*
X027145Y011077D01*
X027145Y011196D02*
X027725Y011196D01*
X027725Y011314D02*
X027145Y011314D01*
X027063Y011433D02*
X027807Y011433D01*
X027925Y011552D02*
X026945Y011552D01*
X028445Y011552D02*
X033425Y011552D01*
X033494Y011621D02*
X033225Y011351D01*
X033225Y010970D01*
X033494Y010701D01*
X033875Y010701D01*
X034145Y010970D01*
X034145Y011351D01*
X033875Y011621D01*
X033494Y011621D01*
X033307Y011433D02*
X029950Y011433D01*
X029842Y011541D02*
X030065Y011318D01*
X030065Y011181D01*
X029705Y011181D01*
X029665Y011181D01*
X029665Y011541D01*
X029527Y011541D01*
X029305Y011318D01*
X029305Y011181D01*
X029665Y011181D01*
X029665Y011141D01*
X029305Y011141D01*
X029305Y011003D01*
X029527Y010781D01*
X029665Y010781D01*
X029665Y011141D01*
X029705Y011141D01*
X029705Y011181D01*
X029705Y011541D01*
X029842Y011541D01*
X029705Y011433D02*
X029665Y011433D01*
X029665Y011314D02*
X029705Y011314D01*
X029705Y011196D02*
X029665Y011196D01*
X029705Y011141D02*
X030065Y011141D01*
X030065Y011003D01*
X029842Y010781D01*
X029705Y010781D01*
X029705Y011141D01*
X029705Y011077D02*
X029665Y011077D01*
X029665Y010959D02*
X029705Y010959D01*
X029705Y010840D02*
X029665Y010840D01*
X029468Y010840D02*
X028515Y010840D01*
X028396Y010722D02*
X033473Y010722D01*
X033355Y010840D02*
X029902Y010840D01*
X030020Y010959D02*
X033236Y010959D01*
X033225Y011077D02*
X030065Y011077D01*
X030065Y011196D02*
X033225Y011196D01*
X033225Y011314D02*
X030065Y011314D01*
X029420Y011433D02*
X028563Y011433D01*
X028645Y011314D02*
X029305Y011314D01*
X029305Y011196D02*
X028645Y011196D01*
X028645Y011077D02*
X029305Y011077D01*
X029349Y010959D02*
X028633Y010959D01*
X029184Y010051D02*
X029055Y009921D01*
X028985Y009752D01*
X028985Y009569D01*
X029055Y009400D01*
X029184Y009271D01*
X029353Y009201D01*
X030016Y009201D01*
X030185Y009271D01*
X030315Y009400D01*
X030385Y009569D01*
X030385Y009752D01*
X030315Y009921D01*
X030185Y010051D01*
X030016Y010121D01*
X029353Y010121D01*
X029184Y010051D01*
X029144Y010010D02*
X022226Y010010D01*
X022185Y010051D02*
X022016Y010121D01*
X021353Y010121D01*
X021184Y010051D01*
X021055Y009921D01*
X020985Y009752D01*
X020985Y009569D01*
X021055Y009400D01*
X021184Y009271D01*
X021353Y009201D01*
X022016Y009201D01*
X022185Y009271D01*
X022315Y009400D01*
X022385Y009569D01*
X022385Y009752D01*
X022315Y009921D01*
X022185Y010051D01*
X022129Y010248D02*
X034740Y010248D01*
X034684Y010271D02*
X034853Y010201D01*
X035516Y010201D01*
X035685Y010271D01*
X035815Y010400D01*
X035885Y010569D01*
X035885Y010752D01*
X035815Y010921D01*
X035685Y011051D01*
X035516Y011121D01*
X034853Y011121D01*
X034684Y011051D01*
X034555Y010921D01*
X034485Y010752D01*
X034485Y010569D01*
X034555Y010400D01*
X034684Y010271D01*
X034589Y010366D02*
X022281Y010366D01*
X022350Y010485D02*
X034520Y010485D01*
X034485Y010603D02*
X022385Y010603D01*
X022327Y009892D02*
X029043Y009892D01*
X028994Y009773D02*
X022376Y009773D01*
X022385Y009655D02*
X028985Y009655D01*
X028999Y009536D02*
X022371Y009536D01*
X022322Y009418D02*
X029048Y009418D01*
X029156Y009299D02*
X022214Y009299D01*
X022158Y009062D02*
X034712Y009062D01*
X034684Y009051D02*
X034555Y008921D01*
X034485Y008752D01*
X034485Y008569D01*
X034555Y008400D01*
X034684Y008271D01*
X034853Y008201D01*
X035516Y008201D01*
X035685Y008271D01*
X035815Y008400D01*
X035885Y008569D01*
X035885Y008752D01*
X035815Y008921D01*
X035685Y009051D01*
X035516Y009121D01*
X034853Y009121D01*
X034684Y009051D01*
X034577Y008944D02*
X022293Y008944D01*
X022355Y008825D02*
X034515Y008825D01*
X034485Y008706D02*
X022385Y008706D01*
X022385Y008588D02*
X029462Y008588D01*
X029494Y008621D02*
X029225Y008351D01*
X022265Y008351D01*
X022343Y008469D02*
X029343Y008469D01*
X029225Y008351D02*
X029225Y007970D01*
X029494Y007701D01*
X029875Y007701D01*
X030145Y007970D01*
X030145Y008351D01*
X033225Y008351D01*
X033225Y007970D01*
X033494Y007701D01*
X033875Y007701D01*
X034145Y007970D01*
X034145Y008351D01*
X034604Y008351D01*
X034526Y008469D02*
X034027Y008469D01*
X034145Y008351D02*
X033875Y008621D01*
X033494Y008621D01*
X033225Y008351D01*
X033225Y008232D02*
X030145Y008232D01*
X030145Y008114D02*
X033225Y008114D01*
X033225Y007995D02*
X030145Y007995D01*
X030051Y007877D02*
X033318Y007877D01*
X033437Y007758D02*
X029933Y007758D01*
X029437Y007758D02*
X020433Y007758D01*
X020551Y007877D02*
X029318Y007877D01*
X029225Y007995D02*
X020645Y007995D01*
X020645Y008114D02*
X029225Y008114D01*
X029225Y008232D02*
X022092Y008232D01*
X021277Y008232D02*
X020645Y008232D01*
X020408Y008588D02*
X020985Y008588D01*
X020985Y008706D02*
X012994Y008706D01*
X013044Y008825D02*
X021015Y008825D01*
X021077Y008944D02*
X013077Y008944D01*
X013077Y009062D02*
X021212Y009062D01*
X021156Y009299D02*
X020545Y009299D01*
X020536Y009295D02*
X020605Y009324D01*
X020667Y009366D01*
X020720Y009419D01*
X020762Y009481D01*
X020790Y009550D01*
X020805Y009623D01*
X020805Y009641D01*
X020205Y009641D01*
X020205Y009681D01*
X020165Y009681D01*
X020165Y010041D01*
X019907Y010041D01*
X019834Y010026D01*
X019765Y009998D01*
X019703Y009956D01*
X019650Y009903D01*
X019608Y009841D01*
X019579Y009772D01*
X019565Y009698D01*
X019565Y009681D01*
X020165Y009681D01*
X020165Y009641D01*
X019565Y009641D01*
X019565Y009623D01*
X019579Y009550D01*
X019608Y009481D01*
X019650Y009419D01*
X019703Y009366D01*
X019765Y009324D01*
X019834Y009295D01*
X019907Y009281D01*
X020165Y009281D01*
X020165Y009641D01*
X020205Y009641D01*
X020205Y009281D01*
X020462Y009281D01*
X020536Y009295D01*
X020719Y009418D02*
X021048Y009418D01*
X020999Y009536D02*
X020785Y009536D01*
X020805Y009681D02*
X020205Y009681D01*
X020205Y010041D01*
X020462Y010041D01*
X020536Y010026D01*
X020605Y009998D01*
X020667Y009956D01*
X020720Y009903D01*
X020762Y009841D01*
X020790Y009772D01*
X020805Y009698D01*
X020805Y009681D01*
X020790Y009773D02*
X020994Y009773D01*
X020985Y009655D02*
X020205Y009655D01*
X020165Y009655D02*
X016885Y009655D01*
X016876Y009773D02*
X019580Y009773D01*
X019642Y009892D02*
X016897Y009892D01*
X017015Y010010D02*
X019796Y010010D01*
X020165Y010010D02*
X020205Y010010D01*
X020205Y009892D02*
X020165Y009892D01*
X020165Y009773D02*
X020205Y009773D01*
X020205Y009536D02*
X020165Y009536D01*
X020165Y009418D02*
X020205Y009418D01*
X020205Y009299D02*
X020165Y009299D01*
X019825Y009299D02*
X016714Y009299D01*
X016822Y009418D02*
X019651Y009418D01*
X019585Y009536D02*
X016871Y009536D01*
X017134Y010129D02*
X037236Y010129D01*
X037345Y010010D02*
X035726Y010010D01*
X035685Y010051D02*
X035815Y009921D01*
X035885Y009752D01*
X035885Y009569D01*
X035815Y009400D01*
X035685Y009271D01*
X035516Y009201D01*
X034853Y009201D01*
X034684Y009271D01*
X034555Y009400D01*
X034485Y009569D01*
X034485Y009752D01*
X034555Y009921D01*
X034684Y010051D01*
X034853Y010121D01*
X035516Y010121D01*
X035685Y010051D01*
X035629Y010248D02*
X037117Y010248D01*
X036999Y010366D02*
X035781Y010366D01*
X035850Y010485D02*
X036880Y010485D01*
X036762Y010603D02*
X035885Y010603D01*
X035885Y010722D02*
X036643Y010722D01*
X036525Y010840D02*
X035848Y010840D01*
X035777Y010959D02*
X036406Y010959D01*
X036287Y011077D02*
X035621Y011077D01*
X036169Y011196D02*
X034145Y011196D01*
X034145Y011314D02*
X036050Y011314D01*
X035932Y011433D02*
X034063Y011433D01*
X033945Y011552D02*
X035813Y011552D01*
X035695Y011670D02*
X018025Y011670D01*
X018025Y011552D02*
X019925Y011552D01*
X019807Y011433D02*
X018025Y011433D01*
X018025Y011314D02*
X019725Y011314D01*
X019725Y011196D02*
X018025Y011196D01*
X018018Y011077D02*
X019725Y011077D01*
X019736Y010959D02*
X017964Y010959D01*
X017845Y010840D02*
X019855Y010840D01*
X019973Y010722D02*
X017727Y010722D01*
X017608Y010603D02*
X020985Y010603D01*
X020985Y010722D02*
X020396Y010722D01*
X020515Y010840D02*
X021021Y010840D01*
X021092Y010959D02*
X020633Y010959D01*
X020645Y011077D02*
X021249Y011077D01*
X021020Y010485D02*
X017489Y010485D01*
X017371Y010366D02*
X021089Y010366D01*
X021240Y010248D02*
X017252Y010248D01*
X016765Y010722D02*
X012945Y010722D01*
X012999Y010603D02*
X016646Y010603D01*
X016528Y010485D02*
X013049Y010485D01*
X013077Y010366D02*
X016409Y010366D01*
X016291Y010248D02*
X013077Y010248D01*
X013077Y010129D02*
X016172Y010129D01*
X015644Y010010D02*
X014986Y010010D01*
X014875Y010121D02*
X015145Y009851D01*
X015145Y009470D01*
X014875Y009201D01*
X014494Y009201D01*
X014225Y009470D01*
X014225Y009851D01*
X014494Y010121D01*
X014875Y010121D01*
X015104Y009892D02*
X015543Y009892D01*
X015494Y009773D02*
X015145Y009773D01*
X015145Y009655D02*
X015485Y009655D01*
X015499Y009536D02*
X015145Y009536D01*
X015092Y009418D02*
X015548Y009418D01*
X015656Y009299D02*
X014974Y009299D01*
X014396Y009299D02*
X013077Y009299D01*
X013077Y009181D02*
X037345Y009181D01*
X037345Y009299D02*
X035714Y009299D01*
X035822Y009418D02*
X037345Y009418D01*
X037345Y009536D02*
X035871Y009536D01*
X035885Y009655D02*
X037345Y009655D01*
X037345Y009773D02*
X035876Y009773D01*
X035827Y009892D02*
X037345Y009892D01*
X038025Y009892D02*
X043425Y009892D01*
X043425Y010010D02*
X038025Y010010D01*
X038025Y010129D02*
X043425Y010129D01*
X043425Y010248D02*
X038017Y010248D01*
X037960Y010366D02*
X043425Y010366D01*
X043425Y010485D02*
X037842Y010485D01*
X037723Y010603D02*
X043425Y010603D01*
X043425Y010722D02*
X041896Y010722D01*
X041875Y010701D02*
X042145Y010970D01*
X042145Y011351D01*
X041875Y011621D01*
X041494Y011621D01*
X041225Y011351D01*
X041225Y010970D01*
X041494Y010701D01*
X041875Y010701D01*
X042015Y010840D02*
X043425Y010840D01*
X043425Y010959D02*
X042133Y010959D01*
X042145Y011077D02*
X043425Y011077D01*
X043425Y011196D02*
X042145Y011196D01*
X042145Y011314D02*
X043425Y011314D01*
X043425Y011433D02*
X042063Y011433D01*
X041945Y011552D02*
X043425Y011552D01*
X043425Y011670D02*
X036656Y011670D01*
X036538Y011789D02*
X043425Y011789D01*
X043425Y011907D02*
X036419Y011907D01*
X036301Y012026D02*
X043425Y012026D01*
X043425Y012144D02*
X036182Y012144D01*
X036064Y012263D02*
X043425Y012263D01*
X043425Y012381D02*
X035945Y012381D01*
X035827Y012500D02*
X043425Y012500D01*
X043425Y012618D02*
X035708Y012618D01*
X035589Y012737D02*
X043425Y012737D01*
X043425Y012856D02*
X035471Y012856D01*
X035352Y012974D02*
X043425Y012974D01*
X043425Y013093D02*
X035234Y013093D01*
X035115Y013211D02*
X043425Y013211D01*
X043425Y013330D02*
X034997Y013330D01*
X034878Y013448D02*
X043425Y013448D01*
X043425Y013567D02*
X034760Y013567D01*
X034641Y013685D02*
X043425Y013685D01*
X043425Y013804D02*
X034523Y013804D01*
X034404Y013922D02*
X043425Y013922D01*
X043425Y014041D02*
X034285Y014041D01*
X034167Y014159D02*
X043425Y014159D01*
X043425Y014278D02*
X034048Y014278D01*
X033930Y014397D02*
X043425Y014397D01*
X043425Y014515D02*
X033811Y014515D01*
X033693Y014634D02*
X043425Y014634D01*
X043425Y014752D02*
X033574Y014752D01*
X033456Y014871D02*
X043425Y014871D01*
X043425Y014989D02*
X033337Y014989D01*
X033219Y015108D02*
X043425Y015108D01*
X043425Y015226D02*
X033100Y015226D01*
X033025Y015345D02*
X043425Y015345D01*
X043425Y015463D02*
X033025Y015463D01*
X033025Y015582D02*
X043425Y015582D01*
X043425Y015701D02*
X033025Y015701D01*
X033025Y015819D02*
X043425Y015819D01*
X043425Y015938D02*
X033025Y015938D01*
X033025Y016056D02*
X043425Y016056D01*
X043425Y016175D02*
X033025Y016175D01*
X033025Y016293D02*
X043425Y016293D01*
X043425Y016412D02*
X033025Y016412D01*
X033025Y016530D02*
X043425Y016530D01*
X043425Y016649D02*
X033025Y016649D01*
X033163Y016767D02*
X034706Y016767D01*
X034783Y016691D02*
X035587Y016691D01*
X036155Y017259D01*
X036155Y018063D01*
X035587Y018631D01*
X034783Y018631D01*
X034215Y018063D01*
X034215Y017259D01*
X034783Y016691D01*
X034588Y016886D02*
X033282Y016886D01*
X033400Y017005D02*
X034469Y017005D01*
X034351Y017123D02*
X033519Y017123D01*
X033637Y017242D02*
X034232Y017242D01*
X034215Y017360D02*
X033655Y017360D01*
X033655Y017479D02*
X034215Y017479D01*
X034215Y017597D02*
X033655Y017597D01*
X033655Y017716D02*
X034215Y017716D01*
X034215Y017834D02*
X033655Y017834D01*
X033655Y017953D02*
X034215Y017953D01*
X034224Y018071D02*
X033646Y018071D01*
X033527Y018190D02*
X034342Y018190D01*
X034461Y018309D02*
X033409Y018309D01*
X033290Y018427D02*
X034579Y018427D01*
X034698Y018546D02*
X033172Y018546D01*
X032198Y018546D02*
X023559Y018546D01*
X023554Y018551D02*
X023245Y018551D01*
X023245Y017721D01*
X023125Y017721D01*
X023125Y018551D01*
X022816Y018551D01*
X022295Y018029D01*
X022295Y017721D01*
X023125Y017721D01*
X023125Y017601D01*
X022295Y017601D01*
X022295Y017292D01*
X022816Y016771D01*
X023125Y016771D01*
X023125Y017601D01*
X023245Y017601D01*
X023245Y017721D01*
X024075Y017721D01*
X024075Y018029D01*
X023554Y018551D01*
X023677Y018427D02*
X032079Y018427D01*
X031961Y018309D02*
X023796Y018309D01*
X023914Y018190D02*
X031842Y018190D01*
X031724Y018071D02*
X027425Y018071D01*
X027375Y018121D02*
X026994Y018121D01*
X026725Y017851D01*
X026725Y017470D01*
X026994Y017201D01*
X027375Y017201D01*
X027645Y017470D01*
X027645Y017851D01*
X027375Y018121D01*
X027543Y017953D02*
X031715Y017953D01*
X031715Y017834D02*
X027645Y017834D01*
X027645Y017716D02*
X031715Y017716D01*
X031715Y017597D02*
X027645Y017597D01*
X027645Y017479D02*
X031715Y017479D01*
X031715Y017360D02*
X027535Y017360D01*
X027416Y017242D02*
X031732Y017242D01*
X031851Y017123D02*
X023906Y017123D01*
X024024Y017242D02*
X026954Y017242D01*
X026835Y017360D02*
X026422Y017360D01*
X026342Y017281D02*
X026565Y017503D01*
X026565Y017641D01*
X026205Y017641D01*
X026205Y017681D01*
X026165Y017681D01*
X026165Y018041D01*
X026027Y018041D01*
X025805Y017818D01*
X025805Y017681D01*
X026165Y017681D01*
X026165Y017641D01*
X025805Y017641D01*
X025805Y017503D01*
X026027Y017281D01*
X026165Y017281D01*
X026165Y017641D01*
X026205Y017641D01*
X026205Y017281D01*
X026342Y017281D01*
X026205Y017360D02*
X026165Y017360D01*
X026165Y017479D02*
X026205Y017479D01*
X026205Y017597D02*
X026165Y017597D01*
X026205Y017681D02*
X026565Y017681D01*
X026565Y017818D01*
X026342Y018041D01*
X026205Y018041D01*
X026205Y017681D01*
X026205Y017716D02*
X026165Y017716D01*
X026165Y017834D02*
X026205Y017834D01*
X026205Y017953D02*
X026165Y017953D01*
X025940Y017953D02*
X024075Y017953D01*
X024075Y017834D02*
X025821Y017834D01*
X025805Y017716D02*
X023245Y017716D01*
X023245Y017601D02*
X024075Y017601D01*
X024075Y017292D01*
X023554Y016771D01*
X023245Y016771D01*
X023245Y017601D01*
X023245Y017597D02*
X023125Y017597D01*
X023125Y017479D02*
X023245Y017479D01*
X023245Y017360D02*
X023125Y017360D01*
X023125Y017242D02*
X023245Y017242D01*
X023245Y017123D02*
X023125Y017123D01*
X023125Y017005D02*
X023245Y017005D01*
X023245Y016886D02*
X023125Y016886D01*
X022701Y016886D02*
X022110Y016886D01*
X022145Y016851D02*
X021875Y017121D01*
X021494Y017121D01*
X021225Y016851D01*
X021225Y016470D01*
X021494Y016201D01*
X021875Y016201D01*
X022145Y016470D01*
X022145Y016851D01*
X022145Y016767D02*
X024225Y016767D01*
X024225Y016851D02*
X024225Y016470D01*
X024494Y016201D01*
X024875Y016201D01*
X025145Y016470D01*
X025145Y016851D01*
X024875Y017121D01*
X024494Y017121D01*
X024225Y016851D01*
X024260Y016886D02*
X023669Y016886D01*
X023787Y017005D02*
X024378Y017005D01*
X024225Y016649D02*
X022145Y016649D01*
X022145Y016530D02*
X022904Y016530D01*
X022994Y016621D02*
X022725Y016351D01*
X022725Y015970D01*
X022994Y015701D01*
X023375Y015701D01*
X023645Y015970D01*
X023645Y016351D01*
X023375Y016621D01*
X022994Y016621D01*
X022785Y016412D02*
X022086Y016412D01*
X021968Y016293D02*
X022725Y016293D01*
X022725Y016175D02*
X017652Y016175D01*
X017770Y016056D02*
X022725Y016056D01*
X022757Y015938D02*
X017889Y015938D01*
X017987Y015819D02*
X022876Y015819D01*
X023494Y015819D02*
X025770Y015819D01*
X025889Y015701D02*
X018025Y015701D01*
X018025Y015582D02*
X019956Y015582D01*
X019994Y015621D02*
X019725Y015351D01*
X019725Y014970D01*
X019994Y014701D01*
X020375Y014701D01*
X020645Y014970D01*
X020645Y015351D01*
X020375Y015621D01*
X019994Y015621D01*
X019837Y015463D02*
X018025Y015463D01*
X018025Y015345D02*
X019725Y015345D01*
X019725Y015226D02*
X018025Y015226D01*
X018025Y015108D02*
X019725Y015108D01*
X019725Y014989D02*
X018025Y014989D01*
X018025Y014871D02*
X019824Y014871D01*
X019943Y014752D02*
X018025Y014752D01*
X018025Y014634D02*
X032731Y014634D01*
X032613Y014752D02*
X020427Y014752D01*
X020545Y014871D02*
X022938Y014871D01*
X023027Y014781D02*
X022805Y015003D01*
X022805Y015141D01*
X023165Y015141D01*
X023165Y015181D01*
X023165Y015541D01*
X023027Y015541D01*
X022805Y015318D01*
X022805Y015181D01*
X023165Y015181D01*
X023205Y015181D01*
X023205Y015541D01*
X023342Y015541D01*
X023565Y015318D01*
X023565Y015181D01*
X023205Y015181D01*
X023205Y015141D01*
X023565Y015141D01*
X023565Y015003D01*
X023342Y014781D01*
X023205Y014781D01*
X023205Y015141D01*
X023165Y015141D01*
X023165Y014781D01*
X023027Y014781D01*
X023165Y014871D02*
X023205Y014871D01*
X023205Y014989D02*
X023165Y014989D01*
X023165Y015108D02*
X023205Y015108D01*
X023205Y015226D02*
X023165Y015226D01*
X023165Y015345D02*
X023205Y015345D01*
X023205Y015463D02*
X023165Y015463D01*
X022950Y015463D02*
X020533Y015463D01*
X020645Y015345D02*
X022832Y015345D01*
X022805Y015226D02*
X020645Y015226D01*
X020645Y015108D02*
X022805Y015108D01*
X022819Y014989D02*
X020645Y014989D01*
X020414Y015582D02*
X032345Y015582D01*
X032345Y015463D02*
X023420Y015463D01*
X023538Y015345D02*
X032345Y015345D01*
X032345Y015226D02*
X023565Y015226D01*
X023565Y015108D02*
X032345Y015108D01*
X032388Y014989D02*
X023551Y014989D01*
X023432Y014871D02*
X032494Y014871D01*
X032345Y015701D02*
X029481Y015701D01*
X029406Y015626D02*
X029720Y015939D01*
X029720Y016382D01*
X029406Y016696D01*
X028963Y016696D01*
X028685Y016417D01*
X028406Y016696D01*
X027963Y016696D01*
X027685Y016417D01*
X027406Y016696D01*
X026963Y016696D01*
X026685Y016417D01*
X026406Y016696D01*
X025963Y016696D01*
X025650Y016382D01*
X025650Y015939D01*
X025963Y015626D01*
X026406Y015626D01*
X026685Y015904D01*
X026963Y015626D01*
X027406Y015626D01*
X027685Y015904D01*
X027963Y015626D01*
X028406Y015626D01*
X028685Y015904D01*
X028963Y015626D01*
X029406Y015626D01*
X029600Y015819D02*
X032345Y015819D01*
X032345Y015938D02*
X029718Y015938D01*
X029720Y016056D02*
X032345Y016056D01*
X032345Y016175D02*
X029720Y016175D01*
X029720Y016293D02*
X030402Y016293D01*
X030494Y016201D02*
X030225Y016470D01*
X030225Y016851D01*
X030494Y017121D01*
X030875Y017121D01*
X031145Y016851D01*
X031145Y016470D01*
X030875Y016201D01*
X030494Y016201D01*
X030283Y016412D02*
X029690Y016412D01*
X029572Y016530D02*
X030225Y016530D01*
X030225Y016649D02*
X029453Y016649D01*
X028916Y016649D02*
X028453Y016649D01*
X028572Y016530D02*
X028798Y016530D01*
X027916Y016649D02*
X027453Y016649D01*
X027572Y016530D02*
X027798Y016530D01*
X026916Y016649D02*
X026453Y016649D01*
X026572Y016530D02*
X026798Y016530D01*
X025916Y016649D02*
X025145Y016649D01*
X025145Y016767D02*
X030225Y016767D01*
X030260Y016886D02*
X025110Y016886D01*
X024992Y017005D02*
X030378Y017005D01*
X030992Y017005D02*
X031969Y017005D01*
X032088Y016886D02*
X031110Y016886D01*
X031145Y016767D02*
X032206Y016767D01*
X032345Y016649D02*
X031145Y016649D01*
X031145Y016530D02*
X032345Y016530D01*
X032345Y016412D02*
X031086Y016412D01*
X030968Y016293D02*
X032345Y016293D01*
X035663Y016767D02*
X037206Y016767D01*
X037283Y016691D02*
X038087Y016691D01*
X038655Y017259D01*
X038655Y018063D01*
X038087Y018631D01*
X037283Y018631D01*
X036715Y018063D01*
X036715Y017259D01*
X037283Y016691D01*
X037088Y016886D02*
X035782Y016886D01*
X035900Y017005D02*
X036969Y017005D01*
X036851Y017123D02*
X036019Y017123D01*
X036137Y017242D02*
X036732Y017242D01*
X036715Y017360D02*
X036155Y017360D01*
X036155Y017479D02*
X036715Y017479D01*
X036715Y017597D02*
X036155Y017597D01*
X036155Y017716D02*
X036715Y017716D01*
X036715Y017834D02*
X036155Y017834D01*
X036155Y017953D02*
X036715Y017953D01*
X036724Y018071D02*
X036146Y018071D01*
X036027Y018190D02*
X036842Y018190D01*
X036961Y018309D02*
X035909Y018309D01*
X035790Y018427D02*
X037079Y018427D01*
X037198Y018546D02*
X035672Y018546D01*
X038172Y018546D02*
X039698Y018546D01*
X039783Y018631D02*
X039215Y018063D01*
X039215Y017259D01*
X039783Y016691D01*
X040587Y016691D01*
X041155Y017259D01*
X041155Y018063D01*
X040587Y018631D01*
X039783Y018631D01*
X039579Y018427D02*
X038290Y018427D01*
X038409Y018309D02*
X039461Y018309D01*
X039342Y018190D02*
X038527Y018190D01*
X038646Y018071D02*
X039224Y018071D01*
X039215Y017953D02*
X038655Y017953D01*
X038655Y017834D02*
X039215Y017834D01*
X039215Y017716D02*
X038655Y017716D01*
X038655Y017597D02*
X039215Y017597D01*
X039215Y017479D02*
X038655Y017479D01*
X038655Y017360D02*
X039215Y017360D01*
X039232Y017242D02*
X038637Y017242D01*
X038519Y017123D02*
X039351Y017123D01*
X039469Y017005D02*
X038400Y017005D01*
X038282Y016886D02*
X039588Y016886D01*
X039706Y016767D02*
X038163Y016767D01*
X040663Y016767D02*
X041745Y016767D01*
X041682Y016790D02*
X042010Y016671D01*
X042133Y016671D01*
X042133Y016671D01*
X042185Y016671D01*
X042200Y016671D01*
X042237Y016671D01*
X042359Y016671D01*
X042359Y016671D01*
X042687Y016790D01*
X042687Y016790D01*
X042955Y017015D01*
X043129Y017317D01*
X043129Y017317D01*
X043190Y017661D01*
X043129Y018005D01*
X042955Y018307D01*
X042687Y018531D01*
X042359Y018651D01*
X042237Y018651D01*
X042185Y018651D01*
X042183Y018651D01*
X042133Y018651D01*
X042133Y018651D01*
X042010Y018651D01*
X041682Y018531D01*
X041415Y018307D01*
X041415Y018307D01*
X041240Y018005D01*
X041180Y017661D01*
X041240Y017317D01*
X041415Y017015D01*
X041415Y017015D01*
X041682Y016790D01*
X041682Y016790D01*
X041568Y016886D02*
X040782Y016886D01*
X040900Y017005D02*
X041427Y017005D01*
X041352Y017123D02*
X041019Y017123D01*
X041137Y017242D02*
X041284Y017242D01*
X041240Y017317D02*
X041240Y017317D01*
X041233Y017360D02*
X041155Y017360D01*
X041155Y017479D02*
X041212Y017479D01*
X041191Y017597D02*
X041155Y017597D01*
X041180Y017661D02*
X041180Y017661D01*
X041189Y017716D02*
X041155Y017716D01*
X041155Y017834D02*
X041210Y017834D01*
X041231Y017953D02*
X041155Y017953D01*
X041240Y018005D02*
X041240Y018005D01*
X041279Y018071D02*
X041146Y018071D01*
X041027Y018190D02*
X041347Y018190D01*
X041415Y018307D02*
X041415Y018307D01*
X041417Y018309D02*
X040909Y018309D01*
X040790Y018427D02*
X041558Y018427D01*
X041682Y018531D02*
X041682Y018531D01*
X041722Y018546D02*
X040672Y018546D01*
X042010Y018651D02*
X042010Y018651D01*
X042237Y018651D02*
X042237Y018651D01*
X042359Y018651D02*
X042359Y018651D01*
X042648Y018546D02*
X043425Y018546D01*
X043425Y018427D02*
X042812Y018427D01*
X042687Y018531D02*
X042687Y018531D01*
X042953Y018309D02*
X043425Y018309D01*
X043425Y018190D02*
X043022Y018190D01*
X042955Y018307D02*
X042955Y018307D01*
X043091Y018071D02*
X043425Y018071D01*
X043425Y017953D02*
X043139Y017953D01*
X043129Y018005D02*
X043129Y018005D01*
X043159Y017834D02*
X043425Y017834D01*
X043425Y017716D02*
X043180Y017716D01*
X043179Y017597D02*
X043425Y017597D01*
X043425Y017479D02*
X043158Y017479D01*
X043137Y017360D02*
X043425Y017360D01*
X043425Y017242D02*
X043086Y017242D01*
X043017Y017123D02*
X043425Y017123D01*
X043425Y017005D02*
X042943Y017005D01*
X042955Y017015D02*
X042955Y017015D01*
X042802Y016886D02*
X043425Y016886D01*
X043425Y016767D02*
X042625Y016767D01*
X042237Y016671D02*
X042237Y016671D01*
X042010Y016671D02*
X042010Y016671D01*
X034272Y013093D02*
X032404Y013093D01*
X032375Y013121D02*
X031994Y013121D01*
X031725Y012851D01*
X031725Y012470D01*
X031994Y012201D01*
X032375Y012201D01*
X032645Y012470D01*
X032645Y012851D01*
X032375Y013121D01*
X032522Y012974D02*
X034391Y012974D01*
X034509Y012856D02*
X032641Y012856D01*
X032645Y012737D02*
X034628Y012737D01*
X034746Y012618D02*
X032645Y012618D01*
X032645Y012500D02*
X034865Y012500D01*
X034984Y012381D02*
X032556Y012381D01*
X032437Y012263D02*
X035102Y012263D01*
X035221Y012144D02*
X018025Y012144D01*
X018025Y012026D02*
X035339Y012026D01*
X035458Y011907D02*
X018025Y011907D01*
X018025Y011789D02*
X035576Y011789D01*
X036775Y011552D02*
X039925Y011552D01*
X039994Y011621D02*
X039725Y011351D01*
X039725Y010970D01*
X039994Y010701D01*
X040375Y010701D01*
X040645Y010970D01*
X040645Y011351D01*
X040375Y011621D01*
X039994Y011621D01*
X039807Y011433D02*
X038950Y011433D01*
X038842Y011541D02*
X038705Y011541D01*
X038705Y011181D01*
X038665Y011181D01*
X038665Y011541D01*
X038527Y011541D01*
X038305Y011318D01*
X038305Y011181D01*
X038665Y011181D01*
X038665Y011141D01*
X038305Y011141D01*
X038305Y011003D01*
X038527Y010781D01*
X038665Y010781D01*
X038665Y011141D01*
X038705Y011141D01*
X038705Y011181D01*
X039065Y011181D01*
X039065Y011318D01*
X038842Y011541D01*
X038705Y011433D02*
X038665Y011433D01*
X038665Y011314D02*
X038705Y011314D01*
X038705Y011196D02*
X038665Y011196D01*
X038705Y011141D02*
X039065Y011141D01*
X039065Y011003D01*
X038842Y010781D01*
X038705Y010781D01*
X038705Y011141D01*
X038705Y011077D02*
X038665Y011077D01*
X038665Y010959D02*
X038705Y010959D01*
X038705Y010840D02*
X038665Y010840D01*
X038468Y010840D02*
X037486Y010840D01*
X037605Y010722D02*
X039973Y010722D01*
X039855Y010840D02*
X038902Y010840D01*
X039020Y010959D02*
X039736Y010959D01*
X039725Y011077D02*
X039065Y011077D01*
X039065Y011196D02*
X039725Y011196D01*
X039725Y011314D02*
X039065Y011314D01*
X038420Y011433D02*
X036893Y011433D01*
X037012Y011314D02*
X038305Y011314D01*
X038305Y011196D02*
X037131Y011196D01*
X037249Y011077D02*
X038305Y011077D01*
X038349Y010959D02*
X037368Y010959D01*
X038025Y009773D02*
X043425Y009773D01*
X043425Y009655D02*
X038025Y009655D01*
X038025Y009536D02*
X043425Y009536D01*
X043425Y009418D02*
X038025Y009418D01*
X038025Y009299D02*
X043425Y009299D01*
X043425Y009181D02*
X038025Y009181D01*
X038025Y009062D02*
X043425Y009062D01*
X043425Y008944D02*
X038025Y008944D01*
X038025Y008825D02*
X043425Y008825D01*
X043425Y008706D02*
X038025Y008706D01*
X038025Y008588D02*
X043425Y008588D01*
X043425Y008469D02*
X038025Y008469D01*
X038025Y008351D02*
X043425Y008351D01*
X043425Y008232D02*
X038025Y008232D01*
X038025Y008114D02*
X043425Y008114D01*
X043425Y007995D02*
X038025Y007995D01*
X038025Y007877D02*
X043425Y007877D01*
X043425Y007758D02*
X038025Y007758D01*
X038025Y007640D02*
X043425Y007640D01*
X043425Y007521D02*
X041975Y007521D01*
X041875Y007621D02*
X041494Y007621D01*
X041225Y007351D01*
X041225Y006970D01*
X041494Y006701D01*
X041875Y006701D01*
X042145Y006970D01*
X042145Y007351D01*
X041875Y007621D01*
X042094Y007403D02*
X043425Y007403D01*
X043425Y007284D02*
X042145Y007284D01*
X042145Y007165D02*
X043425Y007165D01*
X043425Y007047D02*
X042145Y007047D01*
X042103Y006928D02*
X043425Y006928D01*
X043425Y006810D02*
X041984Y006810D01*
X041385Y006810D02*
X040484Y006810D01*
X040375Y006701D02*
X040645Y006970D01*
X040645Y007351D01*
X040375Y007621D01*
X039994Y007621D01*
X039725Y007351D01*
X039725Y006970D01*
X039994Y006701D01*
X040375Y006701D01*
X040603Y006928D02*
X041267Y006928D01*
X041225Y007047D02*
X040645Y007047D01*
X040645Y007165D02*
X041225Y007165D01*
X041225Y007284D02*
X040645Y007284D01*
X040594Y007403D02*
X041276Y007403D01*
X041395Y007521D02*
X040475Y007521D01*
X039895Y007521D02*
X038975Y007521D01*
X038875Y007621D02*
X038494Y007621D01*
X038225Y007351D01*
X038225Y006970D01*
X038494Y006701D01*
X038875Y006701D01*
X039145Y006970D01*
X039145Y007351D01*
X038875Y007621D01*
X039094Y007403D02*
X039776Y007403D01*
X039725Y007284D02*
X039145Y007284D01*
X039145Y007165D02*
X039725Y007165D01*
X039725Y007047D02*
X039145Y007047D01*
X039103Y006928D02*
X039767Y006928D01*
X039885Y006810D02*
X038984Y006810D01*
X038696Y006454D02*
X043425Y006454D01*
X043425Y006336D02*
X038832Y006336D01*
X038950Y006217D02*
X043425Y006217D01*
X043425Y006099D02*
X040898Y006099D01*
X040875Y006121D02*
X040494Y006121D01*
X040225Y005851D01*
X040225Y005470D01*
X040494Y005201D01*
X040875Y005201D01*
X041145Y005470D01*
X041145Y005851D01*
X040875Y006121D01*
X041016Y005980D02*
X043425Y005980D01*
X043425Y005861D02*
X041135Y005861D01*
X041145Y005743D02*
X043425Y005743D01*
X043425Y005624D02*
X041145Y005624D01*
X041145Y005506D02*
X043425Y005506D01*
X043425Y005387D02*
X041062Y005387D01*
X040943Y005269D02*
X043425Y005269D01*
X043425Y005150D02*
X039077Y005150D01*
X039077Y005032D02*
X040518Y005032D01*
X040527Y005041D02*
X040305Y004818D01*
X040305Y004681D01*
X040665Y004681D01*
X040665Y005041D01*
X040527Y005041D01*
X040665Y005032D02*
X040705Y005032D01*
X040705Y005041D02*
X040705Y004681D01*
X040665Y004681D01*
X040665Y004641D01*
X040305Y004641D01*
X040305Y004503D01*
X040527Y004281D01*
X040665Y004281D01*
X040665Y004641D01*
X040705Y004641D01*
X040705Y004681D01*
X041065Y004681D01*
X041065Y004818D01*
X040842Y005041D01*
X040705Y005041D01*
X040705Y004913D02*
X040665Y004913D01*
X040665Y004795D02*
X040705Y004795D01*
X040705Y004676D02*
X043425Y004676D01*
X043425Y004557D02*
X042616Y004557D01*
X042687Y004531D02*
X042359Y004651D01*
X042237Y004651D01*
X042185Y004651D01*
X042133Y004651D01*
X042010Y004651D01*
X041682Y004531D01*
X041415Y004307D01*
X041415Y004307D01*
X041240Y004005D01*
X041180Y003661D01*
X041240Y003317D01*
X041415Y003015D01*
X041415Y003015D01*
X041682Y002790D01*
X041682Y002790D01*
X042010Y002671D01*
X042133Y002671D01*
X042133Y002671D01*
X042185Y002671D01*
X042202Y002671D01*
X042237Y002671D01*
X042359Y002671D01*
X042359Y002671D01*
X042687Y002790D01*
X042687Y002790D01*
X042955Y003015D01*
X043129Y003317D01*
X043190Y003661D01*
X043129Y004005D01*
X042955Y004307D01*
X042687Y004531D01*
X042687Y004531D01*
X042798Y004439D02*
X043425Y004439D01*
X043425Y004320D02*
X042939Y004320D01*
X042955Y004307D02*
X042955Y004307D01*
X043016Y004202D02*
X043425Y004202D01*
X043425Y004083D02*
X043084Y004083D01*
X043129Y004005D02*
X043129Y004005D01*
X043136Y003965D02*
X043425Y003965D01*
X043425Y003846D02*
X043157Y003846D01*
X043178Y003728D02*
X043425Y003728D01*
X043425Y003609D02*
X043181Y003609D01*
X043190Y003661D02*
X043190Y003661D01*
X043160Y003491D02*
X043425Y003491D01*
X043425Y003372D02*
X043139Y003372D01*
X043129Y003317D02*
X043129Y003317D01*
X043093Y003254D02*
X043425Y003254D01*
X043425Y003135D02*
X043024Y003135D01*
X042956Y003016D02*
X043425Y003016D01*
X043425Y002898D02*
X042816Y002898D01*
X042955Y003015D02*
X042955Y003015D01*
X042955Y003015D01*
X042657Y002779D02*
X043425Y002779D01*
X043425Y002661D02*
X001945Y002661D01*
X001945Y002779D02*
X002712Y002779D01*
X002682Y002790D02*
X003010Y002671D01*
X003133Y002671D01*
X003133Y002671D01*
X003158Y002671D01*
X003185Y002671D01*
X003237Y002671D01*
X003359Y002671D01*
X003359Y002671D01*
X003687Y002790D01*
X003687Y002790D01*
X003955Y003015D01*
X004129Y003317D01*
X004190Y003661D01*
X004129Y004005D01*
X003955Y004307D01*
X003687Y004531D01*
X003359Y004651D01*
X003237Y004651D01*
X003185Y004651D01*
X003184Y004651D01*
X003133Y004651D01*
X003133Y004651D01*
X003010Y004651D01*
X002682Y004531D01*
X002415Y004307D01*
X002415Y004307D01*
X002240Y004005D01*
X002180Y003661D01*
X002240Y003317D01*
X002415Y003015D01*
X002415Y003015D01*
X002682Y002790D01*
X002682Y002790D01*
X002554Y002898D02*
X001945Y002898D01*
X001945Y003016D02*
X002414Y003016D01*
X002345Y003135D02*
X001945Y003135D01*
X001945Y003254D02*
X002277Y003254D01*
X002240Y003317D02*
X002240Y003317D01*
X002231Y003372D02*
X001945Y003372D01*
X001945Y003491D02*
X002210Y003491D01*
X002189Y003609D02*
X001945Y003609D01*
X001945Y003728D02*
X002191Y003728D01*
X002180Y003661D02*
X002180Y003661D01*
X002212Y003846D02*
X001945Y003846D01*
X001945Y003965D02*
X002233Y003965D01*
X002240Y004005D02*
X002240Y004005D01*
X002286Y004083D02*
X001945Y004083D01*
X001945Y004202D02*
X002354Y004202D01*
X002415Y004307D02*
X002415Y004307D01*
X002431Y004320D02*
X001945Y004320D01*
X001945Y004439D02*
X002572Y004439D01*
X002682Y004531D02*
X002682Y004531D01*
X002754Y004557D02*
X001945Y004557D01*
X001945Y004676D02*
X008292Y004676D01*
X008292Y004557D02*
X003616Y004557D01*
X003687Y004531D02*
X003687Y004531D01*
X003798Y004439D02*
X008292Y004439D01*
X008328Y004320D02*
X003939Y004320D01*
X003955Y004307D02*
X003955Y004307D01*
X004016Y004202D02*
X008377Y004202D01*
X008441Y004083D02*
X004084Y004083D01*
X004129Y004005D02*
X004129Y004005D01*
X004136Y003965D02*
X008559Y003965D01*
X008725Y003846D02*
X004157Y003846D01*
X004178Y003728D02*
X025637Y003728D01*
X025519Y003846D02*
X025145Y003846D01*
X025310Y003965D02*
X025400Y003965D01*
X025756Y003609D02*
X004181Y003609D01*
X004190Y003661D02*
X004190Y003661D01*
X004160Y003491D02*
X025874Y003491D01*
X025994Y003372D02*
X004139Y003372D01*
X004129Y003317D02*
X004129Y003317D01*
X004093Y003254D02*
X041277Y003254D01*
X041240Y003317D02*
X041240Y003317D01*
X041231Y003372D02*
X037876Y003372D01*
X037995Y003491D02*
X041210Y003491D01*
X041189Y003609D02*
X038114Y003609D01*
X038233Y003728D02*
X041191Y003728D01*
X041180Y003661D02*
X041180Y003661D01*
X041212Y003846D02*
X038645Y003846D01*
X038810Y003965D02*
X041233Y003965D01*
X041286Y004083D02*
X038929Y004083D01*
X038993Y004202D02*
X041354Y004202D01*
X041431Y004320D02*
X040882Y004320D01*
X040842Y004281D02*
X041065Y004503D01*
X041065Y004641D01*
X040705Y004641D01*
X040705Y004281D01*
X040842Y004281D01*
X040705Y004320D02*
X040665Y004320D01*
X040665Y004439D02*
X040705Y004439D01*
X040705Y004557D02*
X040665Y004557D01*
X040665Y004676D02*
X039077Y004676D01*
X039077Y004557D02*
X040305Y004557D01*
X040369Y004439D02*
X039077Y004439D01*
X039042Y004320D02*
X040488Y004320D01*
X041000Y004439D02*
X041572Y004439D01*
X041682Y004531D02*
X041682Y004531D01*
X041754Y004557D02*
X041065Y004557D01*
X041065Y004795D02*
X043425Y004795D01*
X043425Y004913D02*
X040970Y004913D01*
X040851Y005032D02*
X043425Y005032D01*
X042359Y004651D02*
X042359Y004651D01*
X042237Y004651D02*
X042237Y004651D01*
X042185Y004651D02*
X042185Y004651D01*
X042133Y004651D02*
X042133Y004651D01*
X042010Y004651D02*
X042010Y004651D01*
X040400Y004913D02*
X039077Y004913D01*
X039077Y004795D02*
X040305Y004795D01*
X040426Y005269D02*
X039077Y005269D01*
X039077Y005387D02*
X040308Y005387D01*
X040225Y005506D02*
X039077Y005506D01*
X039077Y005624D02*
X040225Y005624D01*
X040225Y005743D02*
X039077Y005743D01*
X039077Y005861D02*
X040235Y005861D01*
X040354Y005980D02*
X039050Y005980D01*
X039001Y006099D02*
X040472Y006099D01*
X038385Y006810D02*
X038025Y006810D01*
X038025Y006928D02*
X038267Y006928D01*
X038225Y007047D02*
X038025Y007047D01*
X038025Y007165D02*
X038225Y007165D01*
X038225Y007284D02*
X038025Y007284D01*
X038025Y007403D02*
X038276Y007403D01*
X038395Y007521D02*
X038025Y007521D01*
X037345Y007521D02*
X028475Y007521D01*
X028375Y007621D02*
X027994Y007621D01*
X027725Y007351D01*
X027725Y006970D01*
X027994Y006701D01*
X028375Y006701D01*
X028645Y006970D01*
X028645Y007351D01*
X028375Y007621D01*
X028594Y007403D02*
X037345Y007403D01*
X037345Y007284D02*
X028645Y007284D01*
X028645Y007165D02*
X037345Y007165D01*
X037345Y007047D02*
X034189Y007047D01*
X034185Y007051D02*
X034016Y007121D01*
X033353Y007121D01*
X033184Y007051D01*
X033055Y006921D01*
X032985Y006752D01*
X032985Y006569D01*
X033055Y006400D01*
X033184Y006271D01*
X033353Y006201D01*
X034016Y006201D01*
X034185Y006271D01*
X034315Y006400D01*
X034385Y006569D01*
X034385Y006752D01*
X034315Y006921D01*
X034185Y007051D01*
X034308Y006928D02*
X037345Y006928D01*
X037345Y006810D02*
X034361Y006810D01*
X034385Y006691D02*
X037345Y006691D01*
X037353Y006573D02*
X034385Y006573D01*
X034337Y006454D02*
X034674Y006454D01*
X034538Y006336D02*
X034250Y006336D01*
X034420Y006217D02*
X034056Y006217D01*
X034368Y006099D02*
X027398Y006099D01*
X027375Y006121D02*
X026994Y006121D01*
X026725Y005851D01*
X026725Y005470D01*
X026994Y005201D01*
X027375Y005201D01*
X027645Y005470D01*
X027645Y005851D01*
X027375Y006121D01*
X027516Y005980D02*
X034319Y005980D01*
X034292Y005861D02*
X027635Y005861D01*
X027645Y005743D02*
X034292Y005743D01*
X034292Y005624D02*
X027645Y005624D01*
X027645Y005506D02*
X034292Y005506D01*
X034292Y005387D02*
X027562Y005387D01*
X027443Y005269D02*
X034292Y005269D01*
X034292Y005150D02*
X025577Y005150D01*
X025577Y005032D02*
X027018Y005032D01*
X027027Y005041D02*
X026805Y004818D01*
X026805Y004681D01*
X027165Y004681D01*
X027165Y005041D01*
X027027Y005041D01*
X027165Y005032D02*
X027205Y005032D01*
X027205Y005041D02*
X027205Y004681D01*
X027165Y004681D01*
X027165Y004641D01*
X026805Y004641D01*
X026805Y004503D01*
X027027Y004281D01*
X027165Y004281D01*
X027165Y004641D01*
X027205Y004641D01*
X027205Y004681D01*
X027565Y004681D01*
X027565Y004818D01*
X027342Y005041D01*
X027205Y005041D01*
X027205Y004913D02*
X027165Y004913D01*
X027165Y004795D02*
X027205Y004795D01*
X027205Y004676D02*
X029225Y004676D01*
X029225Y004557D02*
X027565Y004557D01*
X027565Y004503D02*
X027565Y004641D01*
X027205Y004641D01*
X027205Y004281D01*
X027342Y004281D01*
X027565Y004503D01*
X027500Y004439D02*
X029256Y004439D01*
X029225Y004470D02*
X029494Y004201D01*
X029875Y004201D01*
X030145Y004470D01*
X030145Y004851D01*
X029875Y005121D01*
X029494Y005121D01*
X029225Y004851D01*
X029225Y004470D01*
X029375Y004320D02*
X027382Y004320D01*
X027205Y004320D02*
X027165Y004320D01*
X027165Y004439D02*
X027205Y004439D01*
X027205Y004557D02*
X027165Y004557D01*
X027165Y004676D02*
X025650Y004676D01*
X025577Y004795D02*
X026805Y004795D01*
X026900Y004913D02*
X025577Y004913D01*
X025577Y005269D02*
X026926Y005269D01*
X026808Y005387D02*
X025577Y005387D01*
X025577Y005506D02*
X026725Y005506D01*
X026725Y005624D02*
X025577Y005624D01*
X025577Y005743D02*
X026725Y005743D01*
X026735Y005861D02*
X025577Y005861D01*
X025550Y005980D02*
X026854Y005980D01*
X026972Y006099D02*
X025501Y006099D01*
X025450Y006217D02*
X029314Y006217D01*
X029353Y006201D02*
X030016Y006201D01*
X030185Y006271D01*
X030315Y006400D01*
X030385Y006569D01*
X030385Y006752D01*
X030315Y006921D01*
X030185Y007051D01*
X030016Y007121D01*
X029353Y007121D01*
X029184Y007051D01*
X029055Y006921D01*
X028985Y006752D01*
X028985Y006569D01*
X029055Y006400D01*
X029184Y006271D01*
X029353Y006201D01*
X029119Y006336D02*
X025332Y006336D01*
X025196Y006454D02*
X029033Y006454D01*
X028985Y006573D02*
X024754Y006573D01*
X024635Y006691D02*
X028985Y006691D01*
X029009Y006810D02*
X028484Y006810D01*
X028603Y006928D02*
X029062Y006928D01*
X029180Y007047D02*
X028645Y007047D01*
X027885Y006810D02*
X026984Y006810D01*
X026875Y006701D02*
X027145Y006970D01*
X027145Y007351D01*
X026875Y007621D01*
X026494Y007621D01*
X026225Y007351D01*
X026225Y006970D01*
X026494Y006701D01*
X026875Y006701D01*
X027103Y006928D02*
X027767Y006928D01*
X027725Y007047D02*
X027145Y007047D01*
X027145Y007165D02*
X027725Y007165D01*
X027725Y007284D02*
X027145Y007284D01*
X027094Y007403D02*
X027776Y007403D01*
X027895Y007521D02*
X026975Y007521D01*
X026395Y007521D02*
X025475Y007521D01*
X025375Y007621D02*
X025645Y007351D01*
X025645Y006970D01*
X025375Y006701D01*
X024994Y006701D01*
X024725Y006970D01*
X024725Y007351D01*
X024994Y007621D01*
X025375Y007621D01*
X025594Y007403D02*
X026276Y007403D01*
X026225Y007284D02*
X025645Y007284D01*
X025645Y007165D02*
X026225Y007165D01*
X026225Y007047D02*
X025645Y007047D01*
X025603Y006928D02*
X026267Y006928D01*
X026385Y006810D02*
X025484Y006810D01*
X024885Y006810D02*
X024517Y006810D01*
X024398Y006928D02*
X024767Y006928D01*
X024725Y007047D02*
X024280Y007047D01*
X024161Y007165D02*
X024725Y007165D01*
X024725Y007284D02*
X024042Y007284D01*
X023924Y007403D02*
X024776Y007403D01*
X024895Y007521D02*
X023805Y007521D01*
X023687Y007640D02*
X037345Y007640D01*
X037345Y007758D02*
X033933Y007758D01*
X034051Y007877D02*
X037345Y007877D01*
X037345Y007995D02*
X034145Y007995D01*
X034145Y008114D02*
X037345Y008114D01*
X037345Y008232D02*
X035592Y008232D01*
X035765Y008351D02*
X037345Y008351D01*
X037345Y008469D02*
X035843Y008469D01*
X035885Y008588D02*
X037345Y008588D01*
X037345Y008706D02*
X035885Y008706D01*
X035855Y008825D02*
X037345Y008825D01*
X037345Y008944D02*
X035793Y008944D01*
X035658Y009062D02*
X037345Y009062D01*
X034777Y008232D02*
X034145Y008232D01*
X033908Y008588D02*
X034485Y008588D01*
X034656Y009299D02*
X034045Y009299D01*
X034036Y009295D02*
X034105Y009324D01*
X034167Y009366D01*
X034220Y009419D01*
X034262Y009481D01*
X034290Y009550D01*
X034305Y009623D01*
X034305Y009641D01*
X033705Y009641D01*
X033705Y009681D01*
X033665Y009681D01*
X033665Y010041D01*
X033407Y010041D01*
X033334Y010026D01*
X033265Y009998D01*
X033203Y009956D01*
X033150Y009903D01*
X033108Y009841D01*
X033079Y009772D01*
X033065Y009698D01*
X033065Y009681D01*
X033665Y009681D01*
X033665Y009641D01*
X033065Y009641D01*
X033065Y009623D01*
X033079Y009550D01*
X033108Y009481D01*
X033150Y009419D01*
X033203Y009366D01*
X033265Y009324D01*
X033334Y009295D01*
X033407Y009281D01*
X033665Y009281D01*
X033665Y009641D01*
X033705Y009641D01*
X033705Y009281D01*
X033962Y009281D01*
X034036Y009295D01*
X034219Y009418D02*
X034548Y009418D01*
X034499Y009536D02*
X034285Y009536D01*
X034305Y009681D02*
X033705Y009681D01*
X033705Y010041D01*
X033962Y010041D01*
X034036Y010026D01*
X034105Y009998D01*
X034167Y009956D01*
X034220Y009903D01*
X034262Y009841D01*
X034290Y009772D01*
X034305Y009698D01*
X034305Y009681D01*
X034290Y009773D02*
X034494Y009773D01*
X034485Y009655D02*
X033705Y009655D01*
X033665Y009655D02*
X030385Y009655D01*
X030376Y009773D02*
X033080Y009773D01*
X033142Y009892D02*
X030327Y009892D01*
X030226Y010010D02*
X033296Y010010D01*
X033665Y010010D02*
X033705Y010010D01*
X033705Y009892D02*
X033665Y009892D01*
X033665Y009773D02*
X033705Y009773D01*
X033705Y009536D02*
X033665Y009536D01*
X033665Y009418D02*
X033705Y009418D01*
X033705Y009299D02*
X033665Y009299D01*
X033325Y009299D02*
X030214Y009299D01*
X030322Y009418D02*
X033151Y009418D01*
X033085Y009536D02*
X030371Y009536D01*
X029875Y008621D02*
X029494Y008621D01*
X029875Y008621D02*
X030145Y008351D01*
X030027Y008469D02*
X033343Y008469D01*
X033462Y008588D02*
X029908Y008588D01*
X030189Y007047D02*
X033180Y007047D01*
X033062Y006928D02*
X030308Y006928D01*
X030361Y006810D02*
X033009Y006810D01*
X032985Y006691D02*
X030385Y006691D01*
X030385Y006573D02*
X032985Y006573D01*
X033033Y006454D02*
X030337Y006454D01*
X030250Y006336D02*
X033119Y006336D01*
X033314Y006217D02*
X030056Y006217D01*
X029964Y005032D02*
X030518Y005032D01*
X030527Y005041D02*
X030305Y004818D01*
X030305Y004681D01*
X030665Y004681D01*
X030665Y005041D01*
X030527Y005041D01*
X030665Y005032D02*
X030705Y005032D01*
X030705Y005041D02*
X030842Y005041D01*
X031065Y004818D01*
X031065Y004681D01*
X030705Y004681D01*
X030665Y004681D01*
X030665Y004641D01*
X030305Y004641D01*
X030305Y004503D01*
X030527Y004281D01*
X030665Y004281D01*
X030665Y004641D01*
X030705Y004641D01*
X030705Y004681D01*
X030705Y005041D01*
X030705Y004913D02*
X030665Y004913D01*
X030665Y004795D02*
X030705Y004795D01*
X030705Y004676D02*
X034292Y004676D01*
X034292Y004557D02*
X031065Y004557D01*
X031065Y004503D02*
X031065Y004641D01*
X030705Y004641D01*
X030705Y004281D01*
X030842Y004281D01*
X031065Y004503D01*
X031000Y004439D02*
X034292Y004439D01*
X034328Y004320D02*
X030882Y004320D01*
X030705Y004320D02*
X030665Y004320D01*
X030665Y004439D02*
X030705Y004439D01*
X030705Y004557D02*
X030665Y004557D01*
X030665Y004676D02*
X030145Y004676D01*
X030145Y004557D02*
X030305Y004557D01*
X030369Y004439D02*
X030114Y004439D01*
X029995Y004320D02*
X030488Y004320D01*
X030305Y004795D02*
X030145Y004795D01*
X030083Y004913D02*
X030400Y004913D01*
X030851Y005032D02*
X034292Y005032D01*
X034292Y004913D02*
X030970Y004913D01*
X031065Y004795D02*
X034292Y004795D01*
X034377Y004202D02*
X029876Y004202D01*
X029493Y004202D02*
X026125Y004202D01*
X026243Y004083D02*
X034441Y004083D01*
X035890Y005980D02*
X035899Y005980D01*
X035948Y006099D02*
X035841Y006099D01*
X035790Y006217D02*
X036000Y006217D01*
X036118Y006336D02*
X035672Y006336D01*
X035536Y006454D02*
X036254Y006454D01*
X037116Y006454D02*
X037411Y006454D01*
X037529Y006336D02*
X037252Y006336D01*
X037370Y006217D02*
X037580Y006217D01*
X037528Y006099D02*
X037421Y006099D01*
X037470Y005980D02*
X037479Y005980D01*
X038254Y006573D02*
X043425Y006573D01*
X043425Y006691D02*
X038135Y006691D01*
X034543Y009892D02*
X034227Y009892D01*
X034074Y010010D02*
X034644Y010010D01*
X034485Y010722D02*
X033896Y010722D01*
X034015Y010840D02*
X034521Y010840D01*
X034592Y010959D02*
X034133Y010959D01*
X034145Y011077D02*
X034749Y011077D01*
X031932Y012263D02*
X030937Y012263D01*
X031056Y012381D02*
X031814Y012381D01*
X031725Y012500D02*
X031145Y012500D01*
X031145Y012618D02*
X031725Y012618D01*
X031725Y012737D02*
X031145Y012737D01*
X031141Y012856D02*
X031729Y012856D01*
X031848Y012974D02*
X031022Y012974D01*
X030904Y013093D02*
X031966Y013093D01*
X031979Y013330D02*
X029640Y013330D01*
X029541Y013448D02*
X031860Y013448D01*
X032165Y013448D02*
X032205Y013448D01*
X032205Y013330D02*
X032165Y013330D01*
X032165Y013567D02*
X032205Y013567D01*
X032205Y013685D02*
X032165Y013685D01*
X032165Y013804D02*
X032205Y013804D01*
X032205Y013922D02*
X032165Y013922D01*
X028889Y015701D02*
X028481Y015701D01*
X028600Y015819D02*
X028770Y015819D01*
X027889Y015701D02*
X027481Y015701D01*
X027600Y015819D02*
X027770Y015819D01*
X026889Y015701D02*
X026481Y015701D01*
X026600Y015819D02*
X026770Y015819D01*
X025651Y015938D02*
X023612Y015938D01*
X023645Y016056D02*
X025650Y016056D01*
X025650Y016175D02*
X023645Y016175D01*
X023645Y016293D02*
X024402Y016293D01*
X024283Y016412D02*
X023584Y016412D01*
X023466Y016530D02*
X024225Y016530D01*
X024968Y016293D02*
X025650Y016293D01*
X025679Y016412D02*
X025086Y016412D01*
X025145Y016530D02*
X025798Y016530D01*
X025948Y017360D02*
X024075Y017360D01*
X024075Y017479D02*
X025830Y017479D01*
X025805Y017597D02*
X024075Y017597D01*
X024033Y018071D02*
X026945Y018071D01*
X026826Y017953D02*
X026430Y017953D01*
X026549Y017834D02*
X026725Y017834D01*
X026725Y017716D02*
X026565Y017716D01*
X026565Y017597D02*
X026725Y017597D01*
X026725Y017479D02*
X026540Y017479D01*
X023245Y017834D02*
X023125Y017834D01*
X023125Y017716D02*
X021155Y017716D01*
X021155Y017834D02*
X022295Y017834D01*
X022295Y017953D02*
X021155Y017953D01*
X021155Y018063D02*
X020587Y018631D01*
X019783Y018631D01*
X019215Y018063D01*
X019215Y017259D01*
X019783Y016691D01*
X020587Y016691D01*
X021155Y017259D01*
X021155Y018063D01*
X021146Y018071D02*
X022337Y018071D01*
X022455Y018190D02*
X021027Y018190D01*
X020909Y018309D02*
X022574Y018309D01*
X022693Y018427D02*
X020790Y018427D01*
X020672Y018546D02*
X022811Y018546D01*
X023125Y018546D02*
X023245Y018546D01*
X023245Y018427D02*
X023125Y018427D01*
X023125Y018309D02*
X023245Y018309D01*
X023245Y018190D02*
X023125Y018190D01*
X023125Y018071D02*
X023245Y018071D01*
X023245Y017953D02*
X023125Y017953D01*
X022295Y017597D02*
X021155Y017597D01*
X021155Y017479D02*
X022295Y017479D01*
X022295Y017360D02*
X021155Y017360D01*
X021137Y017242D02*
X022345Y017242D01*
X022464Y017123D02*
X021019Y017123D01*
X020900Y017005D02*
X021378Y017005D01*
X021260Y016886D02*
X020782Y016886D01*
X020663Y016767D02*
X021225Y016767D01*
X021225Y016649D02*
X017525Y016649D01*
X017525Y016530D02*
X021225Y016530D01*
X021283Y016412D02*
X017525Y016412D01*
X017533Y016293D02*
X021402Y016293D01*
X021992Y017005D02*
X022582Y017005D01*
X019706Y016767D02*
X017663Y016767D01*
X017782Y016886D02*
X019588Y016886D01*
X019469Y017005D02*
X017900Y017005D01*
X018019Y017123D02*
X019351Y017123D01*
X019232Y017242D02*
X018137Y017242D01*
X018155Y017360D02*
X019215Y017360D01*
X019215Y017479D02*
X018155Y017479D01*
X018155Y017597D02*
X019215Y017597D01*
X019215Y017716D02*
X018155Y017716D01*
X018155Y017834D02*
X019215Y017834D01*
X019215Y017953D02*
X018155Y017953D01*
X018146Y018071D02*
X019224Y018071D01*
X019342Y018190D02*
X018027Y018190D01*
X017909Y018309D02*
X019461Y018309D01*
X019579Y018427D02*
X017790Y018427D01*
X017672Y018546D02*
X019698Y018546D01*
X017345Y015463D02*
X016420Y015463D01*
X016538Y015345D02*
X017345Y015345D01*
X017345Y015226D02*
X016565Y015226D01*
X016565Y015108D02*
X017345Y015108D01*
X017345Y014989D02*
X016551Y014989D01*
X016432Y014871D02*
X017345Y014871D01*
X017345Y014752D02*
X014025Y014752D01*
X014025Y014634D02*
X017345Y014634D01*
X017345Y014515D02*
X014025Y014515D01*
X014025Y014397D02*
X017345Y014397D01*
X017345Y014278D02*
X014025Y014278D01*
X014955Y014041D02*
X015915Y014041D01*
X015796Y013922D02*
X015074Y013922D01*
X015145Y013804D02*
X015725Y013804D01*
X015725Y013685D02*
X015145Y013685D01*
X015145Y013567D02*
X015725Y013567D01*
X015747Y013448D02*
X015123Y013448D01*
X015004Y013330D02*
X015865Y013330D01*
X015984Y013211D02*
X014886Y013211D01*
X016027Y011541D02*
X015805Y011318D01*
X015805Y011181D01*
X016165Y011181D01*
X016165Y011541D01*
X016027Y011541D01*
X015920Y011433D02*
X011025Y011433D01*
X011025Y011314D02*
X015805Y011314D01*
X015805Y011196D02*
X011025Y011196D01*
X011025Y011077D02*
X015805Y011077D01*
X015805Y011141D02*
X015805Y011003D01*
X016027Y010781D01*
X016165Y010781D01*
X016165Y011141D01*
X015805Y011141D01*
X015849Y010959D02*
X012685Y010959D01*
X012827Y010840D02*
X015968Y010840D01*
X016165Y010840D02*
X016205Y010840D01*
X016205Y010781D02*
X016342Y010781D01*
X016565Y011003D01*
X016565Y011141D01*
X016205Y011141D01*
X016205Y011181D01*
X016165Y011181D01*
X016165Y011141D01*
X016205Y011141D01*
X016205Y010781D01*
X016205Y010959D02*
X016165Y010959D01*
X016165Y011077D02*
X016205Y011077D01*
X016205Y011181D02*
X016565Y011181D01*
X016565Y011318D01*
X016342Y011541D01*
X016205Y011541D01*
X016205Y011181D01*
X016205Y011196D02*
X016165Y011196D01*
X016165Y011314D02*
X016205Y011314D01*
X016205Y011433D02*
X016165Y011433D01*
X016450Y011433D02*
X017345Y011433D01*
X017345Y011314D02*
X016565Y011314D01*
X016565Y011196D02*
X017239Y011196D01*
X017121Y011077D02*
X016565Y011077D01*
X016520Y010959D02*
X017002Y010959D01*
X016884Y010840D02*
X016402Y010840D01*
X017345Y011552D02*
X011056Y011552D01*
X011175Y011670D02*
X017345Y011670D01*
X018025Y012263D02*
X021432Y012263D01*
X021314Y012381D02*
X018025Y012381D01*
X018025Y012500D02*
X021225Y012500D01*
X021225Y012618D02*
X018025Y012618D01*
X018025Y012737D02*
X021225Y012737D01*
X021229Y012856D02*
X018025Y012856D01*
X018025Y012974D02*
X021348Y012974D01*
X021466Y013093D02*
X018025Y013093D01*
X018025Y014278D02*
X022805Y014278D01*
X022883Y014397D02*
X018025Y014397D01*
X018025Y014515D02*
X023002Y014515D01*
X022805Y014041D02*
X020455Y014041D01*
X020574Y013922D02*
X022886Y013922D01*
X021144Y010010D02*
X020574Y010010D01*
X020727Y009892D02*
X021043Y009892D01*
X019962Y008588D02*
X016408Y008588D01*
X016527Y008469D02*
X019843Y008469D01*
X019725Y008351D02*
X019725Y007970D01*
X019818Y007877D02*
X016551Y007877D01*
X016433Y007758D02*
X019937Y007758D01*
X019680Y007047D02*
X019552Y007047D01*
X019562Y006928D02*
X019433Y006928D01*
X019509Y006810D02*
X019315Y006810D01*
X019196Y006691D02*
X019485Y006691D01*
X019485Y006573D02*
X019078Y006573D01*
X018959Y006454D02*
X019533Y006454D01*
X019619Y006336D02*
X018841Y006336D01*
X018722Y006217D02*
X019814Y006217D01*
X020556Y006217D02*
X020920Y006217D01*
X020868Y006099D02*
X018603Y006099D01*
X018485Y005980D02*
X020819Y005980D01*
X020792Y005861D02*
X018366Y005861D01*
X018248Y005743D02*
X020792Y005743D01*
X020792Y005624D02*
X018129Y005624D01*
X018011Y005506D02*
X020792Y005506D01*
X020792Y005387D02*
X017892Y005387D01*
X017470Y004913D02*
X020792Y004913D01*
X020792Y004795D02*
X017565Y004795D01*
X017565Y004818D02*
X017342Y005041D01*
X017205Y005041D01*
X017205Y004681D01*
X017165Y004681D01*
X017165Y005041D01*
X017027Y005041D01*
X016805Y004818D01*
X016805Y004681D01*
X017165Y004681D01*
X017165Y004641D01*
X016805Y004641D01*
X016805Y004503D01*
X017027Y004281D01*
X017165Y004281D01*
X017165Y004641D01*
X017205Y004641D01*
X017205Y004681D01*
X017565Y004681D01*
X017565Y004818D01*
X017565Y004641D02*
X017205Y004641D01*
X017205Y004281D01*
X017342Y004281D01*
X017565Y004503D01*
X017565Y004641D01*
X017565Y004557D02*
X020792Y004557D01*
X020792Y004439D02*
X017500Y004439D01*
X017382Y004320D02*
X020828Y004320D01*
X020877Y004202D02*
X016376Y004202D01*
X016375Y004201D02*
X016645Y004470D01*
X016645Y004851D01*
X016375Y005121D01*
X015994Y005121D01*
X015725Y004851D01*
X015725Y004470D01*
X015994Y004201D01*
X016375Y004201D01*
X016495Y004320D02*
X016988Y004320D01*
X016869Y004439D02*
X016614Y004439D01*
X016645Y004557D02*
X016805Y004557D01*
X016645Y004676D02*
X017165Y004676D01*
X017205Y004676D02*
X020792Y004676D01*
X020792Y005032D02*
X017351Y005032D01*
X017205Y005032D02*
X017165Y005032D01*
X017165Y004913D02*
X017205Y004913D01*
X017205Y004795D02*
X017165Y004795D01*
X017165Y004557D02*
X017205Y004557D01*
X017205Y004439D02*
X017165Y004439D01*
X017165Y004320D02*
X017205Y004320D01*
X016805Y004795D02*
X016645Y004795D01*
X016583Y004913D02*
X016900Y004913D01*
X017018Y005032D02*
X016464Y005032D01*
X015905Y005032D02*
X014851Y005032D01*
X014842Y005041D02*
X014705Y005041D01*
X014705Y004681D01*
X014665Y004681D01*
X014665Y005041D01*
X014527Y005041D01*
X014305Y004818D01*
X014305Y004681D01*
X014665Y004681D01*
X014665Y004641D01*
X014305Y004641D01*
X014305Y004503D01*
X014527Y004281D01*
X014665Y004281D01*
X014665Y004641D01*
X014705Y004641D01*
X014705Y004681D01*
X015065Y004681D01*
X015065Y004818D01*
X014842Y005041D01*
X014705Y005032D02*
X014665Y005032D01*
X014665Y004913D02*
X014705Y004913D01*
X014705Y004795D02*
X014665Y004795D01*
X014665Y004676D02*
X013077Y004676D01*
X013077Y004557D02*
X014305Y004557D01*
X014369Y004439D02*
X013077Y004439D01*
X013042Y004320D02*
X014488Y004320D01*
X014665Y004320D02*
X014705Y004320D01*
X014705Y004281D02*
X014842Y004281D01*
X015065Y004503D01*
X015065Y004641D01*
X014705Y004641D01*
X014705Y004281D01*
X014705Y004439D02*
X014665Y004439D01*
X014665Y004557D02*
X014705Y004557D01*
X014705Y004676D02*
X015725Y004676D01*
X015725Y004557D02*
X015065Y004557D01*
X015000Y004439D02*
X015756Y004439D01*
X015875Y004320D02*
X014882Y004320D01*
X015065Y004795D02*
X015725Y004795D01*
X015787Y004913D02*
X014970Y004913D01*
X014943Y005269D02*
X020792Y005269D01*
X020792Y005150D02*
X013077Y005150D01*
X013077Y005032D02*
X014518Y005032D01*
X014400Y004913D02*
X013077Y004913D01*
X013077Y004795D02*
X014305Y004795D01*
X014426Y005269D02*
X013077Y005269D01*
X013077Y005387D02*
X014308Y005387D01*
X014225Y005506D02*
X013077Y005506D01*
X013077Y005624D02*
X014225Y005624D01*
X014225Y005743D02*
X013077Y005743D01*
X013077Y005861D02*
X014235Y005861D01*
X014354Y005980D02*
X013050Y005980D01*
X013001Y006099D02*
X014472Y006099D01*
X014648Y006217D02*
X012950Y006217D01*
X015062Y005387D02*
X015478Y005387D01*
X015359Y005506D02*
X015145Y005506D01*
X015145Y005624D02*
X015240Y005624D01*
X015993Y004202D02*
X012993Y004202D01*
X012929Y004083D02*
X020941Y004083D01*
X021059Y003965D02*
X012810Y003965D01*
X012645Y003846D02*
X021225Y003846D01*
X021985Y003846D02*
X022805Y003846D01*
X022639Y003965D02*
X022150Y003965D01*
X022269Y004083D02*
X022521Y004083D01*
X022457Y004202D02*
X022333Y004202D01*
X022382Y004320D02*
X022408Y004320D01*
X023565Y003846D02*
X024385Y003846D01*
X024219Y003965D02*
X023730Y003965D01*
X023849Y004083D02*
X024101Y004083D01*
X024037Y004202D02*
X023913Y004202D01*
X023962Y004320D02*
X023988Y004320D01*
X025769Y004557D02*
X026805Y004557D01*
X026869Y004439D02*
X025887Y004439D01*
X026006Y004320D02*
X026988Y004320D01*
X027565Y004795D02*
X029225Y004795D01*
X029287Y004913D02*
X027470Y004913D01*
X027351Y005032D02*
X029405Y005032D01*
X024080Y006217D02*
X023870Y006217D01*
X023921Y006099D02*
X024028Y006099D01*
X023979Y005980D02*
X023970Y005980D01*
X024029Y006336D02*
X023752Y006336D01*
X023616Y006454D02*
X023911Y006454D01*
X023792Y006573D02*
X020885Y006573D01*
X020885Y006691D02*
X023674Y006691D01*
X023555Y006810D02*
X020861Y006810D01*
X020808Y006928D02*
X023436Y006928D01*
X023318Y007047D02*
X020689Y007047D01*
X020837Y006454D02*
X021174Y006454D01*
X021038Y006336D02*
X020750Y006336D01*
X022036Y006454D02*
X022754Y006454D01*
X022618Y006336D02*
X022172Y006336D01*
X022290Y006217D02*
X022500Y006217D01*
X022448Y006099D02*
X022341Y006099D01*
X022390Y005980D02*
X022399Y005980D01*
X015937Y007758D02*
X007433Y007758D01*
X007551Y007877D02*
X015818Y007877D01*
X015725Y007995D02*
X007645Y007995D01*
X007645Y008114D02*
X015725Y008114D01*
X015725Y008232D02*
X007645Y008232D01*
X007408Y008588D02*
X008436Y008588D01*
X009496Y008351D02*
X010294Y008351D01*
X010135Y008469D02*
X009655Y008469D01*
X009774Y008588D02*
X010016Y008588D01*
X009955Y008706D02*
X009834Y008706D01*
X009884Y008825D02*
X009906Y008825D01*
X011076Y008351D02*
X011874Y008351D01*
X011715Y008469D02*
X011235Y008469D01*
X011354Y008588D02*
X011596Y008588D01*
X011535Y008706D02*
X011414Y008706D01*
X011464Y008825D02*
X011486Y008825D01*
X012934Y008588D02*
X015962Y008588D01*
X014277Y009418D02*
X013077Y009418D01*
X013077Y009536D02*
X014225Y009536D01*
X014225Y009655D02*
X013077Y009655D01*
X013077Y009773D02*
X014225Y009773D01*
X014266Y009892D02*
X013077Y009892D01*
X013077Y010010D02*
X014384Y010010D01*
X011845Y010959D02*
X011105Y010959D01*
X011247Y010840D02*
X011703Y010840D01*
X011584Y010722D02*
X011365Y010722D01*
X011419Y010603D02*
X011530Y010603D01*
X011481Y010485D02*
X011468Y010485D01*
X010345Y011077D02*
X007565Y011077D01*
X007565Y011196D02*
X010345Y011196D01*
X010345Y011314D02*
X007565Y011314D01*
X007450Y011433D02*
X010345Y011433D01*
X010265Y010959D02*
X009525Y010959D01*
X009667Y010840D02*
X010123Y010840D01*
X010004Y010722D02*
X009785Y010722D01*
X009839Y010603D02*
X009950Y010603D01*
X009901Y010485D02*
X009888Y010485D01*
X008685Y010959D02*
X007520Y010959D01*
X007402Y010840D02*
X008543Y010840D01*
X006849Y010959D02*
X003633Y010959D01*
X003645Y011077D02*
X006805Y011077D01*
X006805Y011196D02*
X003645Y011196D01*
X003645Y011314D02*
X006805Y011314D01*
X007574Y010010D02*
X008292Y010010D01*
X008292Y009892D02*
X007727Y009892D01*
X006680Y007047D02*
X003689Y007047D01*
X003808Y006928D02*
X006562Y006928D01*
X006509Y006810D02*
X003861Y006810D01*
X003885Y006691D02*
X006485Y006691D01*
X006485Y006573D02*
X003885Y006573D01*
X003837Y006454D02*
X006533Y006454D01*
X006619Y006336D02*
X003750Y006336D01*
X003556Y006217D02*
X006814Y006217D01*
X008292Y005861D02*
X001945Y005861D01*
X001945Y005743D02*
X008292Y005743D01*
X008292Y005624D02*
X001945Y005624D01*
X001945Y005506D02*
X004379Y005506D01*
X004494Y005621D02*
X004225Y005351D01*
X004225Y004970D01*
X004494Y004701D01*
X004875Y004701D01*
X005145Y004970D01*
X005145Y005351D01*
X004875Y005621D01*
X004494Y005621D01*
X004261Y005387D02*
X001945Y005387D01*
X001945Y005269D02*
X004225Y005269D01*
X004225Y005150D02*
X001945Y005150D01*
X001945Y005032D02*
X004225Y005032D01*
X004282Y004913D02*
X001945Y004913D01*
X001945Y004795D02*
X004401Y004795D01*
X004969Y004795D02*
X005514Y004795D01*
X005527Y004781D02*
X005665Y004781D01*
X005665Y005141D01*
X005305Y005141D01*
X005305Y005003D01*
X005527Y004781D01*
X005665Y004795D02*
X005705Y004795D01*
X005705Y004781D02*
X005842Y004781D01*
X006065Y005003D01*
X006065Y005141D01*
X005705Y005141D01*
X005705Y005181D01*
X005665Y005181D01*
X005665Y005541D01*
X005527Y005541D01*
X005305Y005318D01*
X005305Y005181D01*
X005665Y005181D01*
X005665Y005141D01*
X005705Y005141D01*
X005705Y004781D01*
X005705Y004913D02*
X005665Y004913D01*
X005665Y005032D02*
X005705Y005032D01*
X005705Y005150D02*
X008292Y005150D01*
X008292Y005032D02*
X006065Y005032D01*
X006065Y005181D02*
X005705Y005181D01*
X005705Y005541D01*
X005842Y005541D01*
X006065Y005318D01*
X006065Y005181D01*
X006065Y005269D02*
X008292Y005269D01*
X008292Y005387D02*
X005996Y005387D01*
X005877Y005506D02*
X008292Y005506D01*
X008292Y004913D02*
X005975Y004913D01*
X005856Y004795D02*
X008292Y004795D01*
X009769Y004083D02*
X010021Y004083D01*
X009957Y004202D02*
X009833Y004202D01*
X009882Y004320D02*
X009908Y004320D01*
X010139Y003965D02*
X009650Y003965D01*
X009485Y003846D02*
X010305Y003846D01*
X011065Y003846D02*
X011885Y003846D01*
X011719Y003965D02*
X011230Y003965D01*
X011349Y004083D02*
X011601Y004083D01*
X011537Y004202D02*
X011413Y004202D01*
X011462Y004320D02*
X011488Y004320D01*
X008319Y005980D02*
X001945Y005980D01*
X004990Y005506D02*
X005493Y005506D01*
X005374Y005387D02*
X005109Y005387D01*
X005145Y005269D02*
X005305Y005269D01*
X005145Y005150D02*
X005665Y005150D01*
X005665Y005269D02*
X005705Y005269D01*
X005705Y005387D02*
X005665Y005387D01*
X005665Y005506D02*
X005705Y005506D01*
X005305Y005032D02*
X005145Y005032D01*
X005088Y004913D02*
X005395Y004913D01*
X003359Y004651D02*
X003359Y004651D01*
X003237Y004651D02*
X003237Y004651D01*
X003010Y004651D02*
X003010Y004651D01*
X004024Y003135D02*
X041345Y003135D01*
X041414Y003016D02*
X003956Y003016D01*
X003955Y003015D02*
X003955Y003015D01*
X003955Y003015D01*
X003816Y002898D02*
X041554Y002898D01*
X041712Y002779D02*
X003657Y002779D01*
X003237Y002671D02*
X003237Y002671D01*
X003010Y002671D02*
X003010Y002671D01*
X001945Y002542D02*
X043425Y002542D01*
X043425Y002424D02*
X001945Y002424D01*
X001945Y002305D02*
X043425Y002305D01*
X043425Y002187D02*
X001945Y002187D01*
X001945Y002068D02*
X043425Y002068D01*
X043425Y001950D02*
X001945Y001950D01*
X001945Y001831D02*
X043425Y001831D01*
X043425Y001712D02*
X001945Y001712D01*
X001945Y001594D02*
X043425Y001594D01*
X043425Y001475D02*
X001945Y001475D01*
X001945Y001357D02*
X043425Y001357D01*
X043425Y001238D02*
X001945Y001238D01*
X001945Y001120D02*
X043425Y001120D01*
X043425Y001001D02*
X001945Y001001D01*
X003010Y016671D02*
X003010Y016671D01*
X003237Y016671D02*
X003237Y016671D01*
X003237Y018651D02*
X003237Y018651D01*
X003359Y018651D02*
X003359Y018651D01*
X003010Y018651D02*
X003010Y018651D01*
X040445Y011552D02*
X041425Y011552D01*
X041307Y011433D02*
X040563Y011433D01*
X040645Y011314D02*
X041225Y011314D01*
X041225Y011196D02*
X040645Y011196D01*
X040645Y011077D02*
X041225Y011077D01*
X041236Y010959D02*
X040633Y010959D01*
X040515Y010840D02*
X041355Y010840D01*
X041473Y010722D02*
X040396Y010722D01*
X042010Y002671D02*
X042010Y002671D01*
X042237Y002671D02*
X042237Y002671D01*
D16*
X038185Y004161D02*
X038185Y005081D01*
X038265Y005161D01*
X038265Y006081D01*
X037685Y006661D01*
X037685Y010161D01*
X032685Y015161D01*
X032685Y017661D01*
X017685Y015661D02*
X017685Y011161D01*
X016185Y009661D01*
X013185Y012161D02*
X013685Y012661D01*
X013685Y017661D01*
X017185Y017661D02*
X017185Y016161D01*
X017685Y015661D01*
X013185Y012161D02*
X011185Y012161D01*
X010685Y011661D01*
X010685Y009661D01*
X010185Y006661D02*
X009185Y005661D01*
X009185Y005161D01*
X009105Y005161D01*
X010185Y006661D02*
X014685Y006661D01*
X015685Y005661D01*
X017685Y005661D01*
X019435Y007411D01*
X023435Y007411D01*
X024765Y006081D01*
X024765Y005161D01*
X024765Y005081D02*
X026185Y003661D01*
X037685Y003661D01*
X038185Y004161D01*
D17*
X024765Y005081D02*
X024765Y005161D01*
M02*
