G75*
G70*
%OFA0B0*%
%FSLAX24Y24*%
%IPPOS*%
%LPD*%
%AMOC8*
5,1,8,0,0,1.08239X$1,22.5*
%
%ADD10OC8,0.0690*%
%ADD11OC8,0.0540*%
%ADD12C,0.1245*%
%ADD13C,0.0540*%
%ADD14OC8,0.1560*%
%ADD15C,0.1360*%
D10*
X026185Y013685D03*
X027185Y013685D03*
X028185Y013685D03*
X029185Y013685D03*
X029185Y016685D03*
X028185Y016685D03*
X027185Y016685D03*
X026185Y016685D03*
D11*
X024685Y017185D03*
X023185Y016685D03*
X021685Y017185D03*
X023185Y015685D03*
X023185Y014685D03*
X023185Y013685D03*
X024685Y013185D03*
X025185Y011685D03*
X026685Y011685D03*
X028185Y011685D03*
X029685Y011685D03*
X030685Y013185D03*
X032185Y013185D03*
X032185Y014185D03*
X033685Y011685D03*
X038685Y011685D03*
X040185Y011685D03*
X041685Y011685D03*
X033685Y008685D03*
X029685Y008685D03*
X028185Y007685D03*
X026685Y007685D03*
X025185Y007685D03*
X027185Y006185D03*
X027185Y005185D03*
X029685Y005185D03*
X030685Y005185D03*
X038685Y007685D03*
X040185Y007685D03*
X041685Y007685D03*
X040685Y006185D03*
X040685Y005185D03*
X021685Y013185D03*
X020185Y014185D03*
X020185Y015685D03*
X016185Y015685D03*
X016185Y014185D03*
X014685Y014185D03*
X016185Y011685D03*
X014685Y010185D03*
X016185Y008685D03*
X020185Y008685D03*
X014685Y006185D03*
X014685Y005185D03*
X016185Y005185D03*
X017185Y005185D03*
X007185Y008685D03*
X003185Y008685D03*
X003185Y011685D03*
X007185Y011685D03*
X007185Y013685D03*
X007185Y014685D03*
X020185Y011685D03*
X030685Y017185D03*
X027185Y018185D03*
X026185Y018185D03*
X005685Y005685D03*
X004685Y005685D03*
D12*
X009105Y005092D02*
X009105Y006277D01*
X010685Y006277D02*
X010685Y005092D01*
X012265Y005092D02*
X012265Y006277D01*
X012265Y009592D02*
X012265Y010777D01*
X010685Y010777D02*
X010685Y009592D01*
X009105Y009592D02*
X009105Y010777D01*
X009105Y014092D02*
X009105Y015277D01*
X010685Y015277D02*
X010685Y014092D01*
X012265Y014092D02*
X012265Y015277D01*
X021605Y006277D02*
X021605Y005092D01*
X023185Y005092D02*
X023185Y006277D01*
X024765Y006277D02*
X024765Y005092D01*
X035105Y005092D02*
X035105Y006277D01*
X036685Y006277D02*
X036685Y005092D01*
X038265Y005092D02*
X038265Y006277D01*
D13*
X033925Y007185D02*
X033445Y007185D01*
X029925Y007185D02*
X029445Y007185D01*
X034945Y009185D02*
X035425Y009185D01*
X035425Y010185D02*
X034945Y010185D01*
X033925Y010185D02*
X033445Y010185D01*
X034945Y011185D02*
X035425Y011185D01*
X029925Y010185D02*
X029445Y010185D01*
X021925Y010185D02*
X021445Y010185D01*
X020425Y010185D02*
X019945Y010185D01*
X021445Y011185D02*
X021925Y011185D01*
X021925Y009185D02*
X021445Y009185D01*
X020425Y007185D02*
X019945Y007185D01*
X016425Y007185D02*
X015945Y007185D01*
X015945Y010185D02*
X016425Y010185D01*
X007425Y010185D02*
X006945Y010185D01*
X003425Y010185D02*
X002945Y010185D01*
X002945Y007185D02*
X003425Y007185D01*
X006945Y007185D02*
X007425Y007185D01*
X005185Y013445D02*
X005185Y013925D01*
X004185Y013925D02*
X004185Y013445D01*
X003185Y013445D02*
X003185Y013925D01*
D14*
X013685Y018185D03*
X017185Y018185D03*
X020185Y018185D03*
X023185Y018185D03*
X032685Y018185D03*
X035185Y018185D03*
X037685Y018185D03*
X040185Y018185D03*
D15*
X003185Y004185D03*
X003185Y018185D03*
X042185Y018185D03*
X042185Y004185D03*
M02*
