G75*
G70*
%OFA0B0*%
%FSLAX24Y24*%
%IPPOS*%
%LPD*%
%AMOC8*
5,1,8,0,0,1.08239X$1,22.5*
%
%ADD10C,0.0030*%
%ADD11C,0.0060*%
%ADD12C,0.0240*%
%ADD13R,0.0240X0.0340*%
%ADD14C,0.0120*%
%ADD15R,0.0340X0.0240*%
%ADD16C,0.0100*%
%ADD17R,0.0300X0.1200*%
%ADD18C,0.0000*%
%ADD19C,0.0050*%
%ADD20C,0.0010*%
D10*
X002200Y001676D02*
X002200Y001923D01*
X002323Y002046D01*
X002447Y001923D01*
X002447Y001676D01*
X002568Y001676D02*
X002568Y001923D01*
X002692Y001923D02*
X002753Y001923D01*
X002692Y001923D02*
X002568Y001799D01*
X002447Y001861D02*
X002200Y001861D01*
X002875Y001861D02*
X002937Y001923D01*
X003122Y001923D01*
X003243Y001923D02*
X003243Y001737D01*
X003305Y001676D01*
X003490Y001676D01*
X003490Y001923D01*
X003612Y001923D02*
X003673Y001923D01*
X003673Y001676D01*
X003612Y001676D02*
X003735Y001676D01*
X003857Y001676D02*
X003857Y001923D01*
X004042Y001923D01*
X004104Y001861D01*
X004104Y001676D01*
X004226Y001737D02*
X004287Y001676D01*
X004411Y001676D01*
X004472Y001737D01*
X004472Y001861D01*
X004411Y001923D01*
X004287Y001923D01*
X004226Y001861D01*
X004226Y001737D01*
X003936Y001546D02*
X003936Y001176D01*
X003815Y001176D02*
X003815Y001423D01*
X003936Y001299D02*
X004122Y001423D01*
X004243Y001361D02*
X004305Y001423D01*
X004429Y001423D01*
X004490Y001361D01*
X004490Y001299D01*
X004243Y001299D01*
X004243Y001237D02*
X004243Y001361D01*
X004243Y001237D02*
X004305Y001176D01*
X004429Y001176D01*
X004122Y001176D02*
X003936Y001299D01*
X003815Y001176D02*
X003630Y001176D01*
X003568Y001237D01*
X003568Y001423D01*
X003447Y001176D02*
X003200Y001176D01*
X003200Y001546D01*
X003122Y001676D02*
X002937Y001676D01*
X002875Y001737D01*
X002875Y001861D01*
X003122Y002046D02*
X003122Y001676D01*
X003673Y002046D02*
X003673Y002108D01*
X004594Y002046D02*
X004594Y001676D01*
X004841Y001676D01*
X004962Y001737D02*
X005024Y001799D01*
X005209Y001799D01*
X005209Y001861D02*
X005209Y001676D01*
X005024Y001676D01*
X004962Y001737D01*
X004980Y001546D02*
X004980Y001176D01*
X005103Y001299D01*
X005227Y001176D01*
X005227Y001546D01*
X005330Y001676D02*
X005516Y001676D01*
X005577Y001737D01*
X005577Y001861D01*
X005516Y001923D01*
X005330Y001923D01*
X005330Y002046D02*
X005330Y001676D01*
X005209Y001861D02*
X005147Y001923D01*
X005024Y001923D01*
X006067Y001984D02*
X006067Y001737D01*
X006129Y001676D01*
X006252Y001676D01*
X006314Y001737D01*
X006314Y001984D01*
X006252Y002046D01*
X006129Y002046D01*
X006067Y001984D01*
X006435Y001923D02*
X006621Y001923D01*
X006682Y001861D01*
X006682Y001737D01*
X006621Y001676D01*
X006435Y001676D01*
X006435Y001552D02*
X006435Y001923D01*
X006804Y001861D02*
X006865Y001923D01*
X006989Y001923D01*
X007051Y001861D01*
X007051Y001799D01*
X006804Y001799D01*
X006804Y001737D02*
X006804Y001861D01*
X006804Y001737D02*
X006865Y001676D01*
X006989Y001676D01*
X007172Y001676D02*
X007172Y001923D01*
X007357Y001923D01*
X007419Y001861D01*
X007419Y001676D01*
X007540Y001861D02*
X007787Y001861D01*
X007909Y001984D02*
X007909Y001737D01*
X007970Y001676D01*
X008094Y001676D01*
X008155Y001737D01*
X008277Y001737D02*
X008339Y001676D01*
X008462Y001676D01*
X008524Y001737D01*
X008524Y001861D01*
X008462Y001923D01*
X008339Y001923D01*
X008277Y001861D01*
X008277Y001737D01*
X008234Y001546D02*
X008111Y001546D01*
X008049Y001484D01*
X008049Y001237D01*
X008296Y001484D01*
X008296Y001237D01*
X008234Y001176D01*
X008111Y001176D01*
X008049Y001237D01*
X007928Y001176D02*
X007681Y001176D01*
X007928Y001423D01*
X007928Y001484D01*
X007866Y001546D01*
X007743Y001546D01*
X007681Y001484D01*
X007190Y001237D02*
X007129Y001237D01*
X007129Y001176D01*
X007190Y001176D01*
X007190Y001237D01*
X007190Y001176D02*
X007067Y001052D01*
X006946Y001176D02*
X006946Y001361D01*
X006884Y001423D01*
X006699Y001423D01*
X006699Y001176D01*
X006577Y001237D02*
X006577Y001361D01*
X006516Y001423D01*
X006392Y001423D01*
X006330Y001361D01*
X006330Y001237D01*
X006392Y001176D01*
X006516Y001176D01*
X006577Y001237D01*
X006208Y001176D02*
X006147Y001237D01*
X006147Y001484D01*
X006085Y001423D02*
X006208Y001423D01*
X005963Y001423D02*
X005778Y001423D01*
X005717Y001361D01*
X005778Y001299D01*
X005902Y001299D01*
X005963Y001237D01*
X005902Y001176D01*
X005717Y001176D01*
X005595Y001299D02*
X005348Y001299D01*
X005348Y001237D02*
X005348Y001361D01*
X005410Y001423D01*
X005533Y001423D01*
X005595Y001361D01*
X005595Y001299D01*
X005533Y001176D02*
X005410Y001176D01*
X005348Y001237D01*
X007909Y001984D02*
X007970Y002046D01*
X008094Y002046D01*
X008155Y001984D01*
X008234Y001546D02*
X008296Y001484D01*
X008417Y001423D02*
X008541Y001546D01*
X008541Y001176D01*
X008664Y001176D02*
X008417Y001176D01*
X008786Y001176D02*
X009033Y001176D01*
X008909Y001176D02*
X008909Y001546D01*
X008786Y001423D01*
X008769Y001676D02*
X008645Y001676D01*
X008707Y001676D02*
X008707Y002046D01*
X008645Y002046D01*
X008891Y002046D02*
X008952Y002046D01*
X008952Y001676D01*
X008891Y001676D02*
X009014Y001676D01*
X009136Y001737D02*
X009136Y001861D01*
X009198Y001923D01*
X009321Y001923D01*
X009383Y001861D01*
X009383Y001799D01*
X009136Y001799D01*
X009136Y001737D02*
X009198Y001676D01*
X009321Y001676D01*
X009505Y001737D02*
X009566Y001676D01*
X009751Y001676D01*
X009935Y001737D02*
X009996Y001676D01*
X009935Y001737D02*
X009935Y001984D01*
X009873Y001923D02*
X009996Y001923D01*
X010118Y001861D02*
X010180Y001923D01*
X010304Y001923D01*
X010365Y001861D01*
X010365Y001737D01*
X010304Y001676D01*
X010180Y001676D01*
X010118Y001737D01*
X010118Y001861D01*
X009751Y001923D02*
X009566Y001923D01*
X009505Y001861D01*
X009505Y001737D01*
X010487Y001676D02*
X010487Y001923D01*
X010610Y001923D02*
X010672Y001923D01*
X010610Y001923D02*
X010487Y001799D01*
X011162Y001737D02*
X011224Y001676D01*
X011347Y001676D01*
X011409Y001737D01*
X011409Y001984D01*
X011347Y002046D01*
X011224Y002046D01*
X011162Y001984D01*
X011162Y001737D01*
X011530Y001737D02*
X011592Y001676D01*
X011777Y001676D01*
X011777Y001923D01*
X011898Y001923D02*
X012022Y001923D01*
X011960Y001984D02*
X011960Y001737D01*
X012022Y001676D01*
X012144Y001676D02*
X012329Y001676D01*
X012391Y001737D01*
X012391Y001861D01*
X012329Y001923D01*
X012144Y001923D01*
X012144Y001552D01*
X012512Y001737D02*
X012574Y001676D01*
X012759Y001676D01*
X012759Y001923D01*
X012881Y001923D02*
X013004Y001923D01*
X012942Y001984D02*
X012942Y001737D01*
X013004Y001676D01*
X013494Y001676D02*
X013680Y001676D01*
X013741Y001737D01*
X013741Y001799D01*
X013680Y001861D01*
X013494Y001861D01*
X013494Y001676D02*
X013494Y002046D01*
X013680Y002046D01*
X013741Y001984D01*
X013741Y001923D01*
X013680Y001861D01*
X013863Y001861D02*
X013863Y001737D01*
X013924Y001676D01*
X014048Y001676D01*
X014110Y001737D01*
X014110Y001861D01*
X014048Y001923D01*
X013924Y001923D01*
X013863Y001861D01*
X014231Y001737D02*
X014293Y001676D01*
X014478Y001676D01*
X014478Y001861D01*
X014416Y001923D01*
X014293Y001923D01*
X014293Y001799D02*
X014478Y001799D01*
X014599Y001799D02*
X014723Y001923D01*
X014784Y001923D01*
X014906Y001861D02*
X014968Y001923D01*
X015153Y001923D01*
X015153Y002046D02*
X015153Y001676D01*
X014968Y001676D01*
X014906Y001737D01*
X014906Y001861D01*
X014599Y001923D02*
X014599Y001676D01*
X014293Y001799D02*
X014231Y001737D01*
X012512Y001737D02*
X012512Y001923D01*
X011530Y001923D02*
X011530Y001737D01*
X011478Y002876D02*
X011725Y002876D01*
X011846Y002937D02*
X011908Y002876D01*
X012031Y002876D01*
X012093Y002937D01*
X012093Y003246D01*
X012215Y003246D02*
X012400Y003246D01*
X012461Y003184D01*
X012461Y003061D01*
X012400Y002999D01*
X012215Y002999D01*
X012215Y002876D02*
X012215Y003246D01*
X011846Y003246D02*
X011846Y002937D01*
X011478Y002876D02*
X011478Y003246D01*
X011110Y003246D02*
X011110Y002876D01*
X011357Y002876D01*
X010988Y002937D02*
X010988Y003246D01*
X010741Y003246D02*
X010741Y002937D01*
X010803Y002876D01*
X010927Y002876D01*
X010988Y002937D01*
X010620Y003061D02*
X010558Y002999D01*
X010373Y002999D01*
X010373Y002876D02*
X010373Y003246D01*
X010558Y003246D01*
X010620Y003184D01*
X010620Y003061D01*
X009883Y002876D02*
X009636Y002876D01*
X009515Y002876D02*
X009515Y003246D01*
X009636Y003123D02*
X009760Y003246D01*
X009760Y002876D01*
X009515Y003061D02*
X009268Y003061D01*
X009147Y003184D02*
X009085Y003246D01*
X008962Y003246D01*
X008900Y003184D01*
X008900Y002937D01*
X008962Y002876D01*
X009085Y002876D01*
X009147Y002937D01*
X009268Y002876D02*
X009268Y003246D01*
X006017Y004466D02*
X005823Y004466D01*
X005823Y004176D01*
X005722Y004176D02*
X005722Y004321D01*
X005674Y004369D01*
X005528Y004369D01*
X005528Y004176D01*
X005823Y004321D02*
X005920Y004321D01*
X005133Y004224D02*
X005084Y004176D01*
X004988Y004176D01*
X004939Y004224D01*
X005133Y004418D01*
X005133Y004224D01*
X005133Y004418D02*
X005084Y004466D01*
X004988Y004466D01*
X004939Y004418D01*
X004939Y004224D01*
X004838Y004418D02*
X004645Y004224D01*
X004645Y004176D01*
X004495Y004176D02*
X004495Y004466D01*
X004350Y004321D01*
X004543Y004321D01*
X004645Y004466D02*
X004838Y004466D01*
X004838Y004418D01*
X004843Y006176D02*
X004650Y006176D01*
X004747Y006176D02*
X004747Y006466D01*
X004650Y006369D01*
X004945Y006466D02*
X004945Y006176D01*
X005138Y006176D02*
X005138Y006466D01*
X005239Y006466D02*
X005239Y006321D01*
X005336Y006369D01*
X005384Y006369D01*
X005433Y006321D01*
X005433Y006224D01*
X005384Y006176D01*
X005288Y006176D01*
X005239Y006224D01*
X005138Y006176D02*
X004945Y006466D01*
X005239Y006466D02*
X005433Y006466D01*
X005534Y006418D02*
X005534Y006369D01*
X005582Y006321D01*
X005679Y006321D01*
X005727Y006273D01*
X005727Y006224D01*
X005679Y006176D01*
X005582Y006176D01*
X005534Y006224D01*
X005534Y006273D01*
X005582Y006321D01*
X005679Y006321D02*
X005727Y006369D01*
X005727Y006418D01*
X005679Y006466D01*
X005582Y006466D01*
X005534Y006418D01*
X005828Y006369D02*
X005925Y006466D01*
X005925Y006176D01*
X005828Y006176D02*
X006022Y006176D01*
X006123Y006224D02*
X006171Y006176D01*
X006268Y006176D01*
X006317Y006224D01*
X006317Y006418D01*
X006268Y006466D01*
X006171Y006466D01*
X006123Y006418D01*
X006123Y006369D01*
X006171Y006321D01*
X006317Y006321D01*
X007900Y007387D02*
X007962Y007326D01*
X008085Y007326D01*
X008147Y007387D01*
X008268Y007326D02*
X008268Y007696D01*
X008147Y007634D02*
X008085Y007696D01*
X007962Y007696D01*
X007900Y007634D01*
X007900Y007387D01*
X008268Y007511D02*
X008515Y007511D01*
X008636Y007573D02*
X008760Y007696D01*
X008760Y007326D01*
X008883Y007326D02*
X008636Y007326D01*
X008515Y007326D02*
X008515Y007696D01*
X009373Y007696D02*
X009373Y007326D01*
X009620Y007326D02*
X009620Y007696D01*
X009497Y007573D01*
X009373Y007696D01*
X009741Y007634D02*
X009741Y007387D01*
X009803Y007326D01*
X009927Y007326D01*
X009988Y007387D01*
X009988Y007634D01*
X009927Y007696D01*
X009803Y007696D01*
X009741Y007634D01*
X010110Y007696D02*
X010110Y007326D01*
X010295Y007326D01*
X010357Y007387D01*
X010357Y007634D01*
X010295Y007696D01*
X010110Y007696D01*
X010478Y007696D02*
X010478Y007326D01*
X010725Y007326D01*
X010601Y007511D02*
X010478Y007511D01*
X010478Y007696D02*
X010725Y007696D01*
X011215Y007634D02*
X011215Y007573D01*
X011276Y007511D01*
X011400Y007511D01*
X011461Y007449D01*
X011461Y007387D01*
X011400Y007326D01*
X011276Y007326D01*
X011215Y007387D01*
X011215Y007634D02*
X011276Y007696D01*
X011400Y007696D01*
X011461Y007634D01*
X011583Y007696D02*
X011583Y007326D01*
X011830Y007326D01*
X011951Y007326D02*
X012198Y007326D01*
X012320Y007326D02*
X012566Y007326D01*
X012688Y007387D02*
X012750Y007326D01*
X012873Y007326D01*
X012935Y007387D01*
X012688Y007387D02*
X012688Y007634D01*
X012750Y007696D01*
X012873Y007696D01*
X012935Y007634D01*
X013056Y007696D02*
X013303Y007696D01*
X013180Y007696D02*
X013180Y007326D01*
X012566Y007696D02*
X012320Y007696D01*
X012320Y007326D01*
X012320Y007511D02*
X012443Y007511D01*
X011951Y007696D02*
X011951Y007326D01*
X011706Y007511D02*
X011583Y007511D01*
X011583Y007696D02*
X011830Y007696D01*
X013700Y008676D02*
X013885Y008676D01*
X013947Y008737D01*
X013947Y008984D01*
X013885Y009046D01*
X013700Y009046D01*
X013700Y008676D01*
X014068Y008676D02*
X014253Y008676D01*
X014315Y008737D01*
X014315Y008984D01*
X014253Y009046D01*
X014068Y009046D01*
X014068Y008676D01*
X014436Y008737D02*
X014498Y008676D01*
X014622Y008676D01*
X014683Y008737D01*
X014683Y008799D01*
X014622Y008861D01*
X014498Y008861D01*
X014436Y008923D01*
X014436Y008984D01*
X014498Y009046D01*
X014622Y009046D01*
X014683Y008984D01*
X017650Y009476D02*
X017843Y009476D01*
X017747Y009476D02*
X017747Y009766D01*
X017650Y009669D01*
X017945Y009766D02*
X018138Y009476D01*
X018138Y009766D01*
X018239Y009621D02*
X018433Y009621D01*
X018534Y009718D02*
X018582Y009766D01*
X018679Y009766D01*
X018727Y009718D01*
X018534Y009524D01*
X018582Y009476D01*
X018679Y009476D01*
X018727Y009524D01*
X018727Y009718D01*
X018828Y009718D02*
X018877Y009766D01*
X018974Y009766D01*
X019022Y009718D01*
X018828Y009524D01*
X018877Y009476D01*
X018974Y009476D01*
X019022Y009524D01*
X019022Y009718D01*
X019123Y009621D02*
X019317Y009621D01*
X019268Y009766D02*
X019123Y009621D01*
X019268Y009476D02*
X019268Y009766D01*
X018828Y009718D02*
X018828Y009524D01*
X018534Y009524D02*
X018534Y009718D01*
X018384Y009766D02*
X018239Y009621D01*
X018384Y009476D02*
X018384Y009766D01*
X017945Y009766D02*
X017945Y009476D01*
X014070Y011131D02*
X013780Y011131D01*
X013925Y010986D01*
X013925Y011179D01*
X014022Y011280D02*
X014070Y011280D01*
X014022Y011280D02*
X013828Y011474D01*
X013780Y011474D01*
X013780Y011280D01*
X013828Y011575D02*
X013780Y011623D01*
X013780Y011720D01*
X013828Y011769D01*
X014022Y011575D01*
X014070Y011623D01*
X014070Y011720D01*
X014022Y011769D01*
X013828Y011769D01*
X013828Y011575D02*
X014022Y011575D01*
X014070Y012164D02*
X013780Y012164D01*
X013780Y012309D01*
X013828Y012358D01*
X013925Y012358D01*
X013973Y012309D01*
X013973Y012164D01*
X013973Y012261D02*
X014070Y012358D01*
X013116Y012146D02*
X012870Y012146D01*
X012870Y011776D01*
X013116Y011776D01*
X012993Y011961D02*
X012870Y011961D01*
X012748Y011776D02*
X012501Y011776D01*
X012501Y012146D01*
X012380Y012084D02*
X012380Y011961D01*
X012318Y011899D01*
X012133Y011899D01*
X012133Y011776D02*
X012133Y012146D01*
X012318Y012146D01*
X012380Y012084D01*
X012011Y012146D02*
X012011Y011837D01*
X011950Y011776D01*
X011826Y011776D01*
X011765Y011837D01*
X011765Y012146D01*
X011643Y012084D02*
X011581Y012146D01*
X011458Y012146D01*
X011396Y012084D01*
X011396Y011837D01*
X011458Y011776D01*
X011581Y011776D01*
X011643Y011837D01*
X011643Y012084D01*
X011275Y012084D02*
X011213Y012146D01*
X011090Y012146D01*
X011028Y012084D01*
X011028Y011837D01*
X011090Y011776D01*
X011213Y011776D01*
X011275Y011837D01*
X010538Y011837D02*
X010477Y011776D01*
X010353Y011776D01*
X010291Y011837D01*
X010291Y012084D01*
X010353Y012146D01*
X010477Y012146D01*
X010538Y012084D01*
X010170Y012023D02*
X010170Y011776D01*
X010170Y011961D02*
X009923Y011961D01*
X009923Y012023D02*
X010047Y012146D01*
X010170Y012023D01*
X009923Y012023D02*
X009923Y011776D01*
X009433Y011837D02*
X009372Y011776D01*
X009248Y011776D01*
X009186Y011837D01*
X009065Y011837D02*
X009065Y012084D01*
X009003Y012146D01*
X008818Y012146D01*
X008818Y011776D01*
X009003Y011776D01*
X009065Y011837D01*
X009248Y011961D02*
X009372Y011961D01*
X009433Y011899D01*
X009433Y011837D01*
X009248Y011961D02*
X009186Y012023D01*
X009186Y012084D01*
X009248Y012146D01*
X009372Y012146D01*
X009433Y012084D01*
X008697Y012084D02*
X008697Y011837D01*
X008635Y011776D01*
X008450Y011776D01*
X008450Y012146D01*
X008635Y012146D01*
X008697Y012084D01*
X006887Y012071D02*
X006839Y012023D01*
X006694Y012023D01*
X006791Y012023D02*
X006887Y011926D01*
X006887Y012071D02*
X006887Y012168D01*
X006839Y012216D01*
X006694Y012216D01*
X006694Y011926D01*
X006298Y011974D02*
X006250Y011926D01*
X006153Y011926D01*
X006105Y011974D01*
X006105Y012023D01*
X006153Y012071D01*
X006250Y012071D01*
X006298Y012023D01*
X006298Y011974D01*
X006250Y012071D02*
X006298Y012119D01*
X006298Y012168D01*
X006250Y012216D01*
X006153Y012216D01*
X006105Y012168D01*
X006105Y012119D01*
X006153Y012071D01*
X006003Y011926D02*
X005810Y011926D01*
X005907Y011926D02*
X005907Y012216D01*
X005810Y012119D01*
X005017Y012026D02*
X004823Y012026D01*
X005017Y012219D01*
X005017Y012268D01*
X004968Y012316D01*
X004871Y012316D01*
X004823Y012268D01*
X004722Y012268D02*
X004674Y012316D01*
X004577Y012316D01*
X004528Y012268D01*
X004427Y012268D02*
X004379Y012316D01*
X004282Y012316D01*
X004234Y012268D01*
X004133Y012268D02*
X004084Y012316D01*
X003988Y012316D01*
X003939Y012268D01*
X003838Y012316D02*
X003838Y012026D01*
X003645Y012316D01*
X003645Y012026D01*
X003543Y012026D02*
X003350Y012026D01*
X003543Y012219D01*
X003543Y012268D01*
X003495Y012316D01*
X003398Y012316D01*
X003350Y012268D01*
X003939Y012026D02*
X004133Y012219D01*
X004133Y012268D01*
X004133Y012026D02*
X003939Y012026D01*
X004234Y012026D02*
X004427Y012219D01*
X004427Y012268D01*
X004427Y012026D02*
X004234Y012026D01*
X004528Y012026D02*
X004722Y012219D01*
X004722Y012268D01*
X004722Y012026D02*
X004528Y012026D01*
X006230Y012973D02*
X006520Y012973D01*
X006520Y013069D02*
X006520Y012876D01*
X006326Y012876D02*
X006230Y012973D01*
X006278Y013170D02*
X006230Y013219D01*
X006230Y013316D01*
X006278Y013364D01*
X006472Y013170D01*
X006520Y013219D01*
X006520Y013316D01*
X006472Y013364D01*
X006278Y013364D01*
X006278Y013465D02*
X006230Y013513D01*
X006230Y013610D01*
X006278Y013659D01*
X006472Y013465D01*
X006520Y013513D01*
X006520Y013610D01*
X006472Y013659D01*
X006278Y013659D01*
X006278Y013465D02*
X006472Y013465D01*
X006472Y013170D02*
X006278Y013170D01*
X006326Y014054D02*
X006326Y014199D01*
X006375Y014248D01*
X006520Y014248D01*
X006520Y014349D02*
X006230Y014349D01*
X006230Y014542D01*
X006375Y014446D02*
X006375Y014349D01*
X006326Y014054D02*
X006520Y014054D01*
X007200Y015176D02*
X007385Y015176D01*
X007447Y015237D01*
X007447Y015484D01*
X007385Y015546D01*
X007200Y015546D01*
X007200Y015176D01*
X007568Y015237D02*
X007568Y015484D01*
X007630Y015546D01*
X007753Y015546D01*
X007815Y015484D01*
X007815Y015237D02*
X007753Y015176D01*
X007630Y015176D01*
X007568Y015237D01*
X011700Y016237D02*
X011762Y016176D01*
X011885Y016176D01*
X011947Y016237D01*
X012068Y016176D02*
X012068Y016546D01*
X011947Y016484D02*
X011885Y016546D01*
X011762Y016546D01*
X011700Y016484D01*
X011700Y016237D01*
X012068Y016361D02*
X012315Y016361D01*
X012436Y016423D02*
X012560Y016546D01*
X012560Y016176D01*
X012683Y016176D02*
X012436Y016176D01*
X012315Y016176D02*
X012315Y016546D01*
X013173Y016484D02*
X013173Y016237D01*
X013235Y016176D01*
X013358Y016176D01*
X013420Y016237D01*
X013420Y016484D01*
X013358Y016546D01*
X013235Y016546D01*
X013173Y016484D01*
X013541Y016546D02*
X013541Y016237D01*
X013603Y016176D01*
X013727Y016176D01*
X013788Y016237D01*
X013788Y016546D01*
X013910Y016546D02*
X014157Y016546D01*
X014033Y016546D02*
X014033Y016176D01*
X014130Y015546D02*
X014068Y015484D01*
X014068Y015237D01*
X014130Y015176D01*
X014253Y015176D01*
X014315Y015237D01*
X014315Y015484D02*
X014253Y015546D01*
X014130Y015546D01*
X013947Y015423D02*
X013947Y015176D01*
X013947Y015361D02*
X013700Y015361D01*
X013700Y015423D02*
X013700Y015176D01*
X013700Y015423D02*
X013823Y015546D01*
X013947Y015423D01*
X015700Y016237D02*
X015762Y016176D01*
X015885Y016176D01*
X015947Y016237D01*
X016068Y016176D02*
X016068Y016546D01*
X015947Y016484D02*
X015885Y016546D01*
X015762Y016546D01*
X015700Y016484D01*
X015700Y016237D01*
X016068Y016361D02*
X016315Y016361D01*
X016436Y016484D02*
X016498Y016546D01*
X016622Y016546D01*
X016683Y016484D01*
X016683Y016423D01*
X016436Y016176D01*
X016683Y016176D01*
X016315Y016176D02*
X016315Y016546D01*
X017173Y016484D02*
X017173Y016237D01*
X017235Y016176D01*
X017358Y016176D01*
X017420Y016237D01*
X017420Y016484D01*
X017358Y016546D01*
X017235Y016546D01*
X017173Y016484D01*
X017541Y016546D02*
X017541Y016237D01*
X017603Y016176D01*
X017727Y016176D01*
X017788Y016237D01*
X017788Y016546D01*
X017910Y016546D02*
X018157Y016546D01*
X018033Y016546D02*
X018033Y016176D01*
X019200Y016237D02*
X019262Y016176D01*
X019385Y016176D01*
X019447Y016237D01*
X019568Y016176D02*
X019568Y016546D01*
X019447Y016484D02*
X019385Y016546D01*
X019262Y016546D01*
X019200Y016484D01*
X019200Y016237D01*
X019568Y016361D02*
X019815Y016361D01*
X019936Y016423D02*
X020060Y016546D01*
X020060Y016176D01*
X020183Y016176D02*
X019936Y016176D01*
X019815Y016176D02*
X019815Y016546D01*
X020673Y016546D02*
X020797Y016546D01*
X020735Y016546D02*
X020735Y016176D01*
X020673Y016176D02*
X020797Y016176D01*
X020919Y016176D02*
X020919Y016546D01*
X021165Y016176D01*
X021165Y016546D01*
X023780Y016042D02*
X023780Y015849D01*
X024070Y015849D01*
X024070Y015748D02*
X023925Y015748D01*
X023876Y015699D01*
X023876Y015554D01*
X024070Y015554D01*
X024022Y015159D02*
X024070Y015110D01*
X024070Y015013D01*
X024022Y014965D01*
X023828Y015159D01*
X024022Y015159D01*
X024022Y014965D02*
X023828Y014965D01*
X023780Y015013D01*
X023780Y015110D01*
X023828Y015159D01*
X023828Y014864D02*
X024022Y014670D01*
X024070Y014719D01*
X024070Y014816D01*
X024022Y014864D01*
X023828Y014864D01*
X023780Y014816D01*
X023780Y014719D01*
X023828Y014670D01*
X024022Y014670D01*
X024070Y014569D02*
X024070Y014376D01*
X024070Y014473D02*
X023780Y014473D01*
X023876Y014376D01*
X024480Y014433D02*
X024770Y014433D01*
X024770Y014529D02*
X024770Y014336D01*
X024576Y014336D02*
X024480Y014433D01*
X024480Y014925D02*
X024770Y014925D01*
X024673Y014925D02*
X024576Y015070D01*
X024673Y014925D02*
X024770Y015070D01*
X023925Y015849D02*
X023925Y015946D01*
X021020Y015020D02*
X020923Y014875D01*
X020826Y015020D01*
X020730Y014875D02*
X021020Y014875D01*
X021020Y014479D02*
X021020Y014286D01*
X021020Y014383D02*
X020730Y014383D01*
X020826Y014286D01*
X018934Y014226D02*
X018788Y014323D01*
X018934Y014419D01*
X018788Y014516D02*
X018788Y014226D01*
X018393Y014274D02*
X018393Y014468D01*
X018199Y014274D01*
X018248Y014226D01*
X018344Y014226D01*
X018393Y014274D01*
X018393Y014468D02*
X018344Y014516D01*
X018248Y014516D01*
X018199Y014468D01*
X018199Y014274D01*
X018098Y014274D02*
X018098Y014468D01*
X017905Y014274D01*
X017953Y014226D01*
X018050Y014226D01*
X018098Y014274D01*
X017905Y014274D02*
X017905Y014468D01*
X017953Y014516D01*
X018050Y014516D01*
X018098Y014468D01*
X017803Y014226D02*
X017610Y014226D01*
X017707Y014226D02*
X017707Y014516D01*
X017610Y014419D01*
X017803Y013116D02*
X017707Y013068D01*
X017610Y012971D01*
X017755Y012971D01*
X017803Y012923D01*
X017803Y012874D01*
X017755Y012826D01*
X017658Y012826D01*
X017610Y012874D01*
X017610Y012971D01*
X017905Y013019D02*
X017905Y013068D01*
X017953Y013116D01*
X018050Y013116D01*
X018098Y013068D01*
X018098Y013019D01*
X018050Y012971D01*
X017953Y012971D01*
X017905Y013019D01*
X017953Y012971D02*
X017905Y012923D01*
X017905Y012874D01*
X017953Y012826D01*
X018050Y012826D01*
X018098Y012874D01*
X018098Y012923D01*
X018050Y012971D01*
X018199Y013068D02*
X018248Y013116D01*
X018344Y013116D01*
X018393Y013068D01*
X018199Y012874D01*
X018248Y012826D01*
X018344Y012826D01*
X018393Y012874D01*
X018393Y013068D01*
X018199Y013068D02*
X018199Y012874D01*
X018788Y012826D02*
X018788Y013116D01*
X018934Y013116D01*
X018982Y013068D01*
X018982Y012971D01*
X018934Y012923D01*
X018788Y012923D01*
X018885Y012923D02*
X018982Y012826D01*
X018907Y012216D02*
X018907Y011926D01*
X019003Y011926D02*
X018810Y011926D01*
X018810Y012119D02*
X018907Y012216D01*
X019105Y012168D02*
X019105Y012119D01*
X019153Y012071D01*
X019250Y012071D01*
X019298Y012023D01*
X019298Y011974D01*
X019250Y011926D01*
X019153Y011926D01*
X019105Y011974D01*
X019105Y012023D01*
X019153Y012071D01*
X019250Y012071D02*
X019298Y012119D01*
X019298Y012168D01*
X019250Y012216D01*
X019153Y012216D01*
X019105Y012168D01*
X019694Y012216D02*
X019839Y012216D01*
X019887Y012168D01*
X019887Y012071D01*
X019839Y012023D01*
X019694Y012023D01*
X019791Y012023D02*
X019887Y011926D01*
X019694Y011926D02*
X019694Y012216D01*
X022500Y012276D02*
X022693Y012276D01*
X022597Y012276D02*
X022597Y012566D01*
X022500Y012469D01*
X022795Y012518D02*
X022795Y012324D01*
X022988Y012518D01*
X022988Y012324D01*
X022940Y012276D01*
X022843Y012276D01*
X022795Y012324D01*
X022795Y012518D02*
X022843Y012566D01*
X022940Y012566D01*
X022988Y012518D01*
X023089Y012518D02*
X023138Y012566D01*
X023234Y012566D01*
X023283Y012518D01*
X023089Y012324D01*
X023138Y012276D01*
X023234Y012276D01*
X023283Y012324D01*
X023283Y012518D01*
X023089Y012518D02*
X023089Y012324D01*
X023678Y012276D02*
X023678Y012469D01*
X023824Y012469D01*
X023872Y012421D01*
X023872Y012276D01*
X023973Y012276D02*
X023973Y012566D01*
X024167Y012566D01*
X024070Y012421D02*
X023973Y012421D01*
X026750Y012368D02*
X026750Y012174D01*
X026798Y012126D01*
X026895Y012126D01*
X026943Y012174D01*
X026943Y012368D01*
X026895Y012416D01*
X026798Y012416D01*
X026750Y012368D01*
X027045Y012416D02*
X027045Y012126D01*
X027045Y012223D02*
X027190Y012223D01*
X027238Y012271D01*
X027238Y012368D01*
X027190Y012416D01*
X027045Y012416D01*
X027339Y012319D02*
X027436Y012416D01*
X027533Y012319D01*
X027533Y012126D01*
X027634Y012174D02*
X027682Y012126D01*
X027779Y012126D01*
X027827Y012174D01*
X027827Y012223D01*
X027779Y012271D01*
X027731Y012271D01*
X027779Y012271D02*
X027827Y012319D01*
X027827Y012368D01*
X027779Y012416D01*
X027682Y012416D01*
X027634Y012368D01*
X027533Y012271D02*
X027339Y012271D01*
X027339Y012319D02*
X027339Y012126D01*
X027928Y012271D02*
X028122Y012271D01*
X028223Y012368D02*
X028271Y012416D01*
X028368Y012416D01*
X028417Y012368D01*
X028223Y012174D01*
X028271Y012126D01*
X028368Y012126D01*
X028417Y012174D01*
X028417Y012368D01*
X028518Y012416D02*
X028518Y012126D01*
X028518Y012223D02*
X028663Y012223D01*
X028711Y012271D01*
X028711Y012368D01*
X028663Y012416D01*
X028518Y012416D01*
X028223Y012368D02*
X028223Y012174D01*
X028074Y012126D02*
X028074Y012416D01*
X027928Y012271D01*
X031330Y014383D02*
X031426Y014286D01*
X031330Y014383D02*
X031620Y014383D01*
X031620Y014479D02*
X031620Y014286D01*
X031572Y014580D02*
X031378Y014774D01*
X031572Y014774D01*
X031620Y014726D01*
X031620Y014629D01*
X031572Y014580D01*
X031378Y014580D01*
X031330Y014629D01*
X031330Y014726D01*
X031378Y014774D01*
X031330Y015170D02*
X031330Y015315D01*
X031378Y015363D01*
X031475Y015363D01*
X031523Y015315D01*
X031523Y015170D01*
X031523Y015266D02*
X031620Y015363D01*
X031620Y015170D02*
X031330Y015170D01*
X032568Y016237D02*
X032630Y016176D01*
X032753Y016176D01*
X032815Y016237D01*
X032815Y016361D01*
X032753Y016423D01*
X032692Y016423D01*
X032568Y016361D01*
X032568Y016546D01*
X032815Y016546D01*
X032936Y016546D02*
X032936Y016299D01*
X033060Y016176D01*
X033183Y016299D01*
X033183Y016546D01*
X032447Y016361D02*
X032200Y016361D01*
X032323Y016484D02*
X032323Y016237D01*
X034200Y016237D02*
X034262Y016176D01*
X034385Y016176D01*
X034447Y016237D01*
X034568Y016176D02*
X034568Y016546D01*
X034447Y016484D02*
X034385Y016546D01*
X034262Y016546D01*
X034200Y016484D01*
X034200Y016237D01*
X034568Y016361D02*
X034815Y016361D01*
X034936Y016484D02*
X034998Y016546D01*
X035122Y016546D01*
X035183Y016484D01*
X035183Y016423D01*
X034936Y016176D01*
X035183Y016176D01*
X034815Y016176D02*
X034815Y016546D01*
X035673Y016546D02*
X035797Y016546D01*
X035735Y016546D02*
X035735Y016176D01*
X035673Y016176D02*
X035797Y016176D01*
X035919Y016176D02*
X035919Y016546D01*
X036165Y016176D01*
X036165Y016546D01*
X036700Y016484D02*
X036700Y016237D01*
X036762Y016176D01*
X036885Y016176D01*
X036947Y016237D01*
X037068Y016176D02*
X037068Y016546D01*
X036947Y016484D02*
X036885Y016546D01*
X036762Y016546D01*
X036700Y016484D01*
X037068Y016361D02*
X037315Y016361D01*
X037436Y016484D02*
X037498Y016546D01*
X037622Y016546D01*
X037683Y016484D01*
X037683Y016423D01*
X037622Y016361D01*
X037683Y016299D01*
X037683Y016237D01*
X037622Y016176D01*
X037498Y016176D01*
X037436Y016237D01*
X037315Y016176D02*
X037315Y016546D01*
X037560Y016361D02*
X037622Y016361D01*
X038173Y016484D02*
X038173Y016237D01*
X038235Y016176D01*
X038358Y016176D01*
X038420Y016237D01*
X038420Y016484D01*
X038358Y016546D01*
X038235Y016546D01*
X038173Y016484D01*
X038541Y016546D02*
X038541Y016237D01*
X038603Y016176D01*
X038727Y016176D01*
X038788Y016237D01*
X038788Y016546D01*
X038910Y016546D02*
X039157Y016546D01*
X039033Y016546D02*
X039033Y016176D01*
X039700Y016237D02*
X039762Y016176D01*
X039885Y016176D01*
X039947Y016237D01*
X040068Y016176D02*
X040068Y016546D01*
X039947Y016484D02*
X039885Y016546D01*
X039762Y016546D01*
X039700Y016484D01*
X039700Y016237D01*
X040068Y016361D02*
X040315Y016361D01*
X040436Y016484D02*
X040498Y016546D01*
X040622Y016546D01*
X040683Y016484D01*
X040683Y016423D01*
X040622Y016361D01*
X040683Y016299D01*
X040683Y016237D01*
X040622Y016176D01*
X040498Y016176D01*
X040436Y016237D01*
X040315Y016176D02*
X040315Y016546D01*
X040560Y016361D02*
X040622Y016361D01*
X041173Y016546D02*
X041297Y016546D01*
X041235Y016546D02*
X041235Y016176D01*
X041173Y016176D02*
X041297Y016176D01*
X041419Y016176D02*
X041419Y016546D01*
X041665Y016176D01*
X041665Y016546D01*
X033120Y013510D02*
X032830Y013510D01*
X032830Y013703D01*
X032975Y013606D02*
X032975Y013510D01*
X032975Y013409D02*
X033120Y013409D01*
X032975Y013409D02*
X032926Y013360D01*
X032926Y013215D01*
X033120Y013215D01*
X033120Y012819D02*
X033120Y012626D01*
X033120Y012723D02*
X032830Y012723D01*
X032926Y012626D01*
X033307Y011966D02*
X033307Y011676D01*
X033403Y011676D02*
X033210Y011676D01*
X033210Y011869D02*
X033307Y011966D01*
X033505Y011918D02*
X033553Y011966D01*
X033650Y011966D01*
X033698Y011918D01*
X033698Y011869D01*
X033650Y011821D01*
X033553Y011821D01*
X033505Y011869D01*
X033505Y011918D01*
X033553Y011821D02*
X033505Y011773D01*
X033505Y011724D01*
X033553Y011676D01*
X033650Y011676D01*
X033698Y011724D01*
X033698Y011773D01*
X033650Y011821D01*
X034094Y011773D02*
X034239Y011773D01*
X034287Y011821D01*
X034287Y011918D01*
X034239Y011966D01*
X034094Y011966D01*
X034094Y011676D01*
X034191Y011773D02*
X034287Y011676D01*
X036450Y010526D02*
X036450Y010429D01*
X036498Y010381D01*
X036498Y010280D02*
X036450Y010232D01*
X036450Y010135D01*
X036498Y010086D01*
X036498Y009985D02*
X036450Y009937D01*
X036450Y009840D01*
X036498Y009792D01*
X036498Y009691D02*
X036450Y009642D01*
X036450Y009546D01*
X036498Y009497D01*
X036450Y009396D02*
X036740Y009396D01*
X036450Y009203D01*
X036740Y009203D01*
X036740Y009101D02*
X036740Y008908D01*
X036546Y009101D01*
X036498Y009101D01*
X036450Y009053D01*
X036450Y008956D01*
X036498Y008908D01*
X036740Y009497D02*
X036546Y009691D01*
X036498Y009691D01*
X036740Y009691D02*
X036740Y009497D01*
X036740Y009792D02*
X036546Y009985D01*
X036498Y009985D01*
X036740Y009985D02*
X036740Y009792D01*
X036740Y010086D02*
X036546Y010280D01*
X036498Y010280D01*
X036740Y010280D02*
X036740Y010086D01*
X036740Y010381D02*
X036546Y010575D01*
X036498Y010575D01*
X036450Y010526D01*
X036740Y010575D02*
X036740Y010381D01*
X039300Y009920D02*
X039590Y009920D01*
X039493Y009920D02*
X039396Y010065D01*
X039493Y009920D02*
X039590Y010065D01*
X040800Y010016D02*
X040848Y010065D01*
X040945Y010065D01*
X040993Y010016D01*
X040993Y009871D01*
X040993Y009968D02*
X041090Y010065D01*
X041090Y009871D02*
X040800Y009871D01*
X040800Y010016D01*
X040848Y009475D02*
X040800Y009427D01*
X040800Y009330D01*
X040848Y009282D01*
X041042Y009282D01*
X040848Y009475D01*
X041042Y009475D01*
X041090Y009427D01*
X041090Y009330D01*
X041042Y009282D01*
X041042Y009181D02*
X041090Y009132D01*
X041090Y009036D01*
X041042Y008987D01*
X040993Y008987D01*
X040945Y009036D01*
X040945Y009132D01*
X040993Y009181D01*
X041042Y009181D01*
X040945Y009132D02*
X040896Y009181D01*
X040848Y009181D01*
X040800Y009132D01*
X040800Y009036D01*
X040848Y008987D01*
X040896Y008987D01*
X040945Y009036D01*
X040993Y008886D02*
X040945Y008838D01*
X040945Y008693D01*
X041042Y008693D01*
X041090Y008741D01*
X041090Y008838D01*
X041042Y008886D01*
X040993Y008886D01*
X040848Y008789D02*
X040945Y008693D01*
X040848Y008789D02*
X040800Y008886D01*
X039590Y008838D02*
X039300Y008838D01*
X039396Y008742D01*
X039590Y008742D02*
X039590Y008935D01*
X039542Y009036D02*
X039348Y009036D01*
X039300Y009085D01*
X039300Y009181D01*
X039348Y009230D01*
X039542Y009036D01*
X039590Y009085D01*
X039590Y009181D01*
X039542Y009230D01*
X039348Y009230D01*
X039348Y009331D02*
X039300Y009379D01*
X039300Y009476D01*
X039348Y009524D01*
X039542Y009331D01*
X039590Y009379D01*
X039590Y009476D01*
X039542Y009524D01*
X039348Y009524D01*
X039348Y009331D02*
X039542Y009331D01*
X042300Y009330D02*
X042300Y009427D01*
X042348Y009475D01*
X042542Y009282D01*
X042590Y009330D01*
X042590Y009427D01*
X042542Y009475D01*
X042348Y009475D01*
X042300Y009330D02*
X042348Y009282D01*
X042542Y009282D01*
X042348Y009181D02*
X042542Y008987D01*
X042590Y008987D01*
X042590Y008838D02*
X042300Y008838D01*
X042445Y008693D01*
X042445Y008886D01*
X042300Y008987D02*
X042300Y009181D01*
X042348Y009181D01*
X042300Y009871D02*
X042300Y010016D01*
X042348Y010065D01*
X042445Y010065D01*
X042493Y010016D01*
X042493Y009871D01*
X042493Y009968D02*
X042590Y010065D01*
X042590Y009871D02*
X042300Y009871D01*
X042700Y007054D02*
X043070Y007054D01*
X042700Y006807D01*
X043070Y006807D01*
X043008Y006686D02*
X042761Y006686D01*
X042700Y006624D01*
X042700Y006501D01*
X042761Y006439D01*
X043008Y006439D01*
X043070Y006501D01*
X043070Y006624D01*
X043008Y006686D01*
X043008Y005949D02*
X043070Y005888D01*
X043070Y005764D01*
X043008Y005703D01*
X043070Y005581D02*
X042700Y005581D01*
X042761Y005703D02*
X042700Y005764D01*
X042700Y005888D01*
X042761Y005949D01*
X042823Y005949D01*
X042885Y005888D01*
X042946Y005949D01*
X043008Y005949D01*
X042885Y005888D02*
X042885Y005826D01*
X042885Y005581D02*
X042885Y005334D01*
X043008Y005213D02*
X043070Y005151D01*
X043070Y005028D01*
X043008Y004966D01*
X042761Y004966D01*
X042700Y005028D01*
X042700Y005151D01*
X042761Y005213D01*
X042700Y005334D02*
X043070Y005334D01*
X039815Y003546D02*
X039815Y003176D01*
X039568Y003546D01*
X039568Y003176D01*
X039447Y003237D02*
X039447Y003484D01*
X039385Y003546D01*
X039262Y003546D01*
X039200Y003484D01*
X039200Y003237D01*
X039262Y003176D01*
X039385Y003176D01*
X039447Y003237D01*
X038761Y002984D02*
X038700Y003046D01*
X038515Y003046D01*
X038515Y002676D01*
X038515Y002799D02*
X038700Y002799D01*
X038761Y002861D01*
X038761Y002984D01*
X038393Y003046D02*
X038393Y002737D01*
X038331Y002676D01*
X038208Y002676D01*
X038146Y002737D01*
X038146Y003046D01*
X037778Y003046D02*
X037778Y002676D01*
X038025Y002676D01*
X037657Y002676D02*
X037410Y002676D01*
X037410Y003046D01*
X037288Y003046D02*
X037288Y002737D01*
X037227Y002676D01*
X037103Y002676D01*
X037041Y002737D01*
X037041Y003046D01*
X036920Y002984D02*
X036858Y003046D01*
X036673Y003046D01*
X036673Y002676D01*
X036673Y002799D02*
X036858Y002799D01*
X036920Y002861D01*
X036920Y002984D01*
X036183Y002984D02*
X036183Y002923D01*
X036122Y002861D01*
X036183Y002799D01*
X036183Y002737D01*
X036122Y002676D01*
X035998Y002676D01*
X035936Y002737D01*
X035815Y002676D02*
X035815Y003046D01*
X035936Y002984D02*
X035998Y003046D01*
X036122Y003046D01*
X036183Y002984D01*
X036122Y002861D02*
X036060Y002861D01*
X035815Y002861D02*
X035568Y002861D01*
X035447Y002984D02*
X035385Y003046D01*
X035262Y003046D01*
X035200Y002984D01*
X035200Y002737D01*
X035262Y002676D01*
X035385Y002676D01*
X035447Y002737D01*
X035568Y002676D02*
X035568Y003046D01*
X035668Y002108D02*
X035668Y002046D01*
X035668Y001923D02*
X035668Y001676D01*
X035729Y001676D02*
X035606Y001676D01*
X035485Y001676D02*
X035238Y001676D01*
X035238Y002046D01*
X035606Y001923D02*
X035668Y001923D01*
X035852Y001861D02*
X035852Y001737D01*
X035913Y001676D01*
X036098Y001676D01*
X036220Y001737D02*
X036282Y001676D01*
X036405Y001676D01*
X036467Y001799D02*
X036220Y001799D01*
X036220Y001737D02*
X036220Y001861D01*
X036282Y001923D01*
X036405Y001923D01*
X036467Y001861D01*
X036467Y001799D01*
X036588Y001676D02*
X036588Y001923D01*
X036773Y001923D01*
X036835Y001861D01*
X036835Y001676D01*
X036956Y001676D02*
X037142Y001676D01*
X037203Y001737D01*
X037142Y001799D01*
X037018Y001799D01*
X036956Y001861D01*
X037018Y001923D01*
X037203Y001923D01*
X037325Y001861D02*
X037386Y001923D01*
X037510Y001923D01*
X037572Y001861D01*
X037572Y001799D01*
X037325Y001799D01*
X037325Y001737D02*
X037325Y001861D01*
X037325Y001737D02*
X037386Y001676D01*
X037510Y001676D01*
X037693Y001676D02*
X037693Y001737D01*
X037755Y001737D01*
X037755Y001676D01*
X037693Y001676D01*
X037693Y001861D02*
X037693Y001923D01*
X037755Y001923D01*
X037755Y001861D01*
X037693Y001861D01*
X038246Y001923D02*
X038246Y001737D01*
X038307Y001676D01*
X038369Y001737D01*
X038431Y001676D01*
X038492Y001737D01*
X038492Y001923D01*
X038614Y001923D02*
X038614Y001737D01*
X038676Y001676D01*
X038737Y001737D01*
X038799Y001676D01*
X038861Y001737D01*
X038861Y001923D01*
X038982Y001923D02*
X038982Y001737D01*
X039044Y001676D01*
X039106Y001737D01*
X039167Y001676D01*
X039229Y001737D01*
X039229Y001923D01*
X039350Y001737D02*
X039412Y001737D01*
X039412Y001676D01*
X039350Y001676D01*
X039350Y001737D01*
X039596Y001737D02*
X039658Y001676D01*
X039596Y001737D02*
X039596Y001984D01*
X039535Y001923D02*
X039658Y001923D01*
X039842Y001923D02*
X039965Y001923D01*
X040027Y001861D01*
X040027Y001676D01*
X039842Y001676D01*
X039780Y001737D01*
X039842Y001799D01*
X040027Y001799D01*
X040148Y001676D02*
X040334Y001676D01*
X040395Y001737D01*
X040395Y001861D01*
X040334Y001923D01*
X040148Y001923D01*
X040148Y001552D01*
X040517Y001676D02*
X040517Y001923D01*
X040640Y001923D02*
X040702Y001923D01*
X040640Y001923D02*
X040517Y001799D01*
X040824Y001737D02*
X040885Y001737D01*
X040885Y001676D01*
X040824Y001676D01*
X040824Y001737D01*
X041008Y001737D02*
X041069Y001676D01*
X041193Y001676D01*
X041255Y001737D01*
X041255Y001861D01*
X041193Y001923D01*
X041069Y001923D01*
X041008Y001861D01*
X041008Y001737D01*
X041376Y001676D02*
X041376Y001923D01*
X041499Y001923D02*
X041561Y001923D01*
X041499Y001923D02*
X041376Y001799D01*
X041683Y001737D02*
X041745Y001676D01*
X041930Y001676D01*
X041930Y001614D02*
X041930Y001923D01*
X041745Y001923D01*
X041683Y001861D01*
X041683Y001737D01*
X041806Y001552D02*
X041868Y001552D01*
X041930Y001614D01*
X042051Y001676D02*
X042298Y002046D01*
X042420Y001984D02*
X042420Y001737D01*
X042481Y001676D01*
X042605Y001676D01*
X042666Y001737D01*
X042666Y001984D01*
X042605Y002046D01*
X042481Y002046D01*
X042420Y001984D01*
X042788Y002046D02*
X042788Y001676D01*
X042788Y001861D02*
X043035Y001861D01*
X043035Y002046D02*
X043035Y001676D01*
X043156Y001676D02*
X043403Y001676D01*
X043156Y001676D02*
X043156Y002046D01*
X036098Y001923D02*
X035913Y001923D01*
X035852Y001861D01*
X034748Y001861D02*
X034748Y001799D01*
X034501Y001799D01*
X034501Y001737D02*
X034501Y001861D01*
X034563Y001923D01*
X034686Y001923D01*
X034748Y001861D01*
X034686Y001676D02*
X034563Y001676D01*
X034501Y001737D01*
X034379Y001923D02*
X034318Y001923D01*
X034194Y001799D01*
X034073Y001799D02*
X033888Y001799D01*
X033826Y001737D01*
X033888Y001676D01*
X034073Y001676D01*
X034073Y001861D01*
X034011Y001923D01*
X033888Y001923D01*
X033704Y001923D02*
X033704Y001737D01*
X033643Y001676D01*
X033581Y001737D01*
X033519Y001676D01*
X033458Y001737D01*
X033458Y001923D01*
X033336Y001923D02*
X033151Y001923D01*
X033089Y001861D01*
X033089Y001737D01*
X033151Y001676D01*
X033336Y001676D01*
X033336Y002046D01*
X032968Y001923D02*
X032906Y001923D01*
X032782Y001799D01*
X032661Y001799D02*
X032476Y001799D01*
X032414Y001737D01*
X032476Y001676D01*
X032661Y001676D01*
X032661Y001861D01*
X032599Y001923D01*
X032476Y001923D01*
X032293Y001861D02*
X032046Y001861D01*
X032046Y001676D02*
X032046Y002046D01*
X032293Y002046D02*
X032293Y001676D01*
X032782Y001676D02*
X032782Y001923D01*
X031556Y001861D02*
X031556Y001676D01*
X031556Y001861D02*
X031494Y001923D01*
X031309Y001923D01*
X031309Y001676D01*
X031188Y001799D02*
X030941Y001799D01*
X030941Y001737D02*
X030941Y001861D01*
X031003Y001923D01*
X031126Y001923D01*
X031188Y001861D01*
X031188Y001799D01*
X031126Y001676D02*
X031003Y001676D01*
X030941Y001737D01*
X030819Y001737D02*
X030758Y001676D01*
X030573Y001676D01*
X030573Y001552D02*
X030573Y001923D01*
X030758Y001923D01*
X030819Y001861D01*
X030819Y001737D01*
X030451Y001737D02*
X030451Y001984D01*
X030389Y002046D01*
X030266Y002046D01*
X030204Y001984D01*
X030204Y001737D01*
X030266Y001676D01*
X030389Y001676D01*
X030451Y001737D01*
X029715Y001676D02*
X029591Y001799D01*
X029653Y001799D02*
X029468Y001799D01*
X029468Y001676D02*
X029468Y002046D01*
X029653Y002046D01*
X029715Y001984D01*
X029715Y001861D01*
X029653Y001799D01*
X029346Y001861D02*
X029346Y001984D01*
X029285Y002046D01*
X029099Y002046D01*
X029099Y001676D01*
X028978Y001676D02*
X028978Y001923D01*
X028854Y002046D01*
X028731Y001923D01*
X028731Y001676D01*
X028731Y001861D02*
X028978Y001861D01*
X029099Y001799D02*
X029285Y001799D01*
X029346Y001861D01*
X028610Y002046D02*
X028363Y002046D01*
X028486Y002046D02*
X028486Y001676D01*
X027873Y001799D02*
X027626Y001799D01*
X027626Y001737D02*
X027626Y001861D01*
X027688Y001923D01*
X027811Y001923D01*
X027873Y001861D01*
X027873Y001799D01*
X027811Y001676D02*
X027688Y001676D01*
X027626Y001737D01*
X027505Y001676D02*
X027505Y001861D01*
X027443Y001923D01*
X027320Y001923D01*
X027258Y001861D01*
X027136Y001923D02*
X027012Y001923D01*
X027074Y001984D02*
X027074Y001737D01*
X027136Y001676D01*
X027258Y001676D02*
X027258Y002046D01*
X026522Y001923D02*
X026461Y001923D01*
X026337Y001799D01*
X026216Y001799D02*
X025969Y001799D01*
X025969Y001737D02*
X025969Y001861D01*
X026031Y001923D01*
X026154Y001923D01*
X026216Y001861D01*
X026216Y001799D01*
X026154Y001676D02*
X026031Y001676D01*
X025969Y001737D01*
X025847Y001676D02*
X025662Y001676D01*
X025601Y001737D01*
X025601Y001861D01*
X025662Y001923D01*
X025847Y001923D01*
X025847Y002046D02*
X025847Y001676D01*
X025479Y001676D02*
X025479Y001861D01*
X025417Y001923D01*
X025232Y001923D01*
X025232Y001676D01*
X025111Y001676D02*
X025111Y001923D01*
X024864Y001923D02*
X024864Y001737D01*
X024926Y001676D01*
X025111Y001676D01*
X024374Y001676D02*
X024374Y002046D01*
X024374Y001923D02*
X024189Y001923D01*
X024127Y001861D01*
X024127Y001737D01*
X024189Y001676D01*
X024374Y001676D01*
X024006Y001799D02*
X023759Y001799D01*
X023759Y001737D02*
X023759Y001861D01*
X023821Y001923D01*
X023944Y001923D01*
X024006Y001861D01*
X024006Y001799D01*
X023944Y001676D02*
X023821Y001676D01*
X023759Y001737D01*
X023638Y001737D02*
X023576Y001799D01*
X023452Y001799D01*
X023391Y001861D01*
X023452Y001923D01*
X023638Y001923D01*
X023638Y001737D02*
X023576Y001676D01*
X023391Y001676D01*
X023269Y001676D02*
X023084Y001676D01*
X023022Y001737D01*
X023084Y001799D01*
X023269Y001799D01*
X023269Y001861D02*
X023269Y001676D01*
X023269Y001861D02*
X023208Y001923D01*
X023084Y001923D01*
X022901Y001861D02*
X022839Y001923D01*
X022716Y001923D01*
X022654Y001861D01*
X022654Y001737D01*
X022716Y001676D01*
X022839Y001676D01*
X022901Y001799D02*
X022654Y001799D01*
X022532Y001676D02*
X022409Y001676D01*
X022470Y001676D02*
X022470Y002046D01*
X022409Y002046D01*
X022225Y001923D02*
X022287Y001861D01*
X022287Y001799D01*
X022040Y001799D01*
X022040Y001737D02*
X022040Y001861D01*
X022102Y001923D01*
X022225Y001923D01*
X022040Y001737D02*
X022102Y001676D01*
X022225Y001676D01*
X021857Y001923D02*
X021733Y001799D01*
X021733Y001676D02*
X021733Y001923D01*
X021857Y001923D02*
X021919Y001923D01*
X021244Y001861D02*
X021244Y001799D01*
X020997Y001799D01*
X020997Y001737D02*
X020997Y001861D01*
X021058Y001923D01*
X021182Y001923D01*
X021244Y001861D01*
X021182Y001676D02*
X021058Y001676D01*
X020997Y001737D01*
X020875Y001923D02*
X020813Y001923D01*
X020690Y001799D01*
X020568Y001799D02*
X020383Y001799D01*
X020322Y001737D01*
X020383Y001676D01*
X020568Y001676D01*
X020568Y001861D01*
X020507Y001923D01*
X020383Y001923D01*
X020200Y001923D02*
X020200Y001737D01*
X020138Y001676D01*
X020077Y001737D01*
X020015Y001676D01*
X019953Y001737D01*
X019953Y001923D01*
X019832Y001923D02*
X019647Y001923D01*
X019585Y001861D01*
X019585Y001737D01*
X019647Y001676D01*
X019832Y001676D01*
X019832Y002046D01*
X019463Y001923D02*
X019401Y001923D01*
X019278Y001799D01*
X019157Y001799D02*
X018971Y001799D01*
X018910Y001737D01*
X018971Y001676D01*
X019157Y001676D01*
X019157Y001861D01*
X019095Y001923D01*
X018971Y001923D01*
X018788Y001861D02*
X018541Y001861D01*
X018541Y001676D02*
X018541Y002046D01*
X018788Y002046D02*
X018788Y001676D01*
X019278Y001676D02*
X019278Y001923D01*
X018052Y001861D02*
X018052Y001676D01*
X018052Y001861D02*
X017990Y001923D01*
X017805Y001923D01*
X017805Y001676D01*
X017683Y001799D02*
X017436Y001799D01*
X017436Y001737D02*
X017436Y001861D01*
X017498Y001923D01*
X017622Y001923D01*
X017683Y001861D01*
X017683Y001799D01*
X017622Y001676D02*
X017498Y001676D01*
X017436Y001737D01*
X017315Y001737D02*
X017253Y001676D01*
X017068Y001676D01*
X017068Y001552D02*
X017068Y001923D01*
X017253Y001923D01*
X017315Y001861D01*
X017315Y001737D01*
X016947Y001737D02*
X016885Y001676D01*
X016762Y001676D01*
X016700Y001737D01*
X016700Y001984D01*
X016762Y002046D01*
X016885Y002046D01*
X016947Y001984D01*
X016947Y001737D01*
X013815Y003176D02*
X013815Y003546D01*
X013568Y003546D02*
X013815Y003176D01*
X013568Y003176D02*
X013568Y003546D01*
X013447Y003484D02*
X013385Y003546D01*
X013262Y003546D01*
X013200Y003484D01*
X013200Y003237D01*
X013262Y003176D01*
X013385Y003176D01*
X013447Y003237D01*
X013447Y003484D01*
X014700Y003737D02*
X014762Y003676D01*
X014885Y003676D01*
X014947Y003737D01*
X015068Y003676D02*
X015068Y004046D01*
X014947Y003984D02*
X014885Y004046D01*
X014762Y004046D01*
X014700Y003984D01*
X014700Y003737D01*
X015068Y003861D02*
X015315Y003861D01*
X015436Y003923D02*
X015560Y004046D01*
X015560Y003676D01*
X015683Y003676D02*
X015436Y003676D01*
X015315Y003676D02*
X015315Y004046D01*
X016173Y003984D02*
X016173Y003737D01*
X016235Y003676D01*
X016358Y003676D01*
X016420Y003737D01*
X016420Y003984D01*
X016358Y004046D01*
X016235Y004046D01*
X016173Y003984D01*
X016541Y004046D02*
X016788Y003676D01*
X016788Y004046D01*
X016541Y004046D02*
X016541Y003676D01*
X018095Y004676D02*
X018095Y004966D01*
X017950Y004821D01*
X018143Y004821D01*
X018245Y004724D02*
X018245Y004676D01*
X018245Y004724D02*
X018438Y004918D01*
X018438Y004966D01*
X018245Y004966D01*
X018539Y004918D02*
X018588Y004966D01*
X018684Y004966D01*
X018733Y004918D01*
X018539Y004724D01*
X018588Y004676D01*
X018684Y004676D01*
X018733Y004724D01*
X018733Y004918D01*
X018539Y004918D02*
X018539Y004724D01*
X019128Y004676D02*
X019128Y004869D01*
X019274Y004869D01*
X019322Y004821D01*
X019322Y004676D01*
X019423Y004676D02*
X019423Y004966D01*
X019617Y004966D01*
X019520Y004821D02*
X019423Y004821D01*
X019068Y005576D02*
X018971Y005576D01*
X018923Y005624D01*
X018971Y005721D02*
X019117Y005721D01*
X019117Y005624D02*
X019117Y005818D01*
X019068Y005866D01*
X018971Y005866D01*
X018923Y005818D01*
X018923Y005769D01*
X018971Y005721D01*
X019068Y005576D02*
X019117Y005624D01*
X018822Y005576D02*
X018628Y005576D01*
X018725Y005576D02*
X018725Y005866D01*
X018628Y005769D01*
X018527Y005769D02*
X018479Y005721D01*
X018382Y005721D01*
X018334Y005769D01*
X018334Y005818D01*
X018382Y005866D01*
X018479Y005866D01*
X018527Y005818D01*
X018527Y005769D01*
X018479Y005721D02*
X018527Y005673D01*
X018527Y005624D01*
X018479Y005576D01*
X018382Y005576D01*
X018334Y005624D01*
X018334Y005673D01*
X018382Y005721D01*
X018233Y005721D02*
X018233Y005624D01*
X018184Y005576D01*
X018088Y005576D01*
X018039Y005624D01*
X018039Y005721D02*
X018136Y005769D01*
X018184Y005769D01*
X018233Y005721D01*
X018233Y005866D02*
X018039Y005866D01*
X018039Y005721D01*
X017938Y005576D02*
X017938Y005866D01*
X017745Y005866D02*
X017938Y005576D01*
X017745Y005576D02*
X017745Y005866D01*
X017547Y005866D02*
X017547Y005576D01*
X017643Y005576D02*
X017450Y005576D01*
X017450Y005769D02*
X017547Y005866D01*
X019760Y007376D02*
X019953Y007376D01*
X019857Y007376D02*
X019857Y007666D01*
X019760Y007569D01*
X020349Y007473D02*
X020494Y007569D01*
X020349Y007473D02*
X020494Y007376D01*
X020349Y007376D02*
X020349Y007666D01*
X022900Y008956D02*
X022948Y008908D01*
X022900Y008956D02*
X022900Y009053D01*
X022948Y009101D01*
X022996Y009101D01*
X023190Y008908D01*
X023190Y009101D01*
X023190Y009203D02*
X022900Y009203D01*
X023190Y009396D01*
X022900Y009396D01*
X022948Y009497D02*
X022900Y009546D01*
X022900Y009642D01*
X022948Y009691D01*
X022996Y009691D01*
X023190Y009497D01*
X023190Y009691D01*
X023190Y009792D02*
X022996Y009985D01*
X022948Y009985D01*
X022900Y009937D01*
X022900Y009840D01*
X022948Y009792D01*
X023190Y009792D02*
X023190Y009985D01*
X023190Y010086D02*
X022996Y010280D01*
X022948Y010280D01*
X022900Y010232D01*
X022900Y010135D01*
X022948Y010086D01*
X023190Y010086D02*
X023190Y010280D01*
X023190Y010381D02*
X022996Y010575D01*
X022948Y010575D01*
X022900Y010526D01*
X022900Y010429D01*
X022948Y010381D01*
X023190Y010381D02*
X023190Y010575D01*
X025750Y009920D02*
X026040Y009920D01*
X025943Y009920D02*
X025846Y010065D01*
X025943Y009920D02*
X026040Y010065D01*
X025992Y009524D02*
X025798Y009524D01*
X025992Y009331D01*
X026040Y009379D01*
X026040Y009476D01*
X025992Y009524D01*
X025992Y009331D02*
X025798Y009331D01*
X025750Y009379D01*
X025750Y009476D01*
X025798Y009524D01*
X025798Y009230D02*
X025992Y009036D01*
X026040Y009085D01*
X026040Y009181D01*
X025992Y009230D01*
X025798Y009230D01*
X025750Y009181D01*
X025750Y009085D01*
X025798Y009036D01*
X025992Y009036D01*
X026040Y008935D02*
X026040Y008742D01*
X026040Y008838D02*
X025750Y008838D01*
X025846Y008742D01*
X027300Y008886D02*
X027348Y008789D01*
X027445Y008693D01*
X027445Y008838D01*
X027493Y008886D01*
X027542Y008886D01*
X027590Y008838D01*
X027590Y008741D01*
X027542Y008693D01*
X027445Y008693D01*
X027493Y008987D02*
X027445Y009036D01*
X027445Y009132D01*
X027493Y009181D01*
X027542Y009181D01*
X027590Y009132D01*
X027590Y009036D01*
X027542Y008987D01*
X027493Y008987D01*
X027445Y009036D02*
X027396Y008987D01*
X027348Y008987D01*
X027300Y009036D01*
X027300Y009132D01*
X027348Y009181D01*
X027396Y009181D01*
X027445Y009132D01*
X027542Y009282D02*
X027348Y009475D01*
X027542Y009475D01*
X027590Y009427D01*
X027590Y009330D01*
X027542Y009282D01*
X027348Y009282D01*
X027300Y009330D01*
X027300Y009427D01*
X027348Y009475D01*
X027300Y009871D02*
X027300Y010016D01*
X027348Y010065D01*
X027445Y010065D01*
X027493Y010016D01*
X027493Y009871D01*
X027493Y009968D02*
X027590Y010065D01*
X027590Y009871D02*
X027300Y009871D01*
X028750Y009871D02*
X028750Y010016D01*
X028798Y010065D01*
X028895Y010065D01*
X028943Y010016D01*
X028943Y009871D01*
X028943Y009968D02*
X029040Y010065D01*
X029040Y009871D02*
X028750Y009871D01*
X028798Y009475D02*
X028992Y009282D01*
X029040Y009330D01*
X029040Y009427D01*
X028992Y009475D01*
X028798Y009475D01*
X028750Y009427D01*
X028750Y009330D01*
X028798Y009282D01*
X028992Y009282D01*
X028798Y009181D02*
X028992Y008987D01*
X029040Y008987D01*
X029040Y008838D02*
X028750Y008838D01*
X028895Y008693D01*
X028895Y008886D01*
X028750Y008987D02*
X028750Y009181D01*
X028798Y009181D01*
X031150Y009226D02*
X031343Y009226D01*
X031247Y009226D02*
X031247Y009516D01*
X031150Y009419D01*
X031445Y009516D02*
X031638Y009226D01*
X031638Y009516D01*
X031739Y009371D02*
X031933Y009371D01*
X032034Y009274D02*
X032034Y009468D01*
X032082Y009516D01*
X032179Y009516D01*
X032227Y009468D01*
X032034Y009274D01*
X032082Y009226D01*
X032179Y009226D01*
X032227Y009274D01*
X032227Y009468D01*
X032328Y009468D02*
X032377Y009516D01*
X032474Y009516D01*
X032522Y009468D01*
X032328Y009274D01*
X032377Y009226D01*
X032474Y009226D01*
X032522Y009274D01*
X032522Y009468D01*
X032623Y009371D02*
X032817Y009371D01*
X032768Y009226D02*
X032768Y009516D01*
X032623Y009371D01*
X032328Y009274D02*
X032328Y009468D01*
X031884Y009516D02*
X031884Y009226D01*
X031739Y009371D02*
X031884Y009516D01*
X031445Y009516D02*
X031445Y009226D01*
X033110Y007669D02*
X033207Y007766D01*
X033207Y007476D01*
X033303Y007476D02*
X033110Y007476D01*
X033699Y007476D02*
X033699Y007766D01*
X033844Y007669D02*
X033699Y007573D01*
X033844Y007476D01*
X032618Y005916D02*
X032521Y005916D01*
X032473Y005868D01*
X032473Y005819D01*
X032521Y005771D01*
X032667Y005771D01*
X032667Y005868D02*
X032618Y005916D01*
X032667Y005868D02*
X032667Y005674D01*
X032618Y005626D01*
X032521Y005626D01*
X032473Y005674D01*
X032372Y005626D02*
X032178Y005626D01*
X032275Y005626D02*
X032275Y005916D01*
X032178Y005819D01*
X032077Y005819D02*
X032029Y005771D01*
X031932Y005771D01*
X031884Y005819D01*
X031884Y005868D01*
X031932Y005916D01*
X032029Y005916D01*
X032077Y005868D01*
X032077Y005819D01*
X032029Y005771D02*
X032077Y005723D01*
X032077Y005674D01*
X032029Y005626D01*
X031932Y005626D01*
X031884Y005674D01*
X031884Y005723D01*
X031932Y005771D01*
X031783Y005771D02*
X031783Y005674D01*
X031734Y005626D01*
X031638Y005626D01*
X031589Y005674D01*
X031589Y005771D02*
X031686Y005819D01*
X031734Y005819D01*
X031783Y005771D01*
X031783Y005916D02*
X031589Y005916D01*
X031589Y005771D01*
X031488Y005626D02*
X031488Y005916D01*
X031295Y005916D02*
X031295Y005626D01*
X031193Y005626D02*
X031000Y005626D01*
X031097Y005626D02*
X031097Y005916D01*
X031000Y005819D01*
X031295Y005916D02*
X031488Y005626D01*
X031595Y004966D02*
X031450Y004821D01*
X031643Y004821D01*
X031745Y004724D02*
X031745Y004676D01*
X031745Y004724D02*
X031938Y004918D01*
X031938Y004966D01*
X031745Y004966D01*
X031595Y004966D02*
X031595Y004676D01*
X032039Y004724D02*
X032233Y004918D01*
X032233Y004724D01*
X032184Y004676D01*
X032088Y004676D01*
X032039Y004724D01*
X032039Y004918D01*
X032088Y004966D01*
X032184Y004966D01*
X032233Y004918D01*
X032628Y004869D02*
X032774Y004869D01*
X032822Y004821D01*
X032822Y004676D01*
X032923Y004676D02*
X032923Y004966D01*
X033117Y004966D01*
X033020Y004821D02*
X032923Y004821D01*
X032628Y004869D02*
X032628Y004676D01*
X028788Y004046D02*
X028788Y003676D01*
X028541Y004046D01*
X028541Y003676D01*
X028420Y003737D02*
X028420Y003984D01*
X028358Y004046D01*
X028235Y004046D01*
X028173Y003984D01*
X028173Y003737D01*
X028235Y003676D01*
X028358Y003676D01*
X028420Y003737D01*
X027683Y003676D02*
X027436Y003676D01*
X027683Y003923D01*
X027683Y003984D01*
X027622Y004046D01*
X027498Y004046D01*
X027436Y003984D01*
X027315Y004046D02*
X027315Y003676D01*
X027315Y003861D02*
X027068Y003861D01*
X026947Y003984D02*
X026885Y004046D01*
X026762Y004046D01*
X026700Y003984D01*
X026700Y003737D01*
X026762Y003676D01*
X026885Y003676D01*
X026947Y003737D01*
X027068Y003676D02*
X027068Y004046D01*
X025815Y003546D02*
X025815Y003176D01*
X025568Y003546D01*
X025568Y003176D01*
X025447Y003237D02*
X025447Y003484D01*
X025385Y003546D01*
X025262Y003546D01*
X025200Y003484D01*
X025200Y003237D01*
X025262Y003176D01*
X025385Y003176D01*
X025447Y003237D01*
X024761Y002984D02*
X024761Y002861D01*
X024700Y002799D01*
X024515Y002799D01*
X024515Y002676D02*
X024515Y003046D01*
X024700Y003046D01*
X024761Y002984D01*
X024393Y003046D02*
X024393Y002737D01*
X024331Y002676D01*
X024208Y002676D01*
X024146Y002737D01*
X024146Y003046D01*
X023778Y003046D02*
X023778Y002676D01*
X024025Y002676D01*
X023657Y002676D02*
X023410Y002676D01*
X023410Y003046D01*
X023288Y003046D02*
X023288Y002737D01*
X023227Y002676D01*
X023103Y002676D01*
X023041Y002737D01*
X023041Y003046D01*
X022920Y002984D02*
X022858Y003046D01*
X022673Y003046D01*
X022673Y002676D01*
X022673Y002799D02*
X022858Y002799D01*
X022920Y002861D01*
X022920Y002984D01*
X022183Y002984D02*
X022122Y003046D01*
X021998Y003046D01*
X021936Y002984D01*
X021815Y003046D02*
X021815Y002676D01*
X021936Y002676D02*
X022183Y002923D01*
X022183Y002984D01*
X022183Y002676D02*
X021936Y002676D01*
X021815Y002861D02*
X021568Y002861D01*
X021447Y002984D02*
X021385Y003046D01*
X021262Y003046D01*
X021200Y002984D01*
X021200Y002737D01*
X021262Y002676D01*
X021385Y002676D01*
X021447Y002737D01*
X021568Y002676D02*
X021568Y003046D01*
X020690Y001923D02*
X020690Y001676D01*
X022901Y001799D02*
X022901Y001861D01*
X026337Y001923D02*
X026337Y001676D01*
X034194Y001676D02*
X034194Y001923D01*
X006317Y009621D02*
X006123Y009621D01*
X006268Y009766D01*
X006268Y009476D01*
X006022Y009524D02*
X005974Y009476D01*
X005877Y009476D01*
X005828Y009524D01*
X006022Y009718D01*
X006022Y009524D01*
X005828Y009524D02*
X005828Y009718D01*
X005877Y009766D01*
X005974Y009766D01*
X006022Y009718D01*
X005727Y009718D02*
X005534Y009524D01*
X005582Y009476D01*
X005679Y009476D01*
X005727Y009524D01*
X005727Y009718D01*
X005679Y009766D01*
X005582Y009766D01*
X005534Y009718D01*
X005534Y009524D01*
X005433Y009621D02*
X005239Y009621D01*
X005384Y009766D01*
X005384Y009476D01*
X005138Y009476D02*
X005138Y009766D01*
X004945Y009766D02*
X004945Y009476D01*
X004843Y009476D02*
X004650Y009476D01*
X004747Y009476D02*
X004747Y009766D01*
X004650Y009669D01*
X004945Y009766D02*
X005138Y009476D01*
X004907Y008216D02*
X004907Y007926D01*
X005003Y007926D02*
X004810Y007926D01*
X004810Y008119D02*
X004907Y008216D01*
X005399Y008216D02*
X005399Y007926D01*
X005399Y008023D02*
X005544Y008119D01*
X005399Y008023D02*
X005544Y007926D01*
X024300Y017737D02*
X024362Y017676D01*
X024485Y017676D01*
X024547Y017737D01*
X024547Y017861D01*
X024423Y017861D01*
X024300Y017984D02*
X024300Y017737D01*
X024300Y017984D02*
X024362Y018046D01*
X024485Y018046D01*
X024547Y017984D01*
X024668Y018046D02*
X024915Y017676D01*
X024915Y018046D01*
X025036Y018046D02*
X025222Y018046D01*
X025283Y017984D01*
X025283Y017737D01*
X025222Y017676D01*
X025036Y017676D01*
X025036Y018046D01*
X024668Y018046D02*
X024668Y017676D01*
X027700Y017669D02*
X027797Y017766D01*
X027797Y017476D01*
X027893Y017476D02*
X027700Y017476D01*
X027995Y017524D02*
X028043Y017476D01*
X028140Y017476D01*
X028188Y017524D01*
X028188Y017718D01*
X027995Y017524D01*
X027995Y017718D01*
X028043Y017766D01*
X028140Y017766D01*
X028188Y017718D01*
X028289Y017718D02*
X028338Y017766D01*
X028434Y017766D01*
X028483Y017718D01*
X028289Y017524D01*
X028338Y017476D01*
X028434Y017476D01*
X028483Y017524D01*
X028483Y017718D01*
X028289Y017718D02*
X028289Y017524D01*
X028878Y017476D02*
X028878Y017669D01*
X029024Y017669D01*
X029072Y017621D01*
X029072Y017476D01*
X029173Y017476D02*
X029173Y017766D01*
X029367Y017766D01*
X029270Y017621D02*
X029173Y017621D01*
X009735Y018176D02*
X009735Y018361D01*
X009673Y018423D01*
X009611Y018361D01*
X009611Y018176D01*
X009488Y018176D02*
X009488Y018423D01*
X009550Y018423D01*
X009611Y018361D01*
X009366Y018361D02*
X009366Y018176D01*
X009243Y018176D02*
X009243Y018361D01*
X009305Y018423D01*
X009366Y018361D01*
X009243Y018361D02*
X009181Y018423D01*
X009120Y018423D01*
X009120Y018176D01*
X008630Y018484D02*
X008383Y018237D01*
X008383Y018176D01*
X008200Y018176D02*
X008200Y018546D01*
X008015Y018361D01*
X008261Y018361D01*
X008383Y018546D02*
X008630Y018546D01*
X008630Y018484D01*
X007525Y018423D02*
X007278Y018176D01*
X007278Y018423D02*
X007525Y018176D01*
X006788Y018176D02*
X006788Y018361D01*
X006727Y018423D01*
X006665Y018361D01*
X006665Y018176D01*
X006541Y018176D02*
X006541Y018423D01*
X006603Y018423D01*
X006665Y018361D01*
X006420Y018361D02*
X006420Y018176D01*
X006297Y018176D02*
X006297Y018361D01*
X006358Y018423D01*
X006420Y018361D01*
X006297Y018361D02*
X006235Y018423D01*
X006173Y018423D01*
X006173Y018176D01*
X005683Y018484D02*
X005436Y018237D01*
X005436Y018176D01*
X005315Y018237D02*
X005253Y018176D01*
X005130Y018176D01*
X005068Y018237D01*
X005315Y018484D01*
X005315Y018237D01*
X005068Y018237D02*
X005068Y018484D01*
X005130Y018546D01*
X005253Y018546D01*
X005315Y018484D01*
X005436Y018546D02*
X005683Y018546D01*
X005683Y018484D01*
X004947Y018176D02*
X004700Y018176D01*
X004823Y018176D02*
X004823Y018546D01*
X004700Y018423D01*
D11*
X009555Y015541D02*
X009785Y015861D01*
X011585Y015861D01*
X011815Y015541D01*
X012685Y014161D01*
X011795Y012781D01*
X011585Y012461D01*
X009785Y012461D01*
X009555Y012781D01*
X008685Y014161D01*
X009555Y015541D01*
X008305Y015541D01*
X008055Y015291D01*
X008055Y013031D01*
X008305Y012781D01*
X009555Y012781D01*
X011185Y013411D02*
X011185Y014911D01*
X011435Y015161D01*
X010185Y014791D01*
X010185Y013531D01*
X011435Y013161D01*
X011185Y013411D01*
X011435Y013161D02*
X011685Y013161D01*
X011935Y013411D01*
X011935Y014911D01*
X011685Y015161D01*
X011435Y015161D01*
X011815Y015541D02*
X013065Y015541D01*
X013315Y015291D01*
X013315Y013031D01*
X013065Y012781D01*
X011795Y012781D01*
X011585Y011361D02*
X009785Y011361D01*
X009575Y011041D01*
X008685Y009661D01*
X009555Y008281D01*
X009785Y007961D01*
X011585Y007961D01*
X011815Y008281D01*
X012685Y009661D01*
X011815Y011041D01*
X011585Y011361D01*
X011815Y011041D02*
X013065Y011041D01*
X013315Y010791D01*
X013315Y008531D01*
X013065Y008281D01*
X011815Y008281D01*
X011185Y009031D02*
X011185Y010291D01*
X009935Y010661D01*
X010185Y010411D01*
X010185Y008911D01*
X009935Y008661D01*
X011185Y009031D01*
X010185Y008661D02*
X010245Y008633D01*
X010306Y008609D01*
X010369Y008589D01*
X010433Y008572D01*
X010497Y008559D01*
X010562Y008550D01*
X010628Y008544D01*
X010694Y008543D01*
X010760Y008546D01*
X010826Y008552D01*
X010891Y008562D01*
X010955Y008576D01*
X011019Y008594D01*
X011081Y008615D01*
X011142Y008641D01*
X011201Y008669D01*
X011259Y008701D01*
X011314Y008737D01*
X011368Y008776D01*
X011419Y008817D01*
X011467Y008862D01*
X011513Y008910D01*
X011556Y008960D01*
X011595Y009012D01*
X011632Y009067D01*
X011665Y009124D01*
X011695Y009183D01*
X011722Y009243D01*
X011745Y009305D01*
X011764Y009368D01*
X011779Y009432D01*
X011791Y009497D01*
X011799Y009562D01*
X011803Y009628D01*
X011803Y009694D01*
X011799Y009760D01*
X011791Y009825D01*
X011779Y009890D01*
X011764Y009954D01*
X011745Y010017D01*
X011722Y010079D01*
X011695Y010139D01*
X011665Y010198D01*
X011632Y010255D01*
X011595Y010310D01*
X011556Y010362D01*
X011513Y010412D01*
X011467Y010460D01*
X011419Y010505D01*
X011368Y010546D01*
X011314Y010585D01*
X011259Y010621D01*
X011201Y010653D01*
X011142Y010681D01*
X011081Y010707D01*
X011019Y010728D01*
X010955Y010746D01*
X010891Y010760D01*
X010826Y010770D01*
X010760Y010776D01*
X010694Y010779D01*
X010628Y010778D01*
X010562Y010772D01*
X010497Y010763D01*
X010433Y010750D01*
X010369Y010733D01*
X010306Y010713D01*
X010245Y010689D01*
X010185Y010661D01*
X009935Y010661D02*
X009685Y010661D01*
X009435Y010411D01*
X009435Y008911D01*
X009685Y008661D01*
X009935Y008661D01*
X009555Y008281D02*
X008305Y008281D01*
X008055Y008531D01*
X008055Y010791D01*
X008305Y011041D01*
X009575Y011041D01*
X009685Y010661D02*
X009739Y010712D01*
X009795Y010760D01*
X009854Y010805D01*
X009915Y010847D01*
X009978Y010886D01*
X010043Y010921D01*
X010110Y010953D01*
X010178Y010981D01*
X010248Y011006D01*
X010319Y011027D01*
X010391Y011044D01*
X010464Y011058D01*
X010537Y011067D01*
X010611Y011073D01*
X010685Y011075D01*
X010759Y011073D01*
X010833Y011067D01*
X010906Y011058D01*
X010979Y011044D01*
X011051Y011027D01*
X011122Y011006D01*
X011192Y010981D01*
X011260Y010953D01*
X011327Y010921D01*
X011392Y010886D01*
X011455Y010847D01*
X011516Y010805D01*
X011575Y010760D01*
X011631Y010712D01*
X011685Y010661D01*
X011736Y010607D01*
X011784Y010551D01*
X011829Y010492D01*
X011871Y010431D01*
X011910Y010368D01*
X011945Y010303D01*
X011977Y010236D01*
X012005Y010168D01*
X012030Y010098D01*
X012051Y010027D01*
X012068Y009955D01*
X012082Y009882D01*
X012091Y009809D01*
X012097Y009735D01*
X012099Y009661D01*
X012097Y009587D01*
X012091Y009513D01*
X012082Y009440D01*
X012068Y009367D01*
X012051Y009295D01*
X012030Y009224D01*
X012005Y009154D01*
X011977Y009086D01*
X011945Y009019D01*
X011910Y008954D01*
X011871Y008891D01*
X011829Y008830D01*
X011784Y008771D01*
X011736Y008715D01*
X011685Y008661D01*
X011631Y008610D01*
X011575Y008562D01*
X011516Y008517D01*
X011455Y008475D01*
X011392Y008436D01*
X011327Y008401D01*
X011260Y008369D01*
X011192Y008341D01*
X011122Y008316D01*
X011051Y008295D01*
X010979Y008278D01*
X010906Y008264D01*
X010833Y008255D01*
X010759Y008249D01*
X010685Y008247D01*
X010611Y008249D01*
X010537Y008255D01*
X010464Y008264D01*
X010391Y008278D01*
X010319Y008295D01*
X010248Y008316D01*
X010178Y008341D01*
X010110Y008369D01*
X010043Y008401D01*
X009978Y008436D01*
X009915Y008475D01*
X009854Y008517D01*
X009795Y008562D01*
X009739Y008610D01*
X009685Y008661D01*
X006735Y009661D02*
X006435Y009661D01*
X006435Y010261D01*
X003935Y010261D01*
X003935Y009661D01*
X003935Y009061D01*
X006435Y009061D01*
X006435Y009661D01*
X006335Y010711D02*
X006185Y010711D01*
X006135Y010761D01*
X004235Y010761D01*
X004185Y010711D01*
X004035Y010711D01*
X004018Y010713D01*
X004001Y010717D01*
X003985Y010724D01*
X003971Y010734D01*
X003958Y010747D01*
X003948Y010761D01*
X003941Y010777D01*
X003937Y010794D01*
X003935Y010811D01*
X003935Y011511D01*
X003937Y011528D01*
X003941Y011545D01*
X003948Y011561D01*
X003958Y011575D01*
X003971Y011588D01*
X003985Y011598D01*
X004001Y011605D01*
X004018Y011609D01*
X004035Y011611D01*
X004185Y011611D01*
X004235Y011561D01*
X006135Y011561D01*
X006185Y011611D01*
X006335Y011611D01*
X006352Y011609D01*
X006369Y011605D01*
X006385Y011598D01*
X006399Y011588D01*
X006412Y011575D01*
X006422Y011561D01*
X006429Y011545D01*
X006433Y011528D01*
X006435Y011511D01*
X006435Y010811D01*
X006433Y010794D01*
X006429Y010777D01*
X006422Y010761D01*
X006412Y010747D01*
X006399Y010734D01*
X006385Y010724D01*
X006369Y010717D01*
X006352Y010713D01*
X006335Y010711D01*
X003935Y009661D02*
X003635Y009661D01*
X004035Y008611D02*
X004185Y008611D01*
X004235Y008561D01*
X006135Y008561D01*
X006185Y008611D01*
X006335Y008611D01*
X006352Y008609D01*
X006369Y008605D01*
X006385Y008598D01*
X006399Y008588D01*
X006412Y008575D01*
X006422Y008561D01*
X006429Y008545D01*
X006433Y008528D01*
X006435Y008511D01*
X006435Y007811D01*
X006433Y007794D01*
X006429Y007777D01*
X006422Y007761D01*
X006412Y007747D01*
X006399Y007734D01*
X006385Y007724D01*
X006369Y007717D01*
X006352Y007713D01*
X006335Y007711D01*
X006185Y007711D01*
X006135Y007761D01*
X004235Y007761D01*
X004185Y007711D01*
X004035Y007711D01*
X004018Y007713D01*
X004001Y007717D01*
X003985Y007724D01*
X003971Y007734D01*
X003958Y007747D01*
X003948Y007761D01*
X003941Y007777D01*
X003937Y007794D01*
X003935Y007811D01*
X003935Y008511D01*
X003937Y008528D01*
X003941Y008545D01*
X003948Y008561D01*
X003958Y008575D01*
X003971Y008588D01*
X003985Y008598D01*
X004001Y008605D01*
X004018Y008609D01*
X004035Y008611D01*
X003935Y007261D02*
X003935Y006661D01*
X003935Y006061D01*
X006435Y006061D01*
X006435Y006661D01*
X006435Y007261D01*
X003935Y007261D01*
X003935Y006661D02*
X003635Y006661D01*
X004535Y005611D02*
X005835Y005611D01*
X005861Y005609D01*
X005887Y005604D01*
X005912Y005596D01*
X005935Y005584D01*
X005957Y005570D01*
X005976Y005552D01*
X005994Y005533D01*
X006008Y005511D01*
X006020Y005488D01*
X006028Y005463D01*
X006033Y005437D01*
X006035Y005411D01*
X006035Y004911D01*
X006033Y004885D01*
X006028Y004859D01*
X006020Y004834D01*
X006008Y004811D01*
X005994Y004789D01*
X005976Y004770D01*
X005957Y004752D01*
X005935Y004738D01*
X005912Y004726D01*
X005887Y004718D01*
X005861Y004713D01*
X005835Y004711D01*
X004535Y004711D01*
X004509Y004713D01*
X004483Y004718D01*
X004458Y004726D01*
X004435Y004738D01*
X004413Y004752D01*
X004394Y004770D01*
X004376Y004789D01*
X004362Y004811D01*
X004350Y004834D01*
X004342Y004859D01*
X004337Y004885D01*
X004335Y004911D01*
X004335Y005411D01*
X004337Y005437D01*
X004342Y005463D01*
X004350Y005488D01*
X004362Y005511D01*
X004376Y005533D01*
X004394Y005552D01*
X004413Y005570D01*
X004435Y005584D01*
X004458Y005596D01*
X004483Y005604D01*
X004509Y005609D01*
X004535Y005611D01*
X004685Y005161D02*
X005055Y005161D01*
X005305Y005161D02*
X005685Y005161D01*
X008055Y006291D02*
X008305Y006541D01*
X009555Y006541D01*
X008685Y005161D01*
X009555Y003781D01*
X009785Y003461D01*
X011585Y003461D01*
X011795Y003781D01*
X012685Y005161D01*
X011815Y006541D01*
X011585Y006861D01*
X009785Y006861D01*
X009555Y006541D01*
X010185Y005791D02*
X010185Y004531D01*
X011435Y004161D01*
X011185Y004411D01*
X011185Y005911D01*
X011435Y006161D01*
X010185Y005791D01*
X011185Y006161D02*
X011125Y006189D01*
X011064Y006213D01*
X011001Y006233D01*
X010937Y006250D01*
X010873Y006263D01*
X010808Y006272D01*
X010742Y006278D01*
X010676Y006279D01*
X010610Y006276D01*
X010544Y006270D01*
X010479Y006260D01*
X010415Y006246D01*
X010351Y006228D01*
X010289Y006207D01*
X010228Y006181D01*
X010169Y006153D01*
X010111Y006121D01*
X010056Y006085D01*
X010002Y006046D01*
X009951Y006005D01*
X009903Y005960D01*
X009857Y005912D01*
X009814Y005862D01*
X009775Y005810D01*
X009738Y005755D01*
X009705Y005698D01*
X009675Y005639D01*
X009648Y005579D01*
X009625Y005517D01*
X009606Y005454D01*
X009591Y005390D01*
X009579Y005325D01*
X009571Y005260D01*
X009567Y005194D01*
X009567Y005128D01*
X009571Y005062D01*
X009579Y004997D01*
X009591Y004932D01*
X009606Y004868D01*
X009625Y004805D01*
X009648Y004743D01*
X009675Y004683D01*
X009705Y004624D01*
X009738Y004567D01*
X009775Y004512D01*
X009814Y004460D01*
X009857Y004410D01*
X009903Y004362D01*
X009951Y004317D01*
X010002Y004276D01*
X010056Y004237D01*
X010111Y004201D01*
X010169Y004169D01*
X010228Y004141D01*
X010289Y004115D01*
X010351Y004094D01*
X010415Y004076D01*
X010479Y004062D01*
X010544Y004052D01*
X010610Y004046D01*
X010676Y004043D01*
X010742Y004044D01*
X010808Y004050D01*
X010873Y004059D01*
X010937Y004072D01*
X011001Y004089D01*
X011064Y004109D01*
X011125Y004133D01*
X011185Y004161D01*
X011435Y004161D02*
X011685Y004161D01*
X011935Y004411D01*
X011935Y005911D01*
X011685Y006161D01*
X011435Y006161D01*
X011815Y006541D02*
X013065Y006541D01*
X013315Y006291D01*
X013315Y004031D01*
X013065Y003781D01*
X011795Y003781D01*
X009555Y003781D02*
X008305Y003781D01*
X008055Y004031D01*
X008055Y006291D01*
X006735Y006661D02*
X006435Y006661D01*
X011685Y006161D02*
X011631Y006212D01*
X011575Y006260D01*
X011516Y006305D01*
X011455Y006347D01*
X011392Y006386D01*
X011327Y006421D01*
X011260Y006453D01*
X011192Y006481D01*
X011122Y006506D01*
X011051Y006527D01*
X010979Y006544D01*
X010906Y006558D01*
X010833Y006567D01*
X010759Y006573D01*
X010685Y006575D01*
X010611Y006573D01*
X010537Y006567D01*
X010464Y006558D01*
X010391Y006544D01*
X010319Y006527D01*
X010248Y006506D01*
X010178Y006481D01*
X010110Y006453D01*
X010043Y006421D01*
X009978Y006386D01*
X009915Y006347D01*
X009854Y006305D01*
X009795Y006260D01*
X009739Y006212D01*
X009685Y006161D01*
X009634Y006107D01*
X009586Y006051D01*
X009541Y005992D01*
X009499Y005931D01*
X009460Y005868D01*
X009425Y005803D01*
X009393Y005736D01*
X009365Y005668D01*
X009340Y005598D01*
X009319Y005527D01*
X009302Y005455D01*
X009288Y005382D01*
X009279Y005309D01*
X009273Y005235D01*
X009271Y005161D01*
X009273Y005087D01*
X009279Y005013D01*
X009288Y004940D01*
X009302Y004867D01*
X009319Y004795D01*
X009340Y004724D01*
X009365Y004654D01*
X009393Y004586D01*
X009425Y004519D01*
X009460Y004454D01*
X009499Y004391D01*
X009541Y004330D01*
X009586Y004271D01*
X009634Y004215D01*
X009685Y004161D01*
X009739Y004110D01*
X009795Y004062D01*
X009854Y004017D01*
X009915Y003975D01*
X009978Y003936D01*
X010043Y003901D01*
X010110Y003869D01*
X010178Y003841D01*
X010248Y003816D01*
X010319Y003795D01*
X010391Y003778D01*
X010464Y003764D01*
X010537Y003755D01*
X010611Y003749D01*
X010685Y003747D01*
X010759Y003749D01*
X010833Y003755D01*
X010906Y003764D01*
X010979Y003778D01*
X011051Y003795D01*
X011122Y003816D01*
X011192Y003841D01*
X011260Y003869D01*
X011327Y003901D01*
X011392Y003936D01*
X011455Y003975D01*
X011516Y004017D01*
X011575Y004062D01*
X011631Y004110D01*
X011685Y004161D01*
X014286Y005609D02*
X014324Y005640D01*
X014364Y005668D01*
X014406Y005692D01*
X014449Y005713D01*
X014495Y005730D01*
X014541Y005743D01*
X014589Y005753D01*
X014637Y005759D01*
X014685Y005761D01*
X014285Y005161D02*
X014287Y005122D01*
X014293Y005083D01*
X014302Y005045D01*
X014315Y005008D01*
X014332Y004972D01*
X014352Y004939D01*
X014376Y004907D01*
X014402Y004878D01*
X014431Y004852D01*
X014463Y004828D01*
X014496Y004808D01*
X014532Y004791D01*
X014569Y004778D01*
X014607Y004769D01*
X014646Y004763D01*
X014685Y004761D01*
X014685Y004911D02*
X014655Y004913D01*
X014625Y004918D01*
X014596Y004927D01*
X014569Y004940D01*
X014543Y004955D01*
X014519Y004974D01*
X014498Y004995D01*
X014479Y005019D01*
X014464Y005045D01*
X014451Y005072D01*
X014442Y005101D01*
X014437Y005131D01*
X014435Y005161D01*
X014685Y005561D02*
X014724Y005559D01*
X014763Y005553D01*
X014801Y005544D01*
X014838Y005531D01*
X014874Y005514D01*
X014907Y005494D01*
X014939Y005470D01*
X014968Y005444D01*
X014994Y005415D01*
X015018Y005383D01*
X015038Y005350D01*
X015055Y005314D01*
X015068Y005277D01*
X015077Y005239D01*
X015083Y005200D01*
X015085Y005161D01*
X014935Y005161D02*
X014933Y005191D01*
X014928Y005221D01*
X014919Y005250D01*
X014906Y005277D01*
X014891Y005303D01*
X014872Y005327D01*
X014851Y005348D01*
X014827Y005367D01*
X014801Y005382D01*
X014774Y005395D01*
X014745Y005404D01*
X014715Y005409D01*
X014685Y005411D01*
X014317Y005635D02*
X014282Y005605D01*
X014249Y005574D01*
X014219Y005539D01*
X014192Y005503D01*
X014168Y005465D01*
X014146Y005425D01*
X014128Y005383D01*
X014112Y005340D01*
X014100Y005296D01*
X014092Y005252D01*
X014087Y005206D01*
X014085Y005161D01*
X014087Y005116D01*
X014092Y005070D01*
X014100Y005026D01*
X014112Y004982D01*
X014128Y004939D01*
X014146Y004897D01*
X014168Y004857D01*
X014192Y004819D01*
X014219Y004783D01*
X014249Y004748D01*
X014282Y004717D01*
X014317Y004687D01*
X015285Y005161D02*
X015283Y005207D01*
X015278Y005253D01*
X015269Y005299D01*
X015257Y005344D01*
X015241Y005387D01*
X015222Y005429D01*
X015199Y005470D01*
X015174Y005509D01*
X015146Y005545D01*
X015115Y005580D01*
X015081Y005612D01*
X015045Y005641D01*
X015285Y005161D02*
X015283Y005114D01*
X015277Y005066D01*
X015268Y005020D01*
X015255Y004974D01*
X015239Y004930D01*
X015219Y004886D01*
X015195Y004845D01*
X015169Y004806D01*
X015139Y004769D01*
X015106Y004734D01*
X015071Y004702D01*
X015034Y004673D01*
X015835Y004911D02*
X015835Y004411D01*
X015837Y004385D01*
X015842Y004359D01*
X015850Y004334D01*
X015862Y004311D01*
X015876Y004289D01*
X015894Y004270D01*
X015913Y004252D01*
X015935Y004238D01*
X015958Y004226D01*
X015983Y004218D01*
X016009Y004213D01*
X016035Y004211D01*
X017335Y004211D01*
X017361Y004213D01*
X017387Y004218D01*
X017412Y004226D01*
X017435Y004238D01*
X017457Y004252D01*
X017476Y004270D01*
X017494Y004289D01*
X017508Y004311D01*
X017520Y004334D01*
X017528Y004359D01*
X017533Y004385D01*
X017535Y004411D01*
X017535Y004911D01*
X017533Y004937D01*
X017528Y004963D01*
X017520Y004988D01*
X017508Y005011D01*
X017494Y005033D01*
X017476Y005052D01*
X017457Y005070D01*
X017435Y005084D01*
X017412Y005096D01*
X017387Y005104D01*
X017361Y005109D01*
X017335Y005111D01*
X016035Y005111D01*
X016009Y005109D01*
X015983Y005104D01*
X015958Y005096D01*
X015935Y005084D01*
X015913Y005070D01*
X015894Y005052D01*
X015876Y005033D01*
X015862Y005011D01*
X015850Y004988D01*
X015842Y004963D01*
X015837Y004937D01*
X015835Y004911D01*
X016185Y004661D02*
X016555Y004661D01*
X016805Y004661D02*
X017185Y004661D01*
X014685Y004561D02*
X014639Y004563D01*
X014593Y004568D01*
X014547Y004577D01*
X014503Y004589D01*
X014459Y004605D01*
X014417Y004624D01*
X014376Y004646D01*
X014338Y004672D01*
X014301Y004700D01*
X014685Y004561D02*
X014732Y004563D01*
X014779Y004568D01*
X014825Y004578D01*
X014871Y004591D01*
X014915Y004607D01*
X014958Y004627D01*
X014999Y004650D01*
X015038Y004676D01*
X015075Y004705D01*
X015069Y005622D02*
X015032Y005650D01*
X014994Y005676D01*
X014953Y005698D01*
X014911Y005717D01*
X014867Y005733D01*
X014823Y005745D01*
X014777Y005754D01*
X014731Y005759D01*
X014685Y005761D01*
X016635Y006661D02*
X016935Y006661D01*
X016935Y006061D01*
X019435Y006061D01*
X019435Y006661D01*
X019435Y007261D01*
X016935Y007261D01*
X016935Y006661D01*
X017035Y007711D02*
X017185Y007711D01*
X017235Y007761D01*
X019135Y007761D01*
X019185Y007711D01*
X019335Y007711D01*
X019352Y007713D01*
X019369Y007717D01*
X019385Y007724D01*
X019399Y007734D01*
X019412Y007747D01*
X019422Y007761D01*
X019429Y007777D01*
X019433Y007794D01*
X019435Y007811D01*
X019435Y008511D01*
X019433Y008528D01*
X019429Y008545D01*
X019422Y008561D01*
X019412Y008575D01*
X019399Y008588D01*
X019385Y008598D01*
X019369Y008605D01*
X019352Y008609D01*
X019335Y008611D01*
X019185Y008611D01*
X019135Y008561D01*
X017235Y008561D01*
X017185Y008611D01*
X017035Y008611D01*
X017018Y008609D01*
X017001Y008605D01*
X016985Y008598D01*
X016971Y008588D01*
X016958Y008575D01*
X016948Y008561D01*
X016941Y008545D01*
X016937Y008528D01*
X016935Y008511D01*
X016935Y007811D01*
X016937Y007794D01*
X016941Y007777D01*
X016948Y007761D01*
X016958Y007747D01*
X016971Y007734D01*
X016985Y007724D01*
X017001Y007717D01*
X017018Y007713D01*
X017035Y007711D01*
X019435Y006661D02*
X019735Y006661D01*
X020555Y006291D02*
X020805Y006541D01*
X022075Y006541D01*
X021185Y005161D01*
X022055Y003781D01*
X022285Y003461D01*
X024085Y003461D01*
X024315Y003781D01*
X025185Y005161D01*
X024315Y006541D01*
X024085Y006861D01*
X022285Y006861D01*
X022075Y006541D01*
X022185Y006161D02*
X022435Y006161D01*
X023685Y005791D01*
X023685Y004531D01*
X022435Y004161D01*
X022185Y004161D01*
X021935Y004411D01*
X021935Y005911D01*
X022185Y006161D01*
X022435Y006161D02*
X022685Y005911D01*
X022685Y004411D01*
X022435Y004161D01*
X022055Y003781D02*
X020805Y003781D01*
X020555Y004031D01*
X020555Y006291D01*
X022685Y006161D02*
X022745Y006189D01*
X022806Y006213D01*
X022869Y006233D01*
X022933Y006250D01*
X022997Y006263D01*
X023062Y006272D01*
X023128Y006278D01*
X023194Y006279D01*
X023260Y006276D01*
X023326Y006270D01*
X023391Y006260D01*
X023455Y006246D01*
X023519Y006228D01*
X023581Y006207D01*
X023642Y006181D01*
X023701Y006153D01*
X023759Y006121D01*
X023814Y006085D01*
X023868Y006046D01*
X023919Y006005D01*
X023967Y005960D01*
X024013Y005912D01*
X024056Y005862D01*
X024095Y005810D01*
X024132Y005755D01*
X024165Y005698D01*
X024195Y005639D01*
X024222Y005579D01*
X024245Y005517D01*
X024264Y005454D01*
X024279Y005390D01*
X024291Y005325D01*
X024299Y005260D01*
X024303Y005194D01*
X024303Y005128D01*
X024299Y005062D01*
X024291Y004997D01*
X024279Y004932D01*
X024264Y004868D01*
X024245Y004805D01*
X024222Y004743D01*
X024195Y004683D01*
X024165Y004624D01*
X024132Y004567D01*
X024095Y004512D01*
X024056Y004460D01*
X024013Y004410D01*
X023967Y004362D01*
X023919Y004317D01*
X023868Y004276D01*
X023814Y004237D01*
X023759Y004201D01*
X023701Y004169D01*
X023642Y004141D01*
X023581Y004115D01*
X023519Y004094D01*
X023455Y004076D01*
X023391Y004062D01*
X023326Y004052D01*
X023260Y004046D01*
X023194Y004043D01*
X023128Y004044D01*
X023062Y004050D01*
X022997Y004059D01*
X022933Y004072D01*
X022869Y004089D01*
X022806Y004109D01*
X022745Y004133D01*
X022685Y004161D01*
X024315Y003781D02*
X025565Y003781D01*
X025815Y004031D01*
X025815Y006291D01*
X025565Y006541D01*
X024315Y006541D01*
X022185Y006161D02*
X022239Y006212D01*
X022295Y006260D01*
X022354Y006305D01*
X022415Y006347D01*
X022478Y006386D01*
X022543Y006421D01*
X022610Y006453D01*
X022678Y006481D01*
X022748Y006506D01*
X022819Y006527D01*
X022891Y006544D01*
X022964Y006558D01*
X023037Y006567D01*
X023111Y006573D01*
X023185Y006575D01*
X023259Y006573D01*
X023333Y006567D01*
X023406Y006558D01*
X023479Y006544D01*
X023551Y006527D01*
X023622Y006506D01*
X023692Y006481D01*
X023760Y006453D01*
X023827Y006421D01*
X023892Y006386D01*
X023955Y006347D01*
X024016Y006305D01*
X024075Y006260D01*
X024131Y006212D01*
X024185Y006161D01*
X024236Y006107D01*
X024284Y006051D01*
X024329Y005992D01*
X024371Y005931D01*
X024410Y005868D01*
X024445Y005803D01*
X024477Y005736D01*
X024505Y005668D01*
X024530Y005598D01*
X024551Y005527D01*
X024568Y005455D01*
X024582Y005382D01*
X024591Y005309D01*
X024597Y005235D01*
X024599Y005161D01*
X024597Y005087D01*
X024591Y005013D01*
X024582Y004940D01*
X024568Y004867D01*
X024551Y004795D01*
X024530Y004724D01*
X024505Y004654D01*
X024477Y004586D01*
X024445Y004519D01*
X024410Y004454D01*
X024371Y004391D01*
X024329Y004330D01*
X024284Y004271D01*
X024236Y004215D01*
X024185Y004161D01*
X024131Y004110D01*
X024075Y004062D01*
X024016Y004017D01*
X023955Y003975D01*
X023892Y003936D01*
X023827Y003901D01*
X023760Y003869D01*
X023692Y003841D01*
X023622Y003816D01*
X023551Y003795D01*
X023479Y003778D01*
X023406Y003764D01*
X023333Y003755D01*
X023259Y003749D01*
X023185Y003747D01*
X023111Y003749D01*
X023037Y003755D01*
X022964Y003764D01*
X022891Y003778D01*
X022819Y003795D01*
X022748Y003816D01*
X022678Y003841D01*
X022610Y003869D01*
X022543Y003901D01*
X022478Y003936D01*
X022415Y003975D01*
X022354Y004017D01*
X022295Y004062D01*
X022239Y004110D01*
X022185Y004161D01*
X026786Y005609D02*
X026824Y005640D01*
X026864Y005668D01*
X026906Y005692D01*
X026949Y005713D01*
X026995Y005730D01*
X027041Y005743D01*
X027089Y005753D01*
X027137Y005759D01*
X027185Y005761D01*
X026785Y005161D02*
X026787Y005122D01*
X026793Y005083D01*
X026802Y005045D01*
X026815Y005008D01*
X026832Y004972D01*
X026852Y004939D01*
X026876Y004907D01*
X026902Y004878D01*
X026931Y004852D01*
X026963Y004828D01*
X026996Y004808D01*
X027032Y004791D01*
X027069Y004778D01*
X027107Y004769D01*
X027146Y004763D01*
X027185Y004761D01*
X027185Y004911D02*
X027155Y004913D01*
X027125Y004918D01*
X027096Y004927D01*
X027069Y004940D01*
X027043Y004955D01*
X027019Y004974D01*
X026998Y004995D01*
X026979Y005019D01*
X026964Y005045D01*
X026951Y005072D01*
X026942Y005101D01*
X026937Y005131D01*
X026935Y005161D01*
X027185Y005561D02*
X027224Y005559D01*
X027263Y005553D01*
X027301Y005544D01*
X027338Y005531D01*
X027374Y005514D01*
X027407Y005494D01*
X027439Y005470D01*
X027468Y005444D01*
X027494Y005415D01*
X027518Y005383D01*
X027538Y005350D01*
X027555Y005314D01*
X027568Y005277D01*
X027577Y005239D01*
X027583Y005200D01*
X027585Y005161D01*
X027435Y005161D02*
X027433Y005191D01*
X027428Y005221D01*
X027419Y005250D01*
X027406Y005277D01*
X027391Y005303D01*
X027372Y005327D01*
X027351Y005348D01*
X027327Y005367D01*
X027301Y005382D01*
X027274Y005395D01*
X027245Y005404D01*
X027215Y005409D01*
X027185Y005411D01*
X026817Y005635D02*
X026782Y005605D01*
X026749Y005574D01*
X026719Y005539D01*
X026692Y005503D01*
X026668Y005465D01*
X026646Y005425D01*
X026628Y005383D01*
X026612Y005340D01*
X026600Y005296D01*
X026592Y005252D01*
X026587Y005206D01*
X026585Y005161D01*
X026587Y005116D01*
X026592Y005070D01*
X026600Y005026D01*
X026612Y004982D01*
X026628Y004939D01*
X026646Y004897D01*
X026668Y004857D01*
X026692Y004819D01*
X026719Y004783D01*
X026749Y004748D01*
X026782Y004717D01*
X026817Y004687D01*
X027785Y005161D02*
X027783Y005207D01*
X027778Y005253D01*
X027769Y005299D01*
X027757Y005344D01*
X027741Y005387D01*
X027722Y005429D01*
X027699Y005470D01*
X027674Y005509D01*
X027646Y005545D01*
X027615Y005580D01*
X027581Y005612D01*
X027545Y005641D01*
X027785Y005161D02*
X027783Y005114D01*
X027777Y005066D01*
X027768Y005020D01*
X027755Y004974D01*
X027739Y004930D01*
X027719Y004886D01*
X027695Y004845D01*
X027669Y004806D01*
X027639Y004769D01*
X027606Y004734D01*
X027571Y004702D01*
X027534Y004673D01*
X027185Y004561D02*
X027139Y004563D01*
X027093Y004568D01*
X027047Y004577D01*
X027003Y004589D01*
X026959Y004605D01*
X026917Y004624D01*
X026876Y004646D01*
X026838Y004672D01*
X026801Y004700D01*
X027185Y004561D02*
X027232Y004563D01*
X027279Y004568D01*
X027325Y004578D01*
X027371Y004591D01*
X027415Y004607D01*
X027458Y004627D01*
X027499Y004650D01*
X027538Y004676D01*
X027575Y004705D01*
X027569Y005622D02*
X027532Y005650D01*
X027494Y005676D01*
X027453Y005698D01*
X027411Y005717D01*
X027367Y005733D01*
X027323Y005745D01*
X027277Y005754D01*
X027231Y005759D01*
X027185Y005761D01*
X029335Y004911D02*
X029335Y004411D01*
X029337Y004385D01*
X029342Y004359D01*
X029350Y004334D01*
X029362Y004311D01*
X029376Y004289D01*
X029394Y004270D01*
X029413Y004252D01*
X029435Y004238D01*
X029458Y004226D01*
X029483Y004218D01*
X029509Y004213D01*
X029535Y004211D01*
X030835Y004211D01*
X030861Y004213D01*
X030887Y004218D01*
X030912Y004226D01*
X030935Y004238D01*
X030957Y004252D01*
X030976Y004270D01*
X030994Y004289D01*
X031008Y004311D01*
X031020Y004334D01*
X031028Y004359D01*
X031033Y004385D01*
X031035Y004411D01*
X031035Y004911D01*
X031033Y004937D01*
X031028Y004963D01*
X031020Y004988D01*
X031008Y005011D01*
X030994Y005033D01*
X030976Y005052D01*
X030957Y005070D01*
X030935Y005084D01*
X030912Y005096D01*
X030887Y005104D01*
X030861Y005109D01*
X030835Y005111D01*
X029535Y005111D01*
X029509Y005109D01*
X029483Y005104D01*
X029458Y005096D01*
X029435Y005084D01*
X029413Y005070D01*
X029394Y005052D01*
X029376Y005033D01*
X029362Y005011D01*
X029350Y004988D01*
X029342Y004963D01*
X029337Y004937D01*
X029335Y004911D01*
X029685Y004661D02*
X030055Y004661D01*
X030305Y004661D02*
X030685Y004661D01*
X030435Y006061D02*
X030435Y006661D01*
X030435Y007261D01*
X032935Y007261D01*
X032935Y006661D01*
X032935Y006061D01*
X030435Y006061D01*
X030435Y006661D02*
X030135Y006661D01*
X030535Y007711D02*
X030685Y007711D01*
X030735Y007761D01*
X032635Y007761D01*
X032685Y007711D01*
X032835Y007711D01*
X032852Y007713D01*
X032869Y007717D01*
X032885Y007724D01*
X032899Y007734D01*
X032912Y007747D01*
X032922Y007761D01*
X032929Y007777D01*
X032933Y007794D01*
X032935Y007811D01*
X032935Y008511D01*
X032933Y008528D01*
X032929Y008545D01*
X032922Y008561D01*
X032912Y008575D01*
X032899Y008588D01*
X032885Y008598D01*
X032869Y008605D01*
X032852Y008609D01*
X032835Y008611D01*
X032685Y008611D01*
X032635Y008561D01*
X030735Y008561D01*
X030685Y008611D01*
X030535Y008611D01*
X030518Y008609D01*
X030501Y008605D01*
X030485Y008598D01*
X030471Y008588D01*
X030458Y008575D01*
X030448Y008561D01*
X030441Y008545D01*
X030437Y008528D01*
X030435Y008511D01*
X030435Y007811D01*
X030437Y007794D01*
X030441Y007777D01*
X030448Y007761D01*
X030458Y007747D01*
X030471Y007734D01*
X030485Y007724D01*
X030501Y007717D01*
X030518Y007713D01*
X030535Y007711D01*
X028635Y008011D02*
X028635Y008161D01*
X028585Y008211D01*
X028585Y010111D01*
X028635Y010161D01*
X028635Y010311D01*
X028633Y010328D01*
X028629Y010345D01*
X028622Y010361D01*
X028612Y010375D01*
X028599Y010388D01*
X028585Y010398D01*
X028569Y010405D01*
X028552Y010409D01*
X028535Y010411D01*
X027835Y010411D01*
X027818Y010409D01*
X027801Y010405D01*
X027785Y010398D01*
X027771Y010388D01*
X027758Y010375D01*
X027748Y010361D01*
X027741Y010345D01*
X027737Y010328D01*
X027735Y010311D01*
X027735Y010161D01*
X027785Y010111D01*
X027785Y008211D01*
X027735Y008161D01*
X027735Y008011D01*
X027737Y007994D01*
X027741Y007977D01*
X027748Y007961D01*
X027758Y007947D01*
X027771Y007934D01*
X027785Y007924D01*
X027801Y007917D01*
X027818Y007913D01*
X027835Y007911D01*
X028535Y007911D01*
X028552Y007913D01*
X028569Y007917D01*
X028585Y007924D01*
X028599Y007934D01*
X028612Y007947D01*
X028622Y007961D01*
X028629Y007977D01*
X028633Y007994D01*
X028635Y008011D01*
X027135Y008011D02*
X027135Y008161D01*
X027085Y008211D01*
X027085Y010111D01*
X027135Y010161D01*
X027135Y010311D01*
X027133Y010328D01*
X027129Y010345D01*
X027122Y010361D01*
X027112Y010375D01*
X027099Y010388D01*
X027085Y010398D01*
X027069Y010405D01*
X027052Y010409D01*
X027035Y010411D01*
X026335Y010411D01*
X026318Y010409D01*
X026301Y010405D01*
X026285Y010398D01*
X026271Y010388D01*
X026258Y010375D01*
X026248Y010361D01*
X026241Y010345D01*
X026237Y010328D01*
X026235Y010311D01*
X026235Y010161D01*
X026285Y010111D01*
X026285Y008211D01*
X026235Y008161D01*
X026235Y008011D01*
X026237Y007994D01*
X026241Y007977D01*
X026248Y007961D01*
X026258Y007947D01*
X026271Y007934D01*
X026285Y007924D01*
X026301Y007917D01*
X026318Y007913D01*
X026335Y007911D01*
X027035Y007911D01*
X027052Y007913D01*
X027069Y007917D01*
X027085Y007924D01*
X027099Y007934D01*
X027112Y007947D01*
X027122Y007961D01*
X027129Y007977D01*
X027133Y007994D01*
X027135Y008011D01*
X025635Y008011D02*
X025635Y008161D01*
X025585Y008211D01*
X025585Y010111D01*
X025635Y010161D01*
X025635Y010311D01*
X025633Y010328D01*
X025629Y010345D01*
X025622Y010361D01*
X025612Y010375D01*
X025599Y010388D01*
X025585Y010398D01*
X025569Y010405D01*
X025552Y010409D01*
X025535Y010411D01*
X024835Y010411D01*
X024818Y010409D01*
X024801Y010405D01*
X024785Y010398D01*
X024771Y010388D01*
X024758Y010375D01*
X024748Y010361D01*
X024741Y010345D01*
X024737Y010328D01*
X024735Y010311D01*
X024735Y010161D01*
X024785Y010111D01*
X024785Y008211D01*
X024735Y008161D01*
X024735Y008011D01*
X024737Y007994D01*
X024741Y007977D01*
X024748Y007961D01*
X024758Y007947D01*
X024771Y007934D01*
X024785Y007924D01*
X024801Y007917D01*
X024818Y007913D01*
X024835Y007911D01*
X025535Y007911D01*
X025552Y007913D01*
X025569Y007917D01*
X025585Y007924D01*
X025599Y007934D01*
X025612Y007947D01*
X025622Y007961D01*
X025629Y007977D01*
X025633Y007994D01*
X025635Y008011D01*
X030135Y009661D02*
X030435Y009661D01*
X030435Y009061D01*
X032935Y009061D01*
X032935Y009661D01*
X032935Y010261D01*
X030435Y010261D01*
X030435Y009661D01*
X030535Y010711D02*
X030685Y010711D01*
X030735Y010761D01*
X032635Y010761D01*
X032685Y010711D01*
X032835Y010711D01*
X032852Y010713D01*
X032869Y010717D01*
X032885Y010724D01*
X032899Y010734D01*
X032912Y010747D01*
X032922Y010761D01*
X032929Y010777D01*
X032933Y010794D01*
X032935Y010811D01*
X032935Y011511D01*
X032933Y011528D01*
X032929Y011545D01*
X032922Y011561D01*
X032912Y011575D01*
X032899Y011588D01*
X032885Y011598D01*
X032869Y011605D01*
X032852Y011609D01*
X032835Y011611D01*
X032685Y011611D01*
X032635Y011561D01*
X030735Y011561D01*
X030685Y011611D01*
X030535Y011611D01*
X030518Y011609D01*
X030501Y011605D01*
X030485Y011598D01*
X030471Y011588D01*
X030458Y011575D01*
X030448Y011561D01*
X030441Y011545D01*
X030437Y011528D01*
X030435Y011511D01*
X030435Y010811D01*
X030437Y010794D01*
X030441Y010777D01*
X030448Y010761D01*
X030458Y010747D01*
X030471Y010734D01*
X030485Y010724D01*
X030501Y010717D01*
X030518Y010713D01*
X030535Y010711D01*
X032935Y009661D02*
X033235Y009661D01*
X038235Y010161D02*
X038285Y010111D01*
X038285Y008211D01*
X038235Y008161D01*
X038235Y008011D01*
X038237Y007994D01*
X038241Y007977D01*
X038248Y007961D01*
X038258Y007947D01*
X038271Y007934D01*
X038285Y007924D01*
X038301Y007917D01*
X038318Y007913D01*
X038335Y007911D01*
X039035Y007911D01*
X039052Y007913D01*
X039069Y007917D01*
X039085Y007924D01*
X039099Y007934D01*
X039112Y007947D01*
X039122Y007961D01*
X039129Y007977D01*
X039133Y007994D01*
X039135Y008011D01*
X039135Y008161D01*
X039085Y008211D01*
X039085Y010111D01*
X039135Y010161D01*
X039135Y010311D01*
X039133Y010328D01*
X039129Y010345D01*
X039122Y010361D01*
X039112Y010375D01*
X039099Y010388D01*
X039085Y010398D01*
X039069Y010405D01*
X039052Y010409D01*
X039035Y010411D01*
X038335Y010411D01*
X038318Y010409D01*
X038301Y010405D01*
X038285Y010398D01*
X038271Y010388D01*
X038258Y010375D01*
X038248Y010361D01*
X038241Y010345D01*
X038237Y010328D01*
X038235Y010311D01*
X038235Y010161D01*
X039735Y010161D02*
X039785Y010111D01*
X039785Y008211D01*
X039735Y008161D01*
X039735Y008011D01*
X039737Y007994D01*
X039741Y007977D01*
X039748Y007961D01*
X039758Y007947D01*
X039771Y007934D01*
X039785Y007924D01*
X039801Y007917D01*
X039818Y007913D01*
X039835Y007911D01*
X040535Y007911D01*
X040552Y007913D01*
X040569Y007917D01*
X040585Y007924D01*
X040599Y007934D01*
X040612Y007947D01*
X040622Y007961D01*
X040629Y007977D01*
X040633Y007994D01*
X040635Y008011D01*
X040635Y008161D01*
X040585Y008211D01*
X040585Y010111D01*
X040635Y010161D01*
X040635Y010311D01*
X040633Y010328D01*
X040629Y010345D01*
X040622Y010361D01*
X040612Y010375D01*
X040599Y010388D01*
X040585Y010398D01*
X040569Y010405D01*
X040552Y010409D01*
X040535Y010411D01*
X039835Y010411D01*
X039818Y010409D01*
X039801Y010405D01*
X039785Y010398D01*
X039771Y010388D01*
X039758Y010375D01*
X039748Y010361D01*
X039741Y010345D01*
X039737Y010328D01*
X039735Y010311D01*
X039735Y010161D01*
X041235Y010161D02*
X041235Y010311D01*
X041237Y010328D01*
X041241Y010345D01*
X041248Y010361D01*
X041258Y010375D01*
X041271Y010388D01*
X041285Y010398D01*
X041301Y010405D01*
X041318Y010409D01*
X041335Y010411D01*
X042035Y010411D01*
X042052Y010409D01*
X042069Y010405D01*
X042085Y010398D01*
X042099Y010388D01*
X042112Y010375D01*
X042122Y010361D01*
X042129Y010345D01*
X042133Y010328D01*
X042135Y010311D01*
X042135Y010161D01*
X042085Y010111D01*
X042085Y008211D01*
X042135Y008161D01*
X042135Y008011D01*
X042133Y007994D01*
X042129Y007977D01*
X042122Y007961D01*
X042112Y007947D01*
X042099Y007934D01*
X042085Y007924D01*
X042069Y007917D01*
X042052Y007913D01*
X042035Y007911D01*
X041335Y007911D01*
X041318Y007913D01*
X041301Y007917D01*
X041285Y007924D01*
X041271Y007934D01*
X041258Y007947D01*
X041248Y007961D01*
X041241Y007977D01*
X041237Y007994D01*
X041235Y008011D01*
X041235Y008161D01*
X041285Y008211D01*
X041285Y010111D01*
X041235Y010161D01*
X037585Y006861D02*
X035785Y006861D01*
X035575Y006541D01*
X034685Y005161D01*
X035555Y003781D01*
X035785Y003461D01*
X037585Y003461D01*
X037815Y003781D01*
X038685Y005161D01*
X037815Y006541D01*
X037585Y006861D01*
X037815Y006541D02*
X039065Y006541D01*
X039315Y006291D01*
X039315Y004031D01*
X039065Y003781D01*
X037815Y003781D01*
X037185Y004531D02*
X037185Y005791D01*
X035935Y006161D01*
X036185Y005911D01*
X036185Y004411D01*
X035935Y004161D01*
X037185Y004531D01*
X035935Y004161D02*
X035685Y004161D01*
X035435Y004411D01*
X035435Y005911D01*
X035685Y006161D01*
X035935Y006161D01*
X035575Y006541D02*
X034305Y006541D01*
X034055Y006291D01*
X034055Y004031D01*
X034305Y003781D01*
X035555Y003781D01*
X036185Y004161D02*
X036245Y004133D01*
X036306Y004109D01*
X036369Y004089D01*
X036433Y004072D01*
X036497Y004059D01*
X036562Y004050D01*
X036628Y004044D01*
X036694Y004043D01*
X036760Y004046D01*
X036826Y004052D01*
X036891Y004062D01*
X036955Y004076D01*
X037019Y004094D01*
X037081Y004115D01*
X037142Y004141D01*
X037201Y004169D01*
X037259Y004201D01*
X037314Y004237D01*
X037368Y004276D01*
X037419Y004317D01*
X037467Y004362D01*
X037513Y004410D01*
X037556Y004460D01*
X037595Y004512D01*
X037632Y004567D01*
X037665Y004624D01*
X037695Y004683D01*
X037722Y004743D01*
X037745Y004805D01*
X037764Y004868D01*
X037779Y004932D01*
X037791Y004997D01*
X037799Y005062D01*
X037803Y005128D01*
X037803Y005194D01*
X037799Y005260D01*
X037791Y005325D01*
X037779Y005390D01*
X037764Y005454D01*
X037745Y005517D01*
X037722Y005579D01*
X037695Y005639D01*
X037665Y005698D01*
X037632Y005755D01*
X037595Y005810D01*
X037556Y005862D01*
X037513Y005912D01*
X037467Y005960D01*
X037419Y006005D01*
X037368Y006046D01*
X037314Y006085D01*
X037259Y006121D01*
X037201Y006153D01*
X037142Y006181D01*
X037081Y006207D01*
X037019Y006228D01*
X036955Y006246D01*
X036891Y006260D01*
X036826Y006270D01*
X036760Y006276D01*
X036694Y006279D01*
X036628Y006278D01*
X036562Y006272D01*
X036497Y006263D01*
X036433Y006250D01*
X036369Y006233D01*
X036306Y006213D01*
X036245Y006189D01*
X036185Y006161D01*
X035685Y006161D02*
X035739Y006212D01*
X035795Y006260D01*
X035854Y006305D01*
X035915Y006347D01*
X035978Y006386D01*
X036043Y006421D01*
X036110Y006453D01*
X036178Y006481D01*
X036248Y006506D01*
X036319Y006527D01*
X036391Y006544D01*
X036464Y006558D01*
X036537Y006567D01*
X036611Y006573D01*
X036685Y006575D01*
X036759Y006573D01*
X036833Y006567D01*
X036906Y006558D01*
X036979Y006544D01*
X037051Y006527D01*
X037122Y006506D01*
X037192Y006481D01*
X037260Y006453D01*
X037327Y006421D01*
X037392Y006386D01*
X037455Y006347D01*
X037516Y006305D01*
X037575Y006260D01*
X037631Y006212D01*
X037685Y006161D01*
X037736Y006107D01*
X037784Y006051D01*
X037829Y005992D01*
X037871Y005931D01*
X037910Y005868D01*
X037945Y005803D01*
X037977Y005736D01*
X038005Y005668D01*
X038030Y005598D01*
X038051Y005527D01*
X038068Y005455D01*
X038082Y005382D01*
X038091Y005309D01*
X038097Y005235D01*
X038099Y005161D01*
X038097Y005087D01*
X038091Y005013D01*
X038082Y004940D01*
X038068Y004867D01*
X038051Y004795D01*
X038030Y004724D01*
X038005Y004654D01*
X037977Y004586D01*
X037945Y004519D01*
X037910Y004454D01*
X037871Y004391D01*
X037829Y004330D01*
X037784Y004271D01*
X037736Y004215D01*
X037685Y004161D01*
X037631Y004110D01*
X037575Y004062D01*
X037516Y004017D01*
X037455Y003975D01*
X037392Y003936D01*
X037327Y003901D01*
X037260Y003869D01*
X037192Y003841D01*
X037122Y003816D01*
X037051Y003795D01*
X036979Y003778D01*
X036906Y003764D01*
X036833Y003755D01*
X036759Y003749D01*
X036685Y003747D01*
X036611Y003749D01*
X036537Y003755D01*
X036464Y003764D01*
X036391Y003778D01*
X036319Y003795D01*
X036248Y003816D01*
X036178Y003841D01*
X036110Y003869D01*
X036043Y003901D01*
X035978Y003936D01*
X035915Y003975D01*
X035854Y004017D01*
X035795Y004062D01*
X035739Y004110D01*
X035685Y004161D01*
X040286Y005609D02*
X040324Y005640D01*
X040364Y005668D01*
X040406Y005692D01*
X040449Y005713D01*
X040495Y005730D01*
X040541Y005743D01*
X040589Y005753D01*
X040637Y005759D01*
X040685Y005761D01*
X040285Y005161D02*
X040287Y005122D01*
X040293Y005083D01*
X040302Y005045D01*
X040315Y005008D01*
X040332Y004972D01*
X040352Y004939D01*
X040376Y004907D01*
X040402Y004878D01*
X040431Y004852D01*
X040463Y004828D01*
X040496Y004808D01*
X040532Y004791D01*
X040569Y004778D01*
X040607Y004769D01*
X040646Y004763D01*
X040685Y004761D01*
X040685Y004911D02*
X040655Y004913D01*
X040625Y004918D01*
X040596Y004927D01*
X040569Y004940D01*
X040543Y004955D01*
X040519Y004974D01*
X040498Y004995D01*
X040479Y005019D01*
X040464Y005045D01*
X040451Y005072D01*
X040442Y005101D01*
X040437Y005131D01*
X040435Y005161D01*
X040685Y005561D02*
X040724Y005559D01*
X040763Y005553D01*
X040801Y005544D01*
X040838Y005531D01*
X040874Y005514D01*
X040907Y005494D01*
X040939Y005470D01*
X040968Y005444D01*
X040994Y005415D01*
X041018Y005383D01*
X041038Y005350D01*
X041055Y005314D01*
X041068Y005277D01*
X041077Y005239D01*
X041083Y005200D01*
X041085Y005161D01*
X040935Y005161D02*
X040933Y005191D01*
X040928Y005221D01*
X040919Y005250D01*
X040906Y005277D01*
X040891Y005303D01*
X040872Y005327D01*
X040851Y005348D01*
X040827Y005367D01*
X040801Y005382D01*
X040774Y005395D01*
X040745Y005404D01*
X040715Y005409D01*
X040685Y005411D01*
X040317Y005635D02*
X040282Y005605D01*
X040249Y005574D01*
X040219Y005539D01*
X040192Y005503D01*
X040168Y005465D01*
X040146Y005425D01*
X040128Y005383D01*
X040112Y005340D01*
X040100Y005296D01*
X040092Y005252D01*
X040087Y005206D01*
X040085Y005161D01*
X040087Y005116D01*
X040092Y005070D01*
X040100Y005026D01*
X040112Y004982D01*
X040128Y004939D01*
X040146Y004897D01*
X040168Y004857D01*
X040192Y004819D01*
X040219Y004783D01*
X040249Y004748D01*
X040282Y004717D01*
X040317Y004687D01*
X041285Y005161D02*
X041283Y005207D01*
X041278Y005253D01*
X041269Y005299D01*
X041257Y005344D01*
X041241Y005387D01*
X041222Y005429D01*
X041199Y005470D01*
X041174Y005509D01*
X041146Y005545D01*
X041115Y005580D01*
X041081Y005612D01*
X041045Y005641D01*
X041285Y005161D02*
X041283Y005114D01*
X041277Y005066D01*
X041268Y005020D01*
X041255Y004974D01*
X041239Y004930D01*
X041219Y004886D01*
X041195Y004845D01*
X041169Y004806D01*
X041139Y004769D01*
X041106Y004734D01*
X041071Y004702D01*
X041034Y004673D01*
X040685Y004561D02*
X040639Y004563D01*
X040593Y004568D01*
X040547Y004577D01*
X040503Y004589D01*
X040459Y004605D01*
X040417Y004624D01*
X040376Y004646D01*
X040338Y004672D01*
X040301Y004700D01*
X040685Y004561D02*
X040732Y004563D01*
X040779Y004568D01*
X040825Y004578D01*
X040871Y004591D01*
X040915Y004607D01*
X040958Y004627D01*
X040999Y004650D01*
X041038Y004676D01*
X041075Y004705D01*
X041069Y005622D02*
X041032Y005650D01*
X040994Y005676D01*
X040953Y005698D01*
X040911Y005717D01*
X040867Y005733D01*
X040823Y005745D01*
X040777Y005754D01*
X040731Y005759D01*
X040685Y005761D01*
X033235Y006661D02*
X032935Y006661D01*
X032435Y012311D02*
X031935Y012311D01*
X031909Y012313D01*
X031883Y012318D01*
X031858Y012326D01*
X031835Y012338D01*
X031813Y012352D01*
X031794Y012370D01*
X031776Y012389D01*
X031762Y012411D01*
X031750Y012434D01*
X031742Y012459D01*
X031737Y012485D01*
X031735Y012511D01*
X031735Y013811D01*
X031737Y013837D01*
X031742Y013863D01*
X031750Y013888D01*
X031762Y013911D01*
X031776Y013933D01*
X031794Y013952D01*
X031813Y013970D01*
X031835Y013984D01*
X031858Y013996D01*
X031883Y014004D01*
X031909Y014009D01*
X031935Y014011D01*
X032435Y014011D01*
X032461Y014009D01*
X032487Y014004D01*
X032512Y013996D01*
X032535Y013984D01*
X032557Y013970D01*
X032576Y013952D01*
X032594Y013933D01*
X032608Y013911D01*
X032620Y013888D01*
X032628Y013863D01*
X032633Y013837D01*
X032635Y013811D01*
X032635Y012511D01*
X032633Y012485D01*
X032628Y012459D01*
X032620Y012434D01*
X032608Y012411D01*
X032594Y012389D01*
X032576Y012370D01*
X032557Y012352D01*
X032535Y012338D01*
X032512Y012326D01*
X032487Y012318D01*
X032461Y012313D01*
X032435Y012311D01*
X032185Y012661D02*
X032185Y013041D01*
X032185Y013291D02*
X032185Y013661D01*
X031135Y013661D02*
X031135Y013511D01*
X031133Y013494D01*
X031129Y013477D01*
X031122Y013461D01*
X031112Y013447D01*
X031099Y013434D01*
X031085Y013424D01*
X031069Y013417D01*
X031052Y013413D01*
X031035Y013411D01*
X030335Y013411D01*
X030318Y013413D01*
X030301Y013417D01*
X030285Y013424D01*
X030271Y013434D01*
X030258Y013447D01*
X030248Y013461D01*
X030241Y013477D01*
X030237Y013494D01*
X030235Y013511D01*
X030235Y013661D01*
X030285Y013711D01*
X030285Y015611D01*
X030235Y015661D01*
X030235Y015811D01*
X030237Y015828D01*
X030241Y015845D01*
X030248Y015861D01*
X030258Y015875D01*
X030271Y015888D01*
X030285Y015898D01*
X030301Y015905D01*
X030318Y015909D01*
X030335Y015911D01*
X031035Y015911D01*
X031052Y015909D01*
X031069Y015905D01*
X031085Y015898D01*
X031099Y015888D01*
X031112Y015875D01*
X031122Y015861D01*
X031129Y015845D01*
X031133Y015828D01*
X031135Y015811D01*
X031135Y015661D01*
X031085Y015611D01*
X031085Y013711D01*
X031135Y013661D01*
X029685Y013661D02*
X029685Y012661D01*
X025685Y012661D01*
X025685Y013661D01*
X025685Y014261D01*
X025724Y014263D01*
X025763Y014269D01*
X025801Y014278D01*
X025838Y014291D01*
X025874Y014308D01*
X025907Y014328D01*
X025939Y014352D01*
X025968Y014378D01*
X025994Y014407D01*
X026018Y014439D01*
X026038Y014472D01*
X026055Y014508D01*
X026068Y014545D01*
X026077Y014583D01*
X026083Y014622D01*
X026085Y014661D01*
X026083Y014700D01*
X026077Y014739D01*
X026068Y014777D01*
X026055Y014814D01*
X026038Y014850D01*
X026018Y014883D01*
X025994Y014915D01*
X025968Y014944D01*
X025939Y014970D01*
X025907Y014994D01*
X025874Y015014D01*
X025838Y015031D01*
X025801Y015044D01*
X025763Y015053D01*
X025724Y015059D01*
X025685Y015061D01*
X025685Y015661D01*
X029685Y015661D01*
X029685Y013661D01*
X025685Y013661D01*
X025135Y013661D02*
X025085Y013711D01*
X025085Y015611D01*
X025135Y015661D01*
X025135Y015811D01*
X025133Y015828D01*
X025129Y015845D01*
X025122Y015861D01*
X025112Y015875D01*
X025099Y015888D01*
X025085Y015898D01*
X025069Y015905D01*
X025052Y015909D01*
X025035Y015911D01*
X024335Y015911D01*
X024318Y015909D01*
X024301Y015905D01*
X024285Y015898D01*
X024271Y015888D01*
X024258Y015875D01*
X024248Y015861D01*
X024241Y015845D01*
X024237Y015828D01*
X024235Y015811D01*
X024235Y015661D01*
X024285Y015611D01*
X024285Y013711D01*
X024235Y013661D01*
X024235Y013511D01*
X024237Y013494D01*
X024241Y013477D01*
X024248Y013461D01*
X024258Y013447D01*
X024271Y013434D01*
X024285Y013424D01*
X024301Y013417D01*
X024318Y013413D01*
X024335Y013411D01*
X025035Y013411D01*
X025052Y013413D01*
X025069Y013417D01*
X025085Y013424D01*
X025099Y013434D01*
X025112Y013447D01*
X025122Y013461D01*
X025129Y013477D01*
X025133Y013494D01*
X025135Y013511D01*
X025135Y013661D01*
X023635Y014311D02*
X023635Y013011D01*
X023633Y012985D01*
X023628Y012959D01*
X023620Y012934D01*
X023608Y012911D01*
X023594Y012889D01*
X023576Y012870D01*
X023557Y012852D01*
X023535Y012838D01*
X023512Y012826D01*
X023487Y012818D01*
X023461Y012813D01*
X023435Y012811D01*
X022935Y012811D01*
X022909Y012813D01*
X022883Y012818D01*
X022858Y012826D01*
X022835Y012838D01*
X022813Y012852D01*
X022794Y012870D01*
X022776Y012889D01*
X022762Y012911D01*
X022750Y012934D01*
X022742Y012959D01*
X022737Y012985D01*
X022735Y013011D01*
X022735Y014311D01*
X022737Y014337D01*
X022742Y014363D01*
X022750Y014388D01*
X022762Y014411D01*
X022776Y014433D01*
X022794Y014452D01*
X022813Y014470D01*
X022835Y014484D01*
X022858Y014496D01*
X022883Y014504D01*
X022909Y014509D01*
X022935Y014511D01*
X023435Y014511D01*
X023461Y014509D01*
X023487Y014504D01*
X023512Y014496D01*
X023535Y014484D01*
X023557Y014470D01*
X023576Y014452D01*
X023594Y014433D01*
X023608Y014411D01*
X023620Y014388D01*
X023628Y014363D01*
X023633Y014337D01*
X023635Y014311D01*
X023185Y014161D02*
X023185Y013791D01*
X023185Y013541D02*
X023185Y013161D01*
X022135Y013511D02*
X022135Y013661D01*
X022085Y013711D01*
X022085Y015611D01*
X022135Y015661D01*
X022135Y015811D01*
X022133Y015828D01*
X022129Y015845D01*
X022122Y015861D01*
X022112Y015875D01*
X022099Y015888D01*
X022085Y015898D01*
X022069Y015905D01*
X022052Y015909D01*
X022035Y015911D01*
X021335Y015911D01*
X021318Y015909D01*
X021301Y015905D01*
X021285Y015898D01*
X021271Y015888D01*
X021258Y015875D01*
X021248Y015861D01*
X021241Y015845D01*
X021237Y015828D01*
X021235Y015811D01*
X021235Y015661D01*
X021285Y015611D01*
X021285Y013711D01*
X021235Y013661D01*
X021235Y013511D01*
X021237Y013494D01*
X021241Y013477D01*
X021248Y013461D01*
X021258Y013447D01*
X021271Y013434D01*
X021285Y013424D01*
X021301Y013417D01*
X021318Y013413D01*
X021335Y013411D01*
X022035Y013411D01*
X022052Y013413D01*
X022069Y013417D01*
X022085Y013424D01*
X022099Y013434D01*
X022112Y013447D01*
X022122Y013461D01*
X022129Y013477D01*
X022133Y013494D01*
X022135Y013511D01*
X022935Y014811D02*
X023435Y014811D01*
X023461Y014813D01*
X023487Y014818D01*
X023512Y014826D01*
X023535Y014838D01*
X023557Y014852D01*
X023576Y014870D01*
X023594Y014889D01*
X023608Y014911D01*
X023620Y014934D01*
X023628Y014959D01*
X023633Y014985D01*
X023635Y015011D01*
X023635Y016311D01*
X023633Y016337D01*
X023628Y016363D01*
X023620Y016388D01*
X023608Y016411D01*
X023594Y016433D01*
X023576Y016452D01*
X023557Y016470D01*
X023535Y016484D01*
X023512Y016496D01*
X023487Y016504D01*
X023461Y016509D01*
X023435Y016511D01*
X022935Y016511D01*
X022909Y016509D01*
X022883Y016504D01*
X022858Y016496D01*
X022835Y016484D01*
X022813Y016470D01*
X022794Y016452D01*
X022776Y016433D01*
X022762Y016411D01*
X022750Y016388D01*
X022742Y016363D01*
X022737Y016337D01*
X022735Y016311D01*
X022735Y015011D01*
X022737Y014985D01*
X022742Y014959D01*
X022750Y014934D01*
X022762Y014911D01*
X022776Y014889D01*
X022794Y014870D01*
X022813Y014852D01*
X022835Y014838D01*
X022858Y014826D01*
X022883Y014818D01*
X022909Y014813D01*
X022935Y014811D01*
X023185Y015161D02*
X023185Y015531D01*
X023185Y015781D02*
X023185Y016161D01*
X023685Y016911D02*
X023935Y016911D01*
X023935Y017161D01*
X022685Y017661D02*
X022687Y017705D01*
X022693Y017749D01*
X022703Y017792D01*
X022716Y017834D01*
X022733Y017875D01*
X022754Y017914D01*
X022778Y017951D01*
X022805Y017986D01*
X022835Y018018D01*
X022868Y018048D01*
X022904Y018074D01*
X022941Y018098D01*
X022981Y018117D01*
X023022Y018134D01*
X023065Y018146D01*
X023108Y018155D01*
X023152Y018160D01*
X023196Y018161D01*
X023240Y018158D01*
X023284Y018151D01*
X023327Y018140D01*
X023369Y018126D01*
X023409Y018108D01*
X023448Y018086D01*
X023484Y018062D01*
X023518Y018034D01*
X023550Y018003D01*
X023579Y017969D01*
X023605Y017933D01*
X023627Y017895D01*
X023646Y017855D01*
X023661Y017813D01*
X023673Y017771D01*
X023681Y017727D01*
X023685Y017683D01*
X023685Y017639D01*
X023681Y017595D01*
X023673Y017551D01*
X023661Y017509D01*
X023646Y017467D01*
X023627Y017427D01*
X023605Y017389D01*
X023579Y017353D01*
X023550Y017319D01*
X023518Y017288D01*
X023484Y017260D01*
X023448Y017236D01*
X023409Y017214D01*
X023369Y017196D01*
X023327Y017182D01*
X023284Y017171D01*
X023240Y017164D01*
X023196Y017161D01*
X023152Y017162D01*
X023108Y017167D01*
X023065Y017176D01*
X023022Y017188D01*
X022981Y017205D01*
X022941Y017224D01*
X022904Y017248D01*
X022868Y017274D01*
X022835Y017304D01*
X022805Y017336D01*
X022778Y017371D01*
X022754Y017408D01*
X022733Y017447D01*
X022716Y017488D01*
X022703Y017530D01*
X022693Y017573D01*
X022687Y017617D01*
X022685Y017661D01*
X022435Y017161D02*
X022435Y016911D01*
X022685Y016911D01*
X020935Y016911D02*
X020685Y016911D01*
X020935Y016911D02*
X020935Y017161D01*
X019685Y017661D02*
X019687Y017705D01*
X019693Y017749D01*
X019703Y017792D01*
X019716Y017834D01*
X019733Y017875D01*
X019754Y017914D01*
X019778Y017951D01*
X019805Y017986D01*
X019835Y018018D01*
X019868Y018048D01*
X019904Y018074D01*
X019941Y018098D01*
X019981Y018117D01*
X020022Y018134D01*
X020065Y018146D01*
X020108Y018155D01*
X020152Y018160D01*
X020196Y018161D01*
X020240Y018158D01*
X020284Y018151D01*
X020327Y018140D01*
X020369Y018126D01*
X020409Y018108D01*
X020448Y018086D01*
X020484Y018062D01*
X020518Y018034D01*
X020550Y018003D01*
X020579Y017969D01*
X020605Y017933D01*
X020627Y017895D01*
X020646Y017855D01*
X020661Y017813D01*
X020673Y017771D01*
X020681Y017727D01*
X020685Y017683D01*
X020685Y017639D01*
X020681Y017595D01*
X020673Y017551D01*
X020661Y017509D01*
X020646Y017467D01*
X020627Y017427D01*
X020605Y017389D01*
X020579Y017353D01*
X020550Y017319D01*
X020518Y017288D01*
X020484Y017260D01*
X020448Y017236D01*
X020409Y017214D01*
X020369Y017196D01*
X020327Y017182D01*
X020284Y017171D01*
X020240Y017164D01*
X020196Y017161D01*
X020152Y017162D01*
X020108Y017167D01*
X020065Y017176D01*
X020022Y017188D01*
X019981Y017205D01*
X019941Y017224D01*
X019904Y017248D01*
X019868Y017274D01*
X019835Y017304D01*
X019805Y017336D01*
X019778Y017371D01*
X019754Y017408D01*
X019733Y017447D01*
X019716Y017488D01*
X019703Y017530D01*
X019693Y017573D01*
X019687Y017617D01*
X019685Y017661D01*
X019435Y017161D02*
X019435Y016911D01*
X019685Y016911D01*
X017935Y016911D02*
X017685Y016911D01*
X017935Y016911D02*
X017935Y017161D01*
X016685Y017661D02*
X016687Y017705D01*
X016693Y017749D01*
X016703Y017792D01*
X016716Y017834D01*
X016733Y017875D01*
X016754Y017914D01*
X016778Y017951D01*
X016805Y017986D01*
X016835Y018018D01*
X016868Y018048D01*
X016904Y018074D01*
X016941Y018098D01*
X016981Y018117D01*
X017022Y018134D01*
X017065Y018146D01*
X017108Y018155D01*
X017152Y018160D01*
X017196Y018161D01*
X017240Y018158D01*
X017284Y018151D01*
X017327Y018140D01*
X017369Y018126D01*
X017409Y018108D01*
X017448Y018086D01*
X017484Y018062D01*
X017518Y018034D01*
X017550Y018003D01*
X017579Y017969D01*
X017605Y017933D01*
X017627Y017895D01*
X017646Y017855D01*
X017661Y017813D01*
X017673Y017771D01*
X017681Y017727D01*
X017685Y017683D01*
X017685Y017639D01*
X017681Y017595D01*
X017673Y017551D01*
X017661Y017509D01*
X017646Y017467D01*
X017627Y017427D01*
X017605Y017389D01*
X017579Y017353D01*
X017550Y017319D01*
X017518Y017288D01*
X017484Y017260D01*
X017448Y017236D01*
X017409Y017214D01*
X017369Y017196D01*
X017327Y017182D01*
X017284Y017171D01*
X017240Y017164D01*
X017196Y017161D01*
X017152Y017162D01*
X017108Y017167D01*
X017065Y017176D01*
X017022Y017188D01*
X016981Y017205D01*
X016941Y017224D01*
X016904Y017248D01*
X016868Y017274D01*
X016835Y017304D01*
X016805Y017336D01*
X016778Y017371D01*
X016754Y017408D01*
X016733Y017447D01*
X016716Y017488D01*
X016703Y017530D01*
X016693Y017573D01*
X016687Y017617D01*
X016685Y017661D01*
X016435Y017161D02*
X016435Y016911D01*
X016685Y016911D01*
X014435Y016911D02*
X014185Y016911D01*
X014435Y016911D02*
X014435Y017161D01*
X013185Y017661D02*
X013187Y017705D01*
X013193Y017749D01*
X013203Y017792D01*
X013216Y017834D01*
X013233Y017875D01*
X013254Y017914D01*
X013278Y017951D01*
X013305Y017986D01*
X013335Y018018D01*
X013368Y018048D01*
X013404Y018074D01*
X013441Y018098D01*
X013481Y018117D01*
X013522Y018134D01*
X013565Y018146D01*
X013608Y018155D01*
X013652Y018160D01*
X013696Y018161D01*
X013740Y018158D01*
X013784Y018151D01*
X013827Y018140D01*
X013869Y018126D01*
X013909Y018108D01*
X013948Y018086D01*
X013984Y018062D01*
X014018Y018034D01*
X014050Y018003D01*
X014079Y017969D01*
X014105Y017933D01*
X014127Y017895D01*
X014146Y017855D01*
X014161Y017813D01*
X014173Y017771D01*
X014181Y017727D01*
X014185Y017683D01*
X014185Y017639D01*
X014181Y017595D01*
X014173Y017551D01*
X014161Y017509D01*
X014146Y017467D01*
X014127Y017427D01*
X014105Y017389D01*
X014079Y017353D01*
X014050Y017319D01*
X014018Y017288D01*
X013984Y017260D01*
X013948Y017236D01*
X013909Y017214D01*
X013869Y017196D01*
X013827Y017182D01*
X013784Y017171D01*
X013740Y017164D01*
X013696Y017161D01*
X013652Y017162D01*
X013608Y017167D01*
X013565Y017176D01*
X013522Y017188D01*
X013481Y017205D01*
X013441Y017224D01*
X013404Y017248D01*
X013368Y017274D01*
X013335Y017304D01*
X013305Y017336D01*
X013278Y017371D01*
X013254Y017408D01*
X013233Y017447D01*
X013216Y017488D01*
X013203Y017530D01*
X013193Y017573D01*
X013187Y017617D01*
X013185Y017661D01*
X012935Y017161D02*
X012935Y016911D01*
X013185Y016911D01*
X012935Y018161D02*
X012935Y018411D01*
X013185Y018411D01*
X014185Y018411D02*
X014435Y018411D01*
X014435Y018161D01*
X016435Y018161D02*
X016435Y018411D01*
X016685Y018411D01*
X017685Y018411D02*
X017935Y018411D01*
X017935Y018161D01*
X019435Y018161D02*
X019435Y018411D01*
X019685Y018411D01*
X020685Y018411D02*
X020935Y018411D01*
X020935Y018161D01*
X022435Y018161D02*
X022435Y018411D01*
X022685Y018411D01*
X023685Y018411D02*
X023935Y018411D01*
X023935Y018161D01*
X025835Y017911D02*
X025835Y017411D01*
X025837Y017385D01*
X025842Y017359D01*
X025850Y017334D01*
X025862Y017311D01*
X025876Y017289D01*
X025894Y017270D01*
X025913Y017252D01*
X025935Y017238D01*
X025958Y017226D01*
X025983Y017218D01*
X026009Y017213D01*
X026035Y017211D01*
X027335Y017211D01*
X027361Y017213D01*
X027387Y017218D01*
X027412Y017226D01*
X027435Y017238D01*
X027457Y017252D01*
X027476Y017270D01*
X027494Y017289D01*
X027508Y017311D01*
X027520Y017334D01*
X027528Y017359D01*
X027533Y017385D01*
X027535Y017411D01*
X027535Y017911D01*
X027533Y017937D01*
X027528Y017963D01*
X027520Y017988D01*
X027508Y018011D01*
X027494Y018033D01*
X027476Y018052D01*
X027457Y018070D01*
X027435Y018084D01*
X027412Y018096D01*
X027387Y018104D01*
X027361Y018109D01*
X027335Y018111D01*
X026035Y018111D01*
X026009Y018109D01*
X025983Y018104D01*
X025958Y018096D01*
X025935Y018084D01*
X025913Y018070D01*
X025894Y018052D01*
X025876Y018033D01*
X025862Y018011D01*
X025850Y017988D01*
X025842Y017963D01*
X025837Y017937D01*
X025835Y017911D01*
X026185Y017661D02*
X026555Y017661D01*
X026805Y017661D02*
X027185Y017661D01*
X025685Y016661D02*
X025685Y015661D01*
X025685Y016661D02*
X029685Y016661D01*
X029685Y015661D01*
X031935Y016911D02*
X031935Y017161D01*
X031935Y016911D02*
X032185Y016911D01*
X032185Y017661D02*
X032187Y017705D01*
X032193Y017749D01*
X032203Y017792D01*
X032216Y017834D01*
X032233Y017875D01*
X032254Y017914D01*
X032278Y017951D01*
X032305Y017986D01*
X032335Y018018D01*
X032368Y018048D01*
X032404Y018074D01*
X032441Y018098D01*
X032481Y018117D01*
X032522Y018134D01*
X032565Y018146D01*
X032608Y018155D01*
X032652Y018160D01*
X032696Y018161D01*
X032740Y018158D01*
X032784Y018151D01*
X032827Y018140D01*
X032869Y018126D01*
X032909Y018108D01*
X032948Y018086D01*
X032984Y018062D01*
X033018Y018034D01*
X033050Y018003D01*
X033079Y017969D01*
X033105Y017933D01*
X033127Y017895D01*
X033146Y017855D01*
X033161Y017813D01*
X033173Y017771D01*
X033181Y017727D01*
X033185Y017683D01*
X033185Y017639D01*
X033181Y017595D01*
X033173Y017551D01*
X033161Y017509D01*
X033146Y017467D01*
X033127Y017427D01*
X033105Y017389D01*
X033079Y017353D01*
X033050Y017319D01*
X033018Y017288D01*
X032984Y017260D01*
X032948Y017236D01*
X032909Y017214D01*
X032869Y017196D01*
X032827Y017182D01*
X032784Y017171D01*
X032740Y017164D01*
X032696Y017161D01*
X032652Y017162D01*
X032608Y017167D01*
X032565Y017176D01*
X032522Y017188D01*
X032481Y017205D01*
X032441Y017224D01*
X032404Y017248D01*
X032368Y017274D01*
X032335Y017304D01*
X032305Y017336D01*
X032278Y017371D01*
X032254Y017408D01*
X032233Y017447D01*
X032216Y017488D01*
X032203Y017530D01*
X032193Y017573D01*
X032187Y017617D01*
X032185Y017661D01*
X031935Y018161D02*
X031935Y018411D01*
X032185Y018411D01*
X033185Y018411D02*
X033435Y018411D01*
X033435Y018161D01*
X034435Y018161D02*
X034435Y018411D01*
X034685Y018411D01*
X035685Y018411D02*
X035935Y018411D01*
X035935Y018161D01*
X036935Y018161D02*
X036935Y018411D01*
X037185Y018411D01*
X038185Y018411D02*
X038435Y018411D01*
X038435Y018161D01*
X039435Y018161D02*
X039435Y018411D01*
X039685Y018411D01*
X040685Y018411D02*
X040935Y018411D01*
X040935Y018161D01*
X039685Y017661D02*
X039687Y017705D01*
X039693Y017749D01*
X039703Y017792D01*
X039716Y017834D01*
X039733Y017875D01*
X039754Y017914D01*
X039778Y017951D01*
X039805Y017986D01*
X039835Y018018D01*
X039868Y018048D01*
X039904Y018074D01*
X039941Y018098D01*
X039981Y018117D01*
X040022Y018134D01*
X040065Y018146D01*
X040108Y018155D01*
X040152Y018160D01*
X040196Y018161D01*
X040240Y018158D01*
X040284Y018151D01*
X040327Y018140D01*
X040369Y018126D01*
X040409Y018108D01*
X040448Y018086D01*
X040484Y018062D01*
X040518Y018034D01*
X040550Y018003D01*
X040579Y017969D01*
X040605Y017933D01*
X040627Y017895D01*
X040646Y017855D01*
X040661Y017813D01*
X040673Y017771D01*
X040681Y017727D01*
X040685Y017683D01*
X040685Y017639D01*
X040681Y017595D01*
X040673Y017551D01*
X040661Y017509D01*
X040646Y017467D01*
X040627Y017427D01*
X040605Y017389D01*
X040579Y017353D01*
X040550Y017319D01*
X040518Y017288D01*
X040484Y017260D01*
X040448Y017236D01*
X040409Y017214D01*
X040369Y017196D01*
X040327Y017182D01*
X040284Y017171D01*
X040240Y017164D01*
X040196Y017161D01*
X040152Y017162D01*
X040108Y017167D01*
X040065Y017176D01*
X040022Y017188D01*
X039981Y017205D01*
X039941Y017224D01*
X039904Y017248D01*
X039868Y017274D01*
X039835Y017304D01*
X039805Y017336D01*
X039778Y017371D01*
X039754Y017408D01*
X039733Y017447D01*
X039716Y017488D01*
X039703Y017530D01*
X039693Y017573D01*
X039687Y017617D01*
X039685Y017661D01*
X039435Y017161D02*
X039435Y016911D01*
X039685Y016911D01*
X040685Y016911D02*
X040935Y016911D01*
X040935Y017161D01*
X038435Y017161D02*
X038435Y016911D01*
X038185Y016911D01*
X037185Y017661D02*
X037187Y017705D01*
X037193Y017749D01*
X037203Y017792D01*
X037216Y017834D01*
X037233Y017875D01*
X037254Y017914D01*
X037278Y017951D01*
X037305Y017986D01*
X037335Y018018D01*
X037368Y018048D01*
X037404Y018074D01*
X037441Y018098D01*
X037481Y018117D01*
X037522Y018134D01*
X037565Y018146D01*
X037608Y018155D01*
X037652Y018160D01*
X037696Y018161D01*
X037740Y018158D01*
X037784Y018151D01*
X037827Y018140D01*
X037869Y018126D01*
X037909Y018108D01*
X037948Y018086D01*
X037984Y018062D01*
X038018Y018034D01*
X038050Y018003D01*
X038079Y017969D01*
X038105Y017933D01*
X038127Y017895D01*
X038146Y017855D01*
X038161Y017813D01*
X038173Y017771D01*
X038181Y017727D01*
X038185Y017683D01*
X038185Y017639D01*
X038181Y017595D01*
X038173Y017551D01*
X038161Y017509D01*
X038146Y017467D01*
X038127Y017427D01*
X038105Y017389D01*
X038079Y017353D01*
X038050Y017319D01*
X038018Y017288D01*
X037984Y017260D01*
X037948Y017236D01*
X037909Y017214D01*
X037869Y017196D01*
X037827Y017182D01*
X037784Y017171D01*
X037740Y017164D01*
X037696Y017161D01*
X037652Y017162D01*
X037608Y017167D01*
X037565Y017176D01*
X037522Y017188D01*
X037481Y017205D01*
X037441Y017224D01*
X037404Y017248D01*
X037368Y017274D01*
X037335Y017304D01*
X037305Y017336D01*
X037278Y017371D01*
X037254Y017408D01*
X037233Y017447D01*
X037216Y017488D01*
X037203Y017530D01*
X037193Y017573D01*
X037187Y017617D01*
X037185Y017661D01*
X036935Y017161D02*
X036935Y016911D01*
X037185Y016911D01*
X035935Y016911D02*
X035685Y016911D01*
X035935Y016911D02*
X035935Y017161D01*
X034685Y017661D02*
X034687Y017705D01*
X034693Y017749D01*
X034703Y017792D01*
X034716Y017834D01*
X034733Y017875D01*
X034754Y017914D01*
X034778Y017951D01*
X034805Y017986D01*
X034835Y018018D01*
X034868Y018048D01*
X034904Y018074D01*
X034941Y018098D01*
X034981Y018117D01*
X035022Y018134D01*
X035065Y018146D01*
X035108Y018155D01*
X035152Y018160D01*
X035196Y018161D01*
X035240Y018158D01*
X035284Y018151D01*
X035327Y018140D01*
X035369Y018126D01*
X035409Y018108D01*
X035448Y018086D01*
X035484Y018062D01*
X035518Y018034D01*
X035550Y018003D01*
X035579Y017969D01*
X035605Y017933D01*
X035627Y017895D01*
X035646Y017855D01*
X035661Y017813D01*
X035673Y017771D01*
X035681Y017727D01*
X035685Y017683D01*
X035685Y017639D01*
X035681Y017595D01*
X035673Y017551D01*
X035661Y017509D01*
X035646Y017467D01*
X035627Y017427D01*
X035605Y017389D01*
X035579Y017353D01*
X035550Y017319D01*
X035518Y017288D01*
X035484Y017260D01*
X035448Y017236D01*
X035409Y017214D01*
X035369Y017196D01*
X035327Y017182D01*
X035284Y017171D01*
X035240Y017164D01*
X035196Y017161D01*
X035152Y017162D01*
X035108Y017167D01*
X035065Y017176D01*
X035022Y017188D01*
X034981Y017205D01*
X034941Y017224D01*
X034904Y017248D01*
X034868Y017274D01*
X034835Y017304D01*
X034805Y017336D01*
X034778Y017371D01*
X034754Y017408D01*
X034733Y017447D01*
X034716Y017488D01*
X034703Y017530D01*
X034693Y017573D01*
X034687Y017617D01*
X034685Y017661D01*
X034435Y017161D02*
X034435Y016911D01*
X034685Y016911D01*
X033435Y016911D02*
X033185Y016911D01*
X033435Y016911D02*
X033435Y017161D01*
X019435Y015511D02*
X019435Y014811D01*
X019433Y014794D01*
X019429Y014777D01*
X019422Y014761D01*
X019412Y014747D01*
X019399Y014734D01*
X019385Y014724D01*
X019369Y014717D01*
X019352Y014713D01*
X019335Y014711D01*
X019185Y014711D01*
X019135Y014761D01*
X017235Y014761D01*
X017185Y014711D01*
X017035Y014711D01*
X017018Y014713D01*
X017001Y014717D01*
X016985Y014724D01*
X016971Y014734D01*
X016958Y014747D01*
X016948Y014761D01*
X016941Y014777D01*
X016937Y014794D01*
X016935Y014811D01*
X016935Y015511D01*
X016937Y015528D01*
X016941Y015545D01*
X016948Y015561D01*
X016958Y015575D01*
X016971Y015588D01*
X016985Y015598D01*
X017001Y015605D01*
X017018Y015609D01*
X017035Y015611D01*
X017185Y015611D01*
X017235Y015561D01*
X019135Y015561D01*
X019185Y015611D01*
X019335Y015611D01*
X019352Y015609D01*
X019369Y015605D01*
X019385Y015598D01*
X019399Y015588D01*
X019412Y015575D01*
X019422Y015561D01*
X019429Y015545D01*
X019433Y015528D01*
X019435Y015511D01*
X019335Y014111D02*
X019185Y014111D01*
X019135Y014061D01*
X017235Y014061D01*
X017185Y014111D01*
X017035Y014111D01*
X017018Y014109D01*
X017001Y014105D01*
X016985Y014098D01*
X016971Y014088D01*
X016958Y014075D01*
X016948Y014061D01*
X016941Y014045D01*
X016937Y014028D01*
X016935Y014011D01*
X016935Y013311D01*
X016937Y013294D01*
X016941Y013277D01*
X016948Y013261D01*
X016958Y013247D01*
X016971Y013234D01*
X016985Y013224D01*
X017001Y013217D01*
X017018Y013213D01*
X017035Y013211D01*
X017185Y013211D01*
X017235Y013261D01*
X019135Y013261D01*
X019185Y013211D01*
X019335Y013211D01*
X019352Y013213D01*
X019369Y013217D01*
X019385Y013224D01*
X019399Y013234D01*
X019412Y013247D01*
X019422Y013261D01*
X019429Y013277D01*
X019433Y013294D01*
X019435Y013311D01*
X019435Y014011D01*
X019433Y014028D01*
X019429Y014045D01*
X019422Y014061D01*
X019412Y014075D01*
X019399Y014088D01*
X019385Y014098D01*
X019369Y014105D01*
X019352Y014109D01*
X019335Y014111D01*
X015135Y012811D02*
X015135Y012661D01*
X015085Y012611D01*
X015085Y010711D01*
X015135Y010661D01*
X015135Y010511D01*
X015133Y010494D01*
X015129Y010477D01*
X015122Y010461D01*
X015112Y010447D01*
X015099Y010434D01*
X015085Y010424D01*
X015069Y010417D01*
X015052Y010413D01*
X015035Y010411D01*
X014335Y010411D01*
X014318Y010413D01*
X014301Y010417D01*
X014285Y010424D01*
X014271Y010434D01*
X014258Y010447D01*
X014248Y010461D01*
X014241Y010477D01*
X014237Y010494D01*
X014235Y010511D01*
X014235Y010661D01*
X014285Y010711D01*
X014285Y012611D01*
X014235Y012661D01*
X014235Y012811D01*
X014237Y012828D01*
X014241Y012845D01*
X014248Y012861D01*
X014258Y012875D01*
X014271Y012888D01*
X014285Y012898D01*
X014301Y012905D01*
X014318Y012909D01*
X014335Y012911D01*
X015035Y012911D01*
X015052Y012909D01*
X015069Y012905D01*
X015085Y012898D01*
X015099Y012888D01*
X015112Y012875D01*
X015122Y012861D01*
X015129Y012845D01*
X015133Y012828D01*
X015135Y012811D01*
X017035Y011611D02*
X017185Y011611D01*
X017235Y011561D01*
X019135Y011561D01*
X019185Y011611D01*
X019335Y011611D01*
X019352Y011609D01*
X019369Y011605D01*
X019385Y011598D01*
X019399Y011588D01*
X019412Y011575D01*
X019422Y011561D01*
X019429Y011545D01*
X019433Y011528D01*
X019435Y011511D01*
X019435Y010811D01*
X019433Y010794D01*
X019429Y010777D01*
X019422Y010761D01*
X019412Y010747D01*
X019399Y010734D01*
X019385Y010724D01*
X019369Y010717D01*
X019352Y010713D01*
X019335Y010711D01*
X019185Y010711D01*
X019135Y010761D01*
X017235Y010761D01*
X017185Y010711D01*
X017035Y010711D01*
X017018Y010713D01*
X017001Y010717D01*
X016985Y010724D01*
X016971Y010734D01*
X016958Y010747D01*
X016948Y010761D01*
X016941Y010777D01*
X016937Y010794D01*
X016935Y010811D01*
X016935Y011511D01*
X016937Y011528D01*
X016941Y011545D01*
X016948Y011561D01*
X016958Y011575D01*
X016971Y011588D01*
X016985Y011598D01*
X017001Y011605D01*
X017018Y011609D01*
X017035Y011611D01*
X016935Y010261D02*
X016935Y009661D01*
X016935Y009061D01*
X019435Y009061D01*
X019435Y009661D01*
X019435Y010261D01*
X016935Y010261D01*
X016935Y009661D02*
X016635Y009661D01*
X019435Y009661D02*
X019735Y009661D01*
X011185Y013161D02*
X011125Y013133D01*
X011064Y013109D01*
X011001Y013089D01*
X010937Y013072D01*
X010873Y013059D01*
X010808Y013050D01*
X010742Y013044D01*
X010676Y013043D01*
X010610Y013046D01*
X010544Y013052D01*
X010479Y013062D01*
X010415Y013076D01*
X010351Y013094D01*
X010289Y013115D01*
X010228Y013141D01*
X010169Y013169D01*
X010111Y013201D01*
X010056Y013237D01*
X010002Y013276D01*
X009951Y013317D01*
X009903Y013362D01*
X009857Y013410D01*
X009814Y013460D01*
X009775Y013512D01*
X009738Y013567D01*
X009705Y013624D01*
X009675Y013683D01*
X009648Y013743D01*
X009625Y013805D01*
X009606Y013868D01*
X009591Y013932D01*
X009579Y013997D01*
X009571Y014062D01*
X009567Y014128D01*
X009567Y014194D01*
X009571Y014260D01*
X009579Y014325D01*
X009591Y014390D01*
X009606Y014454D01*
X009625Y014517D01*
X009648Y014579D01*
X009675Y014639D01*
X009705Y014698D01*
X009738Y014755D01*
X009775Y014810D01*
X009814Y014862D01*
X009857Y014912D01*
X009903Y014960D01*
X009951Y015005D01*
X010002Y015046D01*
X010056Y015085D01*
X010111Y015121D01*
X010169Y015153D01*
X010228Y015181D01*
X010289Y015207D01*
X010351Y015228D01*
X010415Y015246D01*
X010479Y015260D01*
X010544Y015270D01*
X010610Y015276D01*
X010676Y015279D01*
X010742Y015278D01*
X010808Y015272D01*
X010873Y015263D01*
X010937Y015250D01*
X011001Y015233D01*
X011064Y015213D01*
X011125Y015189D01*
X011185Y015161D01*
X011685Y015161D02*
X011631Y015212D01*
X011575Y015260D01*
X011516Y015305D01*
X011455Y015347D01*
X011392Y015386D01*
X011327Y015421D01*
X011260Y015453D01*
X011192Y015481D01*
X011122Y015506D01*
X011051Y015527D01*
X010979Y015544D01*
X010906Y015558D01*
X010833Y015567D01*
X010759Y015573D01*
X010685Y015575D01*
X010611Y015573D01*
X010537Y015567D01*
X010464Y015558D01*
X010391Y015544D01*
X010319Y015527D01*
X010248Y015506D01*
X010178Y015481D01*
X010110Y015453D01*
X010043Y015421D01*
X009978Y015386D01*
X009915Y015347D01*
X009854Y015305D01*
X009795Y015260D01*
X009739Y015212D01*
X009685Y015161D01*
X009634Y015107D01*
X009586Y015051D01*
X009541Y014992D01*
X009499Y014931D01*
X009460Y014868D01*
X009425Y014803D01*
X009393Y014736D01*
X009365Y014668D01*
X009340Y014598D01*
X009319Y014527D01*
X009302Y014455D01*
X009288Y014382D01*
X009279Y014309D01*
X009273Y014235D01*
X009271Y014161D01*
X009273Y014087D01*
X009279Y014013D01*
X009288Y013940D01*
X009302Y013867D01*
X009319Y013795D01*
X009340Y013724D01*
X009365Y013654D01*
X009393Y013586D01*
X009425Y013519D01*
X009460Y013454D01*
X009499Y013391D01*
X009541Y013330D01*
X009586Y013271D01*
X009634Y013215D01*
X009685Y013161D01*
X009739Y013110D01*
X009795Y013062D01*
X009854Y013017D01*
X009915Y012975D01*
X009978Y012936D01*
X010043Y012901D01*
X010110Y012869D01*
X010178Y012841D01*
X010248Y012816D01*
X010319Y012795D01*
X010391Y012778D01*
X010464Y012764D01*
X010537Y012755D01*
X010611Y012749D01*
X010685Y012747D01*
X010759Y012749D01*
X010833Y012755D01*
X010906Y012764D01*
X010979Y012778D01*
X011051Y012795D01*
X011122Y012816D01*
X011192Y012841D01*
X011260Y012869D01*
X011327Y012901D01*
X011392Y012936D01*
X011455Y012975D01*
X011516Y013017D01*
X011575Y013062D01*
X011631Y013110D01*
X011685Y013161D01*
X007635Y013011D02*
X007635Y014311D01*
X007633Y014337D01*
X007628Y014363D01*
X007620Y014388D01*
X007608Y014411D01*
X007594Y014433D01*
X007576Y014452D01*
X007557Y014470D01*
X007535Y014484D01*
X007512Y014496D01*
X007487Y014504D01*
X007461Y014509D01*
X007435Y014511D01*
X006935Y014511D01*
X006909Y014509D01*
X006883Y014504D01*
X006858Y014496D01*
X006835Y014484D01*
X006813Y014470D01*
X006794Y014452D01*
X006776Y014433D01*
X006762Y014411D01*
X006750Y014388D01*
X006742Y014363D01*
X006737Y014337D01*
X006735Y014311D01*
X006735Y013011D01*
X006737Y012985D01*
X006742Y012959D01*
X006750Y012934D01*
X006762Y012911D01*
X006776Y012889D01*
X006794Y012870D01*
X006813Y012852D01*
X006835Y012838D01*
X006858Y012826D01*
X006883Y012818D01*
X006909Y012813D01*
X006935Y012811D01*
X007435Y012811D01*
X007461Y012813D01*
X007487Y012818D01*
X007512Y012826D01*
X007535Y012838D01*
X007557Y012852D01*
X007576Y012870D01*
X007594Y012889D01*
X007608Y012911D01*
X007620Y012934D01*
X007628Y012959D01*
X007633Y012985D01*
X007635Y013011D01*
X007185Y013161D02*
X007185Y013531D01*
X007185Y013781D02*
X007185Y014161D01*
D12*
X007185Y011161D02*
X006785Y011161D01*
X003585Y011161D02*
X003185Y011161D01*
X003185Y008161D02*
X003585Y008161D01*
X006785Y008161D02*
X007185Y008161D01*
X014685Y009661D02*
X014685Y010061D01*
X016185Y011161D02*
X016585Y011161D01*
X019785Y011161D02*
X020185Y011161D01*
X021685Y012661D02*
X021685Y013061D01*
X020185Y013661D02*
X019785Y013661D01*
X016585Y013661D02*
X016185Y013661D01*
X014685Y013661D02*
X014685Y013261D01*
X016185Y015161D02*
X016585Y015161D01*
X019785Y015161D02*
X020185Y015161D01*
X021685Y016261D02*
X021685Y016661D01*
X024685Y016661D02*
X024685Y016261D01*
X030685Y016261D02*
X030685Y016661D01*
X030685Y013061D02*
X030685Y012661D01*
X030085Y011161D02*
X029685Y011161D01*
X028185Y011161D02*
X028185Y010761D01*
X026685Y010761D02*
X026685Y011161D01*
X025185Y011161D02*
X025185Y010761D01*
X024685Y012661D02*
X024685Y013061D01*
X033285Y011161D02*
X033685Y011161D01*
X038685Y011161D02*
X038685Y010761D01*
X040185Y010761D02*
X040185Y011161D01*
X041685Y011161D02*
X041685Y010761D01*
X041685Y007561D02*
X041685Y007161D01*
X040185Y007161D02*
X040185Y007561D01*
X038685Y007561D02*
X038685Y007161D01*
X033685Y008161D02*
X033285Y008161D01*
X030085Y008161D02*
X029685Y008161D01*
X028185Y007561D02*
X028185Y007161D01*
X026685Y007161D02*
X026685Y007561D01*
X025185Y007561D02*
X025185Y007161D01*
X020185Y008161D02*
X019785Y008161D01*
X016585Y008161D02*
X016185Y008161D01*
D13*
X014685Y010241D03*
X014685Y013081D03*
X021685Y013241D03*
X024685Y013241D03*
X025185Y010581D03*
X026685Y010581D03*
X028185Y010581D03*
X028185Y007741D03*
X026685Y007741D03*
X025185Y007741D03*
X030685Y013241D03*
X030685Y016081D03*
X024685Y016081D03*
X021685Y016081D03*
X038685Y010581D03*
X040185Y010581D03*
X041685Y010581D03*
X041685Y007741D03*
X040185Y007741D03*
X038685Y007741D03*
D14*
X030305Y004961D02*
X030305Y004361D01*
X030055Y004361D02*
X030055Y004961D01*
X016805Y004961D02*
X016805Y004361D01*
X016555Y004361D02*
X016555Y004961D01*
X005305Y004861D02*
X005305Y005461D01*
X005055Y005461D02*
X005055Y004861D01*
X006885Y013531D02*
X007485Y013531D01*
X007485Y013781D02*
X006885Y013781D01*
X022885Y013791D02*
X023485Y013791D01*
X023485Y013541D02*
X022885Y013541D01*
X022885Y015531D02*
X023485Y015531D01*
X023485Y015781D02*
X022885Y015781D01*
X026555Y017361D02*
X026555Y017961D01*
X026805Y017961D02*
X026805Y017361D01*
X031885Y013291D02*
X032485Y013291D01*
X032485Y013041D02*
X031885Y013041D01*
D15*
X033105Y011161D03*
X030265Y011161D03*
X030265Y008161D03*
X033105Y008161D03*
X019605Y008161D03*
X016765Y008161D03*
X016765Y011161D03*
X019605Y011161D03*
X019605Y013661D03*
X016765Y013661D03*
X016765Y015161D03*
X019605Y015161D03*
X006605Y011161D03*
X003765Y011161D03*
X003765Y008161D03*
X006605Y008161D03*
D16*
X014185Y004541D02*
X015185Y004541D01*
X015064Y005865D02*
X015014Y005890D01*
X014961Y005912D01*
X014908Y005929D01*
X014853Y005943D01*
X014798Y005953D01*
X014741Y005959D01*
X014685Y005961D01*
X014288Y005856D02*
X014240Y005826D01*
X014195Y005793D01*
X014152Y005757D01*
X014111Y005719D01*
X014074Y005677D01*
X014039Y005633D01*
X014008Y005587D01*
X013979Y005538D01*
X013955Y005488D01*
X013934Y005436D01*
X013916Y005382D01*
X013903Y005328D01*
X013893Y005273D01*
X013887Y005217D01*
X013885Y005161D01*
X014266Y005842D02*
X014314Y005870D01*
X014363Y005894D01*
X014415Y005914D01*
X014467Y005931D01*
X014521Y005944D01*
X014575Y005953D01*
X014630Y005959D01*
X014685Y005961D01*
X013885Y005161D02*
X013887Y005108D01*
X013892Y005054D01*
X013901Y005002D01*
X013913Y004950D01*
X013929Y004899D01*
X013948Y004849D01*
X013971Y004800D01*
X013997Y004753D01*
X014025Y004708D01*
X014057Y004665D01*
X014091Y004625D01*
X014129Y004586D01*
X014168Y004550D01*
X015485Y005161D02*
X015483Y005215D01*
X015478Y005269D01*
X015469Y005322D01*
X015456Y005375D01*
X015440Y005426D01*
X015420Y005476D01*
X015397Y005525D01*
X015371Y005573D01*
X015342Y005618D01*
X015309Y005661D01*
X015274Y005702D01*
X015236Y005741D01*
X015196Y005777D01*
X015153Y005810D01*
X015108Y005840D01*
X015061Y005867D01*
X015485Y005161D02*
X015483Y005107D01*
X015478Y005054D01*
X015469Y005000D01*
X015456Y004948D01*
X015440Y004897D01*
X015420Y004846D01*
X015398Y004797D01*
X015372Y004750D01*
X015342Y004705D01*
X015310Y004662D01*
X015275Y004621D01*
X015237Y004582D01*
X015197Y004546D01*
X026685Y004541D02*
X027685Y004541D01*
X027564Y005865D02*
X027514Y005890D01*
X027461Y005912D01*
X027408Y005929D01*
X027353Y005943D01*
X027298Y005953D01*
X027241Y005959D01*
X027185Y005961D01*
X026788Y005856D02*
X026740Y005826D01*
X026695Y005793D01*
X026652Y005757D01*
X026611Y005719D01*
X026574Y005677D01*
X026539Y005633D01*
X026508Y005587D01*
X026479Y005538D01*
X026455Y005488D01*
X026434Y005436D01*
X026416Y005382D01*
X026403Y005328D01*
X026393Y005273D01*
X026387Y005217D01*
X026385Y005161D01*
X026766Y005842D02*
X026814Y005870D01*
X026863Y005894D01*
X026915Y005914D01*
X026967Y005931D01*
X027021Y005944D01*
X027075Y005953D01*
X027130Y005959D01*
X027185Y005961D01*
X026385Y005161D02*
X026387Y005108D01*
X026392Y005054D01*
X026401Y005002D01*
X026413Y004950D01*
X026429Y004899D01*
X026448Y004849D01*
X026471Y004800D01*
X026497Y004753D01*
X026525Y004708D01*
X026557Y004665D01*
X026591Y004625D01*
X026629Y004586D01*
X026668Y004550D01*
X027985Y005161D02*
X027983Y005215D01*
X027978Y005269D01*
X027969Y005322D01*
X027956Y005375D01*
X027940Y005426D01*
X027920Y005476D01*
X027897Y005525D01*
X027871Y005573D01*
X027842Y005618D01*
X027809Y005661D01*
X027774Y005702D01*
X027736Y005741D01*
X027696Y005777D01*
X027653Y005810D01*
X027608Y005840D01*
X027561Y005867D01*
X027985Y005161D02*
X027983Y005107D01*
X027978Y005054D01*
X027969Y005000D01*
X027956Y004948D01*
X027940Y004897D01*
X027920Y004846D01*
X027898Y004797D01*
X027872Y004750D01*
X027842Y004705D01*
X027810Y004662D01*
X027775Y004621D01*
X027737Y004582D01*
X027697Y004546D01*
X040185Y004541D02*
X041185Y004541D01*
X041064Y005865D02*
X041014Y005890D01*
X040961Y005912D01*
X040908Y005929D01*
X040853Y005943D01*
X040798Y005953D01*
X040741Y005959D01*
X040685Y005961D01*
X040288Y005856D02*
X040240Y005826D01*
X040195Y005793D01*
X040152Y005757D01*
X040111Y005719D01*
X040074Y005677D01*
X040039Y005633D01*
X040008Y005587D01*
X039979Y005538D01*
X039955Y005488D01*
X039934Y005436D01*
X039916Y005382D01*
X039903Y005328D01*
X039893Y005273D01*
X039887Y005217D01*
X039885Y005161D01*
X040266Y005842D02*
X040314Y005870D01*
X040363Y005894D01*
X040415Y005914D01*
X040467Y005931D01*
X040521Y005944D01*
X040575Y005953D01*
X040630Y005959D01*
X040685Y005961D01*
X039885Y005161D02*
X039887Y005108D01*
X039892Y005054D01*
X039901Y005002D01*
X039913Y004950D01*
X039929Y004899D01*
X039948Y004849D01*
X039971Y004800D01*
X039997Y004753D01*
X040025Y004708D01*
X040057Y004665D01*
X040091Y004625D01*
X040129Y004586D01*
X040168Y004550D01*
X041485Y005161D02*
X041483Y005215D01*
X041478Y005269D01*
X041469Y005322D01*
X041456Y005375D01*
X041440Y005426D01*
X041420Y005476D01*
X041397Y005525D01*
X041371Y005573D01*
X041342Y005618D01*
X041309Y005661D01*
X041274Y005702D01*
X041236Y005741D01*
X041196Y005777D01*
X041153Y005810D01*
X041108Y005840D01*
X041061Y005867D01*
X041485Y005161D02*
X041483Y005107D01*
X041478Y005054D01*
X041469Y005000D01*
X041456Y004948D01*
X041440Y004897D01*
X041420Y004846D01*
X041398Y004797D01*
X041372Y004750D01*
X041342Y004705D01*
X041310Y004662D01*
X041275Y004621D01*
X041237Y004582D01*
X041197Y004546D01*
D17*
X030935Y006661D03*
X030935Y009661D03*
X017435Y009661D03*
X017435Y006661D03*
X004435Y006661D03*
X004435Y009661D03*
D18*
X017120Y017180D02*
X017122Y017178D01*
X017125Y017178D01*
X017127Y017180D01*
X017127Y017187D01*
X017125Y017188D01*
X017122Y017188D01*
X017120Y017187D01*
X017120Y017180D01*
X017130Y017180D02*
X017131Y017178D01*
X017135Y017178D01*
X017136Y017180D01*
X017139Y017178D02*
X017145Y017185D01*
X017145Y017187D01*
X017144Y017188D01*
X017140Y017188D01*
X017139Y017187D01*
X017136Y017187D02*
X017135Y017188D01*
X017131Y017188D01*
X017130Y017187D01*
X017130Y017180D01*
X017139Y017178D02*
X017145Y017178D01*
X017148Y017177D02*
X017155Y017177D01*
X017157Y017180D02*
X017159Y017178D01*
X017162Y017178D01*
X017164Y017180D01*
X017164Y017187D01*
X017162Y017188D01*
X017159Y017188D01*
X017157Y017187D01*
X017157Y017180D01*
X017166Y017180D02*
X017168Y017178D01*
X017171Y017178D01*
X017173Y017180D01*
X017173Y017188D01*
X017175Y017188D02*
X017182Y017188D01*
X017179Y017188D02*
X017179Y017178D01*
X017166Y017180D02*
X017166Y017188D01*
X020133Y017188D02*
X020138Y017188D01*
X020139Y017187D01*
X020139Y017180D01*
X020138Y017178D01*
X020133Y017178D01*
X020133Y017188D01*
X020142Y017188D02*
X020147Y017188D01*
X020149Y017187D01*
X020149Y017180D01*
X020147Y017178D01*
X020142Y017178D01*
X020142Y017188D01*
X020151Y017187D02*
X020151Y017185D01*
X020153Y017183D01*
X020156Y017183D01*
X020158Y017182D01*
X020158Y017180D01*
X020156Y017178D01*
X020153Y017178D01*
X020151Y017180D01*
X020151Y017187D02*
X020153Y017188D01*
X020156Y017188D01*
X020158Y017187D01*
X020160Y017177D02*
X020167Y017177D01*
X020169Y017178D02*
X020173Y017178D01*
X020171Y017178D02*
X020171Y017188D01*
X020169Y017188D02*
X020173Y017188D01*
X020176Y017188D02*
X020182Y017178D01*
X020182Y017188D01*
X020176Y017188D02*
X020176Y017178D01*
X023185Y018135D02*
X023187Y018133D01*
X023190Y018133D01*
X023192Y018135D01*
X023192Y018138D01*
X023188Y018138D01*
X023185Y018135D02*
X023185Y018142D01*
X023187Y018143D01*
X023190Y018143D01*
X023192Y018142D01*
X023194Y018143D02*
X023201Y018133D01*
X023201Y018143D01*
X023203Y018143D02*
X023208Y018143D01*
X023210Y018142D01*
X023210Y018135D01*
X023208Y018133D01*
X023203Y018133D01*
X023203Y018143D01*
X023194Y018143D02*
X023194Y018133D01*
X013747Y018143D02*
X013740Y018143D01*
X013737Y018143D02*
X013737Y018135D01*
X013736Y018133D01*
X013732Y018133D01*
X013731Y018135D01*
X013731Y018143D01*
X013728Y018142D02*
X013727Y018143D01*
X013723Y018143D01*
X013722Y018142D01*
X013722Y018135D01*
X013723Y018133D01*
X013727Y018133D01*
X013728Y018135D01*
X013728Y018142D01*
X013719Y018132D02*
X013712Y018132D01*
X013710Y018133D02*
X013703Y018133D01*
X013701Y018135D02*
X013699Y018133D01*
X013696Y018133D01*
X013694Y018135D01*
X013694Y018142D01*
X013696Y018143D01*
X013699Y018143D01*
X013701Y018142D01*
X013703Y018140D02*
X013707Y018143D01*
X013707Y018133D01*
X013692Y018135D02*
X013692Y018142D01*
X013690Y018143D01*
X013687Y018143D01*
X013685Y018142D01*
X013685Y018135D01*
X013687Y018133D01*
X013690Y018133D01*
X013692Y018135D01*
X013743Y018133D02*
X013743Y018143D01*
X032685Y018138D02*
X032692Y018138D01*
X032694Y018138D02*
X032697Y018140D01*
X032699Y018140D01*
X032701Y018138D01*
X032701Y018135D01*
X032699Y018133D01*
X032696Y018133D01*
X032694Y018135D01*
X032694Y018138D02*
X032694Y018143D01*
X032701Y018143D01*
X032703Y018143D02*
X032703Y018137D01*
X032707Y018133D01*
X032710Y018137D01*
X032710Y018143D01*
X032688Y018142D02*
X032688Y018135D01*
X035133Y017187D02*
X035133Y017180D01*
X035134Y017178D01*
X035138Y017178D01*
X035139Y017180D01*
X035139Y017187D01*
X035138Y017188D01*
X035134Y017188D01*
X035133Y017187D01*
X035142Y017187D02*
X035142Y017180D01*
X035144Y017178D01*
X035147Y017178D01*
X035149Y017180D01*
X035151Y017178D02*
X035158Y017185D01*
X035158Y017187D01*
X035156Y017188D01*
X035153Y017188D01*
X035151Y017187D01*
X035149Y017187D02*
X035147Y017188D01*
X035144Y017188D01*
X035142Y017187D01*
X035151Y017178D02*
X035158Y017178D01*
X035160Y017177D02*
X035167Y017177D01*
X035169Y017178D02*
X035173Y017178D01*
X035171Y017178D02*
X035171Y017188D01*
X035169Y017188D02*
X035173Y017188D01*
X035176Y017188D02*
X035182Y017178D01*
X035182Y017188D01*
X035176Y017188D02*
X035176Y017178D01*
X037620Y017180D02*
X037622Y017178D01*
X037625Y017178D01*
X037627Y017180D01*
X037627Y017187D01*
X037625Y017188D01*
X037622Y017188D01*
X037620Y017187D01*
X037620Y017180D01*
X037630Y017180D02*
X037631Y017178D01*
X037635Y017178D01*
X037636Y017180D01*
X037639Y017180D02*
X037640Y017178D01*
X037644Y017178D01*
X037645Y017180D01*
X037645Y017182D01*
X037644Y017183D01*
X037642Y017183D01*
X037644Y017183D02*
X037645Y017185D01*
X037645Y017187D01*
X037644Y017188D01*
X037640Y017188D01*
X037639Y017187D01*
X037636Y017187D02*
X037635Y017188D01*
X037631Y017188D01*
X037630Y017187D01*
X037630Y017180D01*
X037648Y017177D02*
X037655Y017177D01*
X037657Y017180D02*
X037659Y017178D01*
X037662Y017178D01*
X037664Y017180D01*
X037664Y017187D01*
X037662Y017188D01*
X037659Y017188D01*
X037657Y017187D01*
X037657Y017180D01*
X037666Y017180D02*
X037668Y017178D01*
X037671Y017178D01*
X037673Y017180D01*
X037673Y017188D01*
X037675Y017188D02*
X037682Y017188D01*
X037679Y017188D02*
X037679Y017178D01*
X037666Y017180D02*
X037666Y017188D01*
X040133Y017180D02*
X040134Y017178D01*
X040138Y017178D01*
X040139Y017180D01*
X040139Y017187D01*
X040138Y017188D01*
X040134Y017188D01*
X040133Y017187D01*
X040133Y017180D01*
X040142Y017180D02*
X040144Y017178D01*
X040147Y017178D01*
X040149Y017180D01*
X040151Y017180D02*
X040153Y017178D01*
X040156Y017178D01*
X040158Y017180D01*
X040158Y017182D01*
X040156Y017183D01*
X040154Y017183D01*
X040156Y017183D02*
X040158Y017185D01*
X040158Y017187D01*
X040156Y017188D01*
X040153Y017188D01*
X040151Y017187D01*
X040149Y017187D02*
X040147Y017188D01*
X040144Y017188D01*
X040142Y017187D01*
X040142Y017180D01*
X040160Y017177D02*
X040167Y017177D01*
X040169Y017178D02*
X040173Y017178D01*
X040171Y017178D02*
X040171Y017188D01*
X040169Y017188D02*
X040173Y017188D01*
X040176Y017188D02*
X040182Y017178D01*
X040182Y017188D01*
X040176Y017188D02*
X040176Y017178D01*
D19*
X035135Y010710D02*
X035135Y010214D01*
X035135Y010108D01*
X035135Y009214D01*
X035135Y009108D01*
X035135Y008612D01*
X034535Y008836D02*
X034535Y010486D01*
X021635Y010710D02*
X021635Y010214D01*
X021635Y010108D01*
X021635Y009214D01*
X021635Y009108D01*
X021635Y008612D01*
X021035Y008836D02*
X021035Y010486D01*
X005234Y013111D02*
X004738Y013111D01*
X004632Y013111D01*
X003738Y013111D01*
X003632Y013111D01*
X003136Y013111D01*
X003360Y012511D02*
X005010Y012511D01*
D20*
X005028Y012503D02*
X004996Y012528D01*
X004997Y012527D02*
X005032Y012575D01*
X005064Y012624D01*
X005093Y012675D01*
X005119Y012727D01*
X005155Y012711D01*
X005155Y012710D01*
X005128Y012656D01*
X005098Y012603D01*
X005065Y012552D01*
X005028Y012503D01*
X005021Y012508D01*
X005057Y012557D01*
X005090Y012608D01*
X005120Y012660D01*
X005147Y012714D01*
X005139Y012718D01*
X005112Y012664D01*
X005083Y012612D01*
X005050Y012562D01*
X005014Y012514D01*
X005007Y012519D01*
X005042Y012567D01*
X005075Y012617D01*
X005104Y012668D01*
X005131Y012722D01*
X005123Y012725D01*
X005096Y012673D01*
X005067Y012622D01*
X005035Y012572D01*
X005000Y012525D01*
X005155Y012710D02*
X005119Y012727D01*
X005144Y012786D01*
X005166Y012846D01*
X005183Y012908D01*
X005197Y012970D01*
X005207Y013033D01*
X005213Y013097D01*
X005215Y013161D01*
X005213Y013225D01*
X005207Y013289D01*
X005197Y013352D01*
X005183Y013414D01*
X005166Y013476D01*
X005144Y013536D01*
X005119Y013595D01*
X005155Y013612D01*
X005180Y013555D01*
X005201Y013497D01*
X005219Y013437D01*
X005233Y013377D01*
X005244Y013316D01*
X005251Y013254D01*
X005255Y013192D01*
X005255Y013130D01*
X005251Y013068D01*
X005244Y013006D01*
X005233Y012945D01*
X005219Y012885D01*
X005201Y012825D01*
X005180Y012767D01*
X005155Y012710D01*
X005147Y012714D01*
X005171Y012770D01*
X005192Y012828D01*
X005210Y012887D01*
X005224Y012947D01*
X005235Y013008D01*
X005242Y013069D01*
X005246Y013130D01*
X005246Y013192D01*
X005242Y013253D01*
X005235Y013314D01*
X005224Y013375D01*
X005210Y013435D01*
X005192Y013494D01*
X005171Y013552D01*
X005147Y013608D01*
X005139Y013605D01*
X005163Y013548D01*
X005184Y013491D01*
X005201Y013433D01*
X005215Y013373D01*
X005226Y013313D01*
X005233Y013252D01*
X005237Y013192D01*
X005237Y013130D01*
X005233Y013070D01*
X005226Y013009D01*
X005215Y012949D01*
X005201Y012889D01*
X005184Y012831D01*
X005163Y012774D01*
X005139Y012717D01*
X005131Y012721D01*
X005155Y012777D01*
X005175Y012834D01*
X005193Y012892D01*
X005207Y012951D01*
X005217Y013010D01*
X005224Y013070D01*
X005228Y013131D01*
X005228Y013191D01*
X005224Y013252D01*
X005217Y013312D01*
X005207Y013371D01*
X005193Y013430D01*
X005175Y013488D01*
X005155Y013545D01*
X005131Y013601D01*
X005123Y013597D01*
X005146Y013542D01*
X005167Y013485D01*
X005184Y013428D01*
X005198Y013370D01*
X005208Y013310D01*
X005215Y013251D01*
X005219Y013191D01*
X005219Y013131D01*
X005215Y013071D01*
X005208Y013012D01*
X005198Y012952D01*
X005184Y012894D01*
X005167Y012837D01*
X005146Y012780D01*
X005123Y012725D01*
X003215Y013612D02*
X003251Y013595D01*
X003226Y013536D01*
X003204Y013476D01*
X003187Y013414D01*
X003173Y013352D01*
X003163Y013289D01*
X003157Y013225D01*
X003155Y013161D01*
X003157Y013097D01*
X003163Y013033D01*
X003173Y012970D01*
X003187Y012908D01*
X003204Y012846D01*
X003226Y012786D01*
X003251Y012727D01*
X003215Y012710D01*
X003190Y012767D01*
X003169Y012825D01*
X003151Y012885D01*
X003137Y012945D01*
X003126Y013006D01*
X003119Y013068D01*
X003115Y013130D01*
X003115Y013192D01*
X003119Y013254D01*
X003126Y013316D01*
X003137Y013377D01*
X003151Y013437D01*
X003169Y013497D01*
X003190Y013555D01*
X003215Y013612D01*
X003223Y013608D01*
X003199Y013552D01*
X003178Y013494D01*
X003160Y013435D01*
X003146Y013375D01*
X003135Y013314D01*
X003128Y013253D01*
X003124Y013192D01*
X003124Y013130D01*
X003128Y013069D01*
X003135Y013008D01*
X003146Y012947D01*
X003160Y012887D01*
X003178Y012828D01*
X003199Y012770D01*
X003223Y012714D01*
X003231Y012717D01*
X003207Y012774D01*
X003186Y012831D01*
X003169Y012889D01*
X003155Y012949D01*
X003144Y013009D01*
X003137Y013070D01*
X003133Y013130D01*
X003133Y013192D01*
X003137Y013252D01*
X003144Y013313D01*
X003155Y013373D01*
X003169Y013433D01*
X003186Y013491D01*
X003207Y013548D01*
X003231Y013605D01*
X003239Y013601D01*
X003215Y013545D01*
X003195Y013488D01*
X003177Y013430D01*
X003163Y013371D01*
X003153Y013312D01*
X003146Y013252D01*
X003142Y013191D01*
X003142Y013131D01*
X003146Y013070D01*
X003153Y013010D01*
X003163Y012951D01*
X003177Y012892D01*
X003195Y012834D01*
X003215Y012777D01*
X003239Y012721D01*
X003247Y012725D01*
X003224Y012780D01*
X003203Y012837D01*
X003186Y012894D01*
X003172Y012952D01*
X003162Y013012D01*
X003155Y013071D01*
X003151Y013131D01*
X003151Y013191D01*
X003155Y013251D01*
X003162Y013310D01*
X003172Y013370D01*
X003186Y013428D01*
X003203Y013485D01*
X003224Y013542D01*
X003247Y013597D01*
X003220Y012701D02*
X003256Y012718D01*
X003255Y012718D02*
X003281Y012668D01*
X003309Y012619D01*
X003340Y012572D01*
X003373Y012527D01*
X003342Y012503D01*
X003307Y012549D01*
X003275Y012598D01*
X003246Y012649D01*
X003219Y012701D01*
X003227Y012705D01*
X003254Y012653D01*
X003283Y012603D01*
X003314Y012555D01*
X003349Y012508D01*
X003356Y012514D01*
X003322Y012560D01*
X003290Y012608D01*
X003261Y012657D01*
X003235Y012708D01*
X003243Y012712D01*
X003269Y012662D01*
X003298Y012612D01*
X003329Y012565D01*
X003363Y012519D01*
X003370Y012525D01*
X003336Y012570D01*
X003306Y012617D01*
X003277Y012666D01*
X003252Y012716D01*
X005150Y013621D02*
X005114Y013604D01*
X005115Y013604D02*
X005086Y013660D01*
X005054Y013714D01*
X005019Y013766D01*
X004981Y013815D01*
X004939Y013862D01*
X004895Y013907D01*
X004848Y013949D01*
X004799Y013988D01*
X004748Y014024D01*
X004694Y014056D01*
X004639Y014086D01*
X004582Y014111D01*
X004523Y014134D01*
X004464Y014153D01*
X004403Y014168D01*
X004341Y014179D01*
X004279Y014187D01*
X004216Y014191D01*
X004154Y014191D01*
X004091Y014187D01*
X004029Y014179D01*
X003967Y014168D01*
X003906Y014153D01*
X003847Y014134D01*
X003788Y014111D01*
X003731Y014086D01*
X003676Y014056D01*
X003622Y014024D01*
X003571Y013988D01*
X003522Y013949D01*
X003475Y013907D01*
X003431Y013862D01*
X003389Y013815D01*
X003351Y013766D01*
X003316Y013714D01*
X003284Y013660D01*
X003255Y013604D01*
X003220Y013621D01*
X003219Y013621D01*
X003249Y013679D01*
X003282Y013735D01*
X003319Y013789D01*
X003358Y013841D01*
X003401Y013890D01*
X003447Y013936D01*
X003496Y013979D01*
X003547Y014020D01*
X003600Y014057D01*
X003656Y014091D01*
X003713Y014121D01*
X003773Y014148D01*
X003833Y014172D01*
X003896Y014191D01*
X003959Y014207D01*
X004023Y014219D01*
X004087Y014227D01*
X004152Y014231D01*
X004218Y014231D01*
X004283Y014227D01*
X004347Y014219D01*
X004411Y014207D01*
X004474Y014191D01*
X004537Y014172D01*
X004597Y014148D01*
X004657Y014121D01*
X004714Y014091D01*
X004770Y014057D01*
X004823Y014020D01*
X004874Y013979D01*
X004923Y013936D01*
X004969Y013890D01*
X005012Y013841D01*
X005051Y013789D01*
X005088Y013735D01*
X005121Y013679D01*
X005151Y013621D01*
X005143Y013617D01*
X005113Y013675D01*
X005080Y013730D01*
X005044Y013784D01*
X005005Y013835D01*
X004962Y013883D01*
X004917Y013929D01*
X004869Y013972D01*
X004818Y014013D01*
X004765Y014049D01*
X004710Y014083D01*
X004653Y014113D01*
X004594Y014140D01*
X004534Y014163D01*
X004472Y014182D01*
X004409Y014198D01*
X004346Y014210D01*
X004282Y014218D01*
X004217Y014222D01*
X004153Y014222D01*
X004088Y014218D01*
X004024Y014210D01*
X003961Y014198D01*
X003898Y014182D01*
X003836Y014163D01*
X003776Y014140D01*
X003717Y014113D01*
X003660Y014083D01*
X003605Y014049D01*
X003552Y014013D01*
X003501Y013972D01*
X003453Y013929D01*
X003408Y013883D01*
X003365Y013835D01*
X003326Y013784D01*
X003290Y013730D01*
X003257Y013675D01*
X003227Y013617D01*
X003235Y013614D01*
X003265Y013671D01*
X003297Y013726D01*
X003333Y013779D01*
X003372Y013829D01*
X003415Y013877D01*
X003460Y013923D01*
X003507Y013966D01*
X003557Y014005D01*
X003610Y014042D01*
X003665Y014075D01*
X003721Y014105D01*
X003780Y014132D01*
X003839Y014155D01*
X003900Y014174D01*
X003963Y014189D01*
X004026Y014201D01*
X004089Y014209D01*
X004153Y014213D01*
X004217Y014213D01*
X004281Y014209D01*
X004344Y014201D01*
X004407Y014189D01*
X004470Y014174D01*
X004531Y014155D01*
X004590Y014132D01*
X004649Y014105D01*
X004705Y014075D01*
X004760Y014042D01*
X004813Y014005D01*
X004863Y013966D01*
X004910Y013923D01*
X004955Y013877D01*
X004998Y013829D01*
X005037Y013779D01*
X005073Y013726D01*
X005105Y013671D01*
X005135Y013614D01*
X005127Y013610D01*
X005097Y013666D01*
X005065Y013721D01*
X005029Y013773D01*
X004991Y013823D01*
X004949Y013871D01*
X004904Y013916D01*
X004857Y013959D01*
X004807Y013998D01*
X004755Y014034D01*
X004701Y014067D01*
X004645Y014097D01*
X004587Y014123D01*
X004528Y014146D01*
X004467Y014165D01*
X004406Y014180D01*
X004343Y014192D01*
X004280Y014200D01*
X004217Y014204D01*
X004153Y014204D01*
X004090Y014200D01*
X004027Y014192D01*
X003964Y014180D01*
X003903Y014165D01*
X003842Y014146D01*
X003783Y014123D01*
X003725Y014097D01*
X003669Y014067D01*
X003615Y014034D01*
X003563Y013998D01*
X003513Y013959D01*
X003466Y013916D01*
X003421Y013871D01*
X003379Y013823D01*
X003341Y013773D01*
X003305Y013721D01*
X003273Y013666D01*
X003243Y013610D01*
X003252Y013606D01*
X003280Y013662D01*
X003313Y013716D01*
X003348Y013768D01*
X003386Y013818D01*
X003428Y013865D01*
X003472Y013910D01*
X003519Y013952D01*
X003568Y013991D01*
X003620Y014027D01*
X003674Y014060D01*
X003729Y014089D01*
X003787Y014115D01*
X003845Y014138D01*
X003905Y014156D01*
X003966Y014172D01*
X004028Y014183D01*
X004091Y014191D01*
X004154Y014195D01*
X004216Y014195D01*
X004279Y014191D01*
X004342Y014183D01*
X004404Y014172D01*
X004465Y014156D01*
X004525Y014138D01*
X004583Y014115D01*
X004641Y014089D01*
X004696Y014060D01*
X004750Y014027D01*
X004802Y013991D01*
X004851Y013952D01*
X004898Y013910D01*
X004942Y013865D01*
X004984Y013818D01*
X005022Y013768D01*
X005057Y013716D01*
X005090Y013662D01*
X005118Y013606D01*
X021225Y010626D02*
X021242Y010590D01*
X021242Y010591D02*
X021192Y010565D01*
X021143Y010537D01*
X021096Y010506D01*
X021051Y010473D01*
X021027Y010504D01*
X021073Y010539D01*
X021122Y010571D01*
X021173Y010600D01*
X021225Y010627D01*
X021229Y010619D01*
X021177Y010592D01*
X021127Y010563D01*
X021079Y010532D01*
X021032Y010497D01*
X021038Y010490D01*
X021084Y010524D01*
X021132Y010556D01*
X021181Y010585D01*
X021232Y010611D01*
X021236Y010603D01*
X021186Y010577D01*
X021136Y010548D01*
X021089Y010517D01*
X021043Y010483D01*
X021049Y010476D01*
X021094Y010510D01*
X021141Y010540D01*
X021190Y010569D01*
X021240Y010594D01*
X021234Y008691D02*
X021251Y008727D01*
X021310Y008702D01*
X021370Y008680D01*
X021432Y008663D01*
X021494Y008649D01*
X021557Y008639D01*
X021621Y008633D01*
X021685Y008631D01*
X021749Y008633D01*
X021813Y008639D01*
X021876Y008649D01*
X021938Y008663D01*
X022000Y008680D01*
X022060Y008702D01*
X022119Y008727D01*
X022136Y008691D01*
X022079Y008666D01*
X022021Y008645D01*
X021961Y008627D01*
X021901Y008613D01*
X021840Y008602D01*
X021778Y008595D01*
X021716Y008591D01*
X021654Y008591D01*
X021592Y008595D01*
X021530Y008602D01*
X021469Y008613D01*
X021409Y008627D01*
X021349Y008645D01*
X021291Y008666D01*
X021234Y008691D01*
X021238Y008699D01*
X021294Y008675D01*
X021352Y008654D01*
X021411Y008636D01*
X021471Y008622D01*
X021532Y008611D01*
X021593Y008604D01*
X021654Y008600D01*
X021716Y008600D01*
X021777Y008604D01*
X021838Y008611D01*
X021899Y008622D01*
X021959Y008636D01*
X022018Y008654D01*
X022076Y008675D01*
X022132Y008699D01*
X022129Y008707D01*
X022072Y008683D01*
X022015Y008662D01*
X021957Y008645D01*
X021897Y008631D01*
X021837Y008620D01*
X021776Y008613D01*
X021716Y008609D01*
X021654Y008609D01*
X021594Y008613D01*
X021533Y008620D01*
X021473Y008631D01*
X021413Y008645D01*
X021355Y008662D01*
X021298Y008683D01*
X021241Y008707D01*
X021245Y008715D01*
X021301Y008691D01*
X021358Y008671D01*
X021416Y008653D01*
X021475Y008639D01*
X021534Y008629D01*
X021594Y008622D01*
X021655Y008618D01*
X021715Y008618D01*
X021776Y008622D01*
X021836Y008629D01*
X021895Y008639D01*
X021954Y008653D01*
X022012Y008671D01*
X022069Y008691D01*
X022125Y008715D01*
X022121Y008723D01*
X022066Y008700D01*
X022009Y008679D01*
X021952Y008662D01*
X021894Y008648D01*
X021834Y008638D01*
X021775Y008631D01*
X021715Y008627D01*
X021655Y008627D01*
X021595Y008631D01*
X021536Y008638D01*
X021476Y008648D01*
X021418Y008662D01*
X021361Y008679D01*
X021304Y008700D01*
X021249Y008723D01*
X021027Y008818D02*
X021052Y008850D01*
X021051Y008849D02*
X021099Y008814D01*
X021148Y008782D01*
X021199Y008753D01*
X021251Y008727D01*
X021235Y008691D01*
X021234Y008691D01*
X021180Y008718D01*
X021127Y008748D01*
X021076Y008781D01*
X021027Y008818D01*
X021032Y008825D01*
X021081Y008789D01*
X021132Y008756D01*
X021184Y008726D01*
X021238Y008699D01*
X021242Y008707D01*
X021188Y008734D01*
X021136Y008763D01*
X021086Y008796D01*
X021038Y008832D01*
X021043Y008839D01*
X021091Y008804D01*
X021141Y008771D01*
X021192Y008742D01*
X021246Y008715D01*
X021249Y008723D01*
X021197Y008750D01*
X021146Y008779D01*
X021096Y008811D01*
X021049Y008846D01*
X022136Y010631D02*
X022119Y010595D01*
X022060Y010620D01*
X022000Y010642D01*
X021938Y010659D01*
X021876Y010673D01*
X021813Y010683D01*
X021749Y010689D01*
X021685Y010691D01*
X021621Y010689D01*
X021557Y010683D01*
X021494Y010673D01*
X021432Y010659D01*
X021370Y010642D01*
X021310Y010620D01*
X021251Y010595D01*
X021234Y010631D01*
X021291Y010656D01*
X021349Y010677D01*
X021409Y010695D01*
X021469Y010709D01*
X021530Y010720D01*
X021592Y010727D01*
X021654Y010731D01*
X021716Y010731D01*
X021778Y010727D01*
X021840Y010720D01*
X021901Y010709D01*
X021961Y010695D01*
X022021Y010677D01*
X022079Y010656D01*
X022136Y010631D01*
X022132Y010623D01*
X022076Y010647D01*
X022018Y010668D01*
X021959Y010686D01*
X021899Y010700D01*
X021838Y010711D01*
X021777Y010718D01*
X021716Y010722D01*
X021654Y010722D01*
X021593Y010718D01*
X021532Y010711D01*
X021471Y010700D01*
X021411Y010686D01*
X021352Y010668D01*
X021294Y010647D01*
X021238Y010623D01*
X021241Y010615D01*
X021298Y010639D01*
X021355Y010660D01*
X021413Y010677D01*
X021473Y010691D01*
X021533Y010702D01*
X021594Y010709D01*
X021654Y010713D01*
X021716Y010713D01*
X021776Y010709D01*
X021837Y010702D01*
X021897Y010691D01*
X021957Y010677D01*
X022015Y010660D01*
X022072Y010639D01*
X022129Y010615D01*
X022125Y010607D01*
X022069Y010631D01*
X022012Y010651D01*
X021954Y010669D01*
X021895Y010683D01*
X021836Y010693D01*
X021776Y010700D01*
X021715Y010704D01*
X021655Y010704D01*
X021594Y010700D01*
X021534Y010693D01*
X021475Y010683D01*
X021416Y010669D01*
X021358Y010651D01*
X021301Y010631D01*
X021245Y010607D01*
X021249Y010599D01*
X021304Y010622D01*
X021361Y010643D01*
X021418Y010660D01*
X021476Y010674D01*
X021536Y010684D01*
X021595Y010691D01*
X021655Y010695D01*
X021715Y010695D01*
X021775Y010691D01*
X021834Y010684D01*
X021894Y010674D01*
X021952Y010660D01*
X022009Y010643D01*
X022066Y010622D01*
X022121Y010599D01*
X022145Y008696D02*
X022128Y008732D01*
X022128Y008731D02*
X022184Y008760D01*
X022238Y008792D01*
X022290Y008827D01*
X022339Y008865D01*
X022386Y008907D01*
X022431Y008951D01*
X022473Y008998D01*
X022512Y009047D01*
X022548Y009098D01*
X022580Y009152D01*
X022610Y009207D01*
X022635Y009264D01*
X022658Y009323D01*
X022677Y009382D01*
X022692Y009443D01*
X022703Y009505D01*
X022711Y009567D01*
X022715Y009630D01*
X022715Y009692D01*
X022711Y009755D01*
X022703Y009817D01*
X022692Y009879D01*
X022677Y009940D01*
X022658Y009999D01*
X022635Y010058D01*
X022610Y010115D01*
X022580Y010170D01*
X022548Y010224D01*
X022512Y010275D01*
X022473Y010324D01*
X022431Y010371D01*
X022386Y010415D01*
X022339Y010457D01*
X022290Y010495D01*
X022238Y010530D01*
X022184Y010562D01*
X022128Y010591D01*
X022145Y010626D01*
X022145Y010627D01*
X022203Y010597D01*
X022259Y010564D01*
X022313Y010527D01*
X022365Y010488D01*
X022414Y010445D01*
X022460Y010399D01*
X022503Y010350D01*
X022544Y010299D01*
X022581Y010246D01*
X022615Y010190D01*
X022645Y010133D01*
X022672Y010073D01*
X022696Y010013D01*
X022715Y009950D01*
X022731Y009887D01*
X022743Y009823D01*
X022751Y009759D01*
X022755Y009694D01*
X022755Y009628D01*
X022751Y009563D01*
X022743Y009499D01*
X022731Y009435D01*
X022715Y009372D01*
X022696Y009309D01*
X022672Y009249D01*
X022645Y009189D01*
X022615Y009132D01*
X022581Y009076D01*
X022544Y009023D01*
X022503Y008972D01*
X022460Y008923D01*
X022414Y008877D01*
X022365Y008834D01*
X022313Y008795D01*
X022259Y008758D01*
X022203Y008725D01*
X022145Y008695D01*
X022141Y008703D01*
X022199Y008733D01*
X022254Y008766D01*
X022308Y008802D01*
X022359Y008841D01*
X022407Y008884D01*
X022453Y008929D01*
X022496Y008977D01*
X022537Y009028D01*
X022573Y009081D01*
X022607Y009136D01*
X022637Y009193D01*
X022664Y009252D01*
X022687Y009312D01*
X022706Y009374D01*
X022722Y009437D01*
X022734Y009500D01*
X022742Y009564D01*
X022746Y009629D01*
X022746Y009693D01*
X022742Y009758D01*
X022734Y009822D01*
X022722Y009885D01*
X022706Y009948D01*
X022687Y010010D01*
X022664Y010070D01*
X022637Y010129D01*
X022607Y010186D01*
X022573Y010241D01*
X022537Y010294D01*
X022496Y010345D01*
X022453Y010393D01*
X022407Y010438D01*
X022359Y010481D01*
X022308Y010520D01*
X022254Y010556D01*
X022199Y010589D01*
X022141Y010619D01*
X022138Y010611D01*
X022195Y010581D01*
X022250Y010549D01*
X022303Y010513D01*
X022353Y010474D01*
X022401Y010431D01*
X022447Y010386D01*
X022490Y010339D01*
X022529Y010289D01*
X022566Y010236D01*
X022599Y010181D01*
X022629Y010125D01*
X022656Y010066D01*
X022679Y010007D01*
X022698Y009946D01*
X022713Y009883D01*
X022725Y009820D01*
X022733Y009757D01*
X022737Y009693D01*
X022737Y009629D01*
X022733Y009565D01*
X022725Y009502D01*
X022713Y009439D01*
X022698Y009376D01*
X022679Y009315D01*
X022656Y009256D01*
X022629Y009197D01*
X022599Y009141D01*
X022566Y009086D01*
X022529Y009033D01*
X022490Y008983D01*
X022447Y008936D01*
X022401Y008891D01*
X022353Y008848D01*
X022303Y008809D01*
X022250Y008773D01*
X022195Y008741D01*
X022138Y008711D01*
X022134Y008719D01*
X022190Y008749D01*
X022245Y008781D01*
X022297Y008817D01*
X022347Y008855D01*
X022395Y008897D01*
X022440Y008942D01*
X022483Y008989D01*
X022522Y009039D01*
X022558Y009091D01*
X022591Y009145D01*
X022621Y009201D01*
X022647Y009259D01*
X022670Y009318D01*
X022689Y009379D01*
X022704Y009440D01*
X022716Y009503D01*
X022724Y009566D01*
X022728Y009629D01*
X022728Y009693D01*
X022724Y009756D01*
X022716Y009819D01*
X022704Y009882D01*
X022689Y009943D01*
X022670Y010004D01*
X022647Y010063D01*
X022621Y010121D01*
X022591Y010177D01*
X022558Y010231D01*
X022522Y010283D01*
X022483Y010333D01*
X022440Y010380D01*
X022395Y010425D01*
X022347Y010467D01*
X022297Y010505D01*
X022245Y010541D01*
X022190Y010573D01*
X022134Y010603D01*
X022130Y010594D01*
X022186Y010566D01*
X022240Y010533D01*
X022292Y010498D01*
X022342Y010460D01*
X022389Y010418D01*
X022434Y010374D01*
X022476Y010327D01*
X022515Y010278D01*
X022551Y010226D01*
X022584Y010172D01*
X022613Y010117D01*
X022639Y010059D01*
X022662Y010001D01*
X022680Y009941D01*
X022696Y009880D01*
X022707Y009818D01*
X022715Y009755D01*
X022719Y009692D01*
X022719Y009630D01*
X022715Y009567D01*
X022707Y009504D01*
X022696Y009442D01*
X022680Y009381D01*
X022662Y009321D01*
X022639Y009263D01*
X022613Y009205D01*
X022584Y009150D01*
X022551Y009096D01*
X022515Y009044D01*
X022476Y008995D01*
X022434Y008948D01*
X022389Y008904D01*
X022342Y008862D01*
X022292Y008824D01*
X022240Y008789D01*
X022186Y008756D01*
X022130Y008728D01*
X034734Y008691D02*
X034751Y008727D01*
X034810Y008702D01*
X034870Y008680D01*
X034932Y008663D01*
X034994Y008649D01*
X035057Y008639D01*
X035121Y008633D01*
X035185Y008631D01*
X035249Y008633D01*
X035313Y008639D01*
X035376Y008649D01*
X035438Y008663D01*
X035500Y008680D01*
X035560Y008702D01*
X035619Y008727D01*
X035636Y008691D01*
X035579Y008666D01*
X035521Y008645D01*
X035461Y008627D01*
X035401Y008613D01*
X035340Y008602D01*
X035278Y008595D01*
X035216Y008591D01*
X035154Y008591D01*
X035092Y008595D01*
X035030Y008602D01*
X034969Y008613D01*
X034909Y008627D01*
X034849Y008645D01*
X034791Y008666D01*
X034734Y008691D01*
X034738Y008699D01*
X034794Y008675D01*
X034852Y008654D01*
X034911Y008636D01*
X034971Y008622D01*
X035032Y008611D01*
X035093Y008604D01*
X035154Y008600D01*
X035216Y008600D01*
X035277Y008604D01*
X035338Y008611D01*
X035399Y008622D01*
X035459Y008636D01*
X035518Y008654D01*
X035576Y008675D01*
X035632Y008699D01*
X035629Y008707D01*
X035572Y008683D01*
X035515Y008662D01*
X035457Y008645D01*
X035397Y008631D01*
X035337Y008620D01*
X035276Y008613D01*
X035216Y008609D01*
X035154Y008609D01*
X035094Y008613D01*
X035033Y008620D01*
X034973Y008631D01*
X034913Y008645D01*
X034855Y008662D01*
X034798Y008683D01*
X034741Y008707D01*
X034745Y008715D01*
X034801Y008691D01*
X034858Y008671D01*
X034916Y008653D01*
X034975Y008639D01*
X035034Y008629D01*
X035094Y008622D01*
X035155Y008618D01*
X035215Y008618D01*
X035276Y008622D01*
X035336Y008629D01*
X035395Y008639D01*
X035454Y008653D01*
X035512Y008671D01*
X035569Y008691D01*
X035625Y008715D01*
X035621Y008723D01*
X035566Y008700D01*
X035509Y008679D01*
X035452Y008662D01*
X035394Y008648D01*
X035334Y008638D01*
X035275Y008631D01*
X035215Y008627D01*
X035155Y008627D01*
X035095Y008631D01*
X035036Y008638D01*
X034976Y008648D01*
X034918Y008662D01*
X034861Y008679D01*
X034804Y008700D01*
X034749Y008723D01*
X034527Y008818D02*
X034552Y008850D01*
X034551Y008849D02*
X034599Y008814D01*
X034648Y008782D01*
X034699Y008753D01*
X034751Y008727D01*
X034735Y008691D01*
X034734Y008691D01*
X034680Y008718D01*
X034627Y008748D01*
X034576Y008781D01*
X034527Y008818D01*
X034532Y008825D01*
X034581Y008789D01*
X034632Y008756D01*
X034684Y008726D01*
X034738Y008699D01*
X034742Y008707D01*
X034688Y008734D01*
X034636Y008763D01*
X034586Y008796D01*
X034538Y008832D01*
X034543Y008839D01*
X034591Y008804D01*
X034641Y008771D01*
X034692Y008742D01*
X034746Y008715D01*
X034749Y008723D01*
X034697Y008750D01*
X034646Y008779D01*
X034596Y008811D01*
X034549Y008846D01*
X035636Y010631D02*
X035619Y010595D01*
X035560Y010620D01*
X035500Y010642D01*
X035438Y010659D01*
X035376Y010673D01*
X035313Y010683D01*
X035249Y010689D01*
X035185Y010691D01*
X035121Y010689D01*
X035057Y010683D01*
X034994Y010673D01*
X034932Y010659D01*
X034870Y010642D01*
X034810Y010620D01*
X034751Y010595D01*
X034734Y010631D01*
X034791Y010656D01*
X034849Y010677D01*
X034909Y010695D01*
X034969Y010709D01*
X035030Y010720D01*
X035092Y010727D01*
X035154Y010731D01*
X035216Y010731D01*
X035278Y010727D01*
X035340Y010720D01*
X035401Y010709D01*
X035461Y010695D01*
X035521Y010677D01*
X035579Y010656D01*
X035636Y010631D01*
X035632Y010623D01*
X035576Y010647D01*
X035518Y010668D01*
X035459Y010686D01*
X035399Y010700D01*
X035338Y010711D01*
X035277Y010718D01*
X035216Y010722D01*
X035154Y010722D01*
X035093Y010718D01*
X035032Y010711D01*
X034971Y010700D01*
X034911Y010686D01*
X034852Y010668D01*
X034794Y010647D01*
X034738Y010623D01*
X034741Y010615D01*
X034798Y010639D01*
X034855Y010660D01*
X034913Y010677D01*
X034973Y010691D01*
X035033Y010702D01*
X035094Y010709D01*
X035154Y010713D01*
X035216Y010713D01*
X035276Y010709D01*
X035337Y010702D01*
X035397Y010691D01*
X035457Y010677D01*
X035515Y010660D01*
X035572Y010639D01*
X035629Y010615D01*
X035625Y010607D01*
X035569Y010631D01*
X035512Y010651D01*
X035454Y010669D01*
X035395Y010683D01*
X035336Y010693D01*
X035276Y010700D01*
X035215Y010704D01*
X035155Y010704D01*
X035094Y010700D01*
X035034Y010693D01*
X034975Y010683D01*
X034916Y010669D01*
X034858Y010651D01*
X034801Y010631D01*
X034745Y010607D01*
X034749Y010599D01*
X034804Y010622D01*
X034861Y010643D01*
X034918Y010660D01*
X034976Y010674D01*
X035036Y010684D01*
X035095Y010691D01*
X035155Y010695D01*
X035215Y010695D01*
X035275Y010691D01*
X035334Y010684D01*
X035394Y010674D01*
X035452Y010660D01*
X035509Y010643D01*
X035566Y010622D01*
X035621Y010599D01*
X034725Y010626D02*
X034742Y010590D01*
X034742Y010591D02*
X034692Y010565D01*
X034643Y010537D01*
X034596Y010506D01*
X034551Y010473D01*
X034527Y010504D01*
X034573Y010539D01*
X034622Y010571D01*
X034673Y010600D01*
X034725Y010627D01*
X034729Y010619D01*
X034677Y010592D01*
X034627Y010563D01*
X034579Y010532D01*
X034532Y010497D01*
X034538Y010490D01*
X034584Y010524D01*
X034632Y010556D01*
X034681Y010585D01*
X034732Y010611D01*
X034736Y010603D01*
X034686Y010577D01*
X034636Y010548D01*
X034589Y010517D01*
X034543Y010483D01*
X034549Y010476D01*
X034594Y010510D01*
X034641Y010540D01*
X034690Y010569D01*
X034740Y010594D01*
X035645Y008696D02*
X035628Y008732D01*
X035628Y008731D02*
X035684Y008760D01*
X035738Y008792D01*
X035790Y008827D01*
X035839Y008865D01*
X035886Y008907D01*
X035931Y008951D01*
X035973Y008998D01*
X036012Y009047D01*
X036048Y009098D01*
X036080Y009152D01*
X036110Y009207D01*
X036135Y009264D01*
X036158Y009323D01*
X036177Y009382D01*
X036192Y009443D01*
X036203Y009505D01*
X036211Y009567D01*
X036215Y009630D01*
X036215Y009692D01*
X036211Y009755D01*
X036203Y009817D01*
X036192Y009879D01*
X036177Y009940D01*
X036158Y009999D01*
X036135Y010058D01*
X036110Y010115D01*
X036080Y010170D01*
X036048Y010224D01*
X036012Y010275D01*
X035973Y010324D01*
X035931Y010371D01*
X035886Y010415D01*
X035839Y010457D01*
X035790Y010495D01*
X035738Y010530D01*
X035684Y010562D01*
X035628Y010591D01*
X035645Y010626D01*
X035645Y010627D01*
X035703Y010597D01*
X035759Y010564D01*
X035813Y010527D01*
X035865Y010488D01*
X035914Y010445D01*
X035960Y010399D01*
X036003Y010350D01*
X036044Y010299D01*
X036081Y010246D01*
X036115Y010190D01*
X036145Y010133D01*
X036172Y010073D01*
X036196Y010013D01*
X036215Y009950D01*
X036231Y009887D01*
X036243Y009823D01*
X036251Y009759D01*
X036255Y009694D01*
X036255Y009628D01*
X036251Y009563D01*
X036243Y009499D01*
X036231Y009435D01*
X036215Y009372D01*
X036196Y009309D01*
X036172Y009249D01*
X036145Y009189D01*
X036115Y009132D01*
X036081Y009076D01*
X036044Y009023D01*
X036003Y008972D01*
X035960Y008923D01*
X035914Y008877D01*
X035865Y008834D01*
X035813Y008795D01*
X035759Y008758D01*
X035703Y008725D01*
X035645Y008695D01*
X035641Y008703D01*
X035699Y008733D01*
X035754Y008766D01*
X035808Y008802D01*
X035859Y008841D01*
X035907Y008884D01*
X035953Y008929D01*
X035996Y008977D01*
X036037Y009028D01*
X036073Y009081D01*
X036107Y009136D01*
X036137Y009193D01*
X036164Y009252D01*
X036187Y009312D01*
X036206Y009374D01*
X036222Y009437D01*
X036234Y009500D01*
X036242Y009564D01*
X036246Y009629D01*
X036246Y009693D01*
X036242Y009758D01*
X036234Y009822D01*
X036222Y009885D01*
X036206Y009948D01*
X036187Y010010D01*
X036164Y010070D01*
X036137Y010129D01*
X036107Y010186D01*
X036073Y010241D01*
X036037Y010294D01*
X035996Y010345D01*
X035953Y010393D01*
X035907Y010438D01*
X035859Y010481D01*
X035808Y010520D01*
X035754Y010556D01*
X035699Y010589D01*
X035641Y010619D01*
X035638Y010611D01*
X035695Y010581D01*
X035750Y010549D01*
X035803Y010513D01*
X035853Y010474D01*
X035901Y010431D01*
X035947Y010386D01*
X035990Y010339D01*
X036029Y010289D01*
X036066Y010236D01*
X036099Y010181D01*
X036129Y010125D01*
X036156Y010066D01*
X036179Y010007D01*
X036198Y009946D01*
X036213Y009883D01*
X036225Y009820D01*
X036233Y009757D01*
X036237Y009693D01*
X036237Y009629D01*
X036233Y009565D01*
X036225Y009502D01*
X036213Y009439D01*
X036198Y009376D01*
X036179Y009315D01*
X036156Y009256D01*
X036129Y009197D01*
X036099Y009141D01*
X036066Y009086D01*
X036029Y009033D01*
X035990Y008983D01*
X035947Y008936D01*
X035901Y008891D01*
X035853Y008848D01*
X035803Y008809D01*
X035750Y008773D01*
X035695Y008741D01*
X035638Y008711D01*
X035634Y008719D01*
X035690Y008749D01*
X035745Y008781D01*
X035797Y008817D01*
X035847Y008855D01*
X035895Y008897D01*
X035940Y008942D01*
X035983Y008989D01*
X036022Y009039D01*
X036058Y009091D01*
X036091Y009145D01*
X036121Y009201D01*
X036147Y009259D01*
X036170Y009318D01*
X036189Y009379D01*
X036204Y009440D01*
X036216Y009503D01*
X036224Y009566D01*
X036228Y009629D01*
X036228Y009693D01*
X036224Y009756D01*
X036216Y009819D01*
X036204Y009882D01*
X036189Y009943D01*
X036170Y010004D01*
X036147Y010063D01*
X036121Y010121D01*
X036091Y010177D01*
X036058Y010231D01*
X036022Y010283D01*
X035983Y010333D01*
X035940Y010380D01*
X035895Y010425D01*
X035847Y010467D01*
X035797Y010505D01*
X035745Y010541D01*
X035690Y010573D01*
X035634Y010603D01*
X035630Y010594D01*
X035686Y010566D01*
X035740Y010533D01*
X035792Y010498D01*
X035842Y010460D01*
X035889Y010418D01*
X035934Y010374D01*
X035976Y010327D01*
X036015Y010278D01*
X036051Y010226D01*
X036084Y010172D01*
X036113Y010117D01*
X036139Y010059D01*
X036162Y010001D01*
X036180Y009941D01*
X036196Y009880D01*
X036207Y009818D01*
X036215Y009755D01*
X036219Y009692D01*
X036219Y009630D01*
X036215Y009567D01*
X036207Y009504D01*
X036196Y009442D01*
X036180Y009381D01*
X036162Y009321D01*
X036139Y009263D01*
X036113Y009205D01*
X036084Y009150D01*
X036051Y009096D01*
X036015Y009044D01*
X035976Y008995D01*
X035934Y008948D01*
X035889Y008904D01*
X035842Y008862D01*
X035792Y008824D01*
X035740Y008789D01*
X035686Y008756D01*
X035630Y008728D01*
M02*
