G75*
G70*
%OFA0B0*%
%FSLAX24Y24*%
%IPPOS*%
%LPD*%
%AMOC8*
5,1,8,0,0,1.08239X$1,22.5*
%
%ADD10C,0.0000*%
%ADD11OC8,0.0630*%
%ADD12OC8,0.0480*%
%ADD13C,0.1185*%
%ADD14C,0.0480*%
%ADD15OC8,0.1500*%
%ADD16C,0.0160*%
%ADD17C,0.0240*%
D10*
X001685Y000661D02*
X001685Y019161D01*
X043685Y019161D01*
X043685Y000661D01*
X001685Y000661D01*
X002535Y003661D02*
X002537Y003711D01*
X002543Y003761D01*
X002553Y003811D01*
X002566Y003859D01*
X002583Y003907D01*
X002604Y003953D01*
X002628Y003997D01*
X002656Y004039D01*
X002687Y004079D01*
X002721Y004116D01*
X002758Y004151D01*
X002797Y004182D01*
X002838Y004211D01*
X002882Y004236D01*
X002928Y004258D01*
X002975Y004276D01*
X003023Y004290D01*
X003072Y004301D01*
X003122Y004308D01*
X003172Y004311D01*
X003223Y004310D01*
X003273Y004305D01*
X003323Y004296D01*
X003371Y004284D01*
X003419Y004267D01*
X003465Y004247D01*
X003510Y004224D01*
X003553Y004197D01*
X003593Y004167D01*
X003631Y004134D01*
X003666Y004098D01*
X003699Y004059D01*
X003728Y004018D01*
X003754Y003975D01*
X003777Y003930D01*
X003796Y003883D01*
X003811Y003835D01*
X003823Y003786D01*
X003831Y003736D01*
X003835Y003686D01*
X003835Y003636D01*
X003831Y003586D01*
X003823Y003536D01*
X003811Y003487D01*
X003796Y003439D01*
X003777Y003392D01*
X003754Y003347D01*
X003728Y003304D01*
X003699Y003263D01*
X003666Y003224D01*
X003631Y003188D01*
X003593Y003155D01*
X003553Y003125D01*
X003510Y003098D01*
X003465Y003075D01*
X003419Y003055D01*
X003371Y003038D01*
X003323Y003026D01*
X003273Y003017D01*
X003223Y003012D01*
X003172Y003011D01*
X003122Y003014D01*
X003072Y003021D01*
X003023Y003032D01*
X002975Y003046D01*
X002928Y003064D01*
X002882Y003086D01*
X002838Y003111D01*
X002797Y003140D01*
X002758Y003171D01*
X002721Y003206D01*
X002687Y003243D01*
X002656Y003283D01*
X002628Y003325D01*
X002604Y003369D01*
X002583Y003415D01*
X002566Y003463D01*
X002553Y003511D01*
X002543Y003561D01*
X002537Y003611D01*
X002535Y003661D01*
X002535Y017661D02*
X002537Y017711D01*
X002543Y017761D01*
X002553Y017811D01*
X002566Y017859D01*
X002583Y017907D01*
X002604Y017953D01*
X002628Y017997D01*
X002656Y018039D01*
X002687Y018079D01*
X002721Y018116D01*
X002758Y018151D01*
X002797Y018182D01*
X002838Y018211D01*
X002882Y018236D01*
X002928Y018258D01*
X002975Y018276D01*
X003023Y018290D01*
X003072Y018301D01*
X003122Y018308D01*
X003172Y018311D01*
X003223Y018310D01*
X003273Y018305D01*
X003323Y018296D01*
X003371Y018284D01*
X003419Y018267D01*
X003465Y018247D01*
X003510Y018224D01*
X003553Y018197D01*
X003593Y018167D01*
X003631Y018134D01*
X003666Y018098D01*
X003699Y018059D01*
X003728Y018018D01*
X003754Y017975D01*
X003777Y017930D01*
X003796Y017883D01*
X003811Y017835D01*
X003823Y017786D01*
X003831Y017736D01*
X003835Y017686D01*
X003835Y017636D01*
X003831Y017586D01*
X003823Y017536D01*
X003811Y017487D01*
X003796Y017439D01*
X003777Y017392D01*
X003754Y017347D01*
X003728Y017304D01*
X003699Y017263D01*
X003666Y017224D01*
X003631Y017188D01*
X003593Y017155D01*
X003553Y017125D01*
X003510Y017098D01*
X003465Y017075D01*
X003419Y017055D01*
X003371Y017038D01*
X003323Y017026D01*
X003273Y017017D01*
X003223Y017012D01*
X003172Y017011D01*
X003122Y017014D01*
X003072Y017021D01*
X003023Y017032D01*
X002975Y017046D01*
X002928Y017064D01*
X002882Y017086D01*
X002838Y017111D01*
X002797Y017140D01*
X002758Y017171D01*
X002721Y017206D01*
X002687Y017243D01*
X002656Y017283D01*
X002628Y017325D01*
X002604Y017369D01*
X002583Y017415D01*
X002566Y017463D01*
X002553Y017511D01*
X002543Y017561D01*
X002537Y017611D01*
X002535Y017661D01*
X041535Y017661D02*
X041537Y017711D01*
X041543Y017761D01*
X041553Y017811D01*
X041566Y017859D01*
X041583Y017907D01*
X041604Y017953D01*
X041628Y017997D01*
X041656Y018039D01*
X041687Y018079D01*
X041721Y018116D01*
X041758Y018151D01*
X041797Y018182D01*
X041838Y018211D01*
X041882Y018236D01*
X041928Y018258D01*
X041975Y018276D01*
X042023Y018290D01*
X042072Y018301D01*
X042122Y018308D01*
X042172Y018311D01*
X042223Y018310D01*
X042273Y018305D01*
X042323Y018296D01*
X042371Y018284D01*
X042419Y018267D01*
X042465Y018247D01*
X042510Y018224D01*
X042553Y018197D01*
X042593Y018167D01*
X042631Y018134D01*
X042666Y018098D01*
X042699Y018059D01*
X042728Y018018D01*
X042754Y017975D01*
X042777Y017930D01*
X042796Y017883D01*
X042811Y017835D01*
X042823Y017786D01*
X042831Y017736D01*
X042835Y017686D01*
X042835Y017636D01*
X042831Y017586D01*
X042823Y017536D01*
X042811Y017487D01*
X042796Y017439D01*
X042777Y017392D01*
X042754Y017347D01*
X042728Y017304D01*
X042699Y017263D01*
X042666Y017224D01*
X042631Y017188D01*
X042593Y017155D01*
X042553Y017125D01*
X042510Y017098D01*
X042465Y017075D01*
X042419Y017055D01*
X042371Y017038D01*
X042323Y017026D01*
X042273Y017017D01*
X042223Y017012D01*
X042172Y017011D01*
X042122Y017014D01*
X042072Y017021D01*
X042023Y017032D01*
X041975Y017046D01*
X041928Y017064D01*
X041882Y017086D01*
X041838Y017111D01*
X041797Y017140D01*
X041758Y017171D01*
X041721Y017206D01*
X041687Y017243D01*
X041656Y017283D01*
X041628Y017325D01*
X041604Y017369D01*
X041583Y017415D01*
X041566Y017463D01*
X041553Y017511D01*
X041543Y017561D01*
X041537Y017611D01*
X041535Y017661D01*
X041535Y003661D02*
X041537Y003711D01*
X041543Y003761D01*
X041553Y003811D01*
X041566Y003859D01*
X041583Y003907D01*
X041604Y003953D01*
X041628Y003997D01*
X041656Y004039D01*
X041687Y004079D01*
X041721Y004116D01*
X041758Y004151D01*
X041797Y004182D01*
X041838Y004211D01*
X041882Y004236D01*
X041928Y004258D01*
X041975Y004276D01*
X042023Y004290D01*
X042072Y004301D01*
X042122Y004308D01*
X042172Y004311D01*
X042223Y004310D01*
X042273Y004305D01*
X042323Y004296D01*
X042371Y004284D01*
X042419Y004267D01*
X042465Y004247D01*
X042510Y004224D01*
X042553Y004197D01*
X042593Y004167D01*
X042631Y004134D01*
X042666Y004098D01*
X042699Y004059D01*
X042728Y004018D01*
X042754Y003975D01*
X042777Y003930D01*
X042796Y003883D01*
X042811Y003835D01*
X042823Y003786D01*
X042831Y003736D01*
X042835Y003686D01*
X042835Y003636D01*
X042831Y003586D01*
X042823Y003536D01*
X042811Y003487D01*
X042796Y003439D01*
X042777Y003392D01*
X042754Y003347D01*
X042728Y003304D01*
X042699Y003263D01*
X042666Y003224D01*
X042631Y003188D01*
X042593Y003155D01*
X042553Y003125D01*
X042510Y003098D01*
X042465Y003075D01*
X042419Y003055D01*
X042371Y003038D01*
X042323Y003026D01*
X042273Y003017D01*
X042223Y003012D01*
X042172Y003011D01*
X042122Y003014D01*
X042072Y003021D01*
X042023Y003032D01*
X041975Y003046D01*
X041928Y003064D01*
X041882Y003086D01*
X041838Y003111D01*
X041797Y003140D01*
X041758Y003171D01*
X041721Y003206D01*
X041687Y003243D01*
X041656Y003283D01*
X041628Y003325D01*
X041604Y003369D01*
X041583Y003415D01*
X041566Y003463D01*
X041553Y003511D01*
X041543Y003561D01*
X041537Y003611D01*
X041535Y003661D01*
D11*
X029185Y013161D03*
X028185Y013161D03*
X027185Y013161D03*
X026185Y013161D03*
X026185Y016161D03*
X027185Y016161D03*
X028185Y016161D03*
X029185Y016161D03*
D12*
X030685Y016661D03*
X027185Y017661D03*
X026185Y017661D03*
X024685Y016661D03*
X023185Y016161D03*
X023185Y015161D03*
X023185Y014161D03*
X023185Y013161D03*
X024685Y012661D03*
X025185Y011161D03*
X026685Y011161D03*
X028185Y011161D03*
X029685Y011161D03*
X030685Y012661D03*
X032185Y012661D03*
X032185Y013661D03*
X033685Y011161D03*
X038685Y011161D03*
X040185Y011161D03*
X041685Y011161D03*
X033685Y008161D03*
X029685Y008161D03*
X028185Y007161D03*
X026685Y007161D03*
X025185Y007161D03*
X027185Y005661D03*
X027185Y004661D03*
X029685Y004661D03*
X030685Y004661D03*
X038685Y007161D03*
X040185Y007161D03*
X041685Y007161D03*
X040685Y005661D03*
X040685Y004661D03*
X021685Y012661D03*
X020185Y013661D03*
X020185Y015161D03*
X021685Y016661D03*
X016185Y015161D03*
X016185Y013661D03*
X014685Y013661D03*
X016185Y011161D03*
X014685Y009661D03*
X016185Y008161D03*
X020185Y008161D03*
X014685Y005661D03*
X014685Y004661D03*
X016185Y004661D03*
X017185Y004661D03*
X007185Y008161D03*
X003185Y008161D03*
X003185Y011161D03*
X007185Y011161D03*
X007185Y013161D03*
X007185Y014161D03*
X020185Y011161D03*
X005685Y005161D03*
X004685Y005161D03*
D13*
X009105Y004568D02*
X009105Y005753D01*
X010685Y005753D02*
X010685Y004568D01*
X012265Y004568D02*
X012265Y005753D01*
X012265Y009068D02*
X012265Y010253D01*
X010685Y010253D02*
X010685Y009068D01*
X009105Y009068D02*
X009105Y010253D01*
X009105Y013568D02*
X009105Y014753D01*
X010685Y014753D02*
X010685Y013568D01*
X012265Y013568D02*
X012265Y014753D01*
X021605Y005753D02*
X021605Y004568D01*
X023185Y004568D02*
X023185Y005753D01*
X024765Y005753D02*
X024765Y004568D01*
X035105Y004568D02*
X035105Y005753D01*
X036685Y005753D02*
X036685Y004568D01*
X038265Y004568D02*
X038265Y005753D01*
D14*
X033925Y006661D02*
X033445Y006661D01*
X029925Y006661D02*
X029445Y006661D01*
X034945Y008661D02*
X035425Y008661D01*
X035425Y009661D02*
X034945Y009661D01*
X033925Y009661D02*
X033445Y009661D01*
X034945Y010661D02*
X035425Y010661D01*
X029925Y009661D02*
X029445Y009661D01*
X021925Y009661D02*
X021445Y009661D01*
X020425Y009661D02*
X019945Y009661D01*
X021445Y010661D02*
X021925Y010661D01*
X021925Y008661D02*
X021445Y008661D01*
X020425Y006661D02*
X019945Y006661D01*
X016425Y006661D02*
X015945Y006661D01*
X015945Y009661D02*
X016425Y009661D01*
X007425Y009661D02*
X006945Y009661D01*
X003425Y009661D02*
X002945Y009661D01*
X002945Y006661D02*
X003425Y006661D01*
X006945Y006661D02*
X007425Y006661D01*
X005185Y012921D02*
X005185Y013401D01*
X004185Y013401D02*
X004185Y012921D01*
X003185Y012921D02*
X003185Y013401D01*
D15*
X013685Y017661D03*
X017185Y017661D03*
X020185Y017661D03*
X023185Y017661D03*
X032685Y017661D03*
X035185Y017661D03*
X037685Y017661D03*
X040185Y017661D03*
D16*
X039195Y017722D02*
X038675Y017722D01*
X038675Y017564D02*
X039195Y017564D01*
X039195Y017405D02*
X038675Y017405D01*
X038675Y017251D02*
X038095Y016671D01*
X038045Y016671D01*
X038045Y012732D01*
X038045Y012589D01*
X037990Y012457D01*
X037490Y011957D01*
X037389Y011856D01*
X037256Y011801D01*
X033334Y011801D01*
X032545Y011012D01*
X032545Y009810D01*
X033714Y008641D01*
X033884Y008641D01*
X034004Y008521D01*
X034483Y008521D01*
X034465Y008565D01*
X034465Y008756D01*
X034538Y008933D01*
X034673Y009068D01*
X034849Y009141D01*
X035520Y009141D01*
X035697Y009068D01*
X035832Y008933D01*
X035905Y008756D01*
X035905Y008565D01*
X035832Y008389D01*
X035697Y008254D01*
X035520Y008181D01*
X035214Y008181D01*
X034990Y007957D01*
X034889Y007856D01*
X034756Y007801D01*
X034004Y007801D01*
X033884Y007681D01*
X033486Y007681D01*
X033205Y007962D01*
X033205Y008132D01*
X032036Y009301D01*
X030244Y009301D01*
X030197Y009254D01*
X030020Y009181D01*
X029349Y009181D01*
X029173Y009254D01*
X029038Y009389D01*
X028965Y009565D01*
X028965Y009756D01*
X029038Y009933D01*
X029106Y010001D01*
X024613Y010001D01*
X024481Y010056D01*
X024380Y010157D01*
X024380Y010157D01*
X022986Y011551D01*
X020474Y011551D01*
X020504Y011521D01*
X021113Y011521D01*
X021256Y011521D01*
X021389Y011466D01*
X021714Y011141D01*
X022020Y011141D01*
X022197Y011068D01*
X022332Y010933D01*
X022405Y010756D01*
X022405Y010565D01*
X022332Y010389D01*
X022197Y010254D01*
X022020Y010181D01*
X021349Y010181D01*
X021173Y010254D01*
X021038Y010389D01*
X020965Y010565D01*
X020965Y010756D01*
X020983Y010801D01*
X020504Y010801D01*
X020384Y010681D01*
X019986Y010681D01*
X019705Y010962D01*
X019705Y011360D01*
X019896Y011551D01*
X016360Y011551D01*
X016585Y011326D01*
X016585Y011161D01*
X016185Y011161D01*
X016185Y011161D01*
X016585Y011161D01*
X016585Y010995D01*
X016351Y010761D01*
X016185Y010761D01*
X016185Y011160D01*
X016185Y011160D01*
X016185Y010761D01*
X016019Y010761D01*
X015785Y010995D01*
X015785Y011161D01*
X016184Y011161D01*
X016184Y011161D01*
X015785Y011161D01*
X015785Y011326D01*
X016009Y011551D01*
X014363Y011551D01*
X014231Y011606D01*
X014130Y011707D01*
X014130Y011707D01*
X013481Y012356D01*
X013481Y012356D01*
X013380Y012457D01*
X013325Y012589D01*
X013325Y015012D01*
X013036Y015301D01*
X012895Y015301D01*
X012971Y015225D01*
X013097Y014919D01*
X013097Y013403D01*
X012971Y013097D01*
X012736Y012862D01*
X012430Y012736D01*
X012099Y012736D01*
X011793Y012862D01*
X011559Y013097D01*
X011475Y013300D01*
X011391Y013097D01*
X011156Y012862D01*
X011045Y012816D01*
X011045Y012810D01*
X012570Y011285D01*
X012625Y011152D01*
X012625Y011009D01*
X012625Y011005D01*
X012736Y010959D01*
X012971Y010725D01*
X013097Y010419D01*
X013097Y008903D01*
X012971Y008597D01*
X012736Y008362D01*
X012430Y008236D01*
X012099Y008236D01*
X011793Y008362D01*
X011559Y008597D01*
X011475Y008800D01*
X011391Y008597D01*
X011156Y008362D01*
X010850Y008236D01*
X010519Y008236D01*
X010213Y008362D01*
X009979Y008597D01*
X009895Y008800D01*
X009811Y008597D01*
X009576Y008362D01*
X009270Y008236D01*
X008939Y008236D01*
X008633Y008362D01*
X008399Y008597D01*
X008320Y008787D01*
X007665Y008132D01*
X007665Y007962D01*
X007384Y007681D01*
X006986Y007681D01*
X006705Y007962D01*
X006705Y008132D01*
X005536Y009301D01*
X003744Y009301D01*
X003697Y009254D01*
X003520Y009181D01*
X002849Y009181D01*
X002673Y009254D01*
X002538Y009389D01*
X002465Y009565D01*
X002465Y009756D01*
X002538Y009933D01*
X002673Y010068D01*
X002849Y010141D01*
X003156Y010141D01*
X004825Y011810D01*
X004825Y012602D01*
X004778Y012649D01*
X004592Y012649D01*
X004665Y012825D01*
X004665Y013496D01*
X004592Y013673D01*
X004545Y013720D01*
X004545Y015512D01*
X004834Y015801D01*
X009316Y015801D01*
X009101Y015586D01*
X008939Y015586D01*
X008633Y015459D01*
X008399Y015225D01*
X008272Y014919D01*
X008272Y014521D01*
X007504Y014521D01*
X007384Y014641D01*
X006986Y014641D01*
X006705Y014360D01*
X006705Y013962D01*
X006986Y013681D01*
X007384Y013681D01*
X007504Y013801D01*
X008272Y013801D01*
X008272Y013403D01*
X008399Y013097D01*
X008633Y012862D01*
X008939Y012736D01*
X009270Y012736D01*
X009576Y012862D01*
X009811Y013097D01*
X009895Y013300D01*
X009979Y013097D01*
X010213Y012862D01*
X010325Y012816D01*
X010325Y012810D01*
X010036Y012521D01*
X008334Y012521D01*
X007665Y013190D01*
X007665Y013360D01*
X007384Y013641D01*
X006986Y013641D01*
X006705Y013360D01*
X006705Y012962D01*
X006986Y012681D01*
X007156Y012681D01*
X007880Y011957D01*
X007981Y011856D01*
X008113Y011801D01*
X010113Y011801D01*
X010256Y011801D01*
X010389Y011856D01*
X010685Y012152D01*
X011853Y010984D01*
X011793Y010959D01*
X011559Y010725D01*
X011475Y010521D01*
X011391Y010725D01*
X011156Y010959D01*
X010850Y011086D01*
X010519Y011086D01*
X010213Y010959D01*
X009979Y010725D01*
X009895Y010521D01*
X009811Y010725D01*
X009576Y010959D01*
X009270Y011086D01*
X008939Y011086D01*
X008633Y010959D01*
X008399Y010725D01*
X008272Y010419D01*
X008272Y009757D01*
X007185Y008670D01*
X005889Y009966D01*
X005756Y010021D01*
X005613Y010021D01*
X004054Y010021D01*
X005490Y011457D01*
X005545Y011589D01*
X005545Y011732D01*
X005545Y012602D01*
X005592Y012649D01*
X007188Y012649D01*
X007346Y012490D02*
X005545Y012490D01*
X005545Y012332D02*
X007505Y012332D01*
X007663Y012173D02*
X005545Y012173D01*
X005545Y012015D02*
X007822Y012015D01*
X007980Y011856D02*
X005545Y011856D01*
X005545Y011698D02*
X011139Y011698D01*
X010980Y011856D02*
X010389Y011856D01*
X010548Y012015D02*
X010822Y012015D01*
X011297Y011539D02*
X007372Y011539D01*
X007351Y011561D02*
X007185Y011561D01*
X007185Y011161D01*
X007185Y011161D01*
X007585Y011161D01*
X007585Y011326D01*
X007351Y011561D01*
X007185Y011561D02*
X007019Y011561D01*
X006785Y011326D01*
X006785Y011161D01*
X007184Y011161D01*
X007184Y011161D01*
X006785Y011161D01*
X006785Y010995D01*
X007019Y010761D01*
X007185Y010761D01*
X007351Y010761D01*
X007585Y010995D01*
X007585Y011161D01*
X007185Y011161D01*
X007185Y011161D01*
X007185Y011561D01*
X007185Y011539D02*
X007185Y011539D01*
X007185Y011381D02*
X007185Y011381D01*
X007185Y011222D02*
X007185Y011222D01*
X007185Y011160D02*
X007185Y010761D01*
X007185Y011160D01*
X007185Y011160D01*
X007185Y011064D02*
X007185Y011064D01*
X007185Y010905D02*
X007185Y010905D01*
X007495Y010905D02*
X008579Y010905D01*
X008421Y010746D02*
X004780Y010746D01*
X004621Y010588D02*
X008342Y010588D01*
X008277Y010429D02*
X004463Y010429D01*
X004304Y010271D02*
X008272Y010271D01*
X008272Y010112D02*
X004145Y010112D01*
X003603Y010588D02*
X001965Y010588D01*
X001965Y010746D02*
X002920Y010746D01*
X002986Y010681D02*
X003384Y010681D01*
X003665Y010962D01*
X003665Y011360D01*
X003545Y011480D01*
X003545Y012602D01*
X003592Y012649D01*
X003778Y012649D01*
X003913Y012514D01*
X004089Y012441D01*
X004280Y012441D01*
X004457Y012514D01*
X004592Y012649D01*
X004657Y012808D02*
X004712Y012808D01*
X004705Y012825D02*
X004778Y012649D01*
X004825Y012490D02*
X004400Y012490D01*
X003969Y012490D02*
X003545Y012490D01*
X003545Y012332D02*
X004825Y012332D01*
X004825Y012173D02*
X003545Y012173D01*
X003545Y012015D02*
X004825Y012015D01*
X004825Y011856D02*
X003545Y011856D01*
X003545Y011698D02*
X004713Y011698D01*
X004554Y011539D02*
X003545Y011539D01*
X003644Y011381D02*
X004396Y011381D01*
X004237Y011222D02*
X003665Y011222D01*
X003665Y011064D02*
X004079Y011064D01*
X003920Y010905D02*
X003608Y010905D01*
X003761Y010746D02*
X003449Y010746D01*
X002986Y010681D02*
X002705Y010962D01*
X002705Y011360D01*
X002825Y011480D01*
X002825Y012602D01*
X002778Y012649D01*
X001965Y012649D01*
X001965Y012808D02*
X002712Y012808D01*
X002705Y012825D02*
X002778Y012649D01*
X002825Y012490D02*
X001965Y012490D01*
X001965Y012332D02*
X002825Y012332D01*
X002825Y012173D02*
X001965Y012173D01*
X001965Y012015D02*
X002825Y012015D01*
X002825Y011856D02*
X001965Y011856D01*
X001965Y011698D02*
X002825Y011698D01*
X002825Y011539D02*
X001965Y011539D01*
X001965Y011381D02*
X002726Y011381D01*
X002705Y011222D02*
X001965Y011222D01*
X001965Y011064D02*
X002705Y011064D01*
X002762Y010905D02*
X001965Y010905D01*
X001965Y010429D02*
X003444Y010429D01*
X003286Y010271D02*
X001965Y010271D01*
X001965Y010112D02*
X002781Y010112D01*
X002559Y009954D02*
X001965Y009954D01*
X001965Y009795D02*
X002481Y009795D01*
X002465Y009637D02*
X001965Y009637D01*
X001965Y009478D02*
X002501Y009478D01*
X002607Y009320D02*
X001965Y009320D01*
X001965Y009161D02*
X005675Y009161D01*
X005834Y009003D02*
X001965Y009003D01*
X001965Y008844D02*
X005993Y008844D01*
X006151Y008685D02*
X001965Y008685D01*
X001965Y008527D02*
X002872Y008527D01*
X002986Y008641D02*
X002705Y008360D01*
X002705Y007962D01*
X002825Y007842D01*
X002825Y007131D01*
X002673Y007068D01*
X002538Y006933D01*
X002465Y006756D01*
X002465Y006565D01*
X002538Y006389D01*
X002673Y006254D01*
X002849Y006181D01*
X003156Y006181D01*
X004205Y005132D01*
X004205Y004962D01*
X004486Y004681D01*
X004884Y004681D01*
X005165Y004962D01*
X005165Y005360D01*
X004884Y005641D01*
X004714Y005641D01*
X003871Y006484D01*
X003905Y006565D01*
X003905Y006756D01*
X003832Y006933D01*
X003697Y007068D01*
X003545Y007131D01*
X003545Y007842D01*
X003665Y007962D01*
X003665Y008360D01*
X003384Y008641D01*
X002986Y008641D01*
X002714Y008368D02*
X001965Y008368D01*
X001965Y008210D02*
X002705Y008210D01*
X002705Y008051D02*
X001965Y008051D01*
X001965Y007893D02*
X002774Y007893D01*
X002825Y007734D02*
X001965Y007734D01*
X001965Y007576D02*
X002825Y007576D01*
X002825Y007417D02*
X001965Y007417D01*
X001965Y007259D02*
X002825Y007259D01*
X002751Y007100D02*
X001965Y007100D01*
X001965Y006941D02*
X002547Y006941D01*
X002476Y006783D02*
X001965Y006783D01*
X001965Y006624D02*
X002465Y006624D01*
X002506Y006466D02*
X001965Y006466D01*
X001965Y006307D02*
X002620Y006307D01*
X003188Y006149D02*
X001965Y006149D01*
X001965Y005990D02*
X003346Y005990D01*
X003505Y005832D02*
X001965Y005832D01*
X001965Y005673D02*
X003663Y005673D01*
X003822Y005515D02*
X001965Y005515D01*
X001965Y005356D02*
X003981Y005356D01*
X004139Y005197D02*
X001965Y005197D01*
X001965Y005039D02*
X004205Y005039D01*
X004286Y004880D02*
X001965Y004880D01*
X001965Y004722D02*
X004445Y004722D01*
X004925Y004722D02*
X008272Y004722D01*
X008272Y004880D02*
X005970Y004880D01*
X006085Y004995D02*
X006085Y005161D01*
X006085Y005326D01*
X005851Y005561D01*
X005685Y005561D01*
X005685Y005161D01*
X005685Y005161D01*
X006085Y005161D01*
X005685Y005161D01*
X005685Y005161D01*
X005685Y005561D01*
X005519Y005561D01*
X005285Y005326D01*
X005285Y005161D01*
X005684Y005161D01*
X005684Y005161D01*
X005285Y005161D01*
X005285Y004995D01*
X005519Y004761D01*
X005685Y004761D01*
X005851Y004761D01*
X006085Y004995D01*
X006085Y005039D02*
X008272Y005039D01*
X008272Y005197D02*
X006085Y005197D01*
X006055Y005356D02*
X008272Y005356D01*
X008272Y005515D02*
X005897Y005515D01*
X005685Y005515D02*
X005685Y005515D01*
X005685Y005356D02*
X005685Y005356D01*
X005685Y005197D02*
X005685Y005197D01*
X005685Y005160D02*
X005685Y004761D01*
X005685Y005160D01*
X005685Y005160D01*
X005685Y005039D02*
X005685Y005039D01*
X005685Y004880D02*
X005685Y004880D01*
X005400Y004880D02*
X005083Y004880D01*
X005165Y005039D02*
X005285Y005039D01*
X005285Y005197D02*
X005165Y005197D01*
X005165Y005356D02*
X005314Y005356D01*
X005473Y005515D02*
X005010Y005515D01*
X004682Y005673D02*
X008272Y005673D01*
X008272Y005832D02*
X004523Y005832D01*
X004365Y005990D02*
X008302Y005990D01*
X008272Y005919D02*
X008272Y004403D01*
X008399Y004097D01*
X008633Y003862D01*
X008939Y003736D01*
X009270Y003736D01*
X009576Y003862D01*
X009811Y004097D01*
X009895Y004300D01*
X009979Y004097D01*
X010213Y003862D01*
X010519Y003736D01*
X010850Y003736D01*
X011156Y003862D01*
X011391Y004097D01*
X011475Y004300D01*
X011559Y004097D01*
X011793Y003862D01*
X012099Y003736D01*
X012430Y003736D01*
X012736Y003862D01*
X012971Y004097D01*
X013097Y004403D01*
X013097Y005919D01*
X012971Y006225D01*
X012736Y006459D01*
X012430Y006586D01*
X012099Y006586D01*
X011793Y006459D01*
X011559Y006225D01*
X011475Y006021D01*
X011391Y006225D01*
X011156Y006459D01*
X010850Y006586D01*
X010769Y006586D01*
X010389Y006966D01*
X010256Y007021D01*
X010113Y007021D01*
X007744Y007021D01*
X007697Y007068D01*
X007520Y007141D01*
X006849Y007141D01*
X006673Y007068D01*
X006538Y006933D01*
X006465Y006756D01*
X006465Y006565D01*
X006538Y006389D01*
X006673Y006254D01*
X006849Y006181D01*
X007520Y006181D01*
X007697Y006254D01*
X007744Y006301D01*
X008475Y006301D01*
X008399Y006225D01*
X008272Y005919D01*
X008368Y006149D02*
X004206Y006149D01*
X004047Y006307D02*
X006620Y006307D01*
X006506Y006466D02*
X003889Y006466D01*
X003905Y006624D02*
X006465Y006624D01*
X006476Y006783D02*
X003894Y006783D01*
X003823Y006941D02*
X006547Y006941D01*
X006751Y007100D02*
X003619Y007100D01*
X003545Y007259D02*
X014325Y007259D01*
X014325Y007417D02*
X003545Y007417D01*
X003545Y007576D02*
X014325Y007576D01*
X014325Y007734D02*
X007437Y007734D01*
X007596Y007893D02*
X014325Y007893D01*
X014325Y008051D02*
X007665Y008051D01*
X007743Y008210D02*
X014325Y008210D01*
X014325Y008368D02*
X012742Y008368D01*
X012901Y008527D02*
X014325Y008527D01*
X014325Y008685D02*
X013007Y008685D01*
X013073Y008844D02*
X014325Y008844D01*
X014325Y009003D02*
X013097Y009003D01*
X013097Y009161D02*
X014325Y009161D01*
X014325Y009320D02*
X013097Y009320D01*
X013097Y009478D02*
X014205Y009478D01*
X014205Y009462D02*
X014325Y009342D01*
X014325Y005980D01*
X014205Y005860D01*
X014205Y005462D01*
X014486Y005181D01*
X014884Y005181D01*
X015165Y005462D01*
X015165Y005860D01*
X015045Y005980D01*
X015045Y009342D01*
X015165Y009462D01*
X015165Y009860D01*
X014884Y010141D01*
X014486Y010141D01*
X014205Y009860D01*
X014205Y009462D01*
X014205Y009637D02*
X013097Y009637D01*
X013097Y009795D02*
X014205Y009795D01*
X014299Y009954D02*
X013097Y009954D01*
X013097Y010112D02*
X014458Y010112D01*
X014912Y010112D02*
X015781Y010112D01*
X015849Y010141D02*
X015673Y010068D01*
X015538Y009933D01*
X015465Y009756D01*
X015465Y009565D01*
X015538Y009389D01*
X015673Y009254D01*
X015849Y009181D01*
X016520Y009181D01*
X016697Y009254D01*
X016744Y009301D01*
X018536Y009301D01*
X019705Y008132D01*
X019705Y007962D01*
X019986Y007681D01*
X020384Y007681D01*
X020504Y007801D01*
X021113Y007801D01*
X021256Y007801D01*
X021389Y007856D01*
X021714Y008181D01*
X022020Y008181D01*
X022197Y008254D01*
X022332Y008389D01*
X022405Y008565D01*
X022405Y008756D01*
X022332Y008933D01*
X022197Y009068D01*
X022020Y009141D01*
X021349Y009141D01*
X021173Y009068D01*
X021038Y008933D01*
X020965Y008756D01*
X020965Y008565D01*
X020983Y008521D01*
X020504Y008521D01*
X020384Y008641D01*
X020214Y008641D01*
X018990Y009865D01*
X018889Y009966D01*
X018756Y010021D01*
X016744Y010021D01*
X016697Y010068D01*
X016520Y010141D01*
X015849Y010141D01*
X015559Y009954D02*
X015071Y009954D01*
X015165Y009795D02*
X015481Y009795D01*
X015465Y009637D02*
X015165Y009637D01*
X015165Y009478D02*
X015501Y009478D01*
X015607Y009320D02*
X015045Y009320D01*
X015045Y009161D02*
X018675Y009161D01*
X018834Y009003D02*
X015045Y009003D01*
X015045Y008844D02*
X018993Y008844D01*
X019151Y008685D02*
X015045Y008685D01*
X015045Y008527D02*
X015872Y008527D01*
X015986Y008641D02*
X015705Y008360D01*
X015705Y007962D01*
X015825Y007842D01*
X015825Y007131D01*
X015673Y007068D01*
X015538Y006933D01*
X015465Y006756D01*
X015465Y006565D01*
X015538Y006389D01*
X015673Y006254D01*
X015825Y006191D01*
X015825Y004980D01*
X015705Y004860D01*
X015705Y004462D01*
X015986Y004181D01*
X016384Y004181D01*
X016665Y004462D01*
X016665Y004860D01*
X016545Y004980D01*
X016545Y006191D01*
X016697Y006254D01*
X016832Y006389D01*
X016905Y006565D01*
X016905Y006756D01*
X016832Y006933D01*
X016697Y007068D01*
X016545Y007131D01*
X016545Y007842D01*
X016665Y007962D01*
X016665Y008360D01*
X016384Y008641D01*
X015986Y008641D01*
X015714Y008368D02*
X015045Y008368D01*
X015045Y008210D02*
X015705Y008210D01*
X015705Y008051D02*
X015045Y008051D01*
X015045Y007893D02*
X015774Y007893D01*
X015825Y007734D02*
X015045Y007734D01*
X015045Y007576D02*
X015825Y007576D01*
X015825Y007417D02*
X015045Y007417D01*
X015045Y007259D02*
X015825Y007259D01*
X015751Y007100D02*
X015045Y007100D01*
X015045Y006941D02*
X015547Y006941D01*
X015476Y006783D02*
X015045Y006783D01*
X015045Y006624D02*
X015465Y006624D01*
X015506Y006466D02*
X015045Y006466D01*
X015045Y006307D02*
X015620Y006307D01*
X015825Y006149D02*
X015045Y006149D01*
X015045Y005990D02*
X015825Y005990D01*
X015825Y005832D02*
X015165Y005832D01*
X015165Y005673D02*
X015825Y005673D01*
X015825Y005515D02*
X015165Y005515D01*
X015059Y005356D02*
X015825Y005356D01*
X015825Y005197D02*
X014900Y005197D01*
X014851Y005061D02*
X014685Y005061D01*
X014685Y004661D01*
X014685Y004661D01*
X015085Y004661D01*
X015085Y004826D01*
X014851Y005061D01*
X014872Y005039D02*
X015825Y005039D01*
X015726Y004880D02*
X015031Y004880D01*
X015085Y004722D02*
X015705Y004722D01*
X015705Y004563D02*
X015085Y004563D01*
X015085Y004495D02*
X015085Y004661D01*
X014685Y004661D01*
X014685Y004661D01*
X014685Y005061D01*
X014519Y005061D01*
X014285Y004826D01*
X014285Y004661D01*
X014684Y004661D01*
X014684Y004661D01*
X014285Y004661D01*
X014285Y004495D01*
X014519Y004261D01*
X014685Y004261D01*
X014851Y004261D01*
X015085Y004495D01*
X014994Y004405D02*
X015762Y004405D01*
X015921Y004246D02*
X013033Y004246D01*
X013097Y004405D02*
X014375Y004405D01*
X014285Y004563D02*
X013097Y004563D01*
X013097Y004722D02*
X014285Y004722D01*
X014339Y004880D02*
X013097Y004880D01*
X013097Y005039D02*
X014497Y005039D01*
X014469Y005197D02*
X013097Y005197D01*
X013097Y005356D02*
X014311Y005356D01*
X014205Y005515D02*
X013097Y005515D01*
X013097Y005673D02*
X014205Y005673D01*
X014205Y005832D02*
X013097Y005832D01*
X013068Y005990D02*
X014325Y005990D01*
X014325Y006149D02*
X013002Y006149D01*
X012888Y006307D02*
X014325Y006307D01*
X014325Y006466D02*
X012720Y006466D01*
X011810Y006466D02*
X011140Y006466D01*
X011308Y006307D02*
X011641Y006307D01*
X011528Y006149D02*
X011422Y006149D01*
X010730Y006624D02*
X014325Y006624D01*
X014325Y006783D02*
X010572Y006783D01*
X010413Y006941D02*
X014325Y006941D01*
X014325Y007100D02*
X007619Y007100D01*
X006933Y007734D02*
X003545Y007734D01*
X003596Y007893D02*
X006774Y007893D01*
X006705Y008051D02*
X003665Y008051D01*
X003665Y008210D02*
X006627Y008210D01*
X006468Y008368D02*
X003656Y008368D01*
X003498Y008527D02*
X006310Y008527D01*
X007011Y008844D02*
X007359Y008844D01*
X007518Y009003D02*
X006852Y009003D01*
X006694Y009161D02*
X007676Y009161D01*
X007614Y009306D02*
X007680Y009350D01*
X007736Y009406D01*
X007779Y009471D01*
X007809Y009544D01*
X007825Y009621D01*
X007825Y009661D01*
X007825Y009700D01*
X007809Y009777D01*
X007779Y009850D01*
X007736Y009916D01*
X007680Y009971D01*
X007614Y010015D01*
X007542Y010045D01*
X007464Y010061D01*
X007185Y010061D01*
X007185Y009661D01*
X007185Y009661D01*
X007825Y009661D01*
X007185Y009661D01*
X007185Y009661D01*
X007185Y010061D01*
X006905Y010061D01*
X006828Y010045D01*
X006755Y010015D01*
X006690Y009971D01*
X006634Y009916D01*
X006590Y009850D01*
X006560Y009777D01*
X006545Y009700D01*
X006545Y009661D01*
X007184Y009661D01*
X007184Y009661D01*
X006545Y009661D01*
X006545Y009621D01*
X006560Y009544D01*
X006590Y009471D01*
X006634Y009406D01*
X006690Y009350D01*
X006755Y009306D01*
X006828Y009276D01*
X006905Y009261D01*
X007185Y009261D01*
X007464Y009261D01*
X007542Y009276D01*
X007614Y009306D01*
X007634Y009320D02*
X007835Y009320D01*
X007782Y009478D02*
X007993Y009478D01*
X008152Y009637D02*
X007825Y009637D01*
X007802Y009795D02*
X008272Y009795D01*
X008272Y009954D02*
X007698Y009954D01*
X007185Y009954D02*
X007185Y009954D01*
X007185Y009795D02*
X007185Y009795D01*
X007185Y009660D02*
X007185Y009261D01*
X007185Y009660D01*
X007185Y009660D01*
X007185Y009637D02*
X007185Y009637D01*
X007185Y009478D02*
X007185Y009478D01*
X007185Y009320D02*
X007185Y009320D01*
X006735Y009320D02*
X006535Y009320D01*
X006588Y009478D02*
X006377Y009478D01*
X006218Y009637D02*
X006545Y009637D01*
X006568Y009795D02*
X006059Y009795D01*
X005901Y009954D02*
X006672Y009954D01*
X006875Y010905D02*
X004938Y010905D01*
X005097Y011064D02*
X006785Y011064D01*
X006785Y011222D02*
X005255Y011222D01*
X005414Y011381D02*
X006839Y011381D01*
X006998Y011539D02*
X005524Y011539D01*
X007531Y011381D02*
X011456Y011381D01*
X011614Y011222D02*
X007585Y011222D01*
X007585Y011064D02*
X008886Y011064D01*
X009324Y011064D02*
X010466Y011064D01*
X010159Y010905D02*
X009630Y010905D01*
X009789Y010746D02*
X010001Y010746D01*
X009922Y010588D02*
X009867Y010588D01*
X010904Y011064D02*
X011773Y011064D01*
X011739Y010905D02*
X011210Y010905D01*
X011369Y010746D02*
X011581Y010746D01*
X011502Y010588D02*
X011447Y010588D01*
X012625Y011064D02*
X015785Y011064D01*
X015785Y011222D02*
X012596Y011222D01*
X012474Y011381D02*
X015839Y011381D01*
X015998Y011539D02*
X012316Y011539D01*
X012157Y011698D02*
X014139Y011698D01*
X013980Y011856D02*
X011998Y011856D01*
X011840Y012015D02*
X013822Y012015D01*
X013663Y012173D02*
X011681Y012173D01*
X011523Y012332D02*
X013505Y012332D01*
X013366Y012490D02*
X011364Y012490D01*
X011206Y012649D02*
X013325Y012649D01*
X013325Y012808D02*
X012604Y012808D01*
X012840Y012966D02*
X013325Y012966D01*
X013325Y013125D02*
X012982Y013125D01*
X013048Y013283D02*
X013325Y013283D01*
X013325Y013442D02*
X013097Y013442D01*
X013097Y013600D02*
X013325Y013600D01*
X013325Y013759D02*
X013097Y013759D01*
X013097Y013917D02*
X013325Y013917D01*
X013325Y014076D02*
X013097Y014076D01*
X013097Y014234D02*
X013325Y014234D01*
X013325Y014393D02*
X013097Y014393D01*
X013097Y014552D02*
X013325Y014552D01*
X013325Y014710D02*
X013097Y014710D01*
X013097Y014869D02*
X013325Y014869D01*
X013309Y015027D02*
X013053Y015027D01*
X012987Y015186D02*
X013151Y015186D01*
X013693Y015661D02*
X019175Y015661D01*
X019036Y015801D02*
X019705Y015132D01*
X019705Y014962D01*
X019825Y014842D01*
X019825Y013980D01*
X019705Y013860D01*
X019705Y013462D01*
X019986Y013181D01*
X020384Y013181D01*
X020665Y013462D01*
X020665Y013860D01*
X020545Y013980D01*
X020545Y014842D01*
X020665Y014962D01*
X020665Y015360D01*
X020384Y015641D01*
X020214Y015641D01*
X019490Y016365D01*
X019389Y016466D01*
X019256Y016521D01*
X004756Y016521D01*
X004613Y016521D01*
X004481Y016466D01*
X003981Y015966D01*
X003880Y015865D01*
X003825Y015732D01*
X003825Y013720D01*
X003778Y013673D01*
X003705Y013496D01*
X003705Y012825D01*
X003778Y012649D01*
X003712Y012808D02*
X003657Y012808D01*
X003665Y012825D02*
X003665Y013496D01*
X003592Y013673D01*
X003457Y013808D01*
X003280Y013881D01*
X003089Y013881D01*
X002913Y013808D01*
X002778Y013673D01*
X002705Y013496D01*
X002705Y012825D01*
X002705Y012966D02*
X001965Y012966D01*
X001965Y013125D02*
X002705Y013125D01*
X002705Y013283D02*
X001965Y013283D01*
X001965Y013442D02*
X002705Y013442D01*
X002748Y013600D02*
X001965Y013600D01*
X001965Y013759D02*
X002864Y013759D01*
X003506Y013759D02*
X003825Y013759D01*
X003825Y013917D02*
X001965Y013917D01*
X001965Y014076D02*
X003825Y014076D01*
X003825Y014234D02*
X001965Y014234D01*
X001965Y014393D02*
X003825Y014393D01*
X003825Y014552D02*
X001965Y014552D01*
X001965Y014710D02*
X003825Y014710D01*
X003825Y014869D02*
X001965Y014869D01*
X001965Y015027D02*
X003825Y015027D01*
X003825Y015186D02*
X001965Y015186D01*
X001965Y015344D02*
X003825Y015344D01*
X003825Y015503D02*
X001965Y015503D01*
X001965Y015661D02*
X003825Y015661D01*
X003861Y015820D02*
X001965Y015820D01*
X001965Y015978D02*
X003993Y015978D01*
X004152Y016137D02*
X001965Y016137D01*
X001965Y016296D02*
X004311Y016296D01*
X004469Y016454D02*
X001965Y016454D01*
X001965Y016613D02*
X019825Y016613D01*
X019825Y016589D02*
X019880Y016457D01*
X021325Y015012D01*
X021325Y013021D01*
X017334Y013021D01*
X016665Y013690D01*
X016665Y013860D01*
X016384Y014141D01*
X015986Y014141D01*
X015866Y014021D01*
X015004Y014021D01*
X014884Y014141D01*
X014486Y014141D01*
X014205Y013860D01*
X014205Y013462D01*
X014486Y013181D01*
X014884Y013181D01*
X015004Y013301D01*
X015866Y013301D01*
X015986Y013181D01*
X016156Y013181D01*
X016981Y012356D01*
X017113Y012301D01*
X017256Y012301D01*
X021366Y012301D01*
X021396Y012271D01*
X014584Y012271D01*
X014045Y012810D01*
X014045Y015232D01*
X013990Y015365D01*
X013889Y015466D01*
X013554Y015801D01*
X019036Y015801D01*
X019334Y015503D02*
X016408Y015503D01*
X016351Y015561D02*
X016185Y015561D01*
X016185Y015161D01*
X016185Y015161D01*
X016585Y015161D01*
X016585Y015326D01*
X016351Y015561D01*
X016185Y015561D02*
X016185Y015161D01*
X016185Y015161D01*
X016585Y015161D01*
X016585Y014995D01*
X016351Y014761D01*
X016185Y014761D01*
X016185Y015160D01*
X016185Y015160D01*
X016185Y014761D01*
X016019Y014761D01*
X015785Y014995D01*
X015785Y015161D01*
X016184Y015161D01*
X016184Y015161D01*
X015785Y015161D01*
X015785Y015326D01*
X016019Y015561D01*
X016185Y015561D01*
X016185Y015503D02*
X016185Y015503D01*
X016185Y015344D02*
X016185Y015344D01*
X016185Y015186D02*
X016185Y015186D01*
X016185Y015027D02*
X016185Y015027D01*
X016185Y014869D02*
X016185Y014869D01*
X016458Y014869D02*
X019798Y014869D01*
X019825Y014710D02*
X014045Y014710D01*
X014045Y014552D02*
X019825Y014552D01*
X019825Y014393D02*
X014045Y014393D01*
X014045Y014234D02*
X019825Y014234D01*
X019825Y014076D02*
X016449Y014076D01*
X016607Y013917D02*
X019763Y013917D01*
X019705Y013759D02*
X016665Y013759D01*
X016754Y013600D02*
X019705Y013600D01*
X019725Y013442D02*
X016913Y013442D01*
X017072Y013283D02*
X019884Y013283D01*
X020486Y013283D02*
X021325Y013283D01*
X021325Y013125D02*
X017230Y013125D01*
X016370Y012966D02*
X014045Y012966D01*
X014047Y012808D02*
X016529Y012808D01*
X016688Y012649D02*
X014206Y012649D01*
X014364Y012490D02*
X016846Y012490D01*
X017038Y012332D02*
X014523Y012332D01*
X014045Y013125D02*
X016212Y013125D01*
X015884Y013283D02*
X014986Y013283D01*
X014384Y013283D02*
X014045Y013283D01*
X014045Y013442D02*
X014225Y013442D01*
X014205Y013600D02*
X014045Y013600D01*
X014045Y013759D02*
X014205Y013759D01*
X014263Y013917D02*
X014045Y013917D01*
X014045Y014076D02*
X014421Y014076D01*
X014949Y014076D02*
X015921Y014076D01*
X015911Y014869D02*
X014045Y014869D01*
X014045Y015027D02*
X015785Y015027D01*
X015785Y015186D02*
X014045Y015186D01*
X013999Y015344D02*
X015803Y015344D01*
X015961Y015503D02*
X013852Y015503D01*
X014095Y016671D02*
X013275Y016671D01*
X012695Y017251D01*
X012695Y018071D01*
X013275Y018651D01*
X014095Y018651D01*
X014675Y018071D01*
X014675Y017251D01*
X014095Y016671D01*
X014195Y016771D02*
X016674Y016771D01*
X016775Y016671D02*
X017595Y016671D01*
X018175Y017251D01*
X018175Y018071D01*
X017595Y018651D01*
X016775Y018651D01*
X016195Y018071D01*
X016195Y017251D01*
X016775Y016671D01*
X016516Y016930D02*
X014354Y016930D01*
X014512Y017088D02*
X016357Y017088D01*
X016199Y017247D02*
X014671Y017247D01*
X014675Y017405D02*
X016195Y017405D01*
X016195Y017564D02*
X014675Y017564D01*
X014675Y017722D02*
X016195Y017722D01*
X016195Y017881D02*
X014675Y017881D01*
X014675Y018039D02*
X016195Y018039D01*
X016322Y018198D02*
X014548Y018198D01*
X014389Y018357D02*
X016481Y018357D01*
X016639Y018515D02*
X014231Y018515D01*
X013139Y018515D02*
X003738Y018515D01*
X003698Y018549D02*
X003698Y018549D01*
X003970Y018320D01*
X003970Y018320D01*
X004149Y018012D01*
X004149Y018011D01*
X004210Y017661D01*
X004210Y017661D01*
X004149Y017310D01*
X004149Y017310D01*
X003970Y017002D01*
X003970Y017002D01*
X003970Y017002D01*
X003698Y016773D01*
X003698Y016773D01*
X003363Y016651D01*
X003363Y016651D01*
X003241Y016651D01*
X003241Y016651D01*
X003203Y016651D01*
X003185Y016651D01*
X003129Y016651D01*
X003129Y016651D01*
X003007Y016651D01*
X003007Y016651D01*
X002672Y016773D01*
X002672Y016773D01*
X002399Y017002D01*
X002221Y017310D01*
X002159Y017661D01*
X002159Y017661D01*
X002221Y018011D01*
X002221Y018012D01*
X002399Y018320D01*
X002399Y018320D01*
X002399Y018320D01*
X002672Y018549D01*
X002672Y018549D01*
X003007Y018671D01*
X003007Y018671D01*
X003129Y018671D01*
X003129Y018671D01*
X003185Y018671D01*
X003185Y018671D01*
X003241Y018671D01*
X003241Y018671D01*
X003363Y018671D01*
X003363Y018671D01*
X003698Y018549D01*
X003927Y018357D02*
X012981Y018357D01*
X012822Y018198D02*
X004041Y018198D01*
X004132Y018039D02*
X012695Y018039D01*
X012695Y017881D02*
X004172Y017881D01*
X004200Y017722D02*
X012695Y017722D01*
X012695Y017564D02*
X004193Y017564D01*
X004165Y017405D02*
X012695Y017405D01*
X012699Y017247D02*
X004112Y017247D01*
X004020Y017088D02*
X012857Y017088D01*
X013016Y016930D02*
X003885Y016930D01*
X003693Y016771D02*
X013174Y016771D01*
X016567Y015344D02*
X019492Y015344D01*
X019651Y015186D02*
X016585Y015186D01*
X016585Y015027D02*
X019705Y015027D01*
X020571Y014869D02*
X021325Y014869D01*
X021309Y015027D02*
X020665Y015027D01*
X020665Y015186D02*
X021151Y015186D01*
X020992Y015344D02*
X020665Y015344D01*
X020522Y015503D02*
X020834Y015503D01*
X020675Y015661D02*
X020193Y015661D01*
X020035Y015820D02*
X020517Y015820D01*
X020358Y015978D02*
X019876Y015978D01*
X019718Y016137D02*
X020200Y016137D01*
X020041Y016296D02*
X019559Y016296D01*
X019401Y016454D02*
X019882Y016454D01*
X019825Y016589D02*
X019825Y016671D01*
X019775Y016671D01*
X019195Y017251D01*
X019195Y018071D01*
X019775Y018651D01*
X020595Y018651D01*
X021175Y018071D01*
X021175Y017251D01*
X020639Y016715D01*
X021889Y015466D01*
X021990Y015365D01*
X022045Y015232D01*
X022045Y012980D01*
X022165Y012860D01*
X022165Y012462D01*
X021974Y012271D01*
X023063Y012271D01*
X023206Y012271D01*
X023339Y012216D01*
X024834Y010721D01*
X026446Y010721D01*
X026205Y010962D01*
X026205Y011360D01*
X026486Y011641D01*
X026884Y011641D01*
X027004Y011521D01*
X027866Y011521D01*
X027986Y011641D01*
X028156Y011641D01*
X029201Y012686D01*
X029185Y012686D01*
X029185Y013160D01*
X029185Y013160D01*
X029185Y012686D01*
X028988Y012686D01*
X028740Y012934D01*
X028740Y012931D01*
X028415Y012606D01*
X028139Y012606D01*
X027389Y011856D01*
X027256Y011801D01*
X027113Y011801D01*
X025113Y011801D01*
X024981Y011856D01*
X024880Y011957D01*
X024656Y012181D01*
X024486Y012181D01*
X024205Y012462D01*
X024205Y012632D01*
X024036Y012801D01*
X023504Y012801D01*
X023384Y012681D01*
X022986Y012681D01*
X022705Y012962D01*
X022705Y013360D01*
X022986Y013641D01*
X023384Y013641D01*
X023504Y013521D01*
X024113Y013521D01*
X024256Y013521D01*
X024389Y013466D01*
X024714Y013141D01*
X024884Y013141D01*
X025165Y012860D01*
X025165Y012690D01*
X025334Y012521D01*
X027036Y012521D01*
X027121Y012606D01*
X026955Y012606D01*
X026685Y012876D01*
X026415Y012606D01*
X025955Y012606D01*
X025630Y012931D01*
X025630Y013391D01*
X025955Y013716D01*
X026415Y013716D01*
X026685Y013446D01*
X026825Y013586D01*
X026825Y014232D01*
X026880Y014365D01*
X026981Y014466D01*
X027825Y015310D01*
X027825Y015736D01*
X027685Y015876D01*
X027415Y015606D01*
X026955Y015606D01*
X026685Y015876D01*
X026415Y015606D01*
X025955Y015606D01*
X025630Y015931D01*
X025630Y016391D01*
X025955Y016716D01*
X026415Y016716D01*
X026685Y016446D01*
X026825Y016586D01*
X026825Y017342D01*
X026705Y017462D01*
X026705Y017860D01*
X026986Y018141D01*
X027384Y018141D01*
X027504Y018021D01*
X031695Y018021D01*
X031695Y018071D01*
X032275Y018651D01*
X033095Y018651D01*
X033675Y018071D01*
X033675Y017251D01*
X033095Y016671D01*
X032275Y016671D01*
X031695Y017251D01*
X031695Y017301D01*
X030554Y017301D01*
X030714Y017141D01*
X030884Y017141D01*
X031165Y016860D01*
X031165Y016462D01*
X030884Y016181D01*
X030486Y016181D01*
X030205Y016462D01*
X030205Y016632D01*
X030036Y016801D01*
X029334Y016801D01*
X029249Y016716D01*
X029415Y016716D01*
X029740Y016391D01*
X029740Y015931D01*
X029415Y015606D01*
X028955Y015606D01*
X028685Y015876D01*
X028545Y015736D01*
X028545Y015232D01*
X028545Y015089D01*
X028490Y014957D01*
X027545Y014012D01*
X027545Y013586D01*
X027685Y013446D01*
X027955Y013716D01*
X028415Y013716D01*
X028740Y013391D01*
X028740Y013387D01*
X028988Y013636D01*
X029185Y013636D01*
X029185Y013161D01*
X029185Y013161D01*
X029660Y013161D01*
X029660Y013358D01*
X029382Y013636D01*
X029185Y013636D01*
X029185Y013161D01*
X029185Y013161D01*
X029660Y013161D01*
X029660Y013145D01*
X032380Y015865D01*
X032481Y015966D01*
X032613Y016021D01*
X033036Y016021D01*
X034230Y017215D01*
X034195Y017251D01*
X034195Y018071D01*
X034775Y018651D01*
X035595Y018651D01*
X036175Y018071D01*
X036175Y017251D01*
X035595Y016671D01*
X034775Y016671D01*
X034739Y016706D01*
X033389Y015356D01*
X033256Y015301D01*
X033113Y015301D01*
X032834Y015301D01*
X030674Y013141D01*
X030884Y013141D01*
X031004Y013021D01*
X031866Y013021D01*
X031986Y013141D01*
X032384Y013141D01*
X032665Y012860D01*
X032665Y012462D01*
X032384Y012181D01*
X031986Y012181D01*
X031866Y012301D01*
X031045Y012301D01*
X031045Y010589D01*
X030990Y010457D01*
X030889Y010356D01*
X030589Y010056D01*
X030505Y010021D01*
X031825Y010021D01*
X031825Y011232D01*
X031880Y011365D01*
X031981Y011466D01*
X032981Y012466D01*
X033113Y012521D01*
X033256Y012521D01*
X037036Y012521D01*
X037325Y012810D01*
X037325Y016671D01*
X037275Y016671D01*
X036695Y017251D01*
X036695Y018071D01*
X037275Y018651D01*
X038095Y018651D01*
X038675Y018071D01*
X038675Y017251D01*
X038671Y017247D02*
X039199Y017247D01*
X039195Y017251D02*
X039775Y016671D01*
X039825Y016671D01*
X039825Y011480D01*
X039705Y011360D01*
X039705Y010962D01*
X039986Y010681D01*
X040384Y010681D01*
X040504Y010801D01*
X041366Y010801D01*
X041486Y010681D01*
X041884Y010681D01*
X042165Y010962D01*
X042165Y011360D01*
X041884Y011641D01*
X041486Y011641D01*
X041366Y011521D01*
X040545Y011521D01*
X040545Y016671D01*
X040595Y016671D01*
X041175Y017251D01*
X041175Y017573D01*
X041221Y017310D01*
X041399Y017002D01*
X041399Y017002D01*
X041672Y016773D01*
X042007Y016651D01*
X042129Y016651D01*
X042129Y016651D01*
X042185Y016651D01*
X042200Y016651D01*
X042241Y016651D01*
X042363Y016651D01*
X042698Y016773D01*
X042970Y017002D01*
X043149Y017310D01*
X043210Y017661D01*
X043149Y018011D01*
X043149Y018012D01*
X042970Y018320D01*
X042698Y018549D01*
X042698Y018549D01*
X042363Y018671D01*
X042241Y018671D01*
X042185Y018671D01*
X042183Y018671D01*
X042129Y018671D01*
X042129Y018671D01*
X042007Y018671D01*
X042007Y018671D01*
X041672Y018549D01*
X041399Y018320D01*
X041221Y018012D01*
X041221Y018011D02*
X041175Y017749D01*
X041175Y018071D01*
X040595Y018651D01*
X039775Y018651D01*
X039195Y018071D01*
X039195Y017251D01*
X039357Y017088D02*
X038512Y017088D01*
X038354Y016930D02*
X039516Y016930D01*
X039674Y016771D02*
X038195Y016771D01*
X038045Y016613D02*
X039825Y016613D01*
X039825Y016454D02*
X038045Y016454D01*
X038045Y016296D02*
X039825Y016296D01*
X039825Y016137D02*
X038045Y016137D01*
X038045Y015978D02*
X039825Y015978D01*
X039825Y015820D02*
X038045Y015820D01*
X038045Y015661D02*
X039825Y015661D01*
X039825Y015503D02*
X038045Y015503D01*
X038045Y015344D02*
X039825Y015344D01*
X039825Y015186D02*
X038045Y015186D01*
X038045Y015027D02*
X039825Y015027D01*
X039825Y014869D02*
X038045Y014869D01*
X038045Y014710D02*
X039825Y014710D01*
X039825Y014552D02*
X038045Y014552D01*
X038045Y014393D02*
X039825Y014393D01*
X039825Y014234D02*
X038045Y014234D01*
X038045Y014076D02*
X039825Y014076D01*
X039825Y013917D02*
X038045Y013917D01*
X038045Y013759D02*
X039825Y013759D01*
X039825Y013600D02*
X038045Y013600D01*
X038045Y013442D02*
X039825Y013442D01*
X039825Y013283D02*
X038045Y013283D01*
X038045Y013125D02*
X039825Y013125D01*
X039825Y012966D02*
X038045Y012966D01*
X038045Y012808D02*
X039825Y012808D01*
X039825Y012649D02*
X038045Y012649D01*
X038004Y012490D02*
X039825Y012490D01*
X039825Y012332D02*
X037865Y012332D01*
X037707Y012173D02*
X039825Y012173D01*
X039825Y012015D02*
X037548Y012015D01*
X037389Y011856D02*
X039825Y011856D01*
X039825Y011698D02*
X033231Y011698D01*
X033385Y011539D02*
X033072Y011539D01*
X033226Y011381D02*
X032914Y011381D01*
X032755Y011222D02*
X033205Y011222D01*
X033205Y011360D02*
X033205Y010962D01*
X033486Y010681D01*
X033884Y010681D01*
X034004Y010801D01*
X034483Y010801D01*
X034465Y010756D01*
X034465Y010565D01*
X034538Y010389D01*
X034673Y010254D01*
X034849Y010181D01*
X035520Y010181D01*
X035697Y010254D01*
X035832Y010389D01*
X035905Y010565D01*
X035905Y010756D01*
X035832Y010933D01*
X035697Y011068D01*
X035520Y011141D01*
X035214Y011141D01*
X034990Y011365D01*
X034889Y011466D01*
X034756Y011521D01*
X034004Y011521D01*
X033884Y011641D01*
X033486Y011641D01*
X033205Y011360D01*
X033985Y011539D02*
X038498Y011539D01*
X038519Y011561D02*
X038285Y011326D01*
X038285Y011161D01*
X038684Y011161D01*
X038684Y011161D01*
X038285Y011161D01*
X038285Y010995D01*
X038519Y010761D01*
X038685Y010761D01*
X038851Y010761D01*
X039085Y010995D01*
X039085Y011161D01*
X039085Y011326D01*
X038851Y011561D01*
X038685Y011561D01*
X038685Y011161D01*
X038685Y011161D01*
X039085Y011161D01*
X038685Y011161D01*
X038685Y011161D01*
X038685Y011561D01*
X038519Y011561D01*
X038685Y011539D02*
X038685Y011539D01*
X038685Y011381D02*
X038685Y011381D01*
X038685Y011222D02*
X038685Y011222D01*
X038685Y011160D02*
X038685Y010761D01*
X038685Y011160D01*
X038685Y011160D01*
X038685Y011064D02*
X038685Y011064D01*
X038685Y010905D02*
X038685Y010905D01*
X038995Y010905D02*
X039762Y010905D01*
X039705Y011064D02*
X039085Y011064D01*
X039085Y011222D02*
X039705Y011222D01*
X039726Y011381D02*
X039031Y011381D01*
X038872Y011539D02*
X039825Y011539D01*
X040545Y011539D02*
X041385Y011539D01*
X041985Y011539D02*
X043405Y011539D01*
X043405Y011381D02*
X042144Y011381D01*
X042165Y011222D02*
X043405Y011222D01*
X043405Y011064D02*
X042165Y011064D01*
X042108Y010905D02*
X043405Y010905D01*
X043405Y010746D02*
X041949Y010746D01*
X041420Y010746D02*
X040449Y010746D01*
X039920Y010746D02*
X035905Y010746D01*
X035905Y010588D02*
X043405Y010588D01*
X043405Y010429D02*
X035849Y010429D01*
X035714Y010271D02*
X043405Y010271D01*
X043405Y010112D02*
X035589Y010112D01*
X035520Y010141D02*
X034849Y010141D01*
X034673Y010068D01*
X034538Y009933D01*
X034465Y009756D01*
X034465Y009565D01*
X034538Y009389D01*
X034673Y009254D01*
X034849Y009181D01*
X035520Y009181D01*
X035697Y009254D01*
X035744Y009301D01*
X038036Y009301D01*
X038325Y009012D01*
X038325Y007480D01*
X038205Y007360D01*
X038205Y006962D01*
X038486Y006681D01*
X038884Y006681D01*
X039004Y006801D01*
X039866Y006801D01*
X039986Y006681D01*
X040384Y006681D01*
X040665Y006962D01*
X040665Y007360D01*
X040384Y007641D01*
X039986Y007641D01*
X039866Y007521D01*
X039045Y007521D01*
X039045Y009089D01*
X039045Y009232D01*
X038990Y009365D01*
X038490Y009865D01*
X038389Y009966D01*
X038256Y010021D01*
X035744Y010021D01*
X035697Y010068D01*
X035520Y010141D01*
X034781Y010112D02*
X032545Y010112D01*
X032545Y009954D02*
X033172Y009954D01*
X033190Y009971D02*
X033134Y009916D01*
X033090Y009850D01*
X033060Y009777D01*
X033045Y009700D01*
X033045Y009661D01*
X033684Y009661D01*
X033684Y009661D01*
X033045Y009661D01*
X033045Y009621D01*
X033060Y009544D01*
X033090Y009471D01*
X033134Y009406D01*
X033190Y009350D01*
X033255Y009306D01*
X033328Y009276D01*
X033405Y009261D01*
X033685Y009261D01*
X033964Y009261D01*
X034042Y009276D01*
X034114Y009306D01*
X034180Y009350D01*
X034236Y009406D01*
X034279Y009471D01*
X034309Y009544D01*
X034325Y009621D01*
X034325Y009661D01*
X034325Y009700D01*
X034309Y009777D01*
X034279Y009850D01*
X034236Y009916D01*
X034180Y009971D01*
X034114Y010015D01*
X034042Y010045D01*
X033964Y010061D01*
X033685Y010061D01*
X033685Y009661D01*
X033685Y009661D01*
X034325Y009661D01*
X033685Y009661D01*
X033685Y009661D01*
X033685Y010061D01*
X033405Y010061D01*
X033328Y010045D01*
X033255Y010015D01*
X033190Y009971D01*
X033068Y009795D02*
X032559Y009795D01*
X032718Y009637D02*
X033045Y009637D01*
X033088Y009478D02*
X032877Y009478D01*
X033035Y009320D02*
X033235Y009320D01*
X033194Y009161D02*
X038175Y009161D01*
X038325Y009003D02*
X035762Y009003D01*
X035869Y008844D02*
X038325Y008844D01*
X038325Y008685D02*
X035905Y008685D01*
X035889Y008527D02*
X038325Y008527D01*
X038325Y008368D02*
X035811Y008368D01*
X035590Y008210D02*
X038325Y008210D01*
X038325Y008051D02*
X035084Y008051D01*
X034926Y007893D02*
X038325Y007893D01*
X038325Y007734D02*
X033937Y007734D01*
X033433Y007734D02*
X030045Y007734D01*
X030045Y007842D02*
X030165Y007962D01*
X030165Y008360D01*
X029884Y008641D01*
X029486Y008641D01*
X029205Y008360D01*
X029205Y007962D01*
X029325Y007842D01*
X029325Y007131D01*
X029173Y007068D01*
X029038Y006933D01*
X028965Y006756D01*
X028965Y006565D01*
X029038Y006389D01*
X029173Y006254D01*
X029325Y006191D01*
X029325Y004980D01*
X029205Y004860D01*
X029205Y004462D01*
X029486Y004181D01*
X029884Y004181D01*
X030165Y004462D01*
X030165Y004860D01*
X030045Y004980D01*
X030045Y006191D01*
X030197Y006254D01*
X030332Y006389D01*
X030405Y006565D01*
X030405Y006756D01*
X030332Y006933D01*
X030197Y007068D01*
X030045Y007131D01*
X030045Y007842D01*
X030096Y007893D02*
X033274Y007893D01*
X033205Y008051D02*
X030165Y008051D01*
X030165Y008210D02*
X033127Y008210D01*
X032968Y008368D02*
X030156Y008368D01*
X029998Y008527D02*
X032810Y008527D01*
X032651Y008685D02*
X025545Y008685D01*
X025545Y008732D02*
X025490Y008865D01*
X025389Y008966D01*
X024389Y009966D01*
X024256Y010021D01*
X024113Y010021D01*
X022244Y010021D01*
X022197Y010068D01*
X022020Y010141D01*
X021349Y010141D01*
X021173Y010068D01*
X021038Y009933D01*
X020965Y009756D01*
X020965Y009565D01*
X021038Y009389D01*
X021173Y009254D01*
X021349Y009181D01*
X022020Y009181D01*
X022197Y009254D01*
X022244Y009301D01*
X024036Y009301D01*
X024825Y008512D01*
X024825Y007480D01*
X024705Y007360D01*
X024705Y006962D01*
X024986Y006681D01*
X025384Y006681D01*
X025504Y006801D01*
X026366Y006801D01*
X026486Y006681D01*
X026884Y006681D01*
X027165Y006962D01*
X027165Y007360D01*
X026884Y007641D01*
X026486Y007641D01*
X026366Y007521D01*
X025545Y007521D01*
X025545Y008732D01*
X025499Y008844D02*
X032493Y008844D01*
X032334Y009003D02*
X025352Y009003D01*
X025194Y009161D02*
X032175Y009161D01*
X033352Y009003D02*
X034608Y009003D01*
X034501Y008844D02*
X033511Y008844D01*
X033669Y008685D02*
X034465Y008685D01*
X034481Y008527D02*
X033998Y008527D01*
X033685Y009261D02*
X033685Y009660D01*
X033685Y009660D01*
X033685Y009261D01*
X033685Y009320D02*
X033685Y009320D01*
X033685Y009478D02*
X033685Y009478D01*
X033685Y009637D02*
X033685Y009637D01*
X033685Y009795D02*
X033685Y009795D01*
X033685Y009954D02*
X033685Y009954D01*
X034198Y009954D02*
X034559Y009954D01*
X034481Y009795D02*
X034302Y009795D01*
X034325Y009637D02*
X034465Y009637D01*
X034501Y009478D02*
X034282Y009478D01*
X034134Y009320D02*
X034607Y009320D01*
X034656Y010271D02*
X032545Y010271D01*
X032545Y010429D02*
X034521Y010429D01*
X034465Y010588D02*
X032545Y010588D01*
X032545Y010746D02*
X033420Y010746D01*
X033262Y010905D02*
X032545Y010905D01*
X032597Y011064D02*
X033205Y011064D01*
X033949Y010746D02*
X034465Y010746D01*
X035133Y011222D02*
X038285Y011222D01*
X038285Y011064D02*
X035701Y011064D01*
X035843Y010905D02*
X038375Y010905D01*
X038339Y011381D02*
X034974Y011381D01*
X033040Y012490D02*
X032665Y012490D01*
X032665Y012649D02*
X037164Y012649D01*
X037323Y012808D02*
X032665Y012808D01*
X032558Y012966D02*
X037325Y012966D01*
X037325Y013125D02*
X032400Y013125D01*
X032351Y013261D02*
X032185Y013261D01*
X032185Y013660D01*
X032185Y013660D01*
X032185Y013261D01*
X032019Y013261D01*
X031785Y013495D01*
X031785Y013661D01*
X032184Y013661D01*
X032184Y013661D01*
X031785Y013661D01*
X031785Y013826D01*
X032019Y014061D01*
X032185Y014061D01*
X032185Y013661D01*
X032185Y013661D01*
X032585Y013661D01*
X032585Y013826D01*
X032351Y014061D01*
X032185Y014061D01*
X032185Y013661D01*
X032185Y013661D01*
X032585Y013661D01*
X032585Y013495D01*
X032351Y013261D01*
X032373Y013283D02*
X037325Y013283D01*
X037325Y013442D02*
X032531Y013442D01*
X032585Y013600D02*
X037325Y013600D01*
X037325Y013759D02*
X032585Y013759D01*
X032494Y013917D02*
X037325Y013917D01*
X037325Y014076D02*
X031609Y014076D01*
X031768Y014234D02*
X037325Y014234D01*
X037325Y014393D02*
X031926Y014393D01*
X032085Y014552D02*
X037325Y014552D01*
X037325Y014710D02*
X032243Y014710D01*
X032402Y014869D02*
X037325Y014869D01*
X037325Y015027D02*
X032560Y015027D01*
X032719Y015186D02*
X037325Y015186D01*
X037325Y015344D02*
X033361Y015344D01*
X033536Y015503D02*
X037325Y015503D01*
X037325Y015661D02*
X033694Y015661D01*
X033853Y015820D02*
X037325Y015820D01*
X037325Y015978D02*
X034012Y015978D01*
X034170Y016137D02*
X037325Y016137D01*
X037325Y016296D02*
X034329Y016296D01*
X034487Y016454D02*
X037325Y016454D01*
X037325Y016613D02*
X034646Y016613D01*
X033945Y016930D02*
X033354Y016930D01*
X033512Y017088D02*
X034103Y017088D01*
X034199Y017247D02*
X033671Y017247D01*
X033675Y017405D02*
X034195Y017405D01*
X034195Y017564D02*
X033675Y017564D01*
X033675Y017722D02*
X034195Y017722D01*
X034195Y017881D02*
X033675Y017881D01*
X033675Y018039D02*
X034195Y018039D01*
X034322Y018198D02*
X033548Y018198D01*
X033389Y018357D02*
X034481Y018357D01*
X034639Y018515D02*
X033231Y018515D01*
X032139Y018515D02*
X023617Y018515D01*
X023562Y018571D02*
X023235Y018571D01*
X023235Y017711D01*
X023135Y017711D01*
X023135Y018571D01*
X022808Y018571D01*
X022275Y018038D01*
X022275Y017711D01*
X023135Y017711D01*
X023135Y017611D01*
X022275Y017611D01*
X022275Y017284D01*
X022808Y016751D01*
X023135Y016751D01*
X023135Y017611D01*
X023235Y017611D01*
X023235Y017711D01*
X024095Y017711D01*
X024095Y018038D01*
X023562Y018571D01*
X023776Y018357D02*
X031981Y018357D01*
X031822Y018198D02*
X023934Y018198D01*
X024093Y018039D02*
X025998Y018039D01*
X026019Y018061D02*
X025785Y017826D01*
X025785Y017661D01*
X026184Y017661D01*
X026184Y017661D01*
X025785Y017661D01*
X025785Y017495D01*
X026019Y017261D01*
X026185Y017261D01*
X026351Y017261D01*
X026585Y017495D01*
X026585Y017661D01*
X026585Y017826D01*
X026351Y018061D01*
X026185Y018061D01*
X026185Y017661D01*
X026185Y017661D01*
X026585Y017661D01*
X026185Y017661D01*
X026185Y017661D01*
X026185Y018061D01*
X026019Y018061D01*
X026185Y018039D02*
X026185Y018039D01*
X026185Y017881D02*
X026185Y017881D01*
X026185Y017722D02*
X026185Y017722D01*
X026185Y017660D02*
X026185Y017261D01*
X026185Y017660D01*
X026185Y017660D01*
X026185Y017564D02*
X026185Y017564D01*
X026185Y017405D02*
X026185Y017405D01*
X026495Y017405D02*
X026762Y017405D01*
X026705Y017564D02*
X026585Y017564D01*
X026585Y017722D02*
X026705Y017722D01*
X026726Y017881D02*
X026530Y017881D01*
X026372Y018039D02*
X026885Y018039D01*
X027485Y018039D02*
X031695Y018039D01*
X031699Y017247D02*
X030608Y017247D01*
X030936Y017088D02*
X031857Y017088D01*
X032016Y016930D02*
X031095Y016930D01*
X031165Y016771D02*
X032174Y016771D01*
X031165Y016613D02*
X033628Y016613D01*
X033786Y016771D02*
X033195Y016771D01*
X033469Y016454D02*
X031157Y016454D01*
X030998Y016296D02*
X033311Y016296D01*
X033152Y016137D02*
X029740Y016137D01*
X029740Y016296D02*
X030371Y016296D01*
X030213Y016454D02*
X029676Y016454D01*
X029518Y016613D02*
X030205Y016613D01*
X030065Y016771D02*
X029304Y016771D01*
X029740Y015978D02*
X032511Y015978D01*
X032335Y015820D02*
X029629Y015820D01*
X029470Y015661D02*
X032176Y015661D01*
X032018Y015503D02*
X028545Y015503D01*
X028545Y015661D02*
X028899Y015661D01*
X028741Y015820D02*
X028629Y015820D01*
X027825Y015661D02*
X027470Y015661D01*
X027629Y015820D02*
X027741Y015820D01*
X027825Y015503D02*
X023408Y015503D01*
X023351Y015561D02*
X023185Y015561D01*
X023185Y015161D01*
X023185Y015161D01*
X023585Y015161D01*
X023585Y015326D01*
X023351Y015561D01*
X023384Y015681D02*
X022986Y015681D01*
X022866Y015801D01*
X022256Y015801D01*
X022113Y015801D01*
X021981Y015856D01*
X021656Y016181D01*
X021486Y016181D01*
X021205Y016462D01*
X021205Y016860D01*
X021486Y017141D01*
X021884Y017141D01*
X022165Y016860D01*
X022165Y016690D01*
X022334Y016521D01*
X022866Y016521D01*
X022986Y016641D01*
X023384Y016641D01*
X023504Y016521D01*
X024036Y016521D01*
X024205Y016690D01*
X024205Y016860D01*
X024486Y017141D01*
X024884Y017141D01*
X025165Y016860D01*
X025165Y016462D01*
X024884Y016181D01*
X024714Y016181D01*
X024389Y015856D01*
X024256Y015801D01*
X024113Y015801D01*
X023504Y015801D01*
X023384Y015681D01*
X023185Y015561D02*
X023019Y015561D01*
X022785Y015326D01*
X022785Y015161D01*
X023184Y015161D01*
X023184Y015161D01*
X022785Y015161D01*
X022785Y014995D01*
X023019Y014761D01*
X023185Y014761D01*
X023351Y014761D01*
X023585Y014995D01*
X023585Y015161D01*
X023185Y015161D01*
X023185Y015161D01*
X023185Y015561D01*
X023185Y015503D02*
X023185Y015503D01*
X023185Y015344D02*
X023185Y015344D01*
X023185Y015186D02*
X023185Y015186D01*
X023185Y015160D02*
X023185Y014761D01*
X023185Y015160D01*
X023185Y015160D01*
X023185Y015027D02*
X023185Y015027D01*
X023185Y014869D02*
X023185Y014869D01*
X023458Y014869D02*
X027384Y014869D01*
X027542Y015027D02*
X023585Y015027D01*
X023585Y015186D02*
X027701Y015186D01*
X027825Y015344D02*
X023567Y015344D01*
X022961Y015503D02*
X021852Y015503D01*
X021999Y015344D02*
X022803Y015344D01*
X022785Y015186D02*
X022045Y015186D01*
X022045Y015027D02*
X022785Y015027D01*
X022911Y014869D02*
X022045Y014869D01*
X022045Y014710D02*
X027225Y014710D01*
X027067Y014552D02*
X023360Y014552D01*
X023351Y014561D02*
X023185Y014561D01*
X023185Y014161D01*
X023185Y014161D01*
X023585Y014161D01*
X023585Y014326D01*
X023351Y014561D01*
X023185Y014552D02*
X023185Y014552D01*
X023185Y014561D02*
X023019Y014561D01*
X022785Y014326D01*
X022785Y014161D01*
X023184Y014161D01*
X023184Y014161D01*
X022785Y014161D01*
X022785Y013995D01*
X023019Y013761D01*
X023185Y013761D01*
X023351Y013761D01*
X023585Y013995D01*
X023585Y014161D01*
X023185Y014161D01*
X023185Y014161D01*
X023185Y014561D01*
X023185Y014393D02*
X023185Y014393D01*
X023185Y014234D02*
X023185Y014234D01*
X023185Y014160D02*
X023185Y013761D01*
X023185Y014160D01*
X023185Y014160D01*
X023185Y014076D02*
X023185Y014076D01*
X023185Y013917D02*
X023185Y013917D01*
X023507Y013917D02*
X026825Y013917D01*
X026825Y013759D02*
X022045Y013759D01*
X022045Y013917D02*
X022863Y013917D01*
X022785Y014076D02*
X022045Y014076D01*
X022045Y014234D02*
X022785Y014234D01*
X022851Y014393D02*
X022045Y014393D01*
X022045Y014552D02*
X023010Y014552D01*
X023518Y014393D02*
X026908Y014393D01*
X026826Y014234D02*
X023585Y014234D01*
X023585Y014076D02*
X026825Y014076D01*
X027545Y013917D02*
X030432Y013917D01*
X030274Y013759D02*
X027545Y013759D01*
X027545Y013600D02*
X027840Y013600D01*
X028530Y013600D02*
X028953Y013600D01*
X028794Y013442D02*
X028689Y013442D01*
X029185Y013442D02*
X029185Y013442D01*
X029185Y013600D02*
X029185Y013600D01*
X029417Y013600D02*
X030115Y013600D01*
X029957Y013442D02*
X029576Y013442D01*
X029660Y013283D02*
X029798Y013283D01*
X029185Y013283D02*
X029185Y013283D01*
X029185Y013125D02*
X029185Y013125D01*
X029185Y012966D02*
X029185Y012966D01*
X029185Y012808D02*
X029185Y012808D01*
X029164Y012649D02*
X028458Y012649D01*
X028616Y012808D02*
X028866Y012808D01*
X029006Y012490D02*
X028024Y012490D01*
X027865Y012332D02*
X028847Y012332D01*
X028688Y012173D02*
X027707Y012173D01*
X027548Y012015D02*
X028530Y012015D01*
X028371Y011856D02*
X027389Y011856D01*
X026985Y011539D02*
X027885Y011539D01*
X028213Y011698D02*
X023857Y011698D01*
X023698Y011856D02*
X024980Y011856D01*
X024822Y012015D02*
X023540Y012015D01*
X023381Y012173D02*
X024663Y012173D01*
X024335Y012332D02*
X022035Y012332D01*
X022165Y012490D02*
X024205Y012490D01*
X024188Y012649D02*
X022165Y012649D01*
X022165Y012808D02*
X022859Y012808D01*
X022705Y012966D02*
X022058Y012966D01*
X022045Y013125D02*
X022705Y013125D01*
X022705Y013283D02*
X022045Y013283D01*
X022045Y013442D02*
X022787Y013442D01*
X022946Y013600D02*
X022045Y013600D01*
X021325Y013600D02*
X020665Y013600D01*
X020665Y013759D02*
X021325Y013759D01*
X021325Y013917D02*
X020607Y013917D01*
X020545Y014076D02*
X021325Y014076D01*
X021325Y014234D02*
X020545Y014234D01*
X020545Y014393D02*
X021325Y014393D01*
X021325Y014552D02*
X020545Y014552D01*
X020545Y014710D02*
X021325Y014710D01*
X021693Y015661D02*
X025899Y015661D01*
X025741Y015820D02*
X024303Y015820D01*
X024512Y015978D02*
X025630Y015978D01*
X025630Y016137D02*
X024670Y016137D01*
X024998Y016296D02*
X025630Y016296D01*
X025693Y016454D02*
X025157Y016454D01*
X025165Y016613D02*
X025852Y016613D01*
X025165Y016771D02*
X026825Y016771D01*
X026825Y016613D02*
X026518Y016613D01*
X026676Y016454D02*
X026693Y016454D01*
X026825Y016930D02*
X025095Y016930D01*
X024936Y017088D02*
X026825Y017088D01*
X026825Y017247D02*
X024058Y017247D01*
X024095Y017284D02*
X024095Y017611D01*
X023235Y017611D01*
X023235Y016751D01*
X023562Y016751D01*
X024095Y017284D01*
X024095Y017405D02*
X025875Y017405D01*
X025785Y017564D02*
X024095Y017564D01*
X024095Y017722D02*
X025785Y017722D01*
X025839Y017881D02*
X024095Y017881D01*
X023235Y017881D02*
X023135Y017881D01*
X023135Y018039D02*
X023235Y018039D01*
X023235Y018198D02*
X023135Y018198D01*
X023135Y018357D02*
X023235Y018357D01*
X023235Y018515D02*
X023135Y018515D01*
X022752Y018515D02*
X020731Y018515D01*
X020889Y018357D02*
X022594Y018357D01*
X022435Y018198D02*
X021048Y018198D01*
X021175Y018039D02*
X022277Y018039D01*
X022275Y017881D02*
X021175Y017881D01*
X021175Y017722D02*
X022275Y017722D01*
X022275Y017564D02*
X021175Y017564D01*
X021175Y017405D02*
X022275Y017405D01*
X022312Y017247D02*
X021171Y017247D01*
X021012Y017088D02*
X021434Y017088D01*
X021275Y016930D02*
X020854Y016930D01*
X020695Y016771D02*
X021205Y016771D01*
X021205Y016613D02*
X020742Y016613D01*
X020901Y016454D02*
X021213Y016454D01*
X021059Y016296D02*
X021371Y016296D01*
X021218Y016137D02*
X021700Y016137D01*
X021858Y015978D02*
X021376Y015978D01*
X021535Y015820D02*
X022067Y015820D01*
X022242Y016613D02*
X022958Y016613D01*
X022788Y016771D02*
X022165Y016771D01*
X022095Y016930D02*
X022629Y016930D01*
X022471Y017088D02*
X021936Y017088D01*
X023135Y017088D02*
X023235Y017088D01*
X023235Y016930D02*
X023135Y016930D01*
X023135Y016771D02*
X023235Y016771D01*
X023412Y016613D02*
X024128Y016613D01*
X024205Y016771D02*
X023582Y016771D01*
X023741Y016930D02*
X024275Y016930D01*
X024434Y017088D02*
X023899Y017088D01*
X023235Y017247D02*
X023135Y017247D01*
X023135Y017405D02*
X023235Y017405D01*
X023235Y017564D02*
X023135Y017564D01*
X023135Y017722D02*
X023235Y017722D01*
X019639Y018515D02*
X017731Y018515D01*
X017889Y018357D02*
X019481Y018357D01*
X019322Y018198D02*
X018048Y018198D01*
X018175Y018039D02*
X019195Y018039D01*
X019195Y017881D02*
X018175Y017881D01*
X018175Y017722D02*
X019195Y017722D01*
X019195Y017564D02*
X018175Y017564D01*
X018175Y017405D02*
X019195Y017405D01*
X019199Y017247D02*
X018171Y017247D01*
X018012Y017088D02*
X019357Y017088D01*
X019516Y016930D02*
X017854Y016930D01*
X017695Y016771D02*
X019674Y016771D01*
X023424Y013600D02*
X025840Y013600D01*
X025681Y013442D02*
X024413Y013442D01*
X024572Y013283D02*
X025630Y013283D01*
X025630Y013125D02*
X024900Y013125D01*
X025058Y012966D02*
X025630Y012966D01*
X025753Y012808D02*
X025165Y012808D01*
X025206Y012649D02*
X025912Y012649D01*
X026458Y012649D02*
X026912Y012649D01*
X026753Y012808D02*
X026616Y012808D01*
X026530Y013600D02*
X026825Y013600D01*
X027609Y014076D02*
X030591Y014076D01*
X030749Y014234D02*
X027768Y014234D01*
X027926Y014393D02*
X030908Y014393D01*
X031067Y014552D02*
X028085Y014552D01*
X028243Y014710D02*
X031225Y014710D01*
X031384Y014869D02*
X028402Y014869D01*
X028519Y015027D02*
X031542Y015027D01*
X031701Y015186D02*
X028545Y015186D01*
X028545Y015344D02*
X031859Y015344D01*
X031876Y013917D02*
X031451Y013917D01*
X031292Y013759D02*
X031785Y013759D01*
X031785Y013600D02*
X031133Y013600D01*
X030975Y013442D02*
X031838Y013442D01*
X031997Y013283D02*
X030816Y013283D01*
X030900Y013125D02*
X031970Y013125D01*
X032185Y013283D02*
X032185Y013283D01*
X032185Y013442D02*
X032185Y013442D01*
X032185Y013600D02*
X032185Y013600D01*
X032185Y013759D02*
X032185Y013759D01*
X032185Y013917D02*
X032185Y013917D01*
X030205Y012672D02*
X030205Y012462D01*
X030325Y012342D01*
X030325Y010810D01*
X030236Y010721D01*
X028424Y010721D01*
X028665Y010962D01*
X028665Y011132D01*
X030205Y012672D01*
X030205Y012649D02*
X030182Y012649D01*
X030205Y012490D02*
X030024Y012490D01*
X029865Y012332D02*
X030325Y012332D01*
X030325Y012173D02*
X029707Y012173D01*
X029548Y012015D02*
X030325Y012015D01*
X030325Y011856D02*
X029389Y011856D01*
X029231Y011698D02*
X030325Y011698D01*
X030325Y011539D02*
X029872Y011539D01*
X029851Y011561D02*
X029685Y011561D01*
X029685Y011161D01*
X029685Y011161D01*
X030085Y011161D01*
X030085Y011326D01*
X029851Y011561D01*
X029685Y011561D02*
X029519Y011561D01*
X029285Y011326D01*
X029285Y011161D01*
X029684Y011161D01*
X029684Y011161D01*
X029285Y011161D01*
X029285Y010995D01*
X029519Y010761D01*
X029685Y010761D01*
X029851Y010761D01*
X030085Y010995D01*
X030085Y011161D01*
X029685Y011161D01*
X029685Y011161D01*
X029685Y011561D01*
X029685Y011539D02*
X029685Y011539D01*
X029685Y011381D02*
X029685Y011381D01*
X029685Y011222D02*
X029685Y011222D01*
X029685Y011160D02*
X029685Y010761D01*
X029685Y011160D01*
X029685Y011160D01*
X029685Y011064D02*
X029685Y011064D01*
X029685Y010905D02*
X029685Y010905D01*
X029995Y010905D02*
X030325Y010905D01*
X030325Y011064D02*
X030085Y011064D01*
X030085Y011222D02*
X030325Y011222D01*
X030325Y011381D02*
X030031Y011381D01*
X029498Y011539D02*
X029072Y011539D01*
X028914Y011381D02*
X029339Y011381D01*
X029285Y011222D02*
X028755Y011222D01*
X028665Y011064D02*
X029285Y011064D01*
X029375Y010905D02*
X028608Y010905D01*
X028449Y010746D02*
X030261Y010746D01*
X030804Y010271D02*
X031825Y010271D01*
X031825Y010429D02*
X030963Y010429D01*
X031044Y010588D02*
X031825Y010588D01*
X031825Y010746D02*
X031045Y010746D01*
X031045Y010905D02*
X031825Y010905D01*
X031825Y011064D02*
X031045Y011064D01*
X031045Y011222D02*
X031825Y011222D01*
X031896Y011381D02*
X031045Y011381D01*
X031045Y011539D02*
X032054Y011539D01*
X032213Y011698D02*
X031045Y011698D01*
X031045Y011856D02*
X032371Y011856D01*
X032530Y012015D02*
X031045Y012015D01*
X031045Y012173D02*
X032688Y012173D01*
X032535Y012332D02*
X032847Y012332D01*
X031825Y010112D02*
X030646Y010112D01*
X029059Y009954D02*
X024401Y009954D01*
X024424Y010112D02*
X022089Y010112D01*
X022214Y010271D02*
X024266Y010271D01*
X024107Y010429D02*
X022349Y010429D01*
X022405Y010588D02*
X023949Y010588D01*
X023790Y010746D02*
X022405Y010746D01*
X022343Y010905D02*
X023631Y010905D01*
X023473Y011064D02*
X022201Y011064D01*
X021633Y011222D02*
X023314Y011222D01*
X023156Y011381D02*
X021474Y011381D01*
X020485Y011539D02*
X022997Y011539D01*
X024016Y011539D02*
X024998Y011539D01*
X025019Y011561D02*
X024785Y011326D01*
X024785Y011161D01*
X025184Y011161D01*
X025184Y011161D01*
X024785Y011161D01*
X024785Y010995D01*
X025019Y010761D01*
X025185Y010761D01*
X025351Y010761D01*
X025585Y010995D01*
X025585Y011161D01*
X025585Y011326D01*
X025351Y011561D01*
X025185Y011561D01*
X025185Y011161D01*
X025185Y011161D01*
X025585Y011161D01*
X025185Y011161D01*
X025185Y011161D01*
X025185Y011561D01*
X025019Y011561D01*
X025185Y011539D02*
X025185Y011539D01*
X025185Y011381D02*
X025185Y011381D01*
X025185Y011222D02*
X025185Y011222D01*
X025185Y011160D02*
X025185Y010761D01*
X025185Y011160D01*
X025185Y011160D01*
X025185Y011064D02*
X025185Y011064D01*
X025185Y010905D02*
X025185Y010905D01*
X025495Y010905D02*
X026262Y010905D01*
X026205Y011064D02*
X025585Y011064D01*
X025585Y011222D02*
X026205Y011222D01*
X026226Y011381D02*
X025531Y011381D01*
X025372Y011539D02*
X026385Y011539D01*
X026420Y010746D02*
X024808Y010746D01*
X024875Y010905D02*
X024650Y010905D01*
X024785Y011064D02*
X024491Y011064D01*
X024333Y011222D02*
X024785Y011222D01*
X024839Y011381D02*
X024174Y011381D01*
X021281Y010112D02*
X016589Y010112D01*
X016495Y010905D02*
X019762Y010905D01*
X019705Y011064D02*
X016585Y011064D01*
X016585Y011222D02*
X019705Y011222D01*
X019726Y011381D02*
X016531Y011381D01*
X016372Y011539D02*
X019885Y011539D01*
X019920Y010746D02*
X012949Y010746D01*
X013027Y010588D02*
X020965Y010588D01*
X020965Y010746D02*
X020449Y010746D01*
X021021Y010429D02*
X013093Y010429D01*
X013097Y010271D02*
X021156Y010271D01*
X020614Y010015D02*
X020542Y010045D01*
X020464Y010061D01*
X020185Y010061D01*
X020185Y009661D01*
X020185Y009661D01*
X020825Y009661D01*
X020825Y009700D01*
X020809Y009777D01*
X020779Y009850D01*
X020736Y009916D01*
X020680Y009971D01*
X020614Y010015D01*
X020698Y009954D02*
X021059Y009954D01*
X020981Y009795D02*
X020802Y009795D01*
X020825Y009661D02*
X020185Y009661D01*
X020185Y009661D01*
X020185Y010061D01*
X019905Y010061D01*
X019828Y010045D01*
X019755Y010015D01*
X019690Y009971D01*
X019634Y009916D01*
X019590Y009850D01*
X019560Y009777D01*
X019545Y009700D01*
X019545Y009661D01*
X020184Y009661D01*
X020184Y009661D01*
X019545Y009661D01*
X019545Y009621D01*
X019560Y009544D01*
X019590Y009471D01*
X019634Y009406D01*
X019690Y009350D01*
X019755Y009306D01*
X019828Y009276D01*
X019905Y009261D01*
X020185Y009261D01*
X020464Y009261D01*
X020542Y009276D01*
X020614Y009306D01*
X020680Y009350D01*
X020736Y009406D01*
X020779Y009471D01*
X020809Y009544D01*
X020825Y009621D01*
X020825Y009661D01*
X020825Y009637D02*
X020965Y009637D01*
X021001Y009478D02*
X020782Y009478D01*
X020634Y009320D02*
X021107Y009320D01*
X021108Y009003D02*
X019852Y009003D01*
X019694Y009161D02*
X024175Y009161D01*
X024334Y009003D02*
X022262Y009003D01*
X022369Y008844D02*
X024493Y008844D01*
X024651Y008685D02*
X022405Y008685D01*
X022389Y008527D02*
X024810Y008527D01*
X024825Y008368D02*
X022311Y008368D01*
X022090Y008210D02*
X024825Y008210D01*
X024825Y008051D02*
X021584Y008051D01*
X021426Y007893D02*
X024825Y007893D01*
X024825Y007734D02*
X020437Y007734D01*
X019933Y007734D02*
X016545Y007734D01*
X016545Y007576D02*
X024825Y007576D01*
X024762Y007417D02*
X016545Y007417D01*
X016545Y007259D02*
X024705Y007259D01*
X024705Y007100D02*
X020619Y007100D01*
X020697Y007068D02*
X020520Y007141D01*
X019849Y007141D01*
X019673Y007068D01*
X019538Y006933D01*
X019465Y006756D01*
X019465Y006565D01*
X019538Y006389D01*
X019673Y006254D01*
X019849Y006181D01*
X020520Y006181D01*
X020697Y006254D01*
X020744Y006301D01*
X020975Y006301D01*
X020899Y006225D01*
X020772Y005919D01*
X020772Y004403D01*
X020899Y004097D01*
X021133Y003862D01*
X021439Y003736D01*
X021770Y003736D01*
X022076Y003862D01*
X022311Y004097D01*
X022395Y004300D01*
X022479Y004097D01*
X022713Y003862D01*
X023019Y003736D01*
X023350Y003736D01*
X023656Y003862D01*
X023891Y004097D01*
X023975Y004300D01*
X024059Y004097D01*
X024293Y003862D01*
X024599Y003736D01*
X024930Y003736D01*
X025236Y003862D01*
X025471Y004097D01*
X025597Y004403D01*
X025597Y005919D01*
X025471Y006225D01*
X025236Y006459D01*
X024930Y006586D01*
X024599Y006586D01*
X024293Y006459D01*
X024059Y006225D01*
X023975Y006021D01*
X023891Y006225D01*
X023656Y006459D01*
X023350Y006586D01*
X023269Y006586D01*
X022889Y006966D01*
X022756Y007021D01*
X022613Y007021D01*
X020744Y007021D01*
X020697Y007068D01*
X019751Y007100D02*
X016619Y007100D01*
X016823Y006941D02*
X019547Y006941D01*
X019476Y006783D02*
X016894Y006783D01*
X016905Y006624D02*
X019465Y006624D01*
X019506Y006466D02*
X016864Y006466D01*
X016750Y006307D02*
X019620Y006307D01*
X020802Y005990D02*
X016545Y005990D01*
X016545Y005832D02*
X020772Y005832D01*
X020772Y005673D02*
X016545Y005673D01*
X016545Y005515D02*
X020772Y005515D01*
X020772Y005356D02*
X016545Y005356D01*
X016545Y005197D02*
X020772Y005197D01*
X020772Y005039D02*
X017372Y005039D01*
X017351Y005061D02*
X017185Y005061D01*
X017185Y004661D01*
X017185Y004661D01*
X017585Y004661D01*
X017585Y004826D01*
X017351Y005061D01*
X017185Y005061D02*
X017019Y005061D01*
X016785Y004826D01*
X016785Y004661D01*
X017184Y004661D01*
X017184Y004661D01*
X016785Y004661D01*
X016785Y004495D01*
X017019Y004261D01*
X017185Y004261D01*
X017351Y004261D01*
X017585Y004495D01*
X017585Y004661D01*
X017185Y004661D01*
X017185Y004661D01*
X017185Y005061D01*
X017185Y005039D02*
X017185Y005039D01*
X017185Y004880D02*
X017185Y004880D01*
X017185Y004722D02*
X017185Y004722D01*
X017185Y004660D02*
X017185Y004261D01*
X017185Y004660D01*
X017185Y004660D01*
X017185Y004563D02*
X017185Y004563D01*
X017185Y004405D02*
X017185Y004405D01*
X017494Y004405D02*
X020772Y004405D01*
X020772Y004563D02*
X017585Y004563D01*
X017585Y004722D02*
X020772Y004722D01*
X020772Y004880D02*
X017531Y004880D01*
X016997Y005039D02*
X016545Y005039D01*
X016644Y004880D02*
X016839Y004880D01*
X016785Y004722D02*
X016665Y004722D01*
X016665Y004563D02*
X016785Y004563D01*
X016875Y004405D02*
X016608Y004405D01*
X016449Y004246D02*
X020837Y004246D01*
X020908Y004088D02*
X012962Y004088D01*
X012803Y003929D02*
X021067Y003929D01*
X021355Y003771D02*
X012515Y003771D01*
X012015Y003771D02*
X010935Y003771D01*
X011223Y003929D02*
X011727Y003929D01*
X011568Y004088D02*
X011382Y004088D01*
X011453Y004246D02*
X011497Y004246D01*
X010435Y003771D02*
X009355Y003771D01*
X009643Y003929D02*
X010147Y003929D01*
X009988Y004088D02*
X009802Y004088D01*
X009873Y004246D02*
X009917Y004246D01*
X008855Y003771D02*
X004191Y003771D01*
X004210Y003661D02*
X004149Y004011D01*
X004149Y004012D01*
X003970Y004320D01*
X003698Y004549D01*
X003698Y004549D01*
X003363Y004671D01*
X003241Y004671D01*
X003185Y004671D01*
X003184Y004671D01*
X003129Y004671D01*
X003129Y004671D01*
X003007Y004671D01*
X003007Y004671D01*
X002672Y004549D01*
X002399Y004320D01*
X002221Y004012D01*
X002221Y004011D02*
X002159Y003661D01*
X002159Y003661D01*
X002221Y003310D01*
X002399Y003002D01*
X002399Y003002D01*
X002672Y002773D01*
X003007Y002651D01*
X003129Y002651D01*
X003129Y002651D01*
X003157Y002651D01*
X003185Y002651D01*
X003241Y002651D01*
X003363Y002651D01*
X003698Y002773D01*
X003970Y003002D01*
X004149Y003310D01*
X004210Y003661D01*
X004210Y003661D01*
X004202Y003612D02*
X041168Y003612D01*
X041159Y003661D02*
X041221Y003310D01*
X041399Y003002D01*
X041399Y003002D01*
X041672Y002773D01*
X042007Y002651D01*
X042129Y002651D01*
X042129Y002651D01*
X042185Y002651D01*
X042202Y002651D01*
X042241Y002651D01*
X042363Y002651D01*
X042698Y002773D01*
X042970Y003002D01*
X043149Y003310D01*
X043210Y003661D01*
X043149Y004011D01*
X043149Y004012D01*
X042970Y004320D01*
X042698Y004549D01*
X042698Y004549D01*
X042363Y004671D01*
X042241Y004671D01*
X042185Y004671D01*
X042129Y004671D01*
X042007Y004671D01*
X042007Y004671D01*
X041672Y004549D01*
X041672Y004549D01*
X041399Y004320D01*
X041221Y004012D01*
X041159Y003661D01*
X041159Y003661D01*
X041179Y003771D02*
X038515Y003771D01*
X038430Y003736D02*
X038736Y003862D01*
X038971Y004097D01*
X039097Y004403D01*
X039097Y005919D01*
X038971Y006225D01*
X038736Y006459D01*
X038430Y006586D01*
X038099Y006586D01*
X037793Y006459D01*
X037559Y006225D01*
X037475Y006021D01*
X037391Y006225D01*
X037156Y006459D01*
X036850Y006586D01*
X036769Y006586D01*
X036389Y006966D01*
X036256Y007021D01*
X036113Y007021D01*
X034244Y007021D01*
X034197Y007068D01*
X034020Y007141D01*
X033349Y007141D01*
X033173Y007068D01*
X033038Y006933D01*
X032965Y006756D01*
X032965Y006565D01*
X033038Y006389D01*
X033173Y006254D01*
X033349Y006181D01*
X034020Y006181D01*
X034197Y006254D01*
X034244Y006301D01*
X034475Y006301D01*
X034399Y006225D01*
X034272Y005919D01*
X034272Y004403D01*
X034399Y004097D01*
X034633Y003862D01*
X034939Y003736D01*
X035270Y003736D01*
X035576Y003862D01*
X035811Y004097D01*
X035895Y004300D01*
X035979Y004097D01*
X036213Y003862D01*
X036519Y003736D01*
X036850Y003736D01*
X037156Y003862D01*
X037391Y004097D01*
X037475Y004300D01*
X037559Y004097D01*
X037793Y003862D01*
X038099Y003736D01*
X038430Y003736D01*
X038015Y003771D02*
X036935Y003771D01*
X037223Y003929D02*
X037727Y003929D01*
X037568Y004088D02*
X037382Y004088D01*
X037453Y004246D02*
X037497Y004246D01*
X036435Y003771D02*
X035355Y003771D01*
X035643Y003929D02*
X036147Y003929D01*
X035988Y004088D02*
X035802Y004088D01*
X035873Y004246D02*
X035917Y004246D01*
X034855Y003771D02*
X025015Y003771D01*
X025303Y003929D02*
X034567Y003929D01*
X034408Y004088D02*
X025462Y004088D01*
X025533Y004246D02*
X029421Y004246D01*
X029262Y004405D02*
X027494Y004405D01*
X027585Y004495D02*
X027351Y004261D01*
X027185Y004261D01*
X027185Y004660D01*
X027185Y004660D01*
X027185Y004261D01*
X027019Y004261D01*
X026785Y004495D01*
X026785Y004661D01*
X027184Y004661D01*
X027184Y004661D01*
X026785Y004661D01*
X026785Y004826D01*
X027019Y005061D01*
X027185Y005061D01*
X027185Y004661D01*
X027185Y004661D01*
X027585Y004661D01*
X027585Y004826D01*
X027351Y005061D01*
X027185Y005061D01*
X027185Y004661D01*
X027185Y004661D01*
X027585Y004661D01*
X027585Y004495D01*
X027585Y004563D02*
X029205Y004563D01*
X029205Y004722D02*
X027585Y004722D01*
X027531Y004880D02*
X029226Y004880D01*
X029325Y005039D02*
X027372Y005039D01*
X027384Y005181D02*
X026986Y005181D01*
X026705Y005462D01*
X026705Y005860D01*
X026986Y006141D01*
X027156Y006141D01*
X027825Y006810D01*
X027825Y006842D01*
X027705Y006962D01*
X027705Y007360D01*
X027986Y007641D01*
X028384Y007641D01*
X028665Y007360D01*
X028665Y006962D01*
X028545Y006842D01*
X028545Y006732D01*
X028545Y006589D01*
X028490Y006457D01*
X027665Y005632D01*
X027665Y005462D01*
X027384Y005181D01*
X027400Y005197D02*
X029325Y005197D01*
X029325Y005356D02*
X027559Y005356D01*
X027665Y005515D02*
X029325Y005515D01*
X029325Y005673D02*
X027706Y005673D01*
X027865Y005832D02*
X029325Y005832D01*
X029325Y005990D02*
X028023Y005990D01*
X028182Y006149D02*
X029325Y006149D01*
X029120Y006307D02*
X028340Y006307D01*
X028494Y006466D02*
X029006Y006466D01*
X028965Y006624D02*
X028545Y006624D01*
X028545Y006783D02*
X028976Y006783D01*
X029047Y006941D02*
X028644Y006941D01*
X028665Y007100D02*
X029251Y007100D01*
X029325Y007259D02*
X028665Y007259D01*
X028607Y007417D02*
X029325Y007417D01*
X029325Y007576D02*
X028449Y007576D01*
X027921Y007576D02*
X026949Y007576D01*
X027107Y007417D02*
X027762Y007417D01*
X027705Y007259D02*
X027165Y007259D01*
X027165Y007100D02*
X027705Y007100D01*
X027725Y006941D02*
X027144Y006941D01*
X026986Y006783D02*
X027798Y006783D01*
X027639Y006624D02*
X023230Y006624D01*
X023072Y006783D02*
X024884Y006783D01*
X024725Y006941D02*
X022913Y006941D01*
X023640Y006466D02*
X024310Y006466D01*
X024141Y006307D02*
X023808Y006307D01*
X023922Y006149D02*
X024028Y006149D01*
X025220Y006466D02*
X027481Y006466D01*
X027322Y006307D02*
X025388Y006307D01*
X025502Y006149D02*
X027164Y006149D01*
X026836Y005990D02*
X025568Y005990D01*
X025597Y005832D02*
X026705Y005832D01*
X026705Y005673D02*
X025597Y005673D01*
X025597Y005515D02*
X026705Y005515D01*
X026811Y005356D02*
X025597Y005356D01*
X025597Y005197D02*
X026969Y005197D01*
X026997Y005039D02*
X025597Y005039D01*
X025597Y004880D02*
X026839Y004880D01*
X026785Y004722D02*
X025597Y004722D01*
X025597Y004563D02*
X026785Y004563D01*
X026875Y004405D02*
X025597Y004405D01*
X024515Y003771D02*
X023435Y003771D01*
X023723Y003929D02*
X024227Y003929D01*
X024068Y004088D02*
X023882Y004088D01*
X023953Y004246D02*
X023997Y004246D01*
X022935Y003771D02*
X021855Y003771D01*
X022143Y003929D02*
X022647Y003929D01*
X022488Y004088D02*
X022302Y004088D01*
X022373Y004246D02*
X022417Y004246D01*
X020868Y006149D02*
X016545Y006149D01*
X014685Y005039D02*
X014685Y005039D01*
X014685Y004880D02*
X014685Y004880D01*
X014685Y004722D02*
X014685Y004722D01*
X014685Y004660D02*
X014685Y004261D01*
X014685Y004660D01*
X014685Y004660D01*
X014685Y004563D02*
X014685Y004563D01*
X014685Y004405D02*
X014685Y004405D01*
X008567Y003929D02*
X004163Y003929D01*
X004105Y004088D02*
X008408Y004088D01*
X008337Y004246D02*
X004013Y004246D01*
X003970Y004320D02*
X003970Y004320D01*
X003869Y004405D02*
X008272Y004405D01*
X008272Y004563D02*
X003658Y004563D01*
X003363Y004671D02*
X003363Y004671D01*
X003241Y004671D02*
X003241Y004671D01*
X002712Y004563D02*
X001965Y004563D01*
X001965Y004405D02*
X002500Y004405D01*
X002399Y004320D02*
X002399Y004320D01*
X002399Y004320D01*
X002357Y004246D02*
X001965Y004246D01*
X001965Y004088D02*
X002265Y004088D01*
X002221Y004012D02*
X002221Y004011D01*
X002207Y003929D02*
X001965Y003929D01*
X001965Y003771D02*
X002179Y003771D01*
X002168Y003612D02*
X001965Y003612D01*
X001965Y003454D02*
X002196Y003454D01*
X002221Y003310D02*
X002221Y003310D01*
X002230Y003295D02*
X001965Y003295D01*
X001965Y003136D02*
X002321Y003136D01*
X002427Y002978D02*
X001965Y002978D01*
X001965Y002819D02*
X002616Y002819D01*
X002672Y002773D02*
X002672Y002773D01*
X002979Y002661D02*
X001965Y002661D01*
X001965Y002502D02*
X043405Y002502D01*
X043405Y002344D02*
X001965Y002344D01*
X001965Y002185D02*
X043405Y002185D01*
X043405Y002027D02*
X001965Y002027D01*
X001965Y001868D02*
X043405Y001868D01*
X043405Y001710D02*
X001965Y001710D01*
X001965Y001551D02*
X043405Y001551D01*
X043405Y001392D02*
X001965Y001392D01*
X001965Y001234D02*
X043405Y001234D01*
X043405Y001075D02*
X001965Y001075D01*
X001965Y000941D02*
X001965Y018881D01*
X043405Y018881D01*
X043405Y000941D01*
X001965Y000941D01*
X003007Y002651D02*
X003007Y002651D01*
X003241Y002651D02*
X003241Y002651D01*
X003363Y002651D02*
X003363Y002651D01*
X003390Y002661D02*
X041979Y002661D01*
X042007Y002651D02*
X042007Y002651D01*
X042241Y002651D02*
X042241Y002651D01*
X042363Y002651D02*
X042363Y002651D01*
X042390Y002661D02*
X043405Y002661D01*
X043405Y002819D02*
X042753Y002819D01*
X042698Y002773D02*
X042698Y002773D01*
X042942Y002978D02*
X043405Y002978D01*
X043405Y003136D02*
X043048Y003136D01*
X042970Y003002D02*
X042970Y003002D01*
X042970Y003002D01*
X043140Y003295D02*
X043405Y003295D01*
X043405Y003454D02*
X043174Y003454D01*
X043149Y003310D02*
X043149Y003310D01*
X043202Y003612D02*
X043405Y003612D01*
X043405Y003771D02*
X043191Y003771D01*
X043210Y003661D02*
X043210Y003661D01*
X043163Y003929D02*
X043405Y003929D01*
X043405Y004088D02*
X043105Y004088D01*
X043013Y004246D02*
X043405Y004246D01*
X043405Y004405D02*
X042869Y004405D01*
X042970Y004320D02*
X042970Y004320D01*
X042658Y004563D02*
X043405Y004563D01*
X043405Y004722D02*
X041085Y004722D01*
X041085Y004661D02*
X041085Y004826D01*
X040851Y005061D01*
X040685Y005061D01*
X040685Y004661D01*
X040685Y004661D01*
X041085Y004661D01*
X040685Y004661D01*
X040685Y004661D01*
X040685Y005061D01*
X040519Y005061D01*
X040285Y004826D01*
X040285Y004661D01*
X040684Y004661D01*
X040684Y004661D01*
X040285Y004661D01*
X040285Y004495D01*
X040519Y004261D01*
X040685Y004261D01*
X040851Y004261D01*
X041085Y004495D01*
X041085Y004661D01*
X041085Y004563D02*
X041712Y004563D01*
X041500Y004405D02*
X040994Y004405D01*
X040685Y004405D02*
X040685Y004405D01*
X040685Y004261D02*
X040685Y004660D01*
X040685Y004660D01*
X040685Y004261D01*
X040375Y004405D02*
X039097Y004405D01*
X039097Y004563D02*
X040285Y004563D01*
X040285Y004722D02*
X039097Y004722D01*
X039097Y004880D02*
X040339Y004880D01*
X040497Y005039D02*
X039097Y005039D01*
X039097Y005197D02*
X040469Y005197D01*
X040486Y005181D02*
X040884Y005181D01*
X041165Y005462D01*
X041165Y005632D01*
X041990Y006457D01*
X042045Y006589D01*
X042045Y006732D01*
X042045Y006842D01*
X042165Y006962D01*
X042165Y007360D01*
X041884Y007641D01*
X041486Y007641D01*
X041205Y007360D01*
X041205Y006962D01*
X041325Y006842D01*
X041325Y006810D01*
X040656Y006141D01*
X040486Y006141D01*
X040205Y005860D01*
X040205Y005462D01*
X040486Y005181D01*
X040685Y005039D02*
X040685Y005039D01*
X040685Y004880D02*
X040685Y004880D01*
X040685Y004722D02*
X040685Y004722D01*
X040685Y004563D02*
X040685Y004563D01*
X041031Y004880D02*
X043405Y004880D01*
X043405Y005039D02*
X040872Y005039D01*
X040900Y005197D02*
X043405Y005197D01*
X043405Y005356D02*
X041059Y005356D01*
X041165Y005515D02*
X043405Y005515D01*
X043405Y005673D02*
X041206Y005673D01*
X041365Y005832D02*
X043405Y005832D01*
X043405Y005990D02*
X041523Y005990D01*
X041682Y006149D02*
X043405Y006149D01*
X043405Y006307D02*
X041840Y006307D01*
X041994Y006466D02*
X043405Y006466D01*
X043405Y006624D02*
X042045Y006624D01*
X042045Y006783D02*
X043405Y006783D01*
X043405Y006941D02*
X042144Y006941D01*
X042165Y007100D02*
X043405Y007100D01*
X043405Y007259D02*
X042165Y007259D01*
X042107Y007417D02*
X043405Y007417D01*
X043405Y007576D02*
X041949Y007576D01*
X041421Y007576D02*
X040449Y007576D01*
X040607Y007417D02*
X041262Y007417D01*
X041205Y007259D02*
X040665Y007259D01*
X040665Y007100D02*
X041205Y007100D01*
X041225Y006941D02*
X040644Y006941D01*
X040486Y006783D02*
X041298Y006783D01*
X041139Y006624D02*
X036730Y006624D01*
X036572Y006783D02*
X038384Y006783D01*
X038225Y006941D02*
X036413Y006941D01*
X037140Y006466D02*
X037810Y006466D01*
X037641Y006307D02*
X037308Y006307D01*
X037422Y006149D02*
X037528Y006149D01*
X038720Y006466D02*
X040981Y006466D01*
X040822Y006307D02*
X038888Y006307D01*
X039002Y006149D02*
X040664Y006149D01*
X040336Y005990D02*
X039068Y005990D01*
X039097Y005832D02*
X040205Y005832D01*
X040205Y005673D02*
X039097Y005673D01*
X039097Y005515D02*
X040205Y005515D01*
X040311Y005356D02*
X039097Y005356D01*
X041399Y004320D02*
X041399Y004320D01*
X041357Y004246D02*
X039033Y004246D01*
X038962Y004088D02*
X041265Y004088D01*
X041207Y003929D02*
X038803Y003929D01*
X041196Y003454D02*
X004174Y003454D01*
X004149Y003310D02*
X004149Y003310D01*
X004140Y003295D02*
X041230Y003295D01*
X041221Y003310D02*
X041221Y003310D01*
X041321Y003136D02*
X004048Y003136D01*
X003970Y003002D02*
X003970Y003002D01*
X003970Y003002D01*
X003942Y002978D02*
X041427Y002978D01*
X041616Y002819D02*
X003753Y002819D01*
X003698Y002773D02*
X003698Y002773D01*
X002672Y004549D02*
X002672Y004549D01*
X007901Y008368D02*
X008627Y008368D01*
X008469Y008527D02*
X008060Y008527D01*
X008219Y008685D02*
X008362Y008685D01*
X007200Y008685D02*
X007169Y008685D01*
X009582Y008368D02*
X010207Y008368D01*
X010049Y008527D02*
X009741Y008527D01*
X009847Y008685D02*
X009942Y008685D01*
X011162Y008368D02*
X011787Y008368D01*
X011629Y008527D02*
X011321Y008527D01*
X011427Y008685D02*
X011522Y008685D01*
X012790Y010905D02*
X015875Y010905D01*
X016185Y010905D02*
X016185Y010905D01*
X016185Y011064D02*
X016185Y011064D01*
X018901Y009954D02*
X019672Y009954D01*
X019568Y009795D02*
X019059Y009795D01*
X019218Y009637D02*
X019545Y009637D01*
X019588Y009478D02*
X019377Y009478D01*
X019535Y009320D02*
X019735Y009320D01*
X020185Y009320D02*
X020185Y009320D01*
X020185Y009261D02*
X020185Y009660D01*
X020185Y009660D01*
X020185Y009261D01*
X020185Y009478D02*
X020185Y009478D01*
X020185Y009637D02*
X020185Y009637D01*
X020185Y009795D02*
X020185Y009795D01*
X020185Y009954D02*
X020185Y009954D01*
X020011Y008844D02*
X021001Y008844D01*
X020965Y008685D02*
X020169Y008685D01*
X020498Y008527D02*
X020981Y008527D01*
X019705Y008051D02*
X016665Y008051D01*
X016665Y008210D02*
X019627Y008210D01*
X019468Y008368D02*
X016656Y008368D01*
X016498Y008527D02*
X019310Y008527D01*
X019774Y007893D02*
X016596Y007893D01*
X024559Y009795D02*
X028981Y009795D01*
X028965Y009637D02*
X024718Y009637D01*
X024877Y009478D02*
X029001Y009478D01*
X029107Y009320D02*
X025035Y009320D01*
X025545Y008527D02*
X029372Y008527D01*
X029214Y008368D02*
X025545Y008368D01*
X025545Y008210D02*
X029205Y008210D01*
X029205Y008051D02*
X025545Y008051D01*
X025545Y007893D02*
X029274Y007893D01*
X029325Y007734D02*
X025545Y007734D01*
X025545Y007576D02*
X026421Y007576D01*
X026384Y006783D02*
X025486Y006783D01*
X027185Y005039D02*
X027185Y005039D01*
X027185Y004880D02*
X027185Y004880D01*
X027185Y004722D02*
X027185Y004722D01*
X027185Y004563D02*
X027185Y004563D01*
X027185Y004405D02*
X027185Y004405D01*
X029949Y004246D02*
X034337Y004246D01*
X034272Y004405D02*
X030994Y004405D01*
X031085Y004495D02*
X030851Y004261D01*
X030685Y004261D01*
X030685Y004660D01*
X030685Y004660D01*
X030685Y004261D01*
X030519Y004261D01*
X030285Y004495D01*
X030285Y004661D01*
X030684Y004661D01*
X030684Y004661D01*
X030285Y004661D01*
X030285Y004826D01*
X030519Y005061D01*
X030685Y005061D01*
X030851Y005061D01*
X031085Y004826D01*
X031085Y004661D01*
X030685Y004661D01*
X030685Y004661D01*
X030685Y005061D01*
X030685Y004661D01*
X030685Y004661D01*
X031085Y004661D01*
X031085Y004495D01*
X031085Y004563D02*
X034272Y004563D01*
X034272Y004722D02*
X031085Y004722D01*
X031031Y004880D02*
X034272Y004880D01*
X034272Y005039D02*
X030872Y005039D01*
X030685Y005039D02*
X030685Y005039D01*
X030685Y004880D02*
X030685Y004880D01*
X030685Y004722D02*
X030685Y004722D01*
X030685Y004563D02*
X030685Y004563D01*
X030685Y004405D02*
X030685Y004405D01*
X030375Y004405D02*
X030108Y004405D01*
X030165Y004563D02*
X030285Y004563D01*
X030285Y004722D02*
X030165Y004722D01*
X030144Y004880D02*
X030339Y004880D01*
X030497Y005039D02*
X030045Y005039D01*
X030045Y005197D02*
X034272Y005197D01*
X034272Y005356D02*
X030045Y005356D01*
X030045Y005515D02*
X034272Y005515D01*
X034272Y005673D02*
X030045Y005673D01*
X030045Y005832D02*
X034272Y005832D01*
X034302Y005990D02*
X030045Y005990D01*
X030045Y006149D02*
X034368Y006149D01*
X033120Y006307D02*
X030250Y006307D01*
X030364Y006466D02*
X033006Y006466D01*
X032965Y006624D02*
X030405Y006624D01*
X030394Y006783D02*
X032976Y006783D01*
X033047Y006941D02*
X030323Y006941D01*
X030119Y007100D02*
X033251Y007100D01*
X034119Y007100D02*
X038205Y007100D01*
X038205Y007259D02*
X030045Y007259D01*
X030045Y007417D02*
X038262Y007417D01*
X038325Y007576D02*
X030045Y007576D01*
X038401Y009954D02*
X043405Y009954D01*
X043405Y009795D02*
X038559Y009795D01*
X038718Y009637D02*
X043405Y009637D01*
X043405Y009478D02*
X038877Y009478D01*
X039009Y009320D02*
X043405Y009320D01*
X043405Y009161D02*
X039045Y009161D01*
X039045Y009003D02*
X043405Y009003D01*
X043405Y008844D02*
X039045Y008844D01*
X039045Y008685D02*
X043405Y008685D01*
X043405Y008527D02*
X039045Y008527D01*
X039045Y008368D02*
X043405Y008368D01*
X043405Y008210D02*
X039045Y008210D01*
X039045Y008051D02*
X043405Y008051D01*
X043405Y007893D02*
X039045Y007893D01*
X039045Y007734D02*
X043405Y007734D01*
X039921Y007576D02*
X039045Y007576D01*
X038986Y006783D02*
X039884Y006783D01*
X042129Y004671D02*
X042129Y004671D01*
X042185Y004671D02*
X042185Y004671D01*
X042241Y004671D02*
X042241Y004671D01*
X042363Y004671D02*
X042363Y004671D01*
X041672Y002773D02*
X041672Y002773D01*
X040545Y011698D02*
X043405Y011698D01*
X043405Y011856D02*
X040545Y011856D01*
X040545Y012015D02*
X043405Y012015D01*
X043405Y012173D02*
X040545Y012173D01*
X040545Y012332D02*
X043405Y012332D01*
X043405Y012490D02*
X040545Y012490D01*
X040545Y012649D02*
X043405Y012649D01*
X043405Y012808D02*
X040545Y012808D01*
X040545Y012966D02*
X043405Y012966D01*
X043405Y013125D02*
X040545Y013125D01*
X040545Y013283D02*
X043405Y013283D01*
X043405Y013442D02*
X040545Y013442D01*
X040545Y013600D02*
X043405Y013600D01*
X043405Y013759D02*
X040545Y013759D01*
X040545Y013917D02*
X043405Y013917D01*
X043405Y014076D02*
X040545Y014076D01*
X040545Y014234D02*
X043405Y014234D01*
X043405Y014393D02*
X040545Y014393D01*
X040545Y014552D02*
X043405Y014552D01*
X043405Y014710D02*
X040545Y014710D01*
X040545Y014869D02*
X043405Y014869D01*
X043405Y015027D02*
X040545Y015027D01*
X040545Y015186D02*
X043405Y015186D01*
X043405Y015344D02*
X040545Y015344D01*
X040545Y015503D02*
X043405Y015503D01*
X043405Y015661D02*
X040545Y015661D01*
X040545Y015820D02*
X043405Y015820D01*
X043405Y015978D02*
X040545Y015978D01*
X040545Y016137D02*
X043405Y016137D01*
X043405Y016296D02*
X040545Y016296D01*
X040545Y016454D02*
X043405Y016454D01*
X043405Y016613D02*
X040545Y016613D01*
X040695Y016771D02*
X041676Y016771D01*
X041672Y016773D02*
X041672Y016773D01*
X041485Y016930D02*
X040854Y016930D01*
X041012Y017088D02*
X041349Y017088D01*
X041258Y017247D02*
X041171Y017247D01*
X041221Y017310D02*
X041221Y017310D01*
X041204Y017405D02*
X041175Y017405D01*
X041175Y017564D02*
X041176Y017564D01*
X041175Y017881D02*
X041198Y017881D01*
X041221Y018011D02*
X041221Y018012D01*
X041237Y018039D02*
X041175Y018039D01*
X041048Y018198D02*
X041329Y018198D01*
X041399Y018320D02*
X041399Y018320D01*
X041399Y018320D01*
X041443Y018357D02*
X040889Y018357D01*
X040731Y018515D02*
X041632Y018515D01*
X041672Y018549D02*
X041672Y018549D01*
X042241Y018671D02*
X042241Y018671D01*
X042363Y018671D02*
X042363Y018671D01*
X042738Y018515D02*
X043405Y018515D01*
X043405Y018357D02*
X042927Y018357D01*
X042970Y018320D02*
X042970Y018320D01*
X043041Y018198D02*
X043405Y018198D01*
X043405Y018039D02*
X043132Y018039D01*
X043172Y017881D02*
X043405Y017881D01*
X043405Y017722D02*
X043200Y017722D01*
X043193Y017564D02*
X043405Y017564D01*
X043405Y017405D02*
X043165Y017405D01*
X043149Y017310D02*
X043149Y017310D01*
X043112Y017247D02*
X043405Y017247D01*
X043405Y017088D02*
X043020Y017088D01*
X042885Y016930D02*
X043405Y016930D01*
X043405Y016771D02*
X042693Y016771D01*
X042698Y016773D02*
X042698Y016773D01*
X042363Y016651D02*
X042363Y016651D01*
X042241Y016651D02*
X042241Y016651D01*
X042007Y016651D02*
X042007Y016651D01*
X039195Y017881D02*
X038675Y017881D01*
X038675Y018039D02*
X039195Y018039D01*
X039322Y018198D02*
X038548Y018198D01*
X038389Y018357D02*
X039481Y018357D01*
X039639Y018515D02*
X038231Y018515D01*
X037139Y018515D02*
X035731Y018515D01*
X035889Y018357D02*
X036981Y018357D01*
X036822Y018198D02*
X036048Y018198D01*
X036175Y018039D02*
X036695Y018039D01*
X036695Y017881D02*
X036175Y017881D01*
X036175Y017722D02*
X036695Y017722D01*
X036695Y017564D02*
X036175Y017564D01*
X036175Y017405D02*
X036695Y017405D01*
X036699Y017247D02*
X036171Y017247D01*
X036012Y017088D02*
X036857Y017088D01*
X037016Y016930D02*
X035854Y016930D01*
X035695Y016771D02*
X037174Y016771D01*
X043405Y018674D02*
X001965Y018674D01*
X001965Y018832D02*
X043405Y018832D01*
X026899Y015661D02*
X026470Y015661D01*
X026629Y015820D02*
X026741Y015820D01*
X021325Y013442D02*
X020645Y013442D01*
X011926Y012808D02*
X011047Y012808D01*
X011260Y012966D02*
X011690Y012966D01*
X011547Y013125D02*
X011402Y013125D01*
X011468Y013283D02*
X011482Y013283D01*
X010323Y012808D02*
X009444Y012808D01*
X009680Y012966D02*
X010110Y012966D01*
X009967Y013125D02*
X009822Y013125D01*
X009888Y013283D02*
X009902Y013283D01*
X010164Y012649D02*
X008206Y012649D01*
X008047Y012808D02*
X008766Y012808D01*
X008530Y012966D02*
X007889Y012966D01*
X007730Y013125D02*
X008387Y013125D01*
X008322Y013283D02*
X007665Y013283D01*
X007583Y013442D02*
X008272Y013442D01*
X008272Y013600D02*
X007424Y013600D01*
X007462Y013759D02*
X008272Y013759D01*
X006946Y013600D02*
X005622Y013600D01*
X005592Y013673D02*
X005665Y013496D01*
X005665Y012825D01*
X005592Y012649D01*
X005657Y012808D02*
X006859Y012808D01*
X006705Y012966D02*
X005665Y012966D01*
X005665Y013125D02*
X006705Y013125D01*
X006705Y013283D02*
X005665Y013283D01*
X005665Y013442D02*
X006787Y013442D01*
X006908Y013759D02*
X005506Y013759D01*
X005457Y013808D02*
X005280Y013881D01*
X005089Y013881D01*
X004913Y013808D01*
X004778Y013673D01*
X004705Y013496D01*
X004705Y012825D01*
X004705Y012966D02*
X004665Y012966D01*
X004665Y013125D02*
X004705Y013125D01*
X004705Y013283D02*
X004665Y013283D01*
X004665Y013442D02*
X004705Y013442D01*
X004748Y013600D02*
X004622Y013600D01*
X004545Y013759D02*
X004864Y013759D01*
X004545Y013917D02*
X006749Y013917D01*
X006705Y014076D02*
X004545Y014076D01*
X004545Y014234D02*
X006705Y014234D01*
X006738Y014393D02*
X004545Y014393D01*
X004545Y014552D02*
X006897Y014552D01*
X007473Y014552D02*
X008272Y014552D01*
X008272Y014710D02*
X004545Y014710D01*
X004545Y014869D02*
X008272Y014869D01*
X008317Y015027D02*
X004545Y015027D01*
X004545Y015186D02*
X008383Y015186D01*
X008518Y015344D02*
X004545Y015344D01*
X004545Y015503D02*
X008739Y015503D01*
X009176Y015661D02*
X004695Y015661D01*
X002676Y016771D02*
X001965Y016771D01*
X001965Y016930D02*
X002485Y016930D01*
X002349Y017088D02*
X001965Y017088D01*
X001965Y017247D02*
X002258Y017247D01*
X002204Y017405D02*
X001965Y017405D01*
X001965Y017564D02*
X002176Y017564D01*
X002170Y017722D02*
X001965Y017722D01*
X001965Y017881D02*
X002198Y017881D01*
X002237Y018039D02*
X001965Y018039D01*
X001965Y018198D02*
X002329Y018198D01*
X002443Y018357D02*
X001965Y018357D01*
X001965Y018515D02*
X002632Y018515D01*
X005457Y013808D02*
X005592Y013673D01*
X003748Y013600D02*
X003622Y013600D01*
X003665Y013442D02*
X003705Y013442D01*
X003705Y013283D02*
X003665Y013283D01*
X003665Y013125D02*
X003705Y013125D01*
X003705Y012966D02*
X003665Y012966D01*
X003665Y012825D02*
X003592Y012649D01*
D17*
X003185Y013161D02*
X003185Y011161D01*
X003185Y009661D02*
X005185Y011661D01*
X005185Y013161D01*
X004185Y013161D02*
X004185Y015661D01*
X004685Y016161D01*
X019185Y016161D01*
X020185Y015161D01*
X020185Y013661D01*
X021685Y012661D02*
X021685Y015161D01*
X020185Y016661D01*
X020185Y017661D01*
X021685Y016661D02*
X022185Y016161D01*
X023185Y016161D01*
X024185Y016161D01*
X024685Y016661D01*
X027185Y016161D02*
X027185Y017661D01*
X032685Y017661D01*
X033185Y015661D02*
X035185Y017661D01*
X037685Y017661D02*
X037685Y012661D01*
X037185Y012161D01*
X033185Y012161D01*
X032185Y011161D01*
X032185Y009661D01*
X029685Y009661D01*
X030385Y010361D02*
X030685Y010661D01*
X030685Y012661D01*
X032185Y012661D01*
X033685Y011161D02*
X034685Y011161D01*
X035185Y010661D01*
X035185Y009661D02*
X038185Y009661D01*
X038685Y009161D01*
X038685Y007161D01*
X040185Y007161D01*
X041685Y007161D02*
X041685Y006661D01*
X040685Y005661D01*
X036685Y006161D02*
X036685Y005161D01*
X036685Y006161D02*
X036185Y006661D01*
X033685Y006661D01*
X033685Y008161D02*
X034685Y008161D01*
X035185Y008661D01*
X033685Y008161D02*
X032185Y009661D01*
X030385Y010361D02*
X024685Y010361D01*
X023135Y011911D01*
X014435Y011911D01*
X013685Y012661D01*
X013685Y015161D01*
X013185Y015661D01*
X009685Y015661D01*
X009105Y015081D01*
X009105Y014161D01*
X007185Y014161D01*
X007185Y013161D02*
X008185Y012161D01*
X010185Y012161D01*
X010685Y012661D01*
X012265Y011081D01*
X012265Y009661D01*
X014685Y009661D02*
X014685Y005661D01*
X016185Y004661D02*
X016185Y006661D01*
X016185Y008161D01*
X016185Y009661D02*
X018685Y009661D01*
X020185Y008161D01*
X021185Y008161D01*
X021685Y008661D01*
X021685Y009661D02*
X024185Y009661D01*
X025185Y008661D01*
X025185Y007161D01*
X026685Y007161D01*
X028185Y007161D02*
X028185Y006661D01*
X027185Y005661D01*
X029685Y004661D02*
X029685Y006661D01*
X029685Y008161D01*
X028185Y011161D02*
X026685Y011161D01*
X027185Y012161D02*
X025185Y012161D01*
X024685Y012661D01*
X024185Y013161D01*
X023185Y013161D01*
X021685Y012661D02*
X017185Y012661D01*
X016185Y013661D01*
X014685Y013661D01*
X010685Y014161D02*
X010685Y012661D01*
X009105Y009661D02*
X008685Y009661D01*
X007185Y008161D01*
X005685Y009661D01*
X003185Y009661D01*
X003185Y008161D02*
X003185Y006661D01*
X004685Y005161D01*
X007185Y006661D02*
X010185Y006661D01*
X010685Y006161D01*
X010685Y005161D01*
X020185Y006661D02*
X022685Y006661D01*
X023185Y006161D01*
X023185Y005161D01*
X021685Y010661D02*
X021185Y011161D01*
X020185Y011161D01*
X027185Y012161D02*
X028185Y013161D01*
X027185Y013161D02*
X027185Y014161D01*
X028185Y015161D01*
X028185Y016161D01*
X029185Y017161D01*
X030185Y017161D01*
X030685Y016661D01*
X032685Y015661D02*
X033185Y015661D01*
X032685Y015661D02*
X028185Y011161D01*
X040185Y011161D02*
X040185Y017661D01*
X040185Y011161D02*
X041685Y011161D01*
M02*
